<svg xmlns="http://www.w3.org/2000/svg" width="105.728" height="132.961" viewBox="0 0 105.728 132.961"><g transform="translate(-52.434)"><path d="M118.113,0A24.014,24.014,0,0,0,97.288,12.047,24.028,24.028,0,1,0,76.463,48.058h41.651a24.029,24.029,0,1,0,0-48.058Z" fill="#fbcb82"/><g transform="translate(62.046 9.612)"><path d="M103.863,65.847a14.417,14.417,0,1,1,14.417-14.417A14.434,14.434,0,0,1,103.863,65.847Z" transform="translate(-89.446 -37.012)" fill="#fff3e1"/><path d="M264.248,65.847a14.417,14.417,0,1,1,14.417-14.417A14.434,14.434,0,0,1,264.248,65.847Z" transform="translate(-208.181 -37.012)" fill="#fff3e1"/></g><path d="M141.611,341.745H112.776l-.623,5.767L92.83,385.958h10.757l18.8-37.406v37.406H132V348.552l18.8,37.406h10.757l-19.323-38.446Z" transform="translate(-29.906 -252.997)" fill="#fbcb82"/><path d="M159.931,166.554H89.446v51.262h70.485V207.387l3.2-16.432-3.2-13.972Z" transform="translate(-27.4 -123.302)" fill="#f7882d"/><path d="M360.867,176.617v30.4L386.5,217.578V166.059Z" transform="translate(-228.336 -122.935)" fill="#444"/><rect width="28.835" height="9.612" transform="translate(82.871 62.476)" fill="#fbcb82"/></g></svg>