<svg xmlns="http://www.w3.org/2000/svg" width="118.312" height="118.313" viewBox="0 0 118.312 118.313"><g transform="translate(-99.371 -99.203)"><path d="M268.64,371.537a10.411,10.411,0,0,1-10.4-10.4v-3.466H231.668L240.911,375H268.64Zm0,0" transform="translate(-82.384 -160.953)" fill="#636363"/><path d="M193.067,357.672v3.466a10.41,10.41,0,0,1-10.4,10.4V375H210.4V357.672Zm0,0" transform="translate(-51.871 -160.953)" fill="#636363"/><path d="M292.438,307.224l-73.02-13.865,13.865,31.2h59.155Zm0,0" transform="translate(-74.755 -120.905)" fill="#242424"/><path d="M99.371,314.853v17.331h59.157V305.609Zm0,0" transform="translate(0 -128.533)" fill="#242424"/><path d="M292.438,209.2V135.953H233.283l-13.865,36.626L233.283,209.2Zm0,0" transform="translate(-74.755 -22.885)" fill="#434343"/><path d="M99.371,135.953h59.157V209.2H99.371Zm0,0" transform="translate(0 -22.885)" fill="#434343"/><path d="M308.392,213.715V154.328H256.168l45.291,59.386Zm0,0" transform="translate(-97.64 -34.327)" fill="#fdf9a5"/><path d="M169.97,154.328H117.746v59.386h6.933Zm0,0" transform="translate(-11.442 -34.327)" fill="#fff"/><path d="M293.6,394.422H248.54l-4.622,3.466,4.622,3.466H293.6Zm0,0" transform="translate(-90.012 -183.838)" fill="#434343"/><path d="M136.73,394.422h45.062v6.933H136.73Zm0,0" transform="translate(-23.264 -183.838)" fill="#434343"/><path d="M257.777,99.2l-3.466,9.243L250.844,99.2H233.283L219.418,139.3l48.758,40.092h10.4V99.2Zm0,0" transform="translate(-74.755 0)" fill="#f86d24"/><path d="M163.85,99.2l-3.466,9.243L156.917,99.2h-20.8v80.184h10.4L181.413,139.3V99.2Zm0,0" transform="translate(-22.885 0)" fill="#f86d24"/><path d="M268.176,126.766H233.283l-13.865,34.893,13.865,34.893h34.893Zm0,0" transform="translate(-74.755 -17.164)" fill="#fdf9a5"/><path d="M163.684,126.766h34.893v69.785H163.684Zm0,0" transform="translate(-40.049 -17.164)" fill="#fdf9a5"/><path d="M269.219,99.2h-6.933v17.331H244.725L237.793,120l6.933,3.466h24.494Zm0,0" transform="translate(-86.198 0)" fill="silver"/><path d="M198.175,116.534V99.2h-6.933v24.264h24.5v-6.933Zm0,0" transform="translate(-57.21 0)" fill="silver"/><path d="M191.242,183.113h6.933v6.933h-6.933Zm0,0" transform="translate(-57.21 -52.252)" fill="#fe6192"/><path d="M191.242,219.863h6.933V226.8h-6.933Zm0,0" transform="translate(-57.21 -75.137)" fill="#fe6192"/><path d="M191.242,256.613h6.933v6.932h-6.933Zm0,0" transform="translate(-57.21 -98.022)" fill="#fe6192"/><g transform="translate(155.061 130.861)"><path d="M274.94,183.113H250.447l-3.466,3.466,3.466,3.466H274.94Zm0,0" transform="translate(-246.98 -183.113)" fill="#636363"/><path d="M274.94,226.8v-6.933H250.447l-3.466,3.466,3.466,3.466Zm0,0" transform="translate(-246.98 -205.998)" fill="#636363"/><path d="M274.94,263.546v-6.932H250.447l-3.466,3.466,3.466,3.466Zm0,0" transform="translate(-246.98 -228.883)" fill="#636363"/></g><path d="M228.605,183.113H239v6.933h-10.4Zm0,0" transform="translate(-80.477 -52.252)" fill="#636363"/><path d="M228.605,219.863H239V226.8h-10.4Zm0,0" transform="translate(-80.477 -75.137)" fill="#636363"/><path d="M228.605,256.613H239v6.932h-10.4Zm0,0" transform="translate(-80.477 -98.022)" fill="#636363"/></g></svg>