<svg xmlns="http://www.w3.org/2000/svg" width="476.367" height="551.349" viewBox="0 0 476.367 551.349"><g transform="translate(-34.815)"><path d="M47.655,18.632a12.874,12.874,0,0,0-12.84,12.84v505.6a12.878,12.878,0,0,0,12.84,12.841H397.629a12.891,12.891,0,0,0,12.852-12.841V31.472a12.887,12.887,0,0,0-12.852-12.84Z" transform="translate(0 1.432)" fill="#004777"/><path d="M325.646,511.016H58.653V52.337h324.32V453.7Z" transform="translate(1.832 4.022)" fill="#fff"/><path d="M306.592,482.372V425.057h57.326Z" transform="translate(20.886 32.666)" fill="#cee2f2"/><path d="M241.511,27.834a27.783,27.783,0,1,0-55.566,0H150.772V84.88H276.695V27.834Zm-27.772-9.453a9.432,9.432,0,1,1-9.458,9.458A9.475,9.475,0,0,1,213.739,18.382Z" transform="translate(8.911 0)" fill="#18191a"/><path d="M241.511,27.834a27.783,27.783,0,1,0-55.566,0H150.772V56.358H276.695V27.834Zm-27.772-9.453a9.432,9.432,0,1,1-9.458,9.458A9.475,9.475,0,0,1,213.739,18.382Z" transform="translate(8.911 0)"/><rect width="125.923" height="5.952" transform="translate(159.683 50.404)" fill="#18191a"/><rect width="125.923" height="5.952" transform="translate(159.683 56.359)"/><g transform="translate(184.177 146.466)"><rect width="151.083" height="11.849" fill="#cee2f2"/><rect width="151.083" height="11.849" transform="translate(0 61.944)" fill="#cee2f2"/><rect width="151.083" height="11.849" transform="translate(0 123.887)" fill="#cee2f2"/><rect width="151.083" height="11.849" transform="translate(0 185.804)" fill="#cee2f2"/></g><g transform="translate(110.024 122.402)"><path d="M104.657,128.349l4.655-4.642,16.549,16.549,26.6-26.589,4.672,4.653-31.273,31.261Z" transform="translate(-104.657 -113.667)" fill="#f7882d"/><path d="M104.657,185.869l4.655-4.654,16.549,16.579,26.6-26.6,4.672,4.642L125.861,207.1Z" transform="translate(-104.657 -109.246)" fill="#f7882d"/><path d="M104.657,243.389l4.655-4.648,16.549,16.579,26.6-26.608,4.672,4.656-31.273,31.247Z" transform="translate(-104.657 -104.826)" fill="#f7882d"/><path d="M104.657,300.925l4.655-4.656,16.549,16.574,26.6-26.614,4.672,4.656-31.273,31.259Z" transform="translate(-104.657 -100.405)" fill="#f7882d"/></g><path d="M426.346,461.176l27.369,54.73,27.377-54.73Z" transform="translate(30.09 35.442)" fill="#fff"/><rect width="54.741" height="281.905" transform="translate(456.43 214.722)" fill="#ff9d4d"/><g transform="translate(456.43 214.722)"><rect width="13.693" height="281.905" fill="#f7882d"/><rect width="13.687" height="281.905" transform="translate(41.048)" fill="#f7882d"/></g><g transform="translate(456.436 496.618)"><path d="M426.346,461.176h13.693l13.676,54.73Z" transform="translate(-426.346 -461.176)" fill="#e1effa"/><path d="M479.139,461.176H465.452l-13.69,54.73Z" transform="translate(-424.393 -461.176)" fill="#e1effa"/></g><path d="M441.811,492.086l10.716,21.445L463.255,492.1Z" transform="translate(31.278 37.817)" fill="#18191a"/><g transform="translate(473.089 529.903)"><path d="M441.811,492.086l10.716,21.445-5.36-21.445Z" transform="translate(-441.811 -492.086)"/><path d="M457.135,492.086l-5.372,21.445L462.491,492.1Z" transform="translate(-441.046 -492.086)"/></g><rect width="54.741" height="9.131" transform="translate(456.43 205.598)" fill="#fff"/><g transform="translate(456.43 205.598)"><rect width="13.681" height="9.131" fill="#e1effa"/><rect width="13.693" height="9.131" transform="translate(41.048)" fill="#e1effa"/></g><path d="M453.715,165.5a27.377,27.377,0,0,0-27.369,27.369h54.741A27.381,27.381,0,0,0,453.715,165.5Z" transform="translate(30.09 12.719)"/><path d="M436.531,188.283a4.157,4.157,0,0,1-1.951-.472,4.276,4.276,0,0,1-1.861-5.756,23.016,23.016,0,0,1,20.546-12.573,4.284,4.284,0,0,1,0,8.568,14.452,14.452,0,0,0-12.921,7.92A4.306,4.306,0,0,1,436.531,188.283Z" transform="translate(30.543 13.025)" fill="#5e7e99"/></g></svg>