<svg xmlns="http://www.w3.org/2000/svg" xmlns:xlink="http://www.w3.org/1999/xlink" width="489.615" height="435.615" viewBox="0 0 489.615 435.615"><defs><clipPath id="a"><rect width="489.615" height="435.615" fill="none"/></clipPath></defs><path d="M284.8,300.07a.633.633,0,0,0-.8-.605q-2.327.758-4.678,1.438c-.724.208-1.45.4-2.176.6-.241.067-2.543.673-1.492.252.094-.037.057-.189-.043-.155a2.5,2.5,0,0,0-1.139.808.378.378,0,0,0,.264.638,31.975,31.975,0,0,0,6.3-1.36q-36.157,29.566-72.236,59.228-6.958-7.857-13.914-15.716a.82.82,0,0,0-1.151,0l-21.957,24.151a74.922,74.922,0,0,1-17.729-27.391.848.848,0,0,0-1.394-.368Q123.145,366.936,96,394.847a90.543,90.543,0,0,1-8.128-17.391.832.832,0,0,0-1.367-.361c-17.517,13.838-34.731,28.463-50.17,44.617a.406.406,0,0,0,.574.574C53.16,407.422,69.4,392.677,86.693,379.023a91.2,91.2,0,0,0,8.418,17.607.846.846,0,0,0,1.315.169q27.036-27.863,56.483-53.223a76.72,76.72,0,0,0,18.3,27.572.839.839,0,0,0,1.173,0L194.3,346.994q6.918,7.81,13.828,15.629a.835.835,0,0,0,1.155,0q37.075-30.4,74.1-60.863a35.673,35.673,0,0,0-.271,8.377c.083.574.969.511,1.1,0C285.007,307.014,284.7,303.281,284.8,300.07Z" transform="translate(-0.752 -6.22)" fill="#f7882d"/><g transform="translate(254.958 349.646)"><rect width="28.869" height="81.931" fill="#f7882d"/><rect width="14.998" height="81.931" transform="translate(13.871)" fill="#f7882d"/></g><g transform="translate(205.86 390.611)"><rect width="28.869" height="40.965" fill="#f7882d"/><rect width="14.434" height="40.965" transform="translate(14.434)" fill="#f7882d"/></g><g transform="translate(299.984 328.952)"><rect width="28.869" height="102.624" fill="#f7882d"/><rect width="14.434" height="102.624" transform="translate(14.434)" fill="#f7882d"/></g><g transform="translate(156.762 380.459)"><rect width="28.869" height="51.117" fill="#f7882d"/><rect width="14.434" height="51.117" transform="translate(14.434)" fill="#f7882d"/></g><g transform="translate(107.664 416.179)"><rect width="28.869" height="15.397" fill="#f7882d"/><path d="M0,0H14.434V15.4H0Z" transform="translate(14.434)" fill="#f7882d"/></g><rect width="309.355" height="3.528" transform="translate(87.724 431.576)" fill="#735696"/><g clip-path="url(#a)"><g transform="translate(227.57 -24.946)"><path d="M375.52,67.583a68.767,68.767,0,0,0-57.373-31.307c-2.633-.018-5.349-.833-7.9-.78-3.779.079-8.105,2.483-11.089,4.626-.8.577,13.152,7.689,14.147,8.22q5.308,2.833,10.806,5.29a172.6,172.6,0,0,0,23.875,8.625A170.57,170.57,0,0,0,375.52,67.583Z" transform="translate(-233.783 24.209)" fill="#b68e62"/><path d="M307.662,194.808c3.144,1.057,6.763,2.073,9.626.4,2.506-1.466,3.583-4.716,3.093-7.577a13.608,13.608,0,0,0-4.4-7.34c-.814-.767-1.734-2.013-.981-2.841a1.941,1.941,0,0,1,1.337-.476c3.762-.27,7.438,1.089,11.19,1.475s8.167-.614,9.842-3.993c1.332-2.683.419-6.044-1.451-8.382s-4.539-3.877-7.141-5.359c2.783-.388,5.673-.816,8.007-2.38s3.924-4.623,2.895-7.237c-1.568-3.987-7.147-3.928-10.939-5.922-5.058-2.662-6.68-8.942-8.482-14.366a70.186,70.186,0,0,0-14.76-25.15c-3.537-3.868-7.592-7.388-12.4-9.48s-10.455-2.628-15.287-.6c-4.856,2.043-8.33,6.342-11.594,10.478q-4.533,5.743-9.065,11.485c-3.114,3.944-6.291,8.005-7.806,12.8-2.083,6.578-1.062,14.779-.2,21.517,1.3,10.159,4.842,22.037,11.62,29.889a76.315,76.315,0,0,0,13.459,11.674,10.621,10.621,0,0,0,3.782,2,3.722,3.722,0,0,0,3.864-1.241c.8-1.176.583-2.766,1.073-4.1C285.413,183.366,303.56,193.43,307.662,194.808Z" transform="translate(-232.724 22.987)" fill="#fbba84"/><path d="M314.121,37.653a401.012,401.012,0,0,1,54.168,16.781c1.161.452-1.436,7.882-4.555,15.647-13.753-14.036-34.416-21.654-53.187-27.249C311.745,41.1,312.914,39.346,314.121,37.653Z" transform="translate(-234.021 24.164)" fill="#fbba84"/><path d="M270.017,194.886c-4.288-1.241-8.18-3.548-12.433-4.888-4.359-1.375-8.837-2.812-12.356-5.726-4.6-3.81-6.8-9.525-8-15.219s-2.349-10.773-3.962-16.335c-2.214-7.632.3-16.508,2.116-23.952q4.2-17.241,8.391-34.483c1.16-4.767,2.427-9.742,5.7-13.4,2.418-2.707,5.714-4.437,8.933-6.109l29.525-15.335c3.353-1.742,7.433-2.948,10.521-5.039,4.359-2.952,7.507-7.152,10.479-11.456,18.771,5.6,39.434,13.213,53.187,27.249-3.319,8.258-7.231,16.894-7.853,17.924-4.061,6.708-9.423,13.187-16.572,16.726-6.745,3.339-14.639,2.706-20.809,7.209-2.575,1.88-4.821,4.377-7.851,5.367-4.208,1.373-8.694-.5-12.872-1.963-2.929-1.024-6.6-2.03-9.677-1.078-2.42.748-4.222,2.655-6.317,3.977-2.245,1.417-4.363,1.769-6.769,2.594-5.445,1.867-9.816,7.4-11.993,12.557-3.212,7.609-1.194,13.333.445,20.665.271,1.214.6,13.072.162,12.889,3.854,1.6,7.842,3.056,10.785,6.147a17.539,17.539,0,0,0,2.748,18.989C279.511,196.552,272.579,195.627,270.017,194.886Z" transform="translate(-232.398 24.054)" fill="#fdd5ae"/><path d="M234.374,147.9a7.751,7.751,0,0,1,2.135-.767,3.533,3.533,0,0,1,2.265.029.436.436,0,0,1-.045.79,6.153,6.153,0,0,1-1.88.212,14,14,0,0,0-2.122.428C234.328,148.71,233.955,148.119,234.374,147.9Z" transform="translate(-232.435 21.894)" fill="#fbba84"/><path d="M246.373,181.779a7.248,7.248,0,0,1,2.942-4.768c.865-.671,3.6-2.761,4.694-2.068a.307.307,0,0,1,.135.395c-.076.224-.138.246-.351.343a.224.224,0,0,1-.259-.083l-.069-.1c-.009-.012,0-.023-.009-.034-.557.364-1.692,1.043-1.837,1.13a14.191,14.191,0,0,0-1.768,1.208,6.245,6.245,0,0,0-2.4,4.181C247.377,182.681,246.28,182.481,246.373,181.779Z" transform="translate(-232.688 21.315)" fill="#fbba84"/><path d="M248.073,184.158c.171-.775.929-1.379,1.451-1.952a19.381,19.381,0,0,1,1.847-1.883c.218-.181.558.122.418.363a19.278,19.278,0,0,1-1.553,2.138c-.481.614-.939,1.448-1.677,1.749A.371.371,0,0,1,248.073,184.158Z" transform="translate(-232.723 21.202)" fill="#fbba84"/><path d="M242.74,179.955a4.966,4.966,0,0,1,.607-1.368c.254-.48.52-.953.782-1.428a.355.355,0,0,1,.637.311c-.232.49-.461.981-.7,1.467a5.006,5.006,0,0,1-.755,1.294A.33.33,0,0,1,242.74,179.955Z" transform="translate(-232.612 21.27)" fill="#fbba84"/><path d="M265.2,190.936c.35.152.738.344,1.178.576,2.408,1.272,7.477,3.72,7.708,6.779-1.307-.339-12.8-5.861-13.547-4.615C262.275,190.79,262.727,189.863,265.2,190.936Z" transform="translate(-232.982 20.989)" fill="#ffeed7"/><path d="M375.458,66.072A52.736,52.736,0,0,1,382.391,47.9c.693-1.13-19.968-12.049-21.917-12.942a125.332,125.332,0,0,0-24.727-8.334,123.22,123.22,0,0,0-25.914-3c-3.612-.031-5.777-.285-7.176,3.244A60.629,60.629,0,0,0,299.391,39.3c3.624-.509,7.548-1.511,11.226-1.616,5.057-.143,10.68,1.884,15.508,3.231a140.225,140.225,0,0,1,30.385,12.479A137.515,137.515,0,0,1,375.458,66.072Z" transform="translate(-233.789 24.456)" fill="#ffeed7"/><path d="M401.869,5.272q-5.073,12.344-10.148,24.69c-2.595,6.316-3.989,13.828-7.651,19.6-2.736-1.6-4.709-4.016-7.324-5.768a88.228,88.228,0,0,0-10.567-5.6,128.364,128.364,0,0,0-45.546-12.466c-2.175-.177-22.331-1.579-22.732.218q5.47-24.536,10.939-49.073a128.292,128.292,0,0,1,86.7,13.814c3.576,2,7.449,4.8,7.715,8.89A13.063,13.063,0,0,1,401.869,5.272Z" transform="translate(-233.758 25.475)" fill="#233143"/><path d="M368.26,51.55a3.473,3.473,0,0,0,4.494.925,4.854,4.854,0,0,0,1.257-6.133C371.622,42.791,364.431,47.1,368.26,51.55Z" transform="translate(-235.197 24.011)" fill="#8bc751"/><g transform="translate(13.221 197.51)"><circle cx="31.29" cy="31.29" r="31.29" transform="matrix(0.214, -0.977, 0.977, 0.214, 0, 61.131)" fill="#fec438"/><circle cx="31.29" cy="31.29" r="31.29" transform="matrix(0.033, -0.999, 0.999, 0.033, 7.092, 68.855)" fill="#fff465"/><circle cx="25.044" cy="25.044" r="25.044" transform="matrix(0.535, -0.845, 0.845, 0.535, 4.828, 46.366)" fill="#fec438"/><g transform="translate(17.069 16.286)"><path d="M290.463,236.956a22.312,22.312,0,1,1,16.967-26.6A22.336,22.336,0,0,1,290.463,236.956Zm-9.45-42.719a21.439,21.439,0,1,0,25.565,16.3A21.464,21.464,0,0,0,281.014,194.237Z" transform="translate(-263.33 -192.856)" fill="#fff465"/></g><g transform="translate(32.287 25.537)"><path d="M287.366,225.394l-.216.048c-.592.131-1.128.231-1.6.3a12.257,12.257,0,0,1-1.373.119,12.683,12.683,0,0,1-1.322-.031c-.443-.036-.906-.092-1.4-.172a10.141,10.141,0,0,1-.053-1.643c.027-.564.073-1.154.146-1.773a10.762,10.762,0,0,0,2.269.164,12.58,12.58,0,0,0,2.17-.3,5.1,5.1,0,0,0,2.5-1.161,2.088,2.088,0,0,0,.515-2.08,2.045,2.045,0,0,0-.492-1.008,2.315,2.315,0,0,0-.8-.545,4.263,4.263,0,0,0-.976-.264c-.351-.054-.7-.118-1.033-.2l-1.566-.3a15.522,15.522,0,0,1-1.8-.437,5.266,5.266,0,0,1-1.474-.721,4.155,4.155,0,0,1-1.11-1.182,5.8,5.8,0,0,1-.707-1.853,5.362,5.362,0,0,1,.529-4.133,6.333,6.333,0,0,1,3.427-2.539l-.632-2.858a4.272,4.272,0,0,1,1.122-.419,4.819,4.819,0,0,1,1.223-.1l.614,2.777a14.254,14.254,0,0,1,2.145-.149,21.7,21.7,0,0,1,2.236.142,9.819,9.819,0,0,1-.182,3.264c-.294-.048-.591-.095-.9-.142a6.539,6.539,0,0,0-.948-.071,9.651,9.651,0,0,0-1.1.06,12.358,12.358,0,0,0-1.365.231,6.765,6.765,0,0,0-.916.273,2.438,2.438,0,0,0-.786.471,1.782,1.782,0,0,0-.487.744,1.944,1.944,0,0,0-.018,1.064,2.074,2.074,0,0,0,.392.874,1.881,1.881,0,0,0,.651.521,3.669,3.669,0,0,0,.826.283c.3.067.593.123.888.172l1.766.316q1.119.2,2.052.451a5.418,5.418,0,0,1,1.645.725,4.39,4.39,0,0,1,1.232,1.283,6.592,6.592,0,0,1,.808,2.126,5.822,5.822,0,0,1-.426,4.014,6.517,6.517,0,0,1-3.2,2.87l.691,3.128a4.312,4.312,0,0,1-1.125.419,4.637,4.637,0,0,1-1.221.1Z" transform="translate(-278.871 -202.303)" fill="#fff"/></g></g><g transform="translate(41.098 104.151)"><path d="M300.78,128.192a28.077,28.077,0,0,1,.448,5.042c-.077,6.248-3.15,13.439-5.316,19.211a38.449,38.449,0,0,1-13.138,17.288c-5.267,3.89-8.924,8.979-8.346,16.043.389,4.74,3.235,11.387,8.906,10.663,2.659-.34,4.982-1.938,7.017-3.683s3.927-3.7,6.263-5.019c3.4-1.912,7.486-2.312,10.891-4.217,5.309-2.971,8.01-8.963,11.877-13.66,4.047-4.917,9.532-8.544,13.312-13.67,5.395-7.315,6.8-16.9,9.3-25.451q4.436-15.21,7.9-30.683c.636-2.849,1.242-5.866.332-8.639-1.114-3.4-4.274-5.7-7.5-7.247-12.735-6.112-31.021-3.915-39.188,8.433-3.879,5.867-5.463,13.037-5.443,20.069C298.1,117.906,299.915,123.087,300.78,128.192Z" transform="translate(-274.367 -80.885)" fill="#fdd5ae"/><path d="M286.977,197.418a7.1,7.1,0,0,1-7.152-7.114c.145-3.17,3.387-6.739,6.724-6.6,3.279.138,6.094,4.287,8.657,5.978C292.745,192.454,289.71,194.886,286.977,197.418Z" transform="translate(-274.48 -83.02)" fill="#ffeed7"/><path d="M304.831,184.442c-1.3-1.46-2.119-3.213-3.529-4.626a28.4,28.4,0,0,0-4.644-3.577.2.2,0,0,1,.174-.355c3.365,1.234,7.725,4.575,8.722,8.191A.411.411,0,0,1,304.831,184.442Z" transform="translate(-274.828 -82.858)" fill="#fbba84"/><path d="M306.928,179.287a3.362,3.362,0,0,1-.123-.8,2.833,2.833,0,0,0-.324-.925,2.989,2.989,0,0,0-1.393-1.205.271.271,0,0,1,.168-.506,2.914,2.914,0,0,1,1.958,1.3,2.2,2.2,0,0,1,.339,2.254C307.385,179.653,307.026,179.511,306.928,179.287Z" transform="translate(-275.002 -82.857)" fill="#fbba84"/><path d="M331.817,148.764a34.008,34.008,0,0,0-7.458-4.013,30.159,30.159,0,0,0-4.2-1.169c-1.208-.243-3.738-.987-4.747-.155-.178.147-.451-.1-.339-.294,1.159-2.024,5.82-.6,7.5-.176a26.121,26.121,0,0,1,10.084,4.834C333.323,148.327,332.486,149.213,331.817,148.764Z" transform="translate(-275.212 -82.156)" fill="#fbba84"/><path d="M331.51,141.508c-.4-.257-.106-.918.334-.68.634.344,1.27.685,1.894,1.048a7.923,7.923,0,0,1,1.663,1.083c.232.232.07.753-.31.639A15.393,15.393,0,0,1,331.51,141.508Z" transform="translate(-275.55 -82.129)" fill="#fbba84"/></g></g><g transform="translate(-64.191 59.49)"><path d="M9.954,170.968A65.567,65.567,0,0,1,39.127,115.9c2.086-1.4,3.816-3.474,5.876-4.776,3.046-1.924,7.752-2.286,11.25-2.15.944.035-6.418,13.03-6.93,13.975Q46.592,128,43.51,132.841a164.734,164.734,0,0,1-14.453,19.412A162.657,162.657,0,0,1,9.954,170.968Z" transform="translate(63.985 -61.753)" fill="#b68e62"/><path d="M130.832,236.75c-1.947,2.494-4.289,5.2-7.447,5.378-2.764.151-5.33-1.867-6.444-4.4a12.967,12.967,0,0,1-.361-8.15c.244-1.038.32-2.514-.713-2.775a1.855,1.855,0,0,0-1.314.323c-3.135,1.764-5.343,4.777-8.125,7.056s-6.817,3.8-9.927,2c-2.47-1.435-3.511-4.587-3.252-7.43s1.571-5.469,2.861-8.017c-2.418,1.155-4.941,2.334-7.619,2.317s-5.551-1.614-6.108-4.234c-.848-4,3.62-6.882,5.587-10.461,2.624-4.777.612-10.626-.807-15.886a66.915,66.915,0,0,1-1.483-27.763,35.876,35.876,0,0,1,4.878-14.059c2.722-4.19,6.934-7.587,11.845-8.509,4.937-.928,9.961.665,14.731,2.238l13.248,4.369c4.55,1.5,9.212,3.06,12.937,6.073,5.115,4.139,8.615,11.2,11.472,17.009,4.307,8.764,7.734,20.073,6.472,29.882a72.746,72.746,0,0,1-4.566,16.361,10.135,10.135,0,0,1-1.958,3.577,3.547,3.547,0,0,1-3.725,1.045c-1.257-.513-1.917-1.895-3.011-2.7C142.512,215.952,133.37,233.5,130.832,236.75Z" transform="translate(62.482 -62.437)" fill="#fbba84"/><path d="M43.2,114.843a382.436,382.436,0,0,0-34.26,41.826c-.686.97,5.285,5.515,11.85,10.051,3.559-18.395,15.989-35.316,27.977-49.636C46.9,116.333,45.047,115.556,43.2,114.843Z" transform="translate(64.007 -61.876)" fill="#fbba84"/><path d="M159.843,217.527c2.758-3.241,4.642-7.122,7.32-10.425,2.744-3.385,5.549-6.882,6.816-11.05,1.659-5.451.4-11.152-1.636-16.312-2.36-5.969-4.3-12.158-6.706-18.137-2.968-7.372-9.184-12.419-15.3-17.13a185.767,185.767,0,0,1-16.786-14.426c-4.491-4.429-8.657-9.012-15.1-10.566a37.668,37.668,0,0,0-9.646-.645c-15.121.323-30.357,2.066-45.43,1.9-5.02-.056-9.732-1.741-14.357-3.6-11.988,14.32-24.417,31.241-27.977,49.636,6.98,4.823,14.632,9.636,15.669,10.127,6.757,3.2,14.428,5.535,21.975,4.591,7.12-.89,13.066-5.544,20.342-5.207,3.037.142,6.135.948,9.066.141,4.069-1.12,6.652-4.97,9.207-8.328,1.79-2.355,4.177-5.082,7.13-5.945,2.317-.678,4.753-.109,7.114-.159,2.531-.053,4.4-.887,6.748-1.5,5.313-1.379,11.7.724,16.141,3.681,6.554,4.363,7.959,9.977,10.511,16.669.422,1.108,6.392,10.715,6.647,10.336a46.489,46.489,0,0,0-6.363,12.354c.082-.271,5.7,5.7,6.124,6.437a24.093,24.093,0,0,1,2.718,8.121c.329,1.951-.567,2.934,1.815,2.68C157.234,220.626,159.018,218.5,159.843,217.527Z" transform="translate(63.754 -61.923)" fill="#fdd5ae"/><path d="M163.336,211.025c-.2.3-.406.662-.635,1.077-1.247,2.279-3.991,6.89-2.567,9.446.862-.958,7.1-11.389,8.348-10.793C165.582,209.374,164.735,208.874,163.336,211.025Z" transform="translate(60.873 -63.843)" fill="#ffeed7"/><path d="M54.2,107.637c-2.591,1.235-5.518,2.314-8.137,3.684-.417.213-.828.443-1.225.684-.139.079-.277.16-.413.247a17.314,17.314,0,0,0-1.743,1.24c-.379.288-.758.6-1.122.929a89.963,89.963,0,0,0-7.772,8.559c-.611.707-1.211,1.418-1.809,2.138-.3.355-.6.719-.894,1.082q-2.255,2.763-4.353,5.653c-.285.395-.57.789-.848,1.181a131.64,131.64,0,0,0-9.29,15.075c-.141.259-.274.515-.408.772-.072.135-.138.266-.208.409-.761,1.477-1.465,2.986-2.129,4.505-.2.451-.395.9-.585,1.356-1.907,4.482-3.566,9.048-5.555,13.456-.924-.76-1.856-1.516-2.8-2.266l-.687-.538c-1.073-.845-2.164-1.692-3.268-2.524-.316-.244-.63-.48-.943-.716q-3.314-2.471-6.732-4.892c-.351-.24-.7-.491-1.047-.73q-1.815-1.282-3.647-2.539c-.361-.244-.712-.484-1.065-.731-2.351-1.6-4.708-3.192-7.052-4.751-.337-.227-.671-.447-1-.666-1.592-1.063-3.169-2.107-4.735-3.145-3.893-2.578-8.962-4.919-14.186-7.414-.375-.186-.754-.361-1.136-.544-5.568-2.692-11.238-5.6-15.755-9.225-.284-.229-.557-.454-.833-.686-4.829-4.108-8.171-9.124-8.357-15.718a26.065,26.065,0,0,1,.341-4.986c.027-.207.066-.408.1-.618a31.811,31.811,0,0,1,1.346-4.945c.075-.243.167-.492.262-.732A50.66,50.66,0,0,1-57.019,88.6Q-55,85.8-52.741,83.213c.222-.255.446-.51.672-.757q2.2-2.46,4.6-4.732c.222-.21.445-.42.675-.633A78.669,78.669,0,0,1-29.949,65.174c.3-.158.6-.311.9-.461.319-.167.634-.323.956-.483a30.933,30.933,0,0,1,10.667-3.407c.464-.044.929-.063,1.39-.071.168,0,.329,0,.5,0a17.973,17.973,0,0,1,3.915.521c.476.1.957.239,1.432.386A46.06,46.06,0,0,1,.347,66.95Q2.4,68.232,4.494,69.537c.376.239.753.477,1.138.713,7.5,4.7,15.178,9.651,22.572,14.967.43.307.86.615,1.285.932.922.662,1.832,1.338,2.742,2.013.352.266.706.54,1.068.811q1.791,1.357,3.551,2.754c.445.346.885.7,1.325,1.06q3.961,3.184,7.687,6.566c.343.314.689.636,1.043.954,1.013.948,2.012,1.9,2.991,2.871.357.353.716.705,1.059,1.064C52.067,105.354,53.145,106.491,54.2,107.637Z" transform="translate(65.553 -60.752)" fill="#fff465"/><path d="M161.874,191.825c-.343.012-.341.528-.02.586a29.763,29.763,0,0,1,6.788,1.778,57.8,57.8,0,0,1,5.563,3.319c.074.042.141-.062.1-.122C171.808,193.821,166.108,191.679,161.874,191.825Z" transform="translate(60.834 -63.474)" fill="#fbba84"/><path d="M169.782,190.445a.287.287,0,0,0-.093.565,9.725,9.725,0,0,1,2.795,1.242c.757.5,1.311,1.2,2.027,1.743.232.175.611-.06.481-.352C174.169,191.794,171.676,190.67,169.782,190.445Z" transform="translate(60.671 -63.446)" fill="#fbba84"/><path d="M172.74,188.762c-.321-.092-.4.422-.084.513a11.175,11.175,0,0,1,1.708.846.187.187,0,0,0,.224-.279A3.359,3.359,0,0,0,172.74,188.762Z" transform="translate(60.609 -63.411)" fill="#fbba84"/><path d="M164.4,159.9c-3.921-1.235-9.591-.45-12.706,2.3a.257.257,0,0,0,.305.413,15.63,15.63,0,0,1,6.584-1.938c1.892-.138,3.846.24,5.706-.1C164.6,160.523,164.773,160.014,164.4,159.9Z" transform="translate(61.043 -62.8)" fill="#fbba84"/><path d="M157.251,155.608a5.227,5.227,0,0,0-2.112.192,6.409,6.409,0,0,0-1.82.582c-.179.1-.078.379.1.407a6.954,6.954,0,0,0,2.1-.11,4.8,4.8,0,0,0,1.864-.53C157.617,156.009,157.486,155.653,157.251,155.608Z" transform="translate(61.009 -62.721)" fill="#fbba84"/><path d="M120.5,125.229c-1.919.9-4.143,1.475-5.775,2.874-1.6,1.372-2.154,3.337-3.459,4.926-.217.264.182.574.411.329,1.5-1.6,2.132-3.737,4.016-5.018,1.609-1.093,3.829-1.179,5.11-2.7C120.973,125.449,120.748,125.115,120.5,125.229Z" transform="translate(61.881 -62.091)" fill="#fbba84"/><path d="M117.953,123.13a7.507,7.507,0,0,0-1.236.836,9.014,9.014,0,0,1-1.538.863.293.293,0,0,0,.21.546,4.178,4.178,0,0,0,2.9-1.889A.269.269,0,0,0,117.953,123.13Z" transform="translate(61.803 -62.047)" fill="#fbba84"/><path d="M50.961,104.241c-.343-.359-.7-.712-1.059-1.064-2.471,1.643-4.909,3.345-7.271,5.107q-1.522-1.354-3.041-2.7a82.527,82.527,0,0,1,7.322-5.277c-.354-.318-.7-.639-1.043-.954a79.12,79.12,0,0,0-7.255,5.358q-3.327-2.96-6.641-5.907c1.97-1.994,3.963-3.952,6.024-5.848.058-.059.127-.112.185-.169-.44-.356-.88-.714-1.325-1.06-2.081,1.983-4.081,4.061-6.036,6.049l-3.2-2.835c1.067-1.166,2.152-2.332,3.247-3.473q1.21-1.266,2.437-2.494c-.362-.271-.717-.544-1.068-.811q-2.877,2.882-5.625,5.891Q25.06,92.685,23.5,91.32q2.949-2.656,6-5.171c-.425-.317-.855-.625-1.285-.932-1.993,1.656-3.946,3.368-5.862,5.11C15.832,84.647,9.21,79.09,2.375,73.792c.936-1.019,1.862-2.043,2.8-3.053.151-.165.309-.333.463-.49-.385-.236-.762-.474-1.138-.713Q2.9,71.258,1.331,73c-2.038-1.571-4.1-3.124-6.182-4.64C-7.208,66.653-9.587,64.981-12,63.37c.6-.578,1.21-1.142,1.822-1.707-.475-.147-.956-.283-1.432-.386-.23.212-.449.431-.68.643-.259.252-.5.5-.764.748-.987-.646-1.975-1.292-2.972-1.916-.46.008-.925.026-1.39.071q1.845,1.256,3.678,2.526c-2.071,2.033-4.112,4.1-6.094,6.223q-4.559-2.513-9.207-4.86c-.3.15-.605.3-.9.461q4.7,2.556,9.32,5.226-3.842,4.161-7.433,8.537c-1.192,1.446-2.353,2.925-3.495,4.407-4.992-2.282-10.09-4.353-15.238-6.252-.23.212-.452.423-.675.633,5.107,2.095,10.211,4.207,15.215,6.52-1.226,1.611-2.438,3.234-3.613,4.887a148.822,148.822,0,0,0-16.2-6.675c-.226.247-.449.5-.672.757q8.24,3.12,16.146,6.947a195.713,195.713,0,0,0-10.571,16.708c-.215-.1-.433-.2-.647-.3-5.123-2.275-10.348-4.466-15.678-6.332-.095.241-.187.49-.262.732,5.4,2.194,10.762,4.433,16.06,6.818-.656,1.17-1.277,2.361-1.9,3.537a155.292,155.292,0,0,0-15.5-5.41c-.035.21-.073.411-.1.618,5.129,1.711,10.189,3.565,15.169,5.61-1.084,2.073-2.144,4.164-3.153,6.271-1.377,2.889-2.733,5.832-4,8.823.276.232.549.457.833.686.889-2.141,1.808-4.275,2.791-6.381,1.418-3.039,2.927-6.023,4.5-8.98q7.9,3.289,15.524,7.3c-1.277,2.477-2.468,4.992-3.557,7.566a92.036,92.036,0,0,0-3.5,9.72c.382.183.761.358,1.136.544a108.67,108.67,0,0,1,7.1-17.2c.586.319,1.184.624,1.769.943a191.3,191.3,0,0,1,18.213,11.5c-1.352,2.256-2.669,4.535-3.912,6.847q-2.258,4.18-4.251,8.473c.334.219.668.439,1,.666q3.787-7.788,8.247-15.193,3.23,2.356,6.372,4.834c-.095.17-.2.343-.285.51-2.533,4.705-5.125,9.585-7.282,14.6.354.248.7.488,1.065.732,1.814-3.957,3.592-7.936,5.61-11.8q.881-1.674,1.795-3.334c1.032.833,2.052,1.68,3.075,2.535q-1.213,2.377-2.361,4.782c-1.618,3.4-3.117,6.854-4.472,10.358.351.239.7.49,1.047.73q3.223-7.585,7-14.866,2.184,1.861,4.308,3.773c.6.544,1.176,1.091,1.761,1.641-.581,1.087-1.156,2.163-1.7,3.265A83.531,83.531,0,0,0,.015,162.563c.313.236.627.472.943.716a102.489,102.489,0,0,1,6.285-14.225c.888.853,1.768,1.727,2.635,2.6-.67,1.389-1.323,2.8-1.939,4.21A95.348,95.348,0,0,0,4.226,165.8l.687.538a131.081,131.081,0,0,1,5.856-13.786q1.271,1.291,2.5,2.6c.19-.456.383-.9.585-1.356-.825-.825-1.656-1.645-2.49-2.448q1.071-2.121,2.2-4.211c.321.277.646.544.966.823.489.437.976.872,1.455,1.331.07-.143.135-.274.208-.409.134-.257.267-.512.408-.772-.79-.712-1.608-1.405-2.414-2.111.67-1.2,1.344-2.4,2.039-3.58,2.281-3.878,4.742-7.656,7.322-11.337.781.644,1.567,1.3,2.343,1.953.278-.392.563-.786.848-1.181-.778-.655-1.57-1.3-2.351-1.949.661-.922,1.32-1.852,2-2.761.638-.869,1.29-1.724,1.942-2.58.077.041.159.09.237.131.849.494,1.693,1,2.529,1.506.3-.363.594-.727.894-1.082-.936-.559-1.876-1.107-2.825-1.651a70.538,70.538,0,0,1,9.918-10.7c.1-.091.2-.166.3-.248.186.161.374.3.552.465.548.476,1.1.952,1.639,1.438.364-.327.743-.641,1.122-.929Q41.6,112.544,40.5,111.6c.689-.549,1.385-1.084,2.09-1.613.757.672,1.5,1.339,2.252,2.014.4-.242.808-.471,1.225-.684Q44.86,110.26,43.66,109.2C46.037,107.475,48.5,105.853,50.961,104.241Zm-13.355,1.3c-.71.611-1.406,1.235-2.1,1.866-2.192-1.814-4.4-3.613-6.636-5.384.367-.39.716-.782,1.085-1.164s.759-.764,1.129-1.146Q34.35,102.617,37.606,105.542Zm-25.995,8.994c1.026.7,2.073,1.388,3.13,2.051-.856,1.157-1.707,2.33-2.536,3.512-.871-.69-1.742-1.381-2.625-2.057l-.3-.232C10.039,116.708,10.826,115.622,11.612,114.536Zm-3.326,2.524c-1.731-1.332-3.48-2.639-5.237-3.942q1.246-1.56,2.526-3.1c1.3,1.043,2.623,2.077,3.974,3.064.346.251.692.483,1.035.726Q9.428,115.429,8.285,117.061Zm4.937-2.946c-.288-.192-.574-.4-.854-.6q5.257-7.164,11.081-13.892c1.085.831,2.17,1.662,3.243,2.507q-4.787,5.217-9.169,10.8c-.687.878-1.353,1.767-2.027,2.658C14.734,115.1,13.974,114.611,13.223,114.114Zm-1.9-1.321c-1.681-1.2-3.33-2.455-4.938-3.745q5.756-6.833,12.169-13.1,1.924,1.426,3.825,2.862Q16.581,105.569,11.326,112.793ZM5.24,108.125C1.029,104.7-3.027,101.07-7.3,97.719c-2.194-1.724-4.47-3.336-6.792-4.86,3.324-4.18,6.8-8.248,10.314-12.244Q7.008,87.5,17.34,95.054,10.983,101.3,5.24,108.125ZM-10.5,96.782C-5.321,100.64-.56,105.014,4.428,109.1q-1.3,1.567-2.558,3.155c-6.6-4.833-13.371-9.445-20.37-13.682q1.807-2.431,3.69-4.8C-13.353,94.732-11.909,95.729-10.5,96.782ZM1.013,113.338Q-4.509,120.4-9.332,127.963a1.2,1.2,0,0,1-.112-.082q-9.827-6.626-20.251-12.328A163.326,163.326,0,0,1-19.267,99.612C-12.3,103.869-5.563,108.485,1.013,113.338Zm1.171.87q2.672,1.981,5.311,4.021Q2.5,125.556-1.907,133.2q-3.1-2.271-6.273-4.436Q-3.342,121.238,2.184,114.207Zm2.8,9.91c1.134-1.736,2.294-3.447,3.477-5.148.976.757,1.949,1.525,2.928,2.289q-5.018,7.23-9.306,14.921c-1.019-.776-2.039-1.552-3.071-2.314Q1.877,128.918,4.988,124.117Zm7.633-1.887q3.071,2.431,6.108,4.891l.353.292c-1.689,2.564-3.324,5.152-4.974,7.726q-2.244,3.521-4.377,7.1c-.441-.357-.871-.735-1.321-1.1Q5.9,139.1,3.333,137.127,7.637,129.463,12.621,122.23Zm.82-1.16c.864-1.232,1.745-2.443,2.628-3.646,2.31,1.421,4.666,2.78,7.02,4.13q-1.655,2.306-3.218,4.665C17.739,124.49,15.6,122.764,13.441,121.07Zm3.386-4.667A171.363,171.363,0,0,1,27.9,103.082q3.3,2.609,6.546,5.31a85.436,85.436,0,0,0-8.626,9.493q-.993,1.278-1.954,2.595C21.493,119.138,19.127,117.8,16.827,116.4ZM29.936,98.694c-.758.789-1.523,1.581-2.274,2.386-1.059-.831-2.129-1.669-3.2-2.5a.327.327,0,0,0-.063-.047q1.184-1.337,2.378-2.65C27.827,96.821,28.891,97.758,29.936,98.694Zm-4.173-3.7c-.821.9-1.638,1.814-2.442,2.737-1.235-.943-2.467-1.877-3.714-2.806.2-.183.389-.381.59-.574.778-.735,1.574-1.45,2.365-2.173C23.633,93.112,24.7,94.049,25.763,94.994ZM9.061,80.653q6.262,5.175,12.361,10.528c-1.018.943-2.035,1.895-3.034,2.866Q8.024,86.437-2.856,79.594q2.211-2.493,4.44-4.937Q5.361,77.6,9.061,80.653ZM-13.36,64.665c.207-.2.424-.4.632-.607Q-5.965,68.8.563,73.854C-.95,75.531-2.463,77.207-3.951,78.9q-5.9-3.682-11.933-7.138c-.946-.537-1.9-1.053-2.854-1.586C-16.979,68.308-15.192,66.464-13.36,64.665Zm-6.172,6.369q7.437,4.3,14.677,8.9c-2.311,2.66-4.609,5.332-6.855,8.047-1.153,1.387-2.28,2.79-3.407,4.194a126.232,126.232,0,0,0-13.359-7.392c-.654-.31-1.312-.61-1.966-.92Q-25.269,77.213-19.533,71.034ZM-31.139,84.763a130.02,130.02,0,0,1,15.294,8.324c-1.258,1.6-2.511,3.209-3.731,4.835-4.834-2.894-9.767-5.626-14.833-8.1-.131-.066-.25-.118-.382-.183Q-33,87.173-31.139,84.763Zm-11.184,16.06q3.236-5.184,6.793-10.161,7.753,3.8,15.195,8.3a161.511,161.511,0,0,0-10.52,15.958q-7.532-4.06-15.319-7.6C-44.927,105.137-43.649,102.963-42.323,100.823Zm9.243,18.167c-4.559-2.384-9.206-4.6-13.945-6.6-.531-.224-1.06-.44-1.587-.656.627-1.176,1.267-2.339,1.926-3.5,5.171,2.355,10.283,4.857,15.311,7.6C-31.955,116.883-32.525,117.93-33.08,118.99Zm1.188.613c.543-1.046,1.106-2.09,1.68-3.122q10.408,5.775,20.243,12.493c-.629,1.008-1.229,2.022-1.839,3.032A186.318,186.318,0,0,0-31.892,119.6Zm22.967,14.459c-.586-.435-1.189-.845-1.779-1.269.616-1.02,1.242-2.035,1.874-3.035q3.195,2.194,6.3,4.495c-.623,1.094-1.224,2.2-1.828,3.294Q-6.614,135.767-8.926,134.062Zm5.462,4.2c.616-1.109,1.233-2.219,1.87-3.32,1.024.766,2.059,1.535,3.079,2.312-.64,1.163-1.251,2.333-1.862,3.5C-1.389,139.91-2.426,139.087-3.463,138.265Zm4.277,3.509c.632-1.187,1.263-2.374,1.911-3.54.824.637,1.655,1.272,2.474,1.919,1.308,1.04,2.6,2.1,3.881,3.171q-1.112,1.911-2.164,3.834C4.919,145.321,2.882,143.519.814,141.773Zm9.649,8.708c-.806-.777-1.628-1.549-2.439-2.316-.069-.063-.145-.122-.213-.185q1.066-1.959,2.181-3.884c.88.739,1.751,1.475,2.627,2.226C11.879,147.694,11.156,149.084,10.463,150.482Zm2.775-5.305c-.863-.738-1.734-1.455-2.6-2.183q1.586-2.694,3.284-5.35c2.009-3.168,4.028-6.339,6.11-9.454.836.694,1.681,1.387,2.525,2.078A164.028,164.028,0,0,0,13.238,145.176Zm13.372-20.528q-1.644,2.194-3.225,4.436c-.847-.7-1.7-1.4-2.555-2.084,1.1-1.624,2.229-3.226,3.376-4.806.992.564,1.986,1.136,2.973,1.71C26.989,124.148,26.8,124.4,26.611,124.649Zm1.4-1.837c-.995-.572-2-1.137-3-1.7a91.168,91.168,0,0,1,10.431-11.9c.97.812,1.947,1.614,2.912,2.436A75.085,75.085,0,0,0,28.009,122.812Zm11.819-12.384c-.125.092-.236.2-.358.3-.982-.843-1.983-1.663-2.978-2.492.493-.456,1-.908,1.514-1.347.188-.161.386-.317.574-.478.688.609,1.368,1.221,2.056,1.83.312.281.626.561.935.834C40.986,109.52,40.4,109.967,39.828,110.427Z" transform="translate(65.545 -60.752)" fill="#c0aec3"/><g transform="translate(110.648 88.621)"><path d="M231.032,256.83c-.331.339-15.95,20-21.945,31.646s-13.355,28.235-13.355,28.235-51.475,1.4-104.924-46.993c-38.36-34.735-43.366-53.3-43.366-53.3L85.42,160.365s31.639,40.57,71.306,68.634C175.721,242.436,231.032,256.83,231.032,256.83Z" transform="translate(-47.442 -151.442)" fill="#81c453"/><path d="M234.279,242.795c-.3.364-14.329,21.19-19.39,33.272s-11.095,29.2-11.095,29.2-51.206,5.444-108.293-38.6C54.53,235.05,48.081,216.94,48.081,216.94l33.456-58.868s34.729,37.959,76.48,62.818C178.008,232.793,234.279,242.795,234.279,242.795Z" transform="translate(-47.455 -151.395)" fill="#a0cd4e"/><path d="M234.977,228.227c-.285.379-13.251,21.88-17.7,34.2s-9.619,29.716-9.619,29.716-50.87,8-110.089-33.135c-42.5-29.523-49.851-47.288-49.851-47.288l30.469-60.468s36.586,36.174,79.527,58.913C178.276,221.053,234.977,228.227,234.977,228.227Z" transform="translate(-47.448 -151.253)" fill="#b6d54b"/><path d="M65.531,208.761a10.825,10.825,0,0,1-3.475,12.444,71.95,71.95,0,0,1-6.651-8.557l4.88-9.687A10.806,10.806,0,0,1,65.531,208.761Z" transform="translate(-47.607 -152.327)" fill="#8bc751"/><path d="M89.292,170.1a11.5,11.5,0,0,1-13.783,2.625l5.181-10.274C83.024,164.581,85.918,167.177,89.292,170.1Z" transform="translate(-48.025 -151.486)" fill="#8bc751"/><path d="M210.281,273.442c-1.893,5.77-3.624,11.335-4.745,15.008a117.7,117.7,0,0,1-15.728-.264,15.733,15.733,0,0,1,20.474-14.743Z" transform="translate(-50.399 -153.776)" fill="#8bc751"/><path d="M227.7,235.136c-1.818,3.2-3.893,6.965-5.9,10.836a12.346,12.346,0,0,1-6.28-12.791C220.1,233.961,224.26,234.62,227.7,235.136Z" transform="translate(-50.93 -152.955)" fill="#8bc751"/><path d="M160.831,235.954c.886,14.9-6.781,24.332-19.539,30.7a40.022,40.022,0,0,1-11.118,4.088,197.148,197.148,0,0,1-24.694-14.063l0-.008c-.811-1.578-1.573-3.192-2.439-4.847-5.092-9.717-6.485-21.175-2.7-31.626,4.378-12.087,16.748-19.648,29.167-18.836l24.851,15.028.06.039c.117.143.231.277.34.422C158.908,222.142,160.435,229.255,160.831,235.954Z" transform="translate(-48.496 -152.293)" fill="#8bc751"/><path d="M224.378,233.666c-1.818,3.2-3.893,6.965-5.9,10.836a141.454,141.454,0,0,0-7.3,15.9c-1.224,3.383-2.484,7.109-3.689,10.752-1.893,5.77-3.624,11.335-4.745,15.008a117.7,117.7,0,0,1-15.728-.264c-14.045-1.123-34.476-4.911-57.729-15.963a197.144,197.144,0,0,1-24.694-14.063l0-.008q-1.528-1.018-3.064-2.086c-20.712-14.389-32.719-25.783-39.469-33.412a71.951,71.951,0,0,1-6.651-8.557l4.88-9.687,14.806-29.4,5.181-10.274c2.334,2.134,5.228,4.73,8.6,7.649a415.2,415.2,0,0,0,39.743,30.456c7.842,5.251,16.192,10.386,24.851,15.028l.06.039c.415.224.82.443,1.233.659,13.007,6.894,38.747,12.234,57.437,15.434C216.782,232.492,220.938,233.151,224.378,233.666Z" transform="translate(-47.607 -151.486)" fill="none" stroke="#e5eebb" stroke-miterlimit="10" stroke-width="0.849"/><g transform="translate(69.392 72.038)"><path d="M123.972,248.8l-.231-.083q-.944-.339-1.671-.663a13.805,13.805,0,0,1-1.35-.7,14.016,14.016,0,0,1-1.213-.807c-.393-.294-.791-.618-1.2-.981a11.226,11.226,0,0,1,.917-1.564c.356-.508.747-1.032,1.178-1.567a11.91,11.91,0,0,0,2.02,1.486,13.975,13.975,0,0,0,2.2,1,5.61,5.61,0,0,0,3.014.387,2.3,2.3,0,0,0,1.7-1.636,2.264,2.264,0,0,0,.133-1.229,2.552,2.552,0,0,0-.425-.978,4.722,4.722,0,0,0-.756-.822c-.295-.256-.579-.52-.848-.79l-1.282-1.2a17.032,17.032,0,0,1-1.417-1.463,5.79,5.79,0,0,1-.951-1.537,4.587,4.587,0,0,1-.341-1.756,6.363,6.363,0,0,1,.43-2.143,5.9,5.9,0,0,1,2.922-3.544,6.987,6.987,0,0,1,4.69-.354l1.09-3.037a4.7,4.7,0,0,1,1.294.269,5.253,5.253,0,0,1,1.2.626l-1.059,2.95a15.728,15.728,0,0,1,2.087,1.122,23.682,23.682,0,0,1,2,1.446,10.852,10.852,0,0,1-2.089,2.937c-.246-.217-.5-.436-.751-.658a7.248,7.248,0,0,0-.842-.625,11.075,11.075,0,0,0-1.063-.592,13.908,13.908,0,0,0-1.408-.586,7.334,7.334,0,0,0-1.014-.284,2.712,2.712,0,0,0-1.011-.023,1.973,1.973,0,0,0-.891.408,2.149,2.149,0,0,0-.642.982,2.3,2.3,0,0,0-.149,1.046,2.086,2.086,0,0,0,.3.869,4.149,4.149,0,0,0,.605.75q.358.355.727.683l1.461,1.333q.924.849,1.648,1.627a5.949,5.949,0,0,1,1.107,1.642,4.808,4.808,0,0,1,.4,1.92,7.25,7.25,0,0,1-.5,2.459,6.417,6.417,0,0,1-2.757,3.491,7.18,7.18,0,0,1-4.669.8l-1.194,3.323a4.759,4.759,0,0,1-1.3-.27,5.077,5.077,0,0,1-1.2-.625Z" transform="translate(-118.306 -224.819)" fill="#fff"/></g></g><g transform="translate(98.484 87.258)"><path d="M105.713,171.214a41.105,41.105,0,0,0,3.451,4.513,66.5,66.5,0,0,1,6.071,9.505,30.8,30.8,0,0,0,14.933,13.644c4.147,1.781,8.563,3.144,12.142,5.894,5.427,4.168,10.769,12.609,9.975,19.568-.367,3.227-.954,7.932-5.412,7.747-3.184-.131-5.018-3.533-7.41-5.638-4.55-4.006-11.368-3.313-17.388-4.027-8.441-1-16.055-5.138-23.117-9.634-3.121-1.988-6.092-2.636-9.341-4.18-3.988-1.9-7.66-4.493-11.53-6.614-12.036-6.6-24.605-10.514-35.865-18.9a22.6,22.6,0,0,1-5.492-5.254,8.692,8.692,0,0,1-1.411-7.248c.771-2.489,2.92-4.266,5.011-5.822,10.357-7.708,24.276-17.2,37.954-14.415,3.361.683,6.825,1.561,10.143,2.458a44.667,44.667,0,0,1,9.822,3.954c2.333,1.28,4.7,2.953,5.54,5.476.537,1.6.384,3.345.584,5.023A9.925,9.925,0,0,0,105.713,171.214Z" transform="translate(-35.021 -149.861)" fill="#fdd5ae"/><path d="M146.152,231.151A5.181,5.181,0,0,0,151,225.617c-.263-2.3-2.8-4.738-5.223-4.47-2.381.263-4.223,3.423-6.006,4.782C141.706,227.824,144.037,229.445,146.152,231.151Z" transform="translate(-37.196 -151.341)" fill="#ffeed7"/><path d="M93.417,201.261c.093-.441-.547-.69-.684-.233-.195.659-.394,1.318-.57,1.984a7.514,7.514,0,0,0-.39,1.851c0,.312.46.554.64.221A14.639,14.639,0,0,0,93.417,201.261Z" transform="translate(-36.199 -150.918)" fill="#fbba84"/><path d="M129.874,206.49a21.139,21.139,0,0,0-3.549,7.82c-.61,2.4-1.446,6.136-.359,8.471.029.063.144.087.168,0a15.8,15.8,0,0,0,.29-3.536,27.23,27.23,0,0,1,.613-4.168,35.933,35.933,0,0,1,3.366-8.272A.313.313,0,0,0,129.874,206.49Z" transform="translate(-36.899 -151.035)" fill="#fbba84"/><path d="M124.461,208.884a12.551,12.551,0,0,0-1.887,4.351c-.368,1.386-.906,3.239-.416,4.638a.161.161,0,0,0,.294.008c.554-1.216.492-2.742.828-4.043.418-1.618,1.142-3.081,1.676-4.65C125.056,208.889,124.674,208.6,124.461,208.884Z" transform="translate(-36.826 -151.084)" fill="#fbba84"/><path d="M118.927,212.011a3.317,3.317,0,0,0-.719,2.469.265.265,0,0,0,.5.081,9.16,9.16,0,0,0,.364-1.192,6.983,6.983,0,0,0,.254-1.179A.229.229,0,0,0,118.927,212.011Z" transform="translate(-36.748 -151.15)" fill="#fbba84"/><path d="M99.812,199.418a25.243,25.243,0,0,0-3.125,8.683.339.339,0,0,0,.642.192c1.138-2.791,2.128-5.749,3.064-8.615A.319.319,0,0,0,99.812,199.418Z" transform="translate(-36.301 -150.886)" fill="#fbba84"/><path d="M91.078,182.574a30.424,30.424,0,0,0-6.166,7.731c-1.239,2.142-3.407,5.405-2.467,8a.112.112,0,0,0,.212-.022c1.377-5.856,5.136-10.666,8.827-15.282C91.687,182.743,91.338,182.347,91.078,182.574Z" transform="translate(-36.001 -150.539)" fill="#fbba84"/></g></g><g transform="translate(294.73 175.514)"><g transform="translate(16.267 39.574)"><path d="M442.8,367.894a68.669,68.669,0,0,0,35.171-54.978c.2-2.621,1.2-5.27,1.326-7.819.184-3.769-1.911-8.246-3.838-11.367-.519-.841-8.573,12.567-9.171,13.521q-3.192,5.091-6.02,10.4a172.427,172.427,0,0,0-10.251,23.183A170.282,170.282,0,0,0,442.8,367.894Z" transform="translate(-320.195 -221.188)" fill="#b68e62"/><path d="M319.319,291.4c-1.27,3.059-2.535,6.592-1.064,9.561,1.286,2.6,4.449,3.9,7.333,3.607a13.6,13.6,0,0,0,7.617-3.871c.821-.757,2.126-1.587,2.9-.78a1.938,1.938,0,0,1,.382,1.365c.008,3.767-1.6,7.333-2.246,11.045s.045,8.177,3.294,10.081c2.58,1.513,5.991.837,8.451-.864s4.177-4.252,5.834-6.741c.194,2.8.419,5.708,1.815,8.142s4.333,4.229,7.009,3.386c4.079-1.286,4.409-6.847,6.659-10.486,3-4.854,9.372-6.034,14.9-7.452a70.077,70.077,0,0,0,26.077-12.956c4.1-3.255,7.888-7.049,10.305-11.692s3.344-10.232,1.655-15.186c-1.7-4.979-5.74-8.74-9.633-12.278l-10.812-9.829c-3.713-3.375-7.537-6.821-12.2-8.665-6.41-2.53-14.648-2.085-21.421-1.693-10.21.589-22.288,3.293-30.581,9.5a76.185,76.185,0,0,0-12.564,12.6,10.6,10.6,0,0,0-2.252,3.628,3.716,3.716,0,0,0,.967,3.936c1.115.882,2.715.772,4.013,1.354C332.264,270.029,320.977,287.406,319.319,291.4Z" transform="translate(-317.594 -219.986)" fill="#fbba84"/><path d="M476.906,308.809A400.386,400.386,0,0,1,456.427,361.6c-.531,1.125-7.752-1.977-15.27-5.625,14.937-12.725,23.96-32.78,30.839-51.089C473.64,306.2,475.3,307.489,476.906,308.809Z" transform="translate(-320.161 -221.421)" fill="#fbba84"/><path d="M320.818,253.808c1.534-4.186,4.1-7.9,5.734-12.047,1.672-4.246,3.415-8.606,6.561-11.91,4.116-4.32,9.961-6.114,15.718-6.913s10.895-1.593,16.547-2.813c7.756-1.674,16.424,1.451,23.713,3.772l33.767,10.754c4.668,1.487,9.537,3.094,12.954,6.6,2.528,2.6,4.024,6,5.466,9.324L454.5,281.054c1.5,3.462,2.422,7.611,4.29,10.83,2.637,4.548,6.6,7.976,10.684,11.235-6.879,18.31-15.9,38.364-30.839,51.089-8-3.879-16.327-8.375-17.31-9.068-6.4-4.511-12.481-10.3-15.511-17.67-2.857-6.952-1.678-14.771-5.736-21.23-1.693-2.7-4.026-5.106-4.8-8.194-1.075-4.287,1.1-8.626,2.85-12.686,1.223-2.847,2.48-6.429,1.746-9.565-.578-2.462-2.351-4.39-3.522-6.569-1.256-2.334-1.46-4.47-2.114-6.923-1.482-5.555-6.689-10.293-11.675-12.819-7.356-3.728-13.2-2.115-20.616-.993-1.228.186-13.064-.306-12.85-.734-1.862,3.729-3.589,7.6-6.872,10.317a17.512,17.512,0,0,0-19.107,1.419C318.5,263.149,319.9,256.307,320.818,253.808Z" transform="translate(-317.641 -219.65)" fill="#fdd5ae"/><path d="M373.347,221.717a7.8,7.8,0,0,1,.616,2.18,3.522,3.522,0,0,1-.188,2.254.435.435,0,0,1-.783-.1,6.148,6.148,0,0,1-.08-1.887,14,14,0,0,0-.279-2.145C372.548,221.615,373.161,221.284,373.347,221.717Z" transform="translate(-318.737 -219.689)" fill="#fbba84"/><path d="M338.642,231.308a7.239,7.239,0,0,1,4.546,3.262c.608.908,2.5,3.783,1.734,4.82a.308.308,0,0,1-.4.108c-.217-.092-.234-.155-.317-.374a.225.225,0,0,1,.1-.252l.1-.061c.013-.008.024,0,.035-.007-.325-.58-.921-1.758-1-1.908a14.235,14.235,0,0,0-1.081-1.844,6.234,6.234,0,0,0-4-2.683C337.673,232.245,337.949,231.167,338.642,231.308Z" transform="translate(-318.017 -219.892)" fill="#fbba84"/><path d="M336.223,232.841c.76.224,1.309,1.022,1.844,1.581a19.268,19.268,0,0,1,1.747,1.97c.165.23-.161.548-.391.392a19.314,19.314,0,0,1-2.022-1.7c-.578-.522-1.378-1.036-1.625-1.793A.37.37,0,0,1,336.223,232.841Z" transform="translate(-317.971 -219.924)" fill="#fbba84"/><path d="M340.8,227.821a4.979,4.979,0,0,1,1.321.7c.46.287.913.585,1.368.879a.354.354,0,0,1-.355.612c-.471-.265-.945-.528-1.412-.8a5.025,5.025,0,0,1-1.236-.842A.33.33,0,0,1,340.8,227.821Z" transform="translate(-318.068 -219.82)" fill="#fbba84"/><path d="M328.19,249.428c-.176.338-.394.712-.656,1.134-1.435,2.31-4.224,7.19-7.288,7.207.429-1.278,6.727-12.338,5.539-13.174C328.538,246.529,329.431,247.043,328.19,249.428Z" transform="translate(-317.649 -220.168)" fill="#ffeed7"/><path d="M444.09,367.92a52.678,52.678,0,0,1,17.621,8.17c1.078.769,13.39-19.055,14.415-20.934A125.116,125.116,0,0,0,486.146,331.1a123.09,123.09,0,0,0,4.792-25.606c.281-3.6.684-5.736-2.734-7.373a60.4,60.4,0,0,0-12.16-4.118c.255,3.645.98,7.623.829,11.3-.209,5.047-2.619,10.508-4.3,15.223a140.04,140.04,0,0,1-14.542,29.4A137.355,137.355,0,0,1,444.09,367.92Z" transform="translate(-320.221 -221.195)" fill="#ffeed7"/><path d="M502.119,398.4l-23.891-11.822c-6.111-3.025-13.5-4.935-18.991-8.983,1.788-2.614,4.327-4.412,6.254-6.895a88,88,0,0,0,6.308-10.138,128.168,128.168,0,0,0,15.581-44.5c.328-2.154,3.125-22.135,1.361-22.66L536.867,307.7a128.109,128.109,0,0,1-19.782,85.4c-2.245,3.423-5.3,7.088-9.393,7.069A13.038,13.038,0,0,1,502.119,398.4Z" transform="translate(-320.536 -221.182)" fill="#f25f46"/></g><path d="M3.911,0H16.869a0,0,0,0,1,0,0V67.329a0,0,0,0,1,0,0H0a0,0,0,0,1,0,0V3.911A3.911,3.911,0,0,1,3.911,0Z" transform="translate(109.009 0) rotate(47.622)" fill="#233143"/><rect width="16.869" height="4.196" transform="translate(62.372 42.553) rotate(47.622)" fill="#ffeed7"/><path d="M390.74,226.831h0L425.8,194.843l3.279,3.594-31.464,28.709A4.866,4.866,0,0,1,390.74,226.831Z" transform="translate(-302.846 -179.561)" fill="#364973"/><rect width="13.712" height="67.329" transform="translate(60.183 46.687) rotate(47.622)" fill="#233143"/><rect width="13.712" height="5.548" transform="translate(60.183 46.687) rotate(47.622)" fill="#162334"/><path d="M300.982,292.4l4.234-1.867a11.4,11.4,0,0,0-2.274-1.663Z" transform="translate(-300.982 -181.514)" fill="#233143"/><path d="M311.47,273.258l-8.486,15.283a11.4,11.4,0,0,1,2.274,1.663l15.454-6.816Z" transform="translate(-301.024 -181.19)" fill="#364973"/><rect width="8.751" height="2.07" transform="matrix(0.674, 0.739, -0.739, 0.674, 117.054, 8.817)" fill="#364973"/><g transform="translate(17.595 73.946)"><path d="M394.015,288.755a31.552,31.552,0,0,1-5.681.108c-6.99-.575-14.8-4.577-21.095-7.453a43.163,43.163,0,0,1-18.332-16.059c-3.944-6.2-9.356-10.693-17.31-10.6-5.339.065-13,2.734-12.634,9.139.172,3,1.78,5.73,3.575,8.144s3.841,4.686,5.13,7.4c1.875,3.956,2,8.563,3.871,12.523,2.911,6.177,9.409,9.669,14.367,14.365,5.189,4.916,8.823,11.339,14.266,15.972,7.77,6.612,18.4,8.936,27.771,12.394q16.685,6.156,33.739,11.238c3.139.935,6.47,1.849,9.645,1.046,3.889-.982,6.717-4.34,8.7-7.827,7.838-13.782,6.806-34.429-6.384-44.536-6.264-4.8-14.17-7.136-22.045-7.662C405.739,286.56,399.8,288.186,394.015,288.755Z" transform="translate(-318.95 -254.751)" fill="#fdd5ae"/><path d="M320,268.065c.062-3.355,3.928-8.793,7.752-6.512a9.525,9.525,0,0,1,2.925,3.373c1.25,2.012,2.944,5.133,2.134,7.62-.277.85-4.831,5.295-4.79,5.337C325.111,274.912,322.624,271.323,320,268.065Z" transform="translate(-318.972 -254.881)" fill="#ffeed7"/><path d="M378.673,311.734c-1.843,1.33-3.308,3.157-5.135,4.544-2,1.519-4.21,2.679-6.307,4.05a.246.246,0,0,0,.189.448c4.154-1.064,9.744-4.595,11.86-8.435C379.479,311.98,379.053,311.459,378.673,311.734Z" transform="translate(-319.95 -255.933)" fill="#fbba84"/><path d="M371.079,312.933a8.429,8.429,0,0,0-.678,1.084,5.811,5.811,0,0,1-.9,1.013,18.316,18.316,0,0,1-2.33,1.37.342.342,0,0,0,.08.616,3.647,3.647,0,0,0,2.939-.969c.764-.609,1.765-1.726,1.7-2.775A.483.483,0,0,0,371.079,312.933Z" transform="translate(-319.948 -255.957)" fill="#fbba84"/><path d="M370.635,307.661c-.883.628-9.188,8.283-9.382,8.054a.254.254,0,0,0-.422.246l.083.252a.3.3,0,0,0,.212.212c1.419.259,3.035-1.674,4.033-2.508a49.236,49.236,0,0,0,6.073-5.482C371.57,308.04,371.122,307.313,370.635,307.661Z" transform="translate(-319.82 -255.849)" fill="#fbba84"/><path d="M343.071,282.739a15.052,15.052,0,0,0-8.921,5.3c-.12.151.037.43.227.295a44.2,44.2,0,0,1,4.25-2.882c1.521-.838,3.148-1.344,4.727-2.041C343.77,283.227,343.441,282.687,343.071,282.739Z" transform="translate(-319.265 -255.333)" fill="#fbba84"/><path d="M340.536,288.748a10.673,10.673,0,0,0-3.536,2.59c-.163.148.045.391.227.294a10.559,10.559,0,0,0,3.591-2.4C340.98,289.027,340.841,288.647,340.536,288.748Z" transform="translate(-319.324 -255.457)" fill="#fbba84"/><path d="M344.416,289.089a16.049,16.049,0,0,1-3.168,3.563,17.452,17.452,0,0,1-4.3,2.1.242.242,0,0,0,.065.473c3.386.212,7.168-2.66,8.168-5.815C345.331,288.93,344.677,288.729,344.416,289.089Z" transform="translate(-319.32 -255.461)" fill="#fbba84"/><path d="M383.8,319.348a30.239,30.239,0,0,1-4.044,4.532c-1.717,1.447-3.691,2.242-5.525,3.467-.178.119-.135.477.122.448,4.026-.445,8.427-4.386,10.083-7.955C384.611,319.458,384.107,318.96,383.8,319.348Z" transform="translate(-320.096 -256.09)" fill="#fbba84"/></g></g></g></svg>