<svg xmlns="http://www.w3.org/2000/svg" xmlns:xlink="http://www.w3.org/1999/xlink" width="529.115" height="406.171" viewBox="0 0 529.115 406.171"><defs><radialGradient id="a" cx="347.83" cy="235.223" r="39.155" gradientTransform="matrix(1.076, -0.222, 0.222, 1.076, -30.755, 59.225)" gradientUnits="userSpaceOnUse"><stop offset="0.219" stop-color="#e5e5e5"/><stop offset="0.883" stop-color="#fcfcfc"/></radialGradient><radialGradient id="b" cx="307.769" cy="146.933" r="35.718" gradientTransform="matrix(1.01, -0.208, 0.205, 0.995, 7.382, 49.657)" gradientUnits="userSpaceOnUse"><stop offset="0.26" stop-color="#6fb452"/><stop offset="0.76" stop-color="#83c76b"/></radialGradient><radialGradient id="c" cx="133.469" cy="-146.158" r="26.088" gradientTransform="matrix(0.722, -0.149, 0.149, 0.722, 67.994, -86.959)" gradientUnits="userSpaceOnUse"><stop offset="0.219" stop-color="#e5e5e5"/><stop offset="0.883" stop-color="#fff"/></radialGradient><radialGradient id="d" cx="-379.276" cy="-277.472" r="64.503" gradientTransform="translate(-238.823 -181.349) scale(0.698 0.698)" gradientUnits="userSpaceOnUse"><stop offset="0.168" stop-color="#a51e23"/><stop offset="0.765" stop-color="#be2d2a"/></radialGradient><radialGradient id="e" cx="-11.465" cy="25.879" r="68.666" gradientTransform="matrix(0, 1, -1, 0, 14.414, 37.345)" gradientUnits="userSpaceOnUse"><stop offset="0" stop-color="#475994"/><stop offset="0.301" stop-color="#475994"/><stop offset="1" stop-color="#6a81ca"/></radialGradient><radialGradient id="f" cx="19.043" cy="42.162" r="54.087" gradientTransform="translate(0.677 -0.398) scale(0.964 1.009)" gradientUnits="userSpaceOnUse"><stop offset="0.092" stop-color="#f8f63b"/><stop offset="0.73" stop-color="#fdfb3b"/></radialGradient><radialGradient id="g" cx="-4.279" cy="16.184" r="73.213" gradientTransform="matrix(0, 1, -1, 0, 11.904, 20.462)" gradientUnits="userSpaceOnUse"><stop offset="0.097" stop-color="#f3d67e"/><stop offset="0.155" stop-color="#eec97a"/><stop offset="0.26" stop-color="#e2a86f"/><stop offset="0.402" stop-color="#ce725f"/><stop offset="0.449" stop-color="#c75f59"/><stop offset="0.679" stop-color="#b32e97"/><stop offset="1" stop-color="#6868da"/></radialGradient></defs><g transform="translate(-85.156 -157.916)"><g transform="translate(85.156 190.934)"><path d="M575.319,328.553c25.566-53.368-13.548-118.979-61.672-146.048-38.555-21.688-86.231-30.586-129.7-21.335-38.038,8.095-72.186,29.13-110.648,35.555-54.6,9.122-108.115-14.952-155.866,23.516C94.193,238.961,78.544,266.1,70.8,294.92c-23.811,88.608,26.346,166.7,101.633,209.638,54.159,30.889,122.214,34.235,179.791,10.883,43.523-17.653,70.8-51.768,99.094-87.64,15.438-19.576,32.984-39.159,55.6-50.509,20.912-10.494,42.342-12.547,57.977-32.185A86.589,86.589,0,0,0,575.319,328.553Z" transform="translate(-64.83 -157.539)" fill="#fff3e1"/><path d="M419.924,308.781a50.183,50.183,0,0,0-20.608-7.361c-57.134-6.959-85.278,86.608-22.383,94.543C423.713,401.865,469.673,340.152,419.924,308.781Z" transform="translate(87.688 -78.336)" fill="#fff3e1"/></g><g transform="translate(222.964 286.889)"><path d="M153.63,389.508v5.315a6.544,6.544,0,0,0,6.544,6.544H472.4a6.544,6.544,0,0,0,6.544-6.544v-5.315Z" transform="translate(-153.63 -125.472)" fill="#999"/><path d="M295.722,421.13l1.661-1.214H337.86l1.347,1.214H472.722a6.519,6.519,0,0,0,6.235-8.416l-20.289-66.655a6.521,6.521,0,0,0-6.236-4.62H181.04a6.518,6.518,0,0,0-6.228,4.594l-20.59,66.655a6.518,6.518,0,0,0,6.228,8.442Z" transform="translate(-153.466 -152.001)" fill="#e5e3e4"/><path d="M189.665,347.689H410.32l7.727,35.769H183.016Z" transform="translate(-137.412 -148.552)" fill="#c3c3c3"/><path d="M260.581,224.216a1.626,1.626,0,1,1-1.626-1.626A1.626,1.626,0,0,1,260.581,224.216Z" transform="translate(-96.4 -217.592)" fill="none" stroke="#000" stroke-miterlimit="10" stroke-width="1"/><path d="M5.549,0H255.69a5.549,5.549,0,0,1,5.549,5.549V15.855a0,0,0,0,1,0,0H0a0,0,0,0,1,0,0V5.549A5.549,5.549,0,0,1,5.549,0Z" transform="translate(31.409 12.052)" fill="none" stroke="#000" stroke-miterlimit="10" stroke-width="1"/><rect width="12.578" height="7.906" transform="translate(39.675 16.048)" fill="none" stroke="#000" stroke-miterlimit="10" stroke-width="1"/><rect width="108.89" height="6.109" transform="translate(58.722 17.126)" fill="none" stroke="#000" stroke-miterlimit="10" stroke-width="1"/><rect width="81.735" height="143.749" transform="translate(35.362 34.376)" fill="none" stroke="#000" stroke-miterlimit="10" stroke-width="1"/><rect width="61.814" height="94.875" transform="translate(227.008 83.251)" fill="none" stroke="#000" stroke-miterlimit="10" stroke-width="1"/><rect width="61.814" height="41.927" transform="translate(227.008 34.376)" fill="none" stroke="#000" stroke-miterlimit="10" stroke-width="1"/><rect width="100.467" height="31.625" transform="translate(121.814 34.376)" fill="none" stroke="#000" stroke-miterlimit="10" stroke-width="1"/><rect width="100.467" height="31.625" transform="translate(121.814 70.82)" fill="none" stroke="#000" stroke-miterlimit="10" stroke-width="1"/><rect width="100.467" height="31.625" transform="translate(121.814 107.264)" fill="none" stroke="#000" stroke-miterlimit="10" stroke-width="1"/><rect width="100.467" height="31.625" transform="translate(121.814 143.708)" fill="none" stroke="#000" stroke-miterlimit="10" stroke-width="1"/><rect width="281.03" height="190.827" rx="10.167" transform="translate(21.514)" fill="#464646"/><rect width="261.239" height="172.182" rx="4.186" transform="translate(31.409 11.403)" fill="#fff"/><rect width="220.655" height="3.234" transform="translate(52.253 190.306)"/><path d="M172.535,348.262h23.988l-7.547,35.578H163.1Z" transform="translate(-148.403 -148.235)" fill="#c3c3c3"/><path d="M331.859,349.3l7.008,33.961h25.875L356.117,349.3Z" transform="translate(-55.267 -147.66)" fill="#c3c3c3"/><path d="M316.993,396.315h-84.17a4.215,4.215,0,0,1-4.2-4.541l1.016-13.064a4.212,4.212,0,0,1,4.218-3.886l82.325.36a4.213,4.213,0,0,1,4.185,3.939l.83,12.7A4.213,4.213,0,0,1,316.993,396.315Z" transform="translate(-112.25 -133.576)" fill="#c3c3c3"/><path d="M260.581,223.8a1.626,1.626,0,1,1-1.626-1.625A1.626,1.626,0,0,1,260.581,223.8Z" transform="translate(-96.4 -217.823)" fill="#989898"/><g transform="translate(48.839 200.026)"><path d="M197.6,348.681" transform="translate(-178.199 -348.031)" fill="#464646"/><rect width="13.342" height="2.965" rx="0.939" transform="translate(4.919 0.65)" fill="#464646"/><rect width="20.889" height="4.852" rx="1.375" transform="translate(2.561 12.525)" fill="#464646"/><rect width="13.342" height="4.852" rx="1.375" transform="translate(27.728 19.518)" fill="#464646"/><rect width="76.21" height="5.391" rx="1.375" transform="translate(69.842 26.562)" fill="#464646"/><rect width="13.342" height="4.852" rx="1.375" transform="translate(41.71 12.525)" fill="#464646"/><rect width="13.342" height="4.852" rx="1.375" transform="translate(57.343 12.525)" fill="#464646"/><rect width="13.342" height="4.852" rx="1.375" transform="translate(72.975 12.525)" fill="#464646"/><rect width="13.342" height="4.852" rx="1.375" transform="translate(182.405 12.525)" fill="#464646"/><rect width="13.342" height="4.852" rx="1.375" transform="translate(198.037 12.525)" fill="#464646"/><rect width="11.421" height="11.421" rx="1.375" transform="translate(214.075 12.779)" fill="#464646"/><rect width="13.342" height="4.852" rx="1.375" transform="translate(66.305 5.896)" fill="#464646"/><rect width="13.342" height="4.852" rx="1.375" transform="translate(81.937 5.896)" fill="#464646"/><rect width="13.342" height="2.965" rx="0.939" transform="translate(36.184 0.65)" fill="#464646"/><rect width="13.342" height="2.965" rx="0.939" transform="translate(67.45 0.65)" fill="#464646"/><rect width="13.342" height="2.965" rx="0.939" transform="translate(145.614 0.65)" fill="#464646"/><rect width="13.342" height="2.965" rx="0.939" transform="translate(161.247 0.65)" fill="#464646"/><rect width="13.342" height="2.965" rx="0.939" transform="translate(192.512 0.65)" fill="#464646"/><rect width="13.342" height="2.965" rx="0.939" transform="translate(208.145 0.65)" fill="#464646"/><path d="M197.6,348.262" transform="translate(-178.199 -348.262)" fill="#464646"/><rect width="13.342" height="4.852" rx="1.375" transform="translate(4.178 5.896)" fill="#464646"/><rect width="17.52" height="4.852" rx="1.375" transform="translate(0 26.831)" fill="#464646"/><rect width="23.449" height="4.852" rx="1.375" transform="translate(1.28 19.518)" fill="#464646"/><rect width="13.342" height="4.852" rx="1.375" transform="translate(19.406 5.896)" fill="#464646"/><rect width="13.342" height="4.852" rx="1.375" transform="translate(25.909 12.525)" fill="#464646"/><rect width="13.342" height="4.852" rx="1.375" transform="translate(19.406 26.831)" fill="#464646"/><rect width="13.342" height="4.852" rx="1.375" transform="translate(35.241 26.831)" fill="#464646"/><rect width="13.342" height="4.852" rx="1.375" transform="translate(51.75 26.831)" fill="#464646"/><rect width="13.342" height="4.852" rx="1.375" transform="translate(150.802 26.831)" fill="#464646"/><rect width="13.342" height="4.852" rx="1.375" transform="translate(167.311 26.831)" fill="#464646"/><rect width="10.781" height="4.852" rx="1.375" transform="translate(183.011 26.831)" fill="#464646"/><rect width="13.342" height="4.852" rx="1.375" transform="translate(43.361 19.518)" fill="#464646"/><rect width="13.342" height="4.852" rx="1.375" transform="translate(58.994 19.518)" fill="#464646"/><rect width="13.342" height="4.852" rx="1.375" transform="translate(74.626 19.518)" fill="#464646"/><rect width="13.342" height="4.852" rx="1.375" transform="translate(90.259 19.518)" fill="#464646"/><rect width="13.342" height="4.852" rx="1.375" transform="translate(105.892 19.518)" fill="#464646"/><rect width="13.342" height="4.852" rx="1.375" transform="translate(121.525 19.518)" fill="#464646"/><rect width="13.342" height="4.852" rx="1.375" transform="translate(137.157 19.518)" fill="#464646"/><rect width="13.342" height="4.852" rx="1.375" transform="translate(152.79 19.518)" fill="#464646"/><rect width="13.342" height="4.852" rx="1.375" transform="translate(168.423 19.518)" fill="#464646"/><rect width="13.342" height="4.852" rx="1.375" transform="translate(184.056 19.518)" fill="#464646"/><rect width="12.263" height="4.852" rx="1.375" transform="translate(199.554 19.518)" fill="#464646"/><rect width="13.342" height="4.852" rx="1.375" transform="translate(88.608 12.525)" fill="#464646"/><rect width="13.342" height="4.852" rx="1.375" transform="translate(104.241 12.525)" fill="#464646"/><rect width="13.342" height="4.852" rx="1.375" transform="translate(119.874 12.525)" fill="#464646"/><rect width="13.342" height="4.852" rx="1.375" transform="translate(135.506 12.525)" fill="#464646"/><rect width="13.342" height="4.852" rx="1.375" transform="translate(151.139 12.525)" fill="#464646"/><rect width="13.342" height="4.852" rx="1.375" transform="translate(166.772 12.525)" fill="#464646"/><rect width="33.691" height="7.008" rx="1.375" transform="translate(195.746 26.01)" fill="#464646"/><rect width="13.342" height="4.852" rx="1.375" transform="translate(35.039 5.896)" fill="#464646"/><rect width="13.342" height="4.852" rx="1.375" transform="translate(50.672 5.896)" fill="#464646"/><rect width="13.342" height="4.852" rx="1.375" transform="translate(97.57 5.896)" fill="#464646"/><rect width="13.342" height="4.852" rx="1.375" transform="translate(113.203 5.896)" fill="#464646"/><rect width="13.342" height="4.852" rx="1.375" transform="translate(128.836 5.896)" fill="#464646"/><rect width="13.342" height="4.852" rx="1.375" transform="translate(144.468 5.896)" fill="#464646"/><rect width="13.342" height="4.852" rx="1.375" transform="translate(160.101 5.896)" fill="#464646"/><rect width="13.342" height="4.852" rx="1.375" transform="translate(175.734 5.896)" fill="#464646"/><rect width="31.535" height="4.852" rx="1.375" transform="translate(191.367 5.896)" fill="#464646"/><rect width="13.342" height="2.965" rx="0.939" transform="translate(20.552 0.65)" fill="#464646"/><rect width="13.342" height="2.965" rx="0.939" transform="translate(51.817 0.65)" fill="#464646"/><rect width="13.342" height="2.965" rx="0.939" transform="translate(83.083 0.65)" fill="#464646"/><rect width="13.342" height="2.965" rx="0.939" transform="translate(98.715 0.65)" fill="#464646"/><rect width="13.342" height="2.965" rx="0.939" transform="translate(114.348 0.65)" fill="#464646"/><rect width="13.342" height="2.965" rx="0.939" transform="translate(129.981 0.65)" fill="#464646"/><rect width="13.342" height="2.965" rx="0.939" transform="translate(176.879 0.65)" fill="#464646"/></g><path d="M3.328,0H257.911a3.328,3.328,0,0,1,3.328,3.328V15.653a.2.2,0,0,1-.2.2H.2a.2.2,0,0,1-.2-.2V3.328A3.328,3.328,0,0,1,3.328,0Z" transform="translate(31.409 11.403)" fill="#457bf4"/><rect width="12.578" height="7.906" transform="translate(39.675 15.399)" fill="#fff"/><rect width="108.89" height="6.109" transform="translate(58.722 16.477)" fill="#fff"/><rect width="81.735" height="143.749" transform="translate(35.362 33.727)" fill="#e5e3e4"/><rect width="72.729" height="134.162" transform="translate(40.202 38.44)" fill="#fff3e1" opacity="0.297"/><rect width="61.814" height="94.875" transform="translate(227.008 82.602)" fill="#e5e3e4"/><rect width="61.814" height="41.927" transform="translate(227.008 33.727)" fill="#f7882d"/><path d="M0,0H100.467V31.625H0Z" transform="translate(121.814 33.727)" fill="#f7882d"/><rect width="100.467" height="31.625" transform="translate(121.814 70.171)" fill="#e5e3e4"/><rect width="100.467" height="31.625" transform="translate(121.814 106.615)" fill="#f7882d"/><rect width="100.467" height="31.625" transform="translate(121.814 143.059)" fill="#e5e3e4"/><rect width="2.071" height="21.49" transform="translate(161.623 241.248)" fill="#c3c3c3" opacity="0.5"/><circle cx="3.269" cy="3.269" r="3.269" transform="translate(230.274 16.048)" fill="#4267b2"/><circle cx="3.269" cy="3.269" r="3.269" transform="translate(244.109 16.048)" fill="#457bf4"/><circle cx="3.269" cy="3.269" r="3.269" transform="translate(257.945 16.048)" fill="#4267b2"/><circle cx="3.269" cy="3.269" r="3.269" transform="translate(271.78 16.048)" fill="#4267b2"/></g><g transform="translate(69.225 232.469)"><g transform="translate(48.469 31.144)"><path d="M81.065,193.186a19.9,19.9,0,0,0-10.689,32.9L69.961,236.5l9.189-4.826a19.9,19.9,0,1,0,1.915-38.491Z" transform="translate(-65.177 -192.772)" fill="url(#a)"/><path d="M87.54,228.024a17.12,17.12,0,0,1-10.055-.95l-5.4,2.814.265-6.13a16.568,16.568,0,0,1-4.893-8.745A17.044,17.044,0,1,1,87.54,228.024Z" transform="translate(-64.109 -191.676)" fill="url(#b)"/><path d="M76.643,207.86l.517-.92c.289-.518.77-1.06.667-1.7a4.5,4.5,0,0,0-.768-1.684c-.211-.327-.427-.652-.638-.981a7.222,7.222,0,0,0-1.321-1.747,1.764,1.764,0,0,0-2.035.1s-3.447,2.626-1.51,6.062a17.671,17.671,0,0,0,16.334,9.668s4.24-.259,4.826-2.989a4.489,4.489,0,0,0-.028-1.96,1.6,1.6,0,0,0-1.161-1.03c-.677-.222-1.28-.435-2.041-.633a3,3,0,0,0-2.084-.133,2.97,2.97,0,0,0-1.007,1.217c-.349.563-.709,1.124-1.061,1.687C85.334,212.815,79.081,211.877,76.643,207.86Z" transform="translate(-61.983 -188.48)" fill="url(#c)"/></g></g><g transform="translate(551.786 412.525)"><g transform="translate(9.991 39.214)"><path d="M461.261,344.334c0,5.9-2.017,10.675-7.91,10.675H423.022c-5.9,0-8.54-4.778-8.54-10.675V333.045c0-5.9,2.393-10.672,8.289-10.672H453.6c5.9,0,7.662,4.777,7.662,10.672Z" transform="translate(-414.482 -322.373)" fill="url(#d)"/><g transform="translate(18.701 9.94)"><path d="M426.533,328.778l12.742,6.651-12.742,6.648Z" transform="translate(-426.533 -328.778)" fill="#fff"/><path d="M426.533,328.848l11.082,7.413,1.66-.863-11.758-6.136-.984-.427Z" transform="translate(-426.533 -328.747)" fill="#e4dede"/></g></g></g><g transform="translate(95.617 293.533)"><g transform="translate(25.675 66.745)"><path d="M6.748,0H44.235a6.748,6.748,0,0,1,6.748,6.748V44.236a6.749,6.749,0,0,1-6.749,6.749H6.748A6.748,6.748,0,0,1,0,44.237V6.748A6.748,6.748,0,0,1,6.748,0Z" transform="translate(0 50.972) rotate(-88.804)" fill="url(#e)"/><path d="M120.577,278.862l4.7.1.154-7.39-5.84-.123h0l-1.207-.025a9.558,9.558,0,0,0-7.33,3.41s-1.962,1.774-2.1,7.084h0l-.115,5.543-6.966-.146-.163,7.848,6.965.146-.424,20.274,8.034.168.422-20.274,6.912.144,1.127-7.828-7.874-.164.116-5.543h0A3.225,3.225,0,0,1,120.577,278.862Z" transform="translate(-80.613 -264.032)" fill="#fff"/></g></g><g transform="translate(497.71 180.928)"><g transform="translate(20.808 21.533)"><ellipse cx="20.361" cy="19.636" rx="20.361" ry="19.636" fill="url(#f)"/><g transform="translate(8.501 6.677)"><path d="M358.544,127.336c.04-.1.087-.194.13-.292a6.481,6.481,0,0,1,1.063-1.614,5.7,5.7,0,0,1,1.252-1.034,5.971,5.971,0,0,1,1.265-.579,6.262,6.262,0,0,1,1.1-.253,7.742,7.742,0,0,1,1.091-.067,8.064,8.064,0,0,1,1.079.062,6.554,6.554,0,0,1,1.145.276,5.9,5.9,0,0,1,1.286.615,5.806,5.806,0,0,1,1.257,1.093,6.834,6.834,0,0,1,1.051,1.7c.5,1.159.389,3.267.3,4.958-.014.268-.028.529-.039.778l0,.105.065.081a1.2,1.2,0,0,0,.861.331l.011,0h.008a2.271,2.271,0,0,0,.736-.152,6.385,6.385,0,0,1,.649-.251,1,1,0,0,1,.827.253c.157.188-.014.438-.158.56a2.66,2.66,0,0,1-.691.4c-.085.036-.2.073-.323.118-.559.189-1.4.476-1.684,1.181a1.7,1.7,0,0,0,.141,1.387c.1.247,1.729,4.007,5.331,4.6a.165.165,0,0,1-.015.06c-.059.151-.444.672-2.852,1.08-.379.065-.467.507-.571,1.023-.037.185-.075.371-.129.563-.016.059-.019.062-.078.064h-.028a2.634,2.634,0,0,1-.459-.059,6.779,6.779,0,0,0-1.411-.144,5.982,5.982,0,0,0-1.024.1,4.841,4.841,0,0,0-1.966,1.058,10.029,10.029,0,0,1-1.2.813,4.021,4.021,0,0,1-1.487.473c-.116.012-.233.015-.348.022a4.324,4.324,0,0,1-1.634-.209,5.551,5.551,0,0,1-1.3-.694c-.168-.116-.334-.236-.5-.357a4.847,4.847,0,0,0-1.982-1.029,6.1,6.1,0,0,0-1.024-.082,6.754,6.754,0,0,0-1.408.175,2.819,2.819,0,0,1-.458.076c-.087,0-.088,0-.107-.071-.057-.192-.1-.382-.137-.565-.112-.517-.206-.959-.585-1.016-2.415-.372-2.806-.891-2.868-1.038a.325.325,0,0,1-.015-.062c3.594-.647,5.168-4.429,5.267-4.679a1.711,1.711,0,0,0,.121-1.39c-.289-.7-1.136-.975-1.7-1.156-.129-.042-.239-.078-.324-.112-.332-.135-1.352-.627-.694-1.058a.771.771,0,0,1,.467-.141,1.65,1.65,0,0,1,.5.163,2.79,2.79,0,0,0,1.02.214,1.22,1.22,0,0,0,.931-.346l.065-.082,0-.105c-.016-.247-.031-.509-.05-.774C358.2,130.6,358.058,128.5,358.544,127.336Zm2.758-3.788a6.271,6.271,0,0,0-1.794,1.265,7.061,7.061,0,0,0-1.493,2.28c-.545,1.3-.4,3.487-.283,5.244l0,0c.011.188.025.385.036.576a.942.942,0,0,1-.405.082,2.308,2.308,0,0,1-.844-.186,2.025,2.025,0,0,0-.719-.2,1.337,1.337,0,0,0-.7.217,1.078,1.078,0,0,0-.518.708.994.994,0,0,0,.358.908,3.013,3.013,0,0,0,.927.548c.1.042.23.082.36.124.461.151,1.155.376,1.341.819a1.12,1.12,0,0,1-.113.883l-.009.029a7.76,7.76,0,0,1-.8,1.451,7.576,7.576,0,0,1-1.735,1.856,5.79,5.79,0,0,1-1.138.66,11.149,11.149,0,0,1-1.113.329.639.639,0,0,0-.526.656.832.832,0,0,0,.062.267,1.561,1.561,0,0,0,.843.745,9.217,9.217,0,0,0,2.424.642,3.322,3.322,0,0,1,.152.559c.04.194.084.4.146.607a.639.639,0,0,0,.667.5,3.156,3.156,0,0,0,.566-.088,6.28,6.28,0,0,1,1.3-.165,5.481,5.481,0,0,1,.93.076,4.329,4.329,0,0,1,1.74.926l.155.112a9.326,9.326,0,0,0,1.168.748,4.656,4.656,0,0,0,1.453.469,5.724,5.724,0,0,0,.877.04,5.378,5.378,0,0,0,.962-.095,4.76,4.76,0,0,0,1.4-.554,6.56,6.56,0,0,0,.59-.38,5.966,5.966,0,0,0,.539-.394h0a4.342,4.342,0,0,1,1.727-.951,5.334,5.334,0,0,1,.926-.09,6.1,6.1,0,0,1,1.3.135,2.882,2.882,0,0,0,.571.068h.028a.633.633,0,0,0,.632-.5c.059-.209.1-.405.137-.605a3.183,3.183,0,0,1,.146-.557,9.287,9.287,0,0,0,2.413-.678,1.587,1.587,0,0,0,.832-.756.83.83,0,0,0,.061-.268.6.6,0,0,0-.489-.629c-3.312-.546-4.828-4.092-4.89-4.243l-.012-.029a1.113,1.113,0,0,1-.124-.881c.177-.445.869-.681,1.327-.84.134-.043.258-.087.36-.13a2.744,2.744,0,0,0,.984-.627,1.01,1.01,0,0,0,.3-.709,1.163,1.163,0,0,0-1.218-1.048,2.287,2.287,0,0,0-.86.2,2.358,2.358,0,0,1-.792.2.849.849,0,0,1-.343-.076c.009-.16.017-.327.026-.5l0-.076c.092-1.76.21-3.946-.352-5.242a7.091,7.091,0,0,0-1.532-2.264,6.237,6.237,0,0,0-1.817-1.238,6.909,6.909,0,0,0-2.18-.573c-.287-.026-.584-.048-.869-.047a7.925,7.925,0,0,0-1.9.244A6.714,6.714,0,0,0,361.3,123.548Z" transform="translate(-352.133 -122.873)" fill="#090909"/><path d="M373.225,142.506c2.409-.408,2.793-.93,2.852-1.08a.166.166,0,0,0,.015-.06c-3.6-.593-5.228-4.353-5.331-4.6a1.7,1.7,0,0,1-.141-1.387c.279-.7,1.125-.992,1.684-1.181.127-.045.237-.082.323-.118a2.658,2.658,0,0,0,.691-.4c.144-.123.315-.372.158-.56a1,1,0,0,0-.827-.253,6.379,6.379,0,0,0-.649.251,2.271,2.271,0,0,1-.736.152h-.008l-.011,0a1.2,1.2,0,0,1-.861-.331l-.065-.081,0-.106c.011-.248.025-.509.039-.778.09-1.692.2-3.8-.3-4.958a6.833,6.833,0,0,0-1.051-1.7,5.806,5.806,0,0,0-1.257-1.093,5.9,5.9,0,0,0-1.286-.615,6.555,6.555,0,0,0-1.145-.276,8.065,8.065,0,0,0-1.079-.062,7.741,7.741,0,0,0-1.091.067,6.262,6.262,0,0,0-1.1.253,5.971,5.971,0,0,0-1.265.579,5.7,5.7,0,0,0-1.252,1.034,6.481,6.481,0,0,0-1.063,1.614c-.043.1-.09.194-.13.292-.486,1.167-.345,3.268-.231,4.961.019.265.034.528.05.774l0,.106-.065.082a1.22,1.22,0,0,1-.931.346,2.79,2.79,0,0,1-1.02-.214,1.65,1.65,0,0,0-.5-.163.771.771,0,0,0-.467.141c-.658.431.362.923.694,1.058.085.034.2.07.324.112.563.182,1.411.456,1.7,1.156a1.711,1.711,0,0,1-.121,1.39c-.1.25-1.673,4.032-5.267,4.679a.327.327,0,0,0,.015.062c.062.147.453.666,2.868,1.038.379.057.473.5.585,1.016.04.183.079.372.137.565.019.068.02.073.107.071a2.815,2.815,0,0,0,.458-.076,6.755,6.755,0,0,1,1.408-.175,6.1,6.1,0,0,1,1.024.082,4.846,4.846,0,0,1,1.982,1.029c.165.121.331.241.5.357a5.55,5.55,0,0,0,1.3.694,4.325,4.325,0,0,0,1.634.21c.115-.006.231-.009.348-.022a4.02,4.02,0,0,0,1.487-.473,10.027,10.027,0,0,0,1.2-.813,4.841,4.841,0,0,1,1.966-1.058,5.984,5.984,0,0,1,1.024-.1,6.779,6.779,0,0,1,1.411.144,2.635,2.635,0,0,0,.459.059h.028c.059,0,.062,0,.078-.064.054-.192.092-.379.129-.563C372.758,143.013,372.847,142.571,373.225,142.506Z" transform="translate(-351.927 -122.651)" fill="#fff"/></g></g></g><g transform="translate(302.901 205.13)"><g transform="translate(3.279 4.968)"><circle cx="23.194" cy="23.194" r="23.194" transform="matrix(0.928, -0.373, 0.373, 0.928, 0, 17.288)" fill="#457ab1"/><g transform="translate(15.379 14.644)"><path d="M210.865,162.931l6.177-.292.939,19.867-6.175.292Zm2.623-10.022a3.584,3.584,0,1,1-3.409,3.752,3.585,3.585,0,0,1,3.409-3.752" transform="translate(-210.074 -152.904)" fill="#fff"/><path d="M217.059,159.438l5.925-.281.127,2.719.085,0a6.49,6.49,0,0,1,5.691-3.484c6.253-.3,7.6,3.762,7.854,9.111l.515,10.9-6.172.292-.458-9.661c-.109-2.3-.289-5.267-3.459-5.118-3.212.152-3.583,2.688-3.461,5.28l.464,9.827-6.173.292Z" transform="translate(-206.22 -149.887)" fill="#fff"/></g></g></g><g transform="translate(553.651 275.264)"><g transform="translate(-6.737 34.169)"><path d="M404.6,265.579c17.021,11.83,36.131,4.2,44.629-8.031.278-.4.549-.8.8-1.214a22.861,22.861,0,0,0,7.946-1.584,22.573,22.573,0,0,1-6.324-2.235,11.344,11.344,0,0,0,7.628-2.291,22.677,22.677,0,0,1-7.44-1.836,11.269,11.269,0,0,0-20.4-4.8,11.515,11.515,0,0,0-1.232,2.278,32.023,32.023,0,0,1-12.353-22.926,11.273,11.273,0,0,0-5.719,14.344,11.192,11.192,0,0,1-3.386-4.074c-.031.04-.057.078-.085.116a11.272,11.272,0,0,0,1.116,14.229,11.265,11.265,0,0,1-2.661-1.366,11.09,11.09,0,0,1-1.622-1.38,11.282,11.282,0,0,0,4.173,12.437,22.754,22.754,0,0,1-16.362-5.689A31.86,31.86,0,0,0,404.6,265.579" transform="translate(-393.306 -222.942)" fill="#5e9fee"/></g></g><g transform="translate(151.827 161.027)"><g transform="translate(21.689 34.006)"><path d="M173.4,143.117a33.57,33.57,0,1,1-41.629-22.825A33.567,33.567,0,0,1,173.4,143.117Z" transform="translate(-107.591 -118.94)" fill="#9f1121" fill-rule="evenodd"/><g transform="translate(11.96 12.283)"><path d="M137.726,164.265a11.064,11.064,0,0,0,11.861-.186,23.556,23.556,0,0,0,2.118-1.555,15.351,15.351,0,0,0,3.365-3.811,21.3,21.3,0,0,0,2.821-13.466c-.579-6.206-3.208-11.383-8.292-15.011a19.768,19.768,0,0,0-10.567-3.347,23.921,23.921,0,0,0-14.541,3.914,22.22,22.22,0,0,0-3.4,2.851A19.94,19.94,0,0,0,115.3,147.64a23.738,23.738,0,0,0,.45,4.19,17.656,17.656,0,0,0,4.6,8.784c.365.39.781.723,1.134,1.122A8.479,8.479,0,0,0,124.6,164a2.529,2.529,0,0,0,1.763.146c.8-.293.771-1.133.8-1.872a22.787,22.787,0,0,0-.175-2.432,1.932,1.932,0,0,0-.77-1.648c-4.84-3.863-5.961-12.075-2.894-17.246a15.528,15.528,0,0,1,11.872-7.718,13.167,13.167,0,0,1,12.075,4.649,17.335,17.335,0,0,1,2.607,5.441,18.285,18.285,0,0,1,.751,7.64,13.36,13.36,0,0,1-2.339,6.513c-2.049,2.75-7.316,5.219-9.631,1.417a8.3,8.3,0,0,1-1.083-3.335c-.236-2.742.039-5.494-.112-8.233a8.767,8.767,0,0,0-1.057-4.187,3.791,3.791,0,0,0-4.032-2.017,4.915,4.915,0,0,0-4.078,3.068,10.89,10.89,0,0,0,1.457,10.218,3.965,3.965,0,0,1,.756,2.132c.189,4.524.523,9.041.666,13.564a30.424,30.424,0,0,0,1.7,8.984,13.589,13.589,0,0,0,.956,2.37c.279.5.7,1.207,1.308,1.336.84.172,1.186-.936,1.381-1.539a29.548,29.548,0,0,0,1.31-7.413c.088-1.622.053-3.248,0-4.874C137.825,168.389,137.793,165.424,137.726,164.265Z" transform="translate(-115.298 -126.854)" fill="#fff" fill-rule="evenodd"/></g></g></g><g transform="translate(396.725 127.711)"><g transform="translate(22.403 30.205)"><path d="M7.312,0H47.936a7.312,7.312,0,0,1,7.312,7.312V47.935a7.312,7.312,0,0,1-7.312,7.312H7.314A7.314,7.314,0,0,1,0,47.933V7.312A7.312,7.312,0,0,1,7.312,0Z" transform="translate(0 55.241) rotate(-89.043)" fill="url(#g)"/><g transform="translate(7.116 7.117)"><path d="M313.927,141.117l-15.989-.267a12.838,12.838,0,0,0-13.05,12.623l-.267,15.988a12.836,12.836,0,0,0,12.621,13.05l15.989.267a12.838,12.838,0,0,0,13.05-12.62l.267-15.989A12.838,12.838,0,0,0,313.927,141.117Zm8.382,27.439a10.373,10.373,0,0,1-10.545,10.2l-12.921-.216a10.373,10.373,0,0,1-10.2-10.545l.216-12.921a10.375,10.375,0,0,1,10.547-10.2l12.921.216a10.376,10.376,0,0,1,10.2,10.545Z" transform="translate(-284.619 -140.848)" fill="#fff"/><path d="M302.575,147.341A10.974,10.974,0,1,0,313.363,158.5,10.972,10.972,0,0,0,302.575,147.341Zm-.293,17.574a6.6,6.6,0,1,1,6.71-6.492A6.6,6.6,0,0,1,302.281,164.914Z" transform="translate(-280.868 -137.265)" fill="#fff"/><path d="M308.972,148.379a2.791,2.791,0,1,1-2.745-2.838A2.793,2.793,0,0,1,308.972,148.379Z" transform="translate(-274.259 -138.258)" fill="#fff"/></g></g></g></g></svg>