<svg xmlns="http://www.w3.org/2000/svg" width="550.583" height="448.509" viewBox="0 0 550.583 448.509"><g transform="translate(-84.912 -103.491)"><g transform="translate(84.912 103.491)"><path d="M88.406,234.1c-1.205,1.2-1.069-2.269-1.662-.73a47.289,47.289,0,0,0-1.828,9.787,12.766,12.766,0,0,0,1.387,5.1l126.31,249.574a14.469,14.469,0,0,0,3.5,4.479,13.85,13.85,0,0,0,4.708,2.648,13.245,13.245,0,0,0,10.553-.982l194.082-106.66,94.707-52.047a8.755,8.755,0,0,0,3.031-2.77,10.271,10.271,0,0,0,1.568-3.866,12.573,12.573,0,0,0,.022-4.46,14.346,14.346,0,0,0-1.614-4.555L407.283,120.7a14.2,14.2,0,0,0-2.926-3.67,14.045,14.045,0,0,0-3.783-2.446,12.148,12.148,0,0,0-4.173-1.019,9.734,9.734,0,0,0-4.089.625l-185.74,72.593L92.827,231.236A12.859,12.859,0,0,0,88.406,234.1Z" transform="translate(-84.912 -106.334)" fill="#37454f"/><path d="M140.51,250.593a9.011,9.011,0,0,0-.587,3.706,9.67,9.67,0,0,0,1.047,3.854L248.637,461.134a10.9,10.9,0,0,0,2.647,3.384,10.479,10.479,0,0,0,3.557,2,10.006,10.006,0,0,0,7.975-.743L505.328,334.788a6.638,6.638,0,0,0,2.292-2.093,7.782,7.782,0,0,0,1.184-2.922,9.537,9.537,0,0,0,.018-3.37,10.859,10.859,0,0,0-1.221-3.441L414.364,152.187a10.769,10.769,0,0,0-5.067-4.621,9.194,9.194,0,0,0-3.153-.77,7.362,7.362,0,0,0-3.09.472L145.9,245.293a9.726,9.726,0,0,0-3.343,2.161A8.978,8.978,0,0,0,140.51,250.593Z" transform="translate(-100.458 -115.728)" fill="#f2f2f7"/><g transform="translate(303.781 145.713)"><path d="M509.623,310.427a2.789,2.789,0,0,0,.551.549,1.225,1.225,0,0,0,.5.227.713.713,0,0,0,.427-.055,1.156,1.156,0,0,0,.251-.164,1.26,1.26,0,0,0,.225-.254,1.431,1.431,0,0,0,.174-.351,1.916,1.916,0,0,0,.1-.456l-1.765-3.252c-.118-.019-.233-.034-.346-.043a2.776,2.776,0,0,0-.326-.007,1.785,1.785,0,0,0-.3.036,1.243,1.243,0,0,0-.266.086.731.731,0,0,0-.359.354,1.2,1.2,0,0,0-.1.593,3.029,3.029,0,0,0,.178.812,7,7,0,0,0,.457,1.01A6.312,6.312,0,0,0,509.623,310.427Z" transform="translate(-508.395 -306.62)" fill="#fff"/></g><g transform="translate(317.682 176.895)"><path d="M528.96,351.775a1.791,1.791,0,0,0-.532-.075,1.872,1.872,0,0,0-.557.094,1.147,1.147,0,0,0-.071.263,2.248,2.248,0,0,0-.025.318,2.4,2.4,0,0,0,.023.331,2.065,2.065,0,0,0,.063.3,1.316,1.316,0,0,1,.264.121,1.91,1.91,0,0,1,.313.23,2.537,2.537,0,0,1,.339.359,3.607,3.607,0,0,1,.331.507l2.531,4.67c.066-.019.134-.04.2-.064s.142-.05.217-.079.147-.058.219-.088.143-.065.213-.1.143-.074.214-.113.144-.08.211-.121.131-.082.192-.123.118-.081.17-.119l-2.426-4.469a3,3,0,0,1,.028-.454,1.543,1.543,0,0,1,.111-.4,1.109,1.109,0,0,1,.217-.334,1.2,1.2,0,0,1,.349-.253c.049-.019.1-.039.149-.058s.1-.037.154-.054a1.514,1.514,0,0,1,.159-.044,1.443,1.443,0,0,1,.167-.027,2.966,2.966,0,0,0-.048-.5,4.692,4.692,0,0,0-.123-.519c-.053-.169-.111-.334-.17-.482a4.116,4.116,0,0,0-.187-.4c-.067.011-.134.024-.2.039a1.9,1.9,0,0,0-.189.055c-.063.021-.128.045-.2.074s-.141.062-.22.1a1.745,1.745,0,0,0-.508.367,1.5,1.5,0,0,0-.3.476,1.956,1.956,0,0,0-.124.56,2.681,2.681,0,0,0,.021.617,2.923,2.923,0,0,0-.48-.372A2.121,2.121,0,0,0,528.96,351.775Z" transform="translate(-527.774 -350.09)"/></g><g transform="translate(289.247 152.349)"><path d="M488.794,318.809a8.4,8.4,0,0,0,.52.853,3.564,3.564,0,0,0,.567.648,1.456,1.456,0,0,0,.62.336,1.038,1.038,0,0,0,.679-.085.9.9,0,0,0,.468-.453,1.237,1.237,0,0,0,.076-.662,3.29,3.29,0,0,0-.22-.809,8.51,8.51,0,0,0-.428-.9,8.9,8.9,0,0,0-.519-.855,3.527,3.527,0,0,0-.57-.65,1.436,1.436,0,0,0-.615-.339,1.015,1.015,0,0,0-.67.08.936.936,0,0,0-.478.455,1.25,1.25,0,0,0-.078.664,3.311,3.311,0,0,0,.22.813A8.434,8.434,0,0,0,488.794,318.809Z" transform="translate(-488.134 -315.872)" fill="#fff"/></g><g transform="translate(287.44 150.777)"><path d="M486.37,318.99a8.867,8.867,0,0,0,.506.83,5.464,5.464,0,0,0,.565.687,4.084,4.084,0,0,0,.645.544,3.883,3.883,0,0,0,.747.4,3.1,3.1,0,0,0,.6.162,2.8,2.8,0,0,0,.6.032,2.958,2.958,0,0,0,.59-.093,3.417,3.417,0,0,0,.577-.212,3.35,3.35,0,0,0,.536-.311,2.6,2.6,0,0,0,.434-.388,2.356,2.356,0,0,0,.33-.466,2.493,2.493,0,0,0,.218-.547,3.35,3.35,0,0,0,.1-.795,3.862,3.862,0,0,0-.085-.8,5.237,5.237,0,0,0-.257-.829,8.648,8.648,0,0,0-.412-.87,8.442,8.442,0,0,0-.507-.825,5.327,5.327,0,0,0-.562-.689,4.107,4.107,0,0,0-.646-.546,3.773,3.773,0,0,0-.75-.4,2.954,2.954,0,0,0-.6-.156,2.875,2.875,0,0,0-.593-.029,3.065,3.065,0,0,0-.592.1,3.488,3.488,0,0,0-.589.214,3.361,3.361,0,0,0-.527.3,2.76,2.76,0,0,0-.435.383,2.377,2.377,0,0,0-.33.461,2.573,2.573,0,0,0-.226.538,3.349,3.349,0,0,0-.1.8,3.686,3.686,0,0,0,.084.809,5.282,5.282,0,0,0,.26.834A8.311,8.311,0,0,0,486.37,318.99Zm1.142-3.178a.939.939,0,0,1,.478-.455,1.014,1.014,0,0,1,.67-.08,1.442,1.442,0,0,1,.616.339,3.527,3.527,0,0,1,.57.65,8.908,8.908,0,0,1,.519.856,8.506,8.506,0,0,1,.428.9,3.255,3.255,0,0,1,.22.81,1.235,1.235,0,0,1-.076.661.9.9,0,0,1-.468.453,1.029,1.029,0,0,1-.679.085,1.461,1.461,0,0,1-.62-.336,3.6,3.6,0,0,1-.567-.649,8.237,8.237,0,0,1-.52-.853,8.712,8.712,0,0,1-.428-.9,3.386,3.386,0,0,1-.22-.813A1.252,1.252,0,0,1,487.512,315.812Z" transform="translate(-485.615 -313.68)"/></g><g transform="translate(277.641 151.565)"><path d="M474.268,317.481a2.13,2.13,0,0,1,.8-.613,3.651,3.651,0,0,1,.628-.222,4.231,4.231,0,0,1,.671-.112,4.564,4.564,0,0,1,.686,0,4.651,4.651,0,0,1,.68.1,1.6,1.6,0,0,0,.139-.368,2.206,2.206,0,0,0,.067-.443,2.287,2.287,0,0,0-.022-.473,1.893,1.893,0,0,0-.129-.459,5.846,5.846,0,0,0-.89-.1,6.118,6.118,0,0,0-.928.032,5.914,5.914,0,0,0-.935.176,5.837,5.837,0,0,0-.912.331,3.654,3.654,0,0,0-2.039,2.475,4.787,4.787,0,0,0-.043,1.992,8,8,0,0,0,.88,2.424,9.841,9.841,0,0,0,1.285,1.875,5.721,5.721,0,0,0,1.524,1.25,3.808,3.808,0,0,0,1.729.483,4.177,4.177,0,0,0,1.9-.427,10.468,10.468,0,0,0,.955-.513c.3-.18.571-.367.82-.553s.475-.374.676-.555.377-.355.526-.518l-1.989-3.685a2.214,2.214,0,0,0-.324-.461,1.18,1.18,0,0,0-.4-.284,1.06,1.06,0,0,0-.495-.072,1.8,1.8,0,0,0-.6.175l-1.981.942a1.5,1.5,0,0,0,.046.207c.017.072.039.146.065.22s.054.147.087.217a2.207,2.207,0,0,0,.1.2,1.476,1.476,0,0,0,.247.346.729.729,0,0,0,.285.179.716.716,0,0,0,.331.02,1.461,1.461,0,0,0,.389-.127l.874-.409c.038.083.075.163.113.244s.078.159.118.237.081.156.122.234.085.155.125.232l.674,1.25c-.083.07-.171.14-.264.209s-.193.138-.3.205-.214.136-.332.2-.241.129-.374.191a2.513,2.513,0,0,1-1.1.258,2.232,2.232,0,0,1-1.062-.289,3.761,3.761,0,0,1-1.016-.857,8,8,0,0,1-.967-1.445,7.867,7.867,0,0,1-.7-1.679,3.412,3.412,0,0,1-.122-1.3A1.9,1.9,0,0,1,474.268,317.481Z" transform="translate(-471.956 -314.779)"/></g><g transform="translate(289.035 231.69)"><path d="M493.1,429.034c.074-.037.151-.072.22-.106l.174-.087.613-.312a1.845,1.845,0,0,0,.392-.258.773.773,0,0,0,.21-.3.66.66,0,0,0,.027-.357,1.345,1.345,0,0,0-.159-.433c-.032-.061-.07-.126-.111-.189s-.08-.128-.123-.189-.09-.121-.132-.177-.086-.106-.127-.15l-6.248,3.181c.024.078.054.158.084.235s.062.153.1.225.064.141.1.206.062.126.093.18.064.119.1.183.074.128.117.194.085.135.133.2.1.134.148.2l1.454-.742c.048-.022.105-.055.174-.09s.14-.077.216-.118l.221-.12.185-.1c.055.1.1.2.15.286l.134.26c.044.085.086.169.132.257s.092.18.145.278l3.87,7.229c.083-.024.164-.052.247-.083s.163-.062.24-.095.152-.067.225-.1l.2-.1c.065-.035.133-.07.2-.11s.143-.08.216-.126.148-.091.219-.141.142-.1.209-.154l-3.867-7.221c-.053-.1-.1-.188-.15-.275s-.093-.169-.138-.254-.093-.168-.141-.257-.1-.184-.146-.286c.044-.024.108-.054.174-.087Z" transform="translate(-487.839 -426.477)" fill="#fff"/></g><g transform="translate(225.725 177.355)"><path d="M399.641,354.349a1.707,1.707,0,0,0,.068.178c.023.057.05.114.075.169s.056.11.083.165.066.121.1.179.067.114.1.169l.113.16c.041.053.081.1.125.157l1.027-.5,2.213,4.17a3.117,3.117,0,0,0,.518.737,1.693,1.693,0,0,0,.6.409,1.487,1.487,0,0,0,.684.088,2.392,2.392,0,0,0,.769-.227c.131-.062.269-.131.406-.205s.278-.149.413-.227.266-.158.391-.236.24-.154.347-.227a.554.554,0,0,0-.028-.1.889.889,0,0,0-.044-.111c-.016-.037-.034-.075-.053-.113s-.039-.075-.059-.111c-.04-.075-.085-.153-.134-.229s-.1-.153-.154-.226-.108-.143-.164-.21-.113-.128-.169-.184l-.837.394a.821.821,0,0,1-.293.081.525.525,0,0,1-.251-.046.742.742,0,0,1-.215-.161,1.343,1.343,0,0,1-.18-.267l-2.027-3.818,1.657-.736c-.018-.065-.037-.126-.057-.188s-.044-.122-.065-.182-.05-.12-.077-.179-.057-.121-.089-.182-.06-.108-.092-.161-.069-.1-.1-.158-.074-.1-.115-.155-.081-.1-.124-.155l-1.628.793-1.13-2.128-.141-.043-.68.316a1.4,1.4,0,0,0-.42.273.636.636,0,0,0-.192.339.955.955,0,0,0,.024.435,2.9,2.9,0,0,0,.237.559l.554,1.042-1.042.468A1.935,1.935,0,0,0,399.641,354.349Z" transform="translate(-399.582 -350.731)"/></g><g transform="translate(218.377 182.142)"><path d="M392.725,360.087a1.9,1.9,0,0,1,.275-.293,1.331,1.331,0,0,1,.3-.193.847.847,0,0,1,.385-.093.611.611,0,0,1,.331.112,1.312,1.312,0,0,1,.307.315,3.807,3.807,0,0,1,.311.511l1.8,3.4a2.714,2.714,0,0,0,.319.487,1.164,1.164,0,0,0,.357.293.817.817,0,0,0,.414.085,1.3,1.3,0,0,0,.49-.135,1.8,1.8,0,0,0,.3-.182,1.875,1.875,0,0,0,.257-.228,1.581,1.581,0,0,0,.2-.255,1.487,1.487,0,0,0,.136-.266,1.806,1.806,0,0,1-.289-.223,2.992,2.992,0,0,1-.265-.291c-.083-.108-.163-.223-.242-.346s-.15-.252-.22-.387l-1.686-3.174a4.807,4.807,0,0,0-.64-.942,2.935,2.935,0,0,0-.762-.625,1.921,1.921,0,0,0-.851-.247,1.981,1.981,0,0,0-.919.2,2.57,2.57,0,0,0-.539.337,2.806,2.806,0,0,0-.43.44,3.4,3.4,0,0,0-.338.519,4.5,4.5,0,0,0-.259.575,1.946,1.946,0,0,0-.316-.314,1.1,1.1,0,0,0-.341-.183.908.908,0,0,0-.369-.041,1.171,1.171,0,0,0-.4.111l-.686.319-.027.139,3.823,7.221c.067-.018.14-.039.217-.064s.154-.053.235-.083.162-.062.241-.1.16-.067.235-.1.159-.076.235-.116.151-.082.225-.125.144-.085.209-.127.125-.083.184-.123l-2.629-4.958a2.436,2.436,0,0,1,.174-.462A2.146,2.146,0,0,1,392.725,360.087Z" transform="translate(-389.338 -357.404)"/></g><g transform="translate(211.551 186.03)"><path d="M386.435,366c-.037-.111-.074-.22-.116-.331s-.093-.222-.15-.343-.121-.25-.2-.392a4.623,4.623,0,0,0-.832-1.136,3.453,3.453,0,0,0-1.061-.728,2.916,2.916,0,0,0-1.226-.242,3.29,3.29,0,0,0-1.326.321,3.055,3.055,0,0,0-1.176.915,2.617,2.617,0,0,0-.5,1.245,4.02,4.02,0,0,0,.1,1.48,7.072,7.072,0,0,0,.634,1.616,7.8,7.8,0,0,0,.89,1.359,4.411,4.411,0,0,0,1.119.993,2.86,2.86,0,0,0,1.359.421,3.413,3.413,0,0,0,1.608-.358,5.2,5.2,0,0,0,.693-.4,5.273,5.273,0,0,0,.615-.493,4.623,4.623,0,0,0,.513-.566,3.973,3.973,0,0,0,.38-.618,2.71,2.71,0,0,0-.224-.269,2.764,2.764,0,0,0-.273-.26,2.485,2.485,0,0,0-.3-.225,1.8,1.8,0,0,0-.319-.162c-.109.137-.22.272-.339.4a5.211,5.211,0,0,1-.374.372,4.227,4.227,0,0,1-.414.327,3.334,3.334,0,0,1-.47.268,1.69,1.69,0,0,1-.72.177,1.269,1.269,0,0,1-.613-.164,2.039,2.039,0,0,1-.524-.436,4.463,4.463,0,0,1-.46-.645l3.8-1.778C386.5,366.227,386.471,366.11,386.435,366Zm-4.429.787a4.3,4.3,0,0,1-.289-.785,1.863,1.863,0,0,1-.064-.644.971.971,0,0,1,.172-.495,1.059,1.059,0,0,1,.428-.341,1.189,1.189,0,0,1,.586-.118,1.175,1.175,0,0,1,.525.17,1.9,1.9,0,0,1,.458.4,3.18,3.18,0,0,1,.379.57l.092.175Z" transform="translate(-379.823 -362.825)"/></g><g transform="translate(204.229 185.931)"><path d="M375.44,373.469a1.343,1.343,0,0,0,.657.1,2.226,2.226,0,0,0,.756-.219c.115-.054.229-.114.345-.177s.225-.13.334-.2.216-.135.312-.2.2-.129.282-.188c-.009-.032-.019-.067-.032-.1s-.028-.075-.044-.113a1.149,1.149,0,0,0-.049-.116c-.019-.038-.039-.076-.056-.113-.042-.08-.09-.16-.139-.238s-.1-.154-.157-.227-.11-.143-.169-.207-.118-.125-.176-.18l-.428.2a.8.8,0,0,1-.289.081.526.526,0,0,1-.25-.044.675.675,0,0,1-.212-.164,1.327,1.327,0,0,1-.187-.276l-3.97-7.523a2.892,2.892,0,0,0-.34-.52,1.048,1.048,0,0,0-.359-.291.8.8,0,0,0-.414-.068,1.544,1.544,0,0,0-.5.15l-.7.322-.043.147,4.741,8.981a3.406,3.406,0,0,0,.509.751A1.68,1.68,0,0,0,375.44,373.469Z" transform="translate(-369.616 -362.687)"/></g><g transform="translate(236.762 219.245)"><path d="M417.6,410.442l-.094-.176a2.93,2.93,0,0,0-.38-.572,1.876,1.876,0,0,0-.458-.4,1.141,1.141,0,0,0-.522-.166,1.155,1.155,0,0,0-.579.127,1.053,1.053,0,0,0-.424.349,1.015,1.015,0,0,0-.169.5,1.926,1.926,0,0,0,.069.65,4.393,4.393,0,0,0,.293.79Z" transform="translate(-414.968 -409.127)" fill="#fff"/></g><g transform="translate(234.953 217.651)"><path d="M419.01,410.069c-.035-.112-.074-.22-.117-.331s-.091-.223-.146-.344-.124-.249-.2-.392a4.632,4.632,0,0,0-.834-1.139,3.424,3.424,0,0,0-1.06-.725,2.843,2.843,0,0,0-1.218-.232,3.213,3.213,0,0,0-1.314.34,3.041,3.041,0,0,0-1.163.938,2.677,2.677,0,0,0-.487,1.265,4.154,4.154,0,0,0,.113,1.494,7.236,7.236,0,0,0,.638,1.623,8.028,8.028,0,0,0,.895,1.363,4.393,4.393,0,0,0,1.118.992,2.806,2.806,0,0,0,1.354.41,3.34,3.34,0,0,0,1.6-.38,5.244,5.244,0,0,0,.685-.408,4.95,4.95,0,0,0,.608-.506,4.645,4.645,0,0,0,.5-.579,3.884,3.884,0,0,0,.374-.629,3.05,3.05,0,0,0-.222-.27,3.349,3.349,0,0,0-.273-.26,2.835,2.835,0,0,0-.3-.224,1.88,1.88,0,0,0-.321-.16c-.1.14-.216.277-.332.41s-.24.26-.367.381a4.1,4.1,0,0,1-.411.335,3.427,3.427,0,0,1-.463.275,1.63,1.63,0,0,1-.715.186,1.23,1.23,0,0,1-.608-.158,1.97,1.97,0,0,1-.524-.435,4.334,4.334,0,0,1-.463-.647l3.76-1.84C419.079,410.3,419.048,410.182,419.01,410.069Zm-4.387.852a4.435,4.435,0,0,1-.293-.79,1.93,1.93,0,0,1-.069-.651,1.017,1.017,0,0,1,.169-.5,1.074,1.074,0,0,1,.424-.349,1.155,1.155,0,0,1,.579-.127,1.141,1.141,0,0,1,.522.166,1.849,1.849,0,0,1,.458.4,2.884,2.884,0,0,1,.38.572l.094.176Z" transform="translate(-412.446 -406.906)"/></g><g transform="translate(226.978 220.645)"><path d="M406.647,411.547a2.55,2.55,0,0,0-.291-.209,2.506,2.506,0,0,0-.311-.164,1.459,1.459,0,0,0-.288-.095,2.094,2.094,0,0,0-.316.246,1.9,1.9,0,0,0-.238.282,1.69,1.69,0,0,0-.162.314,1.957,1.957,0,0,0-.087.346,3.122,3.122,0,0,0-.493-.113,2.856,2.856,0,0,0-.536-.027,2.827,2.827,0,0,0-.575.085,3.137,3.137,0,0,0-.607.224,2.4,2.4,0,0,0-.885.737,2.722,2.722,0,0,0-.478,1.149,4.039,4.039,0,0,0,.043,1.506,6.774,6.774,0,0,0,.671,1.808,8.676,8.676,0,0,0,.963,1.466,4.637,4.637,0,0,0,1.087.973,2.572,2.572,0,0,0,1.17.4,2.336,2.336,0,0,0,1.214-.25,2.491,2.491,0,0,0,.448-.283,2.825,2.825,0,0,0,.372-.357,3.136,3.136,0,0,0,.295-.41,3.365,3.365,0,0,0,.225-.445l.3.575a3.374,3.374,0,0,1,.3.734,1.675,1.675,0,0,1,.046.679,1.229,1.229,0,0,1-.277.6,2.052,2.052,0,0,1-.674.5,3.836,3.836,0,0,1-.463.189,4.689,4.689,0,0,1-.523.146,4.924,4.924,0,0,1-.554.093,4.466,4.466,0,0,1-.56.028,1.715,1.715,0,0,0-.023.384,2.869,2.869,0,0,0,.047.437,3.35,3.35,0,0,0,.112.437,2.519,2.519,0,0,0,.16.387,5.81,5.81,0,0,0,.662-.069c.228-.036.466-.085.7-.147s.477-.136.712-.221a7.158,7.158,0,0,0,.679-.288,4.59,4.59,0,0,0,.722-.443,3.537,3.537,0,0,0,.562-.529,2.836,2.836,0,0,0,.395-.6,2.37,2.37,0,0,0,.2-.658,3.035,3.035,0,0,0,.019-.643,4.015,4.015,0,0,0-.145-.776,7.7,7.7,0,0,0-.354-.983c-.161-.371-.359-.788-.612-1.263l-2.176-4.111a3.913,3.913,0,0,1-.174-.387,2.578,2.578,0,0,1-.109-.375,1.556,1.556,0,0,1-.032-.346.893.893,0,0,1,.055-.3A1.52,1.52,0,0,0,406.647,411.547Zm.386,5.6a2.427,2.427,0,0,1-.134.427,1.979,1.979,0,0,1-.2.367,1.7,1.7,0,0,1-.262.3,1.506,1.506,0,0,1-.318.214.777.777,0,0,1-.466.068,1.279,1.279,0,0,1-.532-.236,2.974,2.974,0,0,1-.58-.582,6.733,6.733,0,0,1-.612-.968,7.02,7.02,0,0,1-.469-1.074,3.118,3.118,0,0,1-.169-.866,1.292,1.292,0,0,1,.125-.639.888.888,0,0,1,.414-.4,1.1,1.1,0,0,1,.285-.092,1.63,1.63,0,0,1,.341-.024,2.562,2.562,0,0,1,.388.044,3.343,3.343,0,0,1,.424.113l.055.1Z" transform="translate(-401.329 -411.079)"/></g><g transform="translate(228.936 223.211)"><path d="M405.31,418.718a2.993,2.993,0,0,0,.58.582,1.26,1.26,0,0,0,.532.235.773.773,0,0,0,.466-.068,1.463,1.463,0,0,0,.316-.214,1.642,1.642,0,0,0,.263-.3,1.877,1.877,0,0,0,.2-.368,2.554,2.554,0,0,0,.134-.427l-1.713-3.245-.055-.1a3.375,3.375,0,0,0-.424-.113,2.394,2.394,0,0,0-.388-.044,1.588,1.588,0,0,0-.341.024,1.105,1.105,0,0,0-.286.093.891.891,0,0,0-.412.4,1.3,1.3,0,0,0-.125.64,3.069,3.069,0,0,0,.169.865,7.032,7.032,0,0,0,.469,1.075A6.737,6.737,0,0,0,405.31,418.718Z" transform="translate(-404.059 -414.656)" fill="#fff"/></g><g transform="translate(199.441 188.147)"><path d="M368.773,376.588a1.352,1.352,0,0,0,.66.1,2.22,2.22,0,0,0,.757-.22c.117-.055.232-.115.346-.178s.229-.131.338-.2.216-.136.316-.2.194-.13.281-.189c-.009-.033-.019-.067-.033-.1s-.027-.075-.043-.113-.034-.077-.05-.116-.039-.077-.056-.113c-.044-.082-.091-.162-.14-.24s-.1-.154-.157-.227-.112-.143-.169-.208-.118-.125-.175-.18l-.433.2a.829.829,0,0,1-.289.082.513.513,0,0,1-.249-.044.7.7,0,0,1-.217-.164,1.474,1.474,0,0,1-.186-.277L365.3,366.66a2.951,2.951,0,0,0-.338-.521,1.085,1.085,0,0,0-.362-.291.779.779,0,0,0-.416-.067,1.519,1.519,0,0,0-.5.15l-.7.323-.044.148,4.744,9.005a3.6,3.6,0,0,0,.51.753A1.7,1.7,0,0,0,368.773,376.588Z" transform="translate(-362.941 -365.776)"/></g><g transform="translate(196.179 195.607)"><path d="M361.079,377.5l-.093-.177a3.207,3.207,0,0,0-.382-.575,1.915,1.915,0,0,0-.462-.4,1.193,1.193,0,0,0-.533-.171,1.231,1.231,0,0,0-.594.123,1.093,1.093,0,0,0-.435.345,1,1,0,0,0-.179.5,1.844,1.844,0,0,0,.062.651,4.339,4.339,0,0,0,.291.793Z" transform="translate(-358.393 -376.175)" fill="#fff"/></g><g transform="translate(194.329 194.016)"><path d="M362.523,377.156c-.038-.114-.075-.224-.119-.335s-.091-.225-.147-.346-.123-.252-.2-.4a4.652,4.652,0,0,0-.839-1.146,3.522,3.522,0,0,0-1.072-.732,2.96,2.96,0,0,0-1.243-.242,3.374,3.374,0,0,0-1.346.329,3.136,3.136,0,0,0-1.2.928,2.665,2.665,0,0,0-.512,1.261,4.083,4.083,0,0,0,.1,1.5,7.143,7.143,0,0,0,.633,1.633,8.113,8.113,0,0,0,.9,1.37,4.48,4.48,0,0,0,1.131,1,2.893,2.893,0,0,0,1.377.422,3.479,3.479,0,0,0,1.633-.367,5.308,5.308,0,0,0,1.334-.9,4.84,4.84,0,0,0,.522-.575,4,4,0,0,0,.39-.626,2.875,2.875,0,0,0-.225-.272,3,3,0,0,0-.276-.262,2.618,2.618,0,0,0-.306-.225,1.79,1.79,0,0,0-.324-.164c-.11.138-.225.275-.344.407a4.86,4.86,0,0,1-.382.377,3.962,3.962,0,0,1-.423.331,3.749,3.749,0,0,1-.476.273,1.738,1.738,0,0,1-.735.181,1.283,1.283,0,0,1-.62-.163,2.033,2.033,0,0,1-.531-.44,4.433,4.433,0,0,1-.461-.651l3.866-1.808C362.59,377.386,362.557,377.268,362.523,377.156Zm-4.5.807a4.315,4.315,0,0,1-.291-.792,1.847,1.847,0,0,1-.062-.651.985.985,0,0,1,.179-.5,1.087,1.087,0,0,1,.435-.346,1.213,1.213,0,0,1,.594-.122,1.181,1.181,0,0,1,.534.171,1.909,1.909,0,0,1,.461.4,3.122,3.122,0,0,1,.382.575l.093.176Z" transform="translate(-355.815 -373.957)"/></g><g transform="translate(187.075 197.382)"><path d="M348.171,380.455a1.094,1.094,0,0,1,.6-.114,1.022,1.022,0,0,1,.514.227,2.274,2.274,0,0,1,.448.5,6.047,6.047,0,0,1,.414.712c.064-.012.126-.026.188-.042s.123-.036.185-.059.127-.048.194-.077.142-.062.218-.1a1.162,1.162,0,0,0,.351-.241.806.806,0,0,0,.188-.323.868.868,0,0,0,.019-.4,1.444,1.444,0,0,0-.163-.458,2.615,2.615,0,0,0-.648-.8,2.678,2.678,0,0,0-.916-.5,2.886,2.886,0,0,0-1.1-.123,3.491,3.491,0,0,0-1.212.326,3.088,3.088,0,0,0-1.01.737,2.831,2.831,0,0,0-.624,1.143,3.587,3.587,0,0,0-.061,1.542,6.419,6.419,0,0,0,.681,1.929,7.165,7.165,0,0,0,.991,1.449,4.416,4.416,0,0,0,1.2.961,3.049,3.049,0,0,0,1.363.367,3.268,3.268,0,0,0,1.48-.332,3.752,3.752,0,0,0,.709-.433,3.919,3.919,0,0,0,.593-.559,3.85,3.85,0,0,0,.453-.651,3.485,3.485,0,0,0,.3-.706,1.989,1.989,0,0,0-.271-.265,2.97,2.97,0,0,0-.342-.236,2.622,2.622,0,0,0-.359-.179,1.464,1.464,0,0,0-.329-.093c-.07.143-.149.288-.235.429a3.4,3.4,0,0,1-.287.406,2.456,2.456,0,0,1-.346.35,1.94,1.94,0,0,1-.41.263,1.511,1.511,0,0,1-.666.156,1.31,1.31,0,0,1-.65-.2,2.548,2.548,0,0,1-.645-.59,6.384,6.384,0,0,1-.652-1.025,8.881,8.881,0,0,1-.507-1.127,3.274,3.274,0,0,1-.2-.865,1.172,1.172,0,0,1,.113-.618A.893.893,0,0,1,348.171,380.455Z" transform="translate(-345.703 -378.649)"/></g><g transform="translate(178.583 200.049)"><path d="M339.766,382.368c-.077.013-.156.027-.236.045s-.161.037-.245.06-.167.05-.251.082-.171.067-.26.108c-.065.03-.13.062-.194.1s-.126.071-.187.108-.117.075-.17.115a1.51,1.51,0,0,0-.141.115l-.121,2.57-1.8-1.1a2.88,2.88,0,0,0-.321-.18,1.216,1.216,0,0,0-.3-.1.926.926,0,0,0-.3,0,1.263,1.263,0,0,0-.33.106,1.87,1.87,0,0,0-.3.172,2.344,2.344,0,0,0-.28.235,2.464,2.464,0,0,0-.251.29,2.417,2.417,0,0,0-.209.34l3.772,2.361-.329,4.625.12.093a1.888,1.888,0,0,0,.256-.025c.087-.015.174-.036.263-.06s.179-.057.268-.091.178-.072.268-.114c.072-.034.142-.07.21-.105s.131-.074.194-.113.117-.077.168-.115a1.267,1.267,0,0,0,.136-.112l.107-2.944,2.14,1.314a2.169,2.169,0,0,0,.321.165,1.223,1.223,0,0,0,.309.081,1.028,1.028,0,0,0,.311-.011,1.314,1.314,0,0,0,.327-.108,1.972,1.972,0,0,0,.313-.186,2.522,2.522,0,0,0,.284-.246,2.681,2.681,0,0,0,.455-.6l-4.167-2.554.295-4.186Z" transform="translate(-333.864 -382.368)"/></g><g transform="translate(196.979 234.497)"><path d="M365.87,437.746a.1.1,0,0,1-.045-.022.509.509,0,0,1-.057-.059c-.083-.1-.181-.23-.292-.371s-.236-.3-.368-.462-.265-.329-.4-.492-.273-.32-.407-.463l-2.388-2.657a1.829,1.829,0,0,0-.359-.341,1.05,1.05,0,0,0-.362-.167.97.97,0,0,0-.378-.009,1.493,1.493,0,0,0-.4.136,1.924,1.924,0,0,0-.234.138,2.8,2.8,0,0,0-.235.184,2.983,2.983,0,0,0-.224.222,2.822,2.822,0,0,0-.207.252l5.171,5.488a2.648,2.648,0,0,0,.473.411,1.124,1.124,0,0,0,.433.174,1.074,1.074,0,0,0,.435-.027,2.483,2.483,0,0,0,.489-.19c.119-.057.235-.118.349-.181s.233-.126.346-.19.225-.131.326-.2.207-.132.3-.2c-.088-.484-.208-1.085-.345-1.755s-.291-1.407-.453-2.162-.329-1.529-.489-2.271-.319-1.454-.461-2.085l-.105-.062a2.308,2.308,0,0,0-.255.04c-.085.018-.173.041-.26.068s-.172.057-.26.092-.165.071-.249.11l-.167.087c-.055.029-.11.06-.164.094s-.106.067-.158.105-.1.078-.151.121l1.654,6.609c-.021.01-.039.019-.055.024A.1.1,0,0,1,365.87,437.746Z" transform="translate(-359.509 -430.39)"/></g><g transform="translate(169.029 200.917)"><path d="M327.366,385.3a2.479,2.479,0,0,0-.054-.265c-.024-.09-.049-.179-.077-.264s-.058-.166-.088-.241a1.541,1.541,0,0,0-.09-.2c-.029-.056-.06-.114-.095-.174s-.07-.122-.111-.186-.082-.129-.128-.2-.1-.133-.148-.2l-5.984,2.774-.045.151,4.675,8.952a1.828,1.828,0,0,0,.339.468,1.246,1.246,0,0,0,.415.273,1.073,1.073,0,0,0,.47.073,1.4,1.4,0,0,0,.507-.136l4.025-1.892a1.764,1.764,0,0,0,.442-.284,1.1,1.1,0,0,0,.269-.353.994.994,0,0,0,.1-.418,1.433,1.433,0,0,0-.082-.477c-.022-.069-.05-.14-.079-.209s-.059-.141-.093-.207-.061-.13-.09-.187-.056-.107-.078-.148l-3.5,1.643c-.1.045-.188.09-.276.133s-.171.085-.251.128-.16.082-.235.122-.153.08-.225.118c-.044-.086-.087-.166-.125-.244s-.075-.154-.113-.229-.072-.148-.11-.225-.08-.154-.121-.237l-.926-1.772.932-.435,2.42-1.131a1.822,1.822,0,0,0-.053-.229c-.022-.078-.049-.157-.078-.235s-.06-.151-.091-.222-.064-.133-.093-.189-.064-.119-.1-.184-.084-.135-.132-.2-.1-.137-.148-.2-.107-.124-.16-.178l-2.422,1.128c-.05.023-.113.052-.178.084s-.148.069-.228.108-.168.08-.255.124-.177.088-.264.134l-.8-1.539c-.05-.1-.1-.185-.143-.269s-.089-.164-.133-.242-.087-.159-.134-.243l-.143-.269.949-.44Z" transform="translate(-320.545 -383.577)"/></g><g transform="translate(191.423 239.066)"><path d="M352.318,438.993c.054.238.106.463.148.659l.442,2.185.166-.082.174-.093.163-.087.132-.067,1.229-.6c.03-.016.072-.034.12-.057s.1-.045.155-.07l.169-.075c.058-.027.113-.052.161-.077l-1.229-1.326c-.172-.185-.36-.387-.555-.6l-.6-.653c-.2-.222-.4-.446-.6-.663s-.38-.431-.552-.631l-.086.041c.068.209.13.443.194.689s.128.5.187.757S352.265,438.754,352.318,438.993Z" transform="translate(-351.764 -436.759)" fill="#fff"/></g><g transform="translate(189.476 236.617)"><path d="M352.9,442.527c.067-.031.126-.061.181-.087l.137-.067,2-.979.137-.07.181-.1.192-.1.179-.09,1.115,1.174a3.468,3.468,0,0,0,.467.44,1.257,1.257,0,0,0,.41.216.873.873,0,0,0,.4.019,1.571,1.571,0,0,0,.427-.149,2.881,2.881,0,0,0,.552-.354,2.133,2.133,0,0,0,.234-.216,1.382,1.382,0,0,0,.176-.225l-8.409-8.6c-.085.021-.177.05-.278.085s-.206.073-.308.114-.206.084-.3.125-.183.082-.26.119-.171.085-.265.136-.192.1-.286.158-.19.11-.278.165-.173.108-.246.158l2.113,11.708.128.07a1.7,1.7,0,0,0,.227-.038,2.579,2.579,0,0,0,.257-.072c.088-.029.176-.061.26-.1s.166-.072.241-.108.148-.074.221-.113.14-.077.208-.117.131-.081.191-.123a1.771,1.771,0,0,0,.17-.131l-.558-2.684c.059-.024.124-.052.19-.082S352.831,442.558,352.9,442.527Zm-.414-1.831-.174.093-.166.082-.442-2.185c-.042-.2-.095-.42-.148-.659s-.112-.492-.173-.747-.123-.511-.187-.757-.126-.48-.194-.689l.086-.042c.173.2.358.412.552.631s.394.443.6.664.4.442.6.653.381.412.553.6l1.229,1.327c-.048.024-.1.049-.159.075l-.171.077-.155.069c-.048.022-.09.041-.12.057l-1.229.6-.132.067Z" transform="translate(-349.049 -433.345)"/></g><g transform="translate(143.389 204.482)"><path d="M296.365,388.548,284.8,393.876l2.018,1.158,9.283-4.288Z" transform="translate(-284.802 -388.548)"/></g><g transform="translate(139.881 194.526)"><path d="M296.7,401.689l1.876-15.894.353-2.986.879-7.44-3.63-.7-1.192,9.956-.261,2.2-1.075,9-8.209-4.71-2.018-1.158-1.809-1.039-1.7,3.162,2.147,1.23,2.9,1.661Z" transform="translate(-279.912 -374.668)" fill="#f25f46"/></g><g transform="translate(144.928 205.653)"><path d="M300.562,390.18l-1.875,15.895-11.739-6.723,6.44,12.419,14.79-6.967Z" transform="translate(-286.948 -390.18)" fill="#fff"/></g><g transform="translate(142.029 202.633)"><path d="M285.806,398.162l-2.9-1.661,8.574,16.54,18.034-8.514-9.671-18.557-.07.034-.353,2.986,7.616,14.623-14.79,6.967Z" transform="translate(-282.907 -385.97)"/></g><g transform="translate(256.486 80.234)"><path d="M457.579,230.916c-.371-.4-.746-.8-1.12-1.188s-.745-.763-1.11-1.122-.719-.7-1.061-1.026l-5.535-5.018a8.184,8.184,0,0,0-.993-.788,3.578,3.578,0,0,0-.915-.449,2.381,2.381,0,0,0-.9-.1,3.088,3.088,0,0,0-.962.252,4.8,4.8,0,0,0-.733.391,5.338,5.338,0,0,0-.669.514,6.163,6.163,0,0,0-.6.618,6.908,6.908,0,0,0-.518.705l16.5,14.581,4.6,8.5c.208-.044.433-.1.663-.171s.459-.146.684-.227.441-.164.64-.245.38-.156.534-.224c.179-.08.373-.169.57-.264s.4-.2.6-.3.4-.221.593-.338.374-.237.539-.361l-4.511-8.315-2.76-20.76-.349-.228c-.2.014-.411.04-.623.077s-.431.083-.651.139-.437.121-.652.194-.43.154-.636.243c-.161.067-.325.14-.486.217s-.321.157-.481.242-.313.176-.463.272-.3.2-.438.306l1.324,8.909c.065.428.141.9.227,1.4s.181,1.029.284,1.564.217,1.077.334,1.608.242,1.049.372,1.534l-.216.093C458.319,231.728,457.951,231.319,457.579,230.916Z" transform="translate(-442.464 -215.34)" fill="#fff"/></g><g transform="translate(301.969 140.324)"><path d="M507.86,303.15a2.658,2.658,0,0,0-.373.073,2.416,2.416,0,0,0-.366.133,2.053,2.053,0,0,0-.806.664,2.4,2.4,0,0,0-.413,1.057,3.776,3.776,0,0,0,.079,1.4,6.7,6.7,0,0,0,.664,1.694,8.382,8.382,0,0,0,.921,1.381,4.628,4.628,0,0,0,1.027.934,2.5,2.5,0,0,0,1.087.408,2.065,2.065,0,0,0,1.113-.2,2.16,2.16,0,0,0,.481-.311,2.238,2.238,0,0,0,.373-.409,2.442,2.442,0,0,0,.266-.483,2.774,2.774,0,0,0,.159-.53,2.052,2.052,0,0,0,.368.22,1.715,1.715,0,0,0,.4.124,1.619,1.619,0,0,0,.418.018,1.757,1.757,0,0,0,.439-.1,1.152,1.152,0,0,0,.074-.257,2.133,2.133,0,0,0,.03-.313,2.062,2.062,0,0,0-.015-.327,1.448,1.448,0,0,0-.064-.3.988.988,0,0,1-.265-.125,1.646,1.646,0,0,1-.253-.217,2.673,2.673,0,0,1-.242-.293,3.9,3.9,0,0,1-.216-.351l-3.857-7.1a2.728,2.728,0,0,0-.323-.493,1.076,1.076,0,0,0-.338-.278.74.74,0,0,0-.382-.07,1.341,1.341,0,0,0-.454.133l-.629.291-.035.138,1.882,3.464c-.123-.009-.247-.012-.372-.011A3.714,3.714,0,0,0,507.86,303.15Zm.843,1.349a2.781,2.781,0,0,1,.326.007c.113.009.227.024.346.042l1.765,3.252a1.9,1.9,0,0,1-.1.456,1.435,1.435,0,0,1-.174.352,1.3,1.3,0,0,1-.225.254,1.151,1.151,0,0,1-.251.163.708.708,0,0,1-.427.055,1.234,1.234,0,0,1-.5-.227,2.889,2.889,0,0,1-.551-.549,6.262,6.262,0,0,1-.59-.914,6.872,6.872,0,0,1-.458-1.011,3.017,3.017,0,0,1-.178-.811,1.2,1.2,0,0,1,.1-.593.733.733,0,0,1,.359-.354,1.243,1.243,0,0,1,.266-.086A1.723,1.723,0,0,1,508.7,304.5Z" transform="translate(-505.869 -299.108)"/></g><g transform="translate(294.711 147.405)"><path d="M496.51,314.26a8.339,8.339,0,0,0,.505.826,5.426,5.426,0,0,0,.56.686,4.167,4.167,0,0,0,.643.542,3.875,3.875,0,0,0,.747.393,2.989,2.989,0,0,0,.6.163,2.8,2.8,0,0,0,.594.032,2.942,2.942,0,0,0,.586-.093,3.52,3.52,0,0,0,1.107-.52,2.58,2.58,0,0,0,.43-.385,2.379,2.379,0,0,0,.326-.464,2.737,2.737,0,0,0,.217-.544,3.284,3.284,0,0,0,.1-.788,3.7,3.7,0,0,0-.085-.8,5.36,5.36,0,0,0-.258-.826,8.687,8.687,0,0,0-.412-.867,8.812,8.812,0,0,0-.506-.821,5.3,5.3,0,0,0-.56-.686,4.151,4.151,0,0,0-.642-.545,3.766,3.766,0,0,0-.742-.4,3.013,3.013,0,0,0-.594-.155,2.888,2.888,0,0,0-.592-.029,3,3,0,0,0-.588.094,3.427,3.427,0,0,0-.584.212,3.286,3.286,0,0,0-.524.3,2.609,2.609,0,0,0-.429.381,2.506,2.506,0,0,0-.33.458,2.66,2.66,0,0,0-.221.536,3.167,3.167,0,0,0-.1.791,3.582,3.582,0,0,0,.087.806,5.265,5.265,0,0,0,.259.83A8.04,8.04,0,0,0,496.51,314.26Zm1.127-3.161a.924.924,0,0,1,.472-.45,1,1,0,0,1,.666-.08,1.462,1.462,0,0,1,.613.338,3.687,3.687,0,0,1,.565.648,8.707,8.707,0,0,1,.518.853,7.592,7.592,0,0,1,.425.891,3.289,3.289,0,0,1,.225.806,1.2,1.2,0,0,1-.075.659.9.9,0,0,1-.463.45,1.023,1.023,0,0,1-.673.084,1.441,1.441,0,0,1-.618-.335,3.531,3.531,0,0,1-.565-.646,8.689,8.689,0,0,1-.52-.849,8.223,8.223,0,0,1-.425-.9,3.268,3.268,0,0,1-.222-.808A1.223,1.223,0,0,1,497.637,311.1Z" transform="translate(-495.752 -308.979)"/></g><g transform="translate(296.506 148.969)"><path d="M498.915,314.082a8.369,8.369,0,0,0,.519.849,3.593,3.593,0,0,0,.566.646,1.44,1.44,0,0,0,.618.334,1.022,1.022,0,0,0,.673-.083.894.894,0,0,0,.463-.451,1.2,1.2,0,0,0,.075-.657,3.277,3.277,0,0,0-.225-.806,7.8,7.8,0,0,0-.426-.892,8.412,8.412,0,0,0-.516-.852,3.667,3.667,0,0,0-.565-.648,1.462,1.462,0,0,0-.613-.338,1.009,1.009,0,0,0-.666.08.926.926,0,0,0-.472.451,1.222,1.222,0,0,0-.077.661,3.293,3.293,0,0,0,.22.808A8.434,8.434,0,0,0,498.915,314.082Z" transform="translate(-498.254 -311.16)" fill="#fff"/></g><g transform="translate(312.99 182.181)"><path d="M521.9,360.43a8.4,8.4,0,0,0,.522.852,3.394,3.394,0,0,0,.567.647,1.405,1.405,0,0,0,.617.332,1,1,0,0,0,.67-.095.911.911,0,0,0,.463-.462,1.266,1.266,0,0,0,.072-.669,3.5,3.5,0,0,0-.226-.813,8.435,8.435,0,0,0-.428-.9,8.663,8.663,0,0,0-.522-.858,3.674,3.674,0,0,0-.568-.651,1.444,1.444,0,0,0-.615-.335.985.985,0,0,0-.663.089.928.928,0,0,0-.471.465,1.225,1.225,0,0,0-.074.671,3.335,3.335,0,0,0,.225.818A8.674,8.674,0,0,0,521.9,360.43Z" transform="translate(-521.233 -357.458)" fill="#fff"/></g><g transform="translate(311.2 180.59)"><path d="M519.508,360.63a8.194,8.194,0,0,0,.507.829,5.125,5.125,0,0,0,.563.688,4.056,4.056,0,0,0,.642.541,3.735,3.735,0,0,0,.745.39,2.937,2.937,0,0,0,.6.158,2.791,2.791,0,0,0,.593.026,2.877,2.877,0,0,0,.582-.1,3.32,3.32,0,0,0,.576-.221,3.355,3.355,0,0,0,.528-.321,2.817,2.817,0,0,0,.428-.4,2.459,2.459,0,0,0,.324-.475,2.744,2.744,0,0,0,.214-.556,3.481,3.481,0,0,0,.094-.8,3.886,3.886,0,0,0-.088-.81,5.243,5.243,0,0,0-.263-.833,8.235,8.235,0,0,0-.413-.872,8.565,8.565,0,0,0-.508-.827,5.435,5.435,0,0,0-.563-.69,3.994,3.994,0,0,0-.646-.544,3.673,3.673,0,0,0-.744-.393,2.987,2.987,0,0,0-.593-.151,2.881,2.881,0,0,0-.593-.022,2.96,2.96,0,0,0-.587.1,3.3,3.3,0,0,0-.58.223,3.144,3.144,0,0,0-.522.314,2.75,2.75,0,0,0-.428.391,2.424,2.424,0,0,0-.324.469,2.622,2.622,0,0,0-.22.547,3.386,3.386,0,0,0-.1.8,3.911,3.911,0,0,0,.091.817,5.363,5.363,0,0,0,.263.839A8.5,8.5,0,0,0,519.508,360.63Zm1.108-3.222a.926.926,0,0,1,.471-.466.985.985,0,0,1,.663-.088,1.442,1.442,0,0,1,.615.334,3.714,3.714,0,0,1,.568.652,8.69,8.69,0,0,1,.522.858,8.47,8.47,0,0,1,.427.9,3.5,3.5,0,0,1,.226.813,1.267,1.267,0,0,1-.072.669.914.914,0,0,1-.463.462,1,1,0,0,1-.672.094,1.41,1.41,0,0,1-.615-.332,3.371,3.371,0,0,1-.567-.647,8.9,8.9,0,0,1-.522-.852,8.739,8.739,0,0,1-.43-.905,3.336,3.336,0,0,1-.225-.818A1.224,1.224,0,0,1,520.617,357.408Z" transform="translate(-518.738 -355.24)"/></g><g transform="translate(303.956 184.104)"><path d="M509.408,365.559a8.669,8.669,0,0,0,.508.832,5.393,5.393,0,0,0,.567.69,4.161,4.161,0,0,0,.646.543,3.8,3.8,0,0,0,.749.391,3,3,0,0,0,.6.158,2.746,2.746,0,0,0,.6.024,2.936,2.936,0,0,0,.59-.1,3.527,3.527,0,0,0,1.109-.545,2.863,2.863,0,0,0,.432-.4,2.5,2.5,0,0,0,.325-.478,2.771,2.771,0,0,0,.217-.558,3.449,3.449,0,0,0,.1-.807,4.031,4.031,0,0,0-.089-.814,5.384,5.384,0,0,0-.261-.836,8.616,8.616,0,0,0-.415-.874,8.4,8.4,0,0,0-.509-.831,5.251,5.251,0,0,0-.566-.693,4.011,4.011,0,0,0-.647-.547,3.733,3.733,0,0,0-.745-.395,3.088,3.088,0,0,0-.6-.15,2.8,2.8,0,0,0-.595-.022,3.027,3.027,0,0,0-.592.1,3.456,3.456,0,0,0-.585.225,3.227,3.227,0,0,0-.524.316,2.831,2.831,0,0,0-.431.395,2.463,2.463,0,0,0-.328.471,2.578,2.578,0,0,0-.222.549,3.429,3.429,0,0,0-.1.81,3.832,3.832,0,0,0,.09.82,5.213,5.213,0,0,0,.263.844A8.392,8.392,0,0,0,509.408,365.559Zm1.124-3.241a.945.945,0,0,1,.475-.468.994.994,0,0,1,.669-.09,1.439,1.439,0,0,1,.618.336,3.683,3.683,0,0,1,.569.654,9.048,9.048,0,0,1,.524.862,8.731,8.731,0,0,1,.428.9,3.437,3.437,0,0,1,.225.817,1.28,1.28,0,0,1-.072.673.93.93,0,0,1-.468.465,1.02,1.02,0,0,1-.675.1,1.407,1.407,0,0,1-.621-.333,3.446,3.446,0,0,1-.57-.649,8.287,8.287,0,0,1-.523-.856,8.979,8.979,0,0,1-.432-.91,3.365,3.365,0,0,1-.225-.822A1.287,1.287,0,0,1,510.532,362.318Z" transform="translate(-508.64 -360.139)"/></g><g transform="translate(305.759 185.703)"><path d="M511.823,365.355a8.141,8.141,0,0,0,.523.856,3.5,3.5,0,0,0,.57.65,1.421,1.421,0,0,0,.621.333,1.025,1.025,0,0,0,.675-.1.931.931,0,0,0,.468-.466,1.28,1.28,0,0,0,.072-.672,3.422,3.422,0,0,0-.225-.817,8.105,8.105,0,0,0-.428-.9,8.885,8.885,0,0,0-.524-.862,3.649,3.649,0,0,0-.569-.654,1.463,1.463,0,0,0-.618-.336,1,1,0,0,0-.669.09.952.952,0,0,0-.475.468,1.285,1.285,0,0,0-.077.674,3.376,3.376,0,0,0,.225.823A8.877,8.877,0,0,0,511.823,365.355Z" transform="translate(-511.153 -362.368)" fill="#fff"/></g><g transform="translate(205.775 100.602)"><path d="M394.671,270.6a.577.577,0,0,1-.141-.105,2.455,2.455,0,0,1-.178-.2c-.4-.516-.834-1.057-1.276-1.605s-.9-1.108-1.359-1.662-.927-1.1-1.382-1.633-.907-1.044-1.339-1.524l-10.334-11.449a7.508,7.508,0,0,0-1.058-1.032,3.59,3.59,0,0,0-1.016-.575,2.5,2.5,0,0,0-1.02-.141,3.357,3.357,0,0,0-1.075.274,6,6,0,0,0-.809.423,6.561,6.561,0,0,0-.71.516,8.271,8.271,0,0,0-.631.582c-.2.2-.388.412-.572.624l19.883,21.819a5.512,5.512,0,0,0,1.245,1.069,2.968,2.968,0,0,0,1.178.42,3.264,3.264,0,0,0,1.163-.081,7.135,7.135,0,0,0,1.211-.43c.33-.147.673-.3,1.012-.459s.681-.323,1.018-.489.663-.339.977-.511.615-.345.894-.518l-7.076-29.962-.393-.219a5.785,5.785,0,0,0-.642.08c-.222.038-.448.088-.669.144s-.438.12-.639.187-.388.136-.547.2c-.182.076-.364.154-.549.237s-.369.169-.552.262-.36.192-.53.3a4.46,4.46,0,0,0-.488.351l6.665,25.1a.4.4,0,0,1-.131.036A.255.255,0,0,1,394.671,270.6Z" transform="translate(-371.771 -243.734)" fill="#fff"/></g><g transform="translate(188.655 119.459)"><path d="M354.638,280.029c.311-.148.605-.284.867-.4s.493-.222.678-.3a5.277,5.277,0,0,0,1.883-1.272,2.99,2.99,0,0,0,.75-1.534,3.963,3.963,0,0,0-.106-1.677,7.918,7.918,0,0,0-.69-1.7,8.458,8.458,0,0,0-1.047-1.565,4.693,4.693,0,0,0-1.379-1.123,3.779,3.779,0,0,0-1.79-.428,5.876,5.876,0,0,0-2.276.527l-.785.336-.912.384c-.316.131-.644.267-.968.4s-.649.26-.956.379L352.653,281c.328-.17.67-.34,1.006-.5S354.324,280.176,354.638,280.029Z" transform="translate(-347.905 -270.022)" fill="#457bf4"/></g><g transform="translate(150.15 124.085)"><path d="M319.676,303.9a5.979,5.979,0,0,1-2.05,1.4,6.589,6.589,0,0,1-2.5.6,4.748,4.748,0,0,1-2.234-.494,6.5,6.5,0,0,1-1.978-1.564,13.063,13.063,0,0,1-1.745-2.6L301.373,286.4a7.174,7.174,0,0,0-1.032-1.52,3.463,3.463,0,0,0-1.163-.857,2.826,2.826,0,0,0-1.323-.22,4.625,4.625,0,0,0-1.511.39l-2.029.862-.087.395,9.495,18.108a16.674,16.674,0,0,0,3.15,4.308,11.264,11.264,0,0,0,3.866,2.481,10.539,10.539,0,0,0,4.407.632,14.037,14.037,0,0,0,4.771-1.232,13.173,13.173,0,0,0,4.031-2.658,8.687,8.687,0,0,0,2.187-3.526,9.344,9.344,0,0,0,.279-4.267,15.571,15.571,0,0,0-1.7-4.882l-9.47-17.946c-.233.047-.482.112-.737.187s-.517.16-.77.247-.5.179-.722.267-.428.17-.6.242c-.189.08-.394.171-.608.27s-.435.207-.654.319-.445.233-.656.358-.42.253-.61.384l9.5,18.034a12.424,12.424,0,0,1,1.131,2.856,5.59,5.59,0,0,1,.108,2.374A3.828,3.828,0,0,1,319.676,303.9Z" transform="translate(-294.228 -276.47)" fill="#fff"/></g><g transform="translate(125.062 138.551)"><path d="M262.068,313.362a8.4,8.4,0,0,0,2.265,1.545,10.988,10.988,0,0,0,2.688.838,17.461,17.461,0,0,0,3.029.264l5.977-.02a9.852,9.852,0,0,1,1.922.193,5.867,5.867,0,0,1,1.464.5,4.158,4.158,0,0,1,1.061.765,3.922,3.922,0,0,1,.713.978,3.577,3.577,0,0,1,.382,1.406,3.086,3.086,0,0,1-.252,1.408,3.76,3.76,0,0,1-.952,1.3,6.3,6.3,0,0,1-1.723,1.085,12.6,12.6,0,0,1-2.311.742,17.167,17.167,0,0,1-2.5.357,21.783,21.783,0,0,1-2.551.03,23.6,23.6,0,0,1-2.463-.243,5.961,5.961,0,0,0-.347,1.177,7.973,7.973,0,0,0-.133,1.352,7.875,7.875,0,0,0,.106,1.412,6.589,6.589,0,0,0,.377,1.356,20.155,20.155,0,0,0,3.06.284,22.552,22.552,0,0,0,3.1-.158,21.941,21.941,0,0,0,2.986-.567,18.5,18.5,0,0,0,2.717-.944,15.116,15.116,0,0,0,4.237-2.691,8.966,8.966,0,0,0,2.3-3.268,7.765,7.765,0,0,0,.494-3.619,10.205,10.205,0,0,0-1.167-3.745,9.168,9.168,0,0,0-1.783-2.389,9.529,9.529,0,0,0-2.392-1.668,11.991,11.991,0,0,0-2.889-.981,16.447,16.447,0,0,0-3.288-.329l-5.959,0a11.644,11.644,0,0,1-1.622-.1,5.588,5.588,0,0,1-1.3-.326,3.317,3.317,0,0,1-.989-.6,3.1,3.1,0,0,1-.7-.907,3.2,3.2,0,0,1-.366-1.318,2.97,2.97,0,0,1,.251-1.35,3.68,3.68,0,0,1,.918-1.25,5.757,5.757,0,0,1,1.641-1.021,11.375,11.375,0,0,1,1.843-.585,19.717,19.717,0,0,1,2.118-.364c.734-.086,1.48-.14,2.213-.164s1.444-.017,2.112.016a5.668,5.668,0,0,0,.3-1.207,6.753,6.753,0,0,0,.046-1.295,7.189,7.189,0,0,0-.633-2.575,22.028,22.028,0,0,0-2.262-.059,24.644,24.644,0,0,0-2.595.2,23.374,23.374,0,0,0-2.777.536,20,20,0,0,0-2.8.943,12.024,12.024,0,0,0-3.554,2.276,9.2,9.2,0,0,0-2.181,3.07,8.039,8.039,0,0,0-.647,3.563,9.427,9.427,0,0,0,2.806,6.128Z" transform="translate(-259.253 -296.637)" fill="#fff"/></g><g transform="translate(57.193 46.73)"><path d="M447.257,220.178l-28.369-51.543L164.642,274.3l30.333,59.281Zm-82.8-10.383a6.158,6.158,0,0,1,.6-.618,5.333,5.333,0,0,1,.669-.514,4.789,4.789,0,0,1,.733-.391,3.087,3.087,0,0,1,.962-.252,2.382,2.382,0,0,1,.9.1,3.6,3.6,0,0,1,.915.449,8.184,8.184,0,0,1,.993.788l5.535,5.018c.341.323.7.666,1.061,1.026s.737.735,1.11,1.122.749.784,1.12,1.188.74.813,1.1,1.224l.216-.093c-.129-.486-.254-1-.372-1.534s-.23-1.072-.334-1.608-.2-1.063-.284-1.564-.162-.975-.227-1.4l-1.324-8.909q.209-.161.438-.306c.15-.1.306-.187.463-.272s.319-.166.481-.242.325-.149.486-.217c.207-.088.419-.17.636-.243s.435-.138.652-.194.436-.1.651-.14.422-.062.623-.077l.349.228,2.76,20.76,4.511,8.315c-.166.124-.349.244-.539.361s-.391.23-.593.338-.4.209-.6.3-.391.184-.57.264c-.154.067-.334.144-.534.224s-.415.164-.64.245-.458.159-.684.227-.455.128-.663.171l-4.6-8.5-16.5-14.581A6.914,6.914,0,0,1,364.452,209.794Zm-22.439,9.251,15.459-6.569c.142.179.274.357.4.532s.238.348.346.517.207.333.3.492.179.313.259.46.161.322.244.516.167.407.246.631.153.456.216.689.121.467.162.692l-8.122,3.475-2.45,1.048c.14.257.268.491.391.712s.245.432.362.642.239.42.362.642.255.456.392.713l2.19,4.072c.227-.11.458-.219.684-.324s.447-.206.657-.3.406-.182.582-.259l.463-.2,6.238-2.694a6.054,6.054,0,0,1,.432.48c.139.172.273.354.4.536s.247.365.354.539.2.339.282.486.165.317.25.5.17.379.253.582.153.41.217.614a5.643,5.643,0,0,1,.151.6l-6.235,2.71-2.405,1.046,2.518,4.681c.119.218.226.425.331.626s.2.4.3.6l.31.6c.106.207.218.422.342.651.187-.1.378-.192.577-.291s.4-.2.607-.3.425-.2.651-.308.465-.212.716-.322l9.015-3.959c.057.107.129.24.207.389s.163.315.25.491.174.359.254.544.159.373.221.553a3.753,3.753,0,0,1,.242,1.25,2.491,2.491,0,0,1-.225,1.079,2.7,2.7,0,0,1-.681.9,4.338,4.338,0,0,1-1.127.7l-10.371,4.585a3.506,3.506,0,0,1-1.318.312,2.975,2.975,0,0,1-1.24-.231,3.525,3.525,0,0,1-1.1-.753,5.157,5.157,0,0,1-.917-1.25L341.9,219.436Zm-28.217,12.2a8.274,8.274,0,0,1,.631-.582,6.566,6.566,0,0,1,.71-.516,6,6,0,0,1,.809-.423,3.357,3.357,0,0,1,1.075-.274,2.5,2.5,0,0,1,1.02.141,3.591,3.591,0,0,1,1.016.575,7.51,7.51,0,0,1,1.058,1.032l10.334,11.449c.432.48.882.994,1.339,1.524s.92,1.08,1.382,1.633.917,1.113,1.359,1.662.872,1.089,1.276,1.605a2.455,2.455,0,0,0,.178.2.579.579,0,0,0,.141.105.255.255,0,0,0,.128.027.406.406,0,0,0,.131-.036l-6.665-25.1a4.458,4.458,0,0,1,.488-.352c.17-.107.349-.207.53-.3s.367-.18.552-.262.367-.161.549-.237c.16-.069.345-.138.547-.2s.418-.13.639-.187.447-.105.669-.144a5.785,5.785,0,0,1,.642-.08l.393.219,7.076,29.962c-.279.173-.58.347-.894.519s-.642.343-.977.511-.676.331-1.018.489-.682.312-1.012.459a7.136,7.136,0,0,1-1.211.43,3.264,3.264,0,0,1-1.163.081,2.969,2.969,0,0,1-1.178-.42,5.512,5.512,0,0,1-1.245-1.069l-19.883-21.819C313.408,231.657,313.6,231.448,313.8,231.245Zm-24.757,10.261,2.3-1.051c.759-.345,1.5-.684,2.241-1.016s1.465-.658,2.185-.975,1.43-.626,2.131-.924a13.415,13.415,0,0,1,4-1.052,9.52,9.52,0,0,1,3.726.359,8.9,8.9,0,0,1,3.285,1.864,12.158,12.158,0,0,1,2.662,3.469,9.82,9.82,0,0,1,1.007,2.82,8.232,8.232,0,0,1,.07,2.612,7.494,7.494,0,0,1-.694,2.273,6.8,6.8,0,0,1-1.282,1.8,4.32,4.32,0,0,1,1.251.131,5.7,5.7,0,0,1,1.227.467,8.005,8.005,0,0,1,1.176.75,10.781,10.781,0,0,1,1.11.976l3.608,3.475c.246.241.506.475.773.694a9.87,9.87,0,0,0,.829.614,7.429,7.429,0,0,0,.873.5,5.891,5.891,0,0,0,.91.351,3.027,3.027,0,0,1-.265.94,4.015,4.015,0,0,1-.557.881,4.8,4.8,0,0,1-.787.757,4.669,4.669,0,0,1-.953.565,3.515,3.515,0,0,1-1.318.33,2.825,2.825,0,0,1-1.194-.226,5.321,5.321,0,0,1-1.187-.72,16.51,16.51,0,0,1-1.3-1.149L310.66,256.9a10.051,10.051,0,0,0-1.1-.932,4.747,4.747,0,0,0-1.181-.631,3.417,3.417,0,0,0-1.334-.188,4.561,4.561,0,0,0-1.558.4l-2.386,1.039,5.672,10.7c-.194.136-.4.269-.613.4s-.432.251-.65.367-.437.225-.645.326-.41.193-.6.275c-.166.073-.36.156-.572.242s-.446.175-.684.261-.483.169-.729.242-.483.139-.709.189L288.9,241.865Zm-31.353,13.073,2.029-.862a4.625,4.625,0,0,1,1.511-.39,2.827,2.827,0,0,1,1.323.22,3.464,3.464,0,0,1,1.163.857,7.172,7.172,0,0,1,1.032,1.52l7.793,14.832a13.062,13.062,0,0,0,1.745,2.6,6.5,6.5,0,0,0,1.978,1.564,4.748,4.748,0,0,0,2.234.493,6.589,6.589,0,0,0,2.5-.6,5.978,5.978,0,0,0,2.05-1.4,3.828,3.828,0,0,0,.952-1.887,5.59,5.59,0,0,0-.108-2.374,12.423,12.423,0,0,0-1.131-2.856l-9.5-18.034c.191-.132.4-.261.61-.384s.433-.245.656-.357.443-.221.654-.32.418-.189.608-.269c.171-.073.377-.156.6-.243s.472-.178.722-.266.515-.174.77-.248.5-.14.737-.187l9.47,17.946a15.571,15.571,0,0,1,1.7,4.882,9.344,9.344,0,0,1-.279,4.267,8.693,8.693,0,0,1-2.187,3.526,13.184,13.184,0,0,1-4.031,2.658,14.039,14.039,0,0,1-4.771,1.232,10.54,10.54,0,0,1-4.407-.632,11.264,11.264,0,0,1-3.866-2.481,16.706,16.706,0,0,1-3.15-4.308L257.6,254.973Zm-24.519,12.912a9.227,9.227,0,0,1,2.181-3.07,12.026,12.026,0,0,1,3.554-2.276,19.994,19.994,0,0,1,2.8-.943,23.354,23.354,0,0,1,2.777-.536,24.652,24.652,0,0,1,2.595-.2,22.018,22.018,0,0,1,2.262.059,7.187,7.187,0,0,1,.633,2.575,6.747,6.747,0,0,1-.046,1.295,5.752,5.752,0,0,1-.3,1.207c-.669-.032-1.385-.039-2.113-.016s-1.479.077-2.213.164a19.717,19.717,0,0,0-2.118.364,11.375,11.375,0,0,0-1.843.585,5.758,5.758,0,0,0-1.641,1.021,3.687,3.687,0,0,0-.918,1.25,2.97,2.97,0,0,0-.251,1.35,3.2,3.2,0,0,0,.366,1.318,3.113,3.113,0,0,0,.7.907,3.331,3.331,0,0,0,.989.6,5.59,5.59,0,0,0,1.3.326,11.653,11.653,0,0,0,1.622.1l5.959,0a16.445,16.445,0,0,1,3.288.329,11.991,11.991,0,0,1,2.889.981,9.548,9.548,0,0,1,2.392,1.668,9.167,9.167,0,0,1,1.783,2.389,10.205,10.205,0,0,1,1.167,3.745,7.764,7.764,0,0,1-.494,3.619,8.954,8.954,0,0,1-2.3,3.268,15.1,15.1,0,0,1-4.237,2.691,18.419,18.419,0,0,1-2.717.944,21.943,21.943,0,0,1-2.986.567,22.552,22.552,0,0,1-3.1.158,20.156,20.156,0,0,1-3.06-.284,6.591,6.591,0,0,1-.377-1.356,7.877,7.877,0,0,1-.106-1.412,7.971,7.971,0,0,1,.133-1.352,5.942,5.942,0,0,1,.347-1.176,23.793,23.793,0,0,0,2.463.242,21.789,21.789,0,0,0,2.551-.03,17.171,17.171,0,0,0,2.5-.357,12.6,12.6,0,0,0,2.311-.742,6.305,6.305,0,0,0,1.723-1.085,3.76,3.76,0,0,0,.952-1.3,3.086,3.086,0,0,0,.252-1.408,3.577,3.577,0,0,0-.382-1.406,3.922,3.922,0,0,0-.713-.978,4.175,4.175,0,0,0-1.061-.765,5.839,5.839,0,0,0-1.464-.5,9.794,9.794,0,0,0-1.923-.194l-5.977.02a17.464,17.464,0,0,1-3.029-.264,10.989,10.989,0,0,1-2.688-.838,8.418,8.418,0,0,1-2.265-1.544,9.431,9.431,0,0,1-2.806-6.128A8.04,8.04,0,0,1,233.167,267.491Z" transform="translate(-164.642 -168.635)" fill="#457bf4"/></g><g transform="translate(234.451 90.571)"><path d="M429.491,234.28c-.042-.225-.1-.458-.162-.692s-.137-.466-.216-.689-.162-.437-.246-.631-.166-.369-.244-.516-.166-.3-.259-.46-.192-.324-.3-.492-.222-.341-.346-.517-.257-.353-.4-.532L411.86,236.32l-.114.391,12.751,23.73a5.156,5.156,0,0,0,.917,1.25,3.524,3.524,0,0,0,1.1.753,2.962,2.962,0,0,0,1.24.23,3.492,3.492,0,0,0,1.318-.311l10.371-4.585a4.317,4.317,0,0,0,1.127-.7,2.707,2.707,0,0,0,.681-.9,2.525,2.525,0,0,0,.225-1.079,3.754,3.754,0,0,0-.242-1.25c-.062-.18-.141-.367-.221-.553s-.167-.369-.254-.544-.171-.341-.25-.491-.15-.282-.207-.389l-9.015,3.959c-.251.11-.487.217-.716.322s-.444.207-.651.308-.411.2-.607.3-.39.194-.577.291c-.124-.229-.236-.443-.342-.651s-.208-.406-.31-.6-.2-.394-.3-.6-.212-.408-.331-.626l-2.518-4.681,2.405-1.046,6.235-2.71a5.636,5.636,0,0,0-.151-.6c-.064-.2-.136-.412-.217-.614s-.166-.4-.253-.582-.171-.353-.25-.5-.174-.313-.282-.486-.225-.357-.354-.539-.261-.364-.4-.536a5.939,5.939,0,0,0-.432-.48L425,244.5l-.463.2c-.176.077-.374.164-.582.259s-.433.193-.657.3-.457.213-.684.324l-2.19-4.072c-.137-.258-.265-.491-.392-.713s-.242-.431-.362-.642-.238-.42-.362-.642-.251-.456-.391-.712l2.45-1.048Z" transform="translate(-411.746 -229.751)" fill="#fff"/></g><g transform="translate(296.74 186.73)"><path d="M501.145,367.77l.255-.134c.077-.039.141-.072.19-.095a1.417,1.417,0,0,0,.6-.512,1.245,1.245,0,0,0,.181-.641,2.132,2.132,0,0,0-.108-.678,3.864,3.864,0,0,0-.647-1.2,2.273,2.273,0,0,0-.514-.479,1.393,1.393,0,0,0-.653-.231,1.519,1.519,0,0,0-.785.166l-.249.121c-.085.042-.175.084-.265.127s-.183.086-.28.13-.19.088-.291.131l1.95,3.616.313-.167Z" transform="translate(-498.58 -363.8)" fill="#fff"/></g><g transform="translate(294.305 184.955)"><path d="M502.635,367.461a2.782,2.782,0,0,0,.623-1.086,3.041,3.041,0,0,0,.077-1.326,4.747,4.747,0,0,0-.538-1.519,5.033,5.033,0,0,0-1-1.332,3.3,3.3,0,0,0-1.176-.715,3.045,3.045,0,0,0-1.285-.141,3.988,3.988,0,0,0-1.329.391c-.23.113-.456.224-.68.336s-.448.227-.674.344-.457.235-.692.358-.48.249-.732.381l-.044.128,5.187,9.626c.075-.019.153-.043.234-.071s.159-.058.241-.09.155-.065.227-.1.136-.065.193-.092.128-.064.2-.1.144-.077.215-.12.145-.087.215-.133.133-.092.193-.139l-1.737-3.222,1.178-.577A3.678,3.678,0,0,0,502.635,367.461Zm-1.4-1.132a1.412,1.412,0,0,1-.6.512c-.049.023-.113.056-.188.095s-.165.085-.258.135l-.3.158-.313.166-1.95-3.615c.1-.044.2-.087.293-.131l.278-.131c.09-.043.181-.085.265-.127l.249-.121a1.51,1.51,0,0,1,.785-.166,1.394,1.394,0,0,1,.653.231,2.271,2.271,0,0,1,.514.478,3.878,3.878,0,0,1,.648,1.2,2.1,2.1,0,0,1,.108.676A1.244,1.244,0,0,1,501.231,366.329Z" transform="translate(-495.185 -361.326)"/></g><g transform="translate(253.449 154.938)"><path d="M451.52,319.481l-13.29,6.137,7.733,14.441,13.257-6.246Z" transform="translate(-438.23 -319.481)" fill="#fff"/></g><g transform="translate(251.132 152.696)"><path d="M451.21,316.355,435,323.824l9.437,17.627L460.6,333.82Zm-13.893,8.379,13.289-6.137,7.7,14.332-13.257,6.246Z" transform="translate(-435 -316.355)"/></g><g transform="translate(271.299 188.022)"><path d="M476.333,365.6l-13.219,6.389,7.8,14.56,13.191-6.5Z" transform="translate(-463.114 -365.601)" fill="#fff"/></g><g transform="translate(268.986 185.746)"><path d="M476.016,362.428,459.889,370.2l9.51,17.766,16.081-7.942ZM462.2,371.093l13.219-6.389,7.767,14.45L470,385.653Z" transform="translate(-459.889 -362.428)"/></g><g transform="translate(285.324 235.862)"><path d="M488.463,442.96c.081-.035.161-.072.236-.107s.142-.07.2-.1.132-.068.2-.108.145-.081.217-.126.146-.093.218-.141.14-.1.2-.151l-5.311-9.934c-.079.023-.163.049-.243.078s-.163.062-.242.1-.156.067-.229.1-.139.068-.2.1-.13.066-.2.105-.149.082-.224.128-.154.094-.225.141-.138.1-.2.147l5.315,9.945c.075-.02.154-.046.235-.076S488.381,442.994,488.463,442.96Z" transform="translate(-482.665 -432.292)" fill="#fff"/></g><g transform="translate(181.448 114.537)"><path d="M361.605,274.33a8.233,8.233,0,0,0-.07-2.612,9.82,9.82,0,0,0-1.007-2.82,12.157,12.157,0,0,0-2.662-3.469,8.9,8.9,0,0,0-3.285-1.864,9.52,9.52,0,0,0-3.726-.359,13.415,13.415,0,0,0-4,1.052q-1.052.448-2.131.924t-2.185.975c-.737.332-1.482.671-2.241,1.016l-2.3,1.051-.142.359,14.672,27.722c.227-.049.467-.115.709-.189s.489-.156.729-.242.47-.175.684-.261.407-.169.572-.242c.189-.082.389-.175.6-.275s.427-.211.645-.326.437-.238.65-.367.419-.26.613-.4l-5.672-10.7,2.386-1.039a4.561,4.561,0,0,1,1.558-.4,3.417,3.417,0,0,1,1.334.188,4.747,4.747,0,0,1,1.181.631,10.051,10.051,0,0,1,1.1.932l4.205,4.125a16.51,16.51,0,0,0,1.3,1.149,5.322,5.322,0,0,0,1.187.72,2.825,2.825,0,0,0,1.194.226,3.516,3.516,0,0,0,1.318-.33,4.671,4.671,0,0,0,.953-.565,4.8,4.8,0,0,0,.787-.757,4.015,4.015,0,0,0,.557-.881,3.028,3.028,0,0,0,.265-.94,5.892,5.892,0,0,1-.91-.351,7.433,7.433,0,0,1-.873-.5,9.875,9.875,0,0,1-.829-.614c-.266-.219-.527-.453-.773-.694l-3.608-3.475a10.786,10.786,0,0,0-1.11-.976,8,8,0,0,0-1.176-.75,5.7,5.7,0,0,0-1.227-.467,4.319,4.319,0,0,0-1.251-.131,6.8,6.8,0,0,0,1.282-1.8A7.5,7.5,0,0,0,361.605,274.33Zm-5.63.247a2.99,2.99,0,0,1-.75,1.534,5.276,5.276,0,0,1-1.883,1.272c-.185.08-.415.183-.678.3s-.557.255-.867.4-.644.3-.979.469-.678.334-1.006.5l-4.748-8.957c.307-.12.631-.247.956-.38s.652-.266.968-.4l.912-.384.785-.336a5.877,5.877,0,0,1,2.276-.527,3.78,3.78,0,0,1,1.79.428,4.693,4.693,0,0,1,1.379,1.123,8.458,8.458,0,0,1,1.047,1.565,7.92,7.92,0,0,1,.69,1.7A3.963,3.963,0,0,1,355.976,274.578Z" transform="translate(-337.858 -263.16)" fill="#fff"/></g><g transform="translate(274.213 238.469)"><path d="M474.119,443.944c-.166-.207-.353-.437-.539-.661s-.368-.442-.525-.626-.285-.336-.364-.427L469.51,438.7c-.1.029-.207.063-.313.1s-.209.077-.314.118-.2.085-.295.128-.186.086-.263.127-.165.086-.258.138-.2.112-.3.174-.207.128-.308.2-.2.137-.285.2l4.6,10.329a2.28,2.28,0,0,0,.232-.059c.08-.025.163-.055.245-.086s.164-.067.242-.1.154-.073.225-.108.141-.074.209-.111.134-.077.2-.115.127-.08.189-.12.119-.084.174-.127l-2.252-4.833c-.107-.235-.23-.495-.362-.77s-.272-.562-.412-.849-.286-.575-.424-.847-.269-.534-.388-.766l.092-.047,4.947,5.572c.072-.023.153-.051.233-.083s.169-.066.255-.1.167-.072.245-.106.148-.069.206-.1.135-.07.209-.113.154-.09.233-.138.156-.1.23-.148.142-.1.2-.143l-1.845-7.148.093-.047c.124.23.263.485.413.751s.308.544.468.821.321.553.477.813.3.509.438.729l2.752,4.56c.068-.021.135-.045.2-.07s.136-.051.2-.08.134-.059.2-.09.136-.067.205-.1.149-.078.223-.123.154-.091.225-.139.146-.1.213-.15a2.215,2.215,0,0,0,.181-.152l-5.993-9.561c-.111.032-.224.07-.337.111s-.227.086-.336.131-.217.093-.316.138-.191.089-.269.129-.157.083-.245.132-.178.1-.27.16-.184.118-.278.183-.187.131-.275.2l1.151,4.559c.032.114.084.3.151.535s.142.5.225.78.164.56.245.811.151.475.21.631l-.093.049C474.429,444.337,474.285,444.152,474.119,443.944Z" transform="translate(-467.177 -435.926)" fill="#fff"/></g><g transform="translate(267.518 246.729)"><path d="M461.044,449.884a1.138,1.138,0,0,0,.24-.522,1.329,1.329,0,0,0-.025-.539,2.047,2.047,0,0,0-.2-.513,1.986,1.986,0,0,0-.306-.445,1.382,1.382,0,0,0-.43-.321,1.167,1.167,0,0,0-.568-.1,1.858,1.858,0,0,0-.721.219c-.076.037-.161.082-.257.131l-.3.152c-.1.053-.213.107-.321.159s-.208.1-.306.144l1.432,2.692,1.166-.6A1.86,1.86,0,0,0,461.044,449.884Z" transform="translate(-457.843 -447.442)" fill="#d62940"/></g><g transform="translate(269.724 250.771)"><path d="M463.33,456.821l.337-.175.314-.163a1.92,1.92,0,0,0,.686-.548,1.33,1.33,0,0,0,.26-.627,1.68,1.68,0,0,0-.046-.631,2.494,2.494,0,0,0-.221-.566,2.421,2.421,0,0,0-.359-.505,1.847,1.847,0,0,0-.528-.389,1.473,1.473,0,0,0-.691-.14,2.023,2.023,0,0,0-.853.241l-1.312.673,1.706,3.21c.118-.066.238-.131.356-.194S463.216,456.882,463.33,456.821Z" transform="translate(-460.919 -453.076)" fill="#d62940"/></g><g transform="translate(213.374 187.604)"><path d="M385.012,366.336l-.092-.175a3.128,3.128,0,0,0-.379-.57,1.882,1.882,0,0,0-.458-.4,1.176,1.176,0,0,0-.525-.171,1.191,1.191,0,0,0-.586.12,1.052,1.052,0,0,0-.427.341.968.968,0,0,0-.172.495,1.844,1.844,0,0,0,.062.644,4.311,4.311,0,0,0,.29.784Z" transform="translate(-382.364 -365.018)" fill="#fff"/></g><g transform="translate(265.054 244.937)"><path d="M462.125,448.01a2.566,2.566,0,0,0-.058-.712,2.752,2.752,0,0,0-.258-.7,3.506,3.506,0,0,0-.816-1.047,2.487,2.487,0,0,0-1.033-.531,2.962,2.962,0,0,0-1.221-.018,4.988,4.988,0,0,0-1.378.486q-.341.173-.694.359l-.718.382-.74.4-.759.415-.042.133,5.267,9.915.133.044c.276-.131.544-.261.813-.389l.789-.383c.261-.128.523-.257.784-.387s.523-.263.787-.4a5.135,5.135,0,0,0,1.3-.922,3.025,3.025,0,0,0,.714-1.1,2.649,2.649,0,0,0,.133-1.24,3.85,3.85,0,0,0-.448-1.344,3.361,3.361,0,0,0-1.348-1.371,3,3,0,0,0-.836-.308,2.432,2.432,0,0,0-.831-.03,2.075,2.075,0,0,0,.321-.58A2.363,2.363,0,0,0,462.125,448.01Zm-5.253-.467c.1-.044.2-.093.306-.144s.216-.105.321-.159l.3-.152c.1-.049.181-.093.257-.131a1.858,1.858,0,0,1,.721-.219,1.166,1.166,0,0,1,.568.1,1.382,1.382,0,0,1,.43.321,1.988,1.988,0,0,1,.306.445,2.049,2.049,0,0,1,.2.513,1.329,1.329,0,0,1,.025.539,1.138,1.138,0,0,1-.24.522,1.86,1.86,0,0,1-.6.461l-1.166.6Zm5.062,3.376a1.847,1.847,0,0,1,.528.389,2.421,2.421,0,0,1,.359.505,2.491,2.491,0,0,1,.221.566,1.68,1.68,0,0,1,.046.631,1.33,1.33,0,0,1-.26.627,1.92,1.92,0,0,1-.686.548l-.314.163-.337.175c-.114.06-.233.123-.349.186s-.238.128-.356.194l-1.706-3.21,1.312-.673a2.023,2.023,0,0,1,.853-.241A1.473,1.473,0,0,1,461.934,450.918Z" transform="translate(-454.408 -444.943)" fill="#fff"/></g><g transform="translate(255.167 248.508)"><path d="M449.481,459.9a2.4,2.4,0,0,1-1.536.788,1.521,1.521,0,0,1-.767-.148,2.279,2.279,0,0,1-.689-.542,4.717,4.717,0,0,1-.62-.924l-2.807-5.3a2.673,2.673,0,0,0-.368-.54,1.157,1.157,0,0,0-.405-.3.9.9,0,0,0-.45-.062,1.465,1.465,0,0,0-.507.166l-.679.344-.028.145,3.422,6.457a5.939,5.939,0,0,0,1.115,1.522,3.758,3.758,0,0,0,1.336.851,3.375,3.375,0,0,0,1.506.171,5,5,0,0,0,2.966-1.529,3.261,3.261,0,0,0,.714-1.314,3.638,3.638,0,0,0,.056-1.562,5.911,5.911,0,0,0-.629-1.764l-3.422-6.447c-.08.022-.164.05-.25.082s-.173.067-.261.1-.166.075-.242.11l-.2.1c-.064.032-.132.068-.2.108s-.148.082-.222.127-.149.093-.22.141-.14.1-.2.149l3.432,6.468a4.588,4.588,0,0,1,.412,1.027,2.165,2.165,0,0,1,.061.864A1.482,1.482,0,0,1,449.481,459.9Z" transform="translate(-440.625 -449.922)" fill="#fff"/></g><g transform="translate(222.494 229.512)"><path d="M395.5,425.845a.923.923,0,0,0,.295.2.787.787,0,0,0,.342.067.928.928,0,0,0,.368-.094,1.425,1.425,0,0,0,.3-.2,1.749,1.749,0,0,0,.27-.287,2.063,2.063,0,0,0,.223-.367,2.6,2.6,0,0,0,.167-.437l-.682-1.29-.273.11-.27.114c-.087.038-.172.076-.252.113s-.156.073-.225.107a1.434,1.434,0,0,0-.432.309.959.959,0,0,0-.221.388,1.014,1.014,0,0,0-.018.45,1.651,1.651,0,0,0,.176.495A1.319,1.319,0,0,0,395.5,425.845Z" transform="translate(-395.078 -423.44)" fill="#fff"/></g><g transform="translate(247.602 253.912)"><path d="M432.446,460.2a1.906,1.906,0,0,1,.537-.391,3.452,3.452,0,0,1,.611-.237,5.991,5.991,0,0,1,.707-.16c.245-.042.5-.071.743-.09s.487-.027.713-.024a2.1,2.1,0,0,0,.084-.443,2.333,2.333,0,0,0,0-.47,2.747,2.747,0,0,0-.081-.474,2.677,2.677,0,0,0-.164-.452,6.263,6.263,0,0,0-.762.012,7.651,7.651,0,0,0-.869.11,7.013,7.013,0,0,0-.928.234,6.4,6.4,0,0,0-.924.381,4.036,4.036,0,0,0-1.163.873,3.353,3.353,0,0,0-.69,1.138,3.157,3.157,0,0,0-.172,1.295,3.483,3.483,0,0,0,.4,1.333,3.217,3.217,0,0,0,.618.834,2.78,2.78,0,0,0,.775.527,3.552,3.552,0,0,0,.907.267,5.5,5.5,0,0,0,1.02.057l2-.083a3.1,3.1,0,0,1,.648.045,1.887,1.887,0,0,1,.5.162,1.458,1.458,0,0,1,.367.263,1.421,1.421,0,0,1,.25.344,1.365,1.365,0,0,1,.146.5,1.175,1.175,0,0,1-.068.51,1.355,1.355,0,0,1-.306.48,2.077,2.077,0,0,1-.566.411,4,4,0,0,1-.763.294,5.494,5.494,0,0,1-.834.159,6.667,6.667,0,0,1-.854.04,7.121,7.121,0,0,1-.824-.059,2.32,2.32,0,0,0-.1.428,2.825,2.825,0,0,0-.029.486,2.712,2.712,0,0,0,.054.5,2.317,2.317,0,0,0,.144.483,6.326,6.326,0,0,0,1.026.065,7.137,7.137,0,0,0,2.028-.329,5.978,5.978,0,0,0,.9-.372,5.076,5.076,0,0,0,1.392-1.016,3.239,3.239,0,0,0,.737-1.2,2.961,2.961,0,0,0,.127-1.311,3.833,3.833,0,0,0-.435-1.338,3.269,3.269,0,0,0-.628-.84,3.158,3.158,0,0,0-.825-.572,3.763,3.763,0,0,0-.986-.317,5.055,5.055,0,0,0-1.11-.075l-2,.079a3.673,3.673,0,0,1-.544-.015,1.814,1.814,0,0,1-.439-.1,1.065,1.065,0,0,1-.582-.518,1.231,1.231,0,0,1-.142-.472,1.191,1.191,0,0,1,.069-.492A1.339,1.339,0,0,1,432.446,460.2Z" transform="translate(-430.079 -457.454)" fill="#fff"/></g><g transform="translate(218.667 225.143)"><path d="M393.965,420.708q-.151.069-.289.136l-.258.125a3.843,3.843,0,0,0-.959.654,2.682,2.682,0,0,0-.62.877,2.264,2.264,0,0,0-.179,1.069,3.106,3.106,0,0,0,.374,1.232,2.944,2.944,0,0,0,.549.736,2.691,2.691,0,0,0,.766.527,2.2,2.2,0,0,0,.92.2,2.335,2.335,0,0,0,1.02-.253,2.825,2.825,0,0,0,.593-.385,2.9,2.9,0,0,0,.441-.473,3.21,3.21,0,0,0,.314-.529,3.917,3.917,0,0,0,.207-.555,2.1,2.1,0,0,0,.382.2,1.832,1.832,0,0,0,.421.11,1.809,1.809,0,0,0,.458,0,2.224,2.224,0,0,0,.5-.117,1.371,1.371,0,0,0,.087-.281,2.28,2.28,0,0,0,.044-.341,2.568,2.568,0,0,0,0-.357,2.006,2.006,0,0,0-.055-.327,1.006,1.006,0,0,1-.288-.113,1.239,1.239,0,0,1-.253-.192,1.937,1.937,0,0,1-.222-.266,3.185,3.185,0,0,1-.2-.335l-1.6-3.034a3.741,3.741,0,0,0-.79-1.047,2.441,2.441,0,0,0-.926-.525,2.387,2.387,0,0,0-.986-.076,3.155,3.155,0,0,0-.983.3,6.334,6.334,0,0,0-.712.41c-.245.159-.489.338-.728.528s-.466.392-.676.6a6.883,6.883,0,0,0-.57.613,3.1,3.1,0,0,0,.253.352,3.837,3.837,0,0,0,.3.33,2.966,2.966,0,0,0,.321.277,1.69,1.69,0,0,0,.327.191c.144-.155.293-.31.443-.46s.3-.295.453-.43a5.854,5.854,0,0,1,.466-.372,3.375,3.375,0,0,1,.473-.286,1.48,1.48,0,0,1,.481-.15.9.9,0,0,1,.431.05,1.028,1.028,0,0,1,.377.256,1.967,1.967,0,0,1,.328.469l.212.4c-.108.04-.218.082-.324.127S394.069,420.662,393.965,420.708Zm.77,1.235.268-.115.273-.11.682,1.29a2.744,2.744,0,0,1-.166.438,2.168,2.168,0,0,1-.224.367,1.725,1.725,0,0,1-.27.288,1.354,1.354,0,0,1-.3.2.9.9,0,0,1-.368.095.8.8,0,0,1-.342-.067.949.949,0,0,1-.295-.2,1.285,1.285,0,0,1-.232-.319,1.636,1.636,0,0,1-.176-.495,1.035,1.035,0,0,1,.018-.45.98.98,0,0,1,.221-.388,1.451,1.451,0,0,1,.432-.309l.225-.107C394.562,422.018,394.648,421.98,394.736,421.942Z" transform="translate(-389.743 -417.35)"/></g><g transform="translate(212.686 227.791)"><path d="M382.728,422.9a1.933,1.933,0,0,0-.583-.07,2.182,2.182,0,0,0-.613.112,1.221,1.221,0,0,0-.088.283,2.455,2.455,0,0,0-.038.343,2.524,2.524,0,0,0,.013.354,1.657,1.657,0,0,0,.057.317,1.492,1.492,0,0,1,.285.126,1.987,1.987,0,0,1,.338.24,2.676,2.676,0,0,1,.354.377,3.579,3.579,0,0,1,.346.538l2.608,4.961c.074-.022.15-.046.227-.073s.159-.057.242-.088.161-.065.242-.1.16-.072.237-.111.162-.08.24-.124.161-.089.237-.134.147-.092.216-.136.133-.089.189-.131l-2.5-4.748a2.964,2.964,0,0,1,.044-.487,1.705,1.705,0,0,1,.138-.433,1.3,1.3,0,0,1,.251-.364,1.386,1.386,0,0,1,.392-.277l.164-.066c.057-.021.114-.042.171-.061s.118-.036.178-.05a1.581,1.581,0,0,1,.182-.032,3.031,3.031,0,0,0-.032-.539,4.726,4.726,0,0,0-.118-.554c-.049-.181-.108-.355-.168-.514a3.875,3.875,0,0,0-.188-.422c-.077.014-.148.029-.219.047s-.138.038-.209.062-.143.052-.219.083-.156.068-.244.111a2.027,2.027,0,0,0-.569.4,1.747,1.747,0,0,0-.347.518,2.051,2.051,0,0,0-.159.6,2.834,2.834,0,0,0,0,.661,3.063,3.063,0,0,0-.512-.389A2.227,2.227,0,0,0,382.728,422.9Z" transform="translate(-381.405 -421.041)"/></g><g transform="translate(207.599 233.448)"><path d="M377.012,430.26l-.095-.179a3.174,3.174,0,0,0-.385-.582,1.859,1.859,0,0,0-.465-.4,1.155,1.155,0,0,0-.537-.167,1.224,1.224,0,0,0-.6.133,1.11,1.11,0,0,0-.436.358,1.074,1.074,0,0,0-.179.514,2.067,2.067,0,0,0,.065.663,4.625,4.625,0,0,0,.3.8Z" transform="translate(-374.313 -428.926)" fill="#fff"/></g><g transform="translate(231.06 219.737)"><path d="M478.442,409.813l-71.423,36.031,11.709,22.237,71.184-36.931ZM433.134,453.17a3.24,3.24,0,0,1-.737,1.2A5.077,5.077,0,0,1,431,455.391a5.978,5.978,0,0,1-.9.372,7.134,7.134,0,0,1-2.028.329,6.322,6.322,0,0,1-1.027-.065,2.318,2.318,0,0,1-.144-.483,2.714,2.714,0,0,1-.054-.5,2.828,2.828,0,0,1,.029-.486,2.319,2.319,0,0,1,.1-.428,7.121,7.121,0,0,0,.824.059,6.677,6.677,0,0,0,.854-.04,5.577,5.577,0,0,0,.834-.159,4.051,4.051,0,0,0,.763-.295,2.056,2.056,0,0,0,.566-.411,1.355,1.355,0,0,0,.306-.48,1.175,1.175,0,0,0,.068-.51,1.366,1.366,0,0,0-.146-.5,1.42,1.42,0,0,0-.25-.344,1.458,1.458,0,0,0-.367-.263,1.89,1.89,0,0,0-.5-.162,3.1,3.1,0,0,0-.648-.045l-2,.083a5.5,5.5,0,0,1-1.02-.057,3.551,3.551,0,0,1-.907-.267,2.78,2.78,0,0,1-.775-.527,3.216,3.216,0,0,1-.618-.834,3.484,3.484,0,0,1-.4-1.333,3.158,3.158,0,0,1,.172-1.295,3.377,3.377,0,0,1,.69-1.138,4.036,4.036,0,0,1,1.163-.873,6.409,6.409,0,0,1,.926-.381,7.047,7.047,0,0,1,.925-.234,7.658,7.658,0,0,1,.869-.11,6.27,6.27,0,0,1,.762-.012,2.678,2.678,0,0,1,.164.452,2.743,2.743,0,0,1,.081.474,2.338,2.338,0,0,1,0,.47,2.1,2.1,0,0,1-.084.443c-.226,0-.468,0-.713.024s-.5.047-.743.09a5.98,5.98,0,0,0-.707.16,3.45,3.45,0,0,0-.611.237,1.907,1.907,0,0,0-.537.391,1.34,1.34,0,0,0-.291.464,1.192,1.192,0,0,0-.069.492,1.231,1.231,0,0,0,.142.472,1.065,1.065,0,0,0,.582.518,1.812,1.812,0,0,0,.439.1,3.673,3.673,0,0,0,.544.015l2-.079a5.053,5.053,0,0,1,1.11.075,3.764,3.764,0,0,1,.986.317,3.159,3.159,0,0,1,.825.572,3.27,3.27,0,0,1,.628.84,3.833,3.833,0,0,1,.435,1.338A2.961,2.961,0,0,1,433.134,453.17Zm9.051-4.812a3.261,3.261,0,0,1-.714,1.314,5,5,0,0,1-2.966,1.529,3.375,3.375,0,0,1-1.506-.171,3.757,3.757,0,0,1-1.336-.851,5.939,5.939,0,0,1-1.115-1.522l-3.422-6.457.028-.145.679-.344a1.465,1.465,0,0,1,.507-.166.9.9,0,0,1,.45.062,1.156,1.156,0,0,1,.405.3,2.694,2.694,0,0,1,.368.54l2.807,5.3a4.716,4.716,0,0,0,.62.924,2.279,2.279,0,0,0,.689.542,1.52,1.52,0,0,0,.767.148,2.4,2.4,0,0,0,1.536-.788,1.481,1.481,0,0,0,.307-.7,2.164,2.164,0,0,0-.061-.864,4.589,4.589,0,0,0-.412-1.027l-3.432-6.468c.064-.051.132-.1.2-.149s.145-.1.22-.141.149-.088.222-.127.14-.077.2-.108l.2-.1.242-.11c.088-.036.174-.071.261-.1s.171-.06.25-.082l3.422,6.447a5.911,5.911,0,0,1,.629,1.764A3.637,3.637,0,0,1,442.185,448.358Zm9.417-4.733a3.025,3.025,0,0,1-.714,1.1,5.135,5.135,0,0,1-1.3.922q-.4.2-.787.4c-.261.131-.523.259-.784.387l-.789.383c-.269.128-.537.258-.813.39l-.133-.044-5.267-9.915.042-.133.759-.415.74-.4.718-.382q.353-.186.694-.359a4.988,4.988,0,0,1,1.378-.486,2.963,2.963,0,0,1,1.221.018,2.487,2.487,0,0,1,1.033.531,3.508,3.508,0,0,1,.816,1.047,2.751,2.751,0,0,1,.258.7,2.565,2.565,0,0,1,.058.712,2.362,2.362,0,0,1-.137.672,2.075,2.075,0,0,1-.321.58,2.433,2.433,0,0,1,.831.03,3,3,0,0,1,.836.308,3.361,3.361,0,0,1,1.348,1.371,3.85,3.85,0,0,1,.448,1.344A2.648,2.648,0,0,1,451.6,443.625Zm12.172-5.367c-.067.052-.137.1-.213.15s-.149.1-.225.139-.151.086-.223.123-.135.069-.205.1-.133.061-.2.09-.132.055-.2.08-.134.048-.2.07l-2.752-4.56c-.136-.22-.284-.466-.438-.729s-.318-.537-.477-.813-.319-.554-.468-.821-.289-.521-.413-.751l-.093.047,1.845,7.148c-.061.045-.13.093-.2.143s-.152.1-.23.148-.158.1-.231.138-.148.082-.211.114-.13.065-.206.1-.159.072-.245.106-.171.07-.255.1-.161.06-.233.083l-4.947-5.572-.092.047c.119.232.252.491.388.766s.282.56.424.847.28.575.412.849.255.534.362.77l2.252,4.833c-.055.043-.115.085-.174.127s-.124.08-.189.12-.13.077-.2.115-.138.074-.209.111-.145.072-.225.108-.16.07-.242.1-.165.061-.245.086a2.29,2.29,0,0,1-.232.059l-4.6-10.329c.087-.067.185-.136.285-.2s.207-.134.308-.2.2-.121.3-.174.181-.1.257-.138.169-.084.263-.127.194-.085.295-.128.207-.082.314-.118.211-.071.313-.1l3.179,3.529c.079.091.207.242.364.427s.341.4.525.626.373.453.539.661.311.393.409.53l.093-.049c-.059-.156-.131-.378-.21-.631s-.166-.535-.245-.811-.161-.549-.225-.781-.119-.421-.151-.535l-1.151-4.559c.088-.068.181-.136.275-.2s.186-.126.278-.183.184-.111.27-.16.169-.093.245-.132.171-.085.269-.129.2-.092.316-.138.222-.09.336-.131.227-.079.337-.111l5.993,9.561A2.21,2.21,0,0,1,463.773,438.258Zm4.379-2.234c-.072.049-.144.1-.218.141s-.144.087-.217.126-.137.076-.2.108-.127.065-.2.1-.155.072-.236.107-.166.069-.247.1-.16.056-.235.076l-5.315-9.945c.06-.049.126-.1.2-.147s.15-.1.225-.141.151-.088.224-.128.138-.075.2-.105.13-.065.2-.1.149-.068.229-.1.161-.066.242-.1.164-.055.243-.078l5.311,9.934C468.292,435.925,468.223,435.975,468.152,436.024Zm5.942-3.062c-.07.049-.145.1-.219.141s-.144.086-.216.126-.138.075-.2.11l-.2.1c-.073.034-.147.068-.225.1s-.158.065-.24.095-.164.059-.247.083l-3.87-7.229c-.053-.1-.1-.19-.145-.278s-.09-.171-.134-.256-.09-.169-.138-.258-.1-.181-.156-.282l-.178.093c-.066.037-.143.077-.217.118l-.216.117c-.067.036-.125.068-.173.09l-1.454.742c-.052-.067-.1-.133-.148-.2s-.091-.135-.133-.2-.082-.131-.117-.194-.072-.126-.1-.183-.06-.115-.093-.18-.065-.133-.1-.206-.065-.148-.1-.225-.06-.156-.084-.235l6.248-3.181c.041.044.083.095.127.15s.089.115.132.177.086.126.123.189.08.128.111.189a1.328,1.328,0,0,1,.159.433.66.66,0,0,1-.027.357.773.773,0,0,1-.21.3,1.841,1.841,0,0,1-.392.258l-.613.312-.174.087-.223.107-.225.108-.181.09c.052.1.105.194.151.283l.146.255c.045.083.091.166.14.253s.1.176.15.275l3.867,7.221C474.237,432.861,474.166,432.913,474.094,432.961Z" transform="translate(-407.019 -409.813)" fill="#f7882d"/></g><g transform="translate(205.742 231.823)"><path d="M378.454,429.868c-.035-.114-.072-.225-.116-.336s-.093-.226-.15-.349-.125-.253-.2-.4a4.656,4.656,0,0,0-.846-1.156,3.479,3.479,0,0,0-1.075-.734,2.939,2.939,0,0,0-1.25-.23,3.342,3.342,0,0,0-1.351.354,3.2,3.2,0,0,0-1.2.962,2.771,2.771,0,0,0-.511,1.292,4.174,4.174,0,0,0,.1,1.521,7.186,7.186,0,0,0,.641,1.652,8.028,8.028,0,0,0,.9,1.384,4.454,4.454,0,0,0,1.138,1.006,2.864,2.864,0,0,0,1.387.411,3.47,3.47,0,0,0,1.637-.4,5.31,5.31,0,0,0,1.333-.938,4.749,4.749,0,0,0,.523-.593,3.761,3.761,0,0,0,.386-.643,2.6,2.6,0,0,0-.224-.275,3.3,3.3,0,0,0-.275-.263,2.739,2.739,0,0,0-.311-.226,1.8,1.8,0,0,0-.326-.161c-.11.142-.224.283-.346.418a4.876,4.876,0,0,1-.381.389,3.846,3.846,0,0,1-.423.344,3.55,3.55,0,0,1-.475.284,1.721,1.721,0,0,1-.735.194,1.25,1.25,0,0,1-.624-.158,1.943,1.943,0,0,1-.532-.44,4.294,4.294,0,0,1-.468-.657l3.871-1.9C378.522,430.1,378.492,429.982,378.454,429.868Zm-4.506.89a4.634,4.634,0,0,1-.3-.8,2.066,2.066,0,0,1-.065-.663,1.074,1.074,0,0,1,.179-.514,1.121,1.121,0,0,1,.436-.358,1.208,1.208,0,0,1,.6-.133,1.164,1.164,0,0,1,.537.167,1.873,1.873,0,0,1,.465.4,3.074,3.074,0,0,1,.384.582l.1.179Z" transform="translate(-371.726 -426.661)"/></g><g transform="translate(145.407 206.681)"><path d="M287.616,395.9l8.209,4.71,1.075-9Z" transform="translate(-287.616 -391.613)" fill="#fff"/></g><g transform="translate(161.786 240.206)"><path d="M325.2,438.349l-14.751,7.129,8.03,15.486,14.722-7.255Z" transform="translate(-310.449 -438.349)" fill="#fff"/></g><g transform="translate(159.271 237.753)"><path d="M324.937,434.929l-18,8.678,9.794,18.9,17.952-8.865Zm-15.479,9.582,14.751-7.129,8,15.36L317.488,460Z" transform="translate(-306.942 -434.929)"/></g><g transform="translate(52.55 36.935)"><path d="M158.452,258.536a4.78,4.78,0,0,0-.272,1.945,5.124,5.124,0,0,0,.566,2.017l4.067,7.945L417.059,164.775l-3.8-6.915a5.76,5.76,0,0,0-1.193-1.495,5.581,5.581,0,0,0-1.543-.986,4.891,4.891,0,0,0-1.7-.4,3.969,3.969,0,0,0-1.668.281L255.8,217.087l-94.6,38.642a4.975,4.975,0,0,0-1.707,1.151A4.7,4.7,0,0,0,158.452,258.536Z" transform="translate(-158.169 -154.98)" fill="#0b1e23"/></g><path d="M90.749,224.037a11.858,11.858,0,0,0-3.49,9.058,12.788,12.788,0,0,0,1.384,5.1L214.956,487.769a14.464,14.464,0,0,0,3.5,4.48,13.865,13.865,0,0,0,4.707,2.648,13.385,13.385,0,0,0,5.292.619,13.241,13.241,0,0,0,5.261-1.6l288.791-158.7a8.753,8.753,0,0,0,3.027-2.77,10.246,10.246,0,0,0,1.569-3.866,12.59,12.59,0,0,0,.024-4.46,14.348,14.348,0,0,0-1.614-4.554L409.626,110.641a14.309,14.309,0,0,0-2.924-3.67,14.111,14.111,0,0,0-3.785-2.446,12.167,12.167,0,0,0-4.171-1.018,9.7,9.7,0,0,0-4.09.626L208.914,176.724,95.173,221.178A12.827,12.827,0,0,0,90.749,224.037ZM138.4,243.983a4.692,4.692,0,0,1,1.031-1.657,4.967,4.967,0,0,1,1.707-1.151l94.606-38.642L387.1,140.711a3.969,3.969,0,0,1,1.668-.281,4.891,4.891,0,0,1,1.7.4,5.6,5.6,0,0,1,1.543.986,5.759,5.759,0,0,1,1.193,1.495l3.8,6.915,28.369,51.543L485.942,311.8a5.725,5.725,0,0,1,.639,1.841,4.99,4.99,0,0,1-.034,1.8,4.085,4.085,0,0,1-.667,1.552,3.574,3.574,0,0,1-1.254,1.1l-83.073,43.911L245.366,444.563a5.137,5.137,0,0,1-2.054.585,5.31,5.31,0,0,1-2.065-.273,5.529,5.529,0,0,1-1.839-1.052,5.756,5.756,0,0,1-1.374-1.753L142.764,255.89l-4.067-7.945a5.124,5.124,0,0,1-.566-2.017A4.757,4.757,0,0,1,138.4,243.983Z" transform="translate(-85.571 -103.491)" fill="#464646"/></g><g transform="translate(124.614 309.145)" opacity="0.5"><path d="M243.474,576.551c.381-.033.76-.091,1.141-.158a143.27,143.27,0,0,0,.866-16.223c-.379-8.9-4.113-26.03-6.462-34.625-2.26-8.265-6.439-24.981-9.941-32.8-3.25-7.261-12.713-20.21-16.566-27.17-2.244-4.051-6.369-12.965-9.279-16.567-4.4-5.453-13.853-12.8-17.891-18.527-2.481-3.516-6.244-11.679-8.615-15.269-5.3-8.025-17.025-19.075-26.509-23.857a9.625,9.625,0,0,0-2.757-.9h0a9.844,9.844,0,0,0-7.2,1.087L229.971,568.8a14.477,14.477,0,0,0,3.5,4.48,13.893,13.893,0,0,0,3.432,2.159l-.028-.011q-.353-.157-.7-.332h0c.23.117.462.227.7.333l.037.015.036.014c.212.092.423.181.637.262-.207-.077-.41-.164-.613-.253.4.171.8.326,1.206.46A13.387,13.387,0,0,0,243.474,576.551Z" transform="translate(-140.258 -390.181)" fill="#4c5252"/></g><path d="M508.043,439.668c10.292,8.247,47.62,30.066,47.62,30.066L575.23,458.98l-77.585-38.951s-3.251.987-3.076,3.777C494.921,429.406,503.663,436.158,508.043,439.668Z" transform="translate(-115.792 -89.473)" fill="#4c5252" opacity="0.5"/><g transform="translate(378.719 290.372)"><path d="M583.983,461.138c2.718-2.307,1-14.624,1-14.624l-18.536,4.556,3.323,13.252S577.6,466.551,583.983,461.138Z" transform="translate(-514.829 -387.331)" fill="#fbba84"/><path d="M602.616,467.887c-6.345-4.423-18-16.324-25.1-19.383-7.544-3.252-26.2-7.159-33.546-3.48-3.557,1.781-5.658,8.064-4.722,11.929,1.014,4.192,9.838,8.08,13.336,10.6,5.269,3.8,15.137,11.311,20.543,14.911,5.311,3.535,16.13,9.721,21.207,13.585,6.8,5.18,17.69,19.073,25.182,23.194,16.692,9.18,59.207,22.92,72.471,21.465,5.34-.586,15.934-.113,21.3.143a176.86,176.86,0,0,1,26.5,4.164,14.854,14.854,0,0,1,2.473.85,35.038,35.038,0,0,1,3.175,1.74,23.209,23.209,0,0,0,5.832,2.4v-84.7c-.29-.1-.589-.189-.867-.286-9.6-3.329-21.712-15.226-30.241-20.741-12.845-8.307-37.322-26.714-49.453-36.033-3.994-3.068-11.768-9.473-15.656-12.674-8.069-6.643-22.005-23.974-32.056-26.839-2.959-.842-8.13,1.1-11.183.745-3.713-.433-11.173-5.466-14.911-5.467-6.394,0-10.492,7-14.413,7.455-3.958.464-6.171-4.346-13.668-2.981-4.55.828-9.949,12.993-12.426,16.9-2.732,4.307-10.437,15.9-10.437,15.9s-11.388-2.164-15.159-2.734c-8-1.207-23.514-5.389-32.8-4.97-1.888.085-3.745,5.833-3.479,7.7.694,4.917,8.554,11.208,14.661,13.419,3.4,1.232,10.6,2.521,13.917,3.977,3.268,1.435,8.9,5.036,12.177,6.46,4.021,1.752,12.873,3.972,16.9,5.716,4.067,1.762,11.262,7.086,15.159,9.195,4.422,2.394,13.857,6.062,18.141,8.7a162.684,162.684,0,0,1,21.62,16.649c2.271,2.229,9.069,8.527,7.952,9.94C615.042,475.341,605.587,469.958,602.616,467.887ZM571.645,405.63l18.073,4.715,6.372,7.507Z" transform="translate(-494.491 -364.011)" fill="#fdd5ae"/><g transform="translate(0.001 35.018)"><path d="M602.616,481.685c-6.344-4.423-18-16.324-25.1-19.383-7.545-3.252-26.2-7.159-33.548-3.48a8.243,8.243,0,0,0-3.342,3.615,12.063,12.063,0,0,1,6.948-2.637c5.576-.369,16.516,3.359,21.641,5.585,4.318,1.877,12.178,7.213,15.881,10.122,4.611,3.622,12.125,9.857,16.928,13.221,5.338,3.739,48.472,24.736,46.77,23.079-1.019-.993-14.005-6.3-17.44-9.491-3.193-2.963-27.493-31.465-31.424-35.482-3.1-3.169-31.9-25.679-63-33.683-4.031-1.037-11.46-5.425-15.286-7.066-4.164-1.783-12.063-3.3-16.479-4.308-4.289-.98-9.9-5.407-10.417-8.951a7.025,7.025,0,0,0-.23,2.258c.694,4.917,8.554,11.208,14.66,13.419,3.4,1.232,10.6,2.521,13.917,3.977,3.268,1.435,8.9,5.036,12.177,6.46,4.022,1.752,12.875,3.972,16.9,5.716,4.066,1.762,11.26,7.086,15.158,9.195,4.422,2.394,13.856,6.062,18.141,8.7A162.738,162.738,0,0,1,607.089,479.2c2.27,2.229,9.07,8.527,7.952,9.94C615.041,489.14,605.587,483.757,602.616,481.685Z" transform="translate(-494.491 -412.827)" fill="#fbba84"/></g><path d="M660.883,371.022a23.72,23.72,0,0,1-3.024.32,30.542,30.542,0,0,1-3.805-.872s19.577,14.944,26.982,19.828C684.072,392.3,660.883,371.022,660.883,371.022Z" transform="translate(-539.593 -365.837)" fill="#fbba84"/><path d="M639.933,383.823c-4.576-2.948-17.849-13.353-17.849-13.353s-1.421,1.171-1.948,1.484c-.7.417-2.975,1.337-2.975,1.337s17.071,9.561,22.682,12.886c5.188,3.076,13.36,7.591,18.533,10.693C662.411,399.292,647.082,388.429,639.933,383.823Z" transform="translate(-529.165 -365.837)" fill="#fbba84"/><path d="M600.37,415.422c3.65.641,11.575,2.873,11.575,2.873s5.322,6.009,7.559,7.431c2.145,1.362,7.162,2.655,9.929,2.166,2.516-.444,8.145-4.968,6.04-6.415-7.04-4.841-17.88-14.314-24.988-18.3-5.356-3-18.7-15.068-22.365-10.145-4.727,6.341-10.8,17.114-10.8,17.114l11.941,1.646,4.967,1.372A63.56,63.56,0,0,0,600.37,415.422Z" transform="translate(-517.904 -371.885)" fill="#fbba84"/><path d="M576.857,496.826c1.037-1.367,4.539-4.66,4.29-6.359-.679-4.658-10.764-9.62-15.471-9.738-2.417-.06-7.008,0-8.591,3.536-1.189,2.659-.567,6.37.918,7.911,3.869,4.021,10.581,8.41,15.492,9.3C574.906,501.733,575.988,497.968,576.857,496.826Z" transform="translate(-512.007 -396.999)" fill="#ffc69f"/><path d="M511.892,412.545c.633-.382.981-1.557,1.173-2.77.253-1.6.713-3.319.713-3.319s-9.239-2.428-15.575-2.752a3.253,3.253,0,0,0-1.931,5.963C499.539,412.039,508.437,414.634,511.892,412.545Z" transform="translate(-494.571 -375.23)" fill="#ffc69f"/></g><g transform="translate(85.642 290.359)"><path d="M207.071,625.689s5.665-57.153,6.762-67.3c.607-5.626,7.7-29.1,3.859-51.9-4.634-27.516-33.685-65.378-42.414-79.1-3.761-5.912-10.093-17.314-14.129-23.041-2.481-3.516-6.245-11.679-8.616-15.269-5.3-8.025-17.025-19.074-26.509-23.856-6.819-3.439-15.24,2.318-14.577,8.282a2.032,2.032,0,0,1-.994,2.32c-7.954,4.638-9.551,10.223-11.93,14.686C95.5,396.18,93.1,409.274,91.9,415.585c-.8,4.2-1.9,12.689-2.651,16.9-.519,2.91-2.333,9.635-2.318,12.591.024,5.248,3.91,14.336,3.312,19.55-.291,2.542-4.371,7.715-4.308,10.272.133,5.335,7.584,13.742,10.934,17.893,12.082,14.959,35.638,37.8,42.743,53.346a34.61,34.61,0,0,1,2.32,12.591c-2.034,27.276,5.993,33.316-7.363,66.964Z" transform="translate(-85.93 -364.048)" fill="#fdd5ae"/><path d="M133.854,426.077c-7.5-1.791-1.091-.154,8.749,13.637,1.52,2.13,2.194,8.976,4.659,8.093,3.93-1.407,1.558-10.835,0-14.708-2-4.97-9.526-13.249-12.853-17.448-3.09-3.9-9.107-12.025-10.82-16.7-1.7-4.637-4.441-14.036-3.534-17.88.848-3.593-2.638,2.424-1.5,10.085,1.3,8.791,5.7,26,8.548,28.244C132.869,423.956,136.062,426.605,133.854,426.077Z" transform="translate(-95.087 -368.52)" fill="#fbba84"/><path d="M87.241,477.177c-.03-.192-.031-.171,0,0Z" transform="translate(-86.294 -395.947)" fill="#ff8a54"/><path d="M87.25,477.231c.017.11.044.287.078.538.372,2.755,1.856,9.323,3.448,12.132,2.514,4.434,12.407,11.34,16.388,8.156,3.364-2.691-6.021-7.261-10.282-7.883C89.705,489.132,87.488,478.536,87.25,477.231Z" transform="translate(-86.303 -396.001)" fill="#ff8a54"/><path d="M121.564,372.757c.208,4.988,4.337,14.62,9.052,16.261,2,.7,7.034-3.045,8.877-4.086,1.993-1.124,6.018-2.3,6.273-4.572.579-5.206-7.372-14.734-12.431-16.093C128.21,362.892,121.318,366.823,121.564,372.757Z" transform="translate(-96.001 -363.992)" fill="#ffc69f"/><g transform="translate(41.736 28.346)"><path d="M156.3,413.8c-1.873.736-7.694,4.486-7.647,6.225.022.823,12.886-5.434,16.408-8.769C168.09,408.393,158.461,412.952,156.3,413.8Z" transform="translate(-145.396 -405.435)" fill="#fbba84"/><path d="M151.759,406.987c-1.873.736-7.694,4.486-7.647,6.225.022.823,12.888-5.434,16.408-8.769C163.546,401.578,153.917,406.137,151.759,406.987Z" transform="translate(-144.112 -403.509)" fill="#fbba84"/></g></g><path d="M150.039,588.9c7.522-39.14-37.107-88.23-43.554-93.813s-16.069-4.971-19.523-17.08c.349,5.328,3.846,13.814,3.277,18.785-.291,2.541-4.371,7.715-4.308,10.272.133,5.335,7.584,13.742,10.934,17.893,12.082,14.959,35.638,37.8,42.744,53.346a34.624,34.624,0,0,1,2.319,12.591c-1.928,25.858,10.42,20.1-5.041,60.951C147.95,623.128,143.407,623.409,150.039,588.9Z" transform="translate(-0.288 -105.863)" fill="#fbba84"/><path d="M88.236,478.692c5.434-.106,9.335-.326,9.335-.326,1.837-6.582,7.4-7.655,1.3-11.333s-6.793-11.044-5.1-24.96,2.205-36.6,7.214-46.976c-.74,1.443-1.371,2.845-2.066,4.149-3.021,5.67-5.425,18.763-6.626,25.075-.8,4.2-1.9,12.689-2.651,16.9-.519,2.911-2.333,9.635-2.318,12.591.024,5.247,3.909,14.336,3.312,19.55C90.481,474.675,89.317,476.695,88.236,478.692Z" transform="translate(-0.68 -82.426)" fill="#fbba84"/><g transform="translate(95.402 301.786)"><path d="M100.55,418.132c-.057.36-.045.308,0,0Z" transform="translate(-99.811 -390.723)" fill="#fbba84"/><path d="M120.759,379.923c0,.077,0,.168,0,.249C120.864,380.1,120.759,379.923,120.759,379.923Z" transform="translate(-105.534 -379.923)" fill="#fbba84"/><path d="M100.389,406.718c.739-4.486,12.964-9.754,16.245,0s5.118-.551,2.01-6.785a39.406,39.406,0,0,1-3.885-19.662c-.05.034-.142.047-.321.006-.047.031-.088.064-.14.094-7.954,4.638-9.551,10.223-11.93,14.686a41.141,41.141,0,0,0-2.833,7.762h0c1.813-3.323.94,3.219.737,4.612C100.3,407.273,100.335,407.047,100.389,406.718Z" transform="translate(-99.535 -380.021)" fill="#fbba84"/></g></g></svg>