<svg xmlns="http://www.w3.org/2000/svg" width="397.257" height="432.191" viewBox="0 0 397.257 432.191"><g transform="translate(-148.12 -1661.894)"><g transform="translate(147.713 1774.244)"><g transform="translate(0.407 0)"><rect width="69.956" height="162.001" rx="0.5" transform="translate(0 157.84)" fill="#ffc550"/><path d="M.5,0H69.457a.5.5,0,0,1,.5.5V112.171a.5.5,0,0,1-.5.5H.5a.5.5,0,0,1-.5-.5V.5A.5.5,0,0,1,.5,0Z" transform="translate(218.2 207.17)" fill="#f25f46"/><rect width="69.956" height="256.119" rx="0.5" transform="translate(109.1 63.722)" fill="#f7882d"/><rect width="69.956" height="319.841" rx="0.5" transform="translate(327.301)" fill="#457bf4"/></g></g><g transform="translate(158.064 1661.894)"><g transform="translate(20.811 16.922)"><path d="M366.44,291.974a2.069,2.069,0,0,1-1.3-3.681l111.749-89.828,110.238,76.892,108.5-133.094a2.069,2.069,0,1,1,3.207,2.615L587.911,280.947,477.067,203.633,367.735,291.518A2.062,2.062,0,0,1,366.44,291.974Z" transform="translate(-364.369 -141.501)" fill="#464646"/></g><ellipse cx="18.992" cy="18.992" rx="18.992" ry="18.992" transform="translate(114.429 57.478)" fill="#f7882d"/><path d="M18.992,0A18.992,18.992,0,1,1,0,18.992,18.992,18.992,0,0,1,18.992,0Z" transform="translate(224.97 134.581)" fill="#f25f46"/><path d="M18.992,0A18.992,18.992,0,1,1,0,18.992,18.992,18.992,0,0,1,18.992,0Z" transform="translate(334.683 0)" fill="#457bf4"/><ellipse cx="18.992" cy="18.992" rx="18.992" ry="18.992" transform="translate(0 179.393) rotate(-76.583)" fill="#ffc550"/></g></g></svg>