<svg xmlns="http://www.w3.org/2000/svg" width="122.655" height="122.656" viewBox="0 0 122.655 122.656"><path d="M11.941,68.641H128.876v80.483H11.941Zm0,0" transform="translate(-9.081 -52.197)" fill="#ffefe4"/><path d="M119.163,39.477H3.493a3.493,3.493,0,0,0,0,6.987H119.162a3.493,3.493,0,0,0,0-6.987Zm0,0" transform="translate(0 -30.019)" fill="#f7782d"/><path d="M3.493,41.872H119.162a3.492,3.492,0,0,1,3.279,2.3,3.487,3.487,0,0,0-3.279-4.691H3.493A3.485,3.485,0,0,0,.215,44.168,3.492,3.492,0,0,1,3.493,41.872Zm0,0" transform="translate(0 -30.019)" fill="#f9b179"/><path d="M119.163,404.6H3.493a3.493,3.493,0,0,0,0,6.987H119.162a3.493,3.493,0,0,0,0-6.987Zm0,0" transform="translate(0 -307.671)" fill="#f7782d"/><path d="M212.773,433.762h23.339V452.5H212.773Zm0,0" transform="translate(-161.801 -329.848)" fill="#f9b179"/><path d="M212.773,492h23.339v4.791H212.773Zm0,0" transform="translate(-161.801 -374.135)" fill="#f78b4c"/><path d="M45.6,19.516H51.95V24.3H45.6Zm0,0" transform="translate(-34.674 -14.84)" fill="#f9b179"/><path d="M35.7,0H21.223a2.337,2.337,0,0,0,0,4.674H35.7A2.337,2.337,0,0,0,35.7,0Zm0,0" transform="translate(-14.362)" fill="#ecc30b"/><path d="M177.027,19.516h6.352V24.3h-6.352Zm0,0" transform="translate(-134.618 -14.84)" fill="#f9b179"/><path d="M167.13,0H152.653a2.337,2.337,0,0,0,0,4.674H167.13a2.337,2.337,0,1,0,0-4.674Zm0,0" transform="translate(-114.306)" fill="#ecc30b"/><path d="M308.457,19.516h6.352V24.3h-6.352Zm0,0" transform="translate(-234.562 -14.84)" fill="#f9b179"/><path d="M298.557,0H284.08a2.337,2.337,0,1,0,0,4.674h14.477a2.337,2.337,0,0,0,0-4.674Zm0,0" transform="translate(-214.247)" fill="#ecc30b"/><path d="M439.887,19.516h6.352V24.3h-6.352Zm0,0" transform="translate(-334.506 -14.84)" fill="#f9b179"/><path d="M429.989,0H415.512a2.337,2.337,0,0,0,0,4.674h14.477a2.337,2.337,0,0,0,0-4.674Zm0,0" transform="translate(-314.194)" fill="#ecc30b"/><g transform="translate(4.525 0)"><path d="M415.512,2.4h14.477a2.335,2.335,0,0,1,2,1.14,2.334,2.334,0,0,0-2-3.535H415.513a2.334,2.334,0,0,0-2,3.535A2.33,2.33,0,0,1,415.512,2.4Zm0,0" transform="translate(-318.719 0)" fill="#ebcc3f"/><path d="M21.223,2.4H35.7a2.334,2.334,0,0,1,2,1.14A2.334,2.334,0,0,0,35.7,0H21.223a2.334,2.334,0,0,0-2,3.535A2.332,2.332,0,0,1,21.223,2.4Zm0,0" transform="translate(-18.887 0)" fill="#ebcc3f"/><path d="M152.653,2.4H167.13a2.334,2.334,0,0,1,2,1.14,2.334,2.334,0,0,0-2-3.535H152.653a2.334,2.334,0,0,0-2,3.535A2.33,2.33,0,0,1,152.653,2.4Zm0,0" transform="translate(-118.831 0)" fill="#ebcc3f"/><path d="M284.08,2.4h14.477a2.335,2.335,0,0,1,2,1.14,2.334,2.334,0,0,0-2-3.535H284.08a2.334,2.334,0,0,0-2,3.535A2.334,2.334,0,0,1,284.08,2.4Zm0,0" transform="translate(-218.772 0)" fill="#ebcc3f"/></g><path d="M299.932,231.842H275.193a1.622,1.622,0,1,1,0-3.244h24.739a1.622,1.622,0,0,1,0,3.244Zm0,0" transform="translate(-208.033 -173.834)" fill="#edd4c2"/><path d="M308.042,260.488H275.193a1.623,1.623,0,0,1,0-3.245h32.849a1.623,1.623,0,1,1,0,3.245Zm0,0" transform="translate(-208.033 -195.616)" fill="#edd4c2"/><path d="M297.06,304.8h-19a4.493,4.493,0,1,1,0-8.986h19a4.493,4.493,0,1,1,0,8.986Zm0,0" transform="translate(-208.033 -224.947)" fill="#f78b4c"/><path d="M280.085,141.3a2.3,2.3,0,0,1,2.149,1.489l4.274,11.375a1.428,1.428,0,1,1-2.686.969l-.887-2.572h-5.7l-.887,2.572a1.428,1.428,0,1,1-2.686-.969l4.274-11.375A2.3,2.3,0,0,1,280.085,141.3Zm1.942,8.7-1.322-3.7-.537-1.8H280l-.537,1.8-1.323,3.7Zm0,0" transform="translate(-208.03 -107.447)" fill="#f78b4c"/><path d="M337.859,143.594a2.3,2.3,0,0,1,2.3-2.3h2.7a8.79,8.79,0,0,1,3.161.537,6.808,6.808,0,0,1,2.4,1.519,6.6,6.6,0,0,1,1.519,2.344,8.84,8.84,0,0,1,0,6.012,6.487,6.487,0,0,1-1.519,2.335,6.892,6.892,0,0,1-2.4,1.509,8.79,8.79,0,0,1-3.161.537h-2.7a2.3,2.3,0,0,1-2.3-2.3Zm4.875,9.851a6.227,6.227,0,0,0,2.15-.341,4.189,4.189,0,0,0,1.549-.961,3.924,3.924,0,0,0,.93-1.5,6.306,6.306,0,0,0,0-3.9,3.938,3.938,0,0,0-.93-1.5,4.189,4.189,0,0,0-1.549-.96,6.228,6.228,0,0,0-2.15-.341h-2.086v9.5h2.086Zm0,0" transform="translate(-256.921 -107.447)" fill="#f78b4c"/><path d="M402.643,155.37a6.155,6.155,0,0,1-1.818-.269,5.248,5.248,0,0,1-1.591-.806,5.6,5.6,0,0,1-1.26-1.313c-.078-.112-.152-.227-.222-.348a1.405,1.405,0,0,1,2.432-1.407,3.691,3.691,0,0,0,.579.764,2.548,2.548,0,0,0,1.9.734,3.064,3.064,0,0,0,.837-.113,2.5,2.5,0,0,0,.723-.33,1.6,1.6,0,0,0,.505-.547,1.529,1.529,0,0,0,.186-.765,1.833,1.833,0,0,0-.144-.743,1.743,1.743,0,0,0-.486-.62,4.3,4.3,0,0,0-.888-.558,13.552,13.552,0,0,0-1.353-.559l-.909-.33a6.913,6.913,0,0,1-1.209-.558,5.269,5.269,0,0,1-1.105-.847,4.2,4.2,0,0,1-.817-1.167,3.488,3.488,0,0,1-.32-1.519,3.9,3.9,0,0,1,.342-1.623,3.957,3.957,0,0,1,.971-1.322,4.564,4.564,0,0,1,1.508-.888,5.669,5.669,0,0,1,1.953-.321,5.613,5.613,0,0,1,1.932.3,5.075,5.075,0,0,1,1.384.765,3.8,3.8,0,0,1,.566.61,1.327,1.327,0,0,1-2.056,1.678,3.24,3.24,0,0,0-.286-.294,2.15,2.15,0,0,0-1.5-.5,2.552,2.552,0,0,0-1.508.423,1.3,1.3,0,0,0-.6,1.105,1.4,1.4,0,0,0,.578,1.127,6.305,6.305,0,0,0,1.839.9l.929.31a10.687,10.687,0,0,1,1.622.713,5.113,5.113,0,0,1,1.261.961,3.913,3.913,0,0,1,.806,1.271,4.5,4.5,0,0,1,.279,1.642,4.048,4.048,0,0,1-.465,1.994,4.268,4.268,0,0,1-1.188,1.374,5.148,5.148,0,0,1-1.632.806A6.265,6.265,0,0,1,402.643,155.37Zm0,0" transform="translate(-302.325 -106.396)" fill="#f78b4c"/><path d="M84.656,178.352H46.3A4.357,4.357,0,0,1,41.941,174V128.36A4.357,4.357,0,0,1,46.3,124H84.656a4.356,4.356,0,0,1,4.357,4.356V174A4.356,4.356,0,0,1,84.656,178.352Zm0,0" transform="translate(-31.894 -94.297)" fill="#edd4c2"/></svg>