<svg xmlns="http://www.w3.org/2000/svg" xmlns:xlink="http://www.w3.org/1999/xlink" width="816" height="852.704" viewBox="0 0 816 852.704"><defs><linearGradient id="a" x1="0.087" y1="-0.051" x2="1.055" y2="1.618" gradientUnits="objectBoundingBox"><stop offset="0" stop-color="#ffebc4"/><stop offset="1" stop-color="#ffebc4"/></linearGradient><linearGradient id="b" x1="-108.12" y1="-0.051" x2="-107.152" y2="1.618" gradientUnits="objectBoundingBox"><stop offset="0" stop-color="#e2f3f8"/><stop offset="1" stop-color="#ffebc4"/></linearGradient><linearGradient id="c" x1="-162.627" y1="1" x2="-162.627" gradientUnits="objectBoundingBox"><stop offset="0" stop-color="#fff"/><stop offset="0.365" stop-color="#fff"/><stop offset="0.542" stop-color="#fff"/><stop offset="1" stop-color="#fff"/></linearGradient><clipPath id="e"><rect width="816" height="852.704"/></clipPath></defs><g id="d" clip-path="url(#e)"><rect width="816" height="852.704" fill="#fff"/><g transform="translate(-584)"><g transform="translate(-58 -68)"><g transform="translate(117.856 68.438)"><g transform="translate(24.863 -38.532)"><path d="M1086.449,902.621c-.431-13.164-1.234-64.184-1.076-117.562.052-17.576-.589-35.776,0-52.667,1.653-47.432,0-151.69,0-151.69l-.454-95.494V380.3s2.815-255.359-.417-258c-2.633-2.155-4.985-1.12-7.484-1.4-3.771-.437-8.518-.55-22.06,0-22.625.919-69.454-2.038-162.926.953-15.468.495-79.636-.737-152.333-.542-113.73.306-247.562.409-247.562.409H339.2s-6.723.448-21.783-1.418c-6.24-.773,7.631.379,0,0-6.38-.317,10.576-.1,0,1.418-3.4.487-40.982-1.272-41.849,0-13.225,19.412-1.994,92.173,0,108.619,9.3,76.717-18.622,221.058,53.893,266.047,56.5,35.055,167.231-61.467,239.362-20.943,29.376,16.5,34.488,53.4,18.333,121.49-56.782,63.766-54.044,169.139-30.465,189.538,7.28,6.3-8.059-65.942,0,0,4.682,38.289,260.175-11.7,242.947,21.193-28.641,54.689,37.749,135.978,59.8,147.744,42.786,22.829,163,22.6,225.73,2.4-.7-6.639.069-11.869,0-16.738-.285-19.99-1.154-21.368,0-25.138C1085.758,914.052,1085.333,912.691,1086.449,902.621Z" transform="translate(230.036 -83.817)" fill="#fdefda" opacity="0.996"/></g><g transform="translate(779.029 415.916)"><path d="M420.383,235.825a.6.6,0,0,1-.6-.6,1.621,1.621,0,1,0-3.242,0,.6.6,0,0,1-1.2,0,2.816,2.816,0,1,1,5.632,0A.6.6,0,0,1,420.383,235.825Z" transform="translate(-415.349 -232.409)" fill="#fff"/><g transform="translate(8.773)"><path d="M423.609,235.825a.6.6,0,0,1-.6-.6,1.621,1.621,0,1,0-3.242,0,.6.6,0,1,1-1.194,0,2.816,2.816,0,1,1,5.632,0A.6.6,0,0,1,423.609,235.825Z" transform="translate(-418.575 -232.409)" fill="#fff"/></g></g><path d="M424.034,244.74a9.479,9.479,0,0,0,9.477-9.48H414.554A9.481,9.481,0,0,0,424.034,244.74Z" transform="translate(362.313 188.41)" fill="#fff"/><g transform="translate(543.323 185.045)"><rect width="71.874" height="12.103" transform="translate(8.229)" fill="#ffdea9"/><rect width="4.217" height="105.538" fill="#e2ebf4"/><rect width="82.282" height="12.103" transform="translate(8.229 17.429)" fill="#ffdea9"/><rect width="54.204" height="12.103" transform="translate(8.229 34.857)" fill="#ffdea9"/><rect width="10.33" height="12.103" transform="translate(8.229 69.714)" fill="#ffdea9"/><rect width="24.737" height="12.103" transform="translate(25.002 69.714)" fill="#ffdea9"/></g><g transform="translate(1168.835 764.584) rotate(180)"><rect width="71.874" height="12.103" transform="translate(8.229)" fill="#ffdea9"/><rect width="4.217" height="105.538" fill="#e2ebf4"/><rect width="82.282" height="12.103" transform="translate(8.229 17.429)" fill="#ffdea9"/><rect width="54.204" height="12.103" transform="translate(8.229 34.857)" fill="#ffdea9"/><rect width="10.33" height="12.103" transform="translate(8.229 69.714)" fill="#ffdea9"/><rect width="24.737" height="12.103" transform="translate(25.002 69.714)" fill="#ffdea9"/></g></g></g><g transform="translate(139.501 10.542)"><g transform="translate(0.856 144.923)"><g transform="translate(0 0)"><g transform="translate(772.844)"><path d="M657.019,187.527v-19.97H645.444a40.275,40.275,0,0,0-4.435-10.706l8.184-8.184-14.121-14.121-8.182,8.184a40.184,40.184,0,0,0-10.708-4.433V126.721h-19.97V138.3a40.2,40.2,0,0,0-10.706,4.433l-8.184-8.184L563.2,148.666l8.184,8.184a40.266,40.266,0,0,0-4.435,10.706H555.375v19.97H566.95a40.211,40.211,0,0,0,4.435,10.706l-8.184,8.184,14.119,14.121,8.184-8.184a40.2,40.2,0,0,0,10.706,4.433v11.575h19.97V216.788a40.184,40.184,0,0,0,10.708-4.433l8.182,8.184,14.121-14.121-8.184-8.184a40.219,40.219,0,0,0,4.435-10.706Zm-70.984-10.6a20.182,20.182,0,1,1,20.78,20.777A21.4,21.4,0,0,1,586.035,176.925Z" transform="translate(-256.938 -126.721)" fill="#ffdea9"/><g transform="translate(0 6.779)"><path d="M0,0H364.349V242.9a10.006,10.006,0,0,1-10.006,10.006H0Z" transform="translate(0 33.984)" fill="#ffdea9" opacity="0.67"/><rect width="170.937" height="2.889" transform="translate(175.135 246.79)" fill="#fffaff"/><rect width="170.937" height="2.889" transform="translate(175.135 257.343)" fill="#fffaff"/><rect width="170.937" height="2.889" transform="translate(175.135 267.895)" fill="#fffaff"/><path d="M4.493,0h228.83a4.493,4.493,0,0,1,4.493,4.493V132.27a4.493,4.493,0,0,1-4.493,4.493H4.493A4.493,4.493,0,0,1,0,132.27V4.493A4.493,4.493,0,0,1,4.493,0Z" transform="translate(106.543 102.29)" fill="#fff"/><path d="M0,0H364.349V28.539H0Z" transform="translate(0 33.984)" fill="#f7882d"/><g transform="translate(6.045 42.292)"><path d="M447.879,160.827a5.96,5.96,0,1,1-5.96-5.962A5.959,5.959,0,0,1,447.879,160.827Z" transform="translate(-435.96 -154.865)" fill="#ffca1c"/><path d="M444.75,159.664a3.994,3.994,0,1,1-3.994-4A3.994,3.994,0,0,1,444.75,159.664Z" transform="translate(-434.797 -153.702)" fill="#ffc550"/></g><g transform="translate(22.837 42.292)"><path d="M454.74,160.827a5.961,5.961,0,1,1-5.962-5.962A5.961,5.961,0,0,1,454.74,160.827Z" transform="translate(-442.818 -154.865)" fill="#ffca1c"/><circle cx="3.994" cy="3.994" r="3.994" transform="translate(1.966 1.967)" fill="#ffc550"/></g><g transform="translate(39.629 42.292)"><path d="M461.6,160.827a5.961,5.961,0,1,1-5.962-5.962A5.961,5.961,0,0,1,461.6,160.827Z" transform="translate(-449.676 -154.865)" fill="#ffca1c"/><path d="M458.469,159.664a3.995,3.995,0,1,1-4-4A4,4,0,0,1,458.469,159.664Z" transform="translate(-448.513 -153.702)" fill="#ffc550"/></g><path d="M0,0H25.564a2.9,2.9,0,0,1,2.9,2.9V13.515a0,0,0,0,1,0,0H0a0,0,0,0,1,0,0V0A0,0,0,0,1,0,0Z" transform="translate(146.675 20.469)" fill="#fff"/><path d="M513.9,153.526H499.561l-.678-3.472Z" transform="translate(-338.768 -119.542)" fill="#d6f0ff"/><path d="M0,0H50.825a6.1,6.1,0,0,1,6.1,6.1v17.92a0,0,0,0,1,0,0H0a0,0,0,0,1,0,0V0A0,0,0,0,1,0,0Z" transform="translate(104.717 9.969)" fill="#f25f46"/><path d="M513.53,154.328,489.822,149.5l2.908,4.829Z" transform="translate(-351.893 -120.345)" fill="#cb4c37"/><path d="M0,0H132.083a8.753,8.753,0,0,1,8.753,8.753V33.984H0Z" fill="#ffc550"/><path d="M574.328,158.3l-140.836-11.55V158.3Z" transform="translate(-433.491 -124.321)" fill="#deab44"/><path d="M0,0H166.993V5.158H0Z" transform="translate(106.543 84.278)"/><rect width="66.631" height="5.158" transform="translate(106.543 70.245)"/><rect width="54.81" height="4.495" transform="translate(277.292 214.375)"/><path d="M0,0H54.81V4.5H0Z" transform="translate(277.292 224.081)"/></g></g></g></g><g transform="translate(529.38 109.54)"><g transform="translate(0 48.564)"><rect width="43.093" height="52.896" transform="translate(55.731 12.055)" fill="#131637"/><circle cx="15.712" cy="15.712" r="15.712" transform="translate(43.666 43.438)" fill="#131637"/><path d="M418.18,167.04a15.712,15.712,0,1,1-15.712-15.712A15.712,15.712,0,0,1,418.18,167.04Z" transform="translate(-307.29 -107.891)" fill="#131637"/><path d="M422.048,172.467a17.207,17.207,0,1,1-17.206-17.208A17.208,17.208,0,0,1,422.048,172.467Z" transform="translate(-306.017 -102.197)" fill="#131637"/><path d="M403.5,172.467a17.208,17.208,0,1,1-17.208-17.208A17.21,17.21,0,0,1,403.5,172.467Z" transform="translate(-332.884 -102.197)" fill="#131637"/><circle cx="3.902" cy="3.902" r="3.902" transform="translate(94.294 38.503)" fill="#131637"/><path d="M383.242,153.216a3.9,3.9,0,1,1-3.9-3.9A3.9,3.9,0,0,1,383.242,153.216Z" transform="translate(-323.682 -110.81)" fill="#131637"/><g transform="translate(32.876)"><path d="M396.8,155.544s-23.856,18.91-28.173,43c-5.379,30.022,15.2,43,15.2,43l2.52-15.132s-6.925-9.652-5.764-17.865c1.494-10.563,9.589-18.256,9.589-18.256S400.764,174.136,396.8,155.544Z" transform="translate(-367.728 -101.784)" fill="#f25f46"/><path d="M383.42,176.288l4.819-20.4s-19.013,15.886-14.561,48.733l.015-.017a36.568,36.568,0,0,1,8.839-14.8s.1-.242.274-.7Z" transform="translate(-360.087 -101.291)" fill="#f25f46"/><g transform="translate(50.082 0.001)"><path d="M393.05,171.722s-6.112,9.508-4.64,25.511c0,0,45.883-1.77,74.308-47.773l-7.2-6.648S421.559,176.372,393.05,171.722Z" transform="translate(-388.182 -120.228)" fill="#f25f46"/><path d="M417.168,154.035s.282-4.917.994-6.491c0,0,2.39-8.516,2.85-9.806,0,0,2.069-.316,2.091,2.248a27.143,27.143,0,0,1-.762,5.693,20.94,20.94,0,0,0,3.822-4.87c1.041-2.231,3.22-6.579,4.659-7.111s1.489,1.065,1.489,1.065-3.352,6.672-4.057,8.11c-.622,1.261.076,1.195.076,1.195s5.544-6.707,6.54-7.9,2.035-1.1,2.764.115c0,0-2.936,3.6-4.545,5.965-.561.825-2.97,3.276-2,3.856,0,0,5.35-5.255,6.146-6.249a1.236,1.236,0,0,1,2.309.541l-6.707,7.683s-.367.624.123.725c.438.091,4.554-2.311,4.926-2.684s1.636-1.435,2.351-.286c0,0,.191.424-.979,1.44s-6.552,6.009-6.552,6.009a22.543,22.543,0,0,1-8.31,5.536c-5.144,1.9-6.743.4-3.8,1.459l-1.391-2.64Z" transform="translate(-346.194 -133.588)" fill="#ffcda9"/><path d="M426.568,147.768l-7.312-6.452-3.574,3.664,7.2,6.649Z" transform="translate(-348.345 -122.396)" fill="#fff"/><path d="M390.807,154.752s10.35,5.771,16.917,19.87a59.236,59.236,0,0,0-7.226,2.821l-6.143-7.069" transform="translate(-384.379 -102.932)" fill="#f25f46"/></g><path d="M428.89,185.392c0-11.082-9.554-31.065-18.354-31.065h-16.18c-13.173,0-19.875,26.312-19.855,30.712.012,3.575,5,6.868,5.213,10.982.583,11.065-.357,24.625.984,39.5,0,0,4.537,9.2,21.748,7.26,17.211,1.937,18.785-6.445,18.785-6.445,1.352-14.995,1.917-29.556,2.493-40.678C424.336,191.356,428.89,190.032,428.89,185.392Z" transform="translate(-357.917 -103.547)" fill="#f25f46"/><rect width="12.229" height="3.598" transform="translate(66.218 77.773) rotate(180)" fill="#fff"/><path d="M392.221,157.293h-2.146l.008.658-.9-.658-6.569,52.251,8.09,1.909,8.09-1.909Z" transform="translate(-346.171 -99.25)" fill="#457bf4"/><path d="M376.715,174.287c.392,6.344.916,13.222,1.525,20.675l12.776,1.736,30.384-3.154a37.652,37.652,0,0,0,3.957-4.253c.426-5.394.789-10.445,1.082-15.21C402.246,182.012,382.545,176.373,376.715,174.287Z" transform="translate(-354.71 -74.932)" fill="#3bd2ff" opacity="0.51"/><path d="M0,0H5.917V5.917h-5A.918.918,0,0,1,0,5Z" transform="matrix(0.707, -0.707, 0.707, 0.707, 40.345, 57.08)" fill="#457bf4"/><g transform="translate(24.393)"><g transform="translate(28.325 18.658)"><path d="M389.258,146.979a5.771,5.771,0,1,0,5.771-5.771A5.77,5.77,0,0,0,389.258,146.979Z" transform="translate(-389.258 -141.208)" fill="#ffb59c"/><path d="M390.036,145.852a3.866,3.866,0,1,0,3.866-3.866A3.866,3.866,0,0,0,390.036,145.852Z" transform="translate(-388.131 -140.081)" fill="#ff9f7c"/></g><g transform="translate(0 18.658)"><path d="M377.69,146.979a5.771,5.771,0,1,0,5.771-5.771A5.77,5.77,0,0,0,377.69,146.979Z" transform="translate(-377.69 -141.208)" fill="#ffb59c"/><path d="M378.467,145.852a3.867,3.867,0,1,0,3.869-3.866A3.869,3.869,0,0,0,378.467,145.852Z" transform="translate(-376.564 -140.081)" fill="#ff9f7c"/></g><rect width="18.622" height="18.621" transform="translate(10.815 34.441)" fill="#ffb899"/><path d="M396.7,133.588l-2.5,1.09-.678-1.09-13.964,10.536v19.152c2.855,12.233,15.551,17.279,15.551,17.279s12.693-5.046,15.548-17.279V144.124Z" transform="translate(-374.983 -133.588)" fill="#ffcda9"/><path d="M389.281,151.344l-2.119-8.835-2.119,8.835Z" transform="translate(-367.037 -120.665)" fill="#ff907d"/><path d="M389.734,153.84a6.463,6.463,0,0,0,6.462-6.467H383.27A6.463,6.463,0,0,0,389.734,153.84Z" transform="translate(-369.607 -113.62)" fill="#fff"/></g><g transform="translate(32.986 46.642)"><path d="M392.743,159.057l-6.087,6.087s-9.187-3.8-3.719-12.507A19.014,19.014,0,0,0,392.743,159.057Z" transform="translate(-381.2 -152.637)" fill="#f25f46"/><path d="M385.914,159.057,392,165.144s9.187-3.8,3.717-12.507A19,19,0,0,1,385.914,159.057Z" transform="translate(-374.371 -152.637)" fill="#f25f46"/></g><path d="M2.078,0H66.44a2.078,2.078,0,0,1,2.078,2.078V46.151a0,0,0,0,1,0,0H0a0,0,0,0,1,0,0V2.078A2.078,2.078,0,0,1,2.078,0Z" transform="translate(10.27 91.088)" fill="#fff"/><path d="M406.055,200.009a85.821,85.821,0,0,0-34.133-19.8v6.381Z" transform="translate(-361.652 -66.05)" fill="url(#a)"/><path d="M385.966,200.009a85.824,85.824,0,0,1,34.13-19.8v6.381Z" transform="translate(-341.309 -66.05)" fill="url(#b)"/></g><g transform="translate(0 114.163)"><g transform="translate(30.145)"><path d="M366.613,217.117v8.891s48.873-5.267,84.2-13.171a209.788,209.788,0,0,0,36.167-16.155s-2.3-16.792-22.061-16.464-50.234,19.449-50.234,19.449Z" transform="translate(-366.612 -180.213)" fill="#ffc550"/><path d="M414,200.352l-1.252-.229-36.071-6.586-10.064,4.281v8.891" transform="translate(-366.613 -160.913)" fill="#ffc550"/><path d="M401,203.094l10.749-9.549,25.418-6.606S424.122,198.55,401,203.094Z" transform="translate(-316.8 -170.47)" fill="#d6a542"/></g><path d="M478.711,217.117v8.891s-48.875-5.267-84.2-13.171a182.969,182.969,0,0,1-40.21-16.155s2.3-16.792,22.061-16.464,54.274,19.449,54.274,19.449Z" transform="translate(-354.301 -180.213)" fill="#ffc550"/><path d="M394.511,203.094l-10.752-9.549L354.3,186.939A120.45,120.45,0,0,0,394.511,203.094Z" transform="translate(-354.301 -170.47)" fill="#d6a542"/></g><path d="M384.447,205.918s-8.783,1.57-30.146,2.757v-7.319l23.009-7.275,7.138,2.946Z" transform="translate(-354.301 -45.96)" fill="#000f1f"/><path d="M405.111,205.918s8.783,1.57,30.146,2.757v-7.319l-23.011-7.275-7.135,2.946Z" transform="translate(-280.701 -45.96)" fill="#000f1f"/></g><path d="M406.6,139.31s-4.447,12.059-19.427,9.4c0,0,.46,3.577-4.782,5.059v-3.188l-4.77-3.3-.473-1.555,3.161-10.1,10.279-2.045,8.132,1.43h13.124l5.338,4.7L414.8,150.708v3.063s-3.976-1.175-3.568-6.08C411.23,147.692,406.465,143.6,406.6,139.31Z" transform="translate(-321.205 -85.024)" fill="#131637"/><path d="M377.062,150.187s-.073-28.866,29.725-16.383c0,0,13.369-2.87,13.369,14.341v2.042l-.629,2.49-9.248-5.857-6.834-4.941-6.942.732Z" transform="translate(-321.331 -89.248)" fill="#131637"/><path d="M410.364,113.754h75.109a21.307,21.307,0,0,1,21.307,21.307h0a21.307,21.307,0,0,1-21.307,21.307H422.109l-14.351,12.585V156.109a13.257,13.257,0,0,1-10.654-13v-16.1A13.259,13.259,0,0,1,410.364,113.754Z" transform="translate(-292.298 -113.754)" fill="#ffc550"/><path d="M415.662,126.543a6.621,6.621,0,1,1-6.621-6.621A6.619,6.619,0,0,1,415.662,126.543Z" transform="translate(-284.599 -104.819)" fill="#f7882d"/><path d="M425,126.543a6.622,6.622,0,1,1-6.623-6.621A6.621,6.621,0,0,1,425,126.543Z" transform="translate(-271.071 -104.819)" fill="#f7882d"/><path d="M434.341,126.543a6.621,6.621,0,1,1-6.621-6.621A6.62,6.62,0,0,1,434.341,126.543Z" transform="translate(-257.542 -104.819)" fill="#f7882d"/></g><g transform="translate(887.939 228.157)"><circle cx="42.99" cy="42.99" r="42.99" transform="translate(43.349 76.251) rotate(-22.5)" fill="#ffc550"/><path d="M526.069,245.654l22.637-16.386a7.211,7.211,0,0,0,0-11.682L526.069,201.2a7.21,7.21,0,0,0-11.437,5.84v32.774A7.21,7.21,0,0,0,526.069,245.654Z" transform="translate(-430.194 -123.91)" fill="#f25f46"/><ellipse cx="55.367" cy="20.609" rx="55.367" ry="20.609" transform="translate(205.548 410.755)" fill="#f8a966" opacity="0.6"/><g transform="translate(148.283 146.374)"><path d="M625.335,293.631l-62.354-62.357a48.274,48.274,0,0,1-18.721,23.05l60.192,60.192a14.812,14.812,0,0,0,20.884,0h0A14.811,14.811,0,0,0,625.335,293.631Z" transform="translate(-535.562 -224.72)" fill="#efa46c"/><path d="M580.6,231.212a9.052,9.052,0,0,0-10.859-1.425c-3.029,13.019-12.275,24.412-24.109,30.67a35.5,35.5,0,0,1-4.922,2.118,8.967,8.967,0,0,0,2.593,5.933,9.069,9.069,0,0,0,12.791,0L580.6,244A9.074,9.074,0,0,0,580.6,231.212Z" transform="translate(-540.707 -228.597)" fill="#ffc550"/></g><path d="M579.665,168.817a99.517,99.517,0,1,0,99.516,99.516A99.518,99.518,0,0,0,579.665,168.817Zm0,183.679a84.162,84.162,0,1,1,84.161-84.164A84.16,84.16,0,0,1,579.665,352.5Z" transform="translate(-480.147 -168.817)" fill="#fcd592"/><path d="M572.6,173.7a87.573,87.573,0,1,0,87.572,87.572A87.574,87.574,0,0,0,572.6,173.7Zm0,171.735a84.162,84.162,0,1,1,84.161-84.164A84.16,84.16,0,0,1,572.6,345.43Z" transform="translate(-473.081 -161.751)" fill="#f7dfb6"/><circle cx="84.161" cy="84.161" r="84.161" transform="translate(0.959 166.245) rotate(-79.099)" fill="#e5f3f9" opacity="0.35"/><g transform="translate(165.538 83.054)"><path d="M578.964,220.567,578.292,225l4.148.451,1.595-3.029Z" transform="translate(-503.519 -176.91)" fill="#fff"/><path d="M590.17,251.268v-6.648s-4.018.737-10.3-1.846v-6.08a8.1,8.1,0,0,0,4.3-2.39l-4.3-1.592.8-3.186-3.472-2,5.541-9.461.477-5.573,3.5,2.39,1.592,10.188,1.856-3.979s3.3-1.8,4.513,1.432a4.33,4.33,0,0,1-4.513,5.891l1.966,11.623h15.6v11.231Z" transform="translate(-505.1 -188.608)" fill="#ffcda9"/><path d="M590.943,235.219l-1.849,5.061-1.6-11.271s-10.83-.8-10.83-9.552l3.746.193s-3.4-7.475,2.61-12.681l3.658,3.874s0-7.392,8.3-8.107l1.658,5.335s13.986-.367,20.061,11.413l1.655-1.841-.735,2.946,2.943.921-3.127,1.288s7.181,18.935-8.925,31.368v2.5l-3.408-2.5h-12.2l-1.966-11.623s4.118-.02,4.691-4.03C596.151,234.891,592.533,234.335,590.943,235.219Z" transform="translate(-505.874 -202.737)" fill="#131637"/><path d="M607.117,229.732s-9.018-5.34-23.8,0l-3.445,6.579,28.281-1.467Z" transform="translate(-501.237 -167.072)" fill="#fff"/><path d="M580.182,232.917a37.6,37.6,0,0,1,26.9-3l.607,3.009-17.833.926-9.677-.933Z" transform="translate(-500.781 -165.151)" opacity="0.4" fill="url(#c)"/><path d="M582.742,214.767l-2.07,11.464-3.472-2Z" transform="translate(-505.101 -185.311)" fill="#ffcda9"/><path d="M600.917,232.864s14.033,28.3,20.516,61.336c0,0-4.978,23.79-13.3,34.586-9.243-30.264-15.416-62.063-15.416-62.063Z" transform="translate(-482.616 -159.097)" fill="#457bf4"/><path d="M627.692,237.778s-15.661-16.346-48.084-3.176l-5.37,100.877h60.731S637.888,277.75,627.692,237.778Z" transform="translate(-509.391 -164.011)" fill="#457bf4"/><path d="M567.7,257.388l-9.574-9.145-.191,4.669-10.183-8.707a22.88,22.88,0,0,0,14.422,19.387Z" transform="translate(-547.754 -142.669)" fill="#ffcda9"/><path d="M561.607,255.645l-5.176-5.908-5.181-5.9a2.882,2.882,0,0,0-.5,3.724l3.479,5.894" transform="translate(-544.048 -143.208)" fill="#ffcda9"/><path d="M607.641,231.567s-8.053,41.339-25.017,46.821c-12.786,4.136-19.875-.715-19.875-.715l-7.865,9a38.358,38.358,0,0,0,32.4,7.654c25.012-5.367,32.881-31.814,32.881-31.814S623.958,235.619,607.641,231.567Z" transform="translate(-537.425 -160.976)" fill="#457bf4"/><rect width="6.705" height="11.95" transform="matrix(0.753, 0.658, -0.658, 0.753, 20.275, 112.286)" fill="#fff"/><path d="M604.306,349.144v2.427a1.8,1.8,0,0,1-1.8,1.8H566.175s5.059-9.331,22.656-9.926A49,49,0,0,1,604.306,349.144Z" transform="translate(-521.071 1.085)" fill="#000f1f"/><path d="M621.393,347.726v3.607a2.2,2.2,0,0,1-2.2,2.2h-4.914a6.493,6.493,0,0,1-2.282-.416l-20.036-7.554s5.367-6.229,17.292-2.265Z" transform="translate(-483.726 -1.036)" fill="#000f1f"/><path d="M634.969,272.766l2.918,96.161a148.382,148.382,0,0,1,4.594,14.816c5.727,21.736,4.807,64.987,4.807,64.987s-5.4,5.068-12.375-.693l-18.611-83.8-11.726-56.441-7.747,54.482s4.777,12.573,2.666,34.2c-1.315,13.489-6.868,55.05-6.868,55.05s-10.242-.735-14.576-5.517l-3.812-99.966V272.766Z" transform="translate(-509.391 -101.297)"/><path d="M586.628,298.249l4.776-8.694,18.492-10.2L598.787,290.9l2.362,76.372Z" transform="translate(-491.444 -91.751)"/><path d="M574.238,272.766l60.941,6.932-.211-6.932Z" transform="translate(-509.391 -101.298)" fill="#001f5f"/></g></g><g transform="translate(622.517 453.371)"><g transform="translate(90.356 30.481)"><g transform="translate(2.7 25.207)"><g transform="translate(17.366)"><path d="M363.241,279.77a10.4,10.4,0,1,0,11.072-9.684A10.4,10.4,0,0,0,363.241,279.77Z" transform="translate(-323.455 -258.043)" fill="#131637"/><path d="M364.826,274.428a7.095,7.095,0,1,0,7.551-6.606A7.093,7.093,0,0,0,364.826,274.428Z" transform="translate(-321.149 -261.31)" fill="#131637"/><path d="M372.615,271.123A2.582,2.582,0,1,1,369.8,268.8,2.583,2.583,0,0,1,372.615,271.123Z" transform="translate(-317.305 -259.886)" fill="#131637"/><path d="M372.741,272.428a2.582,2.582,0,1,1-2.818-2.321A2.58,2.58,0,0,1,372.741,272.428Z" transform="translate(-317.122 -257.995)" fill="#131637"/><path d="M399.47,274.07s-2.333-11.148-17.35-8.514c0,0-12.627-1.293-18.42,12.37a27.948,27.948,0,0,1,3.08,13.584c-.884,21.163-4.03,43.939-15.955,62-.2.3-.414.563-.615.852-1,2.762-2.079,5.5-3.232,8.178,3.533,3.11,9.109,5.431,17.987,4.429,9.608-21.706,14.3-45.134,14.3-45.134l8.922-16.011,10.088-8.991S407.317,275.691,399.47,274.07Z" transform="translate(-346.978 -265.153)" fill="#131637"/><path d="M371.561,271.825c.015.211,4.434,10.45,4.478,18.357l-7.4-.306Z" transform="translate(-315.607 -255.489)" fill="#ff907d"/><path d="M382.35,269.585s14.3,11.454,1.734,38.981l-10.842-2.142-.864,12.928-14.13-.945,1.006-15.032a15.534,15.534,0,0,0,6.817-11.623s-7.24-.93-6.161-7.478c.688-4.175,6.665-4.569,8.186-.24l-.282,4.243s3.2-1.327,3.91-7.162c0,0,7.62-4.18,4.564-11.934Z" transform="translate(-330.654 -259.319)" fill="#ffcda9"/><path d="M367.789,279.726l6.8,1.386a53.743,53.743,0,0,1-1.829,6.432C366.347,285.894,367.789,279.726,367.789,279.726Z" transform="translate(-317.033 -244.045)" fill="#fff"/><path d="M373.764,271.614a4.127,4.127,0,1,1-4.505-3.712A4.13,4.13,0,0,1,373.764,271.614Z" transform="translate(-320.105 -261.199)" fill="#131637"/><path d="M374.441,275.095a6.342,6.342,0,1,1-6.922-5.7A6.341,6.341,0,0,1,374.441,275.095Z" transform="translate(-325.527 -259.053)" fill="#131637"/><path d="M375.348,287.082h0c-7.272-.487-14.309,5.1-13.8,12.368,3.11,44.363-12.634,82.557-12.634,82.557h49.208s-4.287-39.657-3.193-42.58,12.36-6.981,12.36-18.219l-19.343-26.643A16.2,16.2,0,0,0,375.348,287.082Z" transform="translate(-344.174 -233.431)" fill="#f25f46"/><path d="M384.965,330.4c.321-.859,1.53-1.824,3.066-3.031a98.471,98.471,0,0,1-4.048-16.545c-3.35-20.372-16.976-19.094-21.846-15.264-8.043,6.32-8.509,17.865-1,33.136,7.794,15.852,16.963,26.642,25.962,34.013C385.908,350.741,384.233,332.355,384.965,330.4Z" transform="translate(-334.21 -224.402)" fill="#f25f46"/><path d="M365.172,290.62l.448.289,3.67,1.072a3.4,3.4,0,0,1,2.424,3.653l-.38,3.32a17.323,17.323,0,0,1,10.943,15.073" transform="translate(-320.623 -228.264)" fill="#fff"/><path d="M357.719,288.55l.277-1.481c-1.751.779,9.241-3.416,17.235,4.119l.737,5.264A39.99,39.99,0,0,0,357.719,288.55Z" transform="translate(-331.419 -234.096)" fill="#fff"/><path d="M355.487,288.791a7.183,7.183,0,1,0,6.459-7.84A7.183,7.183,0,0,0,355.487,288.791Z" transform="translate(-334.701 -242.319)" fill="#131637"/><path d="M353.9,290.193a5.289,5.289,0,1,0,4.755-5.774A5.289,5.289,0,0,0,353.9,290.193Z" transform="translate(-336.983 -237.282)" fill="#131637"/></g><path d="M358.415,298.975c1.352-6.043,11.1-15.651,26.576-1.993,18.526,16.346,37.044,24.711,70.834,14.5l5.69,10.3s-29.9,27.754-82.917,3.5C363.123,318.194,356.182,308.961,358.415,298.975Z" transform="translate(-313.638 -224.635)" fill="#f25f46"/><path d="M392.393,265.37s-15.742-2.586-22.007,20.284c0,0-2.218,39.466-20.933,56.456s-9.05,41.985,20.933,44.3a39.253,39.253,0,0,0,3.345-25.555s8.523-18.5,4.481-30.739c0,0,14.194-3.4,7.639-21.1-7.062-13.144,3.053-29.373,3.053-29.373l10.95-7.321Z" transform="translate(-339.886 -264.967)" fill="#131637"/></g><g transform="translate(101.807)"><path d="M228.152,339.256a77.08,77.08,0,0,1,55.184-103.882l8.212,37.5A38.73,38.73,0,0,0,261.105,310.7a38.307,38.307,0,0,0,2.746,14.332Z" transform="translate(-222.676 -235.374)" fill="#ffc550"/><path d="M340.1,363.392a76.987,76.987,0,0,1-54.533,22.6,77.848,77.848,0,0,1-10.461-.706,76.872,76.872,0,0,1-44.092-21.89c-.6-.6-1.18-1.229-1.755-1.857L257.3,335.3a38.7,38.7,0,1,0,45.376-61.147l17-34.444A77.075,77.075,0,0,1,340.1,363.392Z" transform="translate(-212.037 -228.367)" fill="#f25f46"/><path d="M295.074,244.639l-17,34.444a38.279,38.279,0,0,0-17.1-4,38.884,38.884,0,0,0-8.264.889l-8.212-37.5c1.988-.445,4-.811,6.015-1.072a74.806,74.806,0,0,1,10.514-.732,76.727,76.727,0,0,1,21.707,3.138A74.85,74.85,0,0,1,295.074,244.639Z" transform="translate(-187.435 -233.293)" fill="#f7882d"/><path d="M238.747,312.714A75.969,75.969,0,0,1,223.4,288.6l35.7-14.23a38.328,38.328,0,0,0,7.689,12.109Z" transform="translate(-221.516 -172.377)" fill="#d1d9fe"/></g><path d="M427.355,402.282c0,9.344-19.4,16.919-43.332,16.919s-43.334-7.576-43.334-16.919,19.4-16.917,43.334-16.917S427.355,392.938,427.355,402.282Z" transform="translate(-336.022 -65.816)" fill="#f8a966" opacity="0.6"/><g transform="translate(0 173.783)"><path d="M374.3,325.833h9.329l-5.245,161.86h-6.966s-12.559-50.428-9.2-83.691c2.884-38.3-3.3-54.9-3.3-54.9" transform="translate(-309.61 -325.833)" fill="#00216c"/><path d="M406.958,325.833,393.508,402l-46.992,72.178-7.2-3s17.409-51.855,35.954-76.722l-9.39-37.668a79.477,79.477,0,0,1-3.053-30.947Z" transform="translate(-338.016 -325.833)" fill="#002a88"/><path d="M340.079,385.19l-1.041,1.469a1.407,1.407,0,0,0,.267,1.9l20.984,16.344s1.08-7.928-8.829-16.207A33.925,33.925,0,0,0,340.079,385.19Z" transform="translate(-338.783 -239.852)" fill="#000f1f"/></g><path d="M363.585,393.513v1.834a1.327,1.327,0,0,0,1.3,1.356h26.138s-3.639-7.039-16.3-7.488A34.291,34.291,0,0,0,363.585,393.513Z" transform="translate(-302.856 -60.238)" fill="#000f1f"/><g transform="translate(31.825 108.364) rotate(-21)"><path d="M4.13,3.68c4.116-4.628,17.3-8.293,24.2,11.165,8.254,23.286,20.379,39.59,54.877,47.078l-.027,11.763S43.556,83.424,9,36.471C-1.088,22.764-2.672,11.322,4.13,3.68Z" transform="translate(0 0)" fill="#f25f46"/><path d="M3.387,9.63s4.4-3.648,6.3-4.29c0,0,9.118-4.709,10.58-5.34,0,0,1.9,1.508-.255,3.555a31.466,31.466,0,0,1-5.436,3.859,24.38,24.38,0,0,0,7.16-.61c2.718-.881,8.132-2.471,9.723-1.67s.274,2.108.274,2.108-8.315,2.434-10.1,2.97c-1.562.47-.955,1.011-.955,1.011s10.081-.6,11.885-.7,2.544.857,2.089,2.439c0,0-5.377.355-8.661.862-1.141.176-5.13.071-4.858,1.349,0,0,8.695.384,10.166.274a1.436,1.436,0,0,1,1.371,2.387l-11.829.387s-.823.181-.522.676c.269.446,5.568,2.04,6.178,2.062s2.512.252,2.1,1.768c0,0-.211.5-2,.306s-10.284-.808-10.284-.808A26.151,26.151,0,0,1,5.045,19.549C-.64,16.687-.633,14.143.8,17.48l1.144-3.269Z" transform="translate(78.452 55.053)" fill="#ffcda9"/><path d="M9.247,15.024l.8-14.052L1.193,0,0,14.108Z" transform="translate(75.537 60.416)" fill="#fff"/></g></g><g transform="translate(0)"><path d="M427.406,241.307H389.085a15.132,15.132,0,0,0-15.132,15.132V294.76a15.109,15.109,0,0,0,11.6,14.676V323.1l13.212-13.21h28.644A15.136,15.136,0,0,0,442.54,294.76V256.439A15.134,15.134,0,0,0,427.406,241.307Z" transform="translate(-373.953 -241.307)" fill="#ffc550"/><path d="M422.132,261.618a11.434,11.434,0,0,0-21.074-6.159,11.437,11.437,0,1,0-15,16.259l15,8.787,15-8.787A11.436,11.436,0,0,0,422.132,261.618Z" transform="translate(-366.766 -230.738)" fill="#f25f46"/></g></g><g transform="translate(679.122 333.316)"><path d="M452.242,222.8H419.018A13.12,13.12,0,0,0,405.9,235.915v33.227a13.1,13.1,0,0,0,10.056,12.723v11.851l11.454-11.454h24.836a13.12,13.12,0,0,0,13.122-13.119V235.915A13.12,13.12,0,0,0,452.242,222.8Z" transform="translate(-405.896 -222.796)" fill="#ffc550"/></g><path d="M411.482,244.248a16.056,16.056,0,1,0,16.058-16.057A16.057,16.057,0,0,0,411.482,244.248Z" transform="translate(281.317 118.334)" fill="#f25f46"/><g transform="translate(702.268 356.853)"><path d="M419.881,235.484a.538.538,0,0,1-.536-.539,1.459,1.459,0,1,0-2.919,0,.539.539,0,0,1-1.077,0,2.535,2.535,0,1,1,5.071,0A.54.54,0,0,1,419.881,235.484Z" transform="translate(-415.349 -232.409)" fill="#fff"/><g transform="translate(7.899)"><path d="M423.107,235.484a.54.54,0,0,1-.539-.539,1.459,1.459,0,1,0-2.919,0,.537.537,0,1,1-1.075,0,2.535,2.535,0,1,1,5.071,0A.54.54,0,0,1,423.107,235.484Z" transform="translate(-418.575 -232.409)" fill="#fff"/></g></g><path d="M423.09,243.8a8.534,8.534,0,0,0,8.533-8.536H414.554A8.536,8.536,0,0,0,423.09,243.8Z" transform="translate(285.767 128.574)" fill="#fff"/><g transform="translate(1001.009 108.328)"><path d="M573.179,165.121l4.3,11.547-11.746-4.6a25.415,25.415,0,1,1,7.441-6.951Z" transform="translate(-527.061 -125.026)" fill="#ffc550"/><g transform="translate(10.875 14.23)"><path d="M543.254,155.5a4.54,4.54,0,0,1-3.217-1.334l-7.2-7.2a4.55,4.55,0,1,1,6.435-6.435l3.984,3.984L555.6,132.171a4.551,4.551,0,0,1,6.437,6.435l-15.56,15.56A4.54,4.54,0,0,1,543.254,155.5Z" transform="translate(-531.502 -130.838)" fill="#f25f46"/></g></g></g></g></g></svg>