<svg xmlns="http://www.w3.org/2000/svg" width="471.759" height="311.501" viewBox="0 0 471.759 311.501"><g transform="translate(-775.573 -2189.554)"><g transform="translate(746.815 2243.958) rotate(-14)"><path d="M16.063,0A16.11,16.11,0,0,0,0,16.063V240.944a16.11,16.11,0,0,0,16.063,16.063H176.695a16.11,16.11,0,0,0,16.063-16.063V64.252L128.505,0Z" transform="translate(32.126 0)" fill="#e2e5e7"/><path d="M16.063,64.252H64.253L0,0V48.189A16.11,16.11,0,0,0,16.063,64.252Z" transform="translate(160.631 0)" fill="#b0b7bd"/><path d="M48.189,48.189,0,0H48.189Z" transform="translate(176.695 64.252)" fill="#cad1d8"/><path d="M152.6,8.031H0v8.031H152.6a8.055,8.055,0,0,0,8.032-8.031V0A8.055,8.055,0,0,1,152.6,8.031Z" transform="translate(32.126 208.818)" fill="#cad1d8"/><path d="M192.758,88.346a8.055,8.055,0,0,1-8.032,8.031H8.032A8.055,8.055,0,0,1,0,88.346V8.031A8.055,8.055,0,0,1,8.032,0H184.726a8.055,8.055,0,0,1,8.032,8.031Z" transform="translate(0 118.872)" fill="#f25f46"/><text transform="translate(31.08 184.138)" fill="#fff" font-size="48" font-family="SegoeUI, Segoe UI"><tspan x="0" y="0">VAST</tspan></text></g><g transform="translate(1029.127 2197.278) rotate(14)"><path d="M16.063,0A16.11,16.11,0,0,0,0,16.063V240.944a16.11,16.11,0,0,0,16.063,16.063H176.695a16.11,16.11,0,0,0,16.063-16.063V64.252L128.505,0Z" transform="translate(32.126 0)" fill="#e2e5e7"/><path d="M16.063,64.252H64.253L0,0V48.189A16.11,16.11,0,0,0,16.063,64.252Z" transform="translate(160.631 0)" fill="#b0b7bd"/><path d="M48.189,48.189,0,0H48.189Z" transform="translate(176.695 64.252)" fill="#cad1d8"/><path d="M152.6,8.031H0v8.031H152.6a8.055,8.055,0,0,0,8.032-8.031V0A8.055,8.055,0,0,1,152.6,8.031Z" transform="translate(32.126 208.818)" fill="#cad1d8"/><path d="M192.758,88.346a8.055,8.055,0,0,1-8.032,8.031H8.032A8.055,8.055,0,0,1,0,88.346V8.031A8.055,8.055,0,0,1,8.032,0H184.726a8.055,8.055,0,0,1,8.032,8.031Z" transform="translate(0 118.871)" fill="#f7882d"/><text transform="translate(31.08 184.138)" fill="#fff" font-size="48" font-family="SegoeUI, Segoe UI"><tspan x="0" y="0">VPAID</tspan></text></g></g></svg>