<svg xmlns="http://www.w3.org/2000/svg" width="127.713" height="117.84" viewBox="0 0 127.713 117.84"><g transform="translate(0 -0.5)"><path d="M179.4,361.715v8.893a8.479,8.479,0,0,1-3.808,7.139l-5.716,4.2h42.966l-5.716-4.2a8.479,8.479,0,0,1-3.808-7.139v-8.893Zm0,0" transform="translate(-127.501 -271.113)" fill="#c7d2e5"/><path d="M188.289,370.605v-8.894H179.4v8.894a8.482,8.482,0,0,1-3.808,7.139l-5.716,4.2h8.89l5.716-4.2A8.482,8.482,0,0,0,188.289,370.605Zm0,0" transform="translate(-127.501 -271.111)" fill="#c7d2e5"/><path d="M197.074,440.781H146.108a2.569,2.569,0,0,0-2.569,2.569v2.877a2.57,2.57,0,0,0,2.569,2.569h50.966a2.57,2.57,0,0,0,2.569-2.569v-2.877A2.569,2.569,0,0,0,197.074,440.781Zm0,0" transform="translate(-107.735 -330.458)" fill="#fdefda"/><path d="M197.074,448.357H146.108a2.569,2.569,0,0,1-2.34-1.513,2.57,2.57,0,0,0-.229,1.057v2.877a2.57,2.57,0,0,0,2.569,2.569h50.966a2.57,2.57,0,0,0,2.569-2.569V447.9a2.57,2.57,0,0,0-.229-1.057A2.569,2.569,0,0,1,197.074,448.357Zm0,0" transform="translate(-107.735 -335.008)" fill="#c7d2e5"/><path d="M120.308.5H7.405A7.413,7.413,0,0,0,0,7.905V84.48a7.413,7.413,0,0,0,7.405,7.405h112.9a7.414,7.414,0,0,0,7.406-7.405V7.905A7.413,7.413,0,0,0,120.308.5Zm0,0" fill="#606060"/><path d="M8.016,84.48V7.905A7.414,7.414,0,0,1,15.421.5H7.405A7.413,7.413,0,0,0,0,7.905V84.48a7.413,7.413,0,0,0,7.405,7.405h8.016A7.414,7.414,0,0,1,8.016,84.48Zm0,0" fill="#3e4b5a"/><path d="M32.137,68.782v65.27a1.066,1.066,0,0,0,1.065,1.066h109.55a1.066,1.066,0,0,0,1.066-1.066V68.781H32.137Zm0,0" transform="translate(-24.121 -51.249)" fill="#fdefda"/><path d="M39.847,134.057V68.785h-7.71v65.271a1.065,1.065,0,0,0,1.065,1.065h7.71A1.065,1.065,0,0,1,39.847,134.057Zm0,0" transform="translate(-24.121 -51.252)" fill="#c7d2e5"/><path d="M142.752,32.637H33.2A1.065,1.065,0,0,0,32.137,33.7v8.465H143.818V33.7A1.065,1.065,0,0,0,142.752,32.637Zm0,0" transform="translate(-24.121 -24.121)" fill="#00a7e1"/><path d="M43.709,32.637H33.2A1.066,1.066,0,0,0,32.137,33.7v8.464H43.709Zm0,0" transform="translate(-24.121 -24.121)" fill="#ff6b6b"/><path d="M40.912,32.637H33.2A1.066,1.066,0,0,0,32.137,33.7v8.464h7.709V33.7A1.066,1.066,0,0,1,40.912,32.637Zm0,0" transform="translate(-24.121 -24.121)" fill="#ce4257"/><g transform="translate(17.323 52.453)"><path d="M84.587,208.777H70.724a1.275,1.275,0,0,0-1.274,1.274v20.727a1.274,1.274,0,0,0,1.274,1.274H84.587a1.275,1.275,0,0,0,1.275-1.274V210.052A1.276,1.276,0,0,0,84.587,208.777Zm0,0" transform="translate(-69.449 -208.777)" fill="#f7882d"/><path d="M187.021,208.777H173.157a1.275,1.275,0,0,0-1.274,1.274v20.727a1.274,1.274,0,0,0,1.274,1.274h13.863a1.274,1.274,0,0,0,1.274-1.274V210.052A1.274,1.274,0,0,0,187.021,208.777Zm0,0" transform="translate(-146.332 -208.777)" fill="#f7882d"/><path d="M289.454,208.777H275.591a1.275,1.275,0,0,0-1.274,1.274v20.727a1.274,1.274,0,0,0,1.274,1.274h13.863a1.275,1.275,0,0,0,1.275-1.274V210.052A1.275,1.275,0,0,0,289.454,208.777Zm0,0" transform="translate(-223.214 -208.777)" fill="#f7882d"/><path d="M391.889,208.777H378.025a1.275,1.275,0,0,0-1.275,1.274v20.727a1.275,1.275,0,0,0,1.275,1.274h13.863a1.274,1.274,0,0,0,1.274-1.274V210.052A1.275,1.275,0,0,0,391.889,208.777Zm0,0" transform="translate(-300.097 -208.777)" fill="#f7882d"/></g><path d="M76.936,230.779V210.053a1.275,1.275,0,0,1,1.274-1.275H70.724a1.275,1.275,0,0,0-1.274,1.275v20.726a1.275,1.275,0,0,0,1.274,1.275h7.487A1.275,1.275,0,0,1,76.936,230.779Zm0,0" transform="translate(-52.126 -156.325)" fill="#f6872c"/><path d="M179.369,230.779V210.053a1.275,1.275,0,0,1,1.275-1.275h-7.487a1.275,1.275,0,0,0-1.274,1.275v20.726a1.275,1.275,0,0,0,1.274,1.275h7.487A1.275,1.275,0,0,1,179.369,230.779Zm0,0" transform="translate(-129.008 -156.325)" fill="#f6872c"/><path d="M281.8,230.779V210.053a1.275,1.275,0,0,1,1.274-1.275h-7.487a1.275,1.275,0,0,0-1.274,1.275v20.726a1.275,1.275,0,0,0,1.274,1.275h7.487A1.275,1.275,0,0,1,281.8,230.779Zm0,0" transform="translate(-205.891 -156.325)" fill="#f6872c"/><path d="M384.237,230.779V210.053a1.275,1.275,0,0,1,1.275-1.275h-7.486a1.275,1.275,0,0,0-1.275,1.275v20.726a1.275,1.275,0,0,0,1.275,1.275h7.486A1.275,1.275,0,0,1,384.237,230.779Zm0,0" transform="translate(-282.774 -156.325)" fill="#f6872c"/><path d="M161.407,101.734H70.558a1.109,1.109,0,0,0-1.109,1.109V119.83a1.109,1.109,0,0,0,1.109,1.109h90.849a1.109,1.109,0,0,0,1.109-1.109V102.843A1.109,1.109,0,0,0,161.407,101.734Zm0,0" transform="translate(-52.126 -75.982)" fill="#edc30a"/><path d="M76.936,119.83V102.843a1.109,1.109,0,0,1,1.108-1.109H70.558a1.109,1.109,0,0,0-1.109,1.109V119.83a1.109,1.109,0,0,0,1.109,1.109h7.486A1.109,1.109,0,0,1,76.936,119.83Zm0,0" transform="translate(-52.126 -75.982)" fill="#f4b537"/></g></svg>