<svg xmlns="http://www.w3.org/2000/svg" width="164.922" height="127.681" viewBox="0 0 164.922 127.681"><defs><style>.a{fill:#f7882d;}.b{fill:#fff3e1;}.c{fill:#ffc550;}.d{fill:#f25f46;}.e{fill:#d17225;}.f{fill:#fff;}</style></defs><g transform="translate(0 -56)"><path class="a" d="M167.622,218.421H18.66a2.661,2.661,0,0,1-2.66-2.66v-93.1A2.661,2.661,0,0,1,18.66,120H167.622a2.661,2.661,0,0,1,2.66,2.66v93.1A2.661,2.661,0,0,1,167.622,218.421Z" transform="translate(-10.68 -42.72)"/><path class="b" d="M178.341,223.821H50.66a2.661,2.661,0,0,1-2.66-2.66v-66.5A2.661,2.661,0,0,1,50.66,152H178.341a2.661,2.661,0,0,1,2.66,2.66v66.5A2.661,2.661,0,0,1,178.341,223.821Z" transform="translate(-32.04 -64.08)"/><path class="c" d="M189.061,141.121H82.66a2.661,2.661,0,0,1-2.66-2.66V58.66A2.661,2.661,0,0,1,82.66,56h106.4a2.661,2.661,0,0,1,2.66,2.66v79.8A2.661,2.661,0,0,1,189.061,141.121Z" transform="translate(-53.4)"/><circle class="d" cx="23.94" cy="23.94" r="23.94" transform="translate(58.521 69.3)"/><path class="e" d="M160.293,413.3H4.865a2.656,2.656,0,0,1-2.077-1L.583,409.542A2.651,2.651,0,0,1,0,407.882V402.66A2.661,2.661,0,0,1,2.66,400H54.717a2.655,2.655,0,0,1,.9.157l6.522,2.346a2.7,2.7,0,0,0,.9.157h38.589a2.66,2.66,0,0,0,.952-.176l6.028-2.309a2.626,2.626,0,0,1,.95-.176h52.7a2.661,2.661,0,0,1,2.66,2.66v6.153a2.66,2.66,0,0,1-.851,1.95L162.1,412.59A2.656,2.656,0,0,1,160.293,413.3Z" transform="translate(0 -229.619)"/><g transform="translate(13.3 170.381)"><rect class="f" width="5.32" height="5.32" transform="translate(133.002 0)"/><rect class="f" width="5.32" height="5.32" transform="translate(122.361 0)"/><rect class="f" width="5.32" height="5.32" transform="translate(0 0)"/></g><path class="f" d="M232,144.437v12.114a2.659,2.659,0,0,0,3.979,2.309l10.6-6.057a2.659,2.659,0,0,0,0-4.618l-10.6-6.057A2.659,2.659,0,0,0,232,144.437Z" transform="translate(-154.859 -57.253)"/><g transform="translate(34.58 63.98)"><rect class="f" width="21.28" height="5.32" transform="translate(0 63.841)"/><rect class="f" width="63.841" height="5.32" transform="translate(31.92 63.841)"/><rect class="f" width="5.32" height="5.32" transform="translate(23.94 63.841)"/></g></g></svg>