<svg xmlns="http://www.w3.org/2000/svg" width="114.049" height="132" viewBox="0 0 114.049 132"><g transform="translate(-34.815)"><path d="M37.889,18.632a3.082,3.082,0,0,0-3.074,3.074V142.754a3.083,3.083,0,0,0,3.074,3.074h83.788a3.086,3.086,0,0,0,3.077-3.074V21.706a3.085,3.085,0,0,0-3.077-3.074Z" transform="translate(0 -13.828)" fill="#004777"/><path d="M122.575,162.151H58.653V52.337H136.3v96.092Z" transform="translate(-17.692 -38.844)" fill="#fff"/><path d="M306.592,438.779V425.057h13.725Z" transform="translate(-201.71 -315.472)" fill="#cee2f2"/><path d="M172.5,6.664a6.652,6.652,0,1,0-13.3,0h-8.421V20.321H180.92V6.664ZM165.847,4.4a2.258,2.258,0,1,1-2.264,2.264A2.268,2.268,0,0,1,165.847,4.4Z" transform="translate(-86.062 0)" fill="#18191a"/><path d="M172.5,6.664a6.652,6.652,0,1,0-13.3,0h-8.421v6.829H180.92V6.664ZM165.847,4.4a2.258,2.258,0,1,1-2.264,2.264A2.268,2.268,0,0,1,165.847,4.4Z" transform="translate(-86.062 0)"/><rect width="30.148" height="1.425" transform="translate(64.71 12.067)" fill="#18191a"/><rect width="30.148" height="1.425" transform="translate(64.71 13.493)"/><g transform="translate(70.574 35.066)"><rect width="36.171" height="2.837" fill="#cee2f2"/><rect width="36.171" height="2.837" transform="translate(0 14.83)" fill="#cee2f2"/><rect width="36.171" height="2.837" transform="translate(0 29.66)" fill="#cee2f2"/><rect width="36.171" height="2.837" transform="translate(0 44.484)" fill="#cee2f2"/></g><g transform="translate(52.821 29.305)"><path d="M104.657,117.182l1.115-1.111,3.962,3.962,6.368-6.366,1.119,1.114-7.487,7.484Z" transform="translate(-104.657 -113.667)" fill="#f7882d"/><path d="M104.657,174.706l1.115-1.114,3.962,3.969,6.368-6.369,1.119,1.111-7.487,7.486Z" transform="translate(-104.657 -156.361)" fill="#f7882d"/><path d="M104.657,232.227l1.115-1.113,3.962,3.969,6.368-6.37,1.119,1.115-7.487,7.481Z" transform="translate(-104.657 -199.053)" fill="#f7882d"/><path d="M104.657,289.747l1.115-1.115,3.962,3.968,6.368-6.372,1.119,1.115-7.487,7.484Z" transform="translate(-104.657 -241.74)" fill="#f7882d"/></g><path d="M426.346,461.176l6.553,13.1,6.554-13.1Z" transform="translate(-290.589 -342.279)" fill="#fff"/><rect width="13.106" height="67.492" transform="translate(135.755 51.407)" fill="#ff9d4d"/><g transform="translate(135.755 51.407)"><rect width="3.278" height="67.492" fill="#f7882d"/><rect width="3.277" height="67.492" transform="translate(9.828)" fill="#f7882d"/></g><g transform="translate(135.757 118.897)"><path d="M426.346,461.176h3.278l3.274,13.1Z" transform="translate(-426.346 -461.176)" fill="#e1effa"/><path d="M458.316,461.176H455.04l-3.278,13.1Z" transform="translate(-445.209 -461.176)" fill="#e1effa"/></g><path d="M441.811,492.086l2.565,5.134,2.569-5.13Z" transform="translate(-302.067 -365.22)" fill="#18191a"/><g transform="translate(139.744 126.866)"><path d="M441.811,492.086l2.565,5.134-1.283-5.134Z" transform="translate(-441.811 -492.086)"/><path d="M453.048,492.086l-1.286,5.134,2.569-5.13Z" transform="translate(-449.197 -492.086)"/></g><rect width="13.106" height="2.186" transform="translate(135.755 49.223)" fill="#fff"/><g transform="translate(135.755 49.223)"><rect width="3.276" height="2.186" fill="#e1effa"/><rect width="3.278" height="2.186" transform="translate(9.828)" fill="#e1effa"/></g><path d="M432.9,165.5a6.554,6.554,0,0,0-6.553,6.553h13.106A6.555,6.555,0,0,0,432.9,165.5Z" transform="translate(-290.589 -122.833)"/><path d="M433.272,173.983a1,1,0,0,1-.467-.113,1.024,1.024,0,0,1-.445-1.378,5.51,5.51,0,0,1,4.919-3.01,1.026,1.026,0,0,1,0,2.051,3.46,3.46,0,0,0-3.093,1.9A1.031,1.031,0,0,1,433.272,173.983Z" transform="translate(-294.969 -125.787)" fill="#5e7e99"/></g></svg>