<svg xmlns="http://www.w3.org/2000/svg" xmlns:xlink="http://www.w3.org/1999/xlink" width="568.782" height="381.16" viewBox="0 0 568.782 381.16"><defs><clipPath id="a"><rect width="427.115" height="281.459" fill="none"/></clipPath></defs><g transform="translate(-98.615 -89.442)"><g transform="translate(325.266 246.836)"><path d="M673.771,601.076a56.269,56.269,0,0,1-.515,7.6H562.476a55.935,55.935,0,0,1,55.392-63.5c.753,0,1.506.017,2.251.046A55.9,55.9,0,0,1,673.771,601.076Z" transform="translate(-561.961 -478.348)" fill="#fff3e1"/><circle cx="55.905" cy="55.905" r="55.905" transform="translate(157.52)" fill="#fff3e1"/><path d="M977.833,605.7q0,2.7-.251,5.339H866.27q-.251-2.636-.251-5.339a55.909,55.909,0,0,1,50.928-55.685q2.46-.214,4.979-.218a55.888,55.888,0,0,1,55.907,55.9Z" transform="translate(-717.285 -480.712)" fill="#fff3e1"/><path d="M1144.616,605.7q0,2.7-.251,5.339H1033.054q-.251-2.636-.251-5.339a55.907,55.907,0,0,1,111.813,0Z" transform="translate(-802.485 -480.712)" fill="#fff3e1"/><path d="M821.68,506.158A72.428,72.428,0,0,1,805.735,551.6H692.2A72.739,72.739,0,1,1,821.68,506.158Z" transform="translate(-620.345 -421.275)" fill="#fff3e1"/></g><g transform="translate(98.615 93.354)"><path d="M210.425,334.649a56.19,56.19,0,0,1-.515,7.6H99.13a55.935,55.935,0,0,1,55.393-63.5c.753,0,1.506.017,2.251.046A55.9,55.9,0,0,1,210.425,334.649Z" transform="translate(-98.615 -188.765)" fill="#fff3e1"/><circle cx="55.905" cy="55.905" r="55.905" transform="translate(134.364 79.062) rotate(-45)" fill="#fff3e1"/><path d="M514.487,339.272q0,2.7-.251,5.339H402.924q-.251-2.636-.251-5.339A55.908,55.908,0,0,1,453.6,283.587q2.46-.214,4.979-.218a55.889,55.889,0,0,1,55.907,55.9Z" transform="translate(-253.939 -191.128)" fill="#fff3e1"/><path d="M681.271,339.272q0,2.7-.251,5.339H569.708q-.251-2.636-.251-5.339a55.907,55.907,0,0,1,111.813,0Z" transform="translate(-339.139 -191.128)" fill="#fff3e1"/><path d="M358.335,239.731a72.429,72.429,0,0,1-15.945,45.443H228.852a72.739,72.739,0,1,1,129.483-45.443Z" transform="translate(-157 -131.691)" fill="#fff3e1"/></g><g transform="translate(143.796 281.616)"><g transform="translate(0 0)"><path d="M243.962,575.547a1.007,1.007,0,0,1-.682-.265,125.073,125.073,0,0,1-22.561-27.349c-6.548-10.814-9.872-20.263-15.379-35.916-3.6-10.24-6.825-20.7-9.579-31.079a1.01,1.01,0,0,1,1.952-.518c2.741,10.332,5.948,20.737,9.533,30.926,5.463,15.531,8.761,24.905,15.2,35.54a123.028,123.028,0,0,0,22.2,26.906,1.01,1.01,0,0,1-.682,1.755Z" transform="translate(-193.404 -479.668)" fill="#fff"/><path d="M207.25,559.138a1.008,1.008,0,0,1-.27-.037,28.806,28.806,0,0,1-5.371-2.078,29.49,29.49,0,0,1-10.434-8.925,1.01,1.01,0,0,1,1.626-1.2,27.492,27.492,0,0,0,9.722,8.322,26.809,26.809,0,0,0,4.995,1.932,1.01,1.01,0,0,1-.269,1.984Z" transform="translate(-190.978 -513.803)" fill="#fff"/><path d="M245.417,591.354a1.01,1.01,0,0,1-.7-1.736,15.227,15.227,0,0,0,4.6-9.418,14.97,14.97,0,0,0-1.36-7.736,1.01,1.01,0,1,1,1.83-.855,17,17,0,0,1,1.541,8.783,17.251,17.251,0,0,1-5.211,10.678A1.006,1.006,0,0,1,245.417,591.354Z" transform="translate(-218.272 -526.337)" fill="#fff"/><path d="M238.928,647.283a24.874,24.874,0,0,1-13.351-3.875,1.01,1.01,0,0,1,1.078-1.708,23.042,23.042,0,0,0,6.87,2.919,23.662,23.662,0,0,0,12.233-.349,1.01,1.01,0,0,1,.572,1.938A26.286,26.286,0,0,1,238.928,647.283Z" transform="translate(-208.412 -562.36)" fill="#fff"/></g></g><g transform="translate(162.997 89.442)"><path d="M0,0H86.829V61.235H0Z" transform="translate(112.321 288.778)" fill="#292929"/><path d="M0,0H162.249V21.037H0Z" transform="translate(74.611 335.187)" fill="#464646"/><rect width="279.747" height="175.738" transform="translate(15.862 127.713)" fill="#f0f4ff"/><path d="M0,0H311.471V195.667H0Z" transform="translate(0 117.748)" fill="#464646"/><path d="M0,0H260.969V24.985H0Z" transform="translate(25.251 134.983)" fill="#f7882d"/><rect width="115.724" height="9.712" transform="translate(68.493 185.438)" fill="#464646"/><path d="M0,0H51.381V9.712H0Z" transform="translate(46.446 198.383)" fill="#464646"/><rect width="260.969" height="130.356" transform="translate(25.251 159.967)" fill="#fff3e1"/><path d="M0,0H115.724V9.712H0Z" transform="translate(51.532 172.914)" fill="#464646"/><rect width="84.302" height="9.712" transform="translate(106.684 198.383)" fill="#2e526b"/><g transform="translate(89.554 0)"><g transform="translate(0 80.758)"><rect width="71.66" height="87.962" transform="translate(38.192 20.046)" fill="#131637"/><circle cx="26.128" cy="26.128" r="26.128" transform="translate(18.129 72.233)" fill="#131637"/><path d="M439.011,177.456a26.128,26.128,0,1,1-26.128-26.128A26.128,26.128,0,0,1,439.011,177.456Z" transform="translate(-309.096 -79.096)" fill="#131637"/><path d="M444.862,183.875a28.614,28.614,0,1,1-28.612-28.616A28.615,28.615,0,0,1,444.862,183.875Z" transform="translate(-306.396 -67.021)" fill="#131637"/><path d="M426.318,183.875A28.616,28.616,0,1,1,397.7,155.259,28.618,28.618,0,0,1,426.318,183.875Z" transform="translate(-363.37 -67.021)" fill="#131637"/><circle cx="6.489" cy="6.489" r="6.489" transform="translate(102.319 64.027)" fill="#131637"/><path d="M388.416,155.8a6.488,6.488,0,1,1-6.49-6.49A6.489,6.489,0,0,1,388.416,155.8Z" transform="translate(-343.855 -85.285)" fill="#131637"/><path d="M416.054,155.544S376.383,186.99,369.2,227.051c-8.945,49.923,20.813,49.027,20.813,49.027l8.973-.777s-11.829-17.956-9.9-31.613c2.484-17.565,15.945-30.359,15.945-30.359S422.65,186.46,416.054,155.544Z" transform="translate(-367.527 -66.146)" fill="#f25f46"/><path d="M390.326,189.814l8.013-33.93s-31.617,26.417-24.214,81.039l.024-.029c4.125-14.532,14.7-24.609,14.7-24.609s.171-.4.456-1.165Z" transform="translate(-351.34 -65.101)" fill="#f25f46"/><g transform="translate(83.468 0.002)"><path d="M396.278,190.887s-10.163,15.81-7.716,42.423c0,0,76.3-2.944,123.568-79.443l-11.971-11.055S443.685,198.619,396.278,190.887Z" transform="translate(-388.182 -105.256)" fill="#f25f46"/><path d="M417.168,167.589s.468-8.176,1.653-10.794c0,0,3.974-14.161,4.739-16.307,0,0,3.441-.525,3.477,3.738a45.134,45.134,0,0,1-1.266,9.467s4.63-4.385,6.356-8.1,5.354-10.941,7.748-11.824,2.476,1.771,2.476,1.771-5.574,11.1-6.747,13.486c-1.034,2.1.126,1.987.126,1.987s9.218-11.152,10.876-13.143,3.384-1.828,4.6.191c0,0-4.882,5.985-7.557,9.919-.932,1.372-4.939,5.448-3.331,6.413,0,0,8.9-8.738,10.22-10.391s3.339-1.291,3.84.9l-11.152,12.777s-.611,1.038.2,1.205c.729.151,7.573-3.844,8.192-4.463s2.72-2.386,3.909-.476c0,0,.318.7-1.629,2.394s-10.9,9.992-10.9,9.992a37.487,37.487,0,0,1-13.819,9.206c-8.555,3.164-11.214.672-6.315,2.427l-2.313-4.389Z" transform="translate(-299.144 -133.588)" fill="#ffcda9"/><path d="M433.785,152.045l-12.159-10.729-5.943,6.093,11.97,11.057Z" transform="translate(-303.707 -109.854)" fill="#fff"/><path d="M390.807,154.752s17.211,9.6,28.132,33.042a98.5,98.5,0,0,0-12.016,4.691L396.707,180.73" transform="translate(-380.117 -68.58)" fill="#f25f46"/></g><path d="M464.946,205.985c0-18.429-15.888-51.658-30.522-51.658H407.519c-21.906,0-33.05,43.755-33.017,51.071.02,5.945,8.31,11.421,8.669,18.262.969,18.4.27,30.7,2.5,55.444h70.684c2.248-24.935-.957-37.549,0-56.043C457.373,215.9,464.946,213.7,464.946,205.985Z" transform="translate(-346.737 -69.884)" fill="#f25f46"/><rect width="20.336" height="5.983" transform="translate(110.3 129.329) rotate(180)" fill="#fff"/><path d="M398.593,157.293h-3.569l.013,1.094-1.5-1.094L382.61,244.182l13.453,3.175,13.453-3.175Z" transform="translate(-321.829 -60.773)" fill="#457bf4"/><path d="M0,0H9.839V9.84H1.526A1.526,1.526,0,0,1,0,8.313Z" transform="matrix(0.707, -0.707, 0.707, 0.707, 67.276, 94.919)" fill="#457bf4"/><g transform="translate(40.749)"><g transform="translate(47.102 31.026)"><path d="M389.258,150.805a9.6,9.6,0,1,0,9.6-9.6A9.6,9.6,0,0,0,389.258,150.805Z" transform="translate(-389.258 -141.208)" fill="#ffb59c"/><path d="M390.036,148.415a6.429,6.429,0,1,0,6.429-6.429A6.43,6.43,0,0,0,390.036,148.415Z" transform="translate(-386.868 -138.818)" fill="#ff9f7c"/></g><g transform="translate(0 31.026)"><path d="M377.69,150.805a9.6,9.6,0,1,0,9.6-9.6A9.6,9.6,0,0,0,377.69,150.805Z" transform="translate(-377.69 -141.208)" fill="#ffb59c"/><path d="M378.467,148.415a6.431,6.431,0,1,0,6.433-6.429A6.433,6.433,0,0,0,378.467,148.415Z" transform="translate(-375.303 -138.818)" fill="#ff9f7c"/></g><rect width="30.966" height="30.966" transform="translate(17.984 57.272)" fill="#ffb899"/><path d="M408.057,133.588l-4.149,1.812-1.128-1.812-23.221,17.521v31.849c4.748,20.342,25.86,28.734,25.86,28.734s21.108-8.392,25.855-28.734V151.109Z" transform="translate(-371.949 -133.588)" fill="#ffcda9"/><path d="M392.09,157.2l-3.523-14.692L385.044,157.2Z" transform="translate(-355.1 -106.185)" fill="#ff907d"/><path d="M394.019,158.126a10.747,10.747,0,0,0,10.745-10.753H383.27A10.748,10.748,0,0,0,394.019,158.126Z" transform="translate(-360.55 -91.244)" fill="#fff"/></g><g transform="translate(55.039 77.562)"><path d="M400.4,163.313l-10.122,10.122s-15.277-6.323-6.185-20.8A31.619,31.619,0,0,0,400.4,163.313Z" transform="translate(-381.2 -152.637)" fill="#f25f46"/><path d="M385.914,163.313l10.122,10.122s15.277-6.323,6.181-20.8A31.6,31.6,0,0,1,385.914,163.313Z" transform="translate(-366.718 -152.637)" fill="#f25f46"/></g></g><path d="M426.124,143.1s-7.394,20.053-32.3,15.635c0,0,.765,5.949-7.952,8.412v-5.3l-7.932-5.489-.786-2.586,5.257-16.788,17.093-3.4,13.522,2.378h21.824l8.876,7.818-3.966,18.274v5.094s-6.612-1.954-5.933-10.11C433.823,157.041,425.9,150.241,426.124,143.1Z" transform="translate(-338.603 -52.83)" fill="#131637"/><path d="M377.062,163.123s-.122-48,49.43-27.244c0,0,22.231-4.772,22.231,23.848v3.4l-1.046,4.141-15.379-9.74-11.364-8.217-11.543,1.217Z" transform="translate(-338.87 -61.787)" fill="#131637"/><path d="M419.153,113.754h124.9a35.432,35.432,0,0,1,35.432,35.432h0a35.432,35.432,0,0,1-35.432,35.432H438.685l-23.864,20.929v-21.36a22.045,22.045,0,0,1-17.716-21.613V135.8A22.049,22.049,0,0,1,419.153,113.754Z" transform="translate(-277.304 -113.754)" fill="#ffc550"/><path d="M424.44,130.932a11.01,11.01,0,1,1-11.01-11.01A11.007,11.007,0,0,1,424.44,130.932Z" transform="translate(-260.978 -94.808)" fill="#f7882d"/><path d="M433.783,130.932a11.012,11.012,0,1,1-11.014-11.01A11.01,11.01,0,0,1,433.783,130.932Z" transform="translate(-232.291 -94.808)" fill="#f7882d"/><path d="M443.119,130.932a11.01,11.01,0,1,1-11.01-11.01A11.009,11.009,0,0,1,443.119,130.932Z" transform="translate(-203.601 -94.808)" fill="#f7882d"/></g></g><g transform="translate(188.248 98.306)"><g clip-path="url(#a)"><g transform="translate(33.849 342.937)"><g transform="translate(0 0)"><g transform="translate(0 0)"><path d="M382.576,808.062c-6.009-4.582-17.609-1.015-24.065,5.544-8.566,8.7-8.792,23.4-5.485,24.975,2.358,1.122,7.591-3.914,13.843-9.93,4.573-4.4,5.218-5.984,8.554-7.522,5.446-2.51,9.2-.812,10.707-3.241C387.656,815.421,385.761,810.49,382.576,808.062Z" transform="translate(-351.05 -805.996)" fill="#ffd2b0"/><path d="M404.9,819.805c-5.286,4.054-9.84,12.524-6.83,17.736.385.667,1.142,1.978,2.383,2.151,3.137.439,6.773-6.743,8.164-12.249.179-.711,1.978-8.027-.149-9.076C407.458,817.869,405.97,818.985,404.9,819.805Z" transform="translate(-374.578 -812.253)" fill="#ffd2b0"/></g></g></g></g></g><g transform="translate(588.17 319.105)"><path d="M1109.635,571.744c.62-2.48,2.28-1.882,3.462-4.839,1.518-3.795-.626-6.261,1.337-8.808.859-1.116,2.383-2.089,3.4-1.7,1.24.469,1.547,2.876,1.833,5.118.334,2.614.011,3.777.786,4.269.562.357,1.222.055,3.167-.68,5.056-1.91,5.787-1.827,6.2-1.723,1.649.421,2.457,2.317,3.17,3.99.339.8,3.028,7.106-.159,11.373-.429.575-.9,1.019-6.431,3.575-7.615,3.517-9.1,3.769-10.443,3.121-.842-.406-1.493-1.519-2.761-3.729C1110.387,576.807,1108.982,574.358,1109.635,571.744Z" transform="translate(-1104.557 -556.307)" fill="#f7882d"/><path d="M1104.842,586.054c-.1-.224-4.848,1.654-5.224,2.113-.675.825.565,2.69.889,3.438,1,2.3,2,4.6,2.906,6.948a37.575,37.575,0,0,0,1.473,3.863c.52,1,1.035.714,1.928.316.322-.143,4.4-1.975,4.387-2Q1108.021,593.4,1104.842,586.054Z" transform="translate(-1099.42 -571.493)" fill="#f7882d"/></g><g transform="translate(458.245 423.198)"><path d="M844.026,784.541c.619-2.48,2.279-1.882,3.462-4.838,1.518-3.8-.625-6.261,1.337-8.809.859-1.115,2.383-2.089,3.4-1.7,1.24.469,1.547,2.876,1.833,5.119.334,2.613.011,3.777.785,4.269.562.358,1.221.056,3.168-.679,5.056-1.909,5.787-1.827,6.2-1.723,1.65.421,2.457,2.317,3.17,3.99.339.8,3.028,7.106-.159,11.373-.429.574-.9,1.019-6.431,3.575-7.615,3.517-9.1,3.769-10.443,3.122-.842-.406-1.493-1.52-2.76-3.73C844.778,789.6,843.372,787.155,844.026,784.541Z" transform="translate(-838.948 -769.104)" fill="#f7882d"/><path d="M839.232,798.851c-.1-.224-4.848,1.654-5.223,2.114-.675.825.565,2.689.889,3.437,1,2.3,2,4.6,2.906,6.948a37.622,37.622,0,0,0,1.473,3.863c.52,1,1.035.714,1.928.316.322-.144,4.4-1.975,4.387-2Z" transform="translate(-833.811 -784.291)" fill="#f7882d"/></g><g transform="translate(530.795 237.988)"><path d="M997.544,390.536a17.152,17.152,0,0,0-13.954,10.1c-3.407,7.692-.741,17.59,6.736,22.134a17.223,17.223,0,0,0,19.166-.963c5.226-4.028,6.143-10.029,6.336-12.029.1-1.043.734-9.081-5.533-14.8A17.264,17.264,0,0,0,997.544,390.536Z" transform="translate(-982.128 -390.477)" fill="#ffc550"/><path d="M995.47,433.093a10.391,10.391,0,0,0,20.759.214Z" transform="translate(-988.943 -412.247)" fill="#fff"/><path d="M1001.807,411.073a1.32,1.32,0,0,0-.8,1.347,1.377,1.377,0,0,0,1.668,1.123,1.422,1.422,0,0,0,.674-2.085A1.316,1.316,0,0,0,1001.807,411.073Z" transform="translate(-991.767 -400.945)" fill="#fff"/><path d="M1024.923,411.073a1.321,1.321,0,0,0-.8,1.347,1.377,1.377,0,0,0,1.667,1.123,1.421,1.421,0,0,0,.674-2.085A1.316,1.316,0,0,0,1024.923,411.073Z" transform="translate(-1003.575 -400.945)" fill="#fff"/></g><g transform="translate(206.007 438.999)"><path d="M328.373,816.844c.619-2.48,2.28-1.882,3.462-4.839,1.518-3.795-.625-6.261,1.337-8.808.859-1.116,2.383-2.089,3.4-1.7,1.24.469,1.547,2.876,1.833,5.118.334,2.614.011,3.777.785,4.269.562.358,1.221.055,3.168-.679,5.056-1.91,5.787-1.827,6.2-1.723,1.65.421,2.457,2.317,3.17,3.99.339.8,3.028,7.106-.159,11.372-.429.575-.9,1.019-6.431,3.575-7.615,3.517-9.1,3.769-10.443,3.122-.842-.406-1.493-1.52-2.76-3.73C329.125,821.907,327.719,819.458,328.373,816.844Z" transform="translate(-323.295 -801.407)" fill="#f7882d"/><path d="M323.579,831.154c-.1-.224-4.848,1.654-5.223,2.113-.675.825.565,2.69.889,3.438,1,2.3,2,4.6,2.906,6.948a37.584,37.584,0,0,0,1.473,3.863c.52,1,1.035.714,1.928.317.322-.144,4.4-1.975,4.387-2Z" transform="translate(-318.158 -816.594)" fill="#f7882d"/></g><g transform="translate(130.168 404.759)"><path d="M178.535,731.468a17.151,17.151,0,0,0-13.954,10.1c-3.408,7.691-.74,17.59,6.736,22.133a17.223,17.223,0,0,0,19.167-.962c5.225-4.028,6.143-10.029,6.335-12.029.1-1.044.734-9.081-5.533-14.8A17.264,17.264,0,0,0,178.535,731.468Z" transform="translate(-163.119 -731.409)" fill="#ffc550"/><path d="M176.461,774.024a10.391,10.391,0,0,0,20.759.214Z" transform="translate(-169.934 -753.179)" fill="#fff"/><path d="M182.8,752a1.321,1.321,0,0,0-.8,1.347,1.377,1.377,0,0,0,1.668,1.122,1.421,1.421,0,0,0,.674-2.085A1.316,1.316,0,0,0,182.8,752Z" transform="translate(-172.758 -741.877)" fill="#fff"/><path d="M205.914,752a1.321,1.321,0,0,0-.8,1.347,1.377,1.377,0,0,0,1.668,1.122,1.421,1.421,0,0,0,.674-2.085A1.316,1.316,0,0,0,205.914,752Z" transform="translate(-184.566 -741.877)" fill="#fff"/></g><g transform="translate(176.191 119.69)"><path d="M267.42,164.077c.619-2.48,2.28-1.883,3.462-4.839,1.518-3.8-.625-6.261,1.337-8.809.859-1.115,2.383-2.089,3.4-1.7,1.24.469,1.547,2.876,1.833,5.119.334,2.613.011,3.777.785,4.269.562.357,1.221.055,3.168-.68,5.056-1.909,5.787-1.827,6.2-1.723,1.649.421,2.457,2.317,3.17,3.99.339.8,3.028,7.106-.159,11.373-.429.574-.9,1.019-6.431,3.575-7.615,3.517-9.1,3.769-10.443,3.122-.842-.406-1.493-1.52-2.76-3.729C268.172,169.141,266.766,166.691,267.42,164.077Z" transform="translate(-262.342 -148.64)" fill="#f7882d"/><path d="M262.626,178.387c-.1-.224-4.848,1.654-5.223,2.114-.675.825.565,2.69.889,3.437,1,2.3,2,4.6,2.906,6.948a37.563,37.563,0,0,0,1.473,3.863c.52,1,1.035.714,1.928.317.322-.143,4.4-1.975,4.387-2Z" transform="translate(-257.205 -163.827)" fill="#f7882d"/></g><g transform="translate(102.882 198.839)"><path d="M122.755,310.5a17.151,17.151,0,0,0-13.954,10.1c-3.408,7.692-.741,17.59,6.736,22.134a17.224,17.224,0,0,0,19.167-.963c5.225-4.028,6.143-10.029,6.335-12.029.1-1.043.734-9.081-5.533-14.8A17.263,17.263,0,0,0,122.755,310.5Z" transform="translate(-107.339 -310.445)" fill="#ffc550"/><path d="M120.681,353.061a10.391,10.391,0,0,0,20.759.214Z" transform="translate(-114.154 -332.215)" fill="#fff"/><path d="M127.018,331.041a1.321,1.321,0,0,0-.8,1.347,1.377,1.377,0,0,0,1.668,1.123,1.421,1.421,0,0,0,.674-2.085A1.316,1.316,0,0,0,127.018,331.041Z" transform="translate(-116.978 -320.913)" fill="#fff"/><path d="M150.134,331.041a1.321,1.321,0,0,0-.8,1.347A1.378,1.378,0,0,0,151,333.511a1.421,1.421,0,0,0,.674-2.085A1.316,1.316,0,0,0,150.134,331.041Z" transform="translate(-128.786 -320.913)" fill="#fff"/></g><g transform="translate(533.203 380.407)"><path d="M1002.466,681.686a17.151,17.151,0,0,0-13.954,10.1c-3.407,7.692-.74,17.59,6.736,22.134a17.223,17.223,0,0,0,19.167-.962c5.225-4.028,6.143-10.029,6.335-12.029.1-1.043.734-9.081-5.533-14.8A17.264,17.264,0,0,0,1002.466,681.686Z" transform="translate(-987.05 -681.627)" fill="#ffc550"/><path d="M1000.392,724.242a10.39,10.39,0,0,0,20.759.214Z" transform="translate(-993.866 -703.396)" fill="#fff"/><path d="M1006.729,702.222a1.321,1.321,0,0,0-.8,1.347,1.377,1.377,0,0,0,1.668,1.123,1.421,1.421,0,0,0,.674-2.085A1.316,1.316,0,0,0,1006.729,702.222Z" transform="translate(-996.689 -692.095)" fill="#fff"/><path d="M1029.845,702.222a1.322,1.322,0,0,0-.8,1.347,1.377,1.377,0,0,0,1.667,1.123,1.421,1.421,0,0,0,.674-2.085A1.316,1.316,0,0,0,1029.845,702.222Z" transform="translate(-1008.498 -692.095)" fill="#fff"/></g></g></svg>