<svg xmlns="http://www.w3.org/2000/svg" xmlns:xlink="http://www.w3.org/1999/xlink" width="608" height="510" viewBox="0 0 608 510"><defs><clipPath id="b"><rect width="608" height="510"/></clipPath></defs><g id="a" clip-path="url(#b)"><rect width="608" height="510" fill="#fff"/><g transform="translate(0.209 -0.449)"><g transform="translate(0 0)"><g transform="translate(0)"><path d="M651.224,353.981c29.367-61.3-15.562-136.67-70.842-167.764C536.095,161.3,481.33,151.083,431.4,161.71c-43.694,9.3-82.919,33.461-127.1,40.842-62.719,10.478-124.191-17.175-179.042,27.013-26.7,21.5-44.671,52.678-53.567,85.783C44.336,417.131,101.951,506.834,188.433,556.157c62.212,35.482,140.386,39.326,206.524,12.5,49.995-20.278,81.327-59.465,113.828-100.671,17.734-22.487,37.888-44.982,63.867-58.019,24.021-12.054,48.638-14.413,66.6-36.971A99.466,99.466,0,0,0,651.224,353.981Z" transform="translate(-64.829 -157.539)" fill="#fdefda"/><path d="M431.632,309.93a57.645,57.645,0,0,0-23.672-8.455c-65.629-7.994-97.958,99.486-25.711,108.6C435.984,416.855,488.778,345.966,431.632,309.93Z" transform="translate(151.459 -45.22)" fill="#fdefda"/></g><g transform="translate(42.161 92.236)"><g transform="translate(129.44 124.992)"><path d="M418.071,234.258a.325.325,0,0,1-.325-.325.878.878,0,0,0-1.755,0,.325.325,0,1,1-.65,0,1.525,1.525,0,1,1,3.049,0,.325.325,0,0,1-.319.325Z" transform="translate(-415.341 -232.409)" fill="#fff"/><g transform="translate(4.751 0)"><path d="M421.3,234.258a.325.325,0,0,1-.325-.325.878.878,0,0,0-1.755,0,.325.325,0,1,1-.646,0,1.525,1.525,0,0,1,3.049,0A.325.325,0,0,1,421.3,234.258Z" transform="translate(-418.57 -232.409)" fill="#fff"/></g></g><path d="M419.686,240.392a5.132,5.132,0,0,0,5.131-5.131H414.554a5.133,5.133,0,0,0,5.132,5.132Z" transform="translate(-286.28 -106.07)" fill="#fff"/><g transform="translate(0 0)"><rect width="38.912" height="6.552" transform="translate(4.455)" fill="#ffdea9"/><rect width="2.283" height="57.138" fill="#e2ebf4"/><rect width="44.547" height="6.552" transform="translate(4.455 9.436)" fill="#ffdea9"/><rect width="29.346" height="6.552" transform="translate(4.455 18.871)" fill="#ffdea9"/><rect width="5.593" height="6.552" transform="translate(4.455 37.743)" fill="#ffdea9"/><rect width="13.392" height="6.552" transform="translate(13.536 37.743)" fill="#ffdea9"/></g><g transform="translate(522.078 113.821) rotate(180)"><rect width="38.912" height="6.552" transform="translate(4.455)" fill="#ffdea9"/><rect width="2.283" height="57.138" fill="#e2ebf4"/><rect width="44.547" height="6.552" transform="translate(4.455 9.436)" fill="#ffdea9"/><rect width="29.346" height="6.552" transform="translate(4.455 18.871)" fill="#ffdea9"/><rect width="5.593" height="6.552" transform="translate(4.455 37.743)" fill="#ffdea9"/><rect width="13.392" height="6.552" transform="translate(13.536 37.743)" fill="#ffdea9"/></g></g></g></g><g transform="translate(78.925 53.007)"><path d="M86.455,35.29l9.027-5.208.01.03c1.349-.9,3.4-.821,5.724.525L353.976,176.567c4.075,2.35,7.362,7.535,7.362,11.611V369.771a4.341,4.341,0,0,1-1.328,3.438l.007.007-.133.073a3.116,3.116,0,0,1-.831.479l-9.034,5.172L348.995,370,101.217,226.954c-4.068-2.353-7.355-7.535-7.355-11.61V40.179Z" transform="translate(65.971 -29.514)" fill="#f7882d"/><path d="M353.221,189.875v181.58a4.158,4.158,0,0,1-1.7,3.723c-1.328.859-3.36.731-5.651-.6L93.1,228.631c-4.058-2.327-7.344-7.516-7.344-11.6V35.448c0-4.334,3.663-5.338,7.344-3.125L295.619,149.255l50.256,29.014C350.412,180.977,353.221,186.275,353.221,189.875Z" transform="translate(64.33 -25.634)" fill="#ffc550"/><path d="M353.221,189.871v8.177l-.069-.034L85.749,43.62V35.444c0-4.384,3.716-5.305,7.344-3.125L295.618,149.255l50.256,29.018C350.412,180.977,353.221,186.27,353.221,189.871Z" transform="translate(64.331 -25.637)" fill="#f7882d"/><path d="M152.756,75.059a7.711,7.711,0,0,0,3.719,5.867l2.556,1.479c2.057,1.184,3.723.479,3.723-1.572v-2.56a7.705,7.705,0,0,0-3.723-5.867l-2.556-1.479c-2.054-1.183-3.719-.479-3.719,1.575Z" transform="translate(220.046 65.39)" fill="#ff5783"/><path d="M156.938,77.476a7.687,7.687,0,0,0,3.723,5.86l2.556,1.479c2.054,1.187,3.719.482,3.719-1.572V80.684a7.716,7.716,0,0,0-3.719-5.867l-2.559-1.473c-2.057-1.187-3.723-.482-3.723,1.572Z" transform="translate(229.768 71.002)" fill="#457bf4"/><path d="M161.123,79.892a7.716,7.716,0,0,0,3.719,5.867l2.56,1.479c2.054,1.184,3.719.479,3.719-1.575V83.1a7.7,7.7,0,0,0-3.719-5.86l-2.56-1.479c-2.054-1.183-3.719-.482-3.719,1.572Z" transform="translate(239.49 76.614)" fill="#59c0fa"/><g transform="translate(85.836 65.965)"><path d="M119.084,91c0-13.262-10.766-30.237-24.058-37.919-7.612-4.4-14.389-4.766-18.8-1.8v-.02l-7.476,4.5,3.776-.1a17.189,17.189,0,0,0-1.552,7.369l-3.141.668,3.5,24.038L82.826,99.781l13.063,5.381,3.589-1.855a22.055,22.055,0,0,0,6.308,1.509l-.888,3.636,8.924-5.381-.109-.027C117.064,100.848,119.084,96.74,119.084,91ZM95.026,94.718C85.287,89.1,77.413,76.67,77.413,66.937c0-5.608,2.619-9.071,6.694-9.942l6.612,7.153,14.026,15.31.252,1.6L88.289,61.772l-7.823,4.75,19.714,22.769,5.521-3.743,1.352,8.642,3.493.249C107.554,98.215,101.718,98.584,95.026,94.718Z" transform="translate(-63.14 -49.36)" fill="#fff" opacity="0.7"/><path d="M90.479,54.518c-13.292-7.675-24.058-3.125-24.058,10.135,0,13.292,10.766,30.27,24.058,37.948s24.056,3.124,24.056-10.167C114.534,79.174,103.772,62.2,90.479,54.518Zm0,41.635C80.74,90.539,72.866,78.111,72.866,68.377S80.74,55.314,90.48,60.935s17.648,18.074,17.648,27.775C108.127,98.449,100.215,101.77,90.479,96.152Z" transform="translate(-66.421 -46.044)" fill="#f25f46"/><path d="M71.633,54.524,91.349,77.292H71.633Z" transform="translate(-54.309 -37.36)" fill="#f25f46"/></g><g transform="translate(197.945 295.391)"><path d="M147.288,137.07l-30.407-17.553c-2.427-1.406-4.564-1.452-5.916-.429l-.006-.027-10.308,6.054,8.815,6.189v21.751c0,4.1,3.321,9.337,7.416,11.7l25.51,14.731-.289,9.838,10.86-6.382-.037-.027a4.078,4.078,0,0,0,1.775-3.739v-30.41C154.7,144.673,151.383,139.437,147.288,137.07Z" transform="translate(-98.984 -118.382)" fill="#fff" opacity="0.7"/><path d="M145.394,181.049c0,4.1-3.321,5.5-7.423,3.138l-30.407-17.56c-4.1-2.364-7.423-7.6-7.423-11.7V124.523c0-4.095,3.321-5.5,7.423-3.135l30.407,17.553c4.1,2.367,7.423,7.6,7.423,11.7Z" transform="translate(-100.142 -114.074)" fill="#7de5ff"/><g transform="translate(6.665 19.53)"><g transform="translate(0 4.312)"><path d="M102.155,146.134a1.269,1.269,0,0,1,.078-.456l1.323-19.249c.06-.859.8-1.127,1.7-.609l24.361,14.064a3.6,3.6,0,0,1,1.7,2.573l1.348,21.183a.968.968,0,0,1-.459,1.007,1.345,1.345,0,0,1-1.24-.176L103.9,148.851l-.047-.027A3.527,3.527,0,0,1,102.155,146.134Zm25.867-3.766L106.842,130.14l-1.124,16.35,23.427,13.528Z" transform="translate(-102.155 -125.558)" fill="#fff"/></g><g transform="translate(7.948 0)"><path d="M106.248,136.017c.938.541,1.7.22,1.7-.718v-4.976c0-2.041,1.656-2.739,3.7-1.563l.422.246a7.674,7.674,0,0,1,3.7,5.826v4.983a3.521,3.521,0,0,0,1.7,2.679c.938.541,1.7.223,1.7-.718v-4.984c0-3.912-3.184-8.934-7.1-11.195l-.422-.243c-3.912-2.26-7.1-.914-7.1,3v4.979A3.516,3.516,0,0,0,106.248,136.017Z" transform="translate(-104.546 -124.257)" fill="#fff"/></g><g transform="translate(5.644 11.939)"><path d="M103.853,139.3a1.236,1.236,0,0,1,.078-.452l.648-10.118c.056-.864.8-1.134,1.7-.612L120.7,136.44a3.594,3.594,0,0,1,1.7,2.573l.671,11.271a.963.963,0,0,1-.459,1,1.356,1.356,0,0,1-1.24-.18L105.6,142l-.047-.027A3.53,3.53,0,0,1,103.853,139.3Zm15.243-.379-11.221-6.479-.462,7.209,12.152,7.02Z" transform="translate(-103.853 -127.848)" fill="#fff"/></g></g></g><g transform="translate(0 216.164)"><path d="M67.325,105.146,50.08,95.191c-1.376-.795-2.586-.824-3.353-.243v-.016l-5.844,3.434,5,3.51v12.338c0,2.32,1.881,5.292,4.2,6.634L64.549,129.2l-.166,5.581,6.162-3.62-.023-.016a2.324,2.324,0,0,0,1.01-2.121V111.778C71.533,109.457,69.649,106.489,67.325,105.146Z" transform="translate(-39.942 -94.549)" fill="#fff" opacity="0.7"/><path d="M66.25,130.086c0,2.32-1.881,3.117-4.2,1.778L44.8,121.907c-2.327-1.343-4.2-4.311-4.2-6.631V98.028c0-2.32,1.881-3.117,4.2-1.775l17.244,9.955c2.324,1.339,4.2,4.311,4.2,6.631Z" transform="translate(-40.6 -92.103)" fill="#7de5ff"/><g transform="translate(3.769 11.077)"><g transform="translate(0 2.444)"><path d="M41.731,110.286a.7.7,0,0,1,.043-.259l.751-10.912c.034-.492.452-.641.964-.349L57.3,106.743a2.043,2.043,0,0,1,.968,1.456l.761,12.012a.547.547,0,0,1-.256.572.754.754,0,0,1-.7-.1l-15.35-8.858-.027-.016a2.007,2.007,0,0,1-.965-1.522ZM56.4,108.148l-12.009-6.933-.638,9.277,13.283,7.668Z" transform="translate(-41.731 -98.616)" fill="#fff"/></g><g transform="translate(4.508 0)"><path d="M44.051,104.548c.532.313.964.127.964-.405v-2.825c0-1.156.938-1.552,2.1-.888l.239.14a4.35,4.35,0,0,1,2.094,3.307V106.7a2.012,2.012,0,0,0,.967,1.522c.532.305.964.123.964-.409V104.99c0-2.221-1.808-5.069-4.025-6.348l-.239-.14c-2.221-1.28-4.025-.519-4.025,1.7v2.825A2,2,0,0,0,44.051,104.548Z" transform="translate(-43.087 -97.881)" fill="#fff"/></g><g transform="translate(3.201 6.771)"><path d="M42.694,106.408a.736.736,0,0,1,.043-.256l.366-5.737c.034-.488.456-.641.964-.349l8.18,4.723a2.016,2.016,0,0,1,.96,1.46l.385,6.392a.554.554,0,0,1-.263.568.766.766,0,0,1-.7-.1l-8.942-5.165-.027-.013a2.008,2.008,0,0,1-.964-1.522Zm8.645-.213-6.365-3.676-.263,4.089,6.891,3.979Z" transform="translate(-42.694 -99.918)" fill="#fff"/></g></g></g><g transform="translate(258.653 275.878)"><path d="M214.887,181.752c1.659-1.645,2.653-4.141,2.653-7.459,0-9.277-7.516-21.129-16.789-26.487a16.823,16.823,0,0,0-8.327-2.513c-3.536-9.716-11.245-19.521-20.249-24.72-8.915-5.145-16.546-4.3-20.129,1.193a33.064,33.064,0,0,0-7.93-6.658c-5.83-3.367-10.959-3.353-13.967-.578l-.01-.006-10.906,8.666,14.22,11.121a37.107,37.107,0,0,0,11.1,11.8v.127l15.783,9.114,44.168,34.558,9.878-7.712c.13-.109.27-.2.391-.319l.133-.106Z" transform="translate(-116.51 -112.512)" fill="#fff" opacity="0.7"/><path d="M191.838,150.392a16.83,16.83,0,0,0-8.327-2.516c-3.536-9.713-11.245-19.518-20.249-24.713-8.911-5.149-16.546-4.3-20.126,1.187a33.221,33.221,0,0,0-7.934-6.658c-9.274-5.351-16.789-2.174-16.789,7.1,0,8.838,6.851,19.957,15.52,25.62v.13l57.9,33.431c9.274,5.351,16.789,2.177,16.789-7.1S201.112,155.743,191.838,150.392Z" transform="translate(-118.413 -106.523)" fill="#fff"/></g><g transform="translate(16.836 151.458)"><g opacity="0.7"><path d="M45.662,81.56l60.18,76.929,11.564-6.479V109.826L57.227,75.081Z" transform="translate(-45.662 -75.081)" fill="#fff"/></g><g transform="translate(0 6.479)"><path d="M45.662,119.211l60.18,34.748V111.776L45.662,77.03Z" transform="translate(-45.662 -77.03)" fill="#e6e7e8"/><path d="M84.805,88.582,54.715,92.3l30.09,34.814Z" transform="translate(-24.625 -50.186)" fill="#f1f2f2"/><path d="M45.662,78.129l30.09,38.465-30.09.065Z" transform="translate(-45.662 -74.477)" fill="#f1f2f2"/><path d="M105.842,111.776l-30.09,3.243L45.662,77.03Z" transform="translate(-45.662 -77.03)" fill="#fff"/></g></g><g transform="translate(241.668 383.116)"><g transform="translate(0 0)" opacity="0.699"><path d="M113.3,148.7l36.426,46.563,7-3.921V165.807L120.3,144.777Z" transform="translate(-113.3 -144.777)" fill="#fff"/></g><g transform="translate(0 3.921)"><path d="M113.3,171.489l36.426,21.03V166.986L113.3,145.956Z" transform="translate(-113.3 -145.956)" fill="#e6e7e8"/><path d="M137,152.948,118.784,155.2,137,176.27Z" transform="translate(-100.567 -129.707)" fill="#f1f2f2"/><path d="M113.3,146.621,131.514,169.9l-18.214.042Z" transform="translate(-113.3 -144.411)" fill="#f1f2f2"/><path d="M149.73,166.986l-18.213,1.96L113.3,145.956Z" transform="translate(-113.3 -145.956)" fill="#fff"/></g></g><g transform="translate(14.848 76.426)"><path d="M89.016,69.936,60.664,53.563c-2.266-1.306-4.254-1.352-5.518-.4l-.006-.023-9.61,5.644,8.216,5.77V84.841c0,3.822,3.1,8.709,6.917,10.912l23.789,13.734-.27,9.181,10.131-5.956-.037-.023a3.805,3.805,0,0,0,1.659-3.487V80.845C95.933,77.026,92.839,72.14,89.016,69.936Z" transform="translate(-43.981 -52.508)" fill="#fff" opacity="0.7"/><path d="M87.254,110.946c0,3.819-3.1,5.129-6.914,2.925L51.981,97.494c-3.819-2.2-6.917-7.09-6.917-10.909V58.233c0-3.819,3.1-5.132,6.917-2.921L80.343,71.678c3.816,2.207,6.914,7.093,6.914,10.912Z" transform="translate(-45.064 -48.489)" fill="#7de5ff"/><path d="M72.016,68.657a23.661,23.661,0,0,0-8.259-8.641c-2.992-1.709-5.99-2.117-8.282-.824-3.771,2.13-4.414,8.193-2.049,14.625H53.3l-5.72,3.3c-1.256.708-1.263,3.064-.016,5.205A6.553,6.553,0,0,0,49.85,84.7a2.323,2.323,0,0,0,2.287.239l5.782-3.2V81.6a21.571,21.571,0,0,0,5.83,5.1c2.988,1.712,5.953,2.11,8.21.791C76.55,84.9,76.576,76.482,72.016,68.657ZM69.151,82.671c-1.509.851-3.5.568-5.488-.568a15.7,15.7,0,0,1-5.478-5.7c-2.932-5.043-2.918-10.676.1-12.382,1.509-.851,3.48-.581,5.458.547a15.57,15.57,0,0,1,5.445,5.688C72.182,75.4,72.166,80.965,69.151,82.671Z" transform="translate(-41.42 -38.744)" fill="#fff"/></g><g transform="translate(163.857 67.566)"><path d="M90.705,56.635l8.682-5.777.016.037c2.064-1.539,5.308-1.452,8.995.671l22.2,12.82c6.251,3.607,11.311,11.6,11.311,17.845v22.2a6.533,6.533,0,0,1-2.2,5.378l.023.023-9.762,6.5v-7.485L108.4,96.394c-6.251-3.607-11.311-11.6-11.311-17.845V59.318Z" transform="translate(-88.009 -49.842)" fill="#fff" opacity="0.3"/><g transform="translate(0 6.031)"><path d="M89.894,80.388c0,6.251,5.062,14.24,11.311,17.845l22.2,12.814c6.246,3.61,11.311,1.469,11.311-4.779v-22.2c0-6.251-5.065-14.236-11.311-17.842l-22.2-12.815c-6.251-3.607-11.311-1.466-11.311,4.783Z" transform="translate(-89.894 -51.658)" fill="#7de5ff"/></g><g transform="translate(5.37 16.628)"><g transform="translate(22.437 18.78)"><path d="M98.26,76.241V62.9c0-2.3,1.865-3.088,4.164-1.758l3.314,1.914c2.3,1.323,4.164,4.272,4.164,6.563V82.963c0,2.293-1.868,3.088-4.164,1.758l-3.314-1.914C100.125,81.486,98.26,78.537,98.26,76.241Zm4.164-11.707c-.426-.246-.774-.1-.774.326V78.2a1.617,1.617,0,0,0,.774,1.22l3.314,1.914c.426.243.771.1.771-.329V67.658a1.6,1.6,0,0,0-.771-1.213Z" transform="translate(-98.26 -60.494)" fill="#fff"/></g><path d="M94.378,78.088a5.574,5.574,0,0,1,.016-1.143,8.335,8.335,0,0,1-1.961-4.819,5.039,5.039,0,0,1,.223-1.612,7.445,7.445,0,0,1-1.143-3.666,2.158,2.158,0,0,1,1.7-2.406,5.637,5.637,0,0,1-.106-1.163c0-1.635.927-2.566,2.413-2.433a1.976,1.976,0,0,1,.23.043,4.87,4.87,0,0,1,1.535.585l.506.283c.931.512,2.782,1.542,3.453,1.931.6.342.7.313.7.313.3-.234.1-2.446-.013-3.766-.306-3.371,1.054-4.61,1.892-5.046a3.651,3.651,0,0,1,3.5.226c3.1,1.792,3.1,4.956,3.1,9.749v.708c.127,1.29,4.191,7.352,5.534,8.722a3.484,3.484,0,0,1,1.4,2.48V92.251a.873.873,0,0,1-.638.957c-2.592.565-9.566-3.157-13.5-5.421C100.68,86.325,94.744,82.9,94.378,78.088Zm19.575-1.935c-2.685-3.121-6.93-9.589-6.933-12.218v-.728a42.018,42.018,0,0,0-.136-4.454c-.721.056-1.8.788-1.585,3.111.259,2.9.469,5.185-.848,5.87-.731.382-1.785.17-3.214-.655-.658-.379-2.47-1.386-3.374-1.888l-.572-.319a.884.884,0,0,0-.313-.109l-.056-.01a.421.421,0,0,0-.429.482c0,.4.06.535.12.612a2.7,2.7,0,0,1,.711,2.32c-.213.6-.874.711-1.629.276-.435-.249-.795-.09-.795.366a1.839,1.839,0,0,0,.585,1.273,3.613,3.613,0,0,1,1.1,1.934c.083.652-.12,1.1-.6,1.193a1.609,1.609,0,0,0-.156.877,2.159,2.159,0,0,0,.771,1.442,3.852,3.852,0,0,1,1.267,1.556,1.871,1.871,0,0,1,.106,1.569,1.766,1.766,0,0,0-.209,1.12c.116,1.542,3.856,3.7,5.448,4.617,5.454,3.151,9.151,4.673,10.742,4.922Z" transform="translate(-91.512 -54.847)" fill="#fff"/></g></g><g transform="translate(27.21 268.193)"><path d="M49.572,116.791,58.241,111l.027.06c2.017-1.313,5.052-1.18,8.5.808L88.328,124.32c6.072,3.507,11,11.271,11,17.341v21.565c0,2.868-1.124,4.806-2.921,5.727l.043.023-8.579,5.747-1.585-8.032L66.764,155.426c-6.069-3.507-10.992-11.271-10.992-17.341V118.15Z" transform="translate(-46.949 -110.202)" fill="#fff" opacity="0.7"/><g transform="translate(0 5.846)"><path d="M48.783,139.876c0,6.069,4.922,13.837,10.992,17.338l21.565,12.451c6.072,3.507,11,1.426,11-4.643V143.452c0-6.069-4.922-13.834-11-17.338L59.775,113.663c-6.069-3.507-10.992-1.426-10.992,4.647Z" transform="translate(-48.783 -111.96)" fill="#f25f46"/></g><g transform="translate(4.569 15.363)"><path d="M67.317,150.5a4.844,4.844,0,0,1-1.645-1.745,59.712,59.712,0,0,0-6.833-9.523c-4.8-5.218-8.1-11.624-8.609-16.709-.638-6.3,3.088-9.3,8.476-6.848a21.288,21.288,0,0,1,8.659,8.048c2.367-.927,5.375-.345,8.656,1.953,5.391,3.769,9.12,11.078,8.483,16.636-.5,4.394-3.7,6.927-8.556,6.771A15.834,15.834,0,0,0,69,150.749a1.74,1.74,0,0,1-1.635-.22Zm1.9-21.063c-.811.8-2.9-.409-3.71-2.141-.547-1.167-2.725-5.335-6.265-6.947-2.616-1.19-5.065.07-4.643,4.228.359,3.536,2.746,8.094,6.236,11.893a64.867,64.867,0,0,1,6.571,8.709,17.122,17.122,0,0,1,6.432-1.172c3.589.113,5.943-1.641,6.292-4.688.419-3.672-2.031-7.761-4.647-9.586-.252-.18-.5-.336-.738-.475-3.135-1.812-5.022-.323-5.528.179Z" transform="translate(-50.158 -114.824)" fill="#fff"/></g></g><g transform="translate(367.028 280.565)"><path d="M151.468,117.681l4.94-3.3.016.034c1.15-.745,2.875-.668,4.84.469l12.289,7.1c3.46,1.994,6.265,6.419,6.265,9.875v12.292a3.388,3.388,0,0,1-1.665,3.26l.027.013-4.89,3.274-.9-4.58-11.126-6.421c-3.46-2-6.265-6.422-6.265-9.882V118.452Z" transform="translate(-149.976 -113.924)" fill="#fff" opacity="0.7"/><g transform="translate(0 3.333)"><path d="M151.019,130.834c0,3.46,2.8,7.884,6.259,9.882l12.292,7.093c3.46,2,6.262.814,6.262-2.649V132.872c0-3.461-2.8-7.884-6.262-9.878l-12.292-7.1c-3.457-2-6.259-.811-6.259,2.649Z" transform="translate(-151.019 -114.926)" fill="#f25f46"/></g><g transform="translate(2.601 8.755)"><path d="M161.584,136.888a2.8,2.8,0,0,1-.938-.994,33.612,33.612,0,0,0-3.9-5.428c-2.735-2.975-4.61-6.625-4.906-9.523-.363-3.583,1.762-5.3,4.836-3.9a12.1,12.1,0,0,1,4.929,4.583c1.346-.532,3.064-.2,4.933,1.11,3.071,2.15,5.2,6.312,4.833,9.483-.286,2.5-2.11,3.946-4.873,3.859a9.038,9.038,0,0,0-3.962.947.992.992,0,0,1-.931-.127Zm1.081-12c-.459.452-1.652-.234-2.11-1.224a8.573,8.573,0,0,0-3.573-3.955c-1.489-.678-2.885.04-2.649,2.406a13.143,13.143,0,0,0,3.557,6.78,36.81,36.81,0,0,1,3.746,4.962,9.761,9.761,0,0,1,3.663-.671c2.048.066,3.387-.938,3.586-2.669a6.485,6.485,0,0,0-2.646-5.469c-.143-.1-.286-.186-.422-.27-1.789-1.025-2.866-.177-3.155.109Z" transform="translate(-151.804 -116.558)" fill="#fff"/></g></g><g transform="translate(216.049 103.243)"><path d="M106.6,69.778l15.685-8.532v.06c2.15-1.2,5.258-.97,8.762,1.05l81.168,45.9c6.475,3.739,11.72,12.016,11.72,18.491v76.648c0,2.955-1.13,4.969-2.935,5.99l.043.034L205.208,218l-.279-13.774-73.886-41.781c-6.472-3.739-11.72-12.019-11.72-18.491V79.673Z" transform="translate(-103.276 -60.577)" fill="#fffdfd" opacity="0.699"/><path d="M105.6,146.6c0,6.475,5.248,14.755,11.72,18.491l81.169,45.9c6.472,3.739,11.72,1.519,11.72-4.953V129.393c0-6.472-5.248-14.751-11.72-18.487L117.32,65c-6.475-3.739-11.72-1.519-11.72,4.956Z" transform="translate(-105.6 -54.509)" fill="#fff"/><path d="M110.421,94.287c0,20.036,16.231,45.636,36.267,57.2s36.264,4.707,36.264-15.33c0-19.983-16.23-45.586-36.264-57.151S110.421,74.3,110.421,94.287Zm9.669,5.554c0-14.628,11.919-19.644,26.6-11.165s26.544,27.2,26.544,41.879-11.869,19.7-26.544,11.218-26.595-27.257-26.595-41.932Z" transform="translate(-94.384 -30.797)" fill="#f25f46"/><path d="M117.985,113.987H147.7L117.985,79.674Z" transform="translate(-76.805 -16.195)" fill="#f25f46"/></g><g transform="translate(128.101 95.295)"><path d="M2.94,8.357S6.753,5.191,8.4,4.634c0,0,7.913-4.086,9.181-4.634,0,0,1.653,1.309-.221,3.085a27.308,27.308,0,0,1-4.717,3.349,21.3,21.3,0,0,0,6.213-.529c2.359-.763,7.056-2.144,8.438-1.449s.234,1.83.234,1.83-7.216,2.11-8.76,2.578c-1.356.408-.829.877-.829.877s8.751-.52,10.314-.609,2.208.744,1.813,2.117c0,0-4.666.308-7.516.748-.99.156-4.454.062-4.219,1.172,0,0,7.545.334,8.822.234a1.25,1.25,0,0,1,1.2,2.071l-10.265.336s-.714.156-.452.587c.234.387,4.832,1.77,5.361,1.789s2.18.219,1.825,1.535c0,0-.183.431-1.734.266s-8.924-.7-8.924-.7a22.694,22.694,0,0,1-9.785-2.321c-4.934-2.484-4.927-4.688-3.685-1.8l.992-2.837Z" transform="matrix(0.934, -0.358, 0.358, 0.934, 103.608, 69.707)" fill="#ffcda9"/><g transform="translate(2.341 0)"><g transform="translate(15.072 0)"><path d="M363.238,278.486a9.026,9.026,0,1,0,9.61-8.4A9.026,9.026,0,0,0,363.238,278.486Z" transform="translate(-328.711 -259.632)" fill="#131637"/><path d="M364.823,273.553a6.157,6.157,0,1,0,6.553-5.733A6.157,6.157,0,0,0,364.823,273.553Z" transform="translate(-326.92 -262.169)" fill="#131637"/><path d="M371.934,270.815a2.24,2.24,0,1,1-2.446-2.014,2.24,2.24,0,0,1,2.446,2.014Z" transform="translate(-323.936 -261.063)" fill="#131637"/><path d="M372.06,272.12a2.24,2.24,0,1,1-2.446-2.014A2.24,2.24,0,0,1,372.06,272.12Z" transform="translate(-323.794 -259.595)" fill="#131637"/><path d="M392.529,272.891s-2.025-9.674-15.056-7.388c0,0-10.957-1.122-15.985,10.735a24.253,24.253,0,0,1,2.673,11.789c-.767,18.361-3.5,38.129-13.845,53.8-.17.257-.359.488-.534.739-.871,2.4-1.8,4.77-2.8,7.1,3.066,2.7,7.9,4.713,15.609,3.843a214.729,214.729,0,0,0,12.407-39.166l7.743-13.894,8.751-7.8S399.339,274.3,392.529,272.891Z" transform="translate(-346.977 -265.154)" fill="#131637"/><path d="M371.174,271.825c.013.183,3.848,9.069,3.886,15.93l-6.426-.266Z" transform="translate(-322.617 -257.65)" fill="#ff907d"/><path d="M379.164,269.532s12.407,9.94,1.5,33.827l-9.409-1.86-.75,11.219-12.262-.82.874-13.044a13.48,13.48,0,0,0,5.916-10.086s-6.283-.807-5.346-6.489c.6-3.623,5.782-3.965,7.1-.209l-.245,3.682s2.777-1.152,3.393-6.215c0,0,6.612-3.627,3.961-10.357Z" transform="translate(-334.302 -260.624)" fill="#ffcda9"/><path d="M367.766,279.726l5.9,1.2a46.634,46.634,0,0,1-1.587,5.582C366.516,285.078,367.766,279.726,367.766,279.726Z" transform="translate(-323.724 -248.762)" fill="#fff"/><path d="M372.676,271.121a3.581,3.581,0,1,1-3.907-3.221A3.581,3.581,0,0,1,372.676,271.121Z" transform="translate(-326.11 -262.084)" fill="#131637"/><path d="M372.767,274.337a5.5,5.5,0,1,1-6.007-4.947,5.5,5.5,0,0,1,6.007,4.947Z" transform="translate(-330.32 -260.417)" fill="#131637"/><path d="M371.854,287.079h0c-6.311-.423-12.418,4.424-11.975,10.732,2.7,38.5-10.964,71.642-10.964,71.642h42.7s-3.721-34.414-2.771-36.95,10.726-6.058,10.726-15.811l-16.786-23.117A14.057,14.057,0,0,0,371.854,287.079Z" transform="translate(-344.8 -240.522)" fill="#f25f46"/><path d="M381.106,325.486c.278-.745,1.328-1.583,2.657-2.631a85.446,85.446,0,0,1-3.516-14.358c-2.907-17.678-14.731-16.57-18.957-13.246-6.98,5.484-7.384,15.5-.867,28.753,6.763,13.756,14.721,23.12,22.53,29.515C381.925,343.144,380.471,327.188,381.106,325.486Z" transform="translate(-337.06 -233.508)" fill="#f25f46"/><path d="M365.172,290.62l.391.251,3.185.931a2.951,2.951,0,0,1,2.1,3.17l-.33,2.881a15.033,15.033,0,0,1,9.5,13.08" transform="translate(-326.513 -236.509)" fill="#fff"/><path d="M357.719,288.291l.24-1.285c-1.519.676,8.019-2.964,14.956,3.574l.64,4.568A34.7,34.7,0,0,0,357.719,288.291Z" transform="translate(-334.896 -241.037)" fill="#fff"/><path d="M355.483,287.751a6.233,6.233,0,1,0,5.605-6.8A6.233,6.233,0,0,0,355.483,287.751Z" transform="translate(-337.444 -247.423)" fill="#131637"/><path d="M353.9,289.427a4.59,4.59,0,1,0,4.126-5.011A4.59,4.59,0,0,0,353.9,289.427Z" transform="translate(-339.216 -243.511)" fill="#131637"/></g><path d="M358.361,297.791c1.172-5.244,9.63-13.582,23.062-1.73,16.077,14.185,32.146,21.443,61.469,12.579l4.938,8.937s-25.95,24.084-71.955,3.036C362.447,314.469,356.423,306.456,358.361,297.791Z" transform="translate(-337.825 -233.28)" fill="#f25f46"/><path d="M8.025,13.037,8.72.843,1.035,0,0,12.243Z" transform="matrix(0.883, -0.469, 0.469, 0.883, 100.75, 76.711)" fill="#fff"/><path d="M385.448,265.359s-13.661-2.244-19.1,17.6c0,0-1.925,34.248-18.165,48.989s-7.853,36.434,18.165,38.446a34.065,34.065,0,0,0,2.9-22.176s7.4-16.053,3.889-26.675c0,0,12.318-2.951,6.63-18.307-6.128-11.407,2.649-25.489,2.649-25.489l9.5-6.353Z" transform="translate(-339.882 -265.009)" fill="#131637"/></g><g transform="translate(0 128.929)"><path d="M415.9,400.045c0,8.109-16.835,14.683-37.6,14.683s-37.6-6.574-37.6-14.683,16.837-14.68,37.6-14.68S415.9,391.937,415.9,400.045Z" transform="translate(-336.639 -258.868)" fill="#f8a966" opacity="0.6"/><path d="M372.266,325.833h8.1L375.809,466.29h-6.043s-10.9-43.76-7.98-72.626c2.5-33.236-2.86-47.642-2.86-47.642" transform="translate(-316.131 -325.83)" fill="#00216c"/><path d="M398.014,325.832l-11.671,66.094-40.779,62.635-6.251-2.607s15.108-45,31.2-66.578l-8.149-32.691a68.97,68.97,0,0,1-2.649-26.855Z" transform="translate(-338.188 -325.829)" fill="#002a88"/><path d="M339.907,385.19l-.9,1.275a1.22,1.22,0,0,0,.234,1.651l18.21,14.183s.938-6.88-7.663-14.064A29.439,29.439,0,0,0,339.907,385.19Z" transform="translate(-338.783 -259.064)" fill="#000f1f"/><path d="M363.585,392.946v1.591a1.152,1.152,0,0,0,1.124,1.177h22.683s-3.157-6.109-14.142-6.5A29.757,29.757,0,0,0,363.585,392.946Z" transform="translate(-310.885 -254.537)" fill="#000f1f"/></g><g transform="matrix(0.934, -0.358, 0.358, 0.934, 27.618, 72.164)"><path d="M3.584,3.194C7.156-.822,18.6-4,24.583,12.882,31.746,33.089,42.268,47.238,72.2,53.736l-.023,10.207S37.8,72.394,7.81,31.648C-.944,19.753-2.318,9.824,3.584,3.194Z" transform="translate(0 0)" fill="#f25f46"/><path d="M2.94,8.357S6.753,5.191,8.4,4.634c0,0,7.913-4.086,9.181-4.634,0,0,1.653,1.309-.221,3.085a27.308,27.308,0,0,1-4.717,3.349,21.3,21.3,0,0,0,6.213-.529c2.359-.763,7.056-2.144,8.438-1.449s.234,1.83.234,1.83-7.216,2.11-8.76,2.578c-1.356.408-.829.877-.829.877s8.751-.52,10.314-.609,2.208.744,1.813,2.117c0,0-4.666.308-7.516.748-.99.156-4.454.062-4.219,1.172,0,0,7.545.334,8.822.234a1.25,1.25,0,0,1,1.2,2.071l-10.265.336s-.714.156-.452.587c.234.387,4.832,1.77,5.361,1.789s2.18.219,1.825,1.535c0,0-.183.431-1.734.266s-8.924-.7-8.924-.7a22.694,22.694,0,0,1-9.785-2.321c-4.934-2.484-4.927-4.688-3.685-1.8l.992-2.837Z" transform="translate(68.08 47.773)" fill="#ffcda9"/><path d="M8.025,13.037,8.72.843,1.035,0,0,12.243Z" transform="translate(65.55 52.428)" fill="#fff"/></g></g><g transform="translate(344.028 179.817)"><path d="M187.594,98.776,164.467,85.421c-4.205-2.426-7.874-2.324-9.958-.209l-.02-.034-9.414,5.441,7.6,4.717v18.192c0,6.512,5.279,14.834,11.789,18.6l20.818,12.019.313,9.018,10.307-6.312h0c2.15-.894,3.483-3.082,3.483-6.348V117.373C199.38,110.859,194.1,102.535,187.594,98.776Z" transform="translate(-141.832 -83.614)" fill="#fff" opacity="0.7"/><path d="M190.8,142.45c0,6.508-5.279,8.738-11.789,4.979l-23.127-13.352C149.375,130.322,144.1,122,144.1,115.488V92.36c0-6.512,5.275-8.741,11.783-4.983l23.127,13.349c6.512,3.759,11.789,12.086,11.789,18.6Z" transform="translate(-144.1 -79.112)" fill="#76db76"/><path d="M179.643,102.741c-1.659-2.616-4.344-4.164-6-3.467l-12.391,10.548L153.1,93.791c-1.659-2.616-4.347-4.168-6.006-3.467s-1.659,3.39,0,6.006l11.148,20.765a9.076,9.076,0,0,0,3,2.978,3.488,3.488,0,0,0,3,.488l15.392-11.813C181.3,108.047,181.3,105.361,179.643,102.741Z" transform="translate(-140.022 -68.41)" fill="#fff"/></g><g transform="translate(121.245 23.861)" opacity="0.8"><path d="M103.508,45.909,89.454,37.793c-2.56-1.476-4.786-1.406-6.053-.13l-.01-.016-5.724,3.307,4.62,2.865V54.876c0,3.962,3.207,9.017,7.166,11.3l12.65,7.306.186,5.478,6.269-3.836h0c1.306-.541,2.117-1.875,2.117-3.859V57.21C110.674,53.254,107.466,48.192,103.508,45.909Z" transform="translate(-75.693 -36.696)" fill="#fff" opacity="0.7"/><path d="M105.456,72.452c0,3.959-3.207,5.313-7.163,3.028L84.237,67.366c-3.955-2.284-7.163-7.344-7.163-11.3V42c0-3.955,3.207-5.308,7.163-3.025L98.3,47.094c3.955,2.287,7.163,7.344,7.163,11.3Z" transform="translate(-77.074 -33.959)" fill="#76db76"/><path d="M98.676,48.32c-1-1.592-2.639-2.533-3.646-2.11L87.5,52.618l-4.949-9.737c-1.01-1.592-2.642-2.536-3.65-2.11s-1.01,2.057,0,3.65l6.774,12.621A5.6,5.6,0,0,0,87.5,58.853a2.122,2.122,0,0,0,1.825.3l9.353-7.183C99.686,51.542,99.686,49.913,98.676,48.32Z" transform="translate(-74.595 -27.454)" fill="#fff"/></g></g></g></svg>