<svg xmlns="http://www.w3.org/2000/svg" xmlns:xlink="http://www.w3.org/1999/xlink" width="608" height="510" viewBox="0 0 608 510"><defs><linearGradient id="a" x1="163.627" y1="1" x2="163.627" gradientUnits="objectBoundingBox"><stop offset="0" stop-color="#fff"/><stop offset="0.365" stop-color="#fff"/><stop offset="0.542" stop-color="#fff"/><stop offset="1" stop-color="#fff"/></linearGradient><clipPath id="c"><rect width="608" height="510"/></clipPath></defs><g id="b" clip-path="url(#c)"><rect width="608" height="510" fill="#fff"/><g transform="translate(0.209 -0.449)"><g transform="translate(0 0)"><g transform="translate(0)"><path d="M651.224,353.981c29.367-61.3-15.562-136.67-70.842-167.764C536.095,161.3,481.33,151.083,431.4,161.71c-43.694,9.3-82.919,33.461-127.1,40.842-62.719,10.478-124.191-17.175-179.042,27.013-26.7,21.5-44.671,52.678-53.567,85.783C44.336,417.131,101.951,506.834,188.433,556.157c62.212,35.482,140.386,39.326,206.524,12.5,49.995-20.278,81.327-59.465,113.828-100.671C526.519,445.5,546.674,423,572.653,409.967c24.021-12.054,48.638-14.413,66.6-36.971A99.465,99.465,0,0,0,651.224,353.981Z" transform="translate(-64.829 -157.539)" fill="#fdefda"/><path d="M431.632,309.93a57.646,57.646,0,0,0-23.672-8.455c-65.629-7.994-97.958,99.486-25.711,108.6C435.984,416.855,488.778,345.966,431.632,309.93Z" transform="translate(151.459 -45.221)" fill="#fdefda"/></g><g transform="translate(42.161 92.236)"><g transform="translate(129.44 124.992)"><path d="M418.071,234.258a.325.325,0,0,1-.325-.325.878.878,0,0,0-1.755,0,.325.325,0,1,1-.65,0,1.525,1.525,0,1,1,3.049,0,.325.325,0,0,1-.319.325Z" transform="translate(-415.341 -232.409)" fill="#fff"/><g transform="translate(4.751 0)"><path d="M421.3,234.258a.325.325,0,0,1-.325-.325.878.878,0,0,0-1.755,0,.325.325,0,1,1-.646,0,1.525,1.525,0,1,1,3.049,0A.325.325,0,0,1,421.3,234.258Z" transform="translate(-418.57 -232.409)" fill="#fff"/></g></g><path d="M419.686,240.392a5.132,5.132,0,0,0,5.131-5.131H414.554a5.133,5.133,0,0,0,5.132,5.132Z" transform="translate(-286.28 -106.07)" fill="#fff"/><g transform="translate(0 0)"><rect width="38.912" height="6.552" transform="translate(4.455)" fill="#ffdea9"/><rect width="2.283" height="57.138" fill="#e2ebf4"/><rect width="44.547" height="6.552" transform="translate(4.455 9.436)" fill="#ffdea9"/><rect width="29.346" height="6.552" transform="translate(4.455 18.871)" fill="#ffdea9"/><rect width="5.593" height="6.552" transform="translate(4.455 37.743)" fill="#ffdea9"/><rect width="13.392" height="6.552" transform="translate(13.536 37.743)" fill="#ffdea9"/></g><g transform="translate(522.078 113.821) rotate(180)"><rect width="38.912" height="6.552" transform="translate(4.455)" fill="#ffdea9"/><rect width="2.283" height="57.138" fill="#e2ebf4"/><rect width="44.547" height="6.552" transform="translate(4.455 9.436)" fill="#ffdea9"/><rect width="29.346" height="6.552" transform="translate(4.455 18.871)" fill="#ffdea9"/><rect width="5.593" height="6.552" transform="translate(4.455 37.743)" fill="#ffdea9"/><rect width="13.392" height="6.552" transform="translate(13.536 37.743)" fill="#ffdea9"/></g></g></g></g><g transform="translate(127.437 80.589)"><g transform="translate(14.073 0)"><g transform="translate(0 0)"><g transform="translate(0)"><path d="M0,0H317.191V211.464a8.711,8.711,0,0,1-8.711,8.711H0Z" transform="translate(0 29.585)" fill="#ffdea9" opacity="0.67"/><rect width="148.813" height="2.515" transform="translate(152.467 214.848)" fill="#fffaff"/><rect width="148.813" height="2.515" transform="translate(152.467 224.035)" fill="#fffaff"/><rect width="148.813" height="2.515" transform="translate(152.467 233.221)" fill="#fffaff"/><path d="M3.912,0H203.124a3.912,3.912,0,0,1,3.912,3.912V115.15a3.912,3.912,0,0,1-3.912,3.912H3.912A3.912,3.912,0,0,1,0,115.15V3.912A3.912,3.912,0,0,1,3.912,0Z" transform="translate(92.753 89.051)" fill="#fff"/><path d="M0,0H317.191V24.845H0Z" transform="translate(0 29.585)" fill="#f7882d"/><g transform="translate(5.263 36.815)"><path d="M446.337,160.054a5.187,5.187,0,1,1-1.517-3.672,5.188,5.188,0,0,1,1.517,3.672Z" transform="translate(-435.961 -154.861)" fill="#ffca1c"/><path d="M443.717,159.147a3.477,3.477,0,1,1-3.477-3.479A3.477,3.477,0,0,1,443.717,159.147Z" transform="translate(-435.052 -153.954)" fill="#ffc550"/></g><g transform="translate(19.882 36.815)"><path d="M453.2,160.054a5.19,5.19,0,1,1-5.192-5.193,5.19,5.19,0,0,1,5.192,5.193Z" transform="translate(-442.818 -154.861)" fill="#ffca1c"/><ellipse cx="3.477" cy="3.477" rx="3.477" ry="3.477" transform="translate(1.712 1.715)" fill="#ffc550"/></g><g transform="translate(34.5 36.815)"><path d="M460.055,160.054a5.19,5.19,0,1,1-5.192-5.193,5.19,5.19,0,0,1,5.192,5.193Z" transform="translate(-449.676 -154.861)" fill="#ffca1c"/><path d="M457.435,159.147a3.478,3.478,0,1,1-3.478-3.479A3.478,3.478,0,0,1,457.435,159.147Z" transform="translate(-448.767 -153.954)" fill="#ffc550"/></g><path d="M0,0H22.658A2.121,2.121,0,0,1,24.78,2.121v9.648H0Z" transform="translate(127.691 17.819)" fill="#fff"/><path d="M511.959,153.076H499.473l-.59-3.023Z" transform="translate(-359.492 -123.491)" fill="#d6f0ff"/><path d="M0,0H45.094a4.462,4.462,0,0,1,4.462,4.462V20.907H0Z" transform="translate(91.163 8.678)" fill="#f25f46"/><path d="M510.462,153.7l-20.64-4.2,2.531,4.2Z" transform="translate(-369.745 -124.118)" fill="#cb4c37"/><path d="M0,0H114.987a7.621,7.621,0,0,1,7.621,7.621V29.586H0Z" fill="#ffc550"/><path d="M556.1,156.809,433.491,146.755v10.054Z" transform="translate(-433.491 -127.224)" fill="#deab44"/><path d="M0,0H145.379V4.49H0Z" transform="translate(92.753 73.37)"/><rect width="58.006" height="4.49" transform="translate(92.753 61.153)"/><rect width="47.717" height="3.913" transform="translate(241.402 186.628)"/><path d="M0,0H47.717V3.913H0Z" transform="translate(241.402 195.078)"/><path d="M1.317,0H68.236c.726,0,1.317,1.751,1.317,3.912V115.15c0,2.16-.585,3.912-1.317,3.912H1.317C.591,119.062,0,117.311,0,115.15V3.912C0,1.751.585,0,1.317,0Z" transform="translate(10.451 89.051)" fill="#fff"/></g></g></g><g transform="translate(0 219.471)"><path d="M1.768,5.026A18.2,18.2,0,0,1,5.054,2.787S9.813.33,10.576,0c0,0,.994.787-.133,1.856A16.422,16.422,0,0,1,7.607,3.87a12.727,12.727,0,0,0,3.737-.318c1.418-.46,4.242-1.29,5.075-.872s.146,1.1.146,1.1-4.34,1.271-5.266,1.55c-.816.245-.5.528-.5.528s5.261-.313,6.2-.366,1.328.448,1.09,1.273c0,0-2.807.185-4.52.45-.6.092-2.677.037-2.535.7,0,0,4.535.2,5.306.146a.75.75,0,0,1,.715,1.243l-6.181.2s-.429.094-.272.353a14.525,14.525,0,0,0,3.224,1.076c.318.012,1.311.132,1.1.923,0,0-.11.26-1.043.159S8.518,11.6,8.518,11.6A13.649,13.649,0,0,1,2.633,10.2C-.334,8.709-.33,7.382.417,9.123l.6-1.706Z" transform="translate(234.771 90.389) rotate(87)" fill="#ffcda9"/><g transform="translate(195.731 15.246)"><g transform="translate(9.062 0)"><path d="M363.229,275.129a5.429,5.429,0,1,0,5.778-5.054,5.429,5.429,0,0,0-5.778,5.054Z" transform="translate(-342.465 -263.79)" fill="#131637"/><path d="M364.818,271.263a3.7,3.7,0,1,0,3.941-3.448A3.7,3.7,0,0,0,364.818,271.263Z" transform="translate(-342.022 -264.416)" fill="#131637"/><path d="M370.152,270.008a1.347,1.347,0,1,1-1.471-1.211A1.347,1.347,0,0,1,370.152,270.008Z" transform="translate(-341.285 -264.143)" fill="#131637"/><path d="M370.278,271.313a1.347,1.347,0,1,1-.484-.911A1.347,1.347,0,0,1,370.278,271.313Z" transform="translate(-341.249 -263.78)" fill="#131637"/><path d="M374.375,269.807s-1.218-5.819-9.056-4.443c0,0-6.59-.674-9.614,6.456a14.587,14.587,0,0,1,1.609,7.09c-.462,11.045-2.1,22.933-8.327,32.359-.1.154-.219.293-.321.445-.524,1.442-1.085,2.869-1.687,4.269,1.844,1.623,4.754,2.834,9.388,2.312a129.14,129.14,0,0,0,7.461-23.557l4.657-8.357,5.266-4.693S378.471,270.654,374.375,269.807Z" transform="translate(-346.979 -265.153)" fill="#131637"/><path d="M370.163,271.825c.007.11,2.314,5.454,2.341,9.582l-3.865-.159Z" transform="translate(-340.96 -263.299)" fill="#ffcda9"/><path d="M370.827,269.391s7.461,5.978.9,20.345l-5.659-1.118-.451,6.747-7.375-.493.525-7.845a8.108,8.108,0,0,0,3.558-6.067s-3.779-.486-3.218-3.9a2.2,2.2,0,0,1,4.272-.125l-.146,2.215s1.671-.693,2.041-3.738c0,0,3.977-2.181,2.382-6.229Z" transform="translate(-343.846 -264.034)" fill="#ffcda9"/><path d="M367.716,279.726l3.55.723a28.03,28.03,0,0,1-.955,3.357,3.373,3.373,0,0,1-2.6-4.081Z" transform="translate(-341.226 -261.103)" fill="#fff"/><path d="M369.828,269.831a2.154,2.154,0,1,1-2.352-1.938A2.154,2.154,0,0,1,369.828,269.831Z" transform="translate(-341.822 -264.395)" fill="#131637"/><path d="M368.392,272.356a3.31,3.31,0,1,1-3.613-2.975A3.31,3.31,0,0,1,368.392,272.356Z" transform="translate(-342.863 -263.984)" fill="#131637"/><path d="M362.711,287.068h0c-3.8-.255-7.469,2.661-7.2,6.455,1.623,23.154-6.595,43.089-6.595,43.089H374.6s-2.237-20.7-1.666-22.224,6.451-3.643,6.451-9.509l-10.094-13.905a8.455,8.455,0,0,0-6.577-3.906Z" transform="translate(-346.44 -259.066)" fill="#f25f46"/><path d="M371.018,312.656a5.193,5.193,0,0,1,1.6-1.582,51.391,51.391,0,0,1-2.112-8.635c-1.748-10.633-8.86-9.966-11.4-7.967-4.2,3.3-4.441,9.324-.522,17.295a52.169,52.169,0,0,0,13.551,17.752C371.511,323.273,370.637,313.677,371.018,312.656Z" transform="translate(-344.529 -257.334)" fill="#f25f46"/><path d="M365.172,290.62l.234.151,1.916.56a1.775,1.775,0,0,1,1.265,1.907l-.2,1.733a9.041,9.041,0,0,1,5.711,7.867" transform="translate(-341.922 -258.075)" fill="#fff"/><path d="M357.719,287.615l.146-.773c-.914.407,4.823-1.783,9,2.15l.385,2.747A20.872,20.872,0,0,0,357.719,287.615Z" transform="translate(-343.993 -259.194)" fill="#fff"/><path d="M355.471,285.027a3.749,3.749,0,1,0,3.371-4.092A3.749,3.749,0,0,0,355.471,285.027Z" transform="translate(-344.623 -260.772)" fill="#131637"/><path d="M353.9,287.422a2.76,2.76,0,1,0,2.482-3.013,2.76,2.76,0,0,0-2.482,3.013Z" transform="translate(-345.062 -259.805)" fill="#131637"/></g><path d="M.215,4.675C.92,1.521,6.006-3.493,14.086,3.635c9.669,8.531,19.334,12.9,36.97,7.565l2.97,5.375S38.418,31.058,10.749,18.4C2.671,14.705-.956,9.887.215,4.675Z" transform="translate(32.557 32.091) rotate(73)" fill="#f25f46"/><path d="M4.827,7.841,5.244.507.622,0,0,7.363Z" transform="matrix(0.342, -0.94, 0.94, 0.342, 45.309, 7.604)" fill="#fff"/><path d="M367.291,265.328s-8.216-1.349-11.483,10.587c0,0-1.158,20.6-10.925,29.466s-4.724,21.913,10.925,23.124a20.487,20.487,0,0,0,1.746-13.338s4.449-9.655,2.341-16.043c0,0,7.409-1.775,3.987-11.011-3.686-6.86,1.594-15.33,1.594-15.33l5.715-3.821Z" transform="translate(-339.889 -265.118)" fill="#131637"/></g><g transform="translate(194.317 92.789)"><path d="M385.922,394.194c0,4.877-10.125,8.831-22.616,8.831s-22.617-3.954-22.617-8.831,10.127-8.829,22.617-8.829S385.922,389.318,385.922,394.194Z" transform="translate(-338.251 -309.282)" fill="#f8a966" opacity="0.6"/><path d="M366.947,325.833h4.869l-2.737,84.481h-3.636s-6.554-26.32-4.8-43.681c1.505-19.99-1.72-28.655-1.72-28.655" transform="translate(-333.183 -325.829)" fill="#00216c"/><path d="M374.618,325.832,367.6,365.584,343.07,403.253l-3.76-1.568s9.087-27.063,18.766-40.044l-4.9-19.66a41.481,41.481,0,0,1-1.594-16.152Z" transform="translate(-338.633 -325.828)" fill="#002a88"/><path d="M339.458,385.19l-.543.767a.731.731,0,0,0,.139.993l10.952,8.531s.563-4.138-4.608-8.459a17.7,17.7,0,0,0-5.94-1.832Z" transform="translate(-338.78 -309.33)" fill="#000f1f"/><path d="M363.585,391.459v.957a.693.693,0,0,0,.676.708H377.9s-1.9-3.674-8.507-3.908A17.9,17.9,0,0,0,363.585,391.459Z" transform="translate(-331.887 -308.211)" fill="#000f1f"/></g><g transform="matrix(0.934, -0.358, 0.358, 0.934, 206.069, 24.36)"><path d="M2.156,1.92C4.3-.493,11.186-2.408,14.786,7.748,19.094,19.9,25.423,28.411,43.428,32.319l-.014,6.14S22.733,43.541,4.7,19.035C-.568,11.881-1.395,5.909,2.156,1.92Z" transform="matrix(0.53, -0.848, 0.848, 0.53, 0, 36.827)" fill="#f25f46"/><path d="M1.768,5.026A18.2,18.2,0,0,1,5.054,2.787S9.813.33,10.576,0c0,0,.994.787-.133,1.856A16.422,16.422,0,0,1,7.607,3.87a12.727,12.727,0,0,0,3.737-.318c1.418-.46,4.242-1.29,5.075-.872s.146,1.1.146,1.1-4.34,1.271-5.266,1.55c-.816.245-.5.528-.5.528s5.261-.313,6.2-.366,1.328.448,1.09,1.273c0,0-2.807.185-4.52.45-.6.092-2.677.037-2.535.7,0,0,4.535.2,5.306.146a.75.75,0,0,1,.715,1.243l-6.181.2s-.429.094-.272.353a14.525,14.525,0,0,0,3.224,1.076c.318.012,1.311.132,1.1.923,0,0-.11.26-1.043.159S8.518,11.6,8.518,11.6A13.649,13.649,0,0,1,2.633,10.2C-.334,8.709-.33,7.382.417,9.123l.6-1.706Z" transform="matrix(0.857, -0.515, 0.515, 0.857, 46.203, 13.543)" fill="#ffcda9"/><path d="M4.827,7.841,5.244.507.622,0,0,7.363Z" transform="matrix(0.53, -0.848, 0.848, 0.53, 47.634, 20.102)" fill="#fff"/></g><g transform="translate(0 173.261)"><path d="M398.651,396.679c0,6.249-12.974,11.315-28.98,11.315s-28.982-5.067-28.982-11.315,12.976-11.314,28.982-11.314S398.651,390.43,398.651,396.679Z" transform="translate(-340.689 -385.365)" fill="#f8a966" opacity="0.6"/></g></g><g transform="translate(4.115 208.116)"><path d="M581.123,220.567l.375,2.472-2.316.252-.89-1.691Z" transform="translate(-546.225 -196.196)" fill="#fff"/><path d="M587.009,234.14v-3.711a11.214,11.214,0,0,0,5.748-1.031V226a4.523,4.523,0,0,1-2.4-1.334l2.4-.889L592.312,222l1.938-1.118-3.093-5.282-.267-3.112-1.956,1.334-.889,5.688-1.036-2.221s-1.841-1-2.519.8a2.414,2.414,0,0,0,2.519,3.291l-1.1,6.489H577.2v6.271Z" transform="translate(-557.486 -199.16)" fill="#ffcda9"/><path d="M593.2,220.872l1.032,2.826.892-6.29s6.046-.445,6.046-5.333l-2.091.108s1.9-4.174-1.457-7.08l-2.042,2.163a4.67,4.67,0,0,0-4.636-4.526l-.925,2.978s-7.808-.2-11.2,6.372l-.924-1.028.41,1.644-1.644.512,1.746.719s-4.009,10.571,4.983,17.513v1.39l1.9-1.39h6.809l1.1-6.489a2.66,2.66,0,0,1-2.619-2.25A1.756,1.756,0,0,1,593.2,220.872Z" transform="translate(-563.68 -202.74)" fill="#131637"/><path d="M580.443,228.683s5.034-2.981,13.29,0l1.923,3.673-15.789-.819Z" transform="translate(-562.537 -193.703)" fill="#fff"/><path d="M595.54,231.046a20.992,20.992,0,0,0-15.019-1.676l-.339,1.682,9.956.517,5.4-.521Z" transform="translate(-562.852 -193.216)" opacity="0.4" fill="url(#a)"/><path d="M577.2,214.767l1.156,6.4,1.938-1.118Z" transform="translate(-543.529 -198.324)" fill="#ffcda9"/><path d="M599.049,232.864a245.949,245.949,0,0,0-6.327,34.243s1.536,13.281,4.1,19.31c2.853-16.9,4.754-34.649,4.754-34.649Z" transform="translate(-586.03 -191.683)" fill="#457bf4"/><path d="M578.517,234.109s8.744-9.126,26.844-1.773l6.343,52.042-3.345,4.277h-33.9S572.825,256.425,578.517,234.109Z" transform="translate(-567.546 -192.928)" fill="#457bf4"/><path d="M0,7.36,5.345,2.254l.107,2.607L11.137,0A12.774,12.774,0,0,1,3.085,10.822Z" transform="translate(46.692 21.839) rotate(-76)" fill="#ffcda9"/><path d="M7.208,0s4.5,23.079,13.967,26.139c7.139,2.309,11.1-.4,11.1-.4l4.389,5.024a21.415,21.415,0,0,1-18.088,4.273C4.608,32.038.212,17.275.212,17.275S-1.9,2.262,7.208,0Z" transform="translate(21.397 51.884) rotate(-76)" fill="#457bf4"/><rect width="3.743" height="6.671" transform="matrix(0.456, 0.89, -0.89, 0.456, 58.408, 20.425)" fill="#fff"/><path d="M566.175,346.627v1.355a1,1,0,0,0,1.005,1.006h20.283s-2.824-5.209-12.649-5.542A27.355,27.355,0,0,0,566.175,346.627Z" transform="translate(-535.628 -151.101)" fill="#000f1f"/><path d="M591.956,345.189V347.2a1.23,1.23,0,0,0,1.23,1.23h2.744a3.626,3.626,0,0,0,1.274-.233l11.186-4.217s-3-3.478-9.655-1.265Z" transform="translate(-591.797 -151.638)" fill="#000f1f"/><path d="M581.146,272.766l-1.63,53.687a82.865,82.865,0,0,0-2.564,8.272c-3.2,12.134-2.684,36.279-2.684,36.279s3.013,2.83,6.909-.387l10.391-46.786,6.546-31.51,4.325,30.417s-2.667,7.022-1.488,19.09c.731,7.534,3.834,30.734,3.834,30.734s5.718-.41,8.138-3.08l2.128-55.808V272.766Z" transform="translate(-574.238 -177.04)"/><path d="M599.618,289.9l-2.667-4.854-10.324-5.694,6.2,6.446-1.317,42.637Z" transform="translate(-575.742 -174.62)"/><path d="M608.261,272.766l-34.023,3.87.118-3.87Z" transform="translate(-567.447 -177.04)" fill="#001f5f"/></g><g transform="translate(221.923 189.602)"><rect width="29.323" height="21.505" transform="translate(0)" fill="#457bf4"/><path d="M279.575,318.592H268.783a.779.779,0,0,0-.783.78v2.987a.78.78,0,0,0,.78.781h2.146v23.635h6.51V323.141h2.142a.781.781,0,0,0,.781-.781v-2.987a.78.78,0,0,0-.784-.78Z" transform="translate(-259.517 -298.938)" fill="#e3e3e3"/><path d="M260.633,298.051q.5-.078,1.166-.126c.439-.031.992-.047,1.654-.047a9.089,9.089,0,0,1,1.638.141,4.1,4.1,0,0,1,1.347.481,2.5,2.5,0,0,1,.906.906,2.794,2.794,0,0,1,.328,1.418,2.843,2.843,0,0,1-.146.936,2.622,2.622,0,0,1-.4.756,2.434,2.434,0,0,1-.568.535,1.531,1.531,0,0,1-.644.26,3.452,3.452,0,0,1,.8.219,2.726,2.726,0,0,1,.818.512,2.68,2.68,0,0,1,.632.874,3.03,3.03,0,0,1,.251,1.292,3.277,3.277,0,0,1-.385,1.676,2.833,2.833,0,0,1-1.04,1.032,4.448,4.448,0,0,1-1.51.52,11.175,11.175,0,0,1-1.8.141c-.484,0-.961-.013-1.434-.04s-1.007-.073-1.609-.146Zm2.977,4.6a3.594,3.594,0,0,0,.731-.073,1.536,1.536,0,0,0,.59-.253,1.211,1.211,0,0,0,.4-.489,1.862,1.862,0,0,0,.141-.778,1.51,1.51,0,0,0-.165-.749,1.264,1.264,0,0,0-.426-.456,1.569,1.569,0,0,0-.585-.219,3.8,3.8,0,0,0-.637-.055,4.867,4.867,0,0,0-.742.048v3.024Zm-.694,5.009c.146.021.319.037.512.048s.371.015.527.015a4.071,4.071,0,0,0,.693-.063,2.1,2.1,0,0,0,.679-.244,1.491,1.491,0,0,0,.519-.5,1.55,1.55,0,0,0,.206-.843,1.827,1.827,0,0,0-.159-.81,1.306,1.306,0,0,0-.448-.52,1.857,1.857,0,0,0-.692-.276,4.652,4.652,0,0,0-.891-.078h-.946Z" transform="translate(-257.538 -293.375)" fill="#fff"/><path d="M273.617,298.1a7.177,7.177,0,0,1,1.15-.094,7.491,7.491,0,0,1,1.165.094v11.324a7.468,7.468,0,0,1-1.15.094,7.333,7.333,0,0,1-1.165-.094Z" transform="translate(-261.025 -293.41)" fill="#fff"/><path d="M279.859,298.067c.439-.052.9-.1,1.39-.134s1.017-.055,1.6-.055a6.319,6.319,0,0,1,4.531,1.48,5.866,5.866,0,0,1,1.551,4.442,5.573,5.573,0,0,1-1.576,4.378,6.834,6.834,0,0,1-4.676,1.4q-.8,0-1.48-.056t-1.34-.133Zm2.315,9.5c.1.011.215.02.366.031s.326.016.536.016a5.264,5.264,0,0,0,1.347-.166,2.431,2.431,0,0,0,1.079-.606,3.1,3.1,0,0,0,.725-1.181,6.9,6.9,0,0,0,0-3.8,3.072,3.072,0,0,0-.725-1.2,2.592,2.592,0,0,0-1.047-.623,4.308,4.308,0,0,0-1.252-.18q-.219,0-.512.007a4.88,4.88,0,0,0-.512.039Z" transform="translate(-262.702 -293.375)" fill="#fff"/></g><g transform="translate(43.453 181.557)"><rect width="29.323" height="21.505" transform="translate(0)" fill="#f25f46"/><path d="M279.575,318.592H268.783a.779.779,0,0,0-.783.78v2.987a.78.78,0,0,0,.78.781h2.146v23.635h6.51V323.141h2.142a.781.781,0,0,0,.781-.781v-2.987a.78.78,0,0,0-.784-.78Z" transform="translate(-259.517 -298.938)" fill="#e3e3e3"/><path d="M260.633,298.051q.5-.078,1.166-.126c.439-.031.992-.047,1.654-.047a9.089,9.089,0,0,1,1.638.141,4.1,4.1,0,0,1,1.347.481,2.5,2.5,0,0,1,.906.906,2.794,2.794,0,0,1,.328,1.418,2.843,2.843,0,0,1-.146.936,2.622,2.622,0,0,1-.4.756,2.434,2.434,0,0,1-.568.535,1.531,1.531,0,0,1-.644.26,3.452,3.452,0,0,1,.8.219,2.726,2.726,0,0,1,.818.512,2.68,2.68,0,0,1,.632.874,3.03,3.03,0,0,1,.251,1.292,3.277,3.277,0,0,1-.385,1.676,2.833,2.833,0,0,1-1.04,1.032,4.448,4.448,0,0,1-1.51.52,11.175,11.175,0,0,1-1.8.141c-.484,0-.961-.013-1.434-.04s-1.007-.073-1.609-.146Zm2.977,4.6a3.594,3.594,0,0,0,.731-.073,1.536,1.536,0,0,0,.59-.253,1.211,1.211,0,0,0,.4-.489,1.862,1.862,0,0,0,.141-.778,1.51,1.51,0,0,0-.165-.749,1.264,1.264,0,0,0-.426-.456,1.569,1.569,0,0,0-.585-.219,3.8,3.8,0,0,0-.637-.055,4.867,4.867,0,0,0-.742.048v3.024Zm-.694,5.009c.146.021.319.037.512.048s.371.015.527.015a4.071,4.071,0,0,0,.693-.063,2.1,2.1,0,0,0,.679-.244,1.491,1.491,0,0,0,.519-.5,1.55,1.55,0,0,0,.206-.843,1.827,1.827,0,0,0-.159-.81,1.306,1.306,0,0,0-.448-.52,1.857,1.857,0,0,0-.692-.276,4.652,4.652,0,0,0-.891-.078h-.946Z" transform="translate(-257.538 -293.375)" fill="#ffc550"/><path d="M273.617,298.1a7.177,7.177,0,0,1,1.15-.094,7.491,7.491,0,0,1,1.165.094v11.324a7.468,7.468,0,0,1-1.15.094,7.333,7.333,0,0,1-1.165-.094Z" transform="translate(-261.025 -293.41)" fill="#ffc550"/><path d="M279.859,298.067c.439-.052.9-.1,1.39-.134s1.017-.055,1.6-.055a6.319,6.319,0,0,1,4.531,1.48,5.866,5.866,0,0,1,1.551,4.442,5.573,5.573,0,0,1-1.576,4.378,6.834,6.834,0,0,1-4.676,1.4q-.8,0-1.48-.056t-1.34-.133Zm2.315,9.5c.1.011.215.02.366.031s.326.016.536.016a5.264,5.264,0,0,0,1.347-.166,2.431,2.431,0,0,0,1.079-.606,3.1,3.1,0,0,0,.725-1.181,6.9,6.9,0,0,0,0-3.8,3.072,3.072,0,0,0-.725-1.2,2.592,2.592,0,0,0-1.047-.623,4.308,4.308,0,0,0-1.252-.18q-.219,0-.512.007a4.88,4.88,0,0,0-.512.039Z" transform="translate(-262.702 -293.375)" fill="#ffc550"/></g><text transform="translate(168.966 160.634)" fill="#f7882d" font-size="35" font-family="Roboto-Bold, Roboto" font-weight="700"><tspan x="0" y="0">AD</tspan></text><text transform="translate(37.307 160.634)" fill="#457bf4" font-size="35" font-family="Roboto-Bold, Roboto" font-weight="700"><tspan x="0" y="0">AD</tspan></text></g></g></svg>