<svg xmlns="http://www.w3.org/2000/svg" xmlns:xlink="http://www.w3.org/1999/xlink" width="608" height="435" viewBox="0 0 608 435"><defs><linearGradient id="a" x1="163.627" y1="1" x2="163.627" gradientUnits="objectBoundingBox"><stop offset="0" stop-color="#fff"/><stop offset="0.365" stop-color="#fff"/><stop offset="0.542" stop-color="#fff"/><stop offset="1" stop-color="#fff"/></linearGradient><clipPath id="c"><rect width="608" height="435"/></clipPath></defs><g id="b" clip-path="url(#c)"><rect width="608" height="435" fill="#fff"/><g transform="translate(0.209 -0.449)"><g transform="translate(0 0)"><path d="M651.225,353.981c29.367-61.3-15.562-136.67-70.842-167.764C536.095,161.3,481.329,151.083,431.4,161.71c-43.694,9.3-82.919,33.461-127.1,40.842-62.719,10.478-124.191-17.175-179.042,27.013-26.7,21.5-44.671,52.678-53.567,85.783C44.336,417.131,101.951,506.834,188.433,556.157c62.212,35.482,140.386,39.326,206.524,12.5,49.995-20.278,81.327-59.465,113.828-100.671C526.519,445.5,546.674,423,572.653,409.967c24.021-12.054,48.638-14.413,66.6-36.971A99.467,99.467,0,0,0,651.225,353.981Z" transform="translate(-64.829 -157.539)" fill="#fdefda"/><path d="M431.632,309.93a57.646,57.646,0,0,0-23.672-8.455c-65.629-7.994-97.958,99.486-25.711,108.6C435.984,416.855,488.778,345.966,431.632,309.93Z" transform="translate(151.459 -45.221)" fill="#fdefda"/><g transform="translate(42.161 92.236)"><g transform="translate(129.44 124.992)"><path d="M418.071,234.258a.325.325,0,0,1-.325-.325.878.878,0,0,0-1.755,0,.325.325,0,1,1-.65,0,1.525,1.525,0,1,1,3.049,0,.325.325,0,0,1-.319.325Z" transform="translate(-415.341 -232.409)" fill="#fff"/><g transform="translate(4.751 0)"><path d="M421.3,234.258a.325.325,0,0,1-.325-.325.878.878,0,0,0-1.755,0,.325.325,0,1,1-.646,0,1.525,1.525,0,1,1,3.049,0A.325.325,0,0,1,421.3,234.258Z" transform="translate(-418.57 -232.409)" fill="#fff"/></g></g><path d="M419.686,240.392a5.132,5.132,0,0,0,5.131-5.131H414.554a5.133,5.133,0,0,0,5.132,5.132Z" transform="translate(-286.28 -106.07)" fill="#fff"/><g transform="translate(0 0)"><rect width="38.912" height="6.552" transform="translate(4.455)" fill="#ffdea9"/><rect width="2.283" height="57.138" fill="#e2ebf4"/><rect width="44.547" height="6.552" transform="translate(4.455 9.436)" fill="#ffdea9"/><rect width="29.346" height="6.552" transform="translate(4.455 18.871)" fill="#ffdea9"/><rect width="5.593" height="6.552" transform="translate(4.455 37.743)" fill="#ffdea9"/><rect width="13.392" height="6.552" transform="translate(13.536 37.743)" fill="#ffdea9"/></g><g transform="translate(522.078 113.821) rotate(180)"><rect width="38.912" height="6.552" transform="translate(4.455)" fill="#ffdea9"/><rect width="2.283" height="57.138" fill="#e2ebf4"/><rect width="44.547" height="6.552" transform="translate(4.455 9.436)" fill="#ffdea9"/><rect width="29.346" height="6.552" transform="translate(4.455 18.871)" fill="#ffdea9"/><rect width="5.593" height="6.552" transform="translate(4.455 37.743)" fill="#ffdea9"/><rect width="13.392" height="6.552" transform="translate(13.536 37.743)" fill="#ffdea9"/></g></g></g></g><g transform="translate(9.445 56.489)"><g transform="translate(0 0)"><path d="M324.1,336.425c0,2.976-56.068,5.387-125.232,5.387S73.632,339.4,73.632,336.425s56.069-5.387,125.233-5.387S324.1,333.45,324.1,336.425Z" transform="translate(14.522 -44.137)" fill="#fac594"/><g transform="translate(445.478 0)"><path d="M496.565,353.546H447.353l-39.841-33.054h34.455Z" transform="translate(-375.339 -35.146)" fill="#ebb486"/><path d="M446.383,441.054,382.6,379.3V188.624l63.782-66.091Z" transform="translate(-382.6 -122.533)" fill="#ffab65"/><path d="M415.774,220.14c0-14.307-6.054-23.371-12.387-20.722-5.353,2.241-9.121,12.355-9.121,22.89,0,7.766,1.994,14.715,5.092,18.373l-2.566,42.34,14.74,6.026-3.588-46.742C412.363,239.267,415.774,230.686,415.774,220.14Z" transform="translate(-378.271 -94.161)" fill="#f7882d"/><g transform="translate(3.515 47.375)"><path d="M385.165,186.013l1.887-1.473c.912-.712,1.925-1.022,1.925,1.843a6.565,6.565,0,0,1-.918,3.557v.035c.7-.273,1.168.673,1.168,2.388,0,2.758-1.056,4.354-1.987,4.954l-2.076,1.339Zm1.1,4.251.818-.594a2.358,2.358,0,0,0,.72-1.936c0-1.085-.413-1.049-.771-.777l-.766.578Zm0,5.3,1.014-.681a2.423,2.423,0,0,0,.768-2.044c0-1.234-.555-1.048-.93-.786l-.853.6Z" transform="translate(-385.165 -147.069)" fill="#fff"/><path d="M393.492,188.578c0,3.29-.862,6.286-2.478,7.322-1.574,1.01-2.369-.807-2.369-3.942v-8.166l1.222-.954v8.153c0,1.653.477,2.589,1.148,2.141s1.166-2.064,1.166-3.756v-8.344l1.312-1.022Z" transform="translate(-383.873 -148.574)" fill="#fff"/><path d="M396.359,181.076a.63.63,0,0,0-1.037-.18,2.871,2.871,0,0,0-.946,2.185c0,2.6,2.992-1.267,2.992,3.875,0,3.276-1.186,5.59-2.516,6.445a1.358,1.358,0,0,1-2.1-.418l.969-3.084c.284.651.746.845,1.212.532a2.733,2.733,0,0,0,.983-2.17c0-2.657-2.965.832-2.965-3.861,0-3,1.151-5.477,2.4-6.454.732-.574,1.445-.7,2.009-.042Z" transform="translate(-382.349 -149.517)" fill="#fff"/><path d="M396.912,176.633l1.523-1.189v15.033l-1.523.983Z" transform="translate(-380.804 -150.266)" fill="#fff"/><path d="M399.061,176.167l2.194-1.714L404.521,183l.022-.015v-11.1l1.767-1.38v16.207l-2.3,1.485-3.32-8.853-.022.016v10.993l-1.606,1.037Z" transform="translate(-380.006 -152.099)" fill="#fff"/><path d="M405.629,170.769,411.6,166.1v3.509l-4.1,3.088v3.113L411.369,173v3.5l-3.864,2.707v3.4l4.334-2.916v3.515l-6.21,4.008Z" transform="translate(-377.568 -153.733)" fill="#fff"/><path d="M416.437,166.724c-.36-.55-1.076-.392-1.614.015a3.967,3.967,0,0,0-1.466,2.94c0,3.233,4.658-2.265,4.658,4.173,0,4.1-1.854,7.24-3.923,8.569-1.258.808-2.344.837-3.24-.11l1.492-4.019a1.205,1.205,0,0,0,1.874.413,3.747,3.747,0,0,0,1.527-2.91c0-3.321-4.587,1.655-4.587-4.163a11.369,11.369,0,0,1,3.707-8.577c1.138-.892,2.254-1.226,3.134-.538Z" transform="translate(-375.629 -155.201)" fill="#fff"/><path d="M423.091,161.989c-.409-.566-1.221-.36-1.832.1A4.381,4.381,0,0,0,419.6,165.3c0,3.442,5.289-2.657,5.289,4.214,0,4.377-2.108,7.807-4.455,9.315-1.424.914-2.657.991-3.667.026l1.687-4.341a1.386,1.386,0,0,0,2.123.352,4.13,4.13,0,0,0,1.733-3.172c0-3.538-5.2,1.976-5.2-4.207a12.4,12.4,0,0,1,4.2-9.319c1.294-1.013,2.56-1.431,3.562-.746Z" transform="translate(-373.434 -157.083)" fill="#fff"/></g><rect width="30.403" height="318.521" transform="translate(63.784)" fill="#f7882d"/></g><g transform="translate(0 80.129)"><g transform="translate(364.529 55.997)"><rect width="16.221" height="37.744" transform="translate(36.066 37.744) rotate(180)" fill="#f9b938"/><rect width="16.221" height="37.744" transform="translate(16.221 37.744) rotate(180)" fill="#f9b938"/><rect width="16.221" height="14.008" transform="translate(36.066 14.008) rotate(180)" fill="#f99a38"/><rect width="16.221" height="14.008" transform="translate(16.221 14.008) rotate(180)" fill="#f99a38"/></g><rect width="307.978" height="23.866" transform="translate(97.276 40.987)" fill="#f9b938"/><rect width="307.978" height="6.485" transform="translate(97.276 58.367)" fill="#f99a38"/><rect width="19.975" height="23.866" transform="translate(149.677 40.987)" fill="#f99a38"/><path d="M113.762,234.725h15.5a58.248,58.248,0,0,0,0-23.866h-15.5Z" transform="translate(-16.486 -169.873)" fill="#f99a38"/><path d="M95.741,180.969a52.919,52.919,0,1,0,52.92,52.92,52.919,52.919,0,0,0-52.92-52.92Zm0,88.329a35.409,35.409,0,1,1,35.409-35.409A35.409,35.409,0,0,1,95.741,269.3Z" transform="translate(-42.823 -180.969)" fill="#f99a38"/><path d="M98.008,180.969a52.919,52.919,0,1,0,52.92,52.92,52.919,52.919,0,0,0-52.92-52.92Zm0,88.329a35.409,35.409,0,1,1,35.409-35.409A35.409,35.409,0,0,1,98.008,269.3Z" transform="translate(-41.979 -180.969)" fill="#f9b938"/><path d="M76.146,189.228a47.919,47.919,0,0,0-.422,86.4m20.925-91a47.947,47.947,0,0,0-12.876,1.751" transform="translate(-40.619 -179.61)" fill="none" stroke="#fff4e1" stroke-miterlimit="10" stroke-width="2.157"/><g transform="translate(126.846 32.297)"><path d="M143.5,245.767h0a8.2,8.2,0,0,1-8.175-8.171v-24.9a8.2,8.2,0,0,1,8.175-8.171h0a8.2,8.2,0,0,1,8.171,8.171v24.9A8.2,8.2,0,0,1,143.5,245.767Z" transform="translate(-135.324 -204.522)" fill="#f9b938"/><path d="M144.409,205.432v38.75a8.164,8.164,0,0,0,3.891-6.924v-24.9a8.164,8.164,0,0,0-3.891-6.923Z" transform="translate(-131.954 -204.184)" fill="#f99a38"/></g><g transform="translate(143.192 32.297)"><path d="M155.418,245.767h0a8.194,8.194,0,0,1-8.171-8.171v-24.9a8.194,8.194,0,0,1,8.171-8.171h0a8.2,8.2,0,0,1,8.171,8.171v24.9a8.2,8.2,0,0,1-8.171,8.171Z" transform="translate(-147.247 -204.522)" fill="#f9b938"/><path d="M156.327,205.432v38.75a8.161,8.161,0,0,0,3.891-6.924v-24.9A8.161,8.161,0,0,0,156.327,205.432Z" transform="translate(-143.876 -204.184)" fill="#f99a38"/></g><rect width="253.77" height="2.773" transform="translate(185.989 42.785)" fill="#fff4e1"/></g></g><g transform="translate(258.087 124.007)"><path d="M1.647,4.682A16.953,16.953,0,0,1,4.707,2.6S9.14.307,9.851,0c0,0,.926.733-.124,1.728A15.3,15.3,0,0,1,7.085,3.6a11.854,11.854,0,0,0,3.481-.3c1.321-.429,3.951-1.2,4.727-.812s.136,1.022.136,1.022S11.386,4.7,10.524,4.962c-.76.228-.464.492-.464.492s4.9-.292,5.778-.341,1.236.417,1.015,1.185c0,0-2.614.172-4.21.419-.555.086-2.493.035-2.361.656,0,0,4.224.187,4.942.136a.7.7,0,0,1,.666,1.158l-5.757.189s-.4.088-.253.328a13.528,13.528,0,0,0,3,1c.3.011,1.222.123,1.022.86,0,0-.1.242-.971.149s-5-.393-5-.393A12.712,12.712,0,0,1,2.453,9.5C-.311,8.112-.308,6.875.388,8.5L.944,6.908Z" transform="translate(45.249 10.709) rotate(7)" fill="#ffcda9"/><g transform="translate(1.317 11.534)"><g transform="translate(8.441 2.666)"><path d="M363.229,274.781a5.056,5.056,0,1,0,5.382-4.708,5.056,5.056,0,0,0-5.382,4.708Z" transform="translate(-343.888 -264.22)" fill="#131637"/><path d="M364.817,271.026a3.449,3.449,0,1,0,3.671-3.211A3.449,3.449,0,0,0,364.817,271.026Z" transform="translate(-343.585 -264.649)" fill="#131637"/><path d="M369.967,269.924a1.255,1.255,0,1,1-1.37-1.128,1.255,1.255,0,0,1,1.37,1.128Z" transform="translate(-343.081 -264.462)" fill="#131637"/><path d="M370.093,271.229a1.254,1.254,0,1,1-.451-.848,1.255,1.255,0,0,1,.451.848Z" transform="translate(-343.056 -264.213)" fill="#131637"/><path d="M372.5,269.488s-1.134-5.419-8.435-4.139c0,0-6.138-.628-8.955,6.013a13.586,13.586,0,0,1,1.5,6.6c-.43,10.287-1.959,21.36-7.756,30.14-.1.144-.2.272-.3.414-.488,1.343-1.01,2.672-1.571,3.976,1.717,1.512,4.428,2.64,8.744,2.153a120.282,120.282,0,0,0,6.949-21.941l4.338-7.783,4.905-4.371S376.311,270.276,372.5,269.488Z" transform="translate(-346.979 -265.153)" fill="#131637"/><path d="M370.059,271.825c.007.1,2.156,5.08,2.18,8.925l-3.6-.148Z" transform="translate(-342.859 -263.884)" fill="#ffcda9"/><path d="M369.964,269.377s6.949,5.568.843,18.949l-5.271-1.042-.42,6.285-6.869-.459.489-7.307a7.552,7.552,0,0,0,3.314-5.65s-3.52-.452-3-3.635a2.051,2.051,0,0,1,3.979-.116l-.136,2.063s1.556-.645,1.9-3.482c0,0,3.7-2.032,2.219-5.8Z" transform="translate(-344.834 -264.387)" fill="#ffcda9"/><path d="M367.709,279.726l3.307.674a26.116,26.116,0,0,1-.889,3.127,3.141,3.141,0,0,1-2.418-3.8Z" transform="translate(-343.037 -262.381)" fill="#fff"/><path d="M369.533,269.7a2.006,2.006,0,1,1-2.19-1.8A2.006,2.006,0,0,1,369.533,269.7Z" transform="translate(-343.448 -264.634)" fill="#131637"/><path d="M367.939,272.151a3.083,3.083,0,1,1-3.365-2.771A3.083,3.083,0,0,1,367.939,272.151Z" transform="translate(-344.161 -264.353)" fill="#131637"/><path d="M361.765,287.067h0c-3.535-.237-6.956,2.478-6.708,6.012,1.512,21.566-6.142,40.133-6.142,40.133h23.921s-2.084-19.28-1.552-20.7,6.009-3.393,6.009-8.856l-9.4-12.952A7.875,7.875,0,0,0,361.765,287.067Z" transform="translate(-346.61 -260.986)" fill="#f25f46"/><path d="M369.974,311.327a4.837,4.837,0,0,1,1.491-1.474,47.864,47.864,0,0,1-1.967-8.043c-1.628-9.9-8.252-9.282-10.62-7.42-3.91,3.073-4.137,8.685-.486,16.108a48.59,48.59,0,0,0,12.621,16.534C370.432,321.216,369.618,312.278,369.974,311.327Z" transform="translate(-345.301 -259.8)" fill="#f25f46"/><path d="M365.172,290.62l.218.14,1.784.521a1.653,1.653,0,0,1,1.179,1.776l-.185,1.614A8.421,8.421,0,0,1,373.487,302" transform="translate(-343.517 -260.308)" fill="#fff"/><path d="M357.719,287.545l.136-.72c-.851.379,4.492-1.66,8.38,2l.358,2.559A19.441,19.441,0,0,0,357.719,287.545Z" transform="translate(-344.934 -261.074)" fill="#fff"/><path d="M355.469,284.745a3.492,3.492,0,1,0,3.14-3.812A3.492,3.492,0,0,0,355.469,284.745Z" transform="translate(-345.366 -262.154)" fill="#131637"/><path d="M353.894,287.214a2.571,2.571,0,1,0,2.312-2.807,2.571,2.571,0,0,0-2.312,2.807Z" transform="translate(-345.667 -261.492)" fill="#131637"/></g><path d="M.2,4.355c.657-2.938,5.394-7.608,12.919-.969,9.006,7.946,18.008,12.013,34.434,7.046l2.766,5.007s-14.537,13.489-40.308,1.7C2.488,13.7-.89,9.209.2,4.355Z" transform="matrix(0.53, -0.848, 0.848, 0.53, 9.303, 42.671)" fill="#f25f46"/><path d="M4.5,7.3,4.885.472.58,0,0,6.858Z" transform="matrix(0.342, -0.94, 0.94, 0.342, 42.201, 9.748)" fill="#fff"/><path d="M365.412,265.325s-7.653-1.257-10.7,9.861c0,0-1.078,19.185-10.176,27.445s-4.4,20.41,10.176,21.537a19.082,19.082,0,0,0,1.626-12.424s4.143-8.993,2.18-14.943c0,0,6.9-1.653,3.714-10.256-3.433-6.39,1.484-14.279,1.484-14.279l5.323-3.559Z" transform="translate(-339.889 -262.463)" fill="#131637"/></g><g transform="translate(0 86.424)"><path d="M366.4,325.833h4.535l-2.549,78.686H365s-6.1-24.515-4.47-40.684c1.4-18.619-1.6-26.689-1.6-26.689" transform="translate(-334.949 -325.83)" fill="#00216c"/><path d="M372.2,325.831l-6.54,37.025-22.844,35.085-3.5-1.461s8.463-25.207,17.478-37.3l-4.564-18.312a38.636,38.636,0,0,1-1.484-15.044Z" transform="translate(-338.679 -325.828)" fill="#002a88"/><path d="M339.411,385.19l-.506.714a.681.681,0,0,0,.129.925l10.2,7.946s.525-3.854-4.292-7.879a16.49,16.49,0,0,0-5.533-1.706Z" transform="translate(-338.78 -314.534)" fill="#000f1f"/><path d="M363.585,391.3v.892a.645.645,0,0,0,.629.659h12.706s-1.771-3.422-7.924-3.64a16.67,16.67,0,0,0-5.412,2.089Z" transform="translate(-334.061 -313.767)" fill="#000f1f"/></g><g transform="matrix(0.934, -0.358, 0.358, 0.934, 10.946, 22.689)"><path d="M2.008,1.789c2-2.248,8.411-4.032,11.764,5.428,4.013,11.32,9.907,19.246,26.677,22.886l-.013,5.719S21.174,40.554,4.375,17.729C-.529,11.066-1.3,5.5,2.008,1.789Z" transform="matrix(0.53, -0.848, 0.848, 0.53, 0, 34.3)" fill="#f25f46"/><path d="M1.647,4.682A16.953,16.953,0,0,1,4.707,2.6S9.14.307,9.851,0c0,0,.926.733-.124,1.728A15.3,15.3,0,0,1,7.085,3.6a11.854,11.854,0,0,0,3.481-.3c1.321-.429,3.951-1.2,4.727-.812s.136,1.022.136,1.022S11.386,4.7,10.524,4.962c-.76.228-.464.492-.464.492s4.9-.292,5.778-.341,1.236.417,1.015,1.185c0,0-2.614.172-4.21.419-.555.086-2.493.035-2.361.656,0,0,4.224.187,4.942.136a.7.7,0,0,1,.666,1.158l-5.757.189s-.4.088-.253.328a13.528,13.528,0,0,0,3,1c.3.011,1.222.123,1.022.86,0,0-.1.242-.971.149s-5-.393-5-.393A12.712,12.712,0,0,1,2.453,9.5C-.311,8.112-.308,6.875.388,8.5L.944,6.908Z" transform="matrix(0.857, -0.515, 0.515, 0.857, 43.034, 12.614)" fill="#ffcda9"/><path d="M4.5,7.3,4.885.472.58,0,0,6.858Z" transform="matrix(0.53, -0.848, 0.848, 0.53, 44.366, 18.723)" fill="#fff"/></g></g><g transform="translate(118.401 113.431)"><path d="M580.928,220.567l.349,2.3-2.157.234-.829-1.575Z" transform="translate(-548.425 -197.867)" fill="#fff"/><path d="M586.336,232.655V229.2a10.445,10.445,0,0,0,5.354-.96v-3.161a4.213,4.213,0,0,1-2.237-1.243l2.237-.828-.415-1.656,1.805-1.042L590.2,215.39l-.249-2.9-1.822,1.243-.828,5.3-.965-2.069s-1.715-.936-2.346.745a2.248,2.248,0,0,0,2.346,3.066l-1.022,6.044H577.2v5.84Z" transform="translate(-558.838 -200.075)" fill="#ffcda9"/><path d="M592.069,219.628l.961,2.632.831-5.859s5.631-.415,5.631-4.967l-1.948.1s1.767-3.887-1.357-6.594l-1.9,2.014a4.35,4.35,0,0,0-4.318-4.216l-.862,2.774s-7.272-.191-10.432,5.934l-.86-.957.382,1.531-1.531.477,1.626.67s-3.734,9.846,4.641,16.311v1.294l1.771-1.294h6.342l1.022-6.044a2.478,2.478,0,0,1-2.44-2.1A1.635,1.635,0,0,1,592.069,219.628Z" transform="translate(-564.571 -202.74)" fill="#131637"/><path d="M580.4,228.593s4.689-2.777,12.378,0l1.791,3.421-14.706-.763Z" transform="translate(-563.725 -196.012)" fill="#fff"/><path d="M594.486,230.884a19.553,19.553,0,0,0-13.989-1.561l-.316,1.567,9.273.482,5.032-.485Z" transform="translate(-564.04 -195.648)" opacity="0.4" fill="url(#a)"/><path d="M577.2,214.767l1.076,5.961,1.805-1.042Z" transform="translate(-545.838 -199.452)" fill="#ffcda9"/><path d="M598.615,232.864a229.1,229.1,0,0,0-5.893,31.894s1.431,12.37,3.819,17.985c2.657-15.737,4.428-32.272,4.428-32.272Z" transform="translate(-586.489 -194.508)" fill="#457bf4"/><path d="M578.223,233.791s8.144-8.5,25-1.651l5.908,48.472-3.115,3.983H574.439S572.922,254.577,578.223,233.791Z" transform="translate(-568.005 -195.435)" fill="#457bf4"/><path d="M0,6.855,4.978,2.1l.1,2.428L10.373,0a11.9,11.9,0,0,1-7.5,10.079Z" transform="translate(43.489 20.341) rotate(-76)" fill="#ffcda9"/><path d="M6.713,0S10.9,21.5,19.722,24.346c6.649,2.151,10.335-.372,10.335-.372l4.088,4.679A19.946,19.946,0,0,1,17.3,32.633C4.292,29.84.2,16.09.2,16.09S-1.771,2.107,6.713,0Z" transform="translate(19.929 48.325) rotate(-76)" fill="#457bf4"/><rect width="3.487" height="6.214" transform="matrix(0.456, 0.89, -0.89, 0.456, 54.402, 19.024)" fill="#fff"/><path d="M566.175,346.409v1.262a.936.936,0,0,0,.936.937H586s-2.63-4.852-11.781-5.162A25.481,25.481,0,0,0,566.175,346.409Z" transform="translate(-537.723 -164.294)" fill="#000f1f"/><path d="M591.956,344.969v1.876a1.146,1.146,0,0,0,1.146,1.146h2.555a3.377,3.377,0,0,0,1.187-.217l10.419-3.928s-2.793-3.239-8.993-1.178Z" transform="translate(-591.808 -164.694)" fill="#000f1f"/><path d="M580.672,272.766l-1.518,50a77.2,77.2,0,0,0-2.389,7.7c-2.978,11.3-2.5,33.791-2.5,33.791s2.806,2.636,6.435-.36l9.678-43.576,6.1-29.349,4.028,28.33s-2.484,6.54-1.386,17.781c.681,7.017,3.571,28.626,3.571,28.626s5.326-.382,7.58-2.869l1.982-51.98v-38.1Z" transform="translate(-574.238 -183.606)"/><path d="M598.727,289.18l-2.484-4.521-9.616-5.3,5.777,6-1.226,39.713Z" transform="translate(-576.489 -181.805)"/><path d="M605.927,272.766l-31.689,3.6.11-3.6Z" transform="translate(-567.913 -183.606)" fill="#001f5f"/></g></g></g></svg>