<svg xmlns="http://www.w3.org/2000/svg" xmlns:xlink="http://www.w3.org/1999/xlink" width="618" height="510" viewBox="0 0 618 510"><defs><linearGradient id="a" x1="0.087" y1="-0.051" x2="1.055" y2="1.618" gradientUnits="objectBoundingBox"><stop offset="0" stop-color="#ffebc4"/><stop offset="1" stop-color="#ffebc4"/></linearGradient><linearGradient id="b" x1="-108.12" y1="-0.051" x2="-107.152" y2="1.618" gradientUnits="objectBoundingBox"><stop offset="0" stop-color="#e2f3f8"/><stop offset="1" stop-color="#ffebc4"/></linearGradient><linearGradient id="c" x1="-162.627" y1="1" x2="-162.627" gradientUnits="objectBoundingBox"><stop offset="0" stop-color="#fff"/><stop offset="0.365" stop-color="#fff"/><stop offset="0.542" stop-color="#fff"/><stop offset="1" stop-color="#fff"/></linearGradient><clipPath id="e"><rect width="618" height="510"/></clipPath></defs><g id="d" clip-path="url(#e)"><rect width="618" height="510" fill="#fff"/><g transform="translate(-107 -184)"><g transform="translate(28.054 -7.384)"><g transform="translate(85.155 190.934)"><path d="M655.446,355.4c29.579-61.745-15.674-137.654-71.352-168.972-44.607-25.092-99.766-35.387-150.058-24.684-44.008,9.366-83.516,33.7-128.015,41.136-63.17,10.554-125.085-17.3-180.331,27.207C98.8,251.741,80.7,283.14,71.737,316.483,44.189,419,102.218,509.349,189.323,559.026c62.66,35.737,141.4,39.609,208.011,12.591,50.354-20.424,81.913-59.894,114.648-101.4,17.861-22.649,38.161-45.305,64.327-58.437,24.194-12.141,48.988-14.516,67.077-37.237A100.18,100.18,0,0,0,655.446,355.4Z" transform="translate(-64.829 -157.539)" fill="#fdefda"/><path d="M432.283,309.994a58.061,58.061,0,0,0-23.843-8.516c-66.1-8.051-98.663,100.2-25.9,109.382C436.666,417.689,489.84,346.289,432.283,309.994Z" transform="translate(155.005 -43.379)" fill="#fdefda"/></g><g transform="translate(127.62 283.834)"><g transform="translate(130.371 125.892)"><path d="M418.09,234.272a.327.327,0,0,1-.327-.327.884.884,0,0,0-1.768,0,.327.327,0,1,1-.654,0,1.536,1.536,0,1,1,3.071,0,.327.327,0,0,1-.322.327Z" transform="translate(-415.341 -232.409)" fill="#fff"/><g transform="translate(4.785 0)"><path d="M421.318,234.272a.327.327,0,0,1-.327-.327.884.884,0,0,0-1.768,0,.327.327,0,1,1-.651,0,1.536,1.536,0,1,1,3.071,0A.327.327,0,0,1,421.318,234.272Z" transform="translate(-418.57 -232.409)" fill="#fff"/></g></g><path d="M419.723,240.429a5.169,5.169,0,0,0,5.168-5.168H414.554a5.17,5.17,0,0,0,5.169,5.169Z" transform="translate(-285.357 -105.14)" fill="#fff"/><g transform="translate(0 0)"><rect width="39.192" height="6.6" transform="translate(4.487)" fill="#ffdea9"/><rect width="2.299" height="57.549" fill="#e2ebf4"/><rect width="44.868" height="6.6" transform="translate(4.487 9.504)" fill="#ffdea9"/><rect width="29.557" height="6.6" transform="translate(4.487 19.007)" fill="#ffdea9"/><rect width="5.633" height="6.6" transform="translate(4.487 38.014)" fill="#ffdea9"/><rect width="13.489" height="6.6" transform="translate(13.633 38.014)" fill="#ffdea9"/></g><g transform="translate(525.836 114.64) rotate(180)"><rect width="39.192" height="6.6" transform="translate(4.487)" fill="#ffdea9"/><rect width="2.299" height="57.549" fill="#e2ebf4"/><rect width="44.868" height="6.6" transform="translate(4.487 9.504)" fill="#ffdea9"/><rect width="29.557" height="6.6" transform="translate(4.487 19.007)" fill="#ffdea9"/><rect width="5.633" height="6.6" transform="translate(4.487 38.014)" fill="#ffdea9"/><rect width="13.489" height="6.6" transform="translate(13.633 38.014)" fill="#ffdea9"/></g></g></g><g transform="translate(-476 -174)"><g transform="translate(139.501 274.617)"><g transform="translate(685.191 131.65)"><path d="M620.2,165.5V152.764h-7.382a25.684,25.684,0,0,0-2.828-6.828l5.219-5.219-9.005-9.005-5.218,5.219a25.626,25.626,0,0,0-6.829-2.827v-7.382H581.418v7.384a25.637,25.637,0,0,0-6.828,2.827l-5.219-5.219-9.006,9,5.219,5.219a25.679,25.679,0,0,0-2.828,6.828h-7.381V165.5h7.382a25.646,25.646,0,0,0,2.828,6.828l-5.219,5.219,9,9.005,5.219-5.219a25.638,25.638,0,0,0,6.828,2.827v7.382h12.736v-7.38a25.626,25.626,0,0,0,6.829-2.827l5.218,5.219,9.005-9.005-5.219-5.219a25.651,25.651,0,0,0,2.828-6.828Zm-45.269-6.76a12.871,12.871,0,1,1,13.252,13.25,13.648,13.648,0,0,1-13.252-13.251Z" transform="translate(-365.052 -126.721)" fill="#ffdea9"/><g transform="translate(0 4.323)"><path d="M0,0H232.358V154.906a6.381,6.381,0,0,1-6.381,6.381H0Z" transform="translate(0 21.673)" fill="#ffdea9" opacity="0.67"/><rect width="109.012" height="1.842" transform="translate(111.69 157.386)" fill="#fffaff"/><rect width="109.012" height="1.842" transform="translate(111.69 164.116)" fill="#fffaff"/><rect width="109.012" height="1.842" transform="translate(111.69 170.846)" fill="#fffaff"/><path d="M2.865,0H148.8a2.865,2.865,0,0,1,2.865,2.865V84.353a2.865,2.865,0,0,1-2.865,2.865H2.865A2.865,2.865,0,0,1,0,84.353V2.865A2.865,2.865,0,0,1,2.865,0Z" transform="translate(67.946 65.234)" fill="#fff"/><path d="M0,0H232.358V18.2H0Z" transform="translate(0 21.673)" fill="#f7882d"/><g transform="translate(3.854 26.971)"><path d="M443.561,158.667a3.8,3.8,0,1,1-3.8-3.8,3.8,3.8,0,0,1,3.8,3.8Z" transform="translate(-435.959 -154.865)" fill="#ffca1c"/><path d="M441.856,158.215a2.547,2.547,0,1,1-.745-1.8,2.547,2.547,0,0,1,.745,1.8Z" transform="translate(-435.508 -154.413)" fill="#ffc550"/></g><g transform="translate(14.564 26.971)"><path d="M450.421,158.667a3.8,3.8,0,1,1-3.8-3.8,3.8,3.8,0,0,1,3.8,3.8Z" transform="translate(-442.818 -154.865)" fill="#ffca1c"/><circle cx="2.547" cy="2.547" r="2.547" transform="translate(1.254 1.254)" fill="#ffc550"/></g><g transform="translate(25.274 26.971)"><path d="M457.281,158.667a3.8,3.8,0,1,1-3.8-3.8,3.8,3.8,0,0,1,3.8,3.8Z" transform="translate(-449.678 -154.865)" fill="#ffca1c"/><path d="M455.574,158.215a2.548,2.548,0,1,1-2.551-2.551A2.548,2.548,0,0,1,455.574,158.215Z" transform="translate(-449.227 -154.413)" fill="#ffc550"/></g><path d="M0,0H16.3a1.849,1.849,0,0,1,1.849,1.849v6.77H0Z" transform="translate(93.54 13.054)" fill="#fff"/><path d="M508.46,152.268h-9.144l-.432-2.214Z" transform="translate(-396.772 -130.595)" fill="#d6f0ff"/><path d="M0,0H32.413A3.89,3.89,0,0,1,36.3,3.89V15.318H0Z" transform="translate(66.782 6.358)" fill="#f25f46"/><path d="M504.941,152.579,489.822,149.5l1.855,3.08Z" transform="translate(-401.86 -130.907)" fill="#cb4c37"/><path d="M0,0H84.234a5.582,5.582,0,0,1,5.582,5.582V21.673H0Z" fill="#ffc550"/><path d="M523.308,154.116l-89.816-7.366v7.366Z" transform="translate(-433.491 -132.446)" fill="#deab44"/><path d="M0,0H106.5V3.289H0Z" transform="translate(67.946 53.747)"/><rect width="42.493" height="3.289" transform="translate(67.946 44.798)"/><rect width="34.954" height="2.867" transform="translate(176.839 136.714)"/><path d="M0,0H34.954V2.87H0Z" transform="translate(176.839 142.904)"/></g></g><g transform="translate(529.379 109.085)"><g transform="translate(0 30.971)"><rect width="27.482" height="33.734" transform="translate(35.542 7.688)" fill="#131637"/><circle cx="10.02" cy="10.02" r="10.02" transform="translate(27.848 27.702)" fill="#131637"/><path d="M406.8,161.348a10.02,10.02,0,1,1-10.02-10.02A10.02,10.02,0,0,1,406.8,161.348Z" transform="translate(-336.077 -123.627)" fill="#131637"/><path d="M409.581,166.233a10.973,10.973,0,1,1-10.974-10.974,10.973,10.973,0,0,1,10.974,10.974Z" transform="translate(-335.583 -121.42)" fill="#131637"/><path d="M391.032,166.233a10.974,10.974,0,1,1-10.974-10.974,10.974,10.974,0,0,1,10.974,10.974Z" transform="translate(-345.997 -121.42)" fill="#131637"/><circle cx="2.488" cy="2.488" r="2.488" transform="translate(60.135 24.555)" fill="#131637"/><path d="M380.416,151.8a2.487,2.487,0,1,1-2.487-2.487,2.487,2.487,0,0,1,2.487,2.487Z" transform="translate(-342.432 -124.759)" fill="#131637"/><g transform="translate(20.968)"><path d="M386.269,155.544S371.055,167.6,368.3,182.967c-3.43,19.146,9.694,27.423,9.694,27.423l1.607-9.65s-4.416-6.155-3.676-11.393c.953-6.736,6.115-11.642,6.115-11.642S388.8,167.4,386.269,155.544Z" transform="translate(-367.73 -121.259)" fill="#f25f46"/><path d="M379.646,168.9l3.073-13.01s-12.125,10.131-9.286,31.079l.01-.011a23.321,23.321,0,0,1,5.637-9.438s.064-.154.175-.446Z" transform="translate(-364.767 -121.07)" fill="#f25f46"/><g transform="translate(31.937 0.002)"><path d="M391.286,161.249s-3.9,6.064-2.959,16.269c0,0,29.261-1.129,47.389-30.466l-4.592-4.24S409.467,164.214,391.286,161.249Z" transform="translate(-388.181 -128.41)" fill="#f25f46"/><path d="M417.168,146.628a19.04,19.04,0,0,1,.634-4.14s1.524-5.431,1.818-6.254c0,0,1.319-.2,1.333,1.434a17.3,17.3,0,0,1-.486,3.631,13.354,13.354,0,0,0,2.437-3.106c.664-1.423,2.054-4.2,2.971-4.535s.95.679.95.679-2.138,4.255-2.587,5.172c-.4.8.048.762.048.762s3.536-4.277,4.171-5.038,1.3-.7,1.763.073c0,0-1.872,2.3-2.9,3.8-.358.526-1.894,2.089-1.275,2.459,0,0,3.412-3.351,3.919-3.985a.788.788,0,0,1,1.473.345l-4.277,4.9s-.234.4.078.462a15.284,15.284,0,0,0,3.141-1.712c.237-.238,1.043-.915,1.5-.182,0,0,.122.27-.624.918s-4.178,3.832-4.178,3.832a14.376,14.376,0,0,1-5.3,3.531c-3.281,1.212-4.3.255-2.423.93l-.887-1.684Z" transform="translate(-371.905 -133.589)" fill="#ffcda9"/><path d="M422.624,145.431l-4.663-4.115-2.279,2.337,4.592,4.24Z" transform="translate(-372.738 -129.251)" fill="#fff"/><path d="M390.807,154.752s6.6,3.68,10.789,12.672a37.773,37.773,0,0,0-4.608,1.8l-3.918-4.508" transform="translate(-386.707 -121.706)" fill="#f25f46"/></g><path d="M409.187,174.138c0-7.067-6.093-19.811-11.7-19.811H387.163c-8.4,0-12.675,16.78-12.662,19.586.008,2.28,3.189,4.38,3.325,7,.372,7.057-.228,15.7.628,25.19,0,0,2.893,5.867,13.869,4.63,10.976,1.235,11.98-4.11,11.98-4.11.862-9.563,1.223-18.849,1.59-25.942C406.282,177.942,409.187,177.1,409.187,174.138Z" transform="translate(-363.926 -121.943)" fill="#f25f46"/><rect width="7.799" height="2.295" transform="translate(42.228 49.599) rotate(180)" fill="#fff"/><path d="M388.741,157.293h-1.369l.005.42-.574-.42-4.189,33.322,5.159,1.217,5.159-1.217Z" transform="translate(-359.375 -120.277)" fill="#457bf4"/><path d="M376.715,174.212c.25,4.046.584,8.432.973,13.185l8.148,1.107,19.377-2.011a24.013,24.013,0,0,0,2.523-2.712c.272-3.44.5-6.661.69-9.7A50.181,50.181,0,0,1,376.715,174.212Z" transform="translate(-362.683 -110.85)" fill="#3bd2ff" opacity="0.51"/><path d="M0,0H3.773V3.773H.585A.585.585,0,0,1,0,3.189Z" transform="translate(25.728 36.402) rotate(-45)" fill="#457bf4"/><g transform="translate(15.555)"><g transform="translate(18.064 11.899)"><path d="M389.258,144.888a3.68,3.68,0,1,0,3.68-3.68,3.68,3.68,0,0,0-3.68,3.68Z" transform="translate(-389.258 -141.208)" fill="#ffb59c"/><path d="M390.036,144.451a2.465,2.465,0,1,0,2.465-2.465A2.465,2.465,0,0,0,390.036,144.451Z" transform="translate(-388.821 -140.771)" fill="#ff9f7c"/></g><g transform="translate(0 11.899)"><path d="M377.69,144.888a3.68,3.68,0,1,0,3.68-3.68,3.68,3.68,0,0,0-3.68,3.68Z" transform="translate(-377.69 -141.208)" fill="#ffb59c"/><path d="M378.467,144.451a2.466,2.466,0,1,0,2.467-2.465,2.466,2.466,0,0,0-2.467,2.465Z" transform="translate(-377.253 -140.771)" fill="#ff9f7c"/></g><rect width="11.876" height="11.875" transform="translate(6.897 21.964)" fill="#ffb899"/><path d="M390.49,133.588l-1.594.7-.432-.7-8.905,6.719v12.214c1.821,7.8,9.917,11.019,9.917,11.019s8.095-3.218,9.916-11.019V140.307Z" transform="translate(-376.64 -133.588)" fill="#ffcda9"/><path d="M387.746,148.143l-1.351-5.634-1.351,5.634Z" transform="translate(-373.56 -128.578)" fill="#ff907d"/><path d="M387.392,151.5a4.122,4.122,0,0,0,4.121-4.124H383.27A4.122,4.122,0,0,0,387.392,151.5Z" transform="translate(-374.557 -125.848)" fill="#fff"/></g><g transform="translate(21.035 29.745)"><path d="M388.561,156.731l-3.882,3.882s-5.859-2.423-2.372-7.976a12.126,12.126,0,0,0,6.254,4.094Z" transform="translate(-381.2 -152.637)" fill="#f25f46"/><path d="M385.914,156.731l3.881,3.882s5.859-2.423,2.37-7.976A12.117,12.117,0,0,1,385.914,156.731Z" transform="translate(-378.552 -152.637)" fill="#f25f46"/></g><path d="M1.325,0H42.371A1.325,1.325,0,0,1,43.7,1.325V29.432H0V1.325A1.325,1.325,0,0,1,1.325,0Z" transform="translate(6.548 58.09)" fill="#fff"/><path d="M393.69,192.836a54.731,54.731,0,0,0-21.768-12.627v4.069Z" transform="translate(-365.374 -107.406)" fill="url(#a)"/><path d="M385.966,192.836a54.733,54.733,0,0,1,21.766-12.627v4.069Z" transform="translate(-357.488 -107.406)" fill="url(#b)"/></g><g transform="translate(0 72.806)"><g transform="translate(19.225 0)"><path d="M366.613,203.748v5.67s31.168-3.359,53.7-8.4a133.79,133.79,0,0,0,23.065-10.3s-1.467-10.709-14.069-10.5-32.036,12.4-32.036,12.4Z" transform="translate(-366.612 -180.213)" fill="#ffc550"/><path d="M396.833,197.883l-.8-.146-23-4.2-6.418,2.73v5.67" transform="translate(-366.613 -172.732)" fill="#ffc550"/><path d="M401,197.242l6.855-6.09,16.21-4.213S415.746,194.344,401,197.242Z" transform="translate(-347.303 -176.436)" fill="#d6a542"/></g><path d="M433.642,203.748v5.67s-31.169-3.359-53.7-8.4a116.685,116.685,0,0,1-25.643-10.3s1.467-10.709,14.069-10.5,34.612,12.4,34.612,12.4Z" transform="translate(-354.3 -180.213)" fill="#ffc550"/><path d="M379.944,197.242l-6.857-6.09L354.3,186.939a76.815,76.815,0,0,0,25.644,10.3Z" transform="translate(-354.3 -176.436)" fill="#d6a542"/></g><path d="M373.526,201.63s-5.6,1-19.225,1.758v-4.668l14.674-4.64,4.552,1.879Z" transform="translate(-354.3 -99.619)" fill="#000f1f"/><path d="M405.111,201.63s5.6,1,19.225,1.758v-4.668l-14.675-4.64-4.55,1.879Z" transform="translate(-325.77 -99.619)" fill="#000f1f"/></g><path d="M395.931,137.235s-2.836,7.69-12.389,5.995c0,0,.293,2.281-3.05,3.226v-2.033l-3.042-2.1-.3-.992,2.016-6.441,6.555-1.3,5.186.912h8.37l3.4,3L401.16,144.5v1.953a3.517,3.517,0,0,1-2.275-3.877S395.844,139.97,395.931,137.235Z" transform="translate(-341.471 -102.615)" fill="#131637"/><path d="M377.062,143.118s-.047-18.409,18.957-10.448c0,0,8.526-1.83,8.526,9.146v1.3l-.4,1.588-5.9-3.735-4.358-3.151-4.427.467Z" transform="translate(-341.52 -104.255)" fill="#131637"/><path d="M405.56,113.754h47.9a13.588,13.588,0,0,1,13.588,13.588h0A13.588,13.588,0,0,1,453.46,140.93H413.051l-9.152,8.026v-8.191a8.454,8.454,0,0,1-6.794-8.291V122.207A8.456,8.456,0,0,1,405.56,113.754Z" transform="translate(-330.265 -113.754)" fill="#ffc550"/><path d="M410.865,124.144a4.222,4.222,0,1,1-4.222-4.222A4.222,4.222,0,0,1,410.865,124.144Z" transform="translate(-327.281 -110.29)" fill="#f7882d"/><path d="M420.2,124.144a4.223,4.223,0,1,1-4.223-4.222,4.223,4.223,0,0,1,4.223,4.222Z" transform="translate(-322.036 -110.29)" fill="#f7882d"/><path d="M429.544,124.144a4.222,4.222,0,1,1-4.222-4.222,4.222,4.222,0,0,1,4.222,4.222Z" transform="translate(-316.792 -110.29)" fill="#f7882d"/></g><g transform="translate(758.045 184.731)"><circle cx="27.416" cy="27.416" r="27.416" transform="translate(27.645 48.628) rotate(-22.5)" fill="#ffc550"/><path d="M521.926,229.054l14.436-10.45a4.6,4.6,0,0,0,0-7.45L521.926,200.7a4.6,4.6,0,0,0-7.294,3.724v20.9a4.6,4.6,0,0,0,7.294,3.724Z" transform="translate(-460.783 -151.414)" fill="#f25f46"/><ellipse cx="35.309" cy="13.143" rx="35.309" ry="13.143" transform="translate(131.085 261.953)" fill="#f8a966" opacity="0.6"/><g transform="translate(94.567 93.346)"><path d="M595.964,271.041,556.2,231.274a30.786,30.786,0,0,1-11.939,14.7l38.386,38.387a9.446,9.446,0,0,0,13.318,0h0A9.445,9.445,0,0,0,595.964,271.041Z" transform="translate(-538.715 -227.092)" fill="#efa46c"/><path d="M566.149,230.264a5.773,5.773,0,0,0-6.925-.909,30.471,30.471,0,0,1-15.375,19.559,22.636,22.636,0,0,1-3.139,1.351,5.718,5.718,0,0,0,1.654,3.784,5.784,5.784,0,0,0,8.157,0l15.628-15.63a5.787,5.787,0,0,0,0-8.155Z" transform="translate(-540.71 -228.594)" fill="#ffc550"/></g><path d="M543.613,168.817a63.465,63.465,0,1,0,63.465,63.465,63.465,63.465,0,0,0-63.465-63.465Zm0,117.138a53.673,53.673,0,1,1,53.672-53.673,53.673,53.673,0,0,1-53.672,53.673Z" transform="translate(-480.147 -168.817)" fill="#fcd592"/><path d="M540.875,173.7a55.848,55.848,0,1,0,55.848,55.848A55.848,55.848,0,0,0,540.875,173.7Zm0,109.521a53.673,53.673,0,1,1,53.672-53.673,53.673,53.673,0,0,1-53.672,53.673Z" transform="translate(-477.408 -166.08)" fill="#f7dfb6"/><circle cx="53.672" cy="53.672" r="53.672" transform="translate(0.612 106.02) rotate(-79.099)" fill="#e5f3f9" opacity="0.35"/><g transform="translate(105.568 52.966)"><path d="M578.721,220.567l-.429,2.827,2.645.288,1.017-1.932Z" transform="translate(-530.605 -192.725)" fill="#fff"/><path d="M585.471,237.221v-4.24A12.825,12.825,0,0,1,578.9,231.8v-3.877a5.165,5.165,0,0,0,2.742-1.524l-2.742-1.015.51-2.032L577.2,222.08l3.534-6.034.3-3.554,2.232,1.524,1.015,6.5,1.184-2.538s2.1-1.148,2.878.913a2.761,2.761,0,0,1-2.878,3.757l1.254,7.412h9.949v7.162Z" transform="translate(-531.217 -197.26)" fill="#ffcda9"/><path d="M585.77,223.452l-1.179,3.228-1.02-7.188s-6.907-.51-6.907-6.092l2.389.123s-2.168-4.767,1.664-8.087l2.333,2.471a5.334,5.334,0,0,1,5.293-5.17l1.057,3.4s8.919-.234,12.794,7.278l1.055-1.174-.469,1.879,1.877.587-1.994.821s4.58,12.076-5.692,20v1.594l-2.173-1.594h-7.78l-1.254-7.412a3.039,3.039,0,0,0,2.992-2.57A2,2,0,0,0,585.77,223.452Z" transform="translate(-531.518 -202.736)" fill="#131637"/><path d="M597.247,228.872s-5.751-3.406-15.178,0l-2.2,4.2,18.036-.936Z" transform="translate(-529.723 -188.911)" fill="#fff"/><path d="M580.181,231.382a23.979,23.979,0,0,1,17.155-1.913l.387,1.919-11.373.591-6.171-.6Z" transform="translate(-529.543 -188.165)" opacity="0.4" fill="url(#c)"/><path d="M580.734,214.767l-1.32,7.311L577.2,220.8Z" transform="translate(-531.219 -195.981)" fill="#ffcda9"/><path d="M597.946,232.864A175.231,175.231,0,0,1,611.03,271.98s-3.175,15.172-8.482,22.057c-5.895-19.3-9.831-39.58-9.831-39.58Z" transform="translate(-522.501 -185.82)" fill="#457bf4"/><path d="M608.327,234.769s-9.988-10.424-30.665-2.025l-3.425,64.333h38.73S614.83,260.261,608.327,234.769Z" transform="translate(-532.882 -187.725)" fill="#457bf4"/><path d="M560.474,252.612l-6.106-5.832-.122,2.978-6.494-5.553a14.591,14.591,0,0,0,9.2,12.364Z" transform="translate(-547.752 -179.451)" fill="#ffcda9"/><path d="M557.505,251.367l-3.3-3.768-3.3-3.763a1.838,1.838,0,0,0-.319,2.375l2.219,3.759" transform="translate(-546.306 -179.662)" fill="#ffcda9"/><path d="M588.529,231.567s-5.136,26.363-15.954,29.859c-8.154,2.638-12.675-.456-12.675-.456l-5.016,5.74a24.462,24.462,0,0,0,20.663,4.881c15.951-3.423,20.969-20.289,20.969-20.289S598.935,234.151,588.529,231.567Z" transform="translate(-543.749 -186.548)" fill="#457bf4"/><rect width="4.276" height="7.621" transform="matrix(0.753, 0.658, -0.658, 0.753, 12.931, 71.609)" fill="#fff"/><path d="M590.492,347.079v1.548a1.148,1.148,0,0,1-1.148,1.148h-23.17s3.226-5.951,14.448-6.33A31.25,31.25,0,0,1,590.492,347.079Z" transform="translate(-537.409 -123.726)" fill="#000f1f"/><path d="M610.731,345.644v2.3a1.4,1.4,0,0,1-1.4,1.4h-3.134a4.141,4.141,0,0,1-1.455-.265l-12.778-4.817s3.423-3.972,11.028-1.444Z" transform="translate(-522.935 -124.547)" fill="#000f1f"/><path d="M612.969,272.766l1.861,61.325a94.633,94.633,0,0,1,2.93,9.449c3.652,13.862,3.066,41.444,3.066,41.444s-3.444,3.232-7.892-.442L601.064,331.1l-7.478-35.994-4.941,34.745s3.046,8.018,1.7,21.811c-.839,8.6-4.38,35.107-4.38,35.107s-6.532-.469-9.3-3.518L574.239,319.5V272.766Z" transform="translate(-532.882 -163.414)"/><path d="M586.628,291.4l3.046-5.544,11.793-6.5-7.085,7.363,1.506,48.705Z" transform="translate(-525.925 -159.713)"/><path d="M574.238,272.766l38.864,4.421-.135-4.421Z" transform="translate(-532.882 -163.414)" fill="#001f5f"/></g></g><g transform="translate(588.776 328.358)"><g transform="translate(57.624 19.439)"><g transform="translate(1.721 16.076)"><g transform="translate(11.075 0)"><path d="M363.232,276.253a6.632,6.632,0,1,0,7.061-6.176,6.632,6.632,0,0,0-7.061,6.176Z" transform="translate(-337.86 -262.397)" fill="#131637"/><path d="M364.82,272.029a4.525,4.525,0,1,0,4.816-4.213A4.525,4.525,0,0,0,364.82,272.029Z" transform="translate(-336.966 -263.663)" fill="#131637"/><path d="M370.748,270.277a1.647,1.647,0,1,1-1.8-1.481A1.647,1.647,0,0,1,370.748,270.277Z" transform="translate(-335.475 -263.111)" fill="#131637"/><path d="M370.875,271.583a1.645,1.645,0,1,1-.592-1.113,1.647,1.647,0,0,1,.592,1.113Z" transform="translate(-335.404 -262.379)" fill="#131637"/><path d="M380.454,270.84s-1.488-7.109-11.065-5.43c0,0-8.053-.825-11.747,7.889a17.823,17.823,0,0,1,1.964,8.663c-.564,13.5-2.57,28.021-10.175,39.54-.128.191-.264.359-.392.543-.638,1.761-1.326,3.508-2.061,5.215,2.253,1.983,5.809,3.464,11.471,2.824a157.885,157.885,0,0,0,9.12-28.783l5.69-10.211,6.433-5.734S385.458,271.874,380.454,270.84Z" transform="translate(-346.978 -265.153)" fill="#131637"/><path d="M370.5,271.825c.01.135,2.828,6.664,2.856,11.707l-4.719-.2Z" transform="translate(-334.819 -261.407)" fill="#ff907d"/><path d="M373.619,269.439s9.12,7.3,1.106,24.859l-6.914-1.366-.551,8.245-9.011-.6.642-9.586a9.907,9.907,0,0,0,4.347-7.412s-4.617-.593-3.929-4.769c.439-2.663,4.251-2.914,5.22-.153l-.18,2.706s2.041-.846,2.494-4.567c0,0,4.86-2.666,2.911-7.611Z" transform="translate(-340.65 -262.892)" fill="#ffcda9"/><path d="M367.739,279.726l4.337.884a34.274,34.274,0,0,1-1.166,4.1A4.121,4.121,0,0,1,367.739,279.726Z" transform="translate(-335.37 -256.971)" fill="#fff"/><path d="M370.781,270.262a2.632,2.632,0,1,1-2.873-2.367A2.632,2.632,0,0,1,370.781,270.262Z" transform="translate(-336.561 -263.621)" fill="#131637"/><path d="M369.857,273.019a4.045,4.045,0,1,1-4.414-3.635,4.045,4.045,0,0,1,4.414,3.635Z" transform="translate(-338.662 -262.789)" fill="#131637"/><path d="M365.772,287.071h0c-4.638-.311-9.125,3.252-8.8,7.888,1.983,28.292-8.057,52.649-8.057,52.649H380.3s-2.734-25.291-2.036-27.155,7.882-4.452,7.882-11.619l-12.336-16.991A10.331,10.331,0,0,0,365.772,287.071Z" transform="translate(-345.891 -252.856)" fill="#f25f46"/><path d="M374.4,316.956a6.349,6.349,0,0,1,1.955-1.933,62.8,62.8,0,0,1-2.582-10.551c-2.136-12.992-10.826-12.177-13.932-9.734-5.129,4.03-5.426,11.393-.638,21.132,4.971,10.109,10.818,16.991,16.557,21.691C375,329.928,373.93,318.2,374.4,316.956Z" transform="translate(-342.028 -249.357)" fill="#f25f46"/><path d="M365.172,290.62l.286.184,2.34.684a2.168,2.168,0,0,1,1.546,2.33l-.242,2.117a11.048,11.048,0,0,1,6.979,9.613" transform="translate(-336.762 -250.854)" fill="#fff"/><path d="M357.719,287.842l.177-.944c-1.117.5,5.893-2.178,10.991,2.627l.47,3.357A25.5,25.5,0,0,0,357.719,287.842Z" transform="translate(-340.947 -253.115)" fill="#fff"/><path d="M355.475,285.939a4.581,4.581,0,1,0,4.119-5A4.581,4.581,0,0,0,355.475,285.939Z" transform="translate(-342.219 -256.302)" fill="#131637"/><path d="M353.891,288.092a3.373,3.373,0,1,0,3.032-3.682A3.373,3.373,0,0,0,353.891,288.092Z" transform="translate(-343.102 -254.349)" fill="#131637"/></g><path d="M358.267,295.73c.862-3.854,7.079-9.981,16.948-1.271,11.815,10.424,23.624,15.759,45.173,9.247l3.629,6.569s-19.068,17.7-52.879,2.232C361.269,307.986,356.843,302.1,358.267,295.73Z" transform="translate(-329.711 -248.321)" fill="#f25f46"/><path d="M373.371,265.338s-10.039-1.649-14.035,12.936c0,0-1.414,25.169-13.35,36s-5.771,26.775,13.35,28.252a25.033,25.033,0,0,0,2.133-16.3s5.435-11.8,2.858-19.6c0,0,9.052-2.168,4.872-13.456-4.5-8.382,1.947-18.732,1.947-18.732l6.983-4.669Z" transform="translate(-339.885 -265.081)" fill="#131637"/></g><g transform="translate(64.917 0)"><path d="M226.163,301.623a49.157,49.157,0,0,1,35.193-66.249l5.237,23.915a24.7,24.7,0,0,0-19.415,24.123,24.43,24.43,0,0,0,1.751,9.14Z" transform="translate(-222.662 -235.374)" fill="#ffc550"/><path d="M299.946,318.586A49.1,49.1,0,0,1,265.169,333a49.644,49.644,0,0,1-6.672-.45,49.024,49.024,0,0,1-28.119-13.96c-.383-.383-.753-.784-1.119-1.184l17.883-16.734a24.68,24.68,0,1,0,28.938-39l10.841-21.966a49.153,49.153,0,0,1,13.025,78.877Z" transform="translate(-218.267 -232.476)" fill="#f25f46"/><path d="M276.752,241.751l-10.841,21.966a24.412,24.412,0,0,0-10.905-2.551,24.794,24.794,0,0,0-5.268.566L244.5,237.818c1.268-.284,2.551-.517,3.836-.684a47.7,47.7,0,0,1,6.705-.467,48.918,48.918,0,0,1,13.836,2A47.732,47.732,0,0,1,276.752,241.751Z" transform="translate(-208.098 -234.516)" fill="#f7882d"/><path d="M233.187,298.823a48.448,48.448,0,0,1-9.787-15.378l22.767-9.075a24.443,24.443,0,0,0,4.9,7.722Z" transform="translate(-222.19 -209.326)" fill="#d1d9fe"/></g><path d="M395.959,396.154c0,5.959-12.372,10.79-27.634,10.79s-27.636-4.831-27.636-10.79,12.372-10.789,27.636-10.789S395.959,390.195,395.959,396.154Z" transform="translate(-337.713 -181.578)" fill="#f8a966" opacity="0.6"/><g transform="translate(0 110.827)"><path d="M368.728,325.833h5.949l-3.345,103.224H366.89s-8.009-32.16-5.867-53.373c1.839-24.425-2.1-35.012-2.1-35.012" transform="translate(-327.473 -325.833)" fill="#00216c"/><path d="M382.454,325.833l-8.578,48.574-29.968,46.03-4.592-1.913s11.1-33.07,22.929-48.928l-5.988-24.022a50.685,50.685,0,0,1-1.947-19.736Z" transform="translate(-338.487 -325.833)" fill="#002a88"/><path d="M339.61,385.19l-.664.937a.9.9,0,0,0,.17,1.212L352.5,397.762s.689-5.056-5.631-10.336a21.636,21.636,0,0,0-7.258-2.236Z" transform="translate(-338.784 -292.503)" fill="#000f1f"/></g><path d="M363.585,391.956v1.17a.846.846,0,0,0,.829.865h16.669s-2.321-4.489-10.4-4.775a21.869,21.869,0,0,0-7.1,2.741Z" transform="translate(-324.856 -179.415)" fill="#000f1f"/><g transform="matrix(0.934, -0.358, 0.358, 0.934, 20.295, 69.107)"><path d="M2.634,2.347C5.259-.6,13.667-2.942,18.067,9.467c5.264,14.85,13,25.248,35,30.023l-.017,7.5S27.777,53.2,5.74,23.259C-.694,14.518-1.7,7.221,2.634,2.347Z" transform="translate(0 0)" fill="#f25f46"/><path d="M2.16,6.141A22.163,22.163,0,0,1,6.178,3.406S11.992.4,12.925,0c0,0,1.212.962-.163,2.267A20.067,20.067,0,0,1,9.3,4.728a15.548,15.548,0,0,0,4.566-.389c1.733-.562,5.186-1.576,6.2-1.065s.175,1.344.175,1.344-5.3,1.552-6.441,1.894c-1,.3-.609.645-.609.645s6.429-.383,7.579-.446,1.622.547,1.332,1.555c0,0-3.429.226-5.523.55-.728.112-3.272.045-3.1.86,0,0,5.545.245,6.483.175a.916.916,0,0,1,.874,1.522l-7.544.247s-.525.115-.333.431a17.729,17.729,0,0,0,3.94,1.315c.389.014,1.6.161,1.339,1.128,0,0-.135.319-1.275.2s-6.558-.515-6.558-.515a16.677,16.677,0,0,1-7.186-1.707C-.408,10.642-.4,9.019.51,11.148l.73-2.085Z" transform="translate(50.032 35.109)" fill="#ffcda9"/><path d="M5.9,9.581,6.407.62.761,0,0,9Z" transform="translate(48.173 38.53)" fill="#fff"/></g></g><path d="M408.042,241.307H383.6a9.65,9.65,0,0,0-9.65,9.65V275.4a9.636,9.636,0,0,0,7.4,9.359v8.714l8.426-8.424h18.267a9.653,9.653,0,0,0,9.65-9.649V250.957a9.651,9.651,0,0,0-9.65-9.65Z" transform="translate(-373.953 -241.307)" fill="#ffc550"/><path d="M406.862,257.472a7.292,7.292,0,0,0-13.44-3.928,7.294,7.294,0,1,0-9.566,10.369l9.566,5.6,9.566-5.6a7.293,7.293,0,0,0,3.874-6.441Z" transform="translate(-371.554 -237.779)" fill="#f25f46"/></g><g transform="translate(624.878 251.797)"><path d="M435.454,222.8H414.266a8.367,8.367,0,0,0-8.366,8.363v21.191a8.354,8.354,0,0,0,6.413,8.114v7.558l7.3-7.3h15.839a8.367,8.367,0,0,0,8.368-8.368V231.164a8.367,8.367,0,0,0-8.371-8.364Z" transform="translate(-405.9 -222.8)" fill="#ffc550"/></g><path d="M411.482,238.431a10.239,10.239,0,1,0,10.24-10.24,10.239,10.239,0,0,0-10.24,10.24Z" transform="translate(222.116 32.027)" fill="#f25f46"/><g transform="translate(639.636 266.805)"><path d="M418.239,234.37a.343.343,0,0,1-.342-.344.931.931,0,0,0-1.862,0,.344.344,0,0,1-.687,0,1.617,1.617,0,1,1,3.234,0A.344.344,0,0,1,418.239,234.37Z" transform="translate(-415.349 -232.409)" fill="#fff"/><g transform="translate(5.037 0)"><path d="M421.465,234.37a.344.344,0,0,1-.344-.344.931.931,0,0,0-1.862,0,.343.343,0,1,1-.686,0,1.617,1.617,0,1,1,3.234,0A.344.344,0,0,1,421.465,234.37Z" transform="translate(-418.574 -232.409)" fill="#fff"/></g></g><path d="M420,240.708a5.442,5.442,0,0,0,5.442-5.443H414.554A5.444,5.444,0,0,0,420,240.708Z" transform="translate(223.841 35.995)" fill="#fff"/><g transform="translate(830.141 108.284)"><path d="M556.465,150.58l2.742,7.364-7.491-2.934a16.208,16.208,0,1,1,4.745-4.433Z" transform="translate(-527.04 -124.982)" fill="#ffc550"/><g transform="translate(6.95 9.103)"><path d="M539,146.566a2.9,2.9,0,0,1-2.052-.851l-4.592-4.592a2.9,2.9,0,0,1,4.1-4.1L539,139.56l7.872-7.872a2.9,2.9,0,1,1,4.105,4.1l-9.923,9.923a2.9,2.9,0,0,1-2.055.851Z" transform="translate(-531.504 -130.838)" fill="#f25f46"/></g></g></g></g></g></g></svg>