<svg xmlns="http://www.w3.org/2000/svg" xmlns:xlink="http://www.w3.org/1999/xlink" width="608" height="510" viewBox="0 0 608 510"><defs><clipPath id="b"><rect width="608" height="510"/></clipPath></defs><g id="a" clip-path="url(#b)"><rect width="608" height="510" fill="#fff"/><g transform="translate(-0.095 75.791)"><g transform="translate(0 0)"><g transform="translate(0)"><path d="M651.518,354.08c29.382-61.334-15.57-136.739-70.878-167.848-44.31-24.925-99.1-35.151-149.06-24.52-43.716,9.3-82.961,33.478-127.164,40.862-62.75,10.484-124.253-17.184-179.131,27.026-26.709,21.514-44.694,52.7-53.594,85.826-27.365,101.834,30.279,191.583,116.8,240.93,62.243,35.5,140.456,39.345,206.628,12.507,50.02-20.288,81.368-59.5,113.885-100.722,17.742-22.5,37.907-45,63.9-58.048,24.034-12.06,48.662-14.42,66.631-36.989A99.512,99.512,0,0,0,651.518,354.08Z" transform="translate(-64.829 -157.539)" fill="#fdefda"/><path d="M431.677,309.935a57.674,57.674,0,0,0-23.684-8.46c-65.662-8-98.007,99.536-25.724,108.655C436.031,416.913,488.852,345.988,431.677,309.935Z" transform="translate(151.705 -45.093)" fill="#fdefda"/></g><g transform="translate(42.182 92.282)"><g transform="translate(129.504 125.055)"><path d="M418.072,234.259a.325.325,0,0,1-.325-.325.878.878,0,0,0-1.756,0,.325.325,0,1,1-.65,0,1.525,1.525,0,1,1,3.051,0,.325.325,0,0,1-.32.325Z" transform="translate(-415.341 -232.409)" fill="#fff"/><g transform="translate(4.754 0)"><path d="M421.3,234.259a.325.325,0,0,1-.325-.325.878.878,0,0,0-1.756,0,.325.325,0,1,1-.647,0,1.525,1.525,0,1,1,3.051,0A.325.325,0,0,1,421.3,234.259Z" transform="translate(-418.57 -232.409)" fill="#fff"/></g></g><path d="M419.689,240.4a5.134,5.134,0,0,0,5.133-5.134H414.554a5.135,5.135,0,0,0,5.134,5.135Z" transform="translate(-286.216 -106.005)" fill="#fff"/><g transform="translate(0 0)"><rect width="38.932" height="6.556" transform="translate(4.457)" fill="#ffdea9"/><rect width="2.284" height="57.166" fill="#e2ebf4"/><rect width="44.569" height="6.556" transform="translate(4.457 9.441)" fill="#ffdea9"/><rect width="29.36" height="6.556" transform="translate(4.457 18.881)" fill="#ffdea9"/><rect width="5.595" height="6.556" transform="translate(4.457 37.762)" fill="#ffdea9"/><rect width="13.399" height="6.556" transform="translate(13.543 37.762)" fill="#ffdea9"/></g><g transform="translate(522.339 113.878) rotate(180)"><rect width="38.932" height="6.556" transform="translate(4.457)" fill="#ffdea9"/><rect width="2.284" height="57.166" fill="#e2ebf4"/><rect width="44.569" height="6.556" transform="translate(4.457 9.441)" fill="#ffdea9"/><rect width="29.36" height="6.556" transform="translate(4.457 18.881)" fill="#ffdea9"/><rect width="5.595" height="6.556" transform="translate(4.457 37.762)" fill="#ffdea9"/><rect width="13.399" height="6.556" transform="translate(13.543 37.762)" fill="#ffdea9"/></g></g></g></g><g transform="translate(29.245)"><g transform="translate(0 0)"><ellipse cx="67.033" cy="24.951" rx="67.033" ry="24.951" transform="translate(342.982 282.883)" fill="#f8a966" opacity="0.6"/><g transform="translate(113.335 38.878)"><rect width="43.619" height="89.484" transform="translate(119.315 129.743)" fill="#86a4b6"/><path d="M646.762,372.7H525.619a41.9,41.9,0,0,1,37.1-22.427h46.935a41.9,41.9,0,0,1,37.1,22.427Z" transform="translate(-445.067 -141.535)" fill="#a3bccf"/><path d="M5.535,0h271.18a5.535,5.535,0,0,1,5.535,5.535V178.068a5.535,5.535,0,0,1-5.535,5.535H5.535A5.535,5.535,0,0,1,0,178.071V5.535A5.535,5.535,0,0,1,5.535,0Z" fill="#a3bccf"/><rect width="261.452" height="152.987" rx="4" transform="translate(10.398 10.098)" fill="#fff"/></g><path d="M461.264,171.516V192.78H722.716V171.516a4.36,4.36,0,0,0-4.36-4.36H465.624A4.36,4.36,0,0,0,461.264,171.516Z" transform="translate(-337.531 -119.149)" fill="#ffc550"/><g transform="translate(132.494 58.859)"><path d="M495.207,180.164a3.051,3.051,0,1,1,3.051,3.051A3.051,3.051,0,0,1,495.207,180.164Z" transform="translate(-466.967 -177.113)" fill="#fff"/><path d="M482.254,180.164a3.051,3.051,0,1,1,3.051,3.051A3.051,3.051,0,0,1,482.254,180.164Z" transform="translate(-468.134 -177.113)" fill="#fff"/><path d="M469.3,180.164a3.051,3.051,0,1,1,3.052,3.051,3.051,3.051,0,0,1-3.052-3.051Z" transform="translate(-469.3 -177.113)" fill="#fff"/></g><g transform="translate(358.959 53.225)"><path d="M677.053,180.628a8.684,8.684,0,1,1,8.684,8.684A8.684,8.684,0,0,1,677.053,180.628Z" transform="translate(-677.053 -171.944)" fill="#fff"/><g transform="translate(4.193 4.275)"><path d="M681.573,184.744a.651.651,0,0,0,.462-.192l7.554-7.55a.654.654,0,0,0-.925-.925l-7.552,7.549a.656.656,0,0,0,.464,1.12Z" transform="translate(-680.899 -175.865)" fill="#291a6d"/><path d="M689.115,184.736a.656.656,0,0,0,.463-1.12l-7.551-7.549a.655.655,0,1,0-.925.925l7.552,7.551A.651.651,0,0,0,689.115,184.736Z" transform="translate(-680.891 -175.857)" fill="#291a6d"/></g></g><g transform="translate(140.425 86.482)"><g transform="translate(1.218 5.503)"><path d="M565.236,248.64a3.7,3.7,0,0,0,.594-.266V207.5c-.214.176-.419.356-.628.539v40.627C565.216,248.66,565.224,248.647,565.236,248.64Z" transform="translate(-469.811 -207.5)" fill="#fff3e1"/><path d="M563.887,248.563V209.291c-.162.164-.327.328-.482.5-.05.056-.1.109-.146.164v38.61Z" transform="translate(-469.986 -207.339)" fill="#fff3e1"/><path d="M561.946,248.373V211.392c-.2.2-.415.372-.628.549v36.432Z" transform="translate(-470.162 -207.15)" fill="#fff3e1"/><path d="M560,248.133V214.07c-.2.214-.408.427-.628.648v33.415Z" transform="translate(-470.337 -206.909)" fill="#fff3e1"/><path d="M558.053,247.966V215.921c-.207.172-.418.339-.628.492v31.553Z" transform="translate(-470.512 -206.742)" fill="#fff3e1"/><path d="M556.109,247.854V217.161a3.64,3.64,0,0,1-.629.189v30.5Z" transform="translate(-470.687 -206.63)" fill="#fff3e1"/><path d="M554.163,247.865V217.283a6.58,6.58,0,0,1-.628-.236v30.82Z" transform="translate(-470.862 -206.64)" fill="#fff3e1"/><path d="M552.219,247.94V216.455l-.016-.006-.611-.236v31.729Z" transform="translate(-471.037 -206.716)" fill="#fff3e1"/><path d="M550.275,248.024V215.638c-.214-.108-.422-.224-.628-.352v32.741Z" transform="translate(-471.212 -206.8)" fill="#fff3e1"/><path d="M548.329,248.1V214.58c-.083-.041-.166-.08-.248-.125a2.457,2.457,0,0,1-.379.3V248.1Z" transform="translate(-471.388 -206.874)" fill="#fff3e1"/><path d="M546.385,247.981V215.738q-.324.295-.628.617v31.625Z" transform="translate(-471.563 -206.758)" fill="#fff3e1"/><path d="M544.446,247.788V217.9q-.312.379-.628.757v29.132Z" transform="translate(-471.739 -206.564)" fill="#fff3e1"/><path d="M542.495,247.586V220.14q-.32.381-.628.783v26.663Z" transform="translate(-471.913 -206.362)" fill="#fff3e1"/><path d="M540.551,247.35V222.78c-.207.305-.418.609-.628.911V247.35Z" transform="translate(-472.088 -206.124)" fill="#fff3e1"/><path d="M538.607,247.109V225.434c-.08.095-.156.193-.236.285a2.6,2.6,0,0,1-.391.367v21.022Z" transform="translate(-472.263 -205.885)" fill="#fff3e1"/><path d="M536.661,246.873V228.037a6.632,6.632,0,0,1-.628.9v17.937Z" transform="translate(-472.439 -205.65)" fill="#fff3e1"/><path d="M534.717,246.652V230.515c-.043.043-.082.095-.125.135-.175.241-.338.5-.5.759v15.243Z" transform="translate(-472.613 -205.427)" fill="#fff3e1"/><path d="M532.773,246.378V233.55c-.2.315-.414.616-.628.915v11.914Z" transform="translate(-472.788 -205.154)" fill="#fff3e1"/><path d="M530.827,246.109V236.5a1.976,1.976,0,0,1-.628.55v9.059Z" transform="translate(-472.964 -204.887)" fill="#fff3e1"/><path d="M528.883,246.091v-8.986a2.268,2.268,0,0,1-.628-.375v9.361Z" transform="translate(-473.139 -204.868)" fill="#fff3e1"/><path d="M526.939,246.361V234.439c-.207-.238-.416-.472-.628-.7v12.622Z" transform="translate(-473.314 -205.137)" fill="#fff3e1"/><path d="M524.992,246.553V232.36q-.325-.359-.623-.751h-.006v14.947Z" transform="translate(-473.489 -205.33)" fill="#fff3e1"/><path d="M523.046,246.706V230.542c-.2-.214-.415-.42-.628-.613v16.777Z" transform="translate(-473.664 -205.481)" fill="#fff3e1"/><path d="M521.1,246.849V228.837c-.214-.164-.42-.334-.628-.5v18.514Z" transform="translate(-473.84 -205.626)" fill="#fff3e1"/><path d="M519.159,247.024V227.139a9.423,9.423,0,0,1-.628-.761v20.646Z" transform="translate(-474.015 -205.8)" fill="#fff3e1"/><path d="M517.215,247.267V224.522c-.2-.285-.414-.564-.628-.843v23.588Z" transform="translate(-474.19 -206.043)" fill="#fff3e1"/><path d="M515.271,247.453V222.164c-.207-.2-.415-.381-.628-.549v25.837Z" transform="translate(-474.365 -206.229)" fill="#fff3e1"/><path d="M513.325,247.532V220.867a3.027,3.027,0,0,0-.628-.125v26.79Z" transform="translate(-474.54 -206.308)" fill="#fff3e1"/><path d="M511.381,247.509V221a3.973,3.973,0,0,0-.628.362V247.51Z" transform="translate(-474.715 -206.286)" fill="#fff3e1"/><path d="M509.437,247.372V222.513c-.214.2-.422.414-.628.628v24.231Z" transform="translate(-474.89 -206.148)" fill="#fff3e1"/><path d="M507.492,247.185v-22.6c-.209.244-.421.483-.629.732v21.863Z" transform="translate(-475.065 -205.961)" fill="#fff3e1"/><path d="M505.546,246.973V226.945c-.209.264-.419.525-.628.788v19.24Z" transform="translate(-475.241 -205.749)" fill="#fff3e1"/><path d="M503.6,246.756v-17.4c-.209.252-.419.5-.628.745v16.651Z" transform="translate(-475.416 -205.531)" fill="#fff3e1"/><path d="M501.657,246.557V231.563c-.208.218-.414.441-.628.65v14.344Z" transform="translate(-475.591 -205.333)" fill="#fff3e1"/><path d="M499.713,246.372V233.615a2.306,2.306,0,0,1-.628.641v12.115Z" transform="translate(-475.766 -205.148)" fill="#fff3e1"/><path d="M497.769,246.3V234.535a3.244,3.244,0,0,1-.628-.084V246.3Z" transform="translate(-475.942 -205.073)" fill="#fff3e1"/><path d="M495.824,246.394V233.855c-.214-.148-.421-.31-.629-.485V246.4Z" transform="translate(-476.117 -205.17)" fill="#fff3e1"/><path d="M493.879,246.55V232.2c-.2-.172-.41-.364-.628-.56V246.55Z" transform="translate(-476.292 -205.326)" fill="#fff3e1"/><path d="M491.935,246.7v-16.2c-.209-.166-.418-.327-.628-.475V246.7Z" transform="translate(-476.467 -205.472)" fill="#fff3e1"/><path d="M489.99,246.77V229.3a3.065,3.065,0,0,0-.325-.108c-.1-.023-.2-.013-.3-.026V246.77Z" transform="translate(-476.643 -205.549)" fill="#fff3e1"/><path d="M488.046,246.764v-17.5a6.427,6.427,0,0,0-.628.219v17.28Z" transform="translate(-476.818 -205.54)" fill="#fff3e1"/><path d="M486.1,246.686V230.131c-.214.122-.422.243-.628.374v16.181Z" transform="translate(-476.992 -205.462)" fill="#fff3e1"/><path d="M484.156,246.573V231.387c-.218.148-.427.285-.629.423v14.763Z" transform="translate(-477.167 -205.349)" fill="#fff3e1"/><path d="M482.211,246.444V232.811c-.2.174-.413.356-.628.544v13.089Z" transform="translate(-477.343 -205.221)" fill="#fff3e1"/><path d="M480.267,246.3V234.48c-.208.168-.418.328-.628.484V246.3Z" transform="translate(-477.518 -205.072)" fill="#fff3e1"/><path d="M477.761,245.643a1.232,1.232,0,0,0,.562.329V235.757a4.593,4.593,0,0,1-.629.246v9.586a.437.437,0,0,1,.068.054Z" transform="translate(-477.693 -204.955)" fill="#fff3e1"/></g><g transform="translate(4.592)"><rect width="52.17" height="1.809" transform="translate(0.002 8.096)" fill="#a3bccf"/><rect width="52.17" height="1.81" transform="translate(0.002 4.047)" fill="#a3bccf"/><rect width="9.657" height="1.809" transform="translate(0.002 8.096)" fill="#291a6d"/><rect width="19.112" height="1.81" transform="translate(0.002 4.047)" fill="#291a6d"/><path d="M486.807,204.261h-5.3a.826.826,0,0,1-.712-.9h0a.826.826,0,0,1,.712-.9h5.3a.826.826,0,0,1,.712.9h0A.826.826,0,0,1,486.807,204.261Z" transform="translate(-480.788 -202.452)" fill="#291a6d"/></g><path d="M577.039,204.586l-5.972.882,2.879,1.553-11.221,11.2-10-3.663-18.135,25.568-18.966-19.948-15.27,17.347-10.439-8.007L477.679,238.8a2.785,2.785,0,0,0-1.1,2.221h0L489.918,230.9l10.541,8.1,15.188-17.251,19.04,20.019,18.344-25.856,9.894,3.614,11.744-11.714,1.444,3.124Z" transform="translate(-476.576 -202.26)" fill="#f25f46"/><g transform="translate(11.942 11.805)"><path d="M513.968,219.766a1.4,1.4,0,1,0-1.4,1.453,1.424,1.424,0,0,0,1.4-1.453Z" transform="translate(-485.401 -212.878)" fill="#f3203f"/><path d="M531.4,238.05a1.4,1.4,0,1,0-1.4,1.4A1.4,1.4,0,0,0,531.4,238.05Z" transform="translate(-483.832 -211.177)" fill="#f3203f"/><path d="M548.008,214.679a1.4,1.4,0,1,0-1.4,1.37,1.4,1.4,0,0,0,1.4-1.37Z" transform="translate(-482.335 -213.255)" fill="#f3203f"/><path d="M557.1,218a1.4,1.4,0,1,0-1.4,1.453A1.424,1.424,0,0,0,557.1,218Z" transform="translate(-481.516 -213.036)" fill="#f3203f"/><path d="M490.327,228.544a1.4,1.4,0,1,0-1.4,1.485A1.443,1.443,0,0,0,490.327,228.544Z" transform="translate(-487.53 -212.115)" fill="#f3203f"/><path d="M499.95,235.515a1.4,1.4,0,1,0-1.4,1.4A1.4,1.4,0,0,0,499.95,235.515Z" transform="translate(-486.664 -211.408)" fill="#f3203f"/></g></g><g transform="translate(138.658 143.331)"><path d="M2.462,0h97.781A2.462,2.462,0,0,1,102.7,2.462V47.809a2.462,2.462,0,0,1-2.462,2.462H2.461A2.461,2.461,0,0,1,0,47.81V2.462A2.462,2.462,0,0,1,2.462,0Z" transform="translate(0 0)" fill="#fff3e1"/><rect width="1.072" height="40.886" transform="translate(50.282 4.921)" fill="#a3bccf"/><g transform="translate(56.386 9.442)"><g transform="translate(0 9.22)"><path d="M530.112,273.438a1.714,1.714,0,1,0-1.714,1.713A1.714,1.714,0,0,0,530.112,273.438Z" transform="translate(-526.682 -271.723)" fill="#a3bccf"/><path d="M535.8,273.438a1.714,1.714,0,1,0-1.715,1.713,1.714,1.714,0,0,0,1.715-1.713Z" transform="translate(-526.17 -271.723)" fill="#a3bccf"/><path d="M541.49,273.439a1.713,1.713,0,1,0-1.713,1.713,1.713,1.713,0,0,0,1.713-1.713Z" transform="translate(-525.658 -271.724)" fill="#a3bccf"/><path d="M547.181,273.438a1.714,1.714,0,1,0-1.715,1.713A1.714,1.714,0,0,0,547.181,273.438Z" transform="translate(-525.145 -271.723)" fill="#a3bccf"/><path d="M552.87,273.438a1.714,1.714,0,1,0-1.714,1.713A1.714,1.714,0,0,0,552.87,273.438Z" transform="translate(-524.633 -271.723)" fill="#a3bccf"/><path d="M558.559,273.439a1.713,1.713,0,1,0-1.713,1.713,1.713,1.713,0,0,0,1.713-1.713Z" transform="translate(-524.12 -271.724)" fill="#a3bccf"/><path d="M564.25,273.438a1.714,1.714,0,1,0-1.713,1.713,1.714,1.714,0,0,0,1.713-1.713Z" transform="translate(-523.608 -271.723)" fill="#a3bccf"/><path d="M530.112,279.278a1.714,1.714,0,1,0-1.714,1.714A1.714,1.714,0,0,0,530.112,279.278Z" transform="translate(-526.682 -271.198)" fill="#a3bccf"/><path d="M535.8,279.278a1.714,1.714,0,1,0-1.715,1.714,1.714,1.714,0,0,0,1.715-1.714Z" transform="translate(-526.17 -271.198)" fill="#a3bccf"/><path d="M541.49,279.279a1.713,1.713,0,1,0-1.713,1.714A1.713,1.713,0,0,0,541.49,279.279Z" transform="translate(-525.658 -271.199)" fill="#a3bccf"/><path d="M547.181,279.278a1.714,1.714,0,1,0-1.715,1.714A1.714,1.714,0,0,0,547.181,279.278Z" transform="translate(-525.145 -271.198)" fill="#a3bccf"/><path d="M552.87,279.278a1.714,1.714,0,1,0-1.714,1.714A1.714,1.714,0,0,0,552.87,279.278Z" transform="translate(-524.633 -271.198)" fill="#a3bccf"/><path d="M558.559,279.279a1.713,1.713,0,1,0-1.713,1.714A1.713,1.713,0,0,0,558.559,279.279Z" transform="translate(-524.12 -271.199)" fill="#a3bccf"/><path d="M564.25,279.278a1.714,1.714,0,1,0-1.713,1.714A1.714,1.714,0,0,0,564.25,279.278Z" transform="translate(-523.608 -271.198)" fill="#a3bccf"/><ellipse cx="1.714" cy="1.714" rx="1.714" ry="1.714" transform="translate(0 12.731)" fill="#a3bccf"/><path d="M535.8,285.118a1.714,1.714,0,1,0-1.715,1.713A1.714,1.714,0,0,0,535.8,285.118Z" transform="translate(-526.17 -270.672)" fill="#a3bccf"/><path d="M541.49,285.118a1.713,1.713,0,1,0-1.713,1.713,1.713,1.713,0,0,0,1.713-1.713Z" transform="translate(-525.658 -270.672)" fill="#a3bccf"/><ellipse cx="2.448" cy="2.448" rx="2.448" ry="2.448" transform="translate(17.873 11.997)" fill="#00cf76"/><ellipse cx="1.714" cy="1.714" rx="1.714" ry="1.714" transform="translate(24.809 12.731)" fill="#a3bccf"/><path d="M558.559,285.118a1.713,1.713,0,1,0-1.713,1.713A1.713,1.713,0,0,0,558.559,285.118Z" transform="translate(-524.12 -270.672)" fill="#a3bccf"/><path d="M564.25,285.118a1.714,1.714,0,1,0-1.713,1.713A1.714,1.714,0,0,0,564.25,285.118Z" transform="translate(-523.608 -270.672)" fill="#a3bccf"/><path d="M530.112,290.957a1.714,1.714,0,1,0-1.714,1.714A1.714,1.714,0,0,0,530.112,290.957Z" transform="translate(-526.682 -270.146)" fill="#a3bccf"/><path d="M535.8,290.957a1.713,1.713,0,1,0-.5,1.212A1.714,1.714,0,0,0,535.8,290.957Z" transform="translate(-526.17 -270.146)" fill="#a3bccf"/><path d="M541.49,290.958a1.713,1.713,0,1,0-1.713,1.714,1.713,1.713,0,0,0,1.713-1.714Z" transform="translate(-525.658 -270.146)" fill="#a3bccf"/><path d="M547.181,290.957a1.714,1.714,0,1,0-1.715,1.714A1.714,1.714,0,0,0,547.181,290.957Z" transform="translate(-525.145 -270.146)" fill="#a3bccf"/><path d="M552.87,290.957a1.713,1.713,0,1,0-.5,1.212A1.714,1.714,0,0,0,552.87,290.957Z" transform="translate(-524.633 -270.146)" fill="#a3bccf"/></g><path d="M537.656,266.773h-9.218a1.754,1.754,0,0,1-1.755-1.754h0a1.754,1.754,0,0,1,1.755-1.754h9.218a1.752,1.752,0,0,1,1.754,1.754h0a1.752,1.752,0,0,1-1.754,1.754Z" transform="translate(-526.682 -263.265)" fill="#00cf76"/><path d="M544,266.773h-1.713a1.755,1.755,0,0,1-1.755-1.754h0a1.754,1.754,0,0,1,1.755-1.754H544a1.753,1.753,0,0,1,1.754,1.754h0A1.753,1.753,0,0,1,544,266.773Z" transform="translate(-525.435 -263.265)" fill="#00cf76"/></g><g transform="translate(4.239 6.712)"><rect width="39.989" height="1.714" transform="translate(0 7.666)" fill="#fff"/><rect width="39.989" height="1.713" transform="translate(0 3.831)" fill="#fff"/><rect width="32.521" height="1.714" transform="translate(0 7.666)" fill="#457bf4"/><rect width="13.711" height="1.713" transform="translate(0 3.831)" fill="#a3bccf"/><path d="M486.067,262.471H479.7a.854.854,0,0,1-.854-.854h0a.854.854,0,0,1,.854-.854h6.365a.854.854,0,0,1,.854.854h0a.854.854,0,0,1-.854.854Z" transform="translate(-478.845 -260.763)" fill="#457bf4"/><g transform="translate(0 13.962)"><rect width="39.989" height="1.714" transform="translate(0 7.669)" fill="#fff"/><rect width="39.989" height="1.714" transform="translate(0 3.833)" fill="#fff"/><rect width="32.521" height="1.714" transform="translate(0 7.669)" fill="#457bf4"/><rect width="13.711" height="1.714" transform="translate(0 3.833)" fill="#a3bccf"/><path d="M486.067,275.283H479.7a.854.854,0,0,1-.854-.854h0a.854.854,0,0,1,.854-.858h6.365a.854.854,0,0,1,.854.858h0a.854.854,0,0,1-.854.854Z" transform="translate(-478.845 -273.571)" fill="#fff"/></g><g transform="translate(0 27.931)"><rect width="39.989" height="1.714" transform="translate(0 7.665)" fill="#e7edff"/><rect width="39.989" height="1.714" transform="translate(0 3.83)" fill="#fff"/><rect width="32.521" height="1.714" transform="translate(0 7.665)" fill="#457bf4"/><rect width="13.711" height="1.714" transform="translate(0 3.83)" fill="#a3bccf"/><path d="M486.067,288.1H479.7a.854.854,0,0,1-.854-.854h0a.854.854,0,0,1,.854-.854h6.365a.854.854,0,0,1,.854.854h0a.854.854,0,0,1-.854.854Z" transform="translate(-478.845 -286.387)" fill="#fff"/></g></g></g><g transform="translate(262.879 90.512)"><g transform="translate(0 20.094)"><path d="M605.326,227.647h18.018a1.532,1.532,0,0,0,1.532-1.532h0a1.531,1.531,0,0,0-1.532-1.53H605.326a1.531,1.531,0,0,0-1.53,1.53h0A1.532,1.532,0,0,0,605.326,227.647Z" transform="translate(-587.571 -224.584)" fill="#fff3e1"/><path d="M627.11,227.647h.75a1.532,1.532,0,0,0,1.53-1.532h0a1.531,1.531,0,0,0-1.53-1.53h-.75a1.531,1.531,0,0,0-1.53,1.53h0a1.532,1.532,0,0,0,1.53,1.532Z" transform="translate(-585.609 -224.584)" fill="#fff3e1"/><path d="M590.444,232.24h18.018a1.531,1.531,0,0,0,1.532-1.53h0a1.532,1.532,0,0,0-1.532-1.532H590.444a1.532,1.532,0,0,0-1.532,1.532h0A1.531,1.531,0,0,0,590.444,232.24Z" transform="translate(-588.912 -224.17)" fill="#fff3e1"/><path d="M612.228,232.24h.748a1.53,1.53,0,0,0,1.532-1.53h0a1.531,1.531,0,0,0-1.532-1.532h-.748a1.532,1.532,0,0,0-1.532,1.532h0A1.532,1.532,0,0,0,612.228,232.24Z" transform="translate(-586.95 -224.17)" fill="#fff3e1"/><path d="M590.442,227.647h10.171a1.532,1.532,0,0,0,1.532-1.532h0a1.531,1.531,0,0,0-1.532-1.53H590.442a1.531,1.531,0,0,0-1.53,1.53h0A1.532,1.532,0,0,0,590.442,227.647Z" transform="translate(-588.912 -224.584)" fill="#fff3e1"/><path d="M618.47,232.24h10.169a1.531,1.531,0,0,0,1.53-1.53h0a1.531,1.531,0,0,0-1.53-1.532H618.47a1.531,1.531,0,0,0-1.532,1.532h0A1.53,1.53,0,0,0,618.47,232.24Z" transform="translate(-586.387 -224.17)" fill="#fff3e1"/><g transform="translate(0 10.501)"><path d="M605.326,237.279h18.018a1.531,1.531,0,0,0,1.532-1.532h0a1.531,1.531,0,0,0-1.532-1.53H605.326a1.531,1.531,0,0,0-1.53,1.53h0A1.53,1.53,0,0,0,605.326,237.279Z" transform="translate(-587.571 -234.217)" fill="#fff3e1"/><path d="M627.11,237.279h.75a1.53,1.53,0,0,0,1.53-1.532h0a1.531,1.531,0,0,0-1.53-1.53h-.75a1.531,1.531,0,0,0-1.53,1.53h0A1.53,1.53,0,0,0,627.11,237.279Z" transform="translate(-585.609 -234.217)" fill="#fff3e1"/><path d="M590.442,241.874h18.021a1.531,1.531,0,0,0,1.53-1.53h0a1.53,1.53,0,0,0-1.53-1.532H590.442a1.53,1.53,0,0,0-1.53,1.532h0A1.531,1.531,0,0,0,590.442,241.874Z" transform="translate(-588.912 -233.803)" fill="#fff3e1"/><path d="M612.228,241.874h.748a1.53,1.53,0,0,0,1.532-1.53h0a1.53,1.53,0,0,0-1.532-1.532h-.748a1.531,1.531,0,0,0-1.532,1.532h0A1.532,1.532,0,0,0,612.228,241.874Z" transform="translate(-586.95 -233.803)" fill="#fff3e1"/><path d="M590.444,237.279h10.169a1.531,1.531,0,0,0,1.532-1.532h0a1.531,1.531,0,0,0-1.532-1.53H590.444a1.531,1.531,0,0,0-1.532,1.53h0A1.531,1.531,0,0,0,590.444,237.279Z" transform="translate(-588.912 -234.217)" fill="#fff3e1"/><path d="M618.47,241.874h10.169a1.531,1.531,0,0,0,1.53-1.53h0a1.53,1.53,0,0,0-1.53-1.532H618.47a1.53,1.53,0,0,0-1.532,1.532h0A1.53,1.53,0,0,0,618.47,241.874Z" transform="translate(-586.387 -233.803)" fill="#fff3e1"/></g></g><g transform="translate(51.284 20.094)"><path d="M652.374,227.647h18.019a1.532,1.532,0,0,0,1.532-1.532h0a1.531,1.531,0,0,0-1.532-1.53H652.374a1.532,1.532,0,0,0-1.532,1.53h0A1.532,1.532,0,0,0,652.374,227.647Z" transform="translate(-634.618 -224.584)" fill="#fff3e1"/><path d="M674.157,227.647h.749a1.532,1.532,0,0,0,1.532-1.532h0a1.531,1.531,0,0,0-1.532-1.53h-.749a1.531,1.531,0,0,0-1.53,1.53h0A1.532,1.532,0,0,0,674.157,227.647Z" transform="translate(-632.656 -224.584)" fill="#fff3e1"/><path d="M637.491,232.24H655.51a1.531,1.531,0,0,0,1.532-1.53h0a1.532,1.532,0,0,0-1.532-1.532H637.491a1.532,1.532,0,0,0-1.532,1.532h0A1.531,1.531,0,0,0,637.491,232.24Z" transform="translate(-635.959 -224.17)" fill="#fff3e1"/><path d="M659.275,232.24h.749a1.531,1.531,0,0,0,1.532-1.53h0a1.532,1.532,0,0,0-1.532-1.532h-.749a1.532,1.532,0,0,0-1.532,1.532h0A1.531,1.531,0,0,0,659.275,232.24Z" transform="translate(-633.997 -224.17)" fill="#fff3e1"/><path d="M637.489,227.647h10.172a1.532,1.532,0,0,0,1.532-1.532h0a1.532,1.532,0,0,0-1.532-1.53H637.489a1.531,1.531,0,0,0-1.53,1.53h0A1.532,1.532,0,0,0,637.489,227.647Z" transform="translate(-635.959 -224.584)" fill="#fff3e1"/><path d="M665.517,232.24h10.168a1.531,1.531,0,0,0,1.532-1.53h0a1.532,1.532,0,0,0-1.532-1.532H665.517a1.532,1.532,0,0,0-1.532,1.532h0A1.532,1.532,0,0,0,665.517,232.24Z" transform="translate(-633.435 -224.17)" fill="#fff3e1"/><g transform="translate(0 10.501)"><path d="M652.374,237.279h18.019a1.531,1.531,0,0,0,1.532-1.532h0a1.531,1.531,0,0,0-1.532-1.53H652.374a1.532,1.532,0,0,0-1.532,1.53h0A1.532,1.532,0,0,0,652.374,237.279Z" transform="translate(-634.618 -234.217)" fill="#fff3e1"/><path d="M674.157,237.279h.749a1.531,1.531,0,0,0,1.532-1.532h0a1.531,1.531,0,0,0-1.532-1.53h-.749a1.531,1.531,0,0,0-1.53,1.53h0A1.53,1.53,0,0,0,674.157,237.279Z" transform="translate(-632.656 -234.217)" fill="#fff3e1"/><path d="M637.489,241.874h18.02a1.531,1.531,0,0,0,1.532-1.53h0a1.531,1.531,0,0,0-1.532-1.532h-18.02a1.53,1.53,0,0,0-1.53,1.532h0a1.531,1.531,0,0,0,1.53,1.53Z" transform="translate(-635.959 -233.803)" fill="#fff3e1"/><path d="M659.275,241.874h.749a1.531,1.531,0,0,0,1.532-1.53h0a1.531,1.531,0,0,0-1.532-1.532h-.749a1.531,1.531,0,0,0-1.532,1.532h0A1.531,1.531,0,0,0,659.275,241.874Z" transform="translate(-633.997 -233.803)" fill="#fff3e1"/><path d="M637.491,237.279h10.171a1.531,1.531,0,0,0,1.532-1.532h0a1.532,1.532,0,0,0-1.532-1.53H637.491a1.531,1.531,0,0,0-1.532,1.53h0A1.531,1.531,0,0,0,637.491,237.279Z" transform="translate(-635.959 -234.217)" fill="#fff3e1"/><path d="M665.516,241.874h10.168a1.531,1.531,0,0,0,1.532-1.53h0a1.531,1.531,0,0,0-1.532-1.532H665.516a1.531,1.531,0,0,0-1.533,1.532h0A1.532,1.532,0,0,0,665.516,241.874Z" transform="translate(-633.435 -233.803)" fill="#fff3e1"/></g></g><g transform="translate(0.207 0)"><path d="M621.961,212.439h57.193a3.145,3.145,0,0,0,3.145-3.145h0a3.144,3.144,0,0,0-3.145-3.145H621.961a3.145,3.145,0,0,0-3.146,3.145h0a3.145,3.145,0,0,0,3.145,3.145Z" transform="translate(-586.426 -206.15)" fill="#fff3e1"/><path d="M592.246,212.439h18.4a3.145,3.145,0,0,0,3.145-3.144h0a3.145,3.145,0,0,0-3.145-3.145h-18.4a3.144,3.144,0,0,0-3.144,3.145h0A3.145,3.145,0,0,0,592.246,212.439Z" transform="translate(-589.102 -206.15)" fill="#fff3e1"/></g></g><g transform="translate(260.072 143.311)"><path d="M1.523,0H97.37a1.523,1.523,0,0,1,1.523,1.523V48.785a1.523,1.523,0,0,1-1.523,1.523H1.522A1.522,1.522,0,0,1,0,48.787V1.523A1.523,1.523,0,0,1,1.523,0Z" fill="#fff3e1"/><g transform="translate(6.652 14.178)"><rect width="5.276" height="25.621" transform="translate(0 2.479)" fill="#f7882d"/><rect width="5.275" height="17.86" transform="translate(10.934 10.24)" fill="#f25f46"/><rect width="5.276" height="28.1" transform="translate(21.866)" fill="#f7882d"/><rect width="5.276" height="14.05" transform="translate(32.8 14.05)" fill="#f25f46"/><rect width="5.276" height="11.487" transform="translate(43.733 16.613)" fill="#f7882d"/></g><g transform="translate(64.913 10.47)"><path d="M656.284,268.4h-8.3a2.1,2.1,0,0,1-2.1-2.1h0a2.1,2.1,0,0,1,2.1-2.1h8.3a2.1,2.1,0,0,1,2.1,2.1h0A2.1,2.1,0,0,1,656.284,268.4Z" transform="translate(-645.886 -264.19)" fill="#f7882d"/><path d="M656.284,275.132h-8.3a2.1,2.1,0,0,1-2.1-2.1h0a2.1,2.1,0,0,1,2.1-2.1h8.3a2.1,2.1,0,0,1,2.1,2.1h0A2.1,2.1,0,0,1,656.284,275.132Z" transform="translate(-645.886 -263.584)" fill="#f25f46"/></g><g transform="translate(61.554 25.802)"><path d="M651.612,279.862h-8a.8.8,0,0,1-.8-.8h0a.8.8,0,0,1,.8-.8h8a.8.8,0,0,1,.8.8h0a.8.8,0,0,1-.8.8Z" transform="translate(-642.805 -278.256)" fill="#f7882d"/><path d="M656.968,279.862h-3.44a.8.8,0,0,1-.8-.8h0a.8.8,0,0,1,.8-.8h3.44a.8.8,0,0,1,.8.8h0A.8.8,0,0,1,656.968,279.862Z" transform="translate(-641.912 -278.256)" fill="#f7882d"/><path d="M651.164,282.7h-2.582a.8.8,0,0,1-.8-.8h0a.8.8,0,0,1,.8-.8h2.582a.8.8,0,0,1,.8.8h0A.8.8,0,0,1,651.164,282.7Z" transform="translate(-642.357 -278)" fill="#f7882d"/><path d="M645.619,282.7h-2.01a.8.8,0,0,1-.8-.8h0a.8.8,0,0,1,.8-.8h2.01a.8.8,0,0,1,.8.8h0a.8.8,0,0,1-.8.8Z" transform="translate(-642.805 -278)" fill="#f7882d"/><path d="M656.968,282.7h-3.44a.8.8,0,0,1-.8-.8h0a.8.8,0,0,1,.8-.8h3.44a.8.8,0,0,1,.8.8h0a.8.8,0,0,1-.8.8Z" transform="translate(-641.912 -278)" fill="#f7882d"/><path d="M651.612,285.394h-8a.8.8,0,0,1-.8-.8h0a.8.8,0,0,1,.8-.8h8a.8.8,0,0,1,.8.8h0a.8.8,0,0,1-.8.8Z" transform="translate(-642.805 -277.758)" fill="#f7882d"/><path d="M656.968,285.394h-3.44a.8.8,0,0,1-.8-.8h0a.8.8,0,0,1,.8-.8h3.44a.8.8,0,0,1,.8.8h0a.8.8,0,0,1-.8.8Z" transform="translate(-641.912 -277.758)" fill="#f7882d"/><path d="M651.164,288.235h-2.582a.8.8,0,0,1-.8-.8h0a.8.8,0,0,1,.8-.8h2.582a.8.8,0,0,1,.8.8h0a.8.8,0,0,1-.8.8Z" transform="translate(-642.357 -277.502)" fill="#f7882d"/><path d="M645.619,288.235h-2.01a.8.8,0,0,1-.8-.8h0a.8.8,0,0,1,.8-.8h2.01a.8.8,0,0,1,.8.8h0a.8.8,0,0,1-.8.8Z" transform="translate(-642.805 -277.502)" fill="#f7882d"/><path d="M656.968,288.235h-3.44a.8.8,0,0,1-.8-.8h0a.8.8,0,0,1,.8-.8h3.44a.8.8,0,0,1,.8.8h0a.8.8,0,0,1-.8.8Z" transform="translate(-641.912 -277.502)" fill="#f7882d"/></g></g><g transform="translate(322.813 0)"><rect width="47.244" height="42.394" rx="4.084" transform="translate(6.609 0) rotate(8.969)" fill="#e6edf1"/><path d="M683.474,168.392l-32.314-5.1a4.469,4.469,0,0,1-3.719-5.113l4.413-27.977a4.471,4.471,0,0,1,5.115-3.718l32.314,5.1A4.469,4.469,0,0,1,693,136.7l-4.413,27.977A4.471,4.471,0,0,1,683.474,168.392Z" transform="translate(-643.582 -122.818)" fill="#a3bccf"/><path d="M679.913,145.133a10.37,10.37,0,1,0-11.861,8.627,10.37,10.37,0,0,0,11.861-8.627Z" transform="translate(-642.507 -122.213)" fill="#fff"/><path d="M675.176,143.584l-7.5-6.067a.574.574,0,0,0-.925.356l-1.5,9.531a.574.574,0,0,0,.773.625l9.007-3.462a.574.574,0,0,0,.15-.983Z" transform="translate(-641.973 -121.832)" fill="#f25f46"/><g transform="translate(7.284 32.862)"><path d="M685.39,160.029a1.5,1.5,0,0,1-1.725,1.255l-31.816-5.02a1.51,1.51,0,1,1,.471-2.982l31.811,5.022a1.511,1.511,0,0,1,1.259,1.725Z" transform="translate(-650.575 -153.263)" fill="#fff"/><path d="M666.884,155.581l-.471,2.982-14.56-2.3a1.51,1.51,0,1,1,.471-2.982Z" transform="translate(-650.576 -153.263)" fill="#f25f46"/></g></g><g transform="translate(358.965 194.636)"><path d="M769.913,416.519h0a2.6,2.6,0,0,0,2.532-3.214L746.431,305.356h-5.358l26.306,109.169A2.606,2.606,0,0,0,769.913,416.519Z" transform="translate(-671.292 -301.338)" fill="#86a4b6"/><path d="M679.663,416.519h0a2.6,2.6,0,0,1-2.531-3.214l26.011-107.949H708.5L682.2,414.525A2.606,2.606,0,0,1,679.663,416.519Z" transform="translate(-677.059 -301.338)" fill="#86a4b6"/><path d="M698.611,309.706H756.2a4.018,4.018,0,0,0,4.018-4.018h0a4.018,4.018,0,0,0-4.018-4.018H698.611a4.017,4.017,0,0,0-4.017,4.018h0a4.017,4.017,0,0,0,4.018,4.018Z" transform="translate(-675.479 -301.67)" fill="#86a4b6"/><rect width="58.268" height="6.25" transform="translate(80.061 37.947) rotate(180)" fill="#86a4b6"/><rect width="73.115" height="6.251" transform="translate(88.485 67.859) rotate(180)" fill="#86a4b6"/><rect width="84.174" height="6.25" transform="translate(93.285 93.529) rotate(180)" fill="#86a4b6"/></g><g transform="translate(366.961 7.927)"><path d="M709.886,159.736c-2.685-1.875-14.671-12.934-14.671-12.934s.771-3.475.316-4.5a4.909,4.909,0,0,0-1.21-1.895,14.853,14.853,0,0,0-2.847-1.725c-.6-.075-.375,1.088-.15,1.537a20.65,20.65,0,0,0,2.073,2.2.712.712,0,0,1,.115.453c-.022.106-.147.063-.337-.084-.716-.527-2.391-2.444-3.528-3.538a10.526,10.526,0,0,0-3.2-2.349.5.5,0,0,0-.536.712c-.137,0-1.621.021-1.424.884,0,0-.109.025.28.73a1.553,1.553,0,0,0-.085,1.907c0,.011,1.936,3.961,1.936,3.972.736,1.02,2.242,3.528,5.338,4.012,0,0,10.669,15.7,13.608,16.957s14.175,6.553,14.175,6.553l.991-8.343S712.572,161.611,709.886,159.736Z" transform="translate(-684.4 -129.797)" fill="#ffcda9"/><g transform="translate(25.616 0)"><path d="M707.929,302.779c.633-1.456,9.049-2.323,11.975-2.406,3.3-.088.384-2.061,3.04-1.708l2.662.364a9.252,9.252,0,0,1,.942,4.295c0,.166,0,.332-.018.513-.117,1.779-5.427,1.9-10.546,1.383-3.189-.322-6.5-.439-7.892-1.86A.506.506,0,0,1,707.929,302.779Z" transform="translate(-707.896 -115.235)"/><path d="M725.67,293l-.427,8.073s-7.165,1.062-5.883-.223l-.379-7.511Z" transform="translate(-706.897 -115.741)" fill="#eac6bb"/><path d="M732.466,300.6c.658-1.4,8.493-1.619,11.207-1.477,3.061.166.453-2.019,2.9-1.465l2.449.569a9.963,9.963,0,0,1,.667,4.346c-.011.164-.021.329-.041.51-.2,1.758-5.4,1.476-10.117.569-2.939-.566-5.716-.94-6.94-2.459A.537.537,0,0,1,732.466,300.6Z" transform="translate(-705.686 -115.33)"/><path d="M749.489,292.083l-.888,8.036s-6.833.783-6.087-.5l.273-7.576Z" transform="translate(-704.781 -115.83)" fill="#eac6bb"/><path d="M721.367,208.88s20.959,6.682,37.174,3.428c0,0,1.558,22.23-5.74,91.728l-8.516-.219s-2.424-14.25-3.754-71.7l-1.762-.152s-6.676,48.778-11.153,72.07l-9.664-.379S717.709,229.8,721.367,208.88Z" transform="translate(-706.989 -123.319)"/><path d="M761.332,173.45s6.381,15.392,7.133,19.708-13.891,10.136-13.891,10.136l-2.158-4.505,8.038-6.381-8.038-16.146Z" transform="translate(-703.884 -126.51)" fill="#ffcda9"/><path d="M710.715,172.043a69.872,69.872,0,0,1,2.451-12.615c8.755,1.993,17.948-1.393,28.084-2.332,2.254-.209,10.885-.02,15.953,2.945,5.653,3.3,10.136,13.2,11.075,16.389a61.5,61.5,0,0,1-7.348,1.2c1.011,14.685,1.078,41.988,1.078,41.988-17.644,1.69-42.047-4.488-42.047-4.488.511-5.125,2.42-22.764,2.7-42.449A42.244,42.244,0,0,1,710.715,172.043Z" transform="translate(-707.64 -127.988)" fill="#457bf4"/><path d="M730.9,137.213s-1.032,3.286-1.313,4.787-1.814,1.788-1.972,2.251c-.134.4.752,1.5.752,1.5s-1.972,4.318-.752,5.725,5.444,1.407,5.444,1.407v7.321a11.028,11.028,0,0,0,10.793-.656v-7.039s3.848-8.634.375-13.8S730.9,137.213,730.9,137.213Z" transform="translate(-706.154 -129.887)" fill="#ffcda9"/><path d="M727.375,134.728c-.6-2.353.356-3.759,2.737-3.269,4.7.966,7.474-3.035,14.328.251a12.408,12.408,0,0,1,3.474,2.5,13.6,13.6,0,0,0-.128-1.62,4.851,4.851,0,0,1,.925,2.463c.767.148,2.613.585,2.908,1.4a4.669,4.669,0,0,0-2.131-.293c3,4.523,3.261,10.976-2.046,16.1-3.154,3.044-7.8.406-9.348-2.456,0,0,2.9.263,3.115-1.779.171-1.589-1.1-2.7-2.219-1.956-1.708,1.127-1.495,1.366-2.151,1.272a14.261,14.261,0,0,0,.226-5.215s-7.415-1.173-9.057-4.927a8.249,8.249,0,0,0,1.6.8A5.109,5.109,0,0,1,727.375,134.728Z" transform="translate(-706.155 -130.389)"/></g></g><g transform="translate(0 122.634)"><g transform="translate(0 103.217)"><rect width="36.839" height="27.118" transform="translate(195.811 82.509) rotate(180)" fill="#00cf76"/><rect width="36.839" height="53.551" transform="translate(145.456 82.509) rotate(180)" fill="#f25f46"/><rect width="36.839" height="82.509" transform="translate(95.1 82.509) rotate(180)" fill="#f7882d"/><rect width="36.839" height="41.817" transform="translate(44.745 82.509) rotate(180)" fill="#457bf4"/><path d="M351.274,402.767H547.4a3.522,3.522,0,0,1,3.522,3.521h0a3.523,3.523,0,0,1-3.522,3.523H351.274a3.523,3.523,0,0,1-3.521-3.523h0a3.521,3.521,0,0,1,3.522-3.521Z" transform="translate(-347.753 -323.779)" fill="#f2f2f2"/></g><g transform="translate(67.031 0)"><path d="M464.125,387.87c-.22.851,18.562,3.663,18.683,3.113.35-1.562-.23-3.7-1.171-4.2a6.653,6.653,0,0,0-2.082-.562,23.815,23.815,0,0,1-5.844-1.21,9.4,9.4,0,0,1-2.092-1.191h-.01a4.445,4.445,0,0,1-1.362-1.461l-3.782-.981a62.674,62.674,0,0,0-2.341,6.494Z" transform="translate(-404.304 -222.489)"/><path d="M447.215,399.861c-.1.873,18.885,1.148,18.933.588.138-1.6-.722-3.639-1.723-4.009a6.659,6.659,0,0,0-2.135-.277,23.785,23.785,0,0,1-5.952-.42,9.409,9.409,0,0,1-2.232-.9h-.01a4.436,4.436,0,0,1-1.544-1.266l-3.88-.466a62.791,62.791,0,0,0-1.457,6.75Z" transform="translate(-405.827 -221.431)"/><path d="M453.445,388.216l-.485,6.221a2.206,2.206,0,0,1-2.075,2.03h0a2.206,2.206,0,0,1-2.326-2.135l-.187-6.055Z" transform="translate(-405.722 -221.872)" fill="#f7d0bd"/><path d="M453.378,397.494c.6.384,7.424,1.068,7.723.142a10.5,10.5,0,0,1,.65-1.612,23.789,23.789,0,0,1-5.953-.42,9.409,9.409,0,0,1-2.233-.9h-.01S452.783,397.121,453.378,397.494Z" transform="translate(-405.292 -221.29)"/><path d="M471.836,377.173l-1.311,6.1a2.206,2.206,0,0,1-2.33,1.735h0a2.206,2.206,0,0,1-2.02-2.426l.626-6.026Z" transform="translate(-404.12 -222.924)" fill="#f7d0bd"/><path d="M410.552,318.1s-3.887,8.358,5.054,16.909,32.415,17.554,33.618,21.053.106,41.477.106,41.477,7.412.39,9.8,0,6.429-39.338,4.076-44.984c-3.679-8.83-23.293-25.066-23.293-25.066s17.888,12.541,26.061,24.468c4.929,7.189,1.766,24.989,2.544,32.374,2.863,2.11,10.477,1.122,10.477,1.122s3.5-36.154-2.116-44.237c-11.758-16.914-36.878-28.563-36.878-28.563Z" transform="translate(-409.205 -228.679)" fill="#ffc550"/><path d="M432.408,269.677c-5.119-1.765-10.585,2.253-5.971,9.971s13.07,23.289,18.208,27.631c3.157,2.668,22.868,14.529,25.855,13l-2.079-5.007-14.546-10.909a19.048,19.048,0,0,1-6.229-8.081C444.29,288.01,437.605,271.468,432.408,269.677Z" transform="translate(-407.855 -232.586)" fill="#f25f46"/><path d="M425.112,265.091s-10.525,3.779-13.916,22.285-1.327,38.147-1.327,38.147,19.836,1.253,34.462-7.931c0,0-2.371-33.349-8.114-45.862C433.36,265.511,425.112,265.091,425.112,265.091Z" transform="translate(-409.247 -232.962)" fill="#f25f46"/><path d="M447.395,319.927l-14.529-1.139,13.25,5.79Z" transform="translate(-407.119 -228.126)" fill="#a3bccf"/><path d="M432.871,318.788l-.071.891,13.277,6.173.043-1.274Z" transform="translate(-407.125 -228.126)" fill="#e6edf1"/><path d="M475.092,326.457,445.025,324.1l-.043,1.274,30.084,2.167Z" transform="translate(-406.028 -227.648)" fill="#a3bccf"/><path d="M438.052,244.024a13.025,13.025,0,0,1,1.413,8.524c-.569,2.809,2.142,3.761,1.165,4.381-1.922,1.219-1.586,3.075-1.606,3.981s.6,4.99-5.045,4.247c-2.053-.271-3.14,1.673-3.121,4.266,0,0-1.046,4.671-9.189-.783,0,0,1.514-9.609-.925-17.438C425.682,245.386,429.593,238.675,438.052,244.024Z" transform="translate(-408.213 -235.036)" fill="#ffcda9"/><path d="M429.589,275.668c-3.752-3.9-10.447-2.272-10.458,6.718-.01,9.005,2.2,20.8,5.455,25.876,2.229,3.48,24.661,16.057,27.932,15.312l-.783-5.364L434.458,305.9a8.057,8.057,0,0,1-2.555-5.671C431.731,294.036,432.645,278.849,429.589,275.668Z" transform="translate(-408.356 -232.189)" fill="#f25f46"/><path d="M475.089,328.5l-30.067-2.358,6.534-23.773a1.192,1.192,0,0,1,1.241-.872l27.649,2.168a1.192,1.192,0,0,1,1.056,1.5Z" transform="translate(-406.024 -229.686)" fill="#e6edf1"/><path d="M419.372,246.971a6.114,6.114,0,0,0-2.116.783c.356-2.3,3.017-2.943,3.017-2.943.67-2.665,2.3-3.187,2.3-3.187a2.533,2.533,0,0,0-.854,2.274c3.844-3.766,9.3-4.707,12.745-4.891a8.206,8.206,0,0,0,5.24-2.349c.617-.6,1.132-1.044,1.132-1.044.883.356,5.306,4.207,4,9.484-.869,3.522-4.908,4.673-7.5,5.054a12.708,12.708,0,0,1-3.2-.062c-2.83-.3-4.722,3.1-5,5.472-.308,2.634,2.074,6.833,4.258,5.2s6.224-1.77,6.224-1.77,1.942,3.963.945,5.836c-1.46,2.751-9.671,1.647-12.238-.046s-.5-8.4-2.314-10.185-3.351,1.951-1.088,3.326c1.05.641-.049,6.335-.049,6.335C419.521,263.883,415.184,254.489,419.372,246.971Z" transform="translate(-408.526 -235.614)"/><path d="M470.5,386.358c.541.46,7.215,2.051,7.635,1.171a10.6,10.6,0,0,1,.861-1.512,23.816,23.816,0,0,1-5.844-1.21,9.4,9.4,0,0,1-2.092-1.191h-.01S469.958,385.908,470.5,386.358Z" transform="translate(-403.744 -222.287)"/></g></g></g><g transform="translate(198.518 272.988)"><g transform="translate(0 0)"><g transform="translate(1.653 15.416)"><g transform="translate(10.621 0)"><path d="M363.232,276A6.361,6.361,0,1,0,370,270.073,6.361,6.361,0,0,0,363.232,276Z" transform="translate(-338.901 -262.711)" fill="#131637"/><path d="M364.819,271.86a4.342,4.342,0,1,0,4.618-4.04A4.342,4.342,0,0,0,364.819,271.86Z" transform="translate(-338.109 -263.835)" fill="#131637"/><path d="M370.613,270.217a1.579,1.579,0,1,1-1.724-1.419,1.579,1.579,0,0,1,1.724,1.419Z" transform="translate(-336.789 -263.345)" fill="#131637"/><path d="M370.739,271.522a1.579,1.579,0,1,1-1.723-1.419,1.579,1.579,0,0,1,1.723,1.419Z" transform="translate(-336.727 -262.696)" fill="#131637"/><path d="M379.08,270.607s-1.424-6.818-10.61-5.207c0,0-7.722-.791-11.265,7.565a17.091,17.091,0,0,1,1.884,8.308c-.54,12.942-2.465,26.871-9.757,37.916-.12.181-.253.344-.376.521-.614,1.689-1.271,3.362-1.977,5,2.161,1.9,5.57,3.321,11,2.709a151.319,151.319,0,0,0,8.743-27.6l5.456-9.792,6.17-5.5S383.879,271.6,379.08,270.607Z" transform="translate(-346.979 -265.154)" fill="#131637"/><path d="M370.424,271.825c.009.129,2.712,6.391,2.739,11.226l-4.528-.187Z" transform="translate(-336.206 -261.835)" fill="#ff907d"/><path d="M372.987,269.428s8.743,7.005,1.06,23.839l-6.631-1.31-.529,7.906-8.642-.578.616-9.193a9.5,9.5,0,0,0,4.169-7.108s-4.428-.569-3.767-4.573c.421-2.553,4.076-2.794,5.006-.147l-.172,2.6s1.957-.811,2.392-4.38c0,0,4.66-2.556,2.791-7.3Z" transform="translate(-341.373 -263.15)" fill="#ffcda9"/><path d="M367.735,279.726l4.16.848a32.852,32.852,0,0,1-1.119,3.934A3.952,3.952,0,0,1,367.735,279.726Z" transform="translate(-336.696 -257.905)" fill="#fff"/><path d="M370.565,270.165a2.524,2.524,0,1,1-2.755-2.27A2.524,2.524,0,0,1,370.565,270.165Z" transform="translate(-337.75 -263.796)" fill="#131637"/><path d="M369.525,272.868a3.878,3.878,0,1,1-4.233-3.488A3.878,3.878,0,0,1,369.525,272.868Z" transform="translate(-339.612 -263.059)" fill="#131637"/><path d="M365.08,287.071h0c-4.447-.3-8.751,3.118-8.439,7.563,1.9,27.131-7.727,50.489-7.727,50.489h30.094s-2.622-24.252-1.952-26.04,7.559-4.271,7.559-11.142l-11.83-16.293A9.906,9.906,0,0,0,365.08,287.071Z" transform="translate(-346.016 -254.261)" fill="#f25f46"/><path d="M373.633,315.984a6.062,6.062,0,0,1,1.875-1.851,60.213,60.213,0,0,1-2.476-10.118c-2.048-12.456-10.382-11.677-13.36-9.335-4.919,3.865-5.2,10.925-.611,20.265,4.769,9.694,10.374,16.293,15.877,20.8C374.21,328.424,373.186,317.181,373.633,315.984Z" transform="translate(-342.594 -251.162)" fill="#f25f46"/><path d="M365.172,290.62l.274.177,2.245.656a2.08,2.08,0,0,1,1.483,2.234l-.232,2.031a10.594,10.594,0,0,1,6.691,9.218" transform="translate(-337.929 -252.487)" fill="#fff"/><path d="M357.719,287.791l.169-.906c-1.068.476,5.652-2.089,10.541,2.519l.451,3.219A24.456,24.456,0,0,0,357.719,287.791Z" transform="translate(-341.636 -254.489)" fill="#fff"/><path d="M355.474,285.733a4.393,4.393,0,1,0,3.95-4.794,4.393,4.393,0,0,0-3.95,4.794Z" transform="translate(-342.763 -257.313)" fill="#131637"/><path d="M353.894,287.941a3.234,3.234,0,1,0,2.908-3.531,3.234,3.234,0,0,0-2.908,3.531Z" transform="translate(-343.547 -255.583)" fill="#131637"/></g><path d="M358.256,295.5c.826-3.7,6.786-9.571,16.253-1.219,11.329,10,22.654,15.112,43.319,8.865l3.48,6.3s-18.288,16.974-50.709,2.14C361.133,307.249,356.891,301.6,358.256,295.5Z" transform="translate(-330.872 -250.033)" fill="#f25f46"/><path d="M372,265.336s-9.627-1.582-13.459,12.4c0,0-1.357,24.135-12.8,34.526s-5.535,25.676,12.8,27.094a24.005,24.005,0,0,0,2.046-15.628s5.212-11.313,2.74-18.8c0,0,8.684-2.08,4.672-12.9-4.319-8.039,1.866-17.964,1.866-17.964l6.7-4.477Z" transform="translate(-339.886 -265.09)" fill="#131637"/></g><g transform="translate(0 0)"><g transform="translate(62.255)"><path d="M226.022,298.9a47.138,47.138,0,0,1,33.751-63.53L264.8,258.31a23.686,23.686,0,0,0-18.617,23.128,23.425,23.425,0,0,0,1.679,8.765Z" transform="translate(-222.664 -235.374)" fill="#ffc550"/><path d="M297.05,315.347a47.083,47.083,0,0,1-33.35,13.819,47.6,47.6,0,0,1-6.4-.432,47.012,47.012,0,0,1-26.967-13.387c-.368-.368-.721-.752-1.073-1.139l17.146-16.043a23.666,23.666,0,1,0,27.751-37.395l10.4-21.065a47.136,47.136,0,0,1,12.493,75.641Z" transform="translate(-218.72 -232.772)" fill="#f25f46"/><path d="M275.425,241.54l-10.4,21.064a23.41,23.41,0,0,0-10.463-2.447,23.777,23.777,0,0,0-5.051.543l-5.025-22.936c1.216-.272,2.447-.5,3.678-.656a45.749,45.749,0,0,1,6.429-.448,46.923,46.923,0,0,1,13.275,1.922A45.783,45.783,0,0,1,275.425,241.54Z" transform="translate(-209.59 -234.602)" fill="#f7882d"/><path d="M232.785,297.821a46.458,46.458,0,0,1-9.385-14.745l21.832-8.7a23.439,23.439,0,0,0,4.7,7.4Z" transform="translate(-222.239 -211.997)" fill="#d1d9fe"/></g><path d="M393.69,395.711c0,5.714-11.864,10.347-26.5,10.347s-26.5-4.633-26.5-10.347,11.866-10.346,26.5-10.346S393.69,390,393.69,395.711Z" transform="translate(-337.833 -189.943)" fill="#f8a966" opacity="0.6"/><g transform="translate(0 106.278)"><path d="M368.325,325.833h5.7l-3.207,98.984h-4.26s-7.68-30.84-5.623-51.182c1.764-23.423-2.016-33.575-2.016-33.575" transform="translate(-328.764 -325.833)" fill="#00216c"/><path d="M380.681,325.833l-8.225,46.579-28.74,44.14-4.405-1.837S349.958,383,361.3,367.8l-5.743-23.036a48.6,48.6,0,0,1-1.867-18.926Z" transform="translate(-338.518 -325.833)" fill="#002a88"/><path d="M339.577,385.19l-.641.9a.861.861,0,0,0,.163,1.164l12.833,10s.661-4.849-5.4-9.911A20.747,20.747,0,0,0,339.577,385.19Z" transform="translate(-338.78 -296.308)" fill="#000f1f"/></g><path d="M363.585,391.844v1.122a.811.811,0,0,0,.792.829h15.985s-2.225-4.3-9.965-4.579A20.971,20.971,0,0,0,363.585,391.844Z" transform="translate(-326.444 -188.027)" fill="#000f1f"/></g><g transform="matrix(0.934, -0.358, 0.358, 0.934, 19.463, 66.271)"><path d="M2.527,2.251c2.517-2.83,10.58-5.071,14.8,6.828,5.048,14.24,12.463,24.212,33.56,28.791l-.016,7.194S26.639,51.019,5.505,22.3C-.664,13.922-1.636,6.924,2.527,2.251Z" transform="translate(0 0)" fill="#f25f46"/><path d="M2.072,5.889A21.221,21.221,0,0,1,5.921,3.266S11.5.386,12.392,0c0,0,1.165.925-.156,2.174a19.243,19.243,0,0,1-3.324,2.36,14.91,14.91,0,0,0,4.378-.373c1.662-.539,4.973-1.511,5.946-1.021s.168,1.289.168,1.289S14.319,5.918,13.23,6.246c-.955.285-.584.619-.584.619s6.165-.367,7.269-.427,1.556.524,1.278,1.495c0,0-3.288.217-5.3.527-.7.107-3.137.043-2.971.825,0,0,5.318.235,6.217.168a.878.878,0,0,1,.838,1.46l-7.234.236s-.5.111-.319.414a17.01,17.01,0,0,0,3.778,1.261c.373.014,1.537.154,1.286,1.081,0,0-.129.3-1.222.187S9.982,13.6,9.982,13.6a15.993,15.993,0,0,1-6.9-1.637C-.392,10.2-.387,8.649.489,10.69l.7-2Z" transform="translate(47.979 33.668)" fill="#ffcda9"/><path d="M5.655,9.188,6.145.594.73,0,0,8.627Z" transform="translate(46.197 36.948)" fill="#fff"/></g></g></g></g></g></svg>