<svg xmlns="http://www.w3.org/2000/svg" viewBox="0 0 28.6 28.6"><defs><style>.cls-1{fill:#bcbcbc;}</style></defs><title>Asset 2</title><g id="Layer_2" data-name="Layer 2"><g id="Capa_1" data-name="Capa 1"><path class="cls-1" d="M14.3,0A14.3,14.3,0,0,0,0,14.3H0a14.3,14.3,0,0,0,28.6,0h0A14.3,14.3,0,0,0,14.3,0ZM10.78,20.68h-3V11.11h3ZM9.28,9.86A1.76,1.76,0,1,1,11,8.1,1.76,1.76,0,0,1,9.28,9.86ZM21.87,20.68H18.92v-5c0-1.38-.52-2.15-1.61-2.15s-1.8.8-1.8,2.15v5H12.67V11.11h2.84V12.4a3.33,3.33,0,0,1,2.88-1.58c2,0,3.48,1.24,3.48,3.8Z"/></g></g></svg>