<svg xmlns="http://www.w3.org/2000/svg" viewBox="0 0 28.46 28.46"><defs><style>.cls-1{fill:#bcbcbc;}</style></defs><title>Asset 3</title><g id="Layer_2" data-name="Layer 2"><g id="Capa_1" data-name="Capa 1"><path class="cls-1" d="M14.23,0h0A14.23,14.23,0,0,0,0,14.23H0A14.23,14.23,0,0,0,14.23,28.46h0A14.23,14.23,0,0,0,28.46,14.23h0A14.23,14.23,0,0,0,14.23,0Zm4,8.64H16.32c-.66,0-.8.27-.8,1v1.65H18.2l-.26,2.9H15.52v8.67H12.06V14.19h-1.8V11.25h1.8V8.94c0-2.17,1.16-3.31,3.74-3.31h2.4Z"/></g></g></svg>