<svg xmlns="http://www.w3.org/2000/svg" viewBox="0 0 38.06 38.06"><defs><style>.cls-1{fill:#bcbcbc;}</style></defs><title>Asset 4</title><g id="Layer_2" data-name="Layer 2"><g id="Capa_1" data-name="Capa 1"><path class="cls-1" d="M19,0A19,19,0,0,0,0,19H0a19,19,0,0,0,38.06,0h0A19,19,0,0,0,19,0Zm8.06,14.89A11.83,11.83,0,0,1,8.89,25.4a8.36,8.36,0,0,0,6.16-1.72,4.16,4.16,0,0,1-3.89-2.89A4.16,4.16,0,0,0,13,20.72a4.17,4.17,0,0,1-3.34-4.13,4.15,4.15,0,0,0,1.89.52,4.17,4.17,0,0,1-1.29-5.56,11.81,11.81,0,0,0,8.58,4.35A4.16,4.16,0,0,1,26,12.1a8.34,8.34,0,0,0,2.64-1,4.17,4.17,0,0,1-1.83,2.3,8.31,8.31,0,0,0,2.39-.65A8.44,8.44,0,0,1,27.09,14.89Z"/></g></g></svg>