<svg xmlns="http://www.w3.org/2000/svg" width="99.746" height="101.466" viewBox="0 0 99.746 101.466"><g transform="translate(-4)"><path d="M0,0H44.714V75.67H0Z" transform="translate(31.516 8.599)" fill="#f7882d"/><path d="M28.077,67.516H7.44A3.439,3.439,0,0,1,4,64.077V43.44A3.439,3.439,0,0,1,7.44,40H28.077a3.439,3.439,0,0,1,3.44,3.44V64.077A3.439,3.439,0,0,1,28.077,67.516Z" transform="translate(0 -31.401)" fill="#dedfe3"/><path d="M196.077,115.516H175.44a3.439,3.439,0,0,1-3.44-3.44V91.44A3.439,3.439,0,0,1,175.44,88h20.637a3.439,3.439,0,0,1,3.44,3.44v20.637A3.439,3.439,0,0,1,196.077,115.516Z" transform="translate(-131.885 -69.083)" fill="#457bf4"/><path d="M36,74.408l.6.4a11.705,11.705,0,0,0,6.544,2h0V75.01A2.993,2.993,0,0,1,46.12,72h0A2.993,2.993,0,0,1,49.1,75.01l2.381,1.806L49.1,79.223h0a4.789,4.789,0,0,1-4.762,4.815H36l2.381-2.408h0A8.266,8.266,0,0,1,36,75.818Z" transform="translate(-25.121 -56.522)" fill="#457bf4"/><g transform="translate(48.714 13.758)"><path d="M222.319,115.44V112h-5.159a1.719,1.719,0,0,0-1.72,1.72v5.159H212v3.44h3.44V129.2h3.44v-6.879h3.44v-3.44h-3.44v-3.44Z" transform="translate(-212 -101.681)" fill="#fff"/><path d="M353.758,70.879A6.879,6.879,0,0,1,346.879,64H340V74.319a3.44,3.44,0,0,0,3.44,3.44h20.637a3.44,3.44,0,0,0,3.44-3.44V64h-6.879A6.879,6.879,0,0,1,353.758,70.879Z" transform="translate(-312.484 -64)" fill="#dedfe3"/></g><path d="M364.077,0H343.44A3.44,3.44,0,0,0,340,3.44V13.758h6.879a6.879,6.879,0,1,1,13.758,0h6.879V3.44A3.44,3.44,0,0,0,364.077,0Z" transform="translate(-263.77)" fill="#f25f46"/><g transform="translate(52.153 6.879)"><circle cx="6.879" cy="6.879" r="6.879" transform="translate(30.956)" fill="#fff"/><rect width="3.44" height="3.44" transform="translate(0 61.912)" fill="#fff"/></g><path d="M120.038,312.676a8.6,8.6,0,0,0,8.6-8.6v-1.72A13.758,13.758,0,0,0,114.879,288.6h5.159a8.6,8.6,0,0,0,8.6-8.6h-17.2a3.44,3.44,0,0,0-3.44,3.44v37.835h27.516v-8.6Z" transform="translate(-81.643 -219.808)" fill="#ffcda9"/><path d="M172.6,392a8.6,8.6,0,0,1-8.6,8.6h15.478v8.6H189.8v-8.6h3.44V392Z" transform="translate(-125.605 -307.732)" fill="#ffb179"/><g transform="translate(58.173 58.472)"><path d="M307.478,280.6H296.3a4.3,4.3,0,0,1-4.3-4.3h0a4.3,4.3,0,0,1,4.3-4.3h11.178a4.3,4.3,0,0,1,4.3,4.3h0A4.3,4.3,0,0,1,307.478,280.6Z" transform="translate(-284.261 -272)" fill="#ffcda9"/><path d="M307.478,320.6H296.3a4.3,4.3,0,0,1-4.3-4.3h0a4.3,4.3,0,0,1,4.3-4.3h11.178a4.3,4.3,0,0,1,4.3,4.3h0A4.3,4.3,0,0,1,307.478,320.6Z" transform="translate(-284.261 -303.401)" fill="#ffcda9"/><path d="M295.478,360.6H284.3a4.3,4.3,0,0,1-4.3-4.3h0a4.3,4.3,0,0,1,4.3-4.3h11.178a4.3,4.3,0,0,1,4.3,4.3h0A4.3,4.3,0,0,1,295.478,360.6Z" transform="translate(-274.841 -334.802)" fill="#ffcda9"/><path d="M271.478,400.6H260.3a4.3,4.3,0,0,1-4.3-4.3h0a4.3,4.3,0,0,1,4.3-4.3h11.178a4.3,4.3,0,0,1,4.3,4.3h0A4.3,4.3,0,0,1,271.478,400.6Z" transform="translate(-256 -366.204)" fill="#ffcda9"/></g></g></svg>