<svg xmlns="http://www.w3.org/2000/svg" width="684.216" height="651.906" viewBox="0 0 684.216 651.906"><g transform="translate(-107.951 -176.895)"><g transform="translate(107.951 176.895)"><path d="M54.3,385.873l341.254-247.3L737.687,384.615Z" transform="translate(-53.472 -138.571)" fill="#d9dfe1" fill-rule="evenodd"/><path d="M333.292,329.529l-.025,0L54.3,531.711,333.3,329.529Z" transform="translate(-53.472 120.196)" fill="none"/><path d="M225.708,329.43,505.417,530.584,225.708,329.43Z" transform="translate(178.799 120.064)" fill="none"/><path d="M737.334,243.311,53.951,244.57l.855.616,681.663-1.246Z" transform="translate(-53.951 3.364)" fill="#b2b1a6"/><path d="M395.545,400.879l61.922,44.532,278.51-201.833L54.314,244.824l279.352,200.9Z" transform="translate(-53.459 3.726)" fill="#b2b1a6"/><path d="M172.767,329.688l.766,0-.383-.276Z" transform="translate(107.058 120.037)" fill="#e4e0d0"/><path d="M225.283,329.641l.951,0,.05,0-.5-.358Z" transform="translate(178.223 119.858)" fill="#e4e0d0"/><g transform="translate(52.32 29.067)"><rect width="573.056" height="447.624" fill="#464646"/><rect width="530.96" height="305.539" transform="translate(21.048 54.318)" fill="#fff3e1"/><g transform="translate(21.048 366.468)"><g transform="translate(0 6.716)"><rect width="63.744" height="3.642" fill="#c62433"/><rect width="467.216" height="3.642" transform="translate(63.744)" fill="#fff"/></g><rect width="4.301" height="17.074" transform="translate(64.069)" fill="#fff"/><path d="M320.684,331.893H303.077V313.679h17.607ZM306.72,328.25h10.322V317.322H306.72Z" transform="translate(210.275 -296.815)" fill="#fff"/><path d="M302.131,331.893a9.107,9.107,0,1,1,9.107-9.107A9.118,9.118,0,0,1,302.131,331.893Zm0-14.571a5.464,5.464,0,1,0,5.464,5.464A5.471,5.471,0,0,0,302.131,317.322Z" transform="translate(196.652 -296.815)" fill="#fff"/><path d="M85.1,314.066v17.15l11.231-8.575Z" transform="translate(-85.104 -296.29)" fill="#fff"/><path d="M105.733,334.084a1.816,1.816,0,0,1-1.1-.372L93.4,325.137a1.823,1.823,0,0,1,0-2.9l11.232-8.573a1.821,1.821,0,0,1,2.927,1.446v17.15a1.822,1.822,0,0,1-1.823,1.821Zm-8.229-10.4,6.408,4.894V318.8Z" transform="translate(-74.836 -297.338)" fill="#fff"/></g><path d="M310.647,307.043l-117.7,86.277a9.587,9.587,0,0,1-15.254-7.732V212.148a9.587,9.587,0,0,1,15.292-7.7l117.7,87.163A9.586,9.586,0,0,1,310.647,307.043Z" transform="translate(61.408 -80.944)" fill="#f7882d"/></g><path d="M225.994,445.77h0L505.7,646.924l-.737-403.347-.961,0L225.5,445.412Z" transform="translate(178.512 3.724)" fill="#edf0f2"/><path d="M333.725,445.282h0l.382-.278L54.76,244.107h-.775l.752,403.355L333.7,445.28Z" transform="translate(-53.904 4.443)" fill="#edf0f2"/><path d="M457.978,355.259l-.05,0-.951,0,.5-.363-61.922-44.532-61.879,44.842.383.276-.766,0L54.3,557.672l683.383-1.258Z" transform="translate(-53.472 94.235)" fill="#edf0f2"/></g></g></svg>