<svg xmlns="http://www.w3.org/2000/svg" xmlns:xlink="http://www.w3.org/1999/xlink" width="666.977" height="869.304" viewBox="0 0 666.977 869.304"><defs><clipPath id="a"><path d="M86.254,67.01l46.316,423.8,249.893,45.863,202.444-82.238L613.947,44.394l-253.1-31.784Z" transform="translate(-86.254 -12.611)" fill="none"/></clipPath></defs><g transform="translate(-59.156 -12.61)"><g transform="translate(59.156 407.701)"><path d="M164.366,377.354,59.156,410.036l355.1,79.643L726.133,359.635,616.7,346.885,164.366,377.354" transform="translate(-59.156 -15.467)" fill="none"/><g transform="translate(38.531)"><g transform="translate(66.679)"><path d="M200.711,194.4V466.121L450.6,525.814V240.264Z" transform="translate(1.733 -194.396)" fill="#764820"/><path d="M107.564,276.641,310.008,194.4V466.133L107.564,556.281Z" transform="translate(-107.564 -194.396)" fill="#ad692e"/></g><path d="M107.564,232.638V511.41L357.458,571.1V278.5Z" transform="translate(-40.885 -149.523)" fill="#e58b3d"/><path d="M222.543,298.139,424.987,215.9V500.587l-202.444,90.15Z" transform="translate(94.029 -169.162)" fill="#ad692e"/><path d="M143.564,232.638,393.457,278.5,319.409,329.68,76.885,281.157Z" transform="translate(-76.885 -149.523)" fill="#925827"/><path d="M222.543,298.139l53.545,51.968L479.6,260.99,424.987,215.9Z" transform="translate(94.029 -169.162)" fill="#e58b3d"/><path d="M258.171,291.035Z" transform="translate(111.946 -110.09)" fill="#ccc"/></g></g><g transform="translate(118.05 12.611)"><g clip-path="url(#a)"><g transform="translate(51.164 26.325)"><g transform="translate(7.866)"><path d="M148.875,255.947c26.1,16.587,74.834,27.754,130.7,27.754s104.586-11.167,130.688-27.754c-26.1-16.579-74.834-27.741-130.688-27.741S174.973,239.369,148.875,255.947Z" transform="translate(-71.804 214.042)" fill="#24110b"/><path d="M447.442,68.241c-29.163-8.522-61.75,6.516-81.272,28.222-12.608,14.016-21.212,31.592-26.587,50a46.873,46.873,0,0,1-20.919-21.358c-2.482-4.966-2.856-10.093-2.649-15.522.074-1.982-.374-4.818-2.895-4.986-.165-.013-.335-.024-.5-.035a3.3,3.3,0,0,0-2.917,1.673c-4.453,9.046-.076,20.213,4.662,28.269a49.971,49.971,0,0,0,23.027,20.3,184.123,184.123,0,0,0-3.977,23.484c-.763,7.387-1.617,14.768-2.619,22.123-.187,0-.365-.009-.552-.015-5.038-.211-9.843-2.2-14.1-4.755-4.305-2.586-7.535-6.553-10.111-10.782-2.717-4.466-3.036-10-6.109-14.151-.765-1.037-2.623-1.43-3.306,0-4.9,10.348,5.364,24.09,13.095,30.206,4,3.167,12.421,7.522,19.778,8.4-1.432,9.233-3.125,18.42-5.24,27.535-4.079,17.6-9.915,43.5-26.813,53.511-7.837,4.642-15.312.969-22.712-2.336-.046-.024-.076-.052-.117-.074a31.814,31.814,0,0,1-5.82-3.827c-1.456-1.174-2.765-2.725-4.338-3.762a147.576,147.576,0,0,0-8.007-14.058c-7.02-10.824-15.651-20.228-24.922-29.028,1-5.631,1.326-11.156,3.01-16.72,2.052-6.777,5.46-13.138,8.368-19.569,4.651-10.291,7.92-20.86,8.178-32.205.252-11.106-1.671-22.336-3.1-33.318-1.1-8.478-3.4-21.273.28-29.465,1.013-2.265-1.6-4.621-3.558-2.745-6.538,6.283-6.627,14.049-6.39,22.823.341,12.41,2.6,24.681,3.1,37.085.539,13.345-3.506,24.959-9.224,36.88-4.062,8.472-9.448,18.482-10.345,28.406-6.392-5.644-12.925-11.145-19.313-16.735-2.319-2.026-4.59-4.1-6.84-6.2.293-.926.619-1.839.948-2.756.419-1.2.785-2.458,1.282-3.617a2.76,2.76,0,0,0,.18-.6c6.983-9.9,5.575-21.358,3.015-33.046-1.706-7.779-4.614-15.318-7.5-22.716-2.547-6.54-4.868-13.514-9.191-19.106-.393-.515-1.167-.046-1.182.493-.459,11.547,6.614,23.74,9.856,34.661,3.573,12.021,5.118,26.385-3.354,36.711-.093.115-.159.235-.239.354-1.106.093-2.019.117-3.093.126a3.552,3.552,0,0,0-.359.039c-3.408-3.562-6.69-7.237-9.8-11.063-8.876-10.9-15.066-23.527-20.962-36.2-.619-1.343-2.445-.324-2.228.937,4.355,25.194,23.044,45.5,41.01,62.461,9.465,8.946,19.4,17.572,28.81,26.672a4.387,4.387,0,0,0,2.143,2.1,186.471,186.471,0,0,1,23.729,27.6c8.372,12.271,13.5,26.12,18.054,40.164a238.686,238.686,0,0,1,9.083,38.541,21.791,21.791,0,0,0-11.7-6.34,40.064,40.064,0,0,0-12.114-.037,123.784,123.784,0,0,0-16.468.589c-8.722.717-17.063,1.454-25.185.439-.191-.054-.385-.1-.576-.163,17.913-14.329,22.247-46.993,12.178-66.082-1.248-2.367-5.679-1.428-5.3,1.434,1.6,11.938,3.688,22.745,1.8,34.892-1.834,11.819-7.259,20.728-16.887,26.52a39.676,39.676,0,0,1-7.5-4.729c-9.33-7.6-11.8-19.2-16.453-29.6-1.991-7.363-3.206-14.773-4.492-22.442-.193-1.174-2.028-1.093-2.282,0-.074.311-.124.63-.187.945a1.8,1.8,0,0,0-.778.9c-2.28,5.794-1.969,12.584-.922,18.635a57.9,57.9,0,0,0,2.706,11.347,67.062,67.062,0,0,0,4.151,12c1.256,2.815,3.475,8.233,6.431,12.282,4.347,8.428,14.483,12.01,25.294,13.3a67.954,67.954,0,0,0,19.026,1.317c.248-.013.506-.037.756-.052a101.324,101.324,0,0,0,17.624-1.547c8.052-.383,16.081.319,21.867,4.857,6.738,5.281,7.568,16.322,7.122,24.066-.556,9.559-4.655,18.872-7.768,27.8-6.325,18.172-6.485,34.663,6.69,49.777,4.258,4.886,11.61-2.371,7.135-7.137a36.486,36.486,0,0,1-3.756-4.7,55.769,55.769,0,0,1-1.011-14.807c.667-7.924,3.371-15.757,5.6-23.36,1.274-2.176,2.226-4.592,3.553-6.742,2.415-3.919,5.3-7.5,7.637-11.478a72.783,72.783,0,0,1,5.712-8.433,52.963,52.963,0,0,1,16.148-12.049c11.5-5.633,24.12-8.624,35.848-13.742,11.089-4.838,21.208-12.156,26.583-23.286,3.145-6.511,4.316-13.682,4.575-20.856.315-8.837-.369-20.665-4.534-28.541-2.16-4.1-8.352-2.063-8.426,2.284-.161,9.211,3.151,18.272,2.815,27.7a37.167,37.167,0,0,1-5.764,18.989c-3.1,4.818-7.611,8.378-12.621,11.23a3.307,3.307,0,0,0-.335-.2c-8.6-4.032-15.379-6.659-20.439-15.316-5.036-8.609-2.969-16.863-2.436-26.076.126-2.241-3.175-3.8-4.658-1.928-12.158,15.344.463,41.262,17.717,48.317-1.9.778-3.795,1.51-5.631,2.217-17.333,6.679-42.429,14.39-51.068,32.414a149.278,149.278,0,0,0-.376-25.324,233.819,233.819,0,0,0-11.988-55.524c14.438,7.989,31.995,3.33,42.59-10.169,11.7-14.9,17.463-34.187,21.512-52.824,8.515,2.5,21.547-.817,28.78-2.565,12.608-3.045,24.531-9.163,34.944-16.8a78.4,78.4,0,0,0,23.22-26.476c5.077-9.611,8.991-23.749,4.658-34.283-.5-1.211-2.615-1.647-2.908,0-1.974,11.032-2.182,20.617-7.837,30.727-5.394,9.65-13.905,17.468-22.964,23.616-9.139,6.2-19.441,10.328-30.045,13.229a81.054,81.054,0,0,1-15.511,2.6c-3.2.23-6.809-.354-10.217-.328.009-.046.013-.089.022-.13,3.992-20.439,4.851-41.284,8.607-61.716,5.344-29.069,18.113-58.588,43.377-75.591,17.081-11.5,36.485-12.93,56.006-17.161C449.994,72.61,449.764,68.919,447.442,68.241Z" transform="translate(-66.916 23.498)"/><g transform="translate(219.473 29.76)"><path d="M243.889,38.416s-66.356,51.868,0,103.736C243.889,142.152,312.114,95.424,243.889,38.416Z" transform="translate(-214.394 -38.416)" fill="#7d9720"/><path d="M257.725,112.367c-20.452,3.349-34.168-14.494-34.609-33.575a66.317,66.317,0,0,1,9.233-35.124c-15.485,18.117-35.928,55.217,11.543,92.321,0,0,15.142-10.378,24.025-27.313A27.415,27.415,0,0,1,257.725,112.367Z" transform="translate(-214.396 -32.253)" fill="#7d9720" opacity="0.5"/><g transform="translate(6.87 17.957)"><g transform="translate(21.677 0.043)"><path d="M228.933,46.7s.124,1.306.272,3.595c.117,2.289.372,5.557.53,9.478.178,3.923.328,8.5.428,13.4.12,4.9.141,10.132.17,15.362-.009,10.461-.239,20.919-.6,28.765-.154,3.923-.413,7.192-.533,9.478-.148,2.289-.272,3.6-.272,3.6s-.124-1.308-.272-3.6c-.122-2.286-.378-5.555-.532-9.478-.356-7.846-.589-18.3-.6-28.765.03-5.229.052-10.458.17-15.362.1-4.9.252-9.48.43-13.4.159-3.921.411-7.19.53-9.478C228.809,48,228.933,46.7,228.933,46.7Z" transform="translate(-227.531 -46.698)" fill="#404e11"/></g><g transform="translate(0 3.112)"><g transform="translate(13.901)"><path d="M223.953,48.11a18.718,18.718,0,0,1,1.63,1.065,29.049,29.049,0,0,1,3.175,2.752,29.614,29.614,0,0,1,2.756,3.173,19,19,0,0,1,1.061,1.632,19.166,19.166,0,0,1-1.632-1.063,29.087,29.087,0,0,1-3.173-2.754,29.572,29.572,0,0,1-2.754-3.175A18.565,18.565,0,0,1,223.953,48.11Z" transform="translate(-223.953 -48.11)" fill="#404e11"/></g><g transform="translate(10.048 2.628)"><path d="M222.18,49.319s.93.6,2.228,1.608a60.118,60.118,0,0,1,8.578,8.335c1.041,1.269,1.669,2.182,1.669,2.182s-.932-.6-2.228-1.6a59.429,59.429,0,0,1-4.5-3.956,59.8,59.8,0,0,1-4.079-4.384C222.808,50.232,222.18,49.319,222.18,49.319Z" transform="translate(-222.18 -49.319)" fill="#404e11"/></g><g transform="translate(7.42 7.713)"><path d="M220.971,51.659s1.1.75,2.636,1.978,3.51,2.962,5.4,4.773,3.693,3.714,4.988,5.205,2.08,2.556,2.08,2.556-1.1-.75-2.641-1.976-3.506-2.964-5.394-4.775-3.695-3.716-4.986-5.205S220.971,51.659,220.971,51.659Z" transform="translate(-220.971 -51.659)" fill="#404e11"/></g><g transform="translate(4.495 11.719)"><path d="M219.625,53.5s1.276.917,3.095,2.393,4.145,3.543,6.4,5.686,4.425,4.377,5.994,6.116,2.539,2.975,2.539,2.975-1.278-.917-3.095-2.391-4.147-3.545-6.4-5.688-4.423-4.382-5.992-6.118S219.625,53.5,219.625,53.5Z" transform="translate(-219.625 -53.502)" fill="#404e11"/></g><g transform="translate(1.956 16.518)"><path d="M218.457,55.71s1.434,1.061,3.49,2.752,4.7,4.045,7.274,6.475,5.06,4.953,6.864,6.909,2.938,3.334,2.938,3.334-1.434-1.058-3.49-2.749-4.7-4.047-7.274-6.477S223.2,61,221.4,59.044,218.457,55.71,218.457,55.71Z" transform="translate(-218.457 -55.71)" fill="#404e11"/></g><g transform="translate(0 22.225)"><path d="M217.557,58.336s1.552,1.148,3.79,2.967,5.127,4.349,7.946,6.953,5.551,5.305,7.539,7.392S240.08,79.2,240.08,79.2s-1.556-1.145-3.793-2.967-5.127-4.349-7.944-6.955-5.549-5.305-7.539-7.392S217.557,58.336,217.557,58.336Z" transform="translate(-217.557 -58.336)" fill="#404e11"/></g><g transform="translate(0 29.615)"><path d="M217.557,61.736s1.552,1.128,3.79,2.921,5.123,4.286,7.942,6.855,5.553,5.236,7.544,7.3,3.247,3.514,3.247,3.514-1.554-1.126-3.79-2.919-5.127-4.288-7.944-6.857-5.547-5.236-7.539-7.3S217.557,61.736,217.557,61.736Z" transform="translate(-217.557 -61.736)" fill="#404e11"/></g><g transform="translate(0 35.987)"><path d="M217.557,64.668s1.552,1.126,3.79,2.921,5.123,4.284,7.942,6.853,5.553,5.236,7.544,7.3,3.247,3.514,3.247,3.514-1.554-1.126-3.79-2.921-5.127-4.284-7.944-6.855-5.547-5.236-7.539-7.3S217.557,64.668,217.557,64.668Z" transform="translate(-217.557 -64.668)" fill="#404e11"/></g><g transform="translate(0 42.357)"><path d="M217.557,67.6s1.552,1.126,3.79,2.919,5.123,4.286,7.942,6.857,5.553,5.234,7.544,7.3,3.247,3.512,3.247,3.512-1.554-1.126-3.79-2.919-5.127-4.286-7.944-6.857-5.547-5.236-7.539-7.3S217.557,67.6,217.557,67.6Z" transform="translate(-217.557 -67.599)" fill="#404e11"/></g><g transform="translate(0 48.727)"><path d="M217.557,70.53s1.552,1.128,3.79,2.921,5.123,4.286,7.942,6.855,5.553,5.234,7.544,7.294,3.247,3.514,3.247,3.514-1.554-1.126-3.79-2.919-5.127-4.286-7.944-6.857-5.547-5.236-7.539-7.3S217.557,70.53,217.557,70.53Z" transform="translate(-217.557 -70.53)" fill="#404e11"/></g><g transform="translate(0 55.098)"><path d="M217.557,73.461s1.552,1.126,3.79,2.921,5.123,4.286,7.942,6.855,5.553,5.236,7.544,7.3,3.247,3.514,3.247,3.514-1.554-1.128-3.79-2.921-5.127-4.286-7.944-6.857-5.547-5.236-7.539-7.3S217.557,73.461,217.557,73.461Z" transform="translate(-217.557 -73.461)" fill="#404e11"/></g></g><g transform="translate(23.555)"><path d="M237.015,46.678a18.1,18.1,0,0,1-1.065,1.63,29.584,29.584,0,0,1-5.925,5.925,18.554,18.554,0,0,1-1.63,1.061,18.175,18.175,0,0,1,1.061-1.63,29.521,29.521,0,0,1,5.929-5.922A18.329,18.329,0,0,1,237.015,46.678Z" transform="translate(-228.395 -46.678)" fill="#404e11"/><g transform="translate(0 2.628)"><path d="M240.87,47.887s-.628.913-1.671,2.182a59.779,59.779,0,0,1-4.079,4.382,58.929,58.929,0,0,1-4.5,3.953c-1.3,1-2.228,1.606-2.228,1.606s.628-.915,1.667-2.184,2.526-2.862,4.082-4.379a59.74,59.74,0,0,1,4.5-3.953C239.94,48.489,240.87,47.887,240.87,47.887Z" transform="translate(-228.395 -47.887)" fill="#404e11"/></g><g transform="translate(0 7.707)"><path d="M243.5,50.224s-.793,1.063-2.082,2.556-3.1,3.388-4.986,5.207-3.86,3.543-5.4,4.775-2.638,1.978-2.638,1.978.793-1.065,2.08-2.56,3.1-3.386,4.986-5.2,3.86-3.54,5.4-4.773S243.5,50.224,243.5,50.224Z" transform="translate(-228.395 -50.224)" fill="#404e11"/></g><g transform="translate(0 11.712)"><path d="M246.421,52.067s-.976,1.23-2.539,2.973-3.743,3.971-5.992,6.118-4.59,4.208-6.4,5.688-3.093,2.391-3.093,2.391.976-1.23,2.539-2.973,3.74-3.969,5.992-6.118,4.59-4.2,6.4-5.686S246.421,52.067,246.421,52.067Z" transform="translate(-228.395 -52.067)" fill="#404e11"/></g><g transform="translate(0 16.513)"><path d="M248.964,54.276s-1.137,1.374-2.936,3.332-4.3,4.473-6.866,6.911-5.227,4.779-7.279,6.475-3.488,2.749-3.488,2.749,1.135-1.376,2.936-3.334,4.3-4.471,6.866-6.909,5.229-4.777,7.279-6.475S248.964,54.276,248.964,54.276Z" transform="translate(-228.395 -54.276)" fill="#404e11"/></g><g transform="translate(0 22.223)"><path d="M250.918,56.9s-1.261,1.463-3.247,3.553-4.727,4.781-7.54,7.394-5.712,5.129-7.944,6.955-3.793,2.965-3.793,2.965,1.261-1.463,3.247-3.556,4.725-4.781,7.539-7.392,5.712-5.127,7.946-6.955S250.918,56.9,250.918,56.9Z" transform="translate(-228.395 -56.903)" fill="#404e11"/></g><g transform="translate(0 29.612)"><path d="M250.918,60.3s-1.261,1.445-3.249,3.51-4.727,4.721-7.542,7.3-5.709,5.057-7.942,6.855-3.79,2.919-3.79,2.919,1.261-1.447,3.247-3.512,4.727-4.721,7.542-7.3,5.714-5.055,7.944-6.855S250.918,60.3,250.918,60.3Z" transform="translate(-228.395 -60.303)" fill="#404e11"/></g><g transform="translate(0 35.981)"><path d="M250.918,63.233s-1.261,1.447-3.249,3.514-4.727,4.718-7.542,7.3-5.709,5.057-7.942,6.857-3.79,2.919-3.79,2.919,1.261-1.447,3.247-3.514,4.727-4.718,7.542-7.3,5.714-5.055,7.944-6.855S250.918,63.233,250.918,63.233Z" transform="translate(-228.395 -63.233)" fill="#404e11"/></g><g transform="translate(0 42.353)"><path d="M250.918,66.165s-1.261,1.447-3.249,3.512-4.727,4.721-7.542,7.3-5.709,5.057-7.942,6.855-3.79,2.921-3.79,2.921,1.261-1.447,3.247-3.514,4.727-4.718,7.542-7.3,5.714-5.057,7.944-6.855S250.918,66.165,250.918,66.165Z" transform="translate(-228.395 -66.165)" fill="#404e11"/></g><g transform="translate(0 48.723)"><path d="M250.918,69.1s-1.261,1.445-3.249,3.512-4.727,4.721-7.542,7.3-5.709,5.057-7.942,6.857-3.79,2.919-3.79,2.919,1.261-1.447,3.247-3.512,4.727-4.721,7.542-7.3,5.714-5.057,7.944-6.857S250.918,69.1,250.918,69.1Z" transform="translate(-228.395 -69.096)" fill="#404e11"/></g><g transform="translate(0 55.093)"><path d="M250.918,72.027s-1.261,1.447-3.249,3.512-4.727,4.721-7.542,7.3-5.709,5.06-7.942,6.857-3.79,2.919-3.79,2.919,1.261-1.447,3.247-3.514,4.727-4.718,7.542-7.294,5.714-5.055,7.944-6.855S250.918,72.027,250.918,72.027Z" transform="translate(-228.395 -72.027)" fill="#404e11"/></g></g></g></g><g transform="translate(362.485 134.859)"><path d="M362.519,89.122S280.984,68.03,280.2,152.246C280.2,152.246,358.8,177.951,362.519,89.122Z" transform="translate(-280.197 -86.773)" fill="#7d9720"/><path d="M307.364,148.85c-15.1-14.192-9.291-35.933,5.583-47.9a66.275,66.275,0,0,1,33.5-14.042c-23.8-1.267-65.682,5.088-66.247,65.332,0,0,17.452,5.705,36.294,2.447A27.453,27.453,0,0,1,307.364,148.85Z" transform="translate(-280.197 -86.771)" fill="#7d9720" opacity="0.5"/><g transform="translate(1.915 6.79)"><g transform="translate(0 6.877)"><path d="M347.482,93.061s-.963.893-2.686,2.4c-1.745,1.487-4.186,3.675-7.2,6.188-3.006,2.53-6.546,5.433-10.374,8.5-3.819,3.078-7.957,6.277-12.091,9.483-8.3,6.357-16.746,12.54-23.188,17.029-3.206,2.265-5.957,4.049-7.846,5.347-1.906,1.274-3.019,1.971-3.019,1.971s.963-.893,2.686-2.4c1.743-1.487,4.182-3.68,7.2-6.19,6.007-5.057,14.168-11.6,22.464-17.976,4.166-3.16,8.328-6.325,12.293-9.213,3.953-2.9,7.674-5.57,10.9-7.813,3.208-2.26,5.955-4.051,7.844-5.347C346.369,93.759,347.482,93.061,347.482,93.061Z" transform="translate(-281.078 -93.061)" fill="#404e11"/></g><g transform="translate(3.546)"><g transform="translate(53.084 1.461)"><path d="M308.883,90.569a18.627,18.627,0,0,1,.15,1.941,29.673,29.673,0,0,1-.252,4.195,29.374,29.374,0,0,1-.843,4.114,18.687,18.687,0,0,1-.65,1.837,18.354,18.354,0,0,1-.148-1.941,28.688,28.688,0,0,1,.252-4.192,29.059,29.059,0,0,1,.848-4.116A18.518,18.518,0,0,1,308.883,90.569Z" transform="translate(-307.134 -90.569)" fill="#404e11"/></g><g transform="translate(48.291)"><path d="M307.04,89.9s.089,1.106.083,2.747a59.97,59.97,0,0,1-1.393,11.878c-.374,1.6-.717,2.654-.717,2.654s-.089-1.106-.083-2.747a59.028,59.028,0,0,1,.4-5.975c.261-2.158.628-4.305,1-5.9S307.04,89.9,307.04,89.9Z" transform="translate(-304.929 -89.897)" fill="#404e11"/></g><g transform="translate(42.397 1.008)"><path d="M304.595,90.361s.067,1.326.033,3.3-.215,4.586-.5,7.187-.7,5.192-1.1,7.124-.765,3.208-.765,3.208-.072-1.326-.035-3.3.217-4.588.5-7.19.7-5.192,1.1-7.122S304.595,90.361,304.595,90.361Z" transform="translate(-302.217 -90.361)" fill="#404e11"/></g><g transform="translate(37.139 1.128)"><path d="M302.474,90.416s.05,1.569-.017,3.91-.287,5.447-.615,8.539-.782,6.175-1.208,8.476-.815,3.825-.815,3.825-.052-1.571.013-3.912.291-5.444.619-8.537.785-6.177,1.208-8.476S302.474,90.416,302.474,90.416Z" transform="translate(-299.798 -90.416)" fill="#404e11"/></g><g transform="translate(31.515 2.03)"><path d="M300.153,90.831s.033,1.784-.059,4.442-.35,6.194-.713,9.715-.854,7.029-1.306,9.65-.858,4.36-.858,4.36-.035-1.782.059-4.442.35-6.192.713-9.713.856-7.029,1.308-9.652S300.153,90.831,300.153,90.831Z" transform="translate(-297.21 -90.831)" fill="#404e11"/></g><g transform="translate(25.876 3.953)"><path d="M297.481,91.716s.037,1.93-.048,4.814-.33,6.714-.682,10.534-.835,7.631-1.28,10.48-.848,4.74-.848,4.74-.037-1.93.048-4.814.33-6.714.682-10.534.837-7.633,1.282-10.482S297.481,91.716,297.481,91.716Z" transform="translate(-294.615 -91.716)" fill="#404e11"/></g><g transform="translate(20.222 8.45)"><path d="M294.665,93.785s.052,1.917-.011,4.784-.28,6.674-.606,10.476-.778,7.587-1.2,10.421-.811,4.716-.811,4.716-.05-1.919.011-4.784.283-6.677.609-10.476.778-7.589,1.2-10.424S294.665,93.785,294.665,93.785Z" transform="translate(-292.014 -93.785)" fill="#404e11"/></g><g transform="translate(15.17 12.327)"><path d="M292.338,95.569s.052,1.919-.013,4.784-.28,6.674-.6,10.474-.776,7.589-1.2,10.424-.811,4.716-.811,4.716-.052-1.919.009-4.786.285-6.674.609-10.474.778-7.589,1.2-10.424S292.338,95.569,292.338,95.569Z" transform="translate(-289.689 -95.569)" fill="#404e11"/></g><g transform="translate(10.112 16.203)"><path d="M290.013,97.352s.05,1.919-.013,4.784-.28,6.674-.6,10.476-.78,7.589-1.2,10.424-.811,4.716-.811,4.716-.05-1.919.011-4.784.282-6.677.606-10.476.78-7.589,1.2-10.426S290.013,97.352,290.013,97.352Z" transform="translate(-287.362 -97.352)" fill="#404e11"/></g><g transform="translate(5.058 20.078)"><path d="M287.686,99.135s.05,1.919-.013,4.784-.28,6.677-.6,10.476-.778,7.589-1.2,10.426-.811,4.714-.811,4.714-.054-1.919.009-4.784.285-6.674.606-10.476.778-7.589,1.2-10.424S287.686,99.135,287.686,99.135Z" transform="translate(-285.037 -99.135)" fill="#404e11"/></g><g transform="translate(0 23.955)"><path d="M285.362,100.919s.05,1.919-.013,4.784-.28,6.677-.6,10.476-.78,7.592-1.2,10.426-.811,4.714-.811,4.714-.052-1.919.011-4.786.283-6.674.606-10.474.778-7.589,1.2-10.426S285.362,100.919,285.362,100.919Z" transform="translate(-282.71 -100.919)" fill="#404e11"/></g></g><g transform="translate(6.668 12.316)"><g transform="translate(53.22)"><path d="M320.717,97.316a18.991,18.991,0,0,1-1.939.148,29.662,29.662,0,0,1-4.195-.252,29.291,29.291,0,0,1-4.114-.845,18.177,18.177,0,0,1-1.836-.648,17.906,17.906,0,0,1,1.939-.15,29.616,29.616,0,0,1,8.311,1.1A18.232,18.232,0,0,1,320.717,97.316Z" transform="translate(-308.633 -95.564)" fill="#404e11"/></g><g transform="translate(48.356 3.859)"><path d="M323.6,99.888s-1.108.057-2.747,0-3.808-.261-5.959-.569a59.2,59.2,0,0,1-5.872-1.163c-1.587-.419-2.63-.791-2.63-.791s1.106-.059,2.745,0a59.567,59.567,0,0,1,5.959.572c2.152.322,4.284.752,5.872,1.163S323.6,99.888,323.6,99.888Z" transform="translate(-306.395 -97.339)" fill="#404e11"/></g><g transform="translate(42.425 8.432)"><path d="M324.372,102.6s-1.326.017-3.295-.1-4.575-.4-7.163-.787-5.157-.906-7.072-1.38-3.175-.889-3.175-.889,1.326-.02,3.3.093,4.573.4,7.163.789,5.157.911,7.072,1.382S324.372,102.6,324.372,102.6Z" transform="translate(-303.666 -99.443)" fill="#404e11"/></g><g transform="translate(37.139 12.486)"><path d="M325.826,105.165s-1.571-.028-3.906-.206-5.425-.552-8.5-1.028-6.131-1.082-8.407-1.621-3.782-1-3.782-1,1.571.026,3.906.2,5.425.554,8.5,1.03,6.131,1.087,8.409,1.621S325.826,105.165,325.826,105.165Z" transform="translate(-301.234 -101.309)" fill="#404e11"/></g><g transform="translate(31.503 16.805)"><path d="M326.61,107.771s-1.784-.065-4.434-.3-6.166-.687-9.663-1.241-6.972-1.237-9.567-1.832-4.305-1.1-4.305-1.1,1.782.065,4.434.3,6.166.689,9.661,1.243,6.972,1.241,9.567,1.834S326.61,107.771,326.61,107.771Z" transform="translate(-298.641 -103.296)" fill="#404e11"/></g><g transform="translate(25.866 21.132)"><path d="M326.309,110.462s-1.928-.111-4.8-.415-6.67-.841-10.452-1.482-7.546-1.413-10.354-2.073-4.66-1.2-4.66-1.2,1.928.109,4.8.411,6.668.843,10.452,1.487,7.546,1.413,10.352,2.073S326.309,110.462,326.309,110.462Z" transform="translate(-296.047 -105.287)" fill="#404e11"/></g><g transform="translate(20.223 25.455)"><path d="M323.492,112.623s-1.913-.12-4.762-.441-6.625-.878-10.38-1.541-7.492-1.456-10.276-2.132-4.623-1.232-4.623-1.232,1.915.12,4.766.439,6.62.88,10.378,1.545,7.487,1.456,10.274,2.132S323.492,112.623,323.492,112.623Z" transform="translate(-293.451 -107.276)" fill="#404e11"/></g><g transform="translate(15.172 29.332)"><path d="M321.163,114.407s-1.915-.122-4.762-.441-6.622-.878-10.38-1.543-7.487-1.454-10.271-2.13-4.623-1.232-4.623-1.232,1.915.12,4.762.439,6.622.88,10.38,1.545,7.487,1.456,10.271,2.132S321.163,114.407,321.163,114.407Z" transform="translate(-291.127 -109.06)" fill="#404e11"/></g><g transform="translate(10.113 33.208)"><path d="M318.84,116.192s-1.915-.122-4.762-.441-6.625-.88-10.382-1.543-7.49-1.454-10.274-2.132-4.623-1.232-4.623-1.232,1.915.12,4.764.439,6.622.882,10.38,1.545,7.487,1.458,10.274,2.134S318.84,116.192,318.84,116.192Z" transform="translate(-288.799 -110.843)" fill="#404e11"/></g><g transform="translate(5.062 37.083)"><path d="M316.511,117.975s-1.915-.122-4.762-.441-6.622-.88-10.38-1.543-7.487-1.454-10.272-2.132-4.623-1.232-4.623-1.232,1.913.122,4.762.441,6.622.88,10.378,1.543,7.489,1.458,10.274,2.134S316.511,117.975,316.511,117.975Z" transform="translate(-286.475 -112.626)" fill="#404e11"/></g><g transform="translate(0 40.96)"><path d="M314.189,119.759s-1.915-.122-4.764-.443-6.624-.878-10.38-1.543-7.49-1.454-10.276-2.13-4.623-1.232-4.623-1.232,1.915.12,4.766.439,6.622.88,10.378,1.545,7.489,1.458,10.276,2.134S314.189,119.759,314.189,119.759Z" transform="translate(-284.146 -114.41)" fill="#404e11"/></g></g></g></g><g transform="translate(26.031 278.74)"><path d="M125.391,157.062s4.379,84.108,84.941,59.544C210.331,216.606,211.231,133.917,125.391,157.062Z" transform="translate(-125.391 -152.974)" fill="#7d9720"/><path d="M197.465,180.871c-9,18.672-31.486,19.663-47.365,9.072a66.277,66.277,0,0,1-23.457-27.726c5.946,23.079,24.59,61.114,82.219,43.544,0,0,.2-18.356-8.572-35.35A27.5,27.5,0,0,1,197.465,180.871Z" transform="translate(-123.922 -142.129)" fill="#7d9720" opacity="0.5"/><g transform="translate(12.186 4.924)"><g transform="translate(2.815 9.12)"><path d="M132.293,159.436s1.141.65,3.1,1.843c1.943,1.215,4.764,2.884,8.068,5.007,3.314,2.1,7.146,4.608,11.219,7.34,4.084,2.717,8.376,5.7,12.677,8.678,8.559,6.012,16.992,12.206,23.21,17,3.121,2.378,5.651,4.464,7.455,5.877,1.789,1.434,2.788,2.286,2.788,2.286s-1.141-.648-3.1-1.841c-1.943-1.215-4.766-2.882-8.068-5.005-6.627-4.21-15.325-10.026-23.894-16.022-4.266-3.028-8.537-6.046-12.484-8.957S145.648,170,142.541,167.6c-3.123-2.38-5.655-4.462-7.459-5.875C133.293,160.288,132.293,159.436,132.293,159.436Z" transform="translate(-132.293 -159.436)" fill="#404e11"/></g><g transform="translate(0 16.22)"><g transform="translate(0.054)"><path d="M131.023,164.883a18.411,18.411,0,0,1,1.808-.724,29.51,29.51,0,0,1,8.255-1.454,18.386,18.386,0,0,1,1.947.067,18.419,18.419,0,0,1-1.808.726,29.041,29.041,0,0,1-4.075,1.019,29.631,29.631,0,0,1-4.182.43A18.788,18.788,0,0,1,131.023,164.883Z" transform="translate(-131.023 -162.703)" fill="#404e11"/></g><g transform="translate(0 3.588)"><path d="M131,167.608s1.028-.415,2.593-.9,3.686-1,5.82-1.411a58.259,58.259,0,0,1,5.927-.826c1.639-.124,2.745-.115,2.745-.115s-1.026.417-2.593.9a60.309,60.309,0,0,1-11.747,2.236C132.106,167.616,131,167.608,131,167.608Z" transform="translate(-130.998 -164.354)" fill="#404e11"/></g><g transform="translate(2.649 7.878)"><path d="M132.217,170.362s1.243-.463,3.134-1.024,4.44-1.171,7.011-1.68,5.162-.891,7.122-1.1,3.291-.235,3.291-.235-1.243.465-3.136,1.024-4.44,1.171-7.009,1.68-5.162.889-7.124,1.093S132.217,170.362,132.217,170.362Z" transform="translate(-132.217 -166.328)" fill="#404e11"/></g><g transform="translate(4.253 11.701)"><path d="M132.955,172.992s1.482-.519,3.736-1.158,5.279-1.363,8.328-1.98,6.125-1.108,8.448-1.4,3.893-.372,3.893-.372-1.482.522-3.734,1.161-5.281,1.361-8.331,1.98-6.127,1.106-8.448,1.391S132.955,172.992,132.955,172.992Z" transform="translate(-132.955 -168.087)" fill="#404e11"/></g><g transform="translate(6.729 15.776)"><path d="M134.094,175.626s1.689-.565,4.253-1.278,6.009-1.528,9.478-2.241,6.961-1.3,9.6-1.654,4.414-.491,4.414-.491-1.689.567-4.253,1.28-6.009,1.526-9.478,2.239-6.961,1.3-9.6,1.654S134.094,175.626,134.094,175.626Z" transform="translate(-134.094 -169.962)" fill="#404e11"/></g><g transform="translate(10.278 19.854)"><path d="M135.727,178.3s1.828-.617,4.605-1.4,6.5-1.7,10.254-2.515,7.529-1.5,10.38-1.93,4.775-.617,4.775-.617-1.83.617-4.605,1.4-6.5,1.7-10.256,2.515-7.529,1.5-10.378,1.928S135.727,178.3,135.727,178.3Z" transform="translate(-135.727 -171.838)" fill="#404e11"/></g><g transform="translate(16.327 23.933)"><path d="M138.51,180.344s1.815-.626,4.566-1.426,6.453-1.739,10.176-2.571,7.47-1.541,10.3-1.989,4.742-.643,4.742-.643-1.815.628-4.568,1.428-6.451,1.739-10.174,2.571-7.472,1.537-10.3,1.986S138.51,180.344,138.51,180.344Z" transform="translate(-138.51 -173.715)" fill="#404e11"/></g><g transform="translate(21.547 27.591)"><path d="M140.912,182.025s1.815-.624,4.568-1.426,6.448-1.737,10.169-2.571,7.472-1.539,10.3-1.986,4.74-.643,4.74-.643-1.813.628-4.566,1.43-6.451,1.734-10.171,2.567-7.472,1.539-10.3,1.986S140.912,182.025,140.912,182.025Z" transform="translate(-140.912 -175.398)" fill="#404e11"/></g><g transform="translate(26.761 31.249)"><path d="M143.311,183.708s1.815-.624,4.566-1.426,6.451-1.739,10.171-2.571,7.47-1.541,10.3-1.989,4.742-.641,4.742-.641-1.813.626-4.568,1.428-6.448,1.737-10.169,2.569-7.474,1.537-10.3,1.986S143.311,183.708,143.311,183.708Z" transform="translate(-143.311 -177.081)" fill="#404e11"/></g><g transform="translate(31.977 34.907)"><path d="M145.711,185.391s1.815-.626,4.568-1.428,6.448-1.737,10.169-2.569,7.472-1.541,10.3-1.989,4.74-.641,4.74-.641-1.813.626-4.566,1.428-6.451,1.737-10.172,2.567-7.474,1.539-10.3,1.986S145.711,185.391,145.711,185.391Z" transform="translate(-145.711 -178.764)" fill="#404e11"/></g><g transform="translate(37.193 38.56)"><path d="M148.111,187.072s1.815-.626,4.568-1.426,6.453-1.739,10.176-2.571,7.47-1.539,10.3-1.986,4.74-.643,4.74-.643-1.815.628-4.566,1.428-6.453,1.737-10.176,2.569-7.47,1.539-10.3,1.986S148.111,187.072,148.111,187.072Z" transform="translate(-148.111 -180.445)" fill="#404e11"/></g></g><g transform="translate(7.931)"><g transform="translate(0 1.647)"><path d="M134.714,156a19.191,19.191,0,0,1,.724,1.806,28.847,28.847,0,0,1,1.019,4.077,29.35,29.35,0,0,1,.435,4.179,17.924,17.924,0,0,1-.07,1.945,18.5,18.5,0,0,1-.726-1.806,29.643,29.643,0,0,1-1.447-8.257A18.794,18.794,0,0,1,134.714,156Z" transform="translate(-134.647 -155.998)" fill="#404e11"/></g><g transform="translate(4.42)"><path d="M136.692,155.24s.385,1.039.826,2.619a59.686,59.686,0,0,1,1.9,11.808c.078,1.639.035,2.747.035,2.747s-.387-1.039-.828-2.621a58.729,58.729,0,0,1-1.245-5.855,59.7,59.7,0,0,1-.654-5.951C136.651,156.346,136.692,155.24,136.692,155.24Z" transform="translate(-136.681 -155.24)" fill="#404e11"/></g><g transform="translate(10.101 0.765)"><path d="M139.3,155.592s.413,1.261.9,3.171,1,4.484,1.4,7.07.685,5.192.811,7.159.1,3.3.1,3.3-.415-1.261-.9-3.173-.993-4.482-1.4-7.068-.682-5.194-.809-7.161S139.3,155.592,139.3,155.592Z" transform="translate(-139.295 -155.592)" fill="#404e11"/></g><g transform="translate(15.059 0.672)"><path d="M141.576,155.549s.446,1.506.976,3.786,1.1,5.34,1.571,8.415.811,6.172.98,8.507.183,3.906.183,3.906-.446-1.5-.976-3.786-1.1-5.34-1.571-8.415-.806-6.172-.98-8.507S141.576,155.549,141.576,155.549Z" transform="translate(-141.576 -155.549)" fill="#404e11"/></g><g transform="translate(20.447 1.343)"><path d="M144.055,155.858s.469,1.719,1.043,4.321,1.2,6.086,1.719,9.587.915,7.022,1.128,9.674.248,4.436.248,4.436-.476-1.719-1.043-4.319-1.2-6.085-1.719-9.587-.913-7.022-1.126-9.676S144.055,155.858,144.055,155.858Z" transform="translate(-144.055 -155.858)" fill="#404e11"/></g><g transform="translate(26.246 3.021)"><path d="M146.723,156.63s.474,1.871,1.048,4.7,1.2,6.614,1.726,10.415.922,7.622,1.135,10.5.252,4.808.252,4.808-.476-1.871-1.05-4.7-1.2-6.614-1.726-10.417-.917-7.62-1.132-10.5S146.723,156.63,146.723,156.63Z" transform="translate(-146.723 -156.63)" fill="#404e11"/></g><g transform="translate(32.294 7.261)"><path d="M149.506,158.581s.459,1.863,1.011,4.677,1.154,6.581,1.65,10.361.863,7.581,1.054,10.441.215,4.779.215,4.779-.461-1.863-1.013-4.675-1.152-6.581-1.647-10.363-.861-7.581-1.054-10.441S149.506,158.581,149.506,158.581Z" transform="translate(-149.506 -158.581)" fill="#404e11"/></g><g transform="translate(37.51 10.917)"><path d="M151.906,160.263s.459,1.863,1.011,4.675,1.15,6.583,1.647,10.365.863,7.581,1.054,10.441.215,4.779.215,4.779-.463-1.863-1.013-4.677-1.15-6.581-1.645-10.363-.861-7.581-1.052-10.441S151.906,160.263,151.906,160.263Z" transform="translate(-151.906 -160.263)" fill="#404e11"/></g><g transform="translate(42.729 14.575)"><path d="M154.307,161.946s.459,1.865,1.008,4.677,1.152,6.579,1.647,10.363.865,7.579,1.056,10.437.213,4.781.213,4.781-.463-1.865-1.013-4.677-1.15-6.581-1.643-10.363-.863-7.579-1.054-10.439S154.307,161.946,154.307,161.946Z" transform="translate(-154.307 -161.946)" fill="#404e11"/></g><g transform="translate(47.945 18.23)"><path d="M156.707,163.628s.459,1.863,1.011,4.677,1.15,6.581,1.647,10.363.863,7.581,1.054,10.441.215,4.779.215,4.779-.463-1.863-1.013-4.677-1.15-6.581-1.645-10.363-.861-7.581-1.052-10.441S156.707,163.628,156.707,163.628Z" transform="translate(-156.707 -163.628)" fill="#404e11"/></g><g transform="translate(53.157 21.888)"><path d="M159.1,165.311s.459,1.865,1.011,4.677,1.156,6.581,1.652,10.361.863,7.581,1.052,10.441.217,4.779.217,4.779-.463-1.863-1.015-4.677-1.15-6.579-1.647-10.361c-.482-3.784-.859-7.581-1.052-10.441S159.1,165.311,159.1,165.311Z" transform="translate(-159.105 -165.311)" fill="#404e11"/></g></g></g></g><g transform="translate(0 111.538)"><path d="M113.414,80.131s4.386,84.106,84.945,59.542C198.359,139.674,199.25,56.985,113.414,80.131Z" transform="translate(-113.414 -76.043)" fill="#7d9720"/><path d="M185.486,103.939c-9,18.669-31.479,19.663-47.36,9.072a66.3,66.3,0,0,1-23.457-27.726c5.942,23.081,24.592,61.116,82.219,43.544,0,0,.2-18.356-8.574-35.35A27.426,27.426,0,0,1,185.486,103.939Z" transform="translate(-111.943 -65.198)" fill="#7d9720" opacity="0.5"/><g transform="translate(12.186 4.923)"><g transform="translate(2.815 9.122)"><path d="M120.316,82.5s1.143.65,3.1,1.841c1.945,1.215,4.766,2.886,8.068,5.007,3.314,2.1,7.146,4.608,11.219,7.34,4.084,2.717,8.378,5.7,12.677,8.678,8.561,6.012,16.994,12.206,23.212,17,3.119,2.38,5.651,4.464,7.455,5.877,1.789,1.434,2.788,2.286,2.788,2.286s-1.143-.648-3.1-1.841c-1.943-1.215-4.764-2.882-8.068-5.005-6.627-4.21-15.325-10.026-23.894-16.022-4.266-3.025-8.537-6.044-12.482-8.957-3.958-2.9-7.618-5.644-10.726-8.044-3.121-2.382-5.653-4.464-7.457-5.875C121.316,83.355,120.316,82.5,120.316,82.5Z" transform="translate(-120.316 -82.505)" fill="#404e11"/></g><g transform="translate(0 16.22)"><g transform="translate(0.061)"><path d="M119.049,87.951a18.8,18.8,0,0,1,1.808-.724,29.51,29.51,0,0,1,8.255-1.454,18.347,18.347,0,0,1,1.945.067,18.5,18.5,0,0,1-1.806.726,29.074,29.074,0,0,1-4.077,1.019,29.58,29.58,0,0,1-4.182.43A18.764,18.764,0,0,1,119.049,87.951Z" transform="translate(-119.049 -85.771)" fill="#404e11"/></g><g transform="translate(0 3.59)"><path d="M119.021,90.677s1.028-.415,2.6-.9,3.684-1,5.82-1.413a59.4,59.4,0,0,1,5.925-.826c1.639-.124,2.747-.113,2.747-.113s-1.028.417-2.6.9a60.227,60.227,0,0,1-11.747,2.236C120.129,90.685,119.021,90.677,119.021,90.677Z" transform="translate(-119.021 -87.423)" fill="#404e11"/></g><g transform="translate(2.649 7.876)"><path d="M120.24,93.433s1.245-.465,3.134-1.024,4.44-1.171,7.007-1.682,5.162-.891,7.124-1.1,3.288-.237,3.288-.237-1.243.467-3.132,1.028-4.44,1.171-7.009,1.68-5.162.889-7.122,1.093S120.24,93.433,120.24,93.433Z" transform="translate(-120.24 -89.395)" fill="#404e11"/></g><g transform="translate(4.258 11.701)"><path d="M120.98,96.063s1.482-.519,3.736-1.161,5.279-1.363,8.328-1.98,6.127-1.111,8.448-1.393,3.893-.374,3.893-.374-1.482.519-3.734,1.161-5.279,1.363-8.331,1.98-6.125,1.106-8.448,1.393S120.98,96.063,120.98,96.063Z" transform="translate(-120.98 -91.155)" fill="#404e11"/></g><g transform="translate(6.724 15.776)"><path d="M122.115,98.7s1.693-.565,4.258-1.278,6.012-1.528,9.48-2.243,6.961-1.3,9.6-1.654,4.416-.491,4.416-.491-1.689.567-4.256,1.28-6.014,1.526-9.483,2.239-6.961,1.3-9.6,1.656S122.115,98.7,122.115,98.7Z" transform="translate(-122.115 -93.03)" fill="#404e11"/></g><g transform="translate(10.278 19.856)"><path d="M123.75,101.371s1.83-.615,4.605-1.4,6.5-1.7,10.256-2.515,7.529-1.5,10.378-1.93,4.777-.617,4.777-.617-1.83.617-4.608,1.4-6.5,1.7-10.254,2.512-7.529,1.5-10.38,1.93S123.75,101.371,123.75,101.371Z" transform="translate(-123.75 -94.907)" fill="#404e11"/></g><g transform="translate(16.331 23.935)"><path d="M126.535,103.411s1.815-.626,4.568-1.426,6.448-1.739,10.169-2.571,7.472-1.541,10.3-1.989,4.74-.641,4.74-.641-1.813.626-4.566,1.428-6.451,1.737-10.171,2.569-7.472,1.537-10.3,1.986S126.535,103.411,126.535,103.411Z" transform="translate(-126.535 -96.784)" fill="#404e11"/></g><g transform="translate(21.549 27.591)"><path d="M128.936,105.095s1.815-.626,4.566-1.428,6.451-1.737,10.171-2.571,7.47-1.539,10.3-1.986,4.742-.643,4.742-.643-1.813.628-4.568,1.428-6.451,1.737-10.169,2.571-7.474,1.537-10.3,1.984S128.936,105.095,128.936,105.095Z" transform="translate(-128.936 -98.466)" fill="#404e11"/></g><g transform="translate(26.765 31.249)"><path d="M131.336,106.776s1.815-.624,4.568-1.426,6.448-1.737,10.169-2.571,7.472-1.541,10.3-1.986,4.74-.643,4.74-.643-1.813.628-4.566,1.428-6.451,1.737-10.172,2.569-7.474,1.537-10.3,1.986S131.336,106.776,131.336,106.776Z" transform="translate(-131.336 -100.149)" fill="#404e11"/></g><g transform="translate(31.981 34.904)"><path d="M133.736,108.458s1.815-.626,4.568-1.426,6.451-1.739,10.171-2.571,7.47-1.539,10.3-1.986,4.74-.643,4.74-.643-1.813.628-4.566,1.43S152.5,105,148.78,105.828s-7.472,1.537-10.3,1.984S133.736,108.458,133.736,108.458Z" transform="translate(-133.736 -101.831)" fill="#404e11"/></g><g transform="translate(37.195 38.562)"><path d="M136.135,110.141s1.815-.626,4.566-1.428,6.453-1.737,10.176-2.569,7.47-1.539,10.3-1.989,4.742-.641,4.742-.641-1.815.626-4.568,1.428-6.451,1.737-10.174,2.569-7.472,1.537-10.3,1.984S136.135,110.141,136.135,110.141Z" transform="translate(-136.135 -103.514)" fill="#404e11"/></g></g><g transform="translate(7.933)"><g transform="translate(0 1.647)"><path d="M122.736,79.066a18.885,18.885,0,0,1,.724,1.806,29.1,29.1,0,0,1,1.022,4.075,29.644,29.644,0,0,1,.432,4.179,18.376,18.376,0,0,1-.067,1.947,18.5,18.5,0,0,1-.726-1.806,29.433,29.433,0,0,1-1.447-8.257A18.439,18.439,0,0,1,122.736,79.066Z" transform="translate(-122.671 -79.066)" fill="#404e11"/></g><g transform="translate(4.419)"><path d="M124.715,78.308s.387,1.039.828,2.621.9,3.708,1.248,5.853.574,4.314.659,5.953.035,2.747.035,2.747-.389-1.039-.83-2.619a58.746,58.746,0,0,1-1.248-5.857,59.637,59.637,0,0,1-.652-5.951C124.673,79.416,124.715,78.308,124.715,78.308Z" transform="translate(-124.704 -78.308)" fill="#404e11"/></g><g transform="translate(10.1 0.765)"><path d="M127.318,78.66s.415,1.261.9,3.173,1,4.482,1.4,7.068.685,5.194.811,7.161.1,3.295.1,3.295-.417-1.261-.9-3.171-.993-4.484-1.4-7.07-.68-5.194-.809-7.161S127.318,78.66,127.318,78.66Z" transform="translate(-127.318 -78.66)" fill="#404e11"/></g><g transform="translate(15.055 0.672)"><path d="M129.6,78.617s.446,1.506.976,3.786,1.1,5.34,1.574,8.415.811,6.172.982,8.507.183,3.906.183,3.906-.448-1.506-.98-3.784-1.1-5.342-1.571-8.418-.806-6.172-.978-8.507S129.6,78.617,129.6,78.617Z" transform="translate(-129.598 -78.617)" fill="#404e11"/></g><g transform="translate(20.45 1.345)"><path d="M132.08,78.927s.472,1.719,1.043,4.319,1.193,6.086,1.717,9.587.913,7.022,1.124,9.674.246,4.436.246,4.436-.472-1.719-1.043-4.319-1.193-6.085-1.715-9.587-.911-7.022-1.121-9.674S132.08,78.927,132.08,78.927Z" transform="translate(-132.08 -78.927)" fill="#404e11"/></g><g transform="translate(26.244 3.021)"><path d="M134.746,79.7s.476,1.871,1.05,4.7,1.2,6.614,1.724,10.415.922,7.622,1.137,10.5.25,4.808.25,4.808-.476-1.873-1.048-4.7S136.656,98.8,136.133,95s-.919-7.62-1.135-10.5S134.746,79.7,134.746,79.7Z" transform="translate(-134.746 -79.698)" fill="#404e11"/></g><g transform="translate(32.293 7.261)"><path d="M137.529,81.649s.459,1.863,1.011,4.677,1.154,6.581,1.652,10.363.861,7.581,1.052,10.441.217,4.779.217,4.779-.463-1.863-1.015-4.677-1.15-6.581-1.647-10.363c-.482-3.782-.858-7.581-1.052-10.441S137.529,81.649,137.529,81.649Z" transform="translate(-137.529 -81.649)" fill="#404e11"/></g><g transform="translate(37.515 10.917)"><path d="M139.932,83.331s.459,1.865,1.008,4.677,1.152,6.581,1.647,10.363.865,7.581,1.056,10.441.213,4.779.213,4.779-.463-1.865-1.013-4.677-1.15-6.581-1.643-10.363-.863-7.581-1.054-10.439S139.932,83.331,139.932,83.331Z" transform="translate(-139.932 -83.331)" fill="#404e11"/></g><g transform="translate(42.727 14.575)"><path d="M142.33,85.014s.459,1.863,1.011,4.677,1.154,6.581,1.652,10.361.861,7.581,1.052,10.441.217,4.779.217,4.779-.463-1.863-1.015-4.675-1.15-6.581-1.647-10.363-.858-7.581-1.052-10.441S142.33,85.014,142.33,85.014Z" transform="translate(-142.33 -85.014)" fill="#404e11"/></g><g transform="translate(47.943 18.233)"><path d="M144.73,86.7s.459,1.863,1.011,4.677,1.152,6.579,1.647,10.363.865,7.579,1.054,10.439.215,4.779.215,4.779-.463-1.863-1.013-4.675-1.15-6.583-1.645-10.365-.861-7.581-1.052-10.439S144.73,86.7,144.73,86.7Z" transform="translate(-144.73 -86.697)" fill="#404e11"/></g><g transform="translate(53.161 21.888)"><path d="M147.131,88.379s.459,1.865,1.011,4.677,1.15,6.579,1.647,10.363.863,7.579,1.054,10.437.215,4.781.215,4.781-.463-1.865-1.013-4.677-1.152-6.581-1.645-10.363-.863-7.579-1.054-10.439S147.131,88.379,147.131,88.379Z" transform="translate(-147.131 -88.379)" fill="#404e11"/></g></g></g></g><g transform="translate(108.905 58.108)"><path d="M219.6,51.459s-82.7,15.953-47.25,92.35C172.354,143.809,254.374,133.285,219.6,51.459Z" transform="translate(-163.522 -51.459)" fill="#7d9720"/><path d="M195.433,126.433c-19.734-6.333-23.818-28.465-15.52-45.656A66.305,66.305,0,0,1,204.14,53.716C182.1,62.792,147,86.51,172.354,141.16c0,0,18.211-2.339,33.831-13.371A27.391,27.391,0,0,1,195.433,126.433Z" transform="translate(-163.522 -48.811)" fill="#7d9720" opacity="0.5"/><g transform="translate(1.251 14.786)"><g transform="translate(8.926 1.447)"><path d="M206.32,58.928s-.485,1.221-1.4,3.325c-.935,2.091-2.2,5.116-3.847,8.681-1.626,3.573-3.575,7.716-5.723,12.125-2.126,4.419-4.49,9.083-6.846,13.753-4.771,9.309-9.743,18.513-13.632,25.335-1.926,3.421-3.64,6.214-4.792,8.2-1.176,1.969-1.88,3.078-1.88,3.078s.485-1.221,1.4-3.325c.935-2.093,2.2-5.118,3.843-8.681,3.256-7.146,7.815-16.563,12.573-25.879,2.408-4.642,4.81-9.289,7.148-13.6,2.323-4.321,4.538-8.326,6.488-11.734,1.928-3.421,3.64-6.216,4.788-8.2C205.616,60.036,206.32,58.928,206.32,58.928Z" transform="translate(-168.205 -58.928)" fill="#404e11"/></g><g transform="translate(37.469)"><path d="M181.338,58.262a18.223,18.223,0,0,1,.967,1.689,29.977,29.977,0,0,1,1.574,3.9,28.864,28.864,0,0,1,1,4.079,18.464,18.464,0,0,1,.2,1.936,17.891,17.891,0,0,1-.969-1.689,29.6,29.6,0,0,1-2.575-7.979A19.152,19.152,0,0,1,181.338,58.262Z" transform="translate(-181.338 -58.262)" fill="#404e11"/></g><g transform="translate(32.842 0.585)"><path d="M179.209,58.531s.554.961,1.252,2.447A60.015,60.015,0,0,1,184.3,72.3c.348,1.6.491,2.7.491,2.7s-.556-.961-1.254-2.445A60.088,60.088,0,0,1,179.7,61.235C179.352,59.631,179.209,58.531,179.209,58.531Z" transform="translate(-179.209 -58.531)" fill="#404e11"/></g><g transform="translate(28.189 3.91)"><path d="M177.068,60.061s.632,1.169,1.448,2.965,1.771,4.234,2.63,6.709,1.6,4.988,2.067,6.9.687,3.225.687,3.225-.632-1.167-1.447-2.965-1.773-4.234-2.63-6.707-1.591-4.99-2.065-6.9S177.068,60.061,177.068,60.061Z" transform="translate(-177.068 -60.061)" fill="#404e11"/></g><g transform="translate(23.762 6.146)"><path d="M175.031,61.09s.717,1.4,1.665,3.538,2.076,5.042,3.112,7.979c1.021,2.938,1.941,5.912,2.545,8.174s.9,3.8.9,3.8-.719-1.4-1.663-3.538-2.078-5.04-3.112-7.976-1.939-5.914-2.543-8.176S175.031,61.09,175.031,61.09Z" transform="translate(-175.031 -61.09)" fill="#404e11"/></g><g transform="translate(19.313 9.263)"><path d="M172.984,62.524s.8,1.6,1.854,4.038,2.343,5.742,3.527,9.076,2.247,6.716,2.965,9.278,1.1,4.305,1.1,4.305-.793-1.6-1.854-4.036-2.343-5.744-3.525-9.078-2.247-6.718-2.965-9.278S172.984,62.524,172.984,62.524Z" transform="translate(-172.984 -62.524)" fill="#404e11"/></g><g transform="translate(14.97 13.453)"><path d="M170.986,64.452s.863,1.728,2.026,4.368,2.586,6.205,3.908,9.809,2.523,7.25,3.347,10.015,1.269,4.645,1.269,4.645-.865-1.728-2.026-4.369-2.584-6.207-3.908-9.809-2.523-7.253-3.343-10.017S170.986,64.452,170.986,64.452Z" transform="translate(-170.986 -64.452)" fill="#404e11"/></g><g transform="translate(11.608 20.03)"><path d="M169.439,67.478s.872,1.713,2.043,4.327,2.61,6.151,3.949,9.722,2.558,7.187,3.391,9.93,1.291,4.608,1.291,4.608-.872-1.71-2.047-4.325-2.608-6.153-3.945-9.724-2.554-7.187-3.388-9.93S169.439,67.478,169.439,67.478Z" transform="translate(-169.439 -67.478)" fill="#404e11"/></g><g transform="translate(8.702 25.703)"><path d="M168.1,70.088s.869,1.71,2.043,4.327,2.61,6.149,3.949,9.719,2.558,7.187,3.393,9.93,1.291,4.605,1.291,4.605-.872-1.71-2.047-4.325-2.61-6.149-3.947-9.722-2.556-7.187-3.391-9.93S168.1,70.088,168.1,70.088Z" transform="translate(-168.102 -70.088)" fill="#404e11"/></g><g transform="translate(5.803 31.375)"><path d="M166.768,72.7s.869,1.71,2.043,4.325,2.61,6.151,3.949,9.722,2.558,7.187,3.393,9.928,1.291,4.608,1.291,4.608-.871-1.71-2.047-4.325-2.61-6.149-3.947-9.722-2.556-7.187-3.39-9.93S166.768,72.7,166.768,72.7Z" transform="translate(-166.768 -72.698)" fill="#404e11"/></g><g transform="translate(2.904 37.048)"><path d="M165.434,75.308s.869,1.71,2.041,4.325,2.61,6.151,3.949,9.722,2.558,7.187,3.391,9.928,1.291,4.608,1.291,4.608-.872-1.71-2.047-4.325-2.608-6.149-3.945-9.722-2.554-7.187-3.388-9.93S165.434,75.308,165.434,75.308Z" transform="translate(-165.434 -75.308)" fill="#404e11"/></g><g transform="translate(0 42.716)"><path d="M164.1,77.916s.869,1.71,2.041,4.327,2.61,6.149,3.949,9.722,2.558,7.187,3.39,9.93,1.291,4.608,1.291,4.608-.869-1.71-2.047-4.325-2.608-6.153-3.945-9.724-2.554-7.19-3.388-9.93S164.1,77.916,164.1,77.916Z" transform="translate(-164.098 -77.916)" fill="#404e11"/></g><g transform="translate(13.014 5.551)"><g transform="translate(30.543)"><path d="M195.741,60.816a18.743,18.743,0,0,1-1.691.967,29.527,29.527,0,0,1-7.976,2.578,17.973,17.973,0,0,1-1.934.2,18.119,18.119,0,0,1,1.689-.969,29.279,29.279,0,0,1,3.9-1.571,29.6,29.6,0,0,1,4.079-1A18.4,18.4,0,0,1,195.741,60.816Z" transform="translate(-184.139 -60.816)" fill="#404e11"/></g><g transform="translate(27.75 4.097)"><path d="M199.485,62.7s-.976.526-2.482,1.18a59.8,59.8,0,0,1-5.629,2.043,59.159,59.159,0,0,1-5.8,1.471c-1.615.3-2.717.413-2.717.413s.976-.528,2.478-1.182a60.031,60.031,0,0,1,11.436-3.51C198.381,62.812,199.485,62.7,199.485,62.7Z" transform="translate(-182.854 -62.701)" fill="#404e11"/></g><g transform="translate(24.349 9.815)"><path d="M201.347,65.332s-1.193.585-3.019,1.328-4.3,1.606-6.809,2.365-5.047,1.4-6.979,1.791-3.251.561-3.251.561,1.191-.587,3.019-1.33,4.3-1.6,6.809-2.362,5.049-1.393,6.979-1.791S201.347,65.332,201.347,65.332Z" transform="translate(-181.289 -65.332)" fill="#404e11"/></g><g transform="translate(21.314 14.714)"><path d="M203.761,67.586s-1.43.65-3.617,1.489-5.136,1.83-8.118,2.719-6,1.654-8.292,2.145-3.843.719-3.843.719,1.43-.65,3.617-1.491,5.136-1.828,8.118-2.717,6-1.652,8.289-2.145S203.761,67.586,203.761,67.586Z" transform="translate(-179.893 -67.586)" fill="#404e11"/></g><g transform="translate(18.078 20.145)"><path d="M205.584,70.085s-1.639.7-4.134,1.628-5.862,2.026-9.259,3.023-6.831,1.878-9.428,2.452-4.36.858-4.36.858,1.639-.706,4.136-1.63,5.862-2.023,9.256-3.023,6.831-1.871,9.428-2.449S205.584,70.085,205.584,70.085Z" transform="translate(-178.404 -70.085)" fill="#404e11"/></g><g transform="translate(14.844 26.118)"><path d="M206.47,72.833s-1.789.728-4.51,1.684-6.383,2.1-10.076,3.149-7.422,1.963-10.241,2.571-4.727.913-4.727.913,1.787-.73,4.508-1.689,6.385-2.1,10.078-3.145,7.422-1.96,10.241-2.571S206.47,72.833,206.47,72.833Z" transform="translate(-176.916 -72.833)" fill="#404e11"/></g><g transform="translate(11.606 32.694)"><path d="M204.856,75.859s-1.784.713-4.492,1.647S194,79.554,190.325,80.569s-7.387,1.9-10.2,2.484-4.7.874-4.7.874,1.782-.715,4.49-1.647,6.362-2.049,10.039-3.062,7.392-1.9,10.2-2.482S204.856,75.859,204.856,75.859Z" transform="translate(-175.426 -75.859)" fill="#404e11"/></g><g transform="translate(8.707 38.367)"><path d="M203.513,78.469s-1.782.713-4.49,1.645-6.359,2.05-10.037,3.062-7.385,1.9-10.191,2.484-4.7.874-4.7.874,1.782-.715,4.49-1.65,6.359-2.047,10.035-3.058,7.387-1.9,10.193-2.484S203.513,78.469,203.513,78.469Z" transform="translate(-174.092 -78.469)" fill="#404e11"/></g><g transform="translate(5.799 44.037)"><path d="M202.184,81.078s-1.782.713-4.49,1.647-6.362,2.047-10.041,3.062-7.387,1.9-10.2,2.484-4.7.872-4.7.872,1.782-.713,4.49-1.647,6.362-2.047,10.039-3.06,7.392-1.9,10.2-2.484S202.184,81.078,202.184,81.078Z" transform="translate(-172.754 -81.078)" fill="#404e11"/></g><g transform="translate(2.899 49.71)"><path d="M200.85,83.688s-1.782.713-4.49,1.645S190,87.383,186.319,88.4s-7.387,1.9-10.2,2.484-4.7.872-4.7.872,1.782-.713,4.49-1.647,6.362-2.047,10.039-3.06,7.392-1.9,10.2-2.482S200.85,83.688,200.85,83.688Z" transform="translate(-171.42 -83.688)" fill="#404e11"/></g><g transform="translate(0 55.38)"><path d="M199.512,86.3s-1.782.711-4.49,1.647-6.359,2.047-10.039,3.06-7.387,1.9-10.193,2.484-4.7.874-4.7.874,1.782-.715,4.49-1.65,6.359-2.047,10.039-3.06,7.387-1.9,10.193-2.482S199.512,86.3,199.512,86.3Z" transform="translate(-170.086 -86.297)" fill="#404e11"/></g></g></g></g><g transform="translate(311.416 266.32)"><path d="M331.426,147.73s-83.506-10.947-73.967,72.735C257.459,220.465,338.618,236.346,331.426,147.73Z" transform="translate(-256.7 -147.259)" fill="#7d9720"/><path d="M284.007,213.634c-16.731-12.238-13.623-34.526-.328-48.219A66.291,66.291,0,0,1,315.2,147.374c-23.779,1.658-64.565,13.092-57.743,72.956,0,0,18.02,3.523,36.324-2.017A27.448,27.448,0,0,1,284.007,213.634Z" transform="translate(-256.699 -147.125)" fill="#7d9720" opacity="0.5"/><g transform="translate(2.55 8.121)"><g transform="translate(0 5.299)"><path d="M317.539,153.434s-.843,1-2.373,2.715c-1.55,1.689-3.7,4.162-6.388,7.022-2.671,2.88-5.829,6.194-9.254,9.7s-7.127,7.2-10.834,10.891c-7.466,7.327-15.086,14.494-20.93,19.741-2.906,2.638-5.416,4.749-7.131,6.266-1.737,1.5-2.756,2.328-2.756,2.328s.845-1.006,2.373-2.717c1.547-1.689,3.7-4.162,6.383-7.024,5.344-5.755,12.643-13.251,20.093-20.591,3.751-3.647,7.5-7.3,11.073-10.65,3.567-3.367,6.937-6.468,9.859-9.089,2.906-2.639,5.416-4.749,7.131-6.268C316.522,154.262,317.539,153.434,317.539,153.434Z" transform="translate(-257.873 -153.434)" fill="#404e11"/></g><g transform="translate(1.74)"><g transform="translate(48.548 0.904)"><path d="M281.765,151.412a19.449,19.449,0,0,1,.383,1.908,29.391,29.391,0,0,1,.263,4.192,29.754,29.754,0,0,1-.332,4.188,18.525,18.525,0,0,1-.42,1.9,17.874,17.874,0,0,1-.387-1.908,29.527,29.527,0,0,1,.076-8.381A18.244,18.244,0,0,1,281.765,151.412Z" transform="translate(-281.011 -151.412)" fill="#404e11"/></g><g transform="translate(44.073)"><path d="M279.6,151s.224,1.087.415,2.717a59.758,59.758,0,0,1,.078,11.958c-.176,1.63-.387,2.719-.387,2.719s-.226-1.085-.422-2.715-.315-3.8-.333-5.977a59.619,59.619,0,0,1,.263-5.983C279.391,152.085,279.6,151,279.6,151Z" transform="translate(-278.952 -150.996)" fill="#404e11"/></g><g transform="translate(38.672 1.689)"><path d="M277.052,151.773s.233,1.306.439,3.269.348,4.577.38,7.2-.059,5.238-.215,7.2-.365,3.278-.365,3.278-.235-1.306-.439-3.269-.348-4.577-.38-7.2.063-5.238.217-7.2S277.052,151.773,277.052,151.773Z" transform="translate(-276.467 -151.773)" fill="#404e11"/></g><g transform="translate(33.838 2.415)"><path d="M274.759,152.107s.243,1.554.463,3.882.378,5.44.435,8.552-.022,6.222-.165,8.561-.341,3.893-.341,3.893-.241-1.552-.463-3.882-.38-5.44-.432-8.55.026-6.222.165-8.561S274.759,152.107,274.759,152.107Z" transform="translate(-274.242 -152.107)" fill="#404e11"/></g><g transform="translate(28.691 3.966)"><path d="M272.334,152.821s.25,1.767.485,4.416.411,6.19.482,9.728.013,7.081-.113,9.739-.32,4.432-.32,4.432-.25-1.765-.487-4.416-.409-6.188-.48-9.728-.013-7.081.113-9.739S272.334,152.821,272.334,152.821Z" transform="translate(-271.874 -152.821)" fill="#404e11"/></g><g transform="translate(23.381 6.574)"><path d="M269.759,154.021s.272,1.91.543,4.784.493,6.7.611,10.541.106,7.674.013,10.558-.259,4.808-.259,4.808-.276-1.913-.543-4.784-.493-6.7-.611-10.541-.1-7.676-.013-10.558S269.759,154.021,269.759,154.021Z" transform="translate(-269.431 -154.021)" fill="#404e11"/></g><g transform="translate(18.171 11.756)"><path d="M267.3,156.4s.285,1.9.576,4.749.537,6.659.682,10.471.161,7.626.087,10.493-.228,4.777-.228,4.777-.289-1.9-.578-4.749-.537-6.659-.68-10.469-.154-7.629-.083-10.5S267.3,156.4,267.3,156.4Z" transform="translate(-267.034 -156.405)" fill="#404e11"/></g><g transform="translate(13.627 16.224)"><path d="M265.21,158.461s.285,1.9.574,4.749.539,6.659.685,10.469.156,7.626.085,10.491-.23,4.779-.23,4.779-.289-1.9-.576-4.749-.537-6.659-.68-10.469-.154-7.629-.083-10.491S265.21,158.461,265.21,158.461Z" transform="translate(-264.943 -158.461)" fill="#404e11"/></g><g transform="translate(9.085 20.689)"><path d="M263.122,160.515s.285,1.9.572,4.751.539,6.659.685,10.469.156,7.629.085,10.493-.23,4.779-.23,4.779-.289-1.9-.576-4.751-.535-6.659-.68-10.469-.154-7.629-.083-10.493S263.122,160.515,263.122,160.515Z" transform="translate(-262.853 -160.515)" fill="#404e11"/></g><g transform="translate(4.542 25.157)"><path d="M261.032,162.571s.285,1.9.572,4.749.539,6.659.685,10.469.156,7.626.085,10.491-.23,4.779-.23,4.779-.287-1.9-.576-4.749-.535-6.659-.68-10.469-.154-7.626-.083-10.491S261.032,162.571,261.032,162.571Z" transform="translate(-260.763 -162.571)" fill="#404e11"/></g><g transform="translate(0 29.621)"><path d="M258.942,164.625s.285,1.9.574,4.751.539,6.659.682,10.469.156,7.629.085,10.493-.228,4.779-.228,4.779-.289-1.9-.578-4.749-.535-6.659-.68-10.471-.154-7.629-.083-10.493S258.942,164.625,258.942,164.625Z" transform="translate(-258.673 -164.625)" fill="#404e11"/></g></g><g transform="translate(6.066 10.999)"><g transform="translate(47.815)"><path d="M294.855,156.809a18.552,18.552,0,0,1-1.906.383,29.4,29.4,0,0,1-4.195.267,29.731,29.731,0,0,1-4.188-.335,18.526,18.526,0,0,1-1.9-.419,18.278,18.278,0,0,1,1.908-.385,29.526,29.526,0,0,1,8.381.072A18.059,18.059,0,0,1,294.855,156.809Z" transform="translate(-282.664 -156.057)" fill="#404e11"/></g><g transform="translate(43.442 4.431)"><path d="M298.043,159.007s-1.091.191-2.725.339a60.189,60.189,0,0,1-11.958-.27c-1.626-.222-2.708-.463-2.708-.463s1.091-.193,2.725-.341a59.769,59.769,0,0,1,11.958.274C296.961,158.766,298.043,159.007,298.043,159.007Z" transform="translate(-280.652 -158.095)" fill="#404e11"/></g><g transform="translate(38.119 9.749)"><path d="M299.139,161.574s-1.317.178-3.282.306-4.588.165-7.207.1-5.229-.267-7.187-.5-3.26-.493-3.26-.493,1.317-.18,3.282-.311,4.588-.163,7.207-.093,5.231.272,7.187.5S299.139,161.574,299.139,161.574Z" transform="translate(-278.203 -160.542)" fill="#404e11"/></g><g transform="translate(33.366 14.499)"><path d="M300.9,163.9s-1.563.165-3.9.272-5.453.117-8.565.022-6.216-.324-8.541-.578-3.875-.53-3.875-.53,1.561-.167,3.9-.274,5.451-.117,8.563-.02,6.216.328,8.544.58S300.9,163.9,300.9,163.9Z" transform="translate(-276.016 -162.728)" fill="#404e11"/></g><g transform="translate(28.306 19.538)"><path d="M301.988,166.358s-1.776.154-4.436.243-6.2.072-9.739-.05-7.07-.376-9.719-.648-4.406-.561-4.406-.561,1.776-.154,4.436-.243,6.2-.072,9.739.05,7.07.376,9.719.65S301.988,166.358,301.988,166.358Z" transform="translate(-273.688 -165.046)" fill="#404e11"/></g><g transform="translate(23.242 24.625)"><path d="M302.027,169.008s-1.928.126-4.81.176-6.725-.017-10.558-.191-7.661-.476-10.528-.787-4.773-.626-4.773-.626,1.926-.128,4.808-.18,6.724.02,10.558.193,7.661.48,10.528.791S302.027,169.008,302.027,169.008Z" transform="translate(-271.358 -167.387)" fill="#404e11"/></g><g transform="translate(18.172 29.65)"><path d="M299.5,171.477s-1.915.115-4.781.146-6.681-.061-10.491-.259-7.611-.526-10.458-.856-4.74-.656-4.74-.656,1.915-.115,4.784-.148,6.681.063,10.491.261,7.611.53,10.456.858S299.5,171.477,299.5,171.477Z" transform="translate(-269.025 -169.699)" fill="#404e11"/></g><g transform="translate(13.632 34.115)"><path d="M297.4,173.533s-1.915.113-4.781.146-6.681-.063-10.491-.261-7.611-.526-10.458-.856-4.738-.656-4.738-.656,1.913-.115,4.781-.148,6.681.063,10.491.261,7.611.53,10.456.858S297.4,173.533,297.4,173.533Z" transform="translate(-266.936 -171.753)" fill="#404e11"/></g><g transform="translate(9.089 38.583)"><path d="M295.31,175.589s-1.913.115-4.782.146-6.679-.063-10.487-.259-7.611-.528-10.461-.858-4.736-.656-4.736-.656,1.915-.115,4.781-.148,6.679.063,10.487.263,7.611.528,10.461.858S295.31,175.589,295.31,175.589Z" transform="translate(-264.846 -173.809)" fill="#404e11"/></g><g transform="translate(4.542 43.049)"><path d="M293.223,177.642s-1.913.115-4.781.146-6.681-.061-10.491-.259-7.611-.526-10.456-.858-4.74-.656-4.74-.656,1.915-.115,4.781-.146,6.681.061,10.491.261,7.611.528,10.458.858S293.223,177.642,293.223,177.642Z" transform="translate(-262.754 -175.864)" fill="#404e11"/></g><g transform="translate(0 47.514)"><path d="M291.135,179.7s-1.915.113-4.784.146-6.681-.063-10.491-.261-7.611-.526-10.456-.856-4.74-.656-4.74-.656,1.915-.115,4.781-.148,6.681.063,10.491.261,7.611.53,10.458.858S291.135,179.7,291.135,179.7Z" transform="translate(-260.664 -177.918)" fill="#404e11"/></g></g></g></g><g transform="translate(169.78 188.909)"><path d="M237.006,111.642s-78.331,30.949-29.382,99.487C207.624,211.129,286.29,185.637,237.006,111.642Z" transform="translate(-191.532 -111.642)" fill="#7d9720"/><path d="M227.587,188.248c-20.567-2.58-28.665-23.575-23.686-42a66.263,66.263,0,0,1,18.809-31.069c-19.989,12.988-50.1,42.779-15.086,91.806,0,0,17.468-5.66,30.78-19.387A27.453,27.453,0,0,1,227.587,188.248Z" transform="translate(-191.532 -107.495)" fill="#7d9720" opacity="0.5"/><g transform="translate(2.207 17.394)"><g transform="translate(14.907)"><path d="M223.107,119.645s-.254,1.289-.759,3.525c-.533,2.228-1.217,5.433-2.176,9.239-.939,3.814-2.093,8.246-3.384,12.975s-2.736,9.759-4.188,14.781c-2.973,10.03-6.155,20-8.72,27.417-1.261,3.719-2.432,6.781-3.195,8.941-.791,2.152-1.28,3.371-1.28,3.371s.25-1.291.756-3.525c.535-2.23,1.215-5.436,2.176-9.241,1.878-7.626,4.621-17.722,7.574-27.756,1.513-5.005,3.012-10.017,4.512-14.686s2.925-9.02,4.21-12.73c1.263-3.717,2.43-6.781,3.195-8.941C222.618,120.864,223.107,119.645,223.107,119.645Z" transform="translate(-199.406 -119.645)" fill="#404e11"/></g><g transform="translate(0 0.343)"><g transform="translate(28.932)"><path d="M205.859,119.8a18.288,18.288,0,0,1,1.263,1.482,29.151,29.151,0,0,1,2.267,3.538,29.635,29.635,0,0,1,1.743,3.823,18.675,18.675,0,0,1,.556,1.867,17.993,17.993,0,0,1-1.265-1.482,29.246,29.246,0,0,1-2.265-3.538,29.562,29.562,0,0,1-1.739-3.825A18.024,18.024,0,0,1,205.859,119.8Z" transform="translate(-205.859 -119.803)" fill="#404e11"/></g><g transform="translate(24.492 1.43)"><path d="M203.816,120.461s.722.843,1.682,2.173,2.123,3.171,3.2,5.064a59.539,59.539,0,0,1,2.671,5.36c.639,1.51.982,2.567.982,2.567s-.722-.841-1.684-2.173a58.555,58.555,0,0,1-3.193-5.066,59.457,59.457,0,0,1-2.669-5.357C204.162,121.515,203.816,120.461,203.816,120.461Z" transform="translate(-203.816 -120.461)" fill="#404e11"/></g><g transform="translate(20.532 5.56)"><path d="M201.994,122.361s.837,1.03,1.969,2.645,2.528,3.834,3.825,6.107,2.493,4.608,3.31,6.4,1.271,3.043,1.271,3.043-.837-1.03-1.971-2.645-2.525-3.836-3.823-6.107-2.489-4.61-3.308-6.4S201.994,122.361,201.994,122.361Z" transform="translate(-201.994 -122.361)" fill="#404e11"/></g><g transform="translate(16.598 8.574)"><path d="M200.184,123.748s.963,1.241,2.286,3.171,2.973,4.571,4.529,7.266,3,5.451,4.012,7.563,1.591,3.571,1.591,3.571-.963-1.239-2.286-3.169-2.973-4.573-4.529-7.268-3-5.453-4.01-7.563S200.184,123.748,200.184,123.748Z" transform="translate(-200.184 -123.748)" fill="#404e11"/></g><g transform="translate(12.803 12.458)"><path d="M198.438,125.535s1.074,1.424,2.565,3.627,3.364,5.21,5.142,8.27,3.449,6.183,4.627,8.57,1.873,4.029,1.873,4.029-1.078-1.421-2.569-3.625-3.362-5.212-5.14-8.272-3.447-6.185-4.627-8.57S198.438,125.535,198.438,125.535Z" transform="translate(-198.438 -125.535)" fill="#404e11"/></g><g transform="translate(9.309 17.376)"><path d="M196.83,127.8s1.167,1.539,2.795,3.919,3.686,5.623,5.649,8.92,3.821,6.659,5.136,9.226,2.106,4.329,2.106,4.329-1.167-1.539-2.8-3.919-3.684-5.623-5.646-8.92-3.816-6.661-5.136-9.228S196.83,127.8,196.83,127.8Z" transform="translate(-196.83 -127.798)" fill="#404e11"/></g><g transform="translate(7.216 24.466)"><path d="M195.867,131.06s1.171,1.521,2.806,3.875,3.7,5.56,5.679,8.822,3.838,6.592,5.166,9.133,2.119,4.29,2.119,4.29-1.171-1.521-2.81-3.875-3.7-5.56-5.675-8.824-3.838-6.592-5.162-9.133S195.867,131.06,195.867,131.06Z" transform="translate(-195.867 -131.06)" fill="#404e11"/></g><g transform="translate(5.407 30.575)"><path d="M195.035,133.871s1.171,1.521,2.806,3.875,3.7,5.56,5.679,8.822,3.838,6.592,5.166,9.133,2.119,4.29,2.119,4.29-1.171-1.519-2.81-3.873-3.7-5.562-5.675-8.824-3.838-6.594-5.162-9.135S195.035,133.871,195.035,133.871Z" transform="translate(-195.035 -133.871)" fill="#404e11"/></g><g transform="translate(3.608 36.687)"><path d="M194.207,136.683s1.171,1.519,2.806,3.873,3.7,5.562,5.675,8.824,3.843,6.592,5.166,9.133,2.119,4.29,2.119,4.29-1.171-1.521-2.808-3.875-3.7-5.562-5.673-8.824-3.838-6.592-5.164-9.133S194.207,136.683,194.207,136.683Z" transform="translate(-194.207 -136.683)" fill="#404e11"/></g><g transform="translate(1.804 42.796)"><path d="M193.377,139.494s1.171,1.521,2.806,3.875,3.7,5.56,5.675,8.822,3.843,6.592,5.166,9.133,2.119,4.29,2.119,4.29-1.171-1.519-2.808-3.875-3.7-5.56-5.673-8.824-3.838-6.592-5.164-9.133S193.377,139.494,193.377,139.494Z" transform="translate(-193.377 -139.494)" fill="#404e11"/></g><g transform="translate(0 48.906)"><path d="M192.547,142.3s1.171,1.519,2.806,3.873,3.7,5.562,5.675,8.824,3.843,6.594,5.166,9.135,2.119,4.288,2.119,4.288-1.171-1.519-2.808-3.873-3.7-5.562-5.675-8.826-3.836-6.592-5.164-9.133S192.547,142.3,192.547,142.3Z" transform="translate(-192.547 -142.305)" fill="#404e11"/></g></g><g transform="translate(17.641 2.532)"><g transform="translate(18.991)"><path d="M220.117,120.81a18.779,18.779,0,0,1-1.482,1.263,29.667,29.667,0,0,1-7.363,4.006,18.092,18.092,0,0,1-1.869.556,18.283,18.283,0,0,1,1.482-1.263,29.489,29.489,0,0,1,7.368-4A18.472,18.472,0,0,1,220.117,120.81Z" transform="translate(-209.402 -120.81)" fill="#404e11"/></g><g transform="translate(17.257 3.612)"><path d="M224,122.472s-.861.7-2.219,1.619a59.783,59.783,0,0,1-10.587,5.568c-1.53.6-2.593.911-2.593.911s.861-.7,2.219-1.621a59,59,0,0,1,5.153-3.049c1.928-1.006,3.908-1.915,5.433-2.517S224,122.472,224,122.472Z" transform="translate(-208.604 -122.472)" fill="#404e11"/></g><g transform="translate(15.138 9.233)"><path d="M226.227,125.058s-1.065.793-2.721,1.86-3.934,2.371-6.255,3.58-4.705,2.3-6.531,3.049-3.091,1.15-3.091,1.15,1.061-.8,2.721-1.863,3.932-2.371,6.255-3.58,4.705-2.3,6.531-3.047S226.227,125.058,226.227,125.058Z" transform="translate(-207.629 -125.058)" fill="#404e11"/></g><g transform="translate(13.253 13.899)"><path d="M228.911,127.205s-1.287.9-3.277,2.132-4.712,2.747-7.479,4.173-5.59,2.734-7.75,3.64-3.643,1.417-3.643,1.417,1.287-.9,3.277-2.132,4.712-2.747,7.479-4.171,5.59-2.734,7.748-3.64S228.911,127.205,228.911,127.205Z" transform="translate(-206.762 -127.205)" fill="#404e11"/></g><g transform="translate(11.245 19.224)"><path d="M231.078,129.655s-1.478,1-3.76,2.365-5.39,3.073-8.541,4.681-6.366,3.106-8.813,4.151-4.125,1.647-4.125,1.647,1.478-1,3.76-2.367,5.388-3.071,8.541-4.679,6.368-3.1,8.813-4.149S231.078,129.655,231.078,129.655Z" transform="translate(-205.838 -129.655)" fill="#404e11"/></g><g transform="translate(9.233 25.25)"><path d="M232.423,132.428s-1.624,1.045-4.121,2.491-5.888,3.245-9.322,4.953-6.933,3.3-9.589,4.421-4.479,1.771-4.479,1.771,1.621-1.048,4.121-2.491,5.888-3.247,9.324-4.955,6.931-3.3,9.591-4.419S232.423,132.428,232.423,132.428Z" transform="translate(-204.912 -132.428)" fill="#404e11"/></g><g transform="translate(7.216 32.338)"><path d="M231.414,135.689s-1.619,1.03-4.108,2.449-5.872,3.188-9.3,4.862-6.909,3.234-9.561,4.325-4.462,1.728-4.462,1.728,1.619-1.03,4.11-2.449,5.873-3.188,9.3-4.862,6.911-3.232,9.561-4.325S231.414,135.689,231.414,135.689Z" transform="translate(-203.984 -135.689)" fill="#404e11"/></g><g transform="translate(5.412 38.447)"><path d="M230.584,138.5s-1.619,1.03-4.108,2.447-5.872,3.188-9.3,4.864-6.907,3.232-9.559,4.325-4.462,1.726-4.462,1.726,1.619-1.03,4.11-2.449,5.872-3.186,9.3-4.86,6.911-3.232,9.561-4.325S230.584,138.5,230.584,138.5Z" transform="translate(-203.154 -138.5)" fill="#404e11"/></g><g transform="translate(3.612 44.559)"><path d="M229.752,141.312s-1.619,1.03-4.108,2.447-5.87,3.188-9.3,4.864-6.909,3.234-9.559,4.325-4.462,1.728-4.462,1.728,1.617-1.032,4.11-2.452,5.87-3.186,9.3-4.86,6.911-3.232,9.561-4.325S229.752,141.312,229.752,141.312Z" transform="translate(-202.326 -141.312)" fill="#404e11"/></g><g transform="translate(1.804 50.666)"><path d="M228.924,144.122s-1.619,1.03-4.108,2.449-5.875,3.188-9.3,4.862-6.907,3.234-9.559,4.325-4.462,1.726-4.462,1.726,1.619-1.03,4.11-2.449,5.872-3.186,9.3-4.86,6.911-3.232,9.561-4.325S228.924,144.122,228.924,144.122Z" transform="translate(-201.494 -144.122)" fill="#404e11"/></g><g transform="translate(0 56.778)"><path d="M228.094,146.934s-1.619,1.03-4.108,2.447-5.875,3.188-9.3,4.864-6.907,3.232-9.559,4.325-4.462,1.726-4.462,1.726,1.619-1.03,4.11-2.449,5.873-3.186,9.3-4.862,6.911-3.23,9.561-4.323S228.094,146.934,228.094,146.934Z" transform="translate(-200.664 -146.934)" fill="#404e11"/></g></g></g></g><g transform="translate(319.203)"><path d="M305.754,24.723s-78.327,30.953-29.378,99.491C276.377,124.214,355.042,98.72,305.754,24.723Z" transform="translate(-260.282 -24.723)" fill="#7d9720"/><path d="M296.34,101.329c-20.567-2.582-28.665-23.575-23.686-42a66.262,66.262,0,0,1,18.809-31.073c-19.989,12.988-50.1,42.781-15.086,91.811,0,0,17.463-5.664,30.78-19.391A27.413,27.413,0,0,1,296.34,101.329Z" transform="translate(-260.283 -20.576)" fill="#7d9720" opacity="0.5"/><g transform="translate(2.209 17.394)"><g transform="translate(14.912)"><path d="M291.856,32.726s-.254,1.289-.758,3.527c-.532,2.226-1.217,5.433-2.176,9.239-.939,3.812-2.091,8.244-3.384,12.975-1.274,4.736-2.734,9.756-4.188,14.781-2.969,10.028-6.153,20-8.715,27.417-1.261,3.716-2.432,6.779-3.195,8.941-.791,2.152-1.28,3.369-1.28,3.369s.25-1.289.756-3.525c.535-2.228,1.213-5.436,2.173-9.241,1.88-7.624,4.623-17.722,7.574-27.754,1.51-5.007,3.012-10.017,4.514-14.686,1.482-4.673,2.921-9.02,4.208-12.73,1.26-3.719,2.428-6.781,3.193-8.941C291.367,33.947,291.856,32.726,291.856,32.726Z" transform="translate(-268.16 -32.726)" fill="#404e11"/></g><g transform="translate(0 0.346)"><g transform="translate(28.932)"><path d="M274.611,32.885a18.439,18.439,0,0,1,1.263,1.48,29.577,29.577,0,0,1,4.01,7.363,18.475,18.475,0,0,1,.556,1.867,18.459,18.459,0,0,1-1.265-1.482,29.464,29.464,0,0,1-4-7.363A18.218,18.218,0,0,1,274.611,32.885Z" transform="translate(-274.611 -32.885)" fill="#404e11"/></g><g transform="translate(24.496 1.43)"><path d="M272.57,33.543s.722.841,1.682,2.171,2.121,3.173,3.193,5.064a59.609,59.609,0,0,1,2.673,5.357c.637,1.513.98,2.567.98,2.567s-.722-.841-1.682-2.171a58.894,58.894,0,0,1-3.191-5.066,58.95,58.95,0,0,1-2.671-5.357C272.916,34.6,272.57,33.543,272.57,33.543Z" transform="translate(-272.57 -33.543)" fill="#404e11"/></g><g transform="translate(20.532 5.557)"><path d="M270.746,35.442s.837,1.03,1.969,2.645,2.525,3.836,3.825,6.107,2.493,4.61,3.31,6.4,1.271,3.043,1.271,3.043-.837-1.028-1.971-2.643-2.526-3.836-3.823-6.109-2.489-4.61-3.308-6.4S270.746,35.442,270.746,35.442Z" transform="translate(-270.746 -35.442)" fill="#404e11"/></g><g transform="translate(16.598 8.572)"><path d="M268.936,36.829S269.9,38.07,271.222,40s2.971,4.573,4.529,7.266,3,5.455,4.012,7.566,1.591,3.571,1.591,3.571-.963-1.239-2.286-3.169-2.975-4.573-4.529-7.268-3-5.455-4.01-7.566S268.936,36.829,268.936,36.829Z" transform="translate(-268.936 -36.829)" fill="#404e11"/></g><g transform="translate(12.801 12.456)"><path d="M267.189,38.616s1.076,1.421,2.567,3.625,3.364,5.212,5.142,8.27,3.449,6.185,4.627,8.572,1.873,4.029,1.873,4.029-1.078-1.424-2.569-3.625-3.362-5.212-5.14-8.272-3.447-6.185-4.627-8.572S267.189,38.616,267.189,38.616Z" transform="translate(-267.189 -38.616)" fill="#404e11"/></g><g transform="translate(9.309 17.376)"><path d="M265.582,40.88s1.167,1.539,2.795,3.919,3.684,5.623,5.649,8.92,3.821,6.659,5.136,9.224,2.106,4.329,2.106,4.329-1.167-1.537-2.8-3.916-3.684-5.625-5.646-8.92-3.817-6.661-5.136-9.226S265.582,40.88,265.582,40.88Z" transform="translate(-265.582 -40.88)" fill="#404e11"/></g><g transform="translate(7.211 24.466)"><path d="M264.617,44.142s1.171,1.519,2.808,3.873,3.7,5.562,5.677,8.824,3.843,6.592,5.168,9.133,2.121,4.29,2.121,4.29-1.171-1.519-2.81-3.873-3.7-5.562-5.675-8.826-3.84-6.592-5.166-9.133S264.617,44.142,264.617,44.142Z" transform="translate(-264.617 -44.142)" fill="#404e11"/></g><g transform="translate(5.407 30.575)"><path d="M263.787,46.953s1.171,1.519,2.806,3.873,3.7,5.562,5.679,8.824,3.838,6.592,5.166,9.133,2.119,4.29,2.119,4.29-1.172-1.521-2.81-3.875-3.7-5.562-5.675-8.824-3.838-6.592-5.162-9.133S263.787,46.953,263.787,46.953Z" transform="translate(-263.787 -46.953)" fill="#404e11"/></g><g transform="translate(3.608 36.683)"><path d="M262.959,49.763s1.171,1.521,2.806,3.875,3.7,5.562,5.675,8.824,3.843,6.592,5.166,9.133,2.119,4.29,2.119,4.29-1.171-1.519-2.808-3.873-3.7-5.564-5.673-8.826-3.838-6.594-5.164-9.135S262.959,49.763,262.959,49.763Z" transform="translate(-262.959 -49.763)" fill="#404e11"/></g><g transform="translate(1.804 42.794)"><path d="M262.129,52.575s1.171,1.519,2.806,3.873,3.7,5.562,5.675,8.824,3.843,6.592,5.166,9.133,2.119,4.29,2.119,4.29-1.171-1.521-2.808-3.875-3.7-5.562-5.675-8.824-3.836-6.592-5.164-9.133S262.129,52.575,262.129,52.575Z" transform="translate(-262.129 -52.575)" fill="#404e11"/></g><g transform="translate(0 48.904)"><path d="M261.3,55.386s1.171,1.521,2.806,3.873,3.7,5.562,5.679,8.824,3.838,6.592,5.166,9.133,2.119,4.29,2.119,4.29-1.171-1.521-2.81-3.875-3.7-5.56-5.677-8.824-3.836-6.592-5.162-9.133S261.3,55.386,261.3,55.386Z" transform="translate(-261.299 -55.386)" fill="#404e11"/></g></g><g transform="translate(17.641 2.532)"><g transform="translate(18.991)"><path d="M288.869,33.891a19.368,19.368,0,0,1-1.482,1.263,29.564,29.564,0,0,1-3.54,2.265,29.147,29.147,0,0,1-3.823,1.741,18.512,18.512,0,0,1-1.869.559,18.008,18.008,0,0,1,1.482-1.265A29.59,29.59,0,0,1,287,34.447,18.745,18.745,0,0,1,288.869,33.891Z" transform="translate(-278.154 -33.891)" fill="#404e11"/></g><g transform="translate(17.255 3.614)"><path d="M292.751,35.554s-.861.7-2.219,1.619a59.576,59.576,0,0,1-5.153,3.047,59.367,59.367,0,0,1-5.429,2.519c-1.53.6-2.6.908-2.6.908s.863-.7,2.219-1.621a60.224,60.224,0,0,1,10.584-5.562C291.688,35.869,292.751,35.554,292.751,35.554Z" transform="translate(-277.355 -35.554)" fill="#404e11"/></g><g transform="translate(15.138 9.23)"><path d="M294.979,38.138s-1.063.8-2.721,1.863-3.934,2.371-6.255,3.582-4.705,2.306-6.531,3.051-3.091,1.15-3.091,1.15,1.061-.8,2.721-1.865,3.93-2.371,6.255-3.58,4.705-2.3,6.531-3.049S294.979,38.138,294.979,38.138Z" transform="translate(-276.381 -38.138)" fill="#404e11"/></g><g transform="translate(13.253 13.903)"><path d="M297.663,40.288s-1.287.9-3.277,2.13-4.712,2.747-7.479,4.173-5.59,2.732-7.75,3.638-3.643,1.417-3.643,1.417,1.284-.9,3.275-2.132,4.712-2.747,7.481-4.171,5.59-2.732,7.748-3.638S297.663,40.288,297.663,40.288Z" transform="translate(-275.514 -40.288)" fill="#404e11"/></g><g transform="translate(11.241 19.224)"><path d="M299.828,42.736s-1.478,1-3.76,2.365-5.39,3.073-8.542,4.684-6.366,3.1-8.813,4.151-4.125,1.647-4.125,1.647,1.478-1,3.76-2.367,5.388-3.071,8.541-4.681,6.368-3.1,8.813-4.147S299.828,42.736,299.828,42.736Z" transform="translate(-274.588 -42.736)" fill="#404e11"/></g><g transform="translate(9.233 25.255)"><path d="M301.17,45.511s-1.624,1.045-4.119,2.489-5.885,3.247-9.324,4.955-6.929,3.3-9.587,4.419-4.477,1.771-4.477,1.771,1.621-1.048,4.121-2.491,5.886-3.247,9.324-4.955,6.929-3.3,9.587-4.416S301.17,45.511,301.17,45.511Z" transform="translate(-273.664 -45.511)" fill="#404e11"/></g><g transform="translate(7.216 32.34)"><path d="M300.169,48.771s-1.621,1.03-4.11,2.447-5.872,3.188-9.3,4.862-6.909,3.232-9.561,4.325-4.462,1.726-4.462,1.726,1.619-1.03,4.11-2.449,5.872-3.186,9.3-4.86,6.911-3.23,9.561-4.323S300.169,48.771,300.169,48.771Z" transform="translate(-272.736 -48.771)" fill="#404e11"/></g><g transform="translate(5.412 38.449)"><path d="M299.336,51.582s-1.619,1.03-4.108,2.447-5.873,3.188-9.3,4.864-6.909,3.232-9.561,4.325-4.462,1.726-4.462,1.726,1.619-1.03,4.11-2.449,5.872-3.186,9.3-4.862,6.911-3.23,9.561-4.323S299.336,51.582,299.336,51.582Z" transform="translate(-271.906 -51.582)" fill="#404e11"/></g><g transform="translate(3.608 44.559)"><path d="M298.506,54.393s-1.619,1.03-4.108,2.449-5.875,3.188-9.3,4.862-6.907,3.234-9.559,4.325-4.462,1.726-4.462,1.726,1.619-1.03,4.11-2.449,5.872-3.186,9.3-4.86,6.911-3.232,9.561-4.325S298.506,54.393,298.506,54.393Z" transform="translate(-271.076 -54.393)" fill="#404e11"/></g><g transform="translate(1.804 50.668)"><path d="M297.676,57.2s-1.619,1.03-4.108,2.449-5.875,3.186-9.3,4.862-6.907,3.232-9.558,4.325-4.462,1.726-4.462,1.726,1.619-1.03,4.11-2.449,5.872-3.186,9.3-4.862,6.911-3.23,9.559-4.323S297.676,57.2,297.676,57.2Z" transform="translate(-270.246 -57.204)" fill="#404e11"/></g><g transform="translate(0 56.778)"><path d="M296.846,60.015s-1.619,1.028-4.11,2.447-5.873,3.188-9.3,4.862-6.909,3.234-9.559,4.327-4.462,1.726-4.462,1.726,1.619-1.032,4.11-2.449,5.872-3.188,9.3-4.862,6.911-3.23,9.559-4.325S296.846,60.015,296.846,60.015Z" transform="translate(-269.416 -60.015)" fill="#404e11"/></g></g></g></g></g><g transform="translate(0 173.278)"><path d="M224.046,161.578a57.125,57.125,0,1,1-57.123-57.128A57.124,57.124,0,0,1,224.046,161.578Z" transform="translate(-109.795 -104.45)" fill="#ffc550"/><path d="M206.916,155.572a46,46,0,1,1-46-46A46,46,0,0,1,206.916,155.572Z" transform="translate(-103.791 -98.445)" fill="#95590b"/><path d="M205.63,155.476a44.811,44.811,0,1,1-44.809-44.813A44.809,44.809,0,0,1,205.63,155.476Z" transform="translate(-102.505 -97.16)" fill="#f7882d"/><path d="M183.183,180.388c-14.644,4.823-40.6,2.132-43.34-17.026-.935-6.514-.535-15.646,6.075-19.261,7.376-4.029,16.992-2.341,23.927-7.244,6.394-4.516-2.2-6.794-4.112-7.581a3.25,3.25,0,0,1-1.5-1.08c-1.124-1.6-.313-3.408.913-4.74,5.175-5.614,11.917-5.436,18.715-6.412A44.81,44.81,0,1,0,204.3,166.35,50.671,50.671,0,0,1,183.183,180.388Z" transform="translate(-102.505 -97.16)" fill="#f7882d"/><path d="M183,188.366c-20.041,6.07-53.265-4.447-55.467-28.7-1.006-11.132,4.388-18.932,15.344-21.393,5.825-1.311,12.106-1.25,17.791-3.082,4.864-1.571-.646-3.084-2.806-3.56-3.206-.706-6.368-.828-9.6-1.215-2.539-.3-7.507-.526-7.507-4.1,0-4.062,9.022-7.787,11.819-9.154,5.705-2.782,11.741-4.106,17.867-5.453A44.811,44.811,0,1,0,201,175.313C196.045,181.268,189.9,186.277,183,188.366Z" transform="translate(-102.505 -97.16)" fill="#f7882d"/><g transform="translate(36.035 24.212)"><path d="M150.411,174.054v7.583h-6.422v-7.583q-14.481-1.526-17.613-13.966l11.032-2.525q1.891,7.1,10.354,7.1,4.095,0,6.116-1.563a4.636,4.636,0,0,0,2.03-3.773,4,4,0,0,0-1.808-3.493q-1.8-1.239-7.064-2.278-11.391-2.351-14.705-6.346a14.216,14.216,0,0,1-3.306-9.335A15.061,15.061,0,0,1,133.2,127.17a17.109,17.109,0,0,1,10.791-5.236V115.59h6.422v6.262q12.385,1.164,16.207,11.836L156.5,137.059q-2.044-6.021-8.7-6.018-7.061,0-7.064,4.575a4.131,4.131,0,0,0,1.326,3.108q1.324,1.262,5.977,2.189a59.328,59.328,0,0,1,11.415,3.173,14.449,14.449,0,0,1,6.1,5.181,13.769,13.769,0,0,1,2.471,8,16.184,16.184,0,0,1-4.386,11.028Q159.255,173.21,150.411,174.054Z" transform="translate(-126.375 -115.59)" fill="#ffc550"/><g transform="translate(3.064)"><path d="M151.816,174.054v7.583H145.4v-7.583q-14.494-1.526-17.613-13.966l11.028-2.525q1.891,7.1,10.358,7.1,4.088,0,6.116-1.563a4.641,4.641,0,0,0,2.03-3.773,4.007,4.007,0,0,0-1.808-3.493q-1.809-1.239-7.064-2.278-11.4-2.351-14.705-6.346a14.174,14.174,0,0,1-3.31-9.335A15.08,15.08,0,0,1,134.6,127.17a17.115,17.115,0,0,1,10.8-5.236V115.59h6.418v6.262q12.392,1.164,16.211,11.836l-10.113,3.371q-2.044-6.021-8.7-6.018-7.068,0-7.064,4.575a4.129,4.129,0,0,0,1.324,3.108q1.324,1.262,5.981,2.189a59.375,59.375,0,0,1,11.415,3.173,14.457,14.457,0,0,1,6.1,5.181,13.751,13.751,0,0,1,2.469,8,16.192,16.192,0,0,1-4.384,11.028Q160.666,173.21,151.816,174.054Z" transform="translate(-127.785 -115.59)" fill="#ffc550"/></g><path d="M126.375,137.429h3.065l11.028-2.527h-3.061Z" transform="translate(-126.375 -92.93)" fill="#ffc550"/><path d="M140.238,125.955H143.3l-.352-.9Z" transform="translate(-110.108 -104.487)" fill="#ffc550"/><g transform="translate(4.906 0.941)"><path d="M153.038,125.765c-.854.45-1.724.856-2.6,1.254-.8.363-1.558-1.145-1.95-1.628a12.124,12.124,0,0,0-4.184-3.154,7.865,7.865,0,0,0-8.746,1.352c-.1.093.03.233.141.18,2.61-1.2,4.638-1.965,7.524-1.139,2.68.765,4.747,3.106,6.151,5.377a.419.419,0,0,0,.556.146c1.18-.559,2.373-1.074,3.523-1.678C153.925,126.23,153.51,125.518,153.038,125.765Z" transform="translate(-120.547 -109.627)" fill="#ffc550"/><path d="M145.109,146.246c-6.351-1.374-12.1-3.108-14.373-9.924-2.08-6.253,1.056-13.238,6.525-16.453a.1.1,0,0,0-.072-.174c-6.038,1.856-8.322,10.439-7.357,15.957a13.033,13.033,0,0,0,5.74,8.422c2.282,1.543,6.766,3.445,9.537,2.845A.352.352,0,0,0,145.109,146.246Z" transform="translate(-127.475 -111.717)" fill="#ffc550"/><path d="M143.4,132.861c-.322-.039-.317.415-.072.515,4.2,1.741,6.275,6.209,3.2,10.117-2.123,2.7-6.231,2.258-9.25,2.362a.283.283,0,0,0,0,.565c3.96.415,9.185-.043,10.893-4.325C149.664,138.353,147.753,133.379,143.4,132.861Z" transform="translate(-118.811 -96.267)" fill="#ffc550"/><path d="M142.156,147.052c-3.577-.954-6.357-1.763-8.98-4.547a28.277,28.277,0,0,1-3.049-4.138c-.922-1.439,2.178-1.713,3.3-2.189.237-.1.063-.459-.17-.4-1.447.352-2.862.806-4.329,1.061a.4.4,0,0,0-.289.378c-.106.956,1.35,2.523,1.863,3.3a23.1,23.1,0,0,0,2.871,3.549,12.837,12.837,0,0,0,8.672,3.845A.437.437,0,0,0,142.156,147.052Z" transform="translate(-128.632 -92.853)" fill="#ffc550"/><path d="M138.7,142.254a.215.215,0,0,0-.419-.061c-.735,2.176-.467,4.866-.176,7.1.065.478.819.482.761,0C138.547,146.931,138.847,144.606,138.7,142.254Z" transform="translate(-117.873 -85.491)" fill="#ffc550"/><path d="M146.44,129.294c-.343-.193-.593.287-.3.513,5.029,3.864,8.17,9.115,6.468,15.588a13.812,13.812,0,0,1-4.258,6.592c-2.628,2.373-5.749,2.619-8.85,3.869a.191.191,0,0,0,.05.374c6.155.811,12.158-5.234,13.847-10.619C155.377,139.294,152.026,132.465,146.44,129.294Z" transform="translate(-116.037 -100.503)" fill="#ffc550"/><path d="M138.836,116.217c-.033-.259-.474-.259-.517,0a37.286,37.286,0,0,0-.161,6.194.421.421,0,0,0,.841,0A35.93,35.93,0,0,0,138.836,116.217Z" transform="translate(-117.514 -116.023)" fill="#ffc550"/></g></g></g><g transform="translate(93.179 29.001)"><path d="M224.046,161.578a57.125,57.125,0,1,1-57.123-57.128A57.124,57.124,0,0,1,224.046,161.578Z" transform="translate(-109.795 -104.45)" fill="#ffc550"/><path d="M206.916,155.572a46,46,0,1,1-46-46A46,46,0,0,1,206.916,155.572Z" transform="translate(-103.791 -98.445)" fill="#95590b"/><path d="M205.63,155.476a44.811,44.811,0,1,1-44.809-44.813A44.809,44.809,0,0,1,205.63,155.476Z" transform="translate(-102.505 -97.16)" fill="#f7882d"/><path d="M183.183,180.388c-14.644,4.823-40.6,2.132-43.34-17.026-.935-6.514-.535-15.646,6.075-19.261,7.376-4.029,16.992-2.341,23.927-7.244,6.394-4.516-2.2-6.794-4.112-7.581a3.25,3.25,0,0,1-1.5-1.08c-1.124-1.6-.313-3.408.913-4.74,5.175-5.614,11.917-5.436,18.715-6.412A44.81,44.81,0,1,0,204.3,166.35,50.671,50.671,0,0,1,183.183,180.388Z" transform="translate(-102.505 -97.16)" fill="#f7882d"/><path d="M183,188.366c-20.041,6.07-53.265-4.447-55.467-28.7-1.006-11.132,4.388-18.932,15.344-21.393,5.825-1.311,12.106-1.25,17.791-3.082,4.864-1.571-.646-3.084-2.806-3.56-3.206-.706-6.368-.828-9.6-1.215-2.539-.3-7.507-.526-7.507-4.1,0-4.062,9.022-7.787,11.819-9.154,5.705-2.782,11.741-4.106,17.867-5.453A44.811,44.811,0,1,0,201,175.313C196.045,181.268,189.9,186.277,183,188.366Z" transform="translate(-102.505 -97.16)" fill="#f7882d"/><g transform="translate(36.035 24.212)"><path d="M150.411,174.054v7.583h-6.422v-7.583q-14.481-1.526-17.613-13.966l11.032-2.525q1.891,7.1,10.354,7.1,4.095,0,6.116-1.563a4.636,4.636,0,0,0,2.03-3.773,4,4,0,0,0-1.808-3.493q-1.8-1.239-7.064-2.278-11.391-2.351-14.705-6.346a14.216,14.216,0,0,1-3.306-9.335A15.061,15.061,0,0,1,133.2,127.17a17.109,17.109,0,0,1,10.791-5.236V115.59h6.422v6.262q12.385,1.164,16.207,11.836L156.5,137.059q-2.044-6.021-8.7-6.018-7.061,0-7.064,4.575a4.131,4.131,0,0,0,1.326,3.108q1.324,1.262,5.977,2.189a59.328,59.328,0,0,1,11.415,3.173,14.449,14.449,0,0,1,6.1,5.181,13.769,13.769,0,0,1,2.471,8,16.184,16.184,0,0,1-4.386,11.028Q159.255,173.21,150.411,174.054Z" transform="translate(-126.375 -115.59)" fill="#ffc550"/><g transform="translate(3.064)"><path d="M151.816,174.054v7.583H145.4v-7.583q-14.494-1.526-17.613-13.966l11.028-2.525q1.891,7.1,10.358,7.1,4.088,0,6.116-1.563a4.641,4.641,0,0,0,2.03-3.773,4.007,4.007,0,0,0-1.808-3.493q-1.809-1.239-7.064-2.278-11.4-2.351-14.705-6.346a14.174,14.174,0,0,1-3.31-9.335A15.08,15.08,0,0,1,134.6,127.17a17.115,17.115,0,0,1,10.8-5.236V115.59h6.418v6.262q12.392,1.164,16.211,11.836l-10.113,3.371q-2.044-6.021-8.7-6.018-7.068,0-7.064,4.575a4.129,4.129,0,0,0,1.324,3.108q1.324,1.262,5.981,2.189a59.375,59.375,0,0,1,11.415,3.173,14.457,14.457,0,0,1,6.1,5.181,13.751,13.751,0,0,1,2.469,8,16.192,16.192,0,0,1-4.384,11.028Q160.666,173.21,151.816,174.054Z" transform="translate(-127.785 -115.59)" fill="#ffc550"/></g><path d="M126.375,137.429h3.065l11.028-2.527h-3.061Z" transform="translate(-126.375 -92.93)" fill="#ffc550"/><path d="M140.238,125.955H143.3l-.352-.9Z" transform="translate(-110.108 -104.487)" fill="#ffc550"/><g transform="translate(4.906 0.941)"><path d="M153.038,125.765c-.854.45-1.724.856-2.6,1.254-.8.363-1.558-1.145-1.95-1.628a12.124,12.124,0,0,0-4.184-3.154,7.865,7.865,0,0,0-8.746,1.352c-.1.093.03.233.141.18,2.61-1.2,4.638-1.965,7.524-1.139,2.68.765,4.747,3.106,6.151,5.377a.419.419,0,0,0,.556.146c1.18-.559,2.373-1.074,3.523-1.678C153.925,126.23,153.51,125.518,153.038,125.765Z" transform="translate(-120.547 -109.627)" fill="#ffc550"/><path d="M145.109,146.246c-6.351-1.374-12.1-3.108-14.373-9.924-2.08-6.253,1.056-13.238,6.525-16.453a.1.1,0,0,0-.072-.174c-6.038,1.856-8.322,10.439-7.357,15.957a13.033,13.033,0,0,0,5.74,8.422c2.282,1.543,6.766,3.445,9.537,2.845A.352.352,0,0,0,145.109,146.246Z" transform="translate(-127.475 -111.717)" fill="#ffc550"/><path d="M143.4,132.861c-.322-.039-.317.415-.072.515,4.2,1.741,6.275,6.209,3.2,10.117-2.123,2.7-6.231,2.258-9.25,2.362a.283.283,0,0,0,0,.565c3.96.415,9.185-.043,10.893-4.325C149.664,138.353,147.753,133.379,143.4,132.861Z" transform="translate(-118.811 -96.267)" fill="#ffc550"/><path d="M142.156,147.052c-3.577-.954-6.357-1.763-8.98-4.547a28.277,28.277,0,0,1-3.049-4.138c-.922-1.439,2.178-1.713,3.3-2.189.237-.1.063-.459-.17-.4-1.447.352-2.862.806-4.329,1.061a.4.4,0,0,0-.289.378c-.106.956,1.35,2.523,1.863,3.3a23.1,23.1,0,0,0,2.871,3.549,12.837,12.837,0,0,0,8.672,3.845A.437.437,0,0,0,142.156,147.052Z" transform="translate(-128.632 -92.853)" fill="#ffc550"/><path d="M138.7,142.254a.215.215,0,0,0-.419-.061c-.735,2.176-.467,4.866-.176,7.1.065.478.819.482.761,0C138.547,146.931,138.847,144.606,138.7,142.254Z" transform="translate(-117.873 -85.491)" fill="#ffc550"/><path d="M146.44,129.294c-.343-.193-.593.287-.3.513,5.029,3.864,8.17,9.115,6.468,15.588a13.812,13.812,0,0,1-4.258,6.592c-2.628,2.373-5.749,2.619-8.85,3.869a.191.191,0,0,0,.05.374c6.155.811,12.158-5.234,13.847-10.619C155.377,139.294,152.026,132.465,146.44,129.294Z" transform="translate(-116.037 -100.503)" fill="#ffc550"/><path d="M138.836,116.217c-.033-.259-.474-.259-.517,0a37.286,37.286,0,0,0-.161,6.194.421.421,0,0,0,.841,0A35.93,35.93,0,0,0,138.836,116.217Z" transform="translate(-117.514 -116.023)" fill="#ffc550"/></g></g></g><g transform="translate(347.168 108.654)"><path d="M224.046,161.578a57.125,57.125,0,1,1-57.123-57.128A57.124,57.124,0,0,1,224.046,161.578Z" transform="translate(-109.795 -104.45)" fill="#ffc550"/><path d="M206.916,155.572a46,46,0,1,1-46-46A46,46,0,0,1,206.916,155.572Z" transform="translate(-103.791 -98.445)" fill="#95590b"/><path d="M205.63,155.476a44.811,44.811,0,1,1-44.809-44.813A44.809,44.809,0,0,1,205.63,155.476Z" transform="translate(-102.505 -97.16)" fill="#f7882d"/><path d="M183.183,180.388c-14.644,4.823-40.6,2.132-43.34-17.026-.935-6.514-.535-15.646,6.075-19.261,7.376-4.029,16.992-2.341,23.927-7.244,6.394-4.516-2.2-6.794-4.112-7.581a3.25,3.25,0,0,1-1.5-1.08c-1.124-1.6-.313-3.408.913-4.74,5.175-5.614,11.917-5.436,18.715-6.412A44.81,44.81,0,1,0,204.3,166.35,50.671,50.671,0,0,1,183.183,180.388Z" transform="translate(-102.505 -97.16)" fill="#f7882d"/><path d="M183,188.366c-20.041,6.07-53.265-4.447-55.467-28.7-1.006-11.132,4.388-18.932,15.344-21.393,5.825-1.311,12.106-1.25,17.791-3.082,4.864-1.571-.646-3.084-2.806-3.56-3.206-.706-6.368-.828-9.6-1.215-2.539-.3-7.507-.526-7.507-4.1,0-4.062,9.022-7.787,11.819-9.154,5.705-2.782,11.741-4.106,17.867-5.453A44.811,44.811,0,1,0,201,175.313C196.045,181.268,189.9,186.277,183,188.366Z" transform="translate(-102.505 -97.16)" fill="#f7882d"/><g transform="translate(36.035 24.212)"><path d="M150.411,174.054v7.583h-6.422v-7.583q-14.481-1.526-17.613-13.966l11.032-2.525q1.891,7.1,10.354,7.1,4.095,0,6.116-1.563a4.636,4.636,0,0,0,2.03-3.773,4,4,0,0,0-1.808-3.493q-1.8-1.239-7.064-2.278-11.391-2.351-14.705-6.346a14.216,14.216,0,0,1-3.306-9.335A15.061,15.061,0,0,1,133.2,127.17a17.109,17.109,0,0,1,10.791-5.236V115.59h6.422v6.262q12.385,1.164,16.207,11.836L156.5,137.059q-2.044-6.021-8.7-6.018-7.061,0-7.064,4.575a4.131,4.131,0,0,0,1.326,3.108q1.324,1.262,5.977,2.189a59.328,59.328,0,0,1,11.415,3.173,14.449,14.449,0,0,1,6.1,5.181,13.769,13.769,0,0,1,2.471,8,16.184,16.184,0,0,1-4.386,11.028Q159.255,173.21,150.411,174.054Z" transform="translate(-126.375 -115.59)" fill="#ffc550"/><g transform="translate(3.064)"><path d="M151.816,174.054v7.583H145.4v-7.583q-14.494-1.526-17.613-13.966l11.028-2.525q1.891,7.1,10.358,7.1,4.088,0,6.116-1.563a4.641,4.641,0,0,0,2.03-3.773,4.007,4.007,0,0,0-1.808-3.493q-1.809-1.239-7.064-2.278-11.4-2.351-14.705-6.346a14.174,14.174,0,0,1-3.31-9.335A15.08,15.08,0,0,1,134.6,127.17a17.115,17.115,0,0,1,10.8-5.236V115.59h6.418v6.262q12.392,1.164,16.211,11.836l-10.113,3.371q-2.044-6.021-8.7-6.018-7.068,0-7.064,4.575a4.129,4.129,0,0,0,1.324,3.108q1.324,1.262,5.981,2.189a59.375,59.375,0,0,1,11.415,3.173,14.457,14.457,0,0,1,6.1,5.181,13.751,13.751,0,0,1,2.469,8,16.192,16.192,0,0,1-4.384,11.028Q160.666,173.21,151.816,174.054Z" transform="translate(-127.785 -115.59)" fill="#ffc550"/></g><path d="M126.375,137.429h3.065l11.028-2.527h-3.061Z" transform="translate(-126.375 -92.93)" fill="#ffc550"/><path d="M140.238,125.955H143.3l-.352-.9Z" transform="translate(-110.108 -104.487)" fill="#ffc550"/><g transform="translate(4.906 0.941)"><path d="M153.038,125.765c-.854.45-1.724.856-2.6,1.254-.8.363-1.558-1.145-1.95-1.628a12.124,12.124,0,0,0-4.184-3.154,7.865,7.865,0,0,0-8.746,1.352c-.1.093.03.233.141.18,2.61-1.2,4.638-1.965,7.524-1.139,2.68.765,4.747,3.106,6.151,5.377a.419.419,0,0,0,.556.146c1.18-.559,2.373-1.074,3.523-1.678C153.925,126.23,153.51,125.518,153.038,125.765Z" transform="translate(-120.547 -109.627)" fill="#ffc550"/><path d="M145.109,146.246c-6.351-1.374-12.1-3.108-14.373-9.924-2.08-6.253,1.056-13.238,6.525-16.453a.1.1,0,0,0-.072-.174c-6.038,1.856-8.322,10.439-7.357,15.957a13.033,13.033,0,0,0,5.74,8.422c2.282,1.543,6.766,3.445,9.537,2.845A.352.352,0,0,0,145.109,146.246Z" transform="translate(-127.475 -111.717)" fill="#ffc550"/><path d="M143.4,132.861c-.322-.039-.317.415-.072.515,4.2,1.741,6.275,6.209,3.2,10.117-2.123,2.7-6.231,2.258-9.25,2.362a.283.283,0,0,0,0,.565c3.96.415,9.185-.043,10.893-4.325C149.664,138.353,147.753,133.379,143.4,132.861Z" transform="translate(-118.811 -96.267)" fill="#ffc550"/><path d="M142.156,147.052c-3.577-.954-6.357-1.763-8.98-4.547a28.277,28.277,0,0,1-3.049-4.138c-.922-1.439,2.178-1.713,3.3-2.189.237-.1.063-.459-.17-.4-1.447.352-2.862.806-4.329,1.061a.4.4,0,0,0-.289.378c-.106.956,1.35,2.523,1.863,3.3a23.1,23.1,0,0,0,2.871,3.549,12.837,12.837,0,0,0,8.672,3.845A.437.437,0,0,0,142.156,147.052Z" transform="translate(-128.632 -92.853)" fill="#ffc550"/><path d="M138.7,142.254a.215.215,0,0,0-.419-.061c-.735,2.176-.467,4.866-.176,7.1.065.478.819.482.761,0C138.547,146.931,138.847,144.606,138.7,142.254Z" transform="translate(-117.873 -85.491)" fill="#ffc550"/><path d="M146.44,129.294c-.343-.193-.593.287-.3.513,5.029,3.864,8.17,9.115,6.468,15.588a13.812,13.812,0,0,1-4.258,6.592c-2.628,2.373-5.749,2.619-8.85,3.869a.191.191,0,0,0,.05.374c6.155.811,12.158-5.234,13.847-10.619C155.377,139.294,152.026,132.465,146.44,129.294Z" transform="translate(-116.037 -100.503)" fill="#ffc550"/><path d="M138.836,116.217c-.033-.259-.474-.259-.517,0a37.286,37.286,0,0,0-.161,6.194.421.421,0,0,0,.841,0A35.93,35.93,0,0,0,138.836,116.217Z" transform="translate(-117.514 -116.023)" fill="#ffc550"/></g></g></g><g transform="translate(207.399 209.347)"><path d="M202.291,150.7a46.248,46.248,0,1,1-46.246-46.25A46.247,46.247,0,0,1,202.291,150.7Z" transform="translate(-109.795 -104.45)" fill="#ffc550"/><path d="M189.4,146.812a37.243,37.243,0,1,1-37.239-37.244A37.241,37.241,0,0,1,189.4,146.812Z" transform="translate(-105.908 -100.563)" fill="#95590b"/><path d="M188.565,146.943a36.278,36.278,0,1,1-36.277-36.28A36.277,36.277,0,0,1,188.565,146.943Z" transform="translate(-105.076 -99.731)" fill="#f7882d"/><path d="M170.392,167.111c-11.856,3.9-32.868,1.726-35.087-13.784-.757-5.273-.433-12.667,4.918-15.593,5.972-3.262,13.756-1.9,19.371-5.865,5.177-3.656-1.779-5.5-3.329-6.137a2.631,2.631,0,0,1-1.211-.874c-.91-1.292-.253-2.759.739-3.838,4.19-4.545,9.648-4.4,15.152-5.191a36.277,36.277,0,1,0,16.542,39.917A41.023,41.023,0,0,1,170.392,167.111Z" transform="translate(-105.076 -99.731)" fill="#f7882d"/><path d="M170.248,173.57c-16.225,4.914-43.123-3.6-44.906-23.233-.815-9.012,3.553-15.327,12.422-17.319,4.716-1.061,9.8-1.012,14.4-2.5,3.938-1.272-.523-2.5-2.272-2.882-2.6-.572-5.156-.67-7.774-.984-2.055-.243-6.077-.426-6.077-3.32,0-3.289,7.3-6.3,9.568-7.411,4.619-2.252,9.505-3.324,14.465-4.415A36.278,36.278,0,1,0,184.819,163C180.805,167.824,175.833,171.88,170.248,173.57Z" transform="translate(-105.076 -99.731)" fill="#f7882d"/><g transform="translate(29.173 19.601)"><path d="M145.834,162.922v6.139h-5.2v-6.139q-11.724-1.235-14.259-11.307l8.932-2.045q1.531,5.751,8.383,5.748a8.032,8.032,0,0,0,4.951-1.265A3.753,3.753,0,0,0,150.284,151a3.236,3.236,0,0,0-1.464-2.828,17.064,17.064,0,0,0-5.719-1.844q-9.222-1.9-11.905-5.138a11.509,11.509,0,0,1-2.676-7.557,12.193,12.193,0,0,1,3.378-8.668,13.851,13.851,0,0,1,8.736-4.239V115.59h5.2v5.069q10.027.942,13.121,9.583l-8.187,2.729q-1.655-4.875-7.045-4.872-5.717,0-5.719,3.7a3.344,3.344,0,0,0,1.073,2.516q1.072,1.021,4.839,1.772a48.03,48.03,0,0,1,9.241,2.569,11.7,11.7,0,0,1,4.937,4.195,11.147,11.147,0,0,1,2,6.473,13.1,13.1,0,0,1-3.551,8.928Q152.994,162.238,145.834,162.922Z" transform="translate(-126.375 -115.59)" fill="#ffc550"/><g transform="translate(2.481)"><path d="M147.24,162.922v6.139h-5.2v-6.139q-11.734-1.235-14.259-11.307l8.928-2.045q1.531,5.751,8.386,5.748a8.039,8.039,0,0,0,4.951-1.265A3.758,3.758,0,0,0,151.694,151a3.244,3.244,0,0,0-1.464-2.828,17.155,17.155,0,0,0-5.719-1.844q-9.227-1.9-11.905-5.138a11.475,11.475,0,0,1-2.68-7.557,12.209,12.209,0,0,1,3.378-8.668,13.856,13.856,0,0,1,8.74-4.239V115.59h5.2v5.069q10.032.942,13.124,9.583l-8.187,2.729q-1.655-4.875-7.047-4.872-5.722,0-5.719,3.7a3.343,3.343,0,0,0,1.072,2.516q1.072,1.021,4.842,1.772a48.068,48.068,0,0,1,9.241,2.569,11.7,11.7,0,0,1,4.936,4.195,11.133,11.133,0,0,1,2,6.473,13.109,13.109,0,0,1-3.549,8.928Q154.405,162.238,147.24,162.922Z" transform="translate(-127.785 -115.59)" fill="#ffc550"/></g><path d="M126.375,136.947h2.481l8.928-2.046h-2.478Z" transform="translate(-126.375 -100.922)" fill="#ffc550"/><path d="M140.238,125.783h2.481l-.285-.73Z" transform="translate(-115.845 -108.403)" fill="#ffc550"/><g transform="translate(3.972 0.761)"><path d="M149.7,124.948c-.692.364-1.4.693-2.106,1.015-.649.294-1.262-.927-1.578-1.318a9.815,9.815,0,0,0-3.387-2.553,6.367,6.367,0,0,0-7.08,1.094c-.079.076.025.188.114.146,2.113-.971,3.755-1.591,6.092-.922,2.17.619,3.843,2.514,4.98,4.353a.339.339,0,0,0,.45.118c.955-.452,1.921-.869,2.852-1.358C150.421,125.325,150.085,124.747,149.7,124.948Z" transform="translate(-123.399 -111.883)" fill="#ffc550"/><path d="M142.159,141.19c-5.141-1.112-9.8-2.516-11.636-8.034-1.684-5.062.855-10.717,5.282-13.32a.077.077,0,0,0-.058-.141c-4.888,1.5-6.737,8.451-5.956,12.919a10.551,10.551,0,0,0,4.647,6.818c1.848,1.249,5.477,2.789,7.721,2.3A.285.285,0,0,0,142.159,141.19Z" transform="translate(-127.883 -113.236)" fill="#ffc550"/><path d="M142.18,132.861c-.26-.032-.257.336-.058.417,3.4,1.409,5.08,5.027,2.592,8.191-1.719,2.184-5.045,1.828-7.489,1.913a.229.229,0,0,0,0,.457c3.206.336,7.436-.035,8.819-3.5C147.253,137.307,145.706,133.28,142.18,132.861Z" transform="translate(-122.275 -103.235)" fill="#ffc550"/><path d="M139.581,144.9c-2.9-.772-5.147-1.427-7.27-3.681a22.893,22.893,0,0,1-2.469-3.35c-.746-1.165,1.763-1.387,2.671-1.772.192-.081.051-.371-.137-.327-1.172.285-2.317.653-3.505.859a.323.323,0,0,0-.234.306c-.086.774,1.093,2.043,1.508,2.671a18.7,18.7,0,0,0,2.324,2.873,10.393,10.393,0,0,0,7.021,3.113A.353.353,0,0,0,139.581,144.9Z" transform="translate(-128.632 -101.025)" fill="#ffc550"/><path d="M138.525,142.214a.174.174,0,0,0-.34-.049,13.412,13.412,0,0,0-.143,5.748c.053.387.663.391.616,0C138.405,146,138.648,144.118,138.525,142.214Z" transform="translate(-121.668 -96.259)" fill="#ffc550"/><path d="M145.093,129.286c-.278-.157-.48.232-.243.415,4.072,3.128,6.614,7.38,5.236,12.62a11.181,11.181,0,0,1-3.447,5.337c-2.127,1.921-4.654,2.12-7.165,3.132a.155.155,0,0,0,.04.3c4.983.656,9.843-4.237,11.21-8.6C152.328,137.381,149.615,131.853,145.093,129.286Z" transform="translate(-120.479 -105.976)" fill="#ffc550"/><path d="M138.7,116.18c-.026-.209-.384-.209-.419,0a30.188,30.188,0,0,0-.13,5.015.341.341,0,0,0,.681,0A29.086,29.086,0,0,0,138.7,116.18Z" transform="translate(-121.435 -116.023)" fill="#ffc550"/></g></g></g></g></g></g></g></svg>