<svg xmlns="http://www.w3.org/2000/svg" width="730.805" height="483.503" viewBox="0 0 730.805 483.503"><g transform="translate(-65.664 -153.813)"><rect width="716.843" height="468.89" transform="translate(79.626 168.426)" fill="#454258"/><path d="M0,0H717.362V470.06H0Z" transform="translate(65.664 153.813)" fill="#464646"/><rect width="694.343" height="3.871" transform="translate(77.833 558.808)" fill="#dbe2e8"/><rect width="121.016" height="3.871" transform="translate(77.833 558.808)" fill="#f7882d"/><g transform="translate(321.472 264.747)"><circle cx="85.273" cy="85.273" r="85.273" transform="translate(0 165.804) rotate(-76.456)" fill="#bfbfbf" opacity="0.3"/><path d="M240.66,241.581v90.5l68.288-45.25Z" transform="translate(-160.39 -183.958)" fill="#fff"/></g><g transform="translate(210.84 580.359)"><path d="M141.257,375.916V401.8l18.387-12.942Z" transform="translate(-141.257 -375.916)" fill="#fff"/><rect width="4.305" height="25.883" transform="translate(21.578)" fill="#fff"/></g><g transform="translate(158.667 580.359)"><path d="M114.09,375.916V401.8l18.387-12.942Z" transform="translate(-114.09 -375.916)" fill="#fff"/></g><g transform="translate(98.997 580.359)"><path d="M105.311,375.916V401.8L86.924,388.858Z" transform="translate(-79.427 -375.916)" fill="#fff"/><rect width="4.305" height="25.883" transform="translate(4.305 25.883) rotate(180)" fill="#fff"/></g><path d="M379.364,386.252l-.849-2.015s1.974-4.454,1.8-4.625l-2.612-2.55c-.182-.177-4.636,1.855-4.636,1.855l-2.055-.83s-1.815-4.513-2.065-4.513h-3.689c-.254,0-1.936,4.525-1.936,4.525l-2.051.83s-4.548-1.932-4.722-1.759l-2.61,2.554c-.18.175,1.9,4.54,1.9,4.54l-.847,2.013s-4.611,1.777-4.611,2.017v3.612c0,.254,4.621,1.9,4.621,1.9l.849,2.011s-1.974,4.448-1.8,4.619l2.612,2.558c.175.173,4.632-1.859,4.632-1.859l2.057.834s1.817,4.511,2.066,4.511H369.1c.255,0,1.936-4.525,1.936-4.525l2.059-.833s4.538,1.934,4.715,1.765l2.614-2.556c.181-.177-1.9-4.54-1.9-4.54l.847-2.011s4.611-1.78,4.611-2.022v-3.612C383.982,387.894,379.364,386.252,379.364,386.252Zm-6.8,3.772a5.388,5.388,0,1,1-5.387-5.268A5.337,5.337,0,0,1,372.565,390.024Z" transform="translate(262.072 202.288)" fill="#fff"/><path d="M418.608,400.681H380.269V375.459h38.339Zm-35.515-2.823h32.694V378.282H383.092Z" transform="translate(289.59 204.022)" fill="#fff"/><g transform="translate(731.368 576.805)"><path d="M421.681,376.888h9.731v9.73h2.823V374.065H421.681Z" transform="translate(-403.659 -374.065)" fill="#fff"/><path d="M415.12,386.618v-9.73h9.731v-2.823H412.3v12.552Z" transform="translate(-412.297 -374.065)" fill="#fff"/><path d="M431.413,383.449v9.733h-9.731V396h12.554V383.449Z" transform="translate(-403.659 -365.428)" fill="#fff"/><path d="M424.851,393.182H415.12v-9.733H412.3V396h12.554Z" transform="translate(-412.297 -365.428)" fill="#fff"/></g></g></svg>