<svg xmlns="http://www.w3.org/2000/svg" width="454.041" height="451.779" viewBox="0 0 454.041 451.779"><g transform="translate(-56.295 -125.769)"><path d="M190.06,420.632a303.429,303.429,0,0,1-15.7-32.37c-3.453-8.751-13.342-20.849-21.974-26.884s-11.176-16.652-5.651-23.592,10.045-16.816,10.045-21.946a9.4,9.4,0,0,0-9.417-9.327c-5.179,0-16.6,8.178-25.385,18.173l-22.058,25.1c-8.782,9.995-15.968,21.383-15.968,25.305s3.152,17.068,7,29.212l21.15,66.67c3.853,12.144,3.72,31.982-.293,44.086l-6.75,20.355C104.675,536.6,56.295,636.7,56.295,636.7h81.146l29.552-95.525,9.294-30.4c3.776-12.162,10.538-25.57,15.027-29.794s8.162-15.829,8.162-25.786S195.239,429.686,190.06,420.632Z" transform="translate(0 -59.156)" fill="#fdd5ae"/><g transform="translate(133.247 126.479)"><g transform="translate(0)"><rect width="376.378" height="294.08" rx="34.125" fill="#464646" stroke="#464646" stroke-miterlimit="10" stroke-width="1.422"/><rect width="314.929" height="232.996" transform="translate(30.725 29.445)" fill="#fff"/></g></g><g transform="translate(172.867 161.513)"><g transform="translate(8.286 45.148)" opacity="0.4"><rect width="33.89" height="6.205" transform="translate(0 3.715)" fill="#d0d2d3"/><rect width="33.89" height="6.205" transform="translate(0 18.924)" fill="#d0d2d3"/><rect width="33.89" height="6.205" transform="translate(74.937 3.715)" fill="#d0d2d3"/><rect width="33.89" height="6.205" transform="translate(74.937 22.64)" fill="#d0d2d3"/><rect width="33.89" height="6.205" transform="translate(74.937 38.992)" fill="#d0d2d3"/><rect width="33.89" height="6.205" transform="translate(74.937 54.201)" fill="#d0d2d3"/><rect width="33.89" height="6.205" transform="translate(74.937 73.978)" fill="#d0d2d3"/><rect width="33.89" height="6.205" transform="translate(74.937 89.187)" fill="#ececed"/><rect width="33.89" height="6.205" transform="translate(150.114 3.715)" fill="#d0d2d3"/><rect width="33.89" height="6.205" transform="translate(150.114 18.924)" fill="#d0d2d3"/><rect width="33.89" height="6.205" transform="translate(150.114 38.992)" fill="#d0d2d3"/><rect width="33.89" height="6.205" transform="translate(150.114 54.201)" fill="#d0d2d3"/><rect width="33.89" height="6.205" transform="translate(150.114 73.978)" fill="#d0d2d3"/><rect width="33.89" height="6.205" transform="translate(150.114 91.045)" fill="#d0d2d3"/><rect width="33.89" height="6.205" transform="translate(216.463 3.715)" fill="#d0d2d3"/><rect width="33.89" height="6.205" transform="translate(216.463 22.64)" fill="#d0d2d3"/><rect width="33.89" height="6.205" transform="translate(216.463 38.992)" fill="#d0d2d3"/><rect width="33.89" height="6.205" transform="translate(216.463 57.916)" fill="#d0d2d3"/><rect width="33.89" height="6.205" transform="translate(216.463 73.978)" fill="#d0d2d3"/><rect width="33.89" height="6.205" transform="translate(216.463 89.187)" fill="#d0d2d3"/><rect width="33.89" height="6.205" transform="translate(0 38.992)" fill="#d0d2d3"/><rect width="33.89" height="6.205" transform="translate(0 57.916)" fill="#d0d2d3"/><rect width="33.89" height="6.205" transform="translate(0 73.978)" fill="#d0d2d3"/><rect width="33.89" height="6.205" transform="translate(0 89.187)" fill="#d0d2d3"/><path d="M313.443,245.9l-4.369,9.92h9.62Z" transform="translate(-264.212 -245.902)" fill="#8cc53f"/><path d="M313.443,284.008l-4.369-9.92h9.62Z" transform="translate(-264.212 -255.163)" fill="#f1574e"/><path d="M425.053,245.9l-4.369,9.92h9.62Z" transform="translate(-300.885 -245.902)" fill="#ffc550"/><path d="M425.053,274.088l-4.369,9.92h9.62Z" transform="translate(-300.885 -255.163)" fill="#ffc550"/><path d="M425.053,298.442l-4.369,9.92h9.62Z" transform="translate(-300.885 -263.166)" fill="#ffc550"/><path d="M425.053,336.549l-4.369-9.92h9.62Z" transform="translate(-300.885 -272.427)" fill="#f1574e"/><path d="M425.053,350.55l-4.369,9.92h9.62Z" transform="translate(-300.885 -280.287)" fill="#ffc550"/><path d="M425.053,388.656l-4.369-9.92h9.62Z" transform="translate(-300.885 -289.549)" fill="#f1574e"/><path d="M537.02,245.9l-4.369,9.92h9.62Z" transform="translate(-337.675 -245.902)" fill="#ffc550"/><path d="M537.02,284.008l-4.369-9.92h9.62Z" transform="translate(-337.675 -255.163)" fill="#f1574e"/><path d="M537.02,298.442l-4.369,9.92h9.62Z" transform="translate(-337.675 -263.166)" fill="#ffc550"/><path d="M537.02,336.549l-4.369-9.92h9.62Z" transform="translate(-337.675 -272.427)" fill="#f1574e"/><path d="M537.02,350.55l-4.369,9.92h9.62Z" transform="translate(-337.675 -280.287)" fill="#ffc550"/><path d="M537.02,375.969l-4.369,9.92h9.62Z" transform="translate(-337.675 -288.64)" fill="#ffc550"/><path d="M635.839,245.9l-4.368,9.92h9.62Z" transform="translate(-370.146 -245.902)" fill="#8cc53f"/><path d="M635.839,275.942l-4.368,9.92h9.62Z" transform="translate(-370.146 -255.772)" fill="#8cc53f"/><path d="M635.839,298.442l-4.368,9.92h9.62Z" transform="translate(-370.146 -263.166)" fill="#ffc550"/><path d="M635.839,326.628l-4.368,9.92h9.62Z" transform="translate(-370.146 -272.427)" fill="#ffc550"/><path d="M635.839,350.55l-4.368,9.92h9.62Z" transform="translate(-370.146 -280.287)" fill="#ffc550"/><path d="M635.839,388.656l-4.368-9.92h9.62Z" transform="translate(-370.146 -289.549)" fill="#f1574e"/><path d="M313.443,298.442l-4.369,9.92h9.62Z" transform="translate(-264.212 -263.166)" fill="#ffc550"/><path d="M313.443,326.628l-4.369,9.92h9.62Z" transform="translate(-264.212 -272.427)" fill="#ffc550"/><path d="M313.443,350.55l-4.369,9.92h9.62Z" transform="translate(-264.212 -280.287)" fill="#8cc53f"/><path d="M313.443,388.656l-4.369-9.92h9.62Z" transform="translate(-264.212 -289.549)" fill="#f1574e"/></g><g transform="translate(0 44.202)"><path d="M230.915,349.793l-1-.912,40.671-44.556,10.986,27.8L315.784,268.2l24.725,60.344L363.6,244.492l18.648,22.243,19.323.959L413.4,291.252l12.338-16.875,22.408,35.616L465.249,267.9l6.2,17,9.554-16.481,1.171.679-11,18.982-5.991-16.416L448.4,312.946l-22.751-36.162-12.47,17.055-12.462-24.832-19.124-.95-17.37-20.717-23.462,85.387-25.14-61.358-34.233,63.975-11.263-28.505Z" transform="translate(-229.916 -244.492)" fill="#f25f46"/></g><rect width="104.299" height="40.455" transform="translate(96.42 165.149)" fill="#f7882d"/><g transform="translate(116.56 173.871)"><path d="M404.5,454.255a12.252,12.252,0,0,0,5.325,1.323c2.206,0,3.371-.914,3.371-2.3,0-1.323-1.008-2.079-3.56-2.994-3.529-1.229-5.829-3.182-5.829-6.269,0-3.624,3.025-6.4,8.035-6.4a13.019,13.019,0,0,1,5.419,1.071l-1.072,3.876a10.1,10.1,0,0,0-4.442-1.008c-2.079,0-3.088.945-3.088,2.049,0,1.354,1.2,1.953,3.939,2.992,3.749,1.387,5.514,3.34,5.514,6.333,0,3.56-2.741,6.586-8.571,6.586a13.892,13.892,0,0,1-6.018-1.292Z" transform="translate(-403.519 -437.619)" fill="#fff"/><path d="M442.712,450.392H434.9v5.041h8.727v3.939H430.077V438.135h13.107v3.939H434.9v4.411h7.814Z" transform="translate(-412.246 -437.789)" fill="#fff"/><path d="M455.132,438.135h4.821v17.2H468.4v4.033H455.132Z" transform="translate(-420.478 -437.789)" fill="#fff"/><path d="M479.108,438.135h4.821v17.2h8.444v4.033H479.108Z" transform="translate(-428.356 -437.789)" fill="#fff"/></g><g transform="translate(232.512 31.506)"><path d="M617.229,239.964a19.07,19.07,0,1,0-30.063,23.458,19.677,19.677,0,0,0,6.211,5.235l4.427-8.721-10.2-.695,21.374-18.071-1.973,27.921-6.582-7.825-4.359,8.588a18.954,18.954,0,0,0,18.1-2.83A19.257,19.257,0,0,0,617.229,239.964Zm-25.762.976a17.785,17.785,0,0,0-6.805,14.97,17.873,17.873,0,1,1,35.23-5.021,17.991,17.991,0,0,0-28.424-9.949Z" transform="translate(-578.442 -227.821)" fill="#fff"/><path d="M664.279,317.4,650.3,299.492c-2.011-2.578-5.07-3.549-6.824-2.181a2.987,2.987,0,0,0-1,1.521,6.535,6.535,0,0,1,5.094,2.792l13.977,17.912a6.531,6.531,0,0,1,1.469,5.62,2.987,2.987,0,0,0,1.72-.6C666.489,323.185,666.289,319.981,664.279,317.4Z" transform="translate(-597.988 -248.948)" fill="#d0d2d3"/><path d="M643.943,291.295l-13.158-16.863a10.607,10.607,0,0,0-8.438-4.249l-4.007-5.135a23.644,23.644,0,1,0-7.3,5.793l3.96,5.075a10.6,10.6,0,0,0,2.07,9.217L630.23,302c3.446,4.416,9.312,5.592,13.093,2.641S647.389,295.711,643.943,291.295Zm-32-26.509a18.954,18.954,0,0,1-18.1,2.83,19.429,19.429,0,0,1-2.687-1.2,19.675,19.675,0,0,1-6.211-5.235,19.07,19.07,0,1,1,27,3.6Zm31.022,36.4a2.987,2.987,0,0,1-1.72.6,6.531,6.531,0,0,0-1.469-5.62L625.8,278.26a6.535,6.535,0,0,0-5.094-2.792,2.987,2.987,0,0,1,1-1.521c1.753-1.368,4.813-.4,6.824,2.181l13.977,17.911C644.518,296.616,644.717,299.82,642.964,301.189Z" transform="translate(-576.216 -225.583)" fill="#464646"/><path d="M609.263,273.386l1.973-27.921-21.375,18.071,10.2.695-4.427,8.721a19.422,19.422,0,0,0,2.687,1.2l4.359-8.588Z" transform="translate(-580.7 -232.116)" fill="#f25f46"/></g><text transform="translate(10.353 24)" fill="#457bf4" font-size="24" font-family="SegoeUI, Segoe UI"><tspan x="0" y="0">Programmatic Selling</tspan></text></g><path d="M135.933,438.075c-7.441-4.606-6.219-15.646,2.716-24.533l1.1-1.094c8.935-8.887,23.361-23.618,32.059-32.736L184.3,366.618c8.7-9.119,19.363-12.93,23.7-8.471s4.278,13.937-.132,21.06a99.751,99.751,0,0,1-20.26,22.3c-6.733,5.143-14,14.07-16.151,19.836s-7.978,13.774-12.952,17.794S143.374,442.681,135.933,438.075Z" transform="translate(-24.567 -75.509)" fill="#f8c8a6"/><path d="M229.259,361.717s6.532,5.569,4.85,9.27c0,0-3.869,5.4-7.735,4.811l-6.583-10.132S227.191,359.659,229.259,361.717Z" transform="translate(-53.722 -77.154)" fill="#fbe2ca"/><path d="M198.972,555.808s-33.325,7.637-35.871-27.367C163.1,528.441,157.2,569.173,198.972,555.808Z" transform="translate(-35 -132.077)" fill="#fce0c6"/><path d="M110.791,385s-16.547,12.514-3.182,41.047C108.3,428.16,100.554,396.674,110.791,385Z" transform="translate(-15.148 -84.944)" fill="#fbe2ca"/><g transform="translate(308.866 335.73)"><path d="M550.835,561.711a16.967,16.967,0,0,1-.968-5.421,32.687,32.687,0,0,0-.969-6.8,12.475,12.475,0,0,0-3.1-5.488,10.9,10.9,0,0,0-4.262-2.146,16.163,16.163,0,0,0-3.681-.179c-.852.1-1.55-.787-1.55-1.967v-5.007a25.561,25.561,0,0,0-.969-6.08,17,17,0,0,0-3.1-5.544,10.618,10.618,0,0,0-4.65-2.862,8.265,8.265,0,0,0-4.843.715,24.011,24.011,0,0,0-4.068,2.862c-.959.885-1.395.081-.969-1.789a33.518,33.518,0,0,0,.775-6.08,23.083,23.083,0,0,0-1.162-6.08,9.945,9.945,0,0,0-5.23-5.007,16.83,16.83,0,0,0-7.361-1.073c-1.812.295-4.775,2.388-6.587,4.65a29.648,29.648,0,0,0-4.649,9.658c-.746,3.049-1.748,3.37-2.228.715a90.344,90.344,0,0,1-.872-12.7V448.686a13.576,13.576,0,0,0-2.615-7.332,9.811,9.811,0,0,0-6.683-3.219c-2.238,0-5.289,1.851-6.781,4.113s-3.129,10.114-3.638,17.447l-.085,1.232c-.51,7.333-1.351,19.333-1.871,26.665L467.9,499.2a137.644,137.644,0,0,1-3.463,22.274c-1.385,4.918-3.3,11.356-4.262,14.307s-1.744,4.158-1.744,2.682a34.17,34.17,0,0,0-1.356-7.332,24.511,24.511,0,0,0-3.778-7.511c-1.331-1.574-3.947-4.713-5.811-6.975s-4.785-4.113-6.49-4.113a22.339,22.339,0,0,0-5.812.894c-1.492.492-2.712,1.7-2.712,2.683a30.5,30.5,0,0,0,2.228,7.153c1.225,2.951,2.228,11.379,2.228,18.731v17.621a143.328,143.328,0,0,0,2.972,26.4l8,35.1c1.634,7.167,3.364,13.514,3.843,14.1s1.046,4.373,1.259,8.406a4.275,4.275,0,0,0,.387,1.534l1.464,34.8h76.93l-5.446-42.115c.07-1.842.169-3.53.279-4.592a30.827,30.827,0,0,1,2.518-8.226,74,74,0,0,1,4.844-8.405,38.948,38.948,0,0,0,4.261-9.12c.853-2.852,2.6-8,3.875-11.446s3.2-8.352,4.261-10.909,2.722-6.5,3.681-8.763a25.3,25.3,0,0,0,1.744-8.227A20.878,20.878,0,0,0,550.835,561.711Z" transform="translate(-432.471 -438.135)" fill="#fdd5ae"/><path d="M435.941,565.156s-2.6-8.6-3.36-9.981c0,0,3.146-2.584,5.208,0,2.264,2.837,3.864,8.109,3.864,8.109Z" transform="translate(-432.507 -476.215)" fill="#fdd5ae"/><path d="M495.976,455.067h11.875s1.165-7.173,0-10.183c-1.535-3.968-7.476-2.722-10.408-1.273C495.734,444.456,495.976,455.067,495.976,455.067Z" transform="translate(-453.334 -439.476)" fill="#fdd5ae"/></g></g></svg>