<svg xmlns="http://www.w3.org/2000/svg" width="835.576" height="474.77" viewBox="0 0 835.576 474.77"><g transform="translate(-796.309 -9256.401)"><g transform="matrix(0.966, -0.259, 0.259, 0.966, 796.309, 9340.208)"><rect width="323.801" height="293.663" transform="translate(0 111.091)" fill="#f9f9f9"/><path d="M323.8,123.607V105.76H218.042V0H0V123.607Z" transform="translate(0)" fill="#f7882d"/><path d="M0,0V98.578H98.587Z" transform="translate(225.215 0)" fill="#f7882d"/><g transform="translate(85.003 186.871)"><path d="M69.762,0a69.777,69.777,0,1,0,69.791,69.773A69.772,69.772,0,0,0,69.762,0Zm0,132.114A62.331,62.331,0,1,1,132.1,69.773,62.407,62.407,0,0,1,69.762,132.114Z" fill="#f7882d"/><path d="M0,68.864,59.652,34.432,0,0Z" transform="translate(50.285 35.342)" fill="#f7882d"/></g><text transform="translate(17.424 85.514)" fill="#fff" font-size="51" font-family="SegoeUI-Bold, Segoe UI" font-weight="700"><tspan x="0" y="0">.AVI</tspan></text></g><g transform="matrix(0.966, 0.259, -0.259, 0.966, 1319.118, 9256.402)"><rect width="323.8" height="292.898" transform="translate(0 111.856)" fill="#f9f9f9"/><path d="M323.8,123.607V105.76H218.043V0H0V123.607Z" fill="#f25f46"/><path d="M0,0V98.578H98.575Z" transform="translate(225.225 0)" fill="#f25f46"/><g transform="translate(93.35 195.847)"><rect width="45.412" height="45.403" fill="#f25f46"/><rect width="45.41" height="45.403" transform="translate(90.822 0)" fill="#f25f46"/><rect width="45.41" height="45.413" transform="translate(45.412 45.403)" fill="#f25f46"/><rect width="45.412" height="45.411" transform="translate(0 90.816)" fill="#f25f46"/><rect width="45.41" height="45.411" transform="translate(90.822 90.816)" fill="#f25f46"/></g><text transform="translate(30.264 85.514)" fill="#fff" font-size="51" font-family="SegoeUI-Bold, Segoe UI" font-weight="700"><tspan x="0" y="0">.MOV</tspan></text></g></g></svg>