<svg xmlns="http://www.w3.org/2000/svg" width="111.509" height="111.509" viewBox="0 0 111.509 111.509"><path d="M86.977,0H31.223A8.921,8.921,0,0,0,22.3,8.921v2.23H8.921A8.921,8.921,0,0,0,0,20.072V31.223a8.921,8.921,0,0,0,8.921,8.921H22.3V93.668a8.918,8.918,0,0,0,8.921,8.921H44.6a8.921,8.921,0,0,0,8.921,8.921H80.287a8.921,8.921,0,0,0,8.921-8.921h13.381a8.921,8.921,0,0,0,8.921-8.921V22.3L89.207,0ZM75.826,20.072a8.921,8.921,0,0,0-8.921-8.921A8.918,8.918,0,0,1,75.826,20.072Zm0,11.151a8.918,8.918,0,0,1-8.921,8.921A8.921,8.921,0,0,0,75.826,31.223Z" fill="#ffc550"/><path d="M75.826,48.921V60.072a8.921,8.921,0,0,1-8.921,8.921H8.921A8.921,8.921,0,0,1,0,60.072V48.921A8.921,8.921,0,0,1,8.921,40H66.906A8.921,8.921,0,0,1,75.826,48.921Z" transform="translate(0 -28.849)" fill="#f7882d"/><path d="M195.683,296.143H168.921A8.921,8.921,0,0,1,160,287.223v-22.3A8.921,8.921,0,0,1,168.921,256h26.762a8.921,8.921,0,0,1,8.921,8.921v22.3A8.921,8.921,0,0,1,195.683,296.143Z" transform="translate(-115.396 -184.634)" fill="#ffe3ac"/><path d="M224,304v13.381l11.151-6.691Z" transform="translate(-161.555 -219.253)" fill="#fff"/><path d="M314.23,0H312V15.611a8.921,8.921,0,0,0,8.921,8.921h15.611V22.3Z" transform="translate(-225.023)" fill="#edb74a"/><g transform="translate(6.691 17.888)"><rect width="4.46" height="4.46" transform="translate(0 11.104)" fill="#fff"/><path d="M57.513,75.031a33.54,33.54,0,0,0-.288-3.591l.624,1.822L60,78.49h1.8l2.152-5.239.68-1.907a34.731,34.731,0,0,0-.3,3.687v4.69h4.184V64.168h-4.53l-2.333,6.425-.66,1.945-.662-1.951L57.961,64.32l-.058-.152H53.376V79.721h4.137v-4.69Z" transform="translate(-45.187 -64.168)" fill="#fff"/><path d="M122.4,74.942h1.621c2.893,0,6.271-1.447,6.271-5.526,0-3.432-2.17-5.248-6.271-5.248h-6.084V79.721H122.4V74.942Zm0-7.15h1.436c1.463,0,2.087.486,2.087,1.624,0,1.262-.7,1.9-2.087,1.9H122.4Z" transform="translate(-91.749 -64.168)" fill="#fff"/><path d="M171.285,80.679h4.184v-3.3h1.577V73.9h-1.577V65.5H170.13l-5.08,8.749-.033.054v3.082h6.269Zm-1.878-6.78,1.164-2.172c.3-.622.558-1.18.8-1.719-.045.847-.087,1.76-.087,2.455V73.9h-1.878Z" transform="translate(-125.705 -65.126)" fill="#fff"/></g></svg>