<svg xmlns="http://www.w3.org/2000/svg" width="734" height="636.4" viewBox="0 0 734 636.4"><g transform="translate(-260 -246.348)"><g transform="translate(260 246.348)"><path d="M948.7,415.623l-1.346-2.031-45.809-47.729a7.594,7.594,0,0,1,4.016-11.442,48.288,48.288,0,0,0,19.232-11.234c19.1-18.218,19.95-48.2,1.713-66.391-17.378-19.055-47.337-19.538-66.407-1.262a47.742,47.742,0,0,0-12.069,18.7,7.6,7.6,0,0,1-11.6,3.5l-45.647-47.91L788.8,248.39a7.553,7.553,0,0,0-10.475.141l-52.941,50.783a7.143,7.143,0,0,1-7.523-5.109c-4.5-15.557-17.443-28.99-39.387-33.233a19.013,19.013,0,0,0-6.916-.06c-44.945,7.9-56.519,54.629-32.364,79.98a44.065,44.065,0,0,0,17.867,11.4,7.079,7.079,0,0,1,4.5,8.226L608.317,411.6a7.553,7.553,0,0,0-.386,10.717l48.15,50.2.857.664.287.3c4.085,4.28,11.224,2.011,12.719-3.862,4.413-16.964,18.438-32.1,41.85-36.714a46.842,46.842,0,0,1,13.07.869A46.867,46.867,0,0,1,760.6,471.2a46.017,46.017,0,0,1,.311,13.087c-5.678,23.183-21.435,36.512-38.578,40.13-5.919,1.265-8.513,8.283-4.418,12.547l.288.3.633.906,47.964,50.344a7.583,7.583,0,0,0,10.734.1l53.419-50.927a7.112,7.112,0,0,1,8.024,4.887,44.16,44.16,0,0,0,10.6,18.376c24.241,25.271,71.406,15.8,81.341-28.731a18.911,18.911,0,0,0,.241-6.914c-3.256-22.119-16.1-35.669-31.414-40.855a7.115,7.115,0,0,1-4.763-7.74l53.1-50.609A7.6,7.6,0,0,0,948.7,415.623Z" transform="translate(-216.499 -246.348)" fill="#f7882d"/><path d="M720.392,848.184h.4l1.1.161,69.531.3a7.6,7.6,0,0,0,7.513-7.679l.3-73.809a7.1,7.1,0,0,1,9.077-2.391,44.245,44.245,0,0,0,20.584,5.086c35.016.043,60.872-40.533,35.63-78.57a19.36,19.36,0,0,0-4.808-4.967c-18.213-12.969-36.852-13.089-51.216-5.632a7.145,7.145,0,0,1-8.882-1.946l.294-73.346a7.56,7.56,0,0,0-7.116-7.68l-2.41-.463-66.155-.039a7.577,7.577,0,0,1-5.453-10.819,48.333,48.333,0,0,0,5.2-21.633c.115-26.4-20.911-47.787-46.671-47.245-25.789-.684-46.9,20.6-46.929,47.008a47.842,47.842,0,0,0,5.137,21.669,7.614,7.614,0,0,1-5.54,10.8l-66.178-.3-2.387.44a7.467,7.467,0,0,0-6.4,4.423,11.128,11.128,0,0,1,.656,3.682l-.126,75.733-4.147-.823a6.844,6.844,0,0,1-6.087-.12l-1.282-.564a51.4,51.4,0,0,0-6.9.523l-.6.08-.6-.1a40.5,40.5,0,0,0-7.191-.906c-21.221.041-38.789,16.424-41.447,37.717a43.607,43.607,0,0,0-.4,5.592,51.119,51.119,0,0,0,6.46,24.065c.949,1.789,1.9,3.6,3.089,5.408a15.262,15.262,0,0,0,3.86,3.958c9.745,6.9,19.311,9.675,28.216,9.693a46.863,46.863,0,0,0,7.007-.582l.6-.12.6.1c1.933.319,3.44.621,4.837.785,1.174-.483,2.36-.966,3.5-1.57a6.8,6.8,0,0,1,7.019.5l3.313-.664-.12,76.883a12.275,12.275,0,0,1-.4,2.876,7.409,7.409,0,0,0,6.656,4.36l69.549.044,1.064-.144h.42c5.925.02,9.216-6.694,6.023-11.862-9.175-14.916-10.36-35.5,2.543-55.589a46.528,46.528,0,0,1,9.67-8.828,46.92,46.92,0,0,1,51.745.124,46.869,46.869,0,0,1,9.634,8.885c12.806,20.143,11.483,40.731,2.227,55.611C711.222,841.448,714.472,848.184,720.392,848.184Z" transform="translate(-231.466 -212.246)" fill="#464646"/><path d="M502.809,615.2l-.155.4-.069.144-.4,1.585a3.969,3.969,0,0,0,3.014,3.719l65.673-.117a10.256,10.256,0,0,1,2.553.463v-.02a10.968,10.968,0,0,1,6.15,2.212l.42-2.071.3-73.805a7.124,7.124,0,0,1,9.077-2.392A44.162,44.162,0,0,0,609.95,550.4c35.033.041,60.879-40.532,35.637-78.571a19.578,19.578,0,0,0-4.8-4.965c-18.207-12.969-36.862-13.09-51.233-5.629a7.145,7.145,0,0,1-8.875-1.953l.311-73.343a7.59,7.59,0,0,0-7.134-7.679l-2.4-.46-66.153-.044a7.579,7.579,0,0,1-5.471-10.814,48.169,48.169,0,0,0,5.224-21.638c.12-26.413-20.905-47.787-46.688-47.246-25.772-.679-46.889,20.609-46.924,47.008a47.943,47.943,0,0,0,5.137,21.676,7.579,7.579,0,0,1-5.522,10.775l-66.184-.281-2.393.44a7.568,7.568,0,0,0-7.155,7.665l-.064,73.341a7.13,7.13,0,0,1-8.887,1.89c-14.33-7.521-32.991-7.5-51.262,5.387a19.441,19.441,0,0,0-4.837,4.948c-25.443,37.9.23,78.591,35.251,78.729a43.913,43.913,0,0,0,20.595-4.987,7.085,7.085,0,0,1,9.06,2.456l-.057,73.805a7.779,7.779,0,0,0,.505,2.614,11.07,11.07,0,0,1,6.111-2.151v.02a10.189,10.189,0,0,1,2.559-.463l65.677.117a3.934,3.934,0,0,0,3-3.695l-.385-1.609-.074-.181-.087-.181-.087-.221A51.551,51.551,0,0,1,407,592.642h-.011v-.382a51.817,51.817,0,0,1,2.244-14.356c6.035-20.927,24.731-36.448,47.257-36.448l1.19.02,1-.02c22.5,0,41.217,15.521,47.252,36.448a51.887,51.887,0,0,1,2.226,14.376v.1A51.426,51.426,0,0,1,502.809,615.2Z" transform="translate(-260 -239.846)" fill="#464646"/><path d="M525.147,682.917a48.548,48.548,0,0,1,32.307-12.483l.018,3.7v-3.7a45.536,45.536,0,0,1,8.082.942,62.471,62.471,0,0,1,7.479-.561q1.837,0,3.692.176l.092-66.787a3.758,3.758,0,0,0-3.261-3.838l-.248-.062-.57-.02-.546-.2-1.111-.221-66.488.117-.322-.06A11.375,11.375,0,0,1,495,589.691l-.185-1a10.924,10.924,0,0,1,1.117-4.726H495.9l.15-.383.086-.12a44.176,44.176,0,0,0,4.654-19.726v-.1a44.429,44.429,0,0,0-1.932-12.264c-5.2-17.931-21.072-30.981-39.975-30.981l-.967.02H457.7l-1.006-.02a40.194,40.194,0,0,0-23.81,7.884,43.454,43.454,0,0,0-16.152,23.1,50.074,50.074,0,0,0-1.485,6.937,35.206,35.206,0,0,0-.477,5.287v.141a43.8,43.8,0,0,0,4.683,19.7l.091.166.063.18.092.222-.028.017a11.277,11.277,0,0,1,1.081,4.687l-.172.905a11.367,11.367,0,0,1-9.267,10.312l-.316.06-66.489-.117-.54.1-.581.12-.54.2-.581.02a3.8,3.8,0,0,0-3.527,3.883l.127,74.708L338,679.963a11.145,11.145,0,0,1-8.537,4.081,10.715,10.715,0,0,1-5.028-1.247,40.593,40.593,0,0,0-18.782-4.6c-8.945,0-18.69,2.893-28.51,9.871a15.057,15.057,0,0,0-3.86,3.96c-6.724,10.073-9.549,20.146-9.549,29.457,0,23.962,18.8,43.264,41.8,43.3h.074a40.438,40.438,0,0,0,18.794-4.6,10.632,10.632,0,0,1,4.873-1.206,11.2,11.2,0,0,1,9.031,4.763l.718,1.006.116,75.011a3.8,3.8,0,0,0,3.681,3.9l69.267-.117,1.1-.164h.684a3.268,3.268,0,0,0,2.456-1.044,4.154,4.154,0,0,0,.99-2.715l-.656-2.31a51.47,51.47,0,0,1-7.674-27.143c0-10.473,3.118-21.655,10.062-32.513l.132-.2.132-.159a50.605,50.605,0,0,1,10.471-9.572l.091-.061.081-.06a55.676,55.676,0,0,1,27.774-8.344h.115A55.565,55.565,0,0,1,485.6,767.6l.092.041.1.08a50.373,50.373,0,0,1,10.458,9.572l.143.181.127.176c6.937,10.858,10.067,22.04,10.05,32.534a51.419,51.419,0,0,1-7.669,27.143l-.666,2.29a4.1,4.1,0,0,0,1.006,2.715,3.24,3.24,0,0,0,2.456,1.044h.668l.265.044.827.12,69.29.117a3.814,3.814,0,0,0,3.688-3.9l.12-67.736a37.731,37.731,0,0,1-4.861.346h-.023a38.594,38.594,0,0,1-7.012-.967,49.9,49.9,0,0,1-7.41.621c-10.131,0-20.9-3.215-31.426-10.351l-1.191-.725a23.453,23.453,0,0,1-5.764-5.951,65.445,65.445,0,0,1-8.462-17.974c-.54-1.866-.949-3.74-1.3-5.586a54.4,54.4,0,0,1-1.058-10.116A51.277,51.277,0,0,1,525.147,682.917Z" transform="translate(-259.53 -211.883)" fill="#464646"/></g></g></svg>