<svg xmlns="http://www.w3.org/2000/svg" width="424" height="307.329" viewBox="0 0 424 307.329"><g transform="translate(-38 -64.042)"><path d="M306.261,227.076c-.034-2.626-.248-2.858-2.8-2.883-2.107-.02-4.215.012-6.322-.016-2.424-.031-2.681-.3-2.706-2.782-.024-2.371-.051-4.743,0-7.113.033-1.629-.582-2.437-2.3-2.427-1.142.006-2.284,0-3.427.008a6.951,6.951,0,0,0-13.794,0c-1.044,0-2.087,0-3.131-.006-1.584,0-2.273.7-2.255,2.274.031,2.634-.028,5.269-.011,7.9.011,1.491-.679,2.159-2.166,2.143-2.37-.026-4.744.067-7.113-.008-1.86-.059-2.593.7-2.567,2.57.07,4.873.039,9.748.014,14.622-.029,5.752.693,5.269-5.524,5.3-1.688.009-2.382-.692-2.353-2.365.052-2.963.008-5.928.008-8.891q0-24.4,0-48.807c0-3.442-.064-3.5-3.581-3.505-1.845,0-3.688,0-5.533,0-4.376,0-4.376,0-4.421-4.28,0-.329-.024-.659-.013-.987.053-1.6-.765-2.229-2.311-2.226h-.106a13.305,13.305,0,0,0-26.61.009c-1.433.011-2.171.637-2.127,2.136.03.987-.048,1.977-.007,2.964.07,1.654-.642,2.42-2.338,2.388-2.7-.05-5.4-.012-8.1,0-3.215.011-3.334.122-3.335,3.346q-.008,27.665,0,55.327c0,4.938,0,4.938-4.969,4.883-2.744-.029-2.947-.21-2.955-2.921-.017-5.73-.038-11.461,0-17.191.013-1.686-.689-2.394-2.36-2.362-2.436.046-4.873-.025-7.31,0-1.487.015-2.174-.655-2.164-2.145.018-2.635-.04-5.269-.01-7.9.019-1.575-.673-2.277-2.256-2.271-1.1,0-2.208,0-3.312.006a6.952,6.952,0,0,0-13.795,0c-1.082,0-2.163,0-3.245-.008-1.718-.009-2.339.795-2.305,2.426.049,2.37.022,4.742,0,7.113-.025,2.486-.283,2.752-2.7,2.783-2.108.028-4.216,0-6.324.016-2.555.025-2.768.257-2.8,2.882,0,.264,0,.527,0,.791q0,64.812,0,129.622c0,.725.008,1.45.051,2.173a1.471,1.471,0,0,0,1.5,1.517c.854.057,1.711.059,2.567.059q40.8,0,81.608,0h81.407c.791,0,1.581-.018,2.371-.021a1.708,1.708,0,0,0,1.933-1.948c-.006-.66.017-1.318.017-1.977q0-64.612,0-129.227C306.264,227.735,306.266,227.406,306.261,227.076ZM140.34,233.422c-.021-1.6.757-2.273,2.3-2.213.721.027,1.443.01,2.165.029a1.66,1.66,0,0,1,1.809,1.861c.009,1.378,0,2.757,0,4.135h.02c0,1.183-.047,2.367.012,3.545.089,1.8-.784,2.518-2.5,2.416-.524-.031-1.052-.026-1.576-.006-1.589.058-2.255-.729-2.233-2.282Q140.392,237.166,140.34,233.422Zm6.3,22.167c0,1.311-.028,2.626.005,3.937.038,1.508-.709,2.158-2.166,2.122-.656-.016-1.312-.017-1.968,0-1.464.042-2.185-.619-2.17-2.12.03-2.689.019-5.381.011-8.071a1.772,1.772,0,0,1,2.059-2.024c.656.013,1.312.019,1.968-.008,1.558-.066,2.318.632,2.27,2.225C146.6,252.962,146.636,254.276,146.636,255.589ZM140.331,310.3c0-.786,0-1.573,0-2.359.009-3.349,2.024-4.683,5.21-3.469a1.5,1.5,0,0,1,1.052,1.5q.028,4.518-.005,9.04a1.4,1.4,0,0,1-1.339,1.443,11.534,11.534,0,0,1-1.566.1c-3.13.036-3.337-.171-3.351-3.3C140.328,312.27,140.331,311.286,140.331,310.3Zm.012-18.176c0-1.378.028-2.757-.006-4.133-.037-1.512.717-2.151,2.17-2.115.655.016,1.311.015,1.967,0,1.447-.031,2.19.6,2.17,2.118-.035,2.688-.022,5.378-.011,8.067a1.776,1.776,0,0,1-2.063,2.02c-.655-.01-1.312-.017-1.967.011-1.564.065-2.311-.651-2.267-2.233C140.372,294.62,140.343,293.373,140.343,292.128Zm6.3,39.209c-.011,3.123-2.5,4.632-5.363,3.264a1.754,1.754,0,0,1-.931-1.8c-.007-2.758,0-5.514,0-8.271a1.7,1.7,0,0,1,1.915-1.949c.788.006,1.575.01,2.362,0,1.413-.025,2.024.7,2.007,2.069s-.005,2.755-.005,4.134h.017C146.648,329.63,146.651,330.483,146.648,331.337Zm-2.224-51.462a12.156,12.156,0,0,0-1.574.009c-1.892.158-2.628-.747-2.527-2.574.068-1.244.013-2.495.013-3.741h.027c0-1.379-.014-2.758,0-4.134a1.577,1.577,0,0,1,1.692-1.749c.262-.009.524-.021.787-.028,3.621-.1,3.8.067,3.8,3.648,0,2.1-.038,4.2,0,6.3C146.678,279.165,146.023,279.95,144.424,279.875Zm22.784-46.4c-.035,1.245-.007,2.493-.007,3.74h.013c0,.788,0,1.575,0,2.363-.01,3.321-2.133,4.72-5.229,3.464a1.667,1.667,0,0,1-1.045-1.726q-.024-4.134,0-8.268a1.661,1.661,0,0,1,1.852-1.821c.722-.012,1.444,0,2.165-.019C166.53,231.158,167.252,231.908,167.208,233.476Zm-.015,44.407c0,1.267-.575,1.973-1.892,1.975-.2,0-.394.012-.59.018-3.625.109-3.8-.058-3.81-3.639,0-1.838-.009-3.673,0-5.51.02-2.9.211-3.08,3.185-3.074.131,0,.263,0,.393,0,2.427.043,2.689.3,2.726,2.749.018,1.182,0,2.363,0,3.542h-.019C167.192,275.26,167.19,276.571,167.193,277.883Zm-14.512-46.662c.721.009,1.443.006,2.165,0a1.782,1.782,0,0,1,2.057,2.033c-.013,1.378,0,2.756,0,4.133h.019c0,.854,0,1.707,0,2.559-.019,2.912-2.7,4.424-5.376,3.031a1.831,1.831,0,0,1-.9-1.834c-.012-2.624,0-5.249-.008-7.873A1.786,1.786,0,0,1,152.681,231.221Zm4.23,24.167c0,1.378-.027,2.755.006,4.132.037,1.5-.7,2.163-2.157,2.128-.721-.017-1.443-.01-2.164-.008a1.705,1.705,0,0,1-1.957-1.912c0-2.821-.005-5.641.011-8.46a1.643,1.643,0,0,1,1.836-1.823c.722-.008,1.445.01,2.164-.02,1.557-.064,2.32.631,2.269,2.224C156.879,252.9,156.911,254.141,156.911,255.388Zm-1.919,61.143c-.72.011-1.441-.008-2.16.018-1.584.057-2.248-.707-2.22-2.27.044-2.488.054-4.979-.005-7.466-.042-1.732.657-2.589,2.435-2.482.653.04,1.309.017,1.963.024a1.719,1.719,0,0,1,1.9,1.975c0,1.441,0,2.881,0,4.322,0,1.311-.01,2.621.006,3.93A1.707,1.707,0,0,1,154.992,316.531Zm-3.275-18.568a1.634,1.634,0,0,1-1.064-1.7q-.021-4.324,0-8.651a1.58,1.58,0,0,1,1.738-1.7c.392-.017.786-.031,1.178-.034,3.141-.025,3.338.17,3.353,3.308,0,.983,0,1.966,0,2.949,0,.787,0,1.573,0,2.359C156.914,297.826,154.878,299.178,151.717,297.963Zm5.206-21.708c-.007,3.37-1.961,4.681-5.192,3.505a1.608,1.608,0,0,1-1.08-1.691q-.018-4.328,0-8.658a1.57,1.57,0,0,1,1.712-1.726c.328-.01.656-.025.984-.03,3.4-.052,3.563.11,3.573,3.482,0,.918,0,1.837,0,2.756Q156.924,275.073,156.923,276.255Zm10.285,37.6c-.041,2.454-.334,2.7-3.175,2.7-2.813,0-3.1-.235-3.124-2.735-.022-2.357.043-4.717-.014-7.074-.042-1.771.755-2.532,2.493-2.42.652.044,1.309.018,1.964.033a1.659,1.659,0,0,1,1.827,1.836c.013,1.441,0,2.881,0,4.323h.029C167.211,311.633,167.227,312.747,167.208,313.86Zm.006-19.39c-.009,3.359-2.005,4.7-5.194,3.5a1.748,1.748,0,0,1-1.092-1.891c-.014-2.751,0-5.5-.006-8.256a1.7,1.7,0,0,1,1.932-1.933c.785,0,1.571,0,2.357,0,1.391.005,2.018.717,1.993,2.091s0,2.752,0,4.128h.015C167.214,292.9,167.216,293.684,167.214,294.47Zm-.9-33.1a6.782,6.782,0,0,1-4.621-.013c-.709-.243-.767-1.012-.769-1.681q-.015-4.131,0-8.263c0-1.261.581-1.974,1.9-1.971.787,0,1.574.007,2.36,0,1.4-.017,2.027.7,2.013,2.07s0,2.754,0,4.132h.018c0,.917.048,1.838-.013,2.753C167.131,259.453,167.633,260.867,166.316,261.369Zm4.874-9.836c-.011-1.49.714-2.157,2.179-2.105.719.025,1.441.013,2.161.013a1.713,1.713,0,0,1,1.935,1.934q0,2.16,0,4.322c.005,1.31-.009,2.619.009,3.929.019,1.408-.7,2.029-2.061,2.017-.655-.006-1.31-.014-1.964.005-1.56.048-2.282-.7-2.265-2.257C171.211,256.772,171.206,254.152,171.19,251.533Zm-.015,36.618c-.028-1.55.621-2.338,2.216-2.275.72.029,1.442.009,2.162.02a1.715,1.715,0,0,1,1.918,1.954c-.012,1.375,0,2.751,0,4.128h-.015c0,1.441.015,2.882-.005,4.323a1.6,1.6,0,0,1-1.688,1.759c-.326.017-.654.033-.981.04-3.381.07-3.592-.128-3.6-3.459C171.172,292.477,171.215,290.314,171.175,288.151Zm4.364,28.38c-.658.011-1.316-.009-1.974.018-1.642.068-2.423-.661-2.39-2.35.05-2.5.044-5,0-7.5-.03-1.656.676-2.459,2.361-2.365.656.036,1.315.018,1.973.02a1.727,1.727,0,0,1,1.955,1.937c0,1.383,0,2.764,0,4.146s-.007,2.763.007,4.145A1.717,1.717,0,0,1,175.539,316.531Zm1.926-42.922q0,2.166,0,4.331a1.7,1.7,0,0,1-1.944,1.922c-.394,0-.787.017-1.181.018-2.948.005-3.146-.18-3.159-3.105-.012-2.361.017-4.723.011-7.085,0-1.383.647-2.067,2.046-2.026.524.015,1.05-.016,1.574-.006,2.351.043,2.614.3,2.673,2.605,0,.132,0,.262,0,.393v2.953Zm.024-34.048c-.01,3.344-2.087,4.727-5.213,3.488a1.657,1.657,0,0,1-1.06-1.715q-.024-4.134,0-8.269a1.662,1.662,0,0,1,1.838-1.835c.721-.014,1.443,0,2.165-.022,1.558-.051,2.307.671,2.264,2.25-.034,1.312-.006,2.625-.006,3.937h.014C177.49,238.118,177.491,238.839,177.489,239.561Zm50.056,32.784c3.1.018,3.24.151,3.261,3.21,0,.261,0,.525,0,.788,0,4.805-1.222,5.756-6.028,4.732a1.574,1.574,0,0,1-1.437-1.594c-.036-.982-.008-1.968-.008-2.953C223.289,272.319,223.289,272.319,227.545,272.345Zm-1.272-4.4c-2.764-.036-2.963-.242-2.988-3.084,0-.393,0-.787,0-1.179,0-4.836,1.105-5.7,6.015-4.728a1.549,1.549,0,0,1,1.456,1.563c.039.981.009,1.964.009,2.948C230.811,268.008,230.811,268.008,226.273,267.947ZM223.3,287.9c-.031-1.5.708-2.168,2.171-2.121.328.011.657-.008.985-.011,4.352-.036,4.352-.036,4.353,4.294,0,4.573,0,4.573-4.544,4.509-2.694-.039-2.942-.276-2.97-2.927C223.28,290.4,223.324,289.149,223.3,287.9Zm7.5-35.354a1.706,1.706,0,0,1-1.927,1.937c-.262.005-.524.016-.786.022-4.8.113-4.8.113-4.8-4.608,0-4.452,0-4.452,4.4-4.416,2.943.024,3.106.182,3.122,3.135C230.815,249.927,230.782,251.238,230.8,252.548ZM227.731,231.6c2.822.032,3.043.249,3.073,3.021,0,.328,0,.656,0,.984,0,4.845-1.108,5.709-6.018,4.735a1.55,1.55,0,0,1-1.448-1.573c-.036-.917-.008-1.837-.008-2.755C223.288,231.548,223.288,231.548,227.731,231.6Zm-1.264-4.633c-2.981-.024-3.157-.191-3.176-3.1-.007-1.247.016-2.495.019-3.742a1.728,1.728,0,0,1,1.953-1.933c.328,0,.657-.018.985-.023,4.56-.068,4.56-.068,4.559,4.5C230.806,227,230.806,227,226.467,226.964Zm-.1-13.425c-2.834-.029-3.042-.233-3.073-3.016,0-.328,0-.656,0-.984-.006-4.83,1.164-5.739,6.02-4.742a1.564,1.564,0,0,1,1.446,1.582c.036.917.008,1.837.008,2.756C230.807,213.585,230.807,213.585,226.363,213.539Zm-.276-13.439c-2.476-.048-2.754-.305-2.791-2.7-.021-1.379.011-2.758.014-4.136a1.719,1.719,0,0,1,1.942-1.938c.393,0,.787-.019,1.181-.023,4.373-.04,4.373-.039,4.374,4.276C230.809,200.192,230.809,200.192,226.087,200.1ZM211,288.092c-.06-1.686.759-2.407,2.394-2.316.2.011.393,0,.589-.005,4.53-.062,4.53-.062,4.529,4.5,0,4.345,0,4.345-4.349,4.3-2.915-.029-3.139-.247-3.163-3.138C210.991,290.319,211.04,289.2,211,288.092Zm7.5-11.344c.008,4.444.008,4.444-4.446,4.388-2.784-.035-3.022-.272-3.059-3.045,0-.263,0-.525,0-.787-.014-5.129-.015-5.077,5.059-4.981,1.759.033,2.556.705,2.453,2.46C218.471,275.435,218.5,276.094,218.5,276.748Zm-4.325-36.359c-2.957-.024-3.149-.211-3.18-3.1,0-.262,0-.524,0-.786-.009-4.971.961-5.752,5.924-4.863a1.636,1.636,0,0,1,1.541,1.707c.034.916.008,1.833.008,2.749C218.511,240.423,218.511,240.423,214.178,240.389Zm-3.166,7.469c.009-.457-.051-1.04.2-1.345,1.585-1.966,3.775-.794,5.7-.948,1.287-.1,1.582.943,1.593,2.031.009.856,0,1.712,0,2.568.017,4.406.017,4.406-4.491,4.347-2.774-.037-2.99-.255-3.011-3.1C210.987,250.228,210.984,249.042,211.012,247.858Zm6.6-21.2a9.86,9.86,0,0,1-5.619.086c-.726-.143-.93-.871-.946-1.564-.022-.917-.005-1.834-.005-2.752-.041-4.309-.041-4.309,4.356-4.268,2.89.028,3.09.231,3.116,3.173a12.69,12.69,0,0,1-.008,1.573C218.347,224.211,219.145,226.02,217.608,226.658ZM214.066,200.1c-2.806-.033-3.031-.255-3.067-3.03,0-.327,0-.655,0-.983-.006-4.792,1.221-5.741,6.032-4.73a1.58,1.58,0,0,1,1.425,1.6c.043.915.009,1.833.009,2.75C218.512,200.154,218.512,200.154,214.066,200.1Zm-7.834,35.362c.006,5.048.006,5.048-5.123,4.925-2.281-.055-2.567-.343-2.623-2.678-.016-.658,0-1.316,0-1.975,0-4.39,0-4.39,4.328-4.365,3.259.02,3.4.165,3.419,3.5C206.232,235.069,206.231,235.267,206.232,235.464Zm-4.69,45.9c-2.8-.037-3.021-.261-3.06-3.063,0-.264,0-.527,0-.791-.016-5.431-.017-5.391,5.48-5.182,1.588.062,2.308.7,2.262,2.266-.022.724,0,1.448,0,2.173C206.232,281.423,206.232,281.423,201.542,281.361Zm2.414-22.471c1.569.058,2.306.677,2.264,2.242-.021.784,0,1.57,0,2.356.014,4.509.014,4.509-4.577,4.459-2.9-.03-3.125-.256-3.158-3.14,0-.261,0-.524,0-.786C198.468,258.643,198.467,258.681,203.956,258.89Zm-5.477-35.744c-.012-5.461.4-5.813,5.86-5.191,1.178.134,1.832.646,1.854,1.849.016.922,0,1.844,0,2.765.031,4.425.031,4.425-4.441,4.4-3.1-.018-3.249-.168-3.275-3.229C198.479,223.542,198.479,223.344,198.479,223.146Zm3.081,31.366c-2.857-.027-3.056-.211-3.076-2.985-.011-1.376.008-2.753.026-4.129a1.7,1.7,0,0,1,1.964-1.9c.459.01.918-.014,1.377-.015,4.378-.019,4.378-.019,4.38,4.446C206.234,254.553,206.234,254.553,201.56,254.512Zm1.6-63.428c2.8.039,3.041.271,3.07,3.038.012,1.247.011,2.494-.015,3.741-.01.455.052,1.035-.192,1.341-1.613,2.029-3.855.883-5.831,1.014-1.244.083-1.669-.839-1.68-1.962-.009-.853,0-1.706,0-2.56C198.481,191.021,198.481,191.021,203.157,191.084Zm-3.867,13.864c1.752-.921,3.859-.512,5.812-.218.772.115,1.03.783,1.059,1.478.041.985.01,1.973.01,2.959.061,4.764-.074,4.889-4.824,4.517-2.635-.207-2.83-.42-2.865-3.14a12.778,12.778,0,0,1,.006-1.578C198.644,207.583,197.823,205.719,199.29,204.948Zm-.041,81.234c1.715-.984,3.856-.453,5.806-.268.843.08,1.1.868,1.127,1.642.03.92.008,1.841.008,2.762.041,4.534.041,4.534-4.573,4.48-2.89-.034-3.107-.254-3.136-3.191a9,9,0,0,1,0-1.184C198.668,288.972,197.773,287.029,199.249,286.182Zm6.973,31.48c.009,4.494.009,4.494-4.57,4.463-2.975-.021-3.144-.185-3.172-3.106,0-.263,0-.527,0-.789-.008-5.3-.009-5.247,5.267-5.173,1.759.023,2.577.668,2.482,2.437C206.19,316.215,206.222,316.939,206.222,317.662Zm-.013,29.381a1.706,1.706,0,0,1-1.952,1.92c-.394,0-.788.015-1.182.018-4.6.037-4.6.037-4.6-4.634,0-4.42,0-4.42,4.437-4.4,3.179.014,3.3.132,3.313,3.353C206.233,344.548,206.212,345.8,206.209,347.043Zm-4.431-11.493c-3.166-.015-3.288-.134-3.3-3.371,0-1.313,0-2.627.047-3.94a1.573,1.573,0,0,1,1.741-1.7c.395,0,.788-.021,1.182-.025,4.781-.049,4.781-.048,4.78,4.649C206.23,335.572,206.23,335.572,201.778,335.55Zm-.816-26.839c-1.744-.027-2.586-.648-2.482-2.431.043-.72.007-1.445.007-2.167-.008-4.477-.008-4.477,4.57-4.45,2.994.019,3.144.163,3.173,3.1,0,.263,0,.526,0,.788C206.24,308.847,206.241,308.8,200.962,308.711Zm10.947-103.646c1.74-.742,3.743-.466,5.615-.109.728.138.929.873.947,1.563.025.916.006,1.835.006,2.752.038,4.315.038,4.315-4.337,4.271-2.9-.028-3.117-.243-3.145-3.156a12.12,12.12,0,0,1,.008-1.572C211.165,207.512,210.358,205.725,211.909,205.065Zm4.152,94.575c1.778.028,2.562.707,2.456,2.471-.044.721-.008,1.448-.008,2.172.008,4.453.008,4.453-4.447,4.4-2.832-.032-3.036-.234-3.067-3.044,0-.329,0-.66,0-.989C210.987,299.507,210.987,299.56,216.061,299.64Zm-4.918,14.647c1.421-2.237,3.662-.9,5.533-1.149,1.192-.16,1.786.634,1.808,1.81.017.916,0,1.833,0,2.749.03,4.493.03,4.493-4.555,4.427-2.662-.039-2.905-.278-2.934-2.949q-.021-1.768.007-3.536A2.814,2.814,0,0,1,211.143,314.287Zm2.822,34.693c-2.683-.038-2.936-.281-2.967-2.914-.014-1.113,0-2.225,0-3.338a6.271,6.271,0,0,1,.038-.98c.455-2.832,2.7-1.6,4.237-1.753,1.337-.13,3.09-.474,3.2,1.781.046.914.008,1.831.008,2.748C218.517,349.045,218.517,349.045,213.965,348.98Zm.105-13.431c-2.828-.03-3.046-.239-3.073-3-.011-1.113-.017-2.226,0-3.337.046-2.383.33-2.649,2.783-2.691,4.734-.085,4.734-.085,4.733,4.667C218.516,335.6,218.516,335.6,214.07,335.549Zm3.66-68.027c-1.679.936-3.722.493-5.606.246a1.331,1.331,0,0,1-1.077-1.462c-.023-.987,0-1.972,0-2.959-.048-4.482-.048-4.482,4.383-4.442,2.85.025,3.056.225,3.089,3.007a11.683,11.683,0,0,1-.008,1.577C218.335,264.87,219.191,266.707,217.73,267.522Zm5.69,46.769c1.418-2.254,3.665-.895,5.537-1.152,1.176-.161,1.814.587,1.824,1.791.009.918,0,1.836,0,2.755.027,4.5.027,4.5-4.557,4.439-2.686-.036-2.912-.257-2.938-2.936q-.018-1.77.006-3.542A2.858,2.858,0,0,1,223.42,314.291Zm2.959,34.69c-2.907-.028-3.076-.2-3.093-3.174-.007-1.116-.009-2.23.009-3.344a2.73,2.73,0,0,1,.141-1.35c1.459-2.173,3.684-.883,5.565-1.1,1.342-.158,1.807.8,1.795,2.023-.009.852,0,1.7,0,2.556C230.81,349.024,230.81,349.024,226.379,348.981Zm4.306-14.631c-1.443,2.21-3.673.906-5.551,1.134-1.16.143-1.821-.581-1.824-1.794,0-.918,0-1.837,0-2.755-.025-4.455-.025-4.455,4.374-4.42,2.947.022,3.106.178,3.125,3.133q.011,1.77-.01,3.542A2.377,2.377,0,0,1,230.685,334.35Zm-.768-25.985a9.709,9.709,0,0,1-5.79.039c-.633-.156-.795-.826-.8-1.447-.014-.98-.005-1.963-.005-2.945-.034-4.389-.034-4.389,4.431-4.348,2.852.026,3.031.2,3.059,3a18.074,18.074,0,0,1-.013,2.159C230.657,306.057,231.434,307.783,229.917,308.365Zm10.241,4.717c2.683.034,2.9.247,2.93,2.939.013,1.178.011,2.36-.006,3.539a2.8,2.8,0,0,1-.127,1.353c-1.424,2.231-3.663.926-5.54,1.15-1.316.156-1.841-.753-1.826-2,.01-.853,0-1.705,0-2.556C235.574,313.023,235.574,313.023,240.158,313.082Zm-1.5-18.509c-2.818-.03-3.04-.248-3.074-3.019,0-.328,0-.657,0-.985-.007-4.847,1.127-5.732,6-4.744a1.562,1.562,0,0,1,1.45,1.573c.038.917.008,1.837.008,2.754C243.089,294.621,243.089,294.621,238.655,294.573Zm.075-13.437c-2.928-.026-3.128-.221-3.148-3.136-.008-1.18.029-2.359.007-3.538-.026-1.5.713-2.163,2.176-2.107.261.01.524-.005.786-.009,4.539-.053,4.539-.053,4.538,4.5C243.088,281.176,243.088,281.176,238.73,281.136Zm-2.947-34.651c1.591-1.921,3.762-.784,5.676-.917,1.4-.1,1.62,1.052,1.622,2.187q0,1.08,0,2.16c.012,4.7.012,4.7-4.8,4.594-2.415-.053-2.671-.306-2.7-2.761q-.024-1.962.011-3.927C235.6,247.368,235.537,246.783,235.783,246.485Zm2.623-19.523c-2.554-.043-2.785-.277-2.824-2.86-.006-.393,0-.787,0-1.18,0-4.746,1.33-5.769,6.054-4.692a1.591,1.591,0,0,1,1.4,1.626c.033.851.007,1.7.007,2.556C243.091,227.041,243.091,227.041,238.406,226.962Zm.14-13.424c-2.7-.036-2.935-.259-2.962-2.921-.013-1.311.011-2.623.019-3.934a1.718,1.718,0,0,1,1.956-1.92c.394,0,.787-.018,1.18-.021,4.349-.037,4.349-.036,4.351,4.3C243.09,213.6,243.09,213.6,238.546,213.538Zm3.223-22.142a1.534,1.534,0,0,1,1.261,1.536c.038.982.009,1.966.009,2.949.048,4.247.048,4.247-4.18,4.222-3.091-.019-3.254-.178-3.279-3.2,0-.328,0-.656,0-.984C235.576,191.428,237.319,190.164,241.769,191.4Zm-.161,40.268a1.583,1.583,0,0,1,1.425,1.6c.037.916.008,1.835.008,2.752.049,4.412.049,4.412-4.414,4.369-2.829-.027-3.017-.213-3.047-3.024,0-.328,0-.656,0-.984C235.574,231.6,236.841,230.616,241.608,231.664Zm-6.029,30.129c.032-2.645.255-2.857,2.979-2.888,4.536-.052,4.536-.052,4.535,4.691,0,4.4,0,4.4-4.47,4.351-2.828-.03-3.024-.22-3.046-3.012C235.568,263.888,235.565,262.841,235.579,261.793Zm.128,39.085c1.406-2.269,3.652-.9,5.517-1.153,1.161-.16,1.825.563,1.837,1.773.009.915,0,1.832,0,2.748.03,4.5.03,4.5-4.545,4.442-2.689-.035-2.912-.25-2.939-2.922q-.021-1.768,0-3.535A2.865,2.865,0,0,1,235.707,300.878Zm2.972,48.1c-2.912-.026-3.086-.2-3.1-3.155-.007-1.179-.011-2.357.014-3.536.01-.452-.056-1.038.189-1.336,1.587-1.932,3.76-.786,5.672-.924,1.4-.1,1.63,1.043,1.63,2.183q0,1.177,0,2.357C243.093,349.022,243.093,349.022,238.679,348.981Zm3.671-13.857c-1.75.926-3.838.519-5.772.222-.734-.114-.953-.837-.966-1.536-.015-.917,0-1.834,0-2.751-.035-4.613-.035-4.613,4.626-4.543,2.582.039,2.812.264,2.853,2.816a15.3,15.3,0,0,1-.007,1.963C242.93,332.609,243.746,334.386,242.35,335.124Zm21.325-101.872c-.022-1.579.708-2.211,2.263-2.281,3.7-.165,4.044.125,4.052,3.866,0,.789,0,1.578,0,2.366h-.015c0,1.315-.033,2.63.008,3.944.05,1.6-.746,2.281-2.278,2.258-.591-.009-1.184-.012-1.774.005-1.566.045-2.28-.7-2.258-2.271Q263.728,237.2,263.675,233.252Zm6.311,40.355h-.022c0,1.443,0,2.886,0,4.329a1.714,1.714,0,0,1-1.949,1.926c-.393,0-.787.017-1.181.018-2.947.006-3.145-.179-3.158-3.1-.011-2.361.015-4.723.012-7.084,0-1.375.634-2.076,2.041-2.03.524.017,1.049-.016,1.574-.006,2.342.043,2.628.316,2.679,2.605C270.007,271.376,269.986,272.492,269.986,273.607Zm-6.3-18.149c0-1.245.032-2.492-.008-3.736-.053-1.685.753-2.4,2.4-2.3.653.04,1.311.019,1.966.022a1.723,1.723,0,0,1,1.925,1.954c0,2.753,0,5.507.006,8.261a1.727,1.727,0,0,1-1.906,1.974c-.72.011-1.443-.01-2.163.022-1.591.07-2.273-.7-2.228-2.263C263.71,258.082,263.681,256.769,263.681,255.458Zm2.372,30.414c.653.035,1.309.012,1.965.023a1.725,1.725,0,0,1,1.949,1.927q0,4.128,0,8.253a1.789,1.789,0,0,1-2.079,2.012c-.656-.008-1.312-.021-1.965.012-1.588.074-2.28-.7-2.246-2.251.028-1.311.006-2.621.006-3.932,0-1.244.037-2.49-.014-3.733C263.6,286.486,264.416,285.786,266.053,285.872ZM263.676,306.6c-.017-1.559.663-2.335,2.257-2.264.722.033,1.446.012,2.169.027a1.673,1.673,0,0,1,1.85,1.834c.017,1.381,0,2.763,0,4.145h.016c0,1.381-.016,2.763.005,4.143a1.789,1.789,0,0,1-2.048,2.054c-.657,0-1.316-.012-1.973.01-1.561.052-2.3-.673-2.279-2.254Q263.722,310.445,263.676,306.6Zm5.407,27.9a6.862,6.862,0,0,1-4.62-.009c-.7-.24-.763-1.017-.766-1.685-.011-2.754,0-5.507,0-8.261,0-1.4.722-2.021,2.1-1.975.654.023,1.312.027,1.966,0,1.6-.071,2.27.714,2.231,2.264-.033,1.311-.007,2.622-.007,3.934h.011c0,.983.036,1.968-.01,2.949C269.932,332.723,270.314,334.042,269.083,334.5Zm21.658-101.518c.02,2.815.012,5.632.009,8.449a1.73,1.73,0,0,1-1.917,1.965c-.065,0-.131,0-.2.01-4.071.312-4.394.014-4.4-4.044q0-1.081,0-2.162c0-.852,0-1.7,0-2.554.011-3.323,2.542-4.888,5.563-3.459A1.748,1.748,0,0,1,290.741,232.979Zm-16.791.248c-.021-1.594.744-2.286,2.289-2.238.721.023,1.446.008,2.167.04a1.685,1.685,0,0,1,1.826,1.86c0,1.446,0,2.891,0,4.337h.008c0,1.38-.008,2.76,0,4.14a1.752,1.752,0,0,1-1.891,2.011c-.722.023-1.445.01-2.167.031-1.583.046-2.255-.74-2.235-2.294Q274,237.171,273.95,233.227Zm.006,22.231c0-1.245.033-2.492-.007-3.736-.054-1.685.752-2.4,2.4-2.3.653.04,1.311.019,1.966.022a1.722,1.722,0,0,1,1.925,1.954c0,2.753,0,5.507.006,8.261a1.726,1.726,0,0,1-1.9,1.974c-.721.011-1.443-.01-2.163.022-1.592.07-2.274-.7-2.229-2.263C273.986,258.082,273.956,256.769,273.956,255.458Zm4.2,61.082c-.657-.009-1.315-.015-1.972.006-1.591.048-2.254-.75-2.235-2.3q.049-3.848,0-7.7c-.016-1.59.74-2.292,2.3-2.218.656.032,1.315.02,1.972.017,1.4-.006,2.029.725,2.02,2.089-.009,1.316,0,2.631,0,3.948h.007c0,1.314-.026,2.631.008,3.946C280.3,315.8,279.656,316.56,278.157,316.54Zm2.06-20.209a1.606,1.606,0,0,1-1.732,1.733c-.526.021-1.052.039-1.579.036-2.671-.012-2.934-.261-2.954-2.945-.017-2.369.021-4.738.009-7.107-.008-1.473.684-2.2,2.164-2.163.723.015,1.447,0,2.171.011a1.731,1.731,0,0,1,1.948,1.947c-.007,1.382,0,2.763,0,4.144h-.018C280.224,293.435,280.244,294.884,280.217,296.331Zm.04-22.522h-.018c0,1.377,0,2.755,0,4.132a1.713,1.713,0,0,1-1.953,1.921c-.393,0-.787.017-1.181.018-2.939.005-3.14-.184-3.154-3.108-.012-2.361.016-4.723.013-7.083,0-1.379.643-2.07,2.046-2.025.59.019,1.183.028,1.77-.011,1.735-.113,2.573.632,2.49,2.417C280.209,271.315,280.257,272.564,280.257,273.809Zm8.2,24.311c-4.068.109-4.213.015-4.219-4.046v-2.162c0-.983-.04-1.969.014-2.949.059-1.063-.345-2.488,1.066-2.862a6.83,6.83,0,0,1,4.8.189c.646.313.634,1.107.638,1.764.015,2.622-.009,5.243.013,7.864C290.78,297.506,290,298.077,288.456,298.12Zm2.294-24.285c0,1.381.011,2.762,0,4.143-.014,1.293-.677,1.826-1.976,1.908-4.307.272-4.532.1-4.534-4.119,0-1.909.04-3.817,0-5.722-.036-1.62.58-2.379,2.308-2.414,4.141-.085,4.232-.058,4.238,4.033v2.171Zm.03-15.82c-.013,3.375-2.14,4.743-5.4,3.5a1.765,1.765,0,0,1-1.1-1.893c-.021-2.754-.018-5.507-.007-8.262,0-1.275.647-1.841,1.946-1.939,4.3-.324,4.564-.112,4.567,4.266v1.771C290.781,256.31,290.784,257.162,290.78,258.015Zm3.732,17.613q0-.987,0-1.973c0-.723,0-1.447,0-2.171.006-3.6,1.93-4.919,5.4-3.731a1.586,1.586,0,0,1,1.1,1.682q.029,4.341,0,8.68a1.569,1.569,0,0,1-1.7,1.741C294.17,280,294.507,279.954,294.512,275.628Zm6.51-20.053c0,1.377.012,2.755,0,4.131a1.73,1.73,0,0,1-1.956,1.931c-.459,0-.918.02-1.377.019-2.9-.008-3.148-.247-3.167-3.133-.016-2.3.016-4.589,0-6.884-.007-1.416.546-2.146,2.08-2.228,4.245-.228,4.447-.081,4.453,4.2v1.967Zm.035,36.526c0,.787,0,1.573,0,2.359-.011,3.307-2.542,4.879-5.563,3.462a1.753,1.753,0,0,1-.947-1.794c-.017-2.751-.009-5.5,0-8.255a1.739,1.739,0,0,1,1.913-1.976c.065,0,.131,0,.2-.008,4.069-.312,4.4-.01,4.4,4.05C301.058,290.659,301.057,291.381,301.057,292.1ZM301,314.778a1.606,1.606,0,0,1-1.73,1.739c-.525.019-1.052.04-1.578.038-2.9-.008-3.158-.251-3.174-3.148-.013-2.3.019-4.607.008-6.912-.007-1.461.657-2.1,2.152-2.178,4.377-.224,4.375-.265,4.378,4.144v1.974h-.049C301.008,311.884,301.031,313.332,301,314.778Zm.045-74.064c-.053,2.479-.368,2.722-3.383,2.707-2.784-.013-3.109-.277-3.139-2.757-.029-2.424.031-4.849-.012-7.272-.029-1.624.625-2.477,2.315-2.406.654.028,1.311.023,1.965,0,1.563-.049,2.293.692,2.255,2.257-.032,1.309-.007,2.62-.007,3.931h.01C301.05,238.356,301.071,239.536,301.046,240.714Z" fill="#fff3e1"/><rect width="6.328" height="21.608" transform="translate(154.629 339.492)" fill="#7c500f"/><rect width="1.884" height="21.608" transform="translate(155.909 339.492)" fill="#8c5a18"/><path d="M173.078,313.32a15.139,15.139,0,1,0-29.38,0,19.04,19.04,0,1,0,29.38,0Z" fill="#21a32a"/><path d="M156.3,339a16.951,16.951,0,0,0,13.078-27.736,13.419,13.419,0,0,0-12.033-16.631A15.067,15.067,0,0,0,143.7,313.32a18.958,18.958,0,0,0-4.269,10.358A16.951,16.951,0,0,0,156.3,339Z" fill="#2daa2f"/><path d="M148.534,310.933A1.234,1.234,0,0,1,147.3,309.7a10.8,10.8,0,0,1,10.79-10.79,1.234,1.234,0,0,1,0,2.468,8.332,8.332,0,0,0-8.324,8.322A1.232,1.232,0,0,1,148.534,310.933Z" fill="#3eb73e"/><rect width="6.328" height="21.608" transform="translate(410.539 339.492)" fill="#7c500f"/><rect width="1.885" height="21.608" transform="translate(411.818 339.492)" fill="#8c5a18"/><path d="M428.987,313.32a15.139,15.139,0,1,0-29.38,0,19.041,19.041,0,1,0,29.38,0Z" fill="#21a32a"/><path d="M412.208,339a16.951,16.951,0,0,0,13.078-27.736,13.419,13.419,0,0,0-12.034-16.631,15.067,15.067,0,0,0-13.645,18.687,18.95,18.95,0,0,0-4.268,10.358A16.949,16.949,0,0,0,412.208,339Z" fill="#2daa2f"/><path d="M404.443,310.933a1.233,1.233,0,0,1-1.233-1.234A10.8,10.8,0,0,1,414,298.909a1.234,1.234,0,0,1,0,2.468,8.332,8.332,0,0,0-8.324,8.322A1.233,1.233,0,0,1,404.443,310.933Z" fill="#3eb73e"/><rect width="6.328" height="21.608" transform="translate(104.747 339.492)" fill="#7c500f"/><rect width="1.884" height="21.608" transform="translate(106.027 339.492)" fill="#8c5a18"/><path d="M123.2,313.32a15.14,15.14,0,1,0-29.381,0,19.04,19.04,0,1,0,29.381,0Z" fill="#21a32a"/><path d="M106.416,339a16.951,16.951,0,0,0,13.078-27.736,13.419,13.419,0,0,0-12.033-16.631A15.067,15.067,0,0,0,93.815,313.32a18.957,18.957,0,0,0-4.268,10.358A16.95,16.95,0,0,0,106.416,339Z" fill="#2daa2f"/><path d="M98.651,310.933a1.233,1.233,0,0,1-1.233-1.234,10.8,10.8,0,0,1,10.79-10.79,1.234,1.234,0,0,1,0,2.468,8.331,8.331,0,0,0-8.323,8.322A1.233,1.233,0,0,1,98.651,310.933Z" fill="#3eb73e"/><path d="M251.273,184.875l4.941,3.735-.72,7.388,3.778.9,1.807-8.469-8.152-8.074Z" fill="#56c4f4"/><path d="M259.424,196.181l-.151.714L255.5,196l.714-7.384-4.941-3.741,1.655-4.52.313.314-1.319,3.611,4.941,3.73-.725,7.384Z" fill="#47bae2"/><path d="M258.529,187.63a1.426,1.426,0,1,0,1.426,1.427A1.427,1.427,0,0,0,258.529,187.63Z" fill="#e4e4e6" opacity="0.3"/><path d="M259.835,189.057a1.306,1.306,0,1,1-1.306-1.306A1.306,1.306,0,0,1,259.835,189.057Z" fill="#92deff"/><path d="M259.56,189.057a1.031,1.031,0,1,1-1.031-1.032A1.031,1.031,0,0,1,259.56,189.057Z" fill="#e4e4e6"/><path d="M258.641,189.173a2.583,2.583,0,0,0,.64-.112,2.609,2.609,0,0,0-.64-.111,2.582,2.582,0,0,0-.112-.64,2.584,2.584,0,0,0-.112.64,2.542,2.542,0,0,0-.639.111,2.518,2.518,0,0,0,.639.112,2.533,2.533,0,0,0,.112.64A2.582,2.582,0,0,0,258.641,189.173Z" fill="#b6b6b7"/><rect width="115.145" height="18.493" transform="translate(192.406 190.483)" fill="#f7882d"/><rect width="1.549" height="18.315" transform="translate(306.002 190.661)" fill="#e8dcac"/><rect width="1.549" height="18.315" transform="translate(192.406 190.661)" fill="#fff6d9"/><rect width="0.865" height="177.778" transform="translate(370.877 150.157)" fill="#35a9c9"/><rect width="0.866" height="177.778" transform="translate(377.959 150.157)" fill="#35a9c9"/><line x1="11.075" y2="45.969" transform="translate(364.617 68.76)" fill="none" stroke="#3fb7e0" stroke-miterlimit="10" stroke-width="2.95"/><path d="M385.582,70.643a5.126,5.126,0,1,1-5.126-5.126A5.125,5.125,0,0,1,385.582,70.643Z" fill="none" stroke="#3fb7e0" stroke-miterlimit="10" stroke-width="2.95"/><path d="M383.285,70.643a2.829,2.829,0,1,1-2.829-2.829A2.829,2.829,0,0,1,383.285,70.643Z" fill="#3fb7e0"/><path d="M382,70.643a1.541,1.541,0,1,1-1.541-1.541A1.541,1.541,0,0,1,382,70.643Z" fill="#a9dcdf"/><line y2="44.086" transform="translate(385.582 70.643)" fill="none" stroke="#3fb7e0" stroke-miterlimit="10" stroke-width="2.95"/><rect width="2.162" height="29.734" transform="matrix(0.707, -0.707, 0.707, 0.707, 363.615, 310.26)" fill="#3fb7e0"/><rect width="2.163" height="199.702" transform="translate(362.454 128.305)" fill="#3fb7e0"/><rect width="2.162" height="199.702" transform="translate(385.085 128.305)" fill="#3fb7e0"/><rect width="22.631" height="2.162" transform="translate(363.535 149.777)" fill="#3fb7e0"/><rect width="22.631" height="2.162" transform="translate(363.535 128.305)" fill="#3fb7e0"/><rect width="22.631" height="2.163" transform="translate(363.535 172.408)" fill="#3fb7e0"/><rect width="22.631" height="2.163" transform="translate(363.535 195.039)" fill="#3fb7e0"/><rect width="22.631" height="2.162" transform="translate(363.535 217.67)" fill="#3fb7e0"/><rect width="22.631" height="2.163" transform="translate(363.535 240.3)" fill="#3fb7e0"/><rect width="22.631" height="2.162" transform="translate(363.535 262.932)" fill="#3fb7e0"/><rect width="22.631" height="2.162" transform="translate(363.535 285.563)" fill="#3fb7e0"/><rect width="22.631" height="2.163" transform="translate(363.535 308.192)" fill="#3fb7e0"/><rect width="2.163" height="29.734" transform="translate(363.612 129.834) rotate(-45)" fill="#3fb7e0"/><rect width="2.163" height="29.734" transform="translate(363.614 152.386) rotate(-44.991)" fill="#3fb7e0"/><rect width="2.162" height="29.734" transform="translate(363.614 174.939) rotate(-44.991)" fill="#3fb7e0"/><rect width="2.163" height="29.734" transform="translate(363.612 197.495) rotate(-45)" fill="#3fb7e0"/><rect width="2.162" height="29.734" transform="translate(363.614 220.047) rotate(-44.991)" fill="#3fb7e0"/><rect width="2.163" height="29.734" transform="translate(363.612 242.603) rotate(-45)" fill="#3fb7e0"/><rect width="2.162" height="29.734" transform="translate(363.612 265.157) rotate(-45)" fill="#3fb7e0"/><rect width="2.162" height="29.733" transform="matrix(0.707, -0.707, 0.707, 0.707, 363.615, 287.707)" fill="#3fb7e0"/><path d="M229.5,111.822l-1.534-1.076,21.55-22.631,1.5,2.193Z" fill="#3fb7e0"/><rect width="181.434" height="2.163" transform="translate(249.514 88.115)" fill="#3fb7e0"/><rect width="224.609" height="2.163" transform="translate(227.964 110.747)" fill="#3fb7e0"/><rect width="2.163" height="22.63" transform="translate(407.314 89.197)" fill="#3fb7e0"/><rect width="2.162" height="22.63" transform="translate(428.787 89.197)" fill="#3fb7e0"/><rect width="2.162" height="22.63" transform="translate(384.683 89.197)" fill="#3fb7e0"/><rect width="2.163" height="22.63" transform="translate(362.052 89.197)" fill="#3fb7e0"/><rect width="2.162" height="22.63" transform="translate(339.422 89.197)" fill="#3fb7e0"/><rect width="2.162" height="22.63" transform="translate(316.79 89.197)" fill="#3fb7e0"/><rect width="2.163" height="22.63" transform="translate(294.159 89.197)" fill="#3fb7e0"/><rect width="2.162" height="22.63" transform="translate(271.529 89.197)" fill="#3fb7e0"/><rect width="2.163" height="21.549" transform="translate(248.898 90.278)" fill="#3fb7e0"/><rect width="29.734" height="2.162" transform="translate(408.395 110.299) rotate(-45)" fill="#3fb7e0"/><path d="M452.573,112.909v-2.163l-21.65-22.631-1.528,1.529Z" fill="#3fb7e0"/><rect width="29.734" height="2.162" transform="translate(385.841 110.299) rotate(-45)" fill="#3fb7e0"/><rect width="29.734" height="2.162" transform="translate(363.289 110.301) rotate(-45.009)" fill="#3fb7e0"/><rect width="29.734" height="2.162" transform="matrix(0.707, -0.707, 0.707, 0.707, 340.732, 110.297)" fill="#3fb7e0"/><rect width="29.734" height="2.162" transform="matrix(0.707, -0.707, 0.707, 0.707, 318.181, 110.301)" fill="#3fb7e0"/><rect width="29.734" height="2.162" transform="translate(295.627 110.301) rotate(-45.009)" fill="#3fb7e0"/><rect width="29.734" height="2.162" transform="translate(273.072 110.299) rotate(-45)" fill="#3fb7e0"/><rect width="29.734" height="2.162" transform="translate(250.52 110.301) rotate(-45.009)" fill="#3fb7e0"/><path d="M5.16,0h28.8a5.16,5.16,0,0,1,5.16,5.16V28.143A5.161,5.161,0,0,1,33.958,33.3H5.161A5.161,5.161,0,0,1,0,28.143V5.16A5.16,5.16,0,0,1,5.16,0Z" transform="translate(355.29 327.935)" fill="#939393"/><path d="M394.408,353.282v2.8a5.156,5.156,0,0,1-5.157,5.158h-28.8a5.163,5.163,0,0,1-5.158-5.158v-2.8a5.164,5.164,0,0,0,5.158,5.157h28.8A5.157,5.157,0,0,0,394.408,353.282Z" fill="#828282"/><path d="M355.29,335.893v-2.8a5.158,5.158,0,0,1,5.158-5.158h28.8a5.164,5.164,0,0,1,5.157,5.158v2.8a5.164,5.164,0,0,0-5.157-5.158h-28.8A5.158,5.158,0,0,0,355.29,335.893Z" fill="#a3a3a3"/><rect width="1.622" height="4.325" transform="translate(189.703 277.264)" fill="#e2d7aa"/><rect width="1.622" height="74.24" transform="translate(189.703 282.31)" fill="#e4e4e6"/><rect width="1.622" height="0.722" transform="translate(189.703 281.589)" fill="#e4e4e6"/><rect width="120.552" height="74.962" transform="translate(189.703 281.589)" fill="#fff"/><rect width="1.622" height="74.24" transform="translate(308.633 282.31)" fill="#e4e4e6"/><rect width="1.622" height="74.24" transform="translate(189.703 282.31)" fill="#e4e4e6"/><rect width="109.74" height="69.557" transform="translate(195.109 286.994)" fill="#d1d2d4"/><rect width="107.577" height="68.475" transform="translate(196.191 288.076)" fill="#f7882d"/><rect width="107.577" height="0.633" transform="translate(196.191 351.957)" fill="#db3598"/><rect width="33.517" height="60.096" transform="translate(263.375 296.455)" fill="#a9dcdf"/><rect width="33.517" height="8.56" transform="translate(263.375 347.991)" fill="#87cccc"/><path d="M295.27,298.076v56.853H265V298.076H295.27m1.622-1.621H263.374v60.1h33.518v-60.1Z" fill="#fff"/><path d="M295.27,355.065H265a.136.136,0,0,1-.136-.136V298.076a.135.135,0,0,1,.136-.134H295.27a.135.135,0,0,1,.135.134v56.853A.136.136,0,0,1,295.27,355.065Zm-30.138-.272h30V298.212h-30Z" fill="#79bcbb"/><rect width="57.138" height="42.977" transform="translate(200.516 297.266)" fill="#a9dcdf"/><rect width="57.138" height="13.199" transform="translate(200.516 327.043)" fill="#87cccc"/><path d="M228,298.347v40.814H201.6V298.347H228m.27-.271H201.326v41.356h26.947V298.076Z" fill="#79bcbb"/><path d="M256.571,298.347v40.814H230.165V298.347h26.406m.271-.271H229.9v41.356h26.947V298.076Z" fill="#79bcbb"/><path d="M199.7,296.455v44.6h58.759v-44.6Zm1.622,1.621h26.947v41.356H201.326Zm55.516,41.356H229.9V298.076h26.947Z" fill="#fff"/><rect width="120.552" height="4.325" transform="translate(189.703 277.264)" fill="#ffc550"/><rect width="120.552" height="0.722" transform="translate(189.703 281.589)" fill="#f1f1f2"/><ellipse cx="23.516" cy="13.515" rx="23.516" ry="13.515" transform="translate(226.463 245.91)" fill="#f7882d"/><path d="M304.849,259.425H195.109a5.421,5.421,0,0,0-5.406,5.4v12.434H310.255V264.83A5.421,5.421,0,0,0,304.849,259.425Z" fill="#f7882d"/><path d="M196.731,259.425a5.421,5.421,0,0,0-5.406,5.4v12.434H189.7V264.83a5.421,5.421,0,0,1,5.406-5.4Z" fill="#f7882d"/><path d="M303.227,259.425a5.421,5.421,0,0,1,5.406,5.4v12.434h1.622V264.83a5.421,5.421,0,0,0-5.406-5.4Z" fill="#f7882d"/><path d="M303.768,288.076l1.081-1.082v69.557h-1.081Z" fill="#adafb1"/><path d="M196.191,288.076l-1.082-1.082v69.557h1.082Z" fill="#adafb1"/><g opacity="0.3"><path d="M204.689,309.7a9.348,9.348,0,0,1-4.985,8.271V309.7Z" fill="#a9dcdf"/><path d="M279.657,309.7a9.352,9.352,0,0,1-18.7.109,9.353,9.353,0,0,1-18.705-.109Z" fill="#a9dcdf"/><path d="M242.173,309.7a9.352,9.352,0,0,1-18.672.779,9.352,9.352,0,0,1-18.672-.779Z" fill="#a9dcdf"/></g><path d="M204.689,309.7a9.348,9.348,0,0,1-4.985,8.271V309.7Z" fill="#a9dcdf" opacity="0.3"/><path d="M242.173,309.7a9.352,9.352,0,0,1-18.672.779,9.352,9.352,0,0,1-18.672-.779Z" fill="#a9dcdf" opacity="0.3"/><path d="M258.466,309.7v6.347a9.35,9.35,0,0,1-16.218-6.347Z" fill="#a9dcdf" opacity="0.3"/><path d="M203.083,309.7H184.325q5.969-10.811,11.937-21.623H211.61Q207.345,298.888,203.083,309.7Z" fill="#f7882d"/><path d="M240.6,309.7H221.841q2.558-10.811,5.116-21.623H242.3Q241.453,298.888,240.6,309.7Z" fill="#f7882d"/><path d="M278.117,309.7H259.358q-.852-10.811-1.7-21.623H273Q275.558,298.888,278.117,309.7Z" fill="#f7882d"/><path d="M315.634,309.7H296.875l-8.526-21.623H303.7Z" fill="#f7882d"/><path d="M221.841,309.7H203.083q4.263-10.811,8.527-21.623h15.347Q224.4,298.888,221.841,309.7Z" fill="#fffbce"/><path d="M259.358,309.7H240.6q.852-10.811,1.7-21.623h15.348Q258.505,298.888,259.358,309.7Z" fill="#fffbce"/><path d="M296.875,309.7H278.117q-2.559-10.811-5.116-21.623h15.348Z" fill="#fffbce"/><path d="M193.715,319.056a9.357,9.357,0,0,0,9.357-9.357H184.358A9.357,9.357,0,0,0,193.715,319.056Z" fill="#f7882d"/><path d="M231.2,319.056a9.357,9.357,0,0,0,9.357-9.357H221.841A9.357,9.357,0,0,0,231.2,319.056Z" fill="#f7882d"/><path d="M268.681,319.056a9.357,9.357,0,0,0,9.357-9.357H259.325A9.356,9.356,0,0,0,268.681,319.056Z" fill="#f7882d"/><path d="M306.164,319.056a9.356,9.356,0,0,0,9.356-9.357H296.807A9.357,9.357,0,0,0,306.164,319.056Z" fill="#f7882d"/><path d="M287.394,319.056a9.357,9.357,0,0,0,9.357-9.357H278.038A9.356,9.356,0,0,0,287.394,319.056Z" fill="#fffde9"/><path d="M249.979,319.056a9.357,9.357,0,0,0,9.357-9.357H240.623A9.356,9.356,0,0,0,249.979,319.056Z" fill="#fffde9"/><path d="M212.564,319.056a9.356,9.356,0,0,0,9.356-9.357H203.207A9.357,9.357,0,0,0,212.564,319.056Z" fill="#fffde9"/><path d="M304.492,289.518l-.8-1.442H196.262l-.8,1.442Z" fill="#fff3e1" opacity="0.5"/><rect width="120.552" height="0.72" transform="translate(189.703 276.544)" fill="#f7882d"/><path d="M263.374,352.59v8.649H184.892v-6.562a2.088,2.088,0,0,1,2.087-2.087Z" fill="#92deff"/><path d="M315.066,354.677v6.562H296.892V352.59h16.087A2.088,2.088,0,0,1,315.066,354.677Z" fill="#92deff"/><rect width="1.622" height="4.325" transform="translate(308.633 277.264)" fill="#e2d7aa"/><rect width="1.622" height="0.722" transform="translate(308.633 281.589)" fill="#e4e4e6"/><path d="M296.892,361.239h18.174v-6.562a2.1,2.1,0,0,0-.029-.289H296.892Z" fill="#6ac9ff"/><path d="M184.921,354.388a2.1,2.1,0,0,0-.029.289v6.562h78.482v-6.851Z" fill="#6ac9ff"/><path d="M285.465,327.205l-4.526-6.341-6.216,4.5-.1-.132,6.348-4.591.047.066,4.574,6.407Z" fill="#ede7b4"/><rect width="5.54" height="14.981" transform="matrix(0.169, -0.986, 0.986, 0.169, 271.883, 329.339)" fill="#fffbce"/><path d="M272.2,329.395l-.32-.056.938-5.46.32.054Z" fill="#ede7b4"/><path d="M286.647,331.874l-.32-.054.938-5.462.32.056Z" fill="#ede7b4"/><path d="M281.308,320.928a.374.374,0,1,1-.306-.434A.373.373,0,0,1,281.308,320.928Z" fill="#fffde9"/><rect width="18.174" height="0.904" transform="translate(296.892 360.335)" fill="#57bae5"/><rect width="78.482" height="0.904" transform="translate(184.892 360.335)" fill="#57bae5"/><rect width="33.517" height="4.688" transform="translate(263.375 356.551)" fill="#f7882d"/><rect width="33.517" height="2.345" transform="translate(263.375 356.551)" fill="#f7882d"/><rect width="33.517" height="0.363" transform="translate(263.375 356.551)" fill="#bfbfbf"/><path d="M249.979,270.777c-11.575,0-21.353-5.2-21.353-11.352s9.778-11.353,21.353-11.353,21.353,5.2,21.353,11.353S261.554,270.777,249.979,270.777Z" fill="#fff3e1"/><path d="M271.328,259.43c0,6.152-9.774,11.352-21.354,11.352s-21.353-5.2-21.353-11.352a5.994,5.994,0,0,1,.1-1.081c1.06,5.665,10.369,10.271,21.256,10.271s20.2-4.606,21.256-10.271A6,6,0,0,1,271.328,259.43Z" fill="#fff3e1"/><rect width="4.874" height="28.471" transform="translate(309.556 332.769)" fill="#b6b6b7"/><rect width="0.595" height="28.471" transform="translate(309.556 332.769)" fill="#d3d3d3"/><rect width="0.595" height="28.471" transform="translate(313.835 332.769)" fill="#a0a0a0"/><rect width="4.874" height="28.471" transform="translate(340.817 332.769)" fill="#b6b6b7"/><rect width="0.594" height="28.471" transform="translate(340.817 332.769)" fill="#d3d3d3"/><rect width="0.594" height="28.471" transform="translate(345.097 332.769)" fill="#a0a0a0"/><rect width="40.545" height="4.584" transform="translate(307.351 342.06)" fill="#ffc550"/><path d="M319.666,342.059l-4.584,4.585h-5.666L314,342.059Z" fill="#464646"/><path d="M332.24,342.059l-4.6,4.585h-5.687l4.6-4.585Z" fill="#464646"/><path d="M344.792,342.059l-4.584,4.585h-5.676l4.584-4.585Z" fill="#464646"/><path d="M347.9,342.06v4.584H307.351V342.06H347.9m.269-.271H307.081v5.124h41.084v-5.124Z" fill="#f7882d"/><path d="M311.994,343.4a.946.946,0,1,0,.945.947A.947.947,0,0,0,311.994,343.4Z" fill="#e4e4e6" opacity="0.3"/><path d="M312.86,344.352a.867.867,0,1,1-.866-.868A.867.867,0,0,1,312.86,344.352Z" fill="#fc9e15"/><path d="M312.678,344.352a.685.685,0,1,1-.684-.685A.686.686,0,0,1,312.678,344.352Z" fill="#e4e4e6"/><path d="M312.067,344.428a1.707,1.707,0,0,0,.425-.074,1.761,1.761,0,0,0-.425-.074,1.728,1.728,0,0,0-.073-.424,1.631,1.631,0,0,0-.075.424,1.759,1.759,0,0,0-.424.074,1.733,1.733,0,0,0,.424.075,1.631,1.631,0,0,0,.075.424A1.73,1.73,0,0,0,312.067,344.428Z" fill="#b6b6b7"/><path d="M343.254,343.4a.946.946,0,1,0,.946.947A.946.946,0,0,0,343.254,343.4Z" fill="#e4e4e6" opacity="0.3"/><path d="M344.121,344.352a.867.867,0,1,1-.867-.868A.868.868,0,0,1,344.121,344.352Z" fill="#fc9e15"/><path d="M343.938,344.352a.684.684,0,1,1-.684-.685A.685.685,0,0,1,343.938,344.352Z" fill="#e4e4e6"/><path d="M343.328,344.428a1.705,1.705,0,0,0,.424-.074,1.759,1.759,0,0,0-.424-.074,1.7,1.7,0,0,0-.074-.424,1.654,1.654,0,0,0-.074.424,1.761,1.761,0,0,0-.425.074,1.734,1.734,0,0,0,.425.075,1.654,1.654,0,0,0,.074.424A1.706,1.706,0,0,0,343.328,344.428Z" fill="#b6b6b7"/><rect width="40.545" height="4.584" transform="translate(307.351 332.769)" fill="#ffc550"/><path d="M319.666,332.769l-4.584,4.584h-5.666L314,332.769Z" fill="#464646"/><path d="M332.24,332.769l-4.6,4.584h-5.687l4.6-4.584Z" fill="#464646"/><path d="M344.792,332.769l-4.584,4.584h-5.676l4.584-4.584Z" fill="#464646"/><path d="M347.9,332.769v4.584H307.351v-4.584H347.9m.269-.271H307.081v5.125h41.084V332.5Z" fill="#f7882d"/><path d="M311.994,334.114a.946.946,0,1,0,.945.946A.946.946,0,0,0,311.994,334.114Z" fill="#e4e4e6" opacity="0.3"/><path d="M312.86,335.06a.867.867,0,1,1-.866-.867A.867.867,0,0,1,312.86,335.06Z" fill="#fc9e15"/><path d="M312.678,335.06a.685.685,0,1,1-.684-.684A.684.684,0,0,1,312.678,335.06Z" fill="#e4e4e6"/><path d="M312.067,335.138a1.819,1.819,0,0,0,.425-.074,1.631,1.631,0,0,0-.425-.075,1.728,1.728,0,0,0-.073-.424.376.376,0,0,1-.5.5,1.818,1.818,0,0,0,.424.074,1.618,1.618,0,0,0,.075.423A1.726,1.726,0,0,0,312.067,335.138Z" fill="#b6b6b7"/><path d="M343.254,334.114a.946.946,0,1,0,.946.946A.945.945,0,0,0,343.254,334.114Z" fill="#e4e4e6" opacity="0.3"/><path d="M344.121,335.06a.867.867,0,1,1-.867-.867A.868.868,0,0,1,344.121,335.06Z" fill="#fc9e15"/><path d="M343.938,335.06a.684.684,0,1,1-.684-.684A.683.683,0,0,1,343.938,335.06Z" fill="#e4e4e6"/><path d="M343.328,335.138a1.818,1.818,0,0,0,.424-.074,1.629,1.629,0,0,0-.424-.075,1.7,1.7,0,0,0-.074-.424,1.654,1.654,0,0,0-.074.424,1.631,1.631,0,0,0-.425.075,1.819,1.819,0,0,0,.425.074,1.64,1.64,0,0,0,.074.423A1.7,1.7,0,0,0,343.328,335.138Z" fill="#b6b6b7"/><rect width="2.13" height="4.708" transform="translate(342.189 327.79)" fill="#b6b6b7"/><rect width="0.634" height="4.708" transform="translate(342.62 327.79)" fill="#d3d3d3"/><path d="M342.189,330.3a2.722,2.722,0,0,0,2.13,0V327.79h-2.13Z" fill="#b6b6b7" opacity="0.3"/><path d="M345.691,327.79a2.437,2.437,0,1,1-2.437-2.437A2.437,2.437,0,0,1,345.691,327.79Z" fill="#b6b6b7"/><path d="M345.1,327.79a1.843,1.843,0,1,1-1.843-1.842A1.843,1.843,0,0,1,345.1,327.79Z" fill="#f7882d"/><path d="M345.1,327.788a1.844,1.844,0,1,1-3.688,0,.658.658,0,0,1,.011-.152,1.838,1.838,0,0,0,3.665,0A.605.605,0,0,1,345.1,327.788Z" fill="#fdc611"/><path d="M341.935,328.007a.217.217,0,0,1-.216-.217,1.536,1.536,0,0,1,1.534-1.535.216.216,0,1,1,0,.433,1.1,1.1,0,0,0-1.1,1.1A.217.217,0,0,1,341.935,328.007Z" fill="#f97216"/><rect width="2.13" height="4.708" transform="translate(310.928 327.79)" fill="#b6b6b7"/><rect width="0.635" height="4.708" transform="translate(311.359 327.79)" fill="#d3d3d3"/><path d="M310.928,330.3a2.722,2.722,0,0,0,2.13,0V327.79h-2.13Z" fill="#b6b6b7" opacity="0.3"/><path d="M314.43,327.79a2.437,2.437,0,1,1-2.436-2.437A2.437,2.437,0,0,1,314.43,327.79Z" fill="#b6b6b7"/><path d="M313.835,327.79a1.842,1.842,0,1,1-1.841-1.842A1.842,1.842,0,0,1,313.835,327.79Z" fill="#f7882d"/><path d="M313.835,327.788a1.843,1.843,0,1,1-3.687,0,.66.66,0,0,1,.011-.152,1.838,1.838,0,0,0,3.665,0A.66.66,0,0,1,313.835,327.788Z" fill="#fdc611"/><path d="M310.675,328.007a.217.217,0,0,1-.217-.217,1.536,1.536,0,0,1,1.535-1.535.216.216,0,0,1,0,.433,1.1,1.1,0,0,0-1.1,1.1A.217.217,0,0,1,310.675,328.007Z" fill="#f97216"/><g transform="translate(-196)"><rect width="4.874" height="28.471" transform="translate(309.556 332.769)" fill="#b6b6b7"/><rect width="0.595" height="28.471" transform="translate(309.556 332.769)" fill="#d3d3d3"/><rect width="0.595" height="28.471" transform="translate(313.835 332.769)" fill="#a0a0a0"/><rect width="4.874" height="28.471" transform="translate(340.817 332.769)" fill="#b6b6b7"/><rect width="0.594" height="28.471" transform="translate(340.817 332.769)" fill="#d3d3d3"/><rect width="0.594" height="28.471" transform="translate(345.097 332.769)" fill="#a0a0a0"/><rect width="40.545" height="4.584" transform="translate(307.351 342.06)" fill="#ffc550"/><path d="M319.666,342.059l-4.584,4.585h-5.666L314,342.059Z" fill="#464646"/><path d="M332.24,342.059l-4.6,4.585h-5.687l4.6-4.585Z" fill="#464646"/><path d="M344.792,342.059l-4.584,4.585h-5.676l4.584-4.585Z" fill="#464646"/><path d="M347.9,342.06v4.584H307.351V342.06H347.9m.269-.271H307.081v5.124h41.084v-5.124Z" fill="#f7882d"/><path d="M311.994,343.4a.946.946,0,1,0,.945.947A.947.947,0,0,0,311.994,343.4Z" fill="#e4e4e6" opacity="0.3"/><path d="M312.86,344.352a.867.867,0,1,1-.866-.868A.867.867,0,0,1,312.86,344.352Z" fill="#fc9e15"/><path d="M312.678,344.352a.685.685,0,1,1-.684-.685A.686.686,0,0,1,312.678,344.352Z" fill="#e4e4e6"/><path d="M312.067,344.428a1.707,1.707,0,0,0,.425-.074,1.761,1.761,0,0,0-.425-.074,1.728,1.728,0,0,0-.073-.424,1.631,1.631,0,0,0-.075.424,1.759,1.759,0,0,0-.424.074,1.733,1.733,0,0,0,.424.075,1.631,1.631,0,0,0,.075.424A1.73,1.73,0,0,0,312.067,344.428Z" fill="#b6b6b7"/><path d="M343.254,343.4a.946.946,0,1,0,.946.947A.946.946,0,0,0,343.254,343.4Z" fill="#e4e4e6" opacity="0.3"/><path d="M344.121,344.352a.867.867,0,1,1-.867-.868A.868.868,0,0,1,344.121,344.352Z" fill="#fc9e15"/><path d="M343.938,344.352a.684.684,0,1,1-.684-.685A.685.685,0,0,1,343.938,344.352Z" fill="#e4e4e6"/><path d="M343.328,344.428a1.705,1.705,0,0,0,.424-.074,1.759,1.759,0,0,0-.424-.074,1.7,1.7,0,0,0-.074-.424,1.654,1.654,0,0,0-.074.424,1.761,1.761,0,0,0-.425.074,1.734,1.734,0,0,0,.425.075,1.654,1.654,0,0,0,.074.424A1.706,1.706,0,0,0,343.328,344.428Z" fill="#b6b6b7"/><rect width="40.545" height="4.584" transform="translate(307.351 332.769)" fill="#ffc550"/><path d="M319.666,332.769l-4.584,4.584h-5.666L314,332.769Z" fill="#464646"/><path d="M332.24,332.769l-4.6,4.584h-5.687l4.6-4.584Z" fill="#464646"/><path d="M344.792,332.769l-4.584,4.584h-5.676l4.584-4.584Z" fill="#464646"/><path d="M347.9,332.769v4.584H307.351v-4.584H347.9m.269-.271H307.081v5.125h41.084V332.5Z" fill="#f7882d"/><path d="M311.994,334.114a.946.946,0,1,0,.945.946A.946.946,0,0,0,311.994,334.114Z" fill="#e4e4e6" opacity="0.3"/><path d="M312.86,335.06a.867.867,0,1,1-.866-.867A.867.867,0,0,1,312.86,335.06Z" fill="#fc9e15"/><path d="M312.678,335.06a.685.685,0,1,1-.684-.684A.684.684,0,0,1,312.678,335.06Z" fill="#e4e4e6"/><path d="M312.067,335.138a1.819,1.819,0,0,0,.425-.074,1.631,1.631,0,0,0-.425-.075,1.728,1.728,0,0,0-.073-.424.376.376,0,0,1-.5.5,1.818,1.818,0,0,0,.424.074,1.618,1.618,0,0,0,.075.423A1.726,1.726,0,0,0,312.067,335.138Z" fill="#b6b6b7"/><path d="M343.254,334.114a.946.946,0,1,0,.946.946A.945.945,0,0,0,343.254,334.114Z" fill="#e4e4e6" opacity="0.3"/><path d="M344.121,335.06a.867.867,0,1,1-.867-.867A.868.868,0,0,1,344.121,335.06Z" fill="#fc9e15"/><path d="M343.938,335.06a.684.684,0,1,1-.684-.684A.683.683,0,0,1,343.938,335.06Z" fill="#e4e4e6"/><path d="M343.328,335.138a1.818,1.818,0,0,0,.424-.074,1.629,1.629,0,0,0-.424-.075,1.7,1.7,0,0,0-.074-.424,1.654,1.654,0,0,0-.074.424,1.631,1.631,0,0,0-.425.075,1.819,1.819,0,0,0,.425.074,1.64,1.64,0,0,0,.074.423A1.7,1.7,0,0,0,343.328,335.138Z" fill="#b6b6b7"/><rect width="2.13" height="4.708" transform="translate(342.189 327.79)" fill="#b6b6b7"/><rect width="0.634" height="4.708" transform="translate(342.62 327.79)" fill="#d3d3d3"/><path d="M342.189,330.3a2.722,2.722,0,0,0,2.13,0V327.79h-2.13Z" fill="#b6b6b7" opacity="0.3"/><path d="M345.691,327.79a2.437,2.437,0,1,1-2.437-2.437A2.437,2.437,0,0,1,345.691,327.79Z" fill="#b6b6b7"/><path d="M345.1,327.79a1.843,1.843,0,1,1-1.843-1.842A1.843,1.843,0,0,1,345.1,327.79Z" fill="#f7882d"/><path d="M345.1,327.788a1.844,1.844,0,1,1-3.688,0,.658.658,0,0,1,.011-.152,1.838,1.838,0,0,0,3.665,0A.605.605,0,0,1,345.1,327.788Z" fill="#fdc611"/><path d="M341.935,328.007a.217.217,0,0,1-.216-.217,1.536,1.536,0,0,1,1.534-1.535.216.216,0,1,1,0,.433,1.1,1.1,0,0,0-1.1,1.1A.217.217,0,0,1,341.935,328.007Z" fill="#f97216"/><rect width="2.13" height="4.708" transform="translate(310.928 327.79)" fill="#b6b6b7"/><rect width="0.635" height="4.708" transform="translate(311.359 327.79)" fill="#d3d3d3"/><path d="M310.928,330.3a2.722,2.722,0,0,0,2.13,0V327.79h-2.13Z" fill="#b6b6b7" opacity="0.3"/><path d="M314.43,327.79a2.437,2.437,0,1,1-2.436-2.437A2.437,2.437,0,0,1,314.43,327.79Z" fill="#b6b6b7"/><path d="M313.835,327.79a1.842,1.842,0,1,1-1.841-1.842A1.842,1.842,0,0,1,313.835,327.79Z" fill="#f7882d"/><path d="M313.835,327.788a1.843,1.843,0,1,1-3.687,0,.66.66,0,0,1,.011-.152,1.838,1.838,0,0,0,3.665,0A.66.66,0,0,1,313.835,327.788Z" fill="#fdc611"/><path d="M310.675,328.007a.217.217,0,0,1-.217-.217,1.536,1.536,0,0,1,1.535-1.535.216.216,0,0,1,0,.433,1.1,1.1,0,0,0-1.1,1.1A.217.217,0,0,1,310.675,328.007Z" fill="#f97216"/></g><path d="M357.518,350.541v-.012c-.032-.15-.13-.162-.173-.162h-2.411c-.043,0-.14.012-.173.162v.012l-1.73,10.012h6.217Z" fill="#f97216"/><path d="M356.619,350.541v-.012c-.012-.15-.045-.162-.06-.162h-.839c-.014,0-.049.012-.06.162v.012l-.6,10.012h2.162Z" fill="#f97821"/><path d="M356.319,350.541v-.012c0-.15-.017-.162-.022-.162h-.315c-.005,0-.018.012-.022.162v.012l-.226,10.012h.811Z" fill="#fc7f2b"/><path d="M355.29,350.367c-.042,0-.14.012-.172.162v.012l-1.73,10.012h-.357l1.73-10.012v-.012c.033-.15.13-.162.173-.162h.356Z" fill="#ff822e"/><path d="M356.988,350.367c.044,0,.141.012.173.162v.012l1.731,10.012h.356l-1.73-10.012v-.012c-.032-.15-.13-.162-.173-.162h-.357Z" fill="#ef6d14"/><path d="M358.978,358.974H353.3l.151-.854h5.374Z" fill="#e4e4e6"/><path d="M358.772,357.795h-5.265l.119-.67h5.028Z" fill="#e4e4e6"/><path d="M358.978,358.974H353.3l.151-.854h5.374Z" fill="#e4e4e6"/><path d="M358.772,357.795h-5.265l.119-.67h5.028Z" fill="#e4e4e6"/><path d="M353.81,358.12l-.151.854H353.3l.151-.854Z" fill="#f4f4f4"/><path d="M353.982,357.125l-.119.67h-.357l.119-.67Z" fill="#f4f4f4"/><path d="M358.772,357.795h-.357l-.119-.67h.356Z" fill="#d6d6d8"/><path d="M358.978,358.974h-.357l-.151-.854h.357Z" fill="#d6d6d8"/><path d="M360.138,359.864h-8a.423.423,0,0,0-.422.423v.952h8.841v-.952A.423.423,0,0,0,360.138,359.864Z" fill="#f97216"/><path d="M360.554,360.228h-8.829a.585.585,0,0,0-.006.059v.952h8.841v-.952A.39.39,0,0,0,360.554,360.228Z" fill="#e06410"/><rect width="8.841" height="0.183" transform="translate(351.719 361.057)" fill="#c1560e"/><path d="M353.15,359.864h5.979l-.032-.187h-5.914Z" fill="#c1560e" opacity="0.3"/><path d="M134.322,350.541v-.012c-.032-.15-.13-.162-.173-.162h-2.411c-.043,0-.14.012-.173.162v.012l-1.73,10.012h6.217Z" fill="#f97216"/><path d="M133.423,350.541v-.012c-.011-.15-.045-.162-.06-.162h-.839c-.015,0-.049.012-.06.162v.012l-.6,10.012h2.162Z" fill="#f97821"/><path d="M133.123,350.541v-.012c0-.15-.017-.162-.022-.162h-.315c-.006,0-.018.012-.022.162v.012l-.226,10.012h.811Z" fill="#fc7f2b"/><path d="M132.1,350.367c-.043,0-.141.012-.174.162v.012l-1.729,10.012h-.357l1.73-10.012v-.012c.033-.15.13-.162.173-.162h.357Z" fill="#ff822e"/><path d="M133.792,350.367c.043,0,.141.012.173.162v.012l1.73,10.012h.357l-1.73-10.012v-.012c-.032-.15-.13-.162-.173-.162h-.357Z" fill="#ef6d14"/><path d="M135.782,358.974h-5.676l.151-.854h5.374Z" fill="#e4e4e6"/><path d="M135.576,357.795h-5.266l.119-.67h5.027Z" fill="#e4e4e6"/><path d="M135.782,358.974h-5.676l.151-.854h5.374Z" fill="#e4e4e6"/><path d="M135.576,357.795h-5.266l.119-.67h5.027Z" fill="#e4e4e6"/><path d="M130.614,358.12l-.151.854h-.357l.151-.854Z" fill="#f4f4f4"/><path d="M130.787,357.125l-.119.67h-.357l.119-.67Z" fill="#f4f4f4"/><path d="M135.576,357.795h-.357l-.119-.67h.356Z" fill="#d6d6d8"/><path d="M135.782,358.974h-.357l-.151-.854h.356Z" fill="#d6d6d8"/><path d="M136.942,359.864h-8a.423.423,0,0,0-.422.423v.952h8.841v-.952A.423.423,0,0,0,136.942,359.864Z" fill="#f97216"/><path d="M137.358,360.228h-8.829a.392.392,0,0,0-.006.059v.952h8.841v-.952A.59.59,0,0,0,137.358,360.228Z" fill="#e06410"/><rect width="8.84" height="0.183" transform="translate(128.523 361.057)" fill="#c1560e"/><path d="M129.954,359.864h5.979l-.032-.187h-5.914Z" fill="#c1560e" opacity="0.3"/><path d="M376.229,350.541v-.012c-.032-.15-.13-.162-.173-.162h-2.411c-.043,0-.14.012-.173.162v.012l-1.73,10.012h6.217Z" fill="#f97216"/><path d="M375.33,350.541v-.012c-.012-.15-.045-.162-.06-.162h-.839c-.015,0-.049.012-.06.162v.012l-.6,10.012h2.163Z" fill="#f97821"/><path d="M375.03,350.541v-.012c0-.15-.017-.162-.022-.162h-.315c-.006,0-.018.012-.023.162v.012l-.225,10.012h.811Z" fill="#fc7f2b"/><path d="M374,350.367c-.043,0-.141.012-.173.162v.012l-1.73,10.012h-.357l1.73-10.012v-.012c.033-.15.13-.162.173-.162H374Z" fill="#ff822e"/><path d="M375.7,350.367c.044,0,.141.012.173.162v.012l1.73,10.012h.357l-1.73-10.012v-.012c-.032-.15-.13-.162-.173-.162H375.7Z" fill="#ef6d14"/><path d="M377.689,358.974h-5.676l.151-.854h5.373Z" fill="#e4e4e6"/><path d="M377.483,357.795h-5.265l.119-.67h5.028Z" fill="#e4e4e6"/><path d="M377.689,358.974h-5.676l.151-.854h5.373Z" fill="#e4e4e6"/><path d="M377.483,357.795h-5.265l.119-.67h5.028Z" fill="#e4e4e6"/><path d="M372.521,358.12l-.151.854h-.357l.151-.854Z" fill="#f4f4f4"/><path d="M372.694,357.125l-.119.67h-.357l.119-.67Z" fill="#f4f4f4"/><path d="M377.483,357.795h-.356l-.119-.67h.357Z" fill="#d6d6d8"/><path d="M377.689,358.974h-.357l-.151-.854h.356Z" fill="#d6d6d8"/><path d="M378.849,359.864h-8a.423.423,0,0,0-.421.423v.952h8.84v-.952A.423.423,0,0,0,378.849,359.864Z" fill="#f97216"/><path d="M379.265,360.228h-8.829a.583.583,0,0,0-.005.059v.952h8.84v-.952A.394.394,0,0,0,379.265,360.228Z" fill="#e06410"/><rect width="8.84" height="0.183" transform="translate(370.431 361.057)" fill="#c1560e"/><path d="M371.861,359.864h5.979l-.032-.187h-5.914Z" fill="#c1560e" opacity="0.3"/><path d="M395.787,350.541v-.012c-.033-.15-.131-.162-.173-.162H393.2c-.043,0-.141.012-.173.162v.012l-1.73,10.012h6.217Z" fill="#f97216"/><path d="M394.887,350.541v-.012c-.011-.15-.045-.162-.06-.162h-.839c-.014,0-.049.012-.059.162v.012l-.6,10.012h2.162Z" fill="#f97821"/><path d="M394.588,350.541v-.012c-.005-.15-.017-.162-.023-.162h-.314c-.006,0-.019.012-.023.162v.012L394,360.553h.811Z" fill="#fc7f2b"/><path d="M393.559,350.367c-.043,0-.141.012-.173.162v.012l-1.73,10.012H391.3l1.73-10.012v-.012c.032-.15.13-.162.173-.162h.357Z" fill="#ff822e"/><path d="M395.256,350.367c.044,0,.141.012.174.162v.012l1.729,10.012h.357l-1.729-10.012v-.012c-.033-.15-.131-.162-.173-.162h-.358Z" fill="#ef6d14"/><path d="M397.246,358.974H391.57l.151-.854h5.374Z" fill="#e4e4e6"/><path d="M397.04,357.795h-5.265l.119-.67h5.028Z" fill="#e4e4e6"/><path d="M397.246,358.974H391.57l.151-.854h5.374Z" fill="#e4e4e6"/><path d="M397.04,357.795h-5.265l.119-.67h5.028Z" fill="#e4e4e6"/><path d="M392.078,358.12l-.152.854h-.357l.151-.854Z" fill="#f4f4f4"/><path d="M392.251,357.125l-.119.67h-.357l.119-.67Z" fill="#f4f4f4"/><path d="M397.04,357.795h-.356l-.12-.67h.357Z" fill="#d6d6d8"/><path d="M397.246,358.974h-.356l-.151-.854h.356Z" fill="#d6d6d8"/><path d="M398.407,359.864h-8a.423.423,0,0,0-.422.423v.952h8.84v-.952A.423.423,0,0,0,398.407,359.864Z" fill="#f97216"/><path d="M398.822,360.228h-8.828a.394.394,0,0,0-.006.059v.952h8.84v-.952A.39.39,0,0,0,398.822,360.228Z" fill="#e06410"/><rect width="8.84" height="0.183" transform="translate(389.988 361.057)" fill="#c1560e"/><path d="M391.418,359.864H397.4l-.032-.187h-5.914Z" fill="#c1560e" opacity="0.3"/><path d="M5.148,0h32.22a5.149,5.149,0,0,1,5.149,5.149V33.881a5.148,5.148,0,0,1-5.148,5.148H5.149A5.149,5.149,0,0,1,0,33.88V5.148A5.148,5.148,0,0,1,5.148,0Z" transform="translate(353.817 112.91)" fill="#6ac9ff"/><path d="M5.148,0h32.22a5.149,5.149,0,0,1,5.149,5.149V33.881a5.148,5.148,0,0,1-5.148,5.148H5.149A5.149,5.149,0,0,1,0,33.88V5.148A5.148,5.148,0,0,1,5.148,0Z" transform="translate(353.817 112.91)" fill="#6ac9ff"/><path d="M396.337,118.056v28.737a5.145,5.145,0,0,1-5.147,5.147H375.078a5.146,5.146,0,0,0,5.146-5.147V118.056a5.146,5.146,0,0,0-5.146-5.147H391.19A5.145,5.145,0,0,1,396.337,118.056Z" fill="#56c4f4"/><path d="M361.756,151.94h-2.794a5.145,5.145,0,0,1-5.145-5.146V118.058a5.151,5.151,0,0,1,5.145-5.145h2.794a5.152,5.152,0,0,0-5.146,5.145v28.736A5.145,5.145,0,0,0,361.756,151.94Z" fill="#78dcff"/><rect width="33.51" height="20.001" transform="translate(353.817 121.757)" fill="#a9dcdf"/><rect width="8.05" height="20.001" transform="translate(380.224 121.757)" fill="#6dd0f2"/><rect width="34.457" height="4.685" transform="translate(353.817 137.073)" fill="#87cccc"/><rect width="2.793" height="4.685" transform="translate(353.817 137.073)" fill="#99d6d4"/><rect width="8.05" height="4.685" transform="translate(380.224 137.073)" fill="#7ec1bf"/><rect width="2.793" height="15.316" transform="translate(353.817 121.757)" fill="#c1eaea"/><path d="M388,122.3v18.921H354.358V122.3H388m.54-.54H353.817v20h34.726v-20Z" fill="#a9dcdf"/><path d="M2.818,0H18.539a2.817,2.817,0,0,1,2.817,2.817V15.364a2.818,2.818,0,0,1-2.818,2.818H2.817A2.817,2.817,0,0,1,0,15.365V2.818A2.818,2.818,0,0,1,2.818,0Z" transform="translate(405.957 94.727)" fill="#56c4f4"/><path d="M427.313,108.565v1.529a2.815,2.815,0,0,1-2.815,2.815H408.773a2.819,2.819,0,0,1-2.816-2.815v-1.529a2.819,2.819,0,0,0,2.816,2.815H424.5A2.815,2.815,0,0,0,427.313,108.565Z" fill="#3fb7e0"/><path d="M405.957,99.072v-1.53a2.815,2.815,0,0,1,2.816-2.815H424.5a2.819,2.819,0,0,1,2.815,2.815v1.53a2.819,2.819,0,0,0-2.815-2.816H408.773A2.815,2.815,0,0,0,405.957,99.072Z" fill="#78dcff"/><path d="M1.717,0H17.79a1.718,1.718,0,0,1,1.718,1.718v7.65a1.717,1.717,0,0,1-1.717,1.717H1.717A1.717,1.717,0,0,1,0,9.368V1.717A1.717,1.717,0,0,1,1.717,0Z" transform="translate(240.741 107.371)" fill="#56c4f4"/><path d="M260.248,115.807v.932a1.717,1.717,0,0,1-1.717,1.717H242.457a1.719,1.719,0,0,1-1.716-1.717v-.932a1.718,1.718,0,0,0,1.716,1.716h16.074A1.716,1.716,0,0,0,260.248,115.807Z" fill="#3fb7e0"/><path d="M240.741,110.019v-.932a1.716,1.716,0,0,1,1.716-1.716h16.074a1.719,1.719,0,0,1,1.717,1.716v.932a1.72,1.72,0,0,0-1.717-1.717H242.457A1.717,1.717,0,0,0,240.741,110.019Z" fill="#78dcff"/><line y2="67.033" transform="translate(249.979 114.729)" fill="none" stroke="#56c4f4" stroke-miterlimit="10" stroke-width="1.18"/><path d="M248.685,184.875l-4.942,3.735.721,7.388-3.778.9-1.808-8.469,8.153-8.074Z" fill="#56c4f4"/><path d="M239.822,188.429l1.762,8.249-.9.216-1.806-8.466,8.152-8.077.249.682Z" fill="#62d2f9"/><path d="M253.128,178.613a4.453,4.453,0,1,1-6.3,0A4.454,4.454,0,0,1,253.128,178.613Z" fill="#92deff"/><path d="M253.128,178.613a4.454,4.454,0,0,0-6.3,0l6.3,6.3A4.454,4.454,0,0,0,253.128,178.613Z" fill="#75d5ef"/><path d="M253.8,181.762a3.823,3.823,0,1,1-3.823-3.822A3.823,3.823,0,0,1,253.8,181.762Z" fill="#a4e7ff"/><path d="M246.967,182.032a.269.269,0,0,1-.27-.27,3.286,3.286,0,0,1,3.282-3.282.27.27,0,0,1,0,.54,2.746,2.746,0,0,0-2.742,2.742A.27.27,0,0,1,246.967,182.032Z" fill="#c2f2ff"/><path d="M241.248,187.63a1.426,1.426,0,1,0,1.425,1.427A1.426,1.426,0,0,0,241.248,187.63Z" fill="#e4e4e6" opacity="0.3"/><path d="M242.553,189.057a1.306,1.306,0,1,1-1.3-1.306A1.306,1.306,0,0,1,242.553,189.057Z" fill="#92deff"/><path d="M242.279,189.057a1.032,1.032,0,1,1-1.031-1.032A1.032,1.032,0,0,1,242.279,189.057Z" fill="#e4e4e6"/><path d="M241.359,189.173a2.569,2.569,0,0,0,.639-.112,2.6,2.6,0,0,0-.639-.111,2.555,2.555,0,0,0-.111-.64,2.53,2.53,0,0,0-.112.64,2.556,2.556,0,0,0-.64.111,2.531,2.531,0,0,0,.64.112,2.53,2.53,0,0,0,.112.64A2.555,2.555,0,0,0,241.359,189.173Z" fill="#b6b6b7"/><path d="M459.522,361.1H40.478A2.479,2.479,0,0,0,38,363.579v7.792H462v-7.792A2.479,2.479,0,0,0,459.522,361.1Z" fill="#92deff"/><path d="M461.965,363.237H38.035a2.417,2.417,0,0,0-.035.342v7.792H462v-7.792A2.418,2.418,0,0,0,461.965,363.237Z" fill="#6ac9ff"/><rect width="424" height="1.074" transform="translate(38 370.297)" fill="#57bae5"/></g></svg>