<svg xmlns="http://www.w3.org/2000/svg" width="142.672" height="142.672" viewBox="0 0 142.672 142.672"><path d="M142.672,71.336A71.336,71.336,0,1,1,71.336,0,71.335,71.335,0,0,1,142.672,71.336Zm0,0" fill="#fff3e1"/><path d="M185.469,405.531h39.306V423H185.469Zm0,0" transform="translate(-133.787 -292.528)" fill="#6c6b6b"/><path d="M154.356,61.61v77.575a71.334,71.334,0,0,1-9.946,14.993,11.614,11.614,0,0,1-1.383.084H37.724a11.614,11.614,0,0,1-1.383-.084,71.206,71.206,0,0,1-9.946-14.993V61.61A11.329,11.329,0,0,1,37.724,50.281h105.3A11.329,11.329,0,0,1,154.356,61.61Zm0,0" transform="translate(-19.04 -36.27)" fill="#464646"/><path d="M163.608,76.685v71.132a5.513,5.513,0,0,1-5.506,5.506H52.8a5.51,5.51,0,0,1-5.506-5.506V76.685A5.51,5.51,0,0,1,52.8,71.18H158.1A5.513,5.513,0,0,1,163.608,76.685Zm0,0" transform="translate(-34.114 -51.345)" fill="#fff3e1"/><path d="M204.205,460.057c0,.186-.007.369-.021.553a71.476,71.476,0,0,1-65.161,0c-.014-.183-.02-.367-.02-.55a8.41,8.41,0,0,1,8.409-8.409H195.8A8.409,8.409,0,0,1,204.205,460.057Zm0,0" transform="translate(-100.27 -325.794)" fill="#464646"/><g transform="translate(21.951 26.85)"><path d="M111.264,101.732c0-2.6,2.971-3.713,6.034-3.713,2.971,0,6.035,1.114,6.035,3.713v43.445c0,15.5-9.84,21.258-22.279,21.258-12.532,0-22.279-5.756-22.279-21.258V101.732c0-2.6,2.971-3.713,6.034-3.713,2.971,0,6.035,1.114,6.035,3.713v43.445c0,7.241,3.806,10.675,10.211,10.675s10.211-3.434,10.211-10.675Zm0,0" transform="translate(-78.773 -97.556)" fill="#f7882d"/><path d="M280.117,139.336l-13.553,23.857a3.861,3.861,0,0,1-3.342,1.95c-3.249,0-7.891-2.692-7.891-6.034a4.846,4.846,0,0,1,.742-2.228l16.06-26.178-15.5-26.085a5.018,5.018,0,0,1-.836-2.6c0-3.249,4.27-5.662,7.705-5.662a4.377,4.377,0,0,1,3.992,2.6L280.117,121.7l12.626-22.743a4.508,4.508,0,0,1,4.084-2.6c3.435,0,7.705,2.413,7.705,5.662a5.021,5.021,0,0,1-.836,2.6l-15.5,26.085,16.06,26.178a4.6,4.6,0,0,1,.65,2.228c0,3.342-4.549,6.034-7.891,6.034a3.6,3.6,0,0,1-3.249-1.95Zm0,0" transform="translate(-206.133 -96.355)" fill="#f7882d"/></g></svg>