<svg xmlns="http://www.w3.org/2000/svg" width="125.703" height="105.854" viewBox="0 0 125.703 105.854"><path d="M120.5,39.48c-3.043-3.28-7.449-5.027-13.093-5.192-15.935-.514-27.205,7.964-33.5,25.194a2.563,2.563,0,0,0,3.078,3.352,20.15,20.15,0,0,1,5.333-.75c2.322,0,5.413.427,6.951,2.461,1.181,1.561,1.342,3.9.478,6.957-.729,2.577-4.482,9.477-9.128,16.778-5.659,8.9-8.785,12.883-9.687,12.883-2.986,0-13.776-47.845-14.073-48.894C53.768,41.3,52.214,35.8,42.15,35.8c-7.67,0-24.778,14.007-38.825,26.21-.864.75-1.592,1.383-2.155,1.864A3.338,3.338,0,0,0,.7,68.463l2.618,3.372a3.336,3.336,0,0,0,4.58.675l.144-.1c4.545-3.233,8.838-6.287,12.079-6.454,3.522-.173,6.578,5.329,10.221,18.422,6.939,25.43,17.48,55.744,28.3,55.744,11.306,0,24.794-9.584,42.228-32.273,15.78-20.535,24.229-36.822,24.772-48.671h0C126.052,50.226,124.321,43.6,120.5,39.48Z" transform="translate(0 -34.266)" fill="#457bf4"/></svg>