<svg xmlns="http://www.w3.org/2000/svg" xmlns:xlink="http://www.w3.org/1999/xlink" width="816" height="852.704" viewBox="0 0 816 852.704"><defs><clipPath id="b"><rect width="816" height="852.704"/></clipPath></defs><g id="a" clip-path="url(#b)"><rect width="816" height="852.704" fill="#fff"/><g transform="translate(-584)"><g transform="translate(-58 -68)"><g transform="translate(117.856 68.438)"><g transform="translate(24.863 -38.532)"><path d="M1086.449,902.621c-.431-13.164-1.234-64.184-1.076-117.562.052-17.576-.589-35.776,0-52.667,1.653-47.432,0-151.69,0-151.69l-.454-95.494V380.3s2.815-255.359-.417-258c-2.633-2.155-4.985-1.12-7.484-1.4-3.771-.437-8.518-.55-22.06,0-22.625.919-69.454-2.038-162.926.953-15.468.495-79.636-.737-152.333-.542-113.73.306-247.562.409-247.562.409H339.2s-6.723.448-21.783-1.418c-6.24-.773,7.631.379,0,0-6.38-.317,10.576-.1,0,1.418-3.4.487-40.982-1.272-41.849,0-13.225,19.412-1.994,92.173,0,108.619,9.3,76.717-18.622,221.058,53.893,266.047,56.5,35.055,167.231-61.467,239.362-20.943,29.376,16.5,34.488,53.4,18.333,121.49-56.782,63.766-54.044,169.139-30.465,189.538,7.28,6.3-8.059-65.942,0,0,4.682,38.289,260.175-11.7,242.947,21.193-28.641,54.689,37.749,135.978,59.8,147.744,42.786,22.829,163,22.6,225.73,2.4-.7-6.639.069-11.869,0-16.738-.285-19.99-1.154-21.368,0-25.138C1085.758,914.052,1085.333,912.691,1086.449,902.621Z" transform="translate(230.036 -83.817)" fill="#fdefda" opacity="0.996"/></g><g transform="translate(779.029 415.916)"><path d="M420.383,235.825a.6.6,0,0,1-.6-.6,1.621,1.621,0,1,0-3.242,0,.6.6,0,0,1-1.2,0,2.816,2.816,0,1,1,5.632,0A.6.6,0,0,1,420.383,235.825Z" transform="translate(-415.349 -232.409)" fill="#fff"/><g transform="translate(8.773)"><path d="M423.609,235.825a.6.6,0,0,1-.6-.6,1.621,1.621,0,1,0-3.242,0,.6.6,0,1,1-1.194,0,2.816,2.816,0,1,1,5.632,0A.6.6,0,0,1,423.609,235.825Z" transform="translate(-418.575 -232.409)" fill="#fff"/></g></g><path d="M424.034,244.74a9.479,9.479,0,0,0,9.477-9.48H414.554A9.481,9.481,0,0,0,424.034,244.74Z" transform="translate(362.313 188.41)" fill="#fff"/><g transform="translate(543.323 185.045)"><rect width="71.874" height="12.103" transform="translate(8.229)" fill="#ffdea9"/><rect width="4.217" height="105.538" fill="#e2ebf4"/><rect width="82.282" height="12.103" transform="translate(8.229 17.429)" fill="#ffdea9"/><rect width="54.204" height="12.103" transform="translate(8.229 34.857)" fill="#ffdea9"/><rect width="10.33" height="12.103" transform="translate(8.229 69.714)" fill="#ffdea9"/><rect width="24.737" height="12.103" transform="translate(25.002 69.714)" fill="#ffdea9"/></g><g transform="translate(1168.835 764.584) rotate(180)"><rect width="71.874" height="12.103" transform="translate(8.229)" fill="#ffdea9"/><rect width="4.217" height="105.538" fill="#e2ebf4"/><rect width="82.282" height="12.103" transform="translate(8.229 17.429)" fill="#ffdea9"/><rect width="54.204" height="12.103" transform="translate(8.229 34.857)" fill="#ffdea9"/><rect width="10.33" height="12.103" transform="translate(8.229 69.714)" fill="#ffdea9"/><rect width="24.737" height="12.103" transform="translate(25.002 69.714)" fill="#ffdea9"/></g></g></g><g transform="translate(722 -33)"><path d="M86.455,36.906,98.009,30.24l.013.038c1.727-1.157,4.348-1.051,7.326.672l323.5,186.773c5.216,3.008,9.423,9.644,9.423,14.86V465a5.555,5.555,0,0,1-1.7,4.4l.009.009-.17.094a3.987,3.987,0,0,1-1.064.613l-11.563,6.619-1.31-11.439L105.348,282.212c-5.207-3.012-9.414-9.644-9.414-14.86V43.164Z" transform="translate(171.342 131.922)" fill="#f7882d"/><path d="M428.079,234.288v232.4c0,2.255-.812,3.914-2.17,4.765-1.7,1.1-4.3.936-7.232-.77L95.151,283.891c-5.194-2.978-9.4-9.619-9.4-14.847V36.641c0-5.547,4.688-6.832,9.4-4L354.355,182.3l64.322,37.134C424.484,222.9,428.079,229.68,428.079,234.288Z" transform="translate(169.045 137.356)" fill="#ffc550"/><path d="M428.079,234.283v10.465l-.089-.043L85.749,47.1V36.636c0-5.611,4.756-6.79,9.4-4L354.355,182.3l64.322,37.139C424.484,222.9,428.079,229.675,428.079,234.283Z" transform="translate(169.045 137.352)" fill="#f7882d"/><path d="M152.756,76.376c0,2.629,2.131,5.994,4.76,7.509l3.271,1.893c2.633,1.515,4.765.613,4.765-2.012V80.49c0-2.629-2.131-5.994-4.765-7.509l-3.271-1.893c-2.629-1.514-4.76-.613-4.76,2.016Z" transform="translate(387.095 264.817)" fill="#ff5783"/><path d="M156.939,78.794c0,2.629,2.131,5.99,4.765,7.5l3.271,1.893c2.629,1.519,4.76.617,4.76-2.012V82.9c0-2.629-2.131-5.99-4.76-7.509L161.7,73.506c-2.633-1.519-4.765-.617-4.765,2.012Z" transform="translate(400.707 272.676)" fill="#457bf4"/><path d="M161.123,81.208c0,2.629,2.131,5.99,4.76,7.509l3.276,1.893c2.629,1.515,4.76.613,4.76-2.016V85.317c0-2.625-2.131-5.99-4.76-7.5l-3.276-1.893c-2.629-1.514-4.76-.617-4.76,2.012Z" transform="translate(414.322 280.536)" fill="#59c0fa"/><g transform="translate(172.57 245.865)"><path d="M133.427,102.653c0-16.974-13.779-38.7-30.791-48.531-9.742-5.628-18.416-6.1-24.057-2.3l0-.026-9.568,5.76,4.833-.123a22,22,0,0,0-1.987,9.431l-4.02.855,4.484,30.766,14.7,15.408,16.719,6.887,4.594-2.374a28.228,28.228,0,0,0,8.074,1.931l-1.136,4.654,11.422-6.887-.14-.034C130.841,115.258,133.427,110,133.427,102.653Zm-30.791,4.76c-12.465-7.189-22.543-23.1-22.543-35.556,0-7.177,3.352-11.61,8.568-12.724l8.462,9.155,17.952,19.595.323,2.05L94.013,65.246,84,71.326l25.231,29.141,7.066-4.79,1.731,11.061,4.471.319C118.67,111.889,111.2,112.361,102.636,107.413Z" transform="translate(-61.826 -49.361)" fill="#fff" opacity="0.7"/><path d="M97.212,55.562c-17.012-9.823-30.791-4-30.791,12.971,0,17.012,13.779,38.742,30.791,48.569S128,121.1,128,104.089C128,87.119,114.225,65.389,97.212,55.562Zm0,53.287C84.748,101.664,74.67,85.758,74.67,73.3s10.078-16.719,22.543-9.525S119.8,86.907,119.8,99.324C119.8,111.789,109.673,116.039,97.212,108.849Z" transform="translate(-66.421 -44.718)" fill="#f25f46"/><path d="M71.633,54.524,96.867,83.664H71.633Z" transform="translate(-49.461 -32.558)" fill="#f25f46"/></g><g transform="translate(316.066 539.503)"><path d="M160.341,142.3l-38.917-22.466c-3.106-1.8-5.841-1.859-7.572-.549l-.008-.034L100.651,127l11.282,7.921V162.76c0,5.245,4.25,11.95,9.491,14.975l32.65,18.854-.37,12.592,13.9-8.168-.047-.034c1.4-.842,2.272-2.45,2.272-4.786V157.272C169.832,152.031,165.582,145.33,160.341,142.3Z" transform="translate(-98.528 -118.385)" fill="#fff" opacity="0.7"/><path d="M158.059,198.068c0,5.245-4.25,7.041-9.5,4.016l-38.917-22.475c-5.245-3.025-9.5-9.729-9.5-14.97V125.722c0-5.241,4.25-7.041,9.5-4.012l38.917,22.466c5.245,3.029,9.5,9.733,9.5,14.975Z" transform="translate(-100.152 -112.352)" fill="#7de5ff"/><g transform="translate(8.521 24.997)"><g transform="translate(0 5.515)"><path d="M102.155,151.893a1.624,1.624,0,0,1,.1-.583l1.693-24.636c.077-1.1,1.025-1.442,2.174-.779l31.179,18a4.61,4.61,0,0,1,2.174,3.293L141.2,174.3a1.239,1.239,0,0,1-.587,1.289,1.721,1.721,0,0,1-1.587-.225l-34.633-19.994-.06-.034A4.514,4.514,0,0,1,102.155,151.893Zm33.106-4.82-27.107-15.651-1.438,20.926L136.7,169.662Z" transform="translate(-102.155 -125.557)" fill="#fff"/></g><g transform="translate(10.172)"><path d="M106.724,139.308c1.2.693,2.174.281,2.174-.919V132.02c0-2.612,2.119-3.505,4.731-2l.54.315c2.608,1.506,4.731,4.85,4.731,7.457v6.377a4.507,4.507,0,0,0,2.178,3.429c1.2.693,2.174.285,2.174-.919V140.3c0-5.007-4.075-11.435-9.083-14.328l-.54-.311c-5.007-2.893-9.083-1.17-9.083,3.837v6.373A4.5,4.5,0,0,0,106.724,139.308Z" transform="translate(-104.546 -124.261)" fill="#fff"/></g><g transform="translate(7.224 15.281)"><path d="M103.853,142.5a1.582,1.582,0,0,1,.1-.579l.83-12.95c.072-1.106,1.021-1.451,2.174-.783l18.459,10.657a4.6,4.6,0,0,1,2.174,3.293l.859,14.426a1.233,1.233,0,0,1-.587,1.285,1.735,1.735,0,0,1-1.587-.23l-20.182-11.656-.06-.034A4.518,4.518,0,0,1,103.853,142.5Zm19.509-.485L109,133.723l-.591,9.227,15.553,8.985Z" transform="translate(-103.853 -127.853)" fill="#fff"/></g></g></g><g transform="translate(62.707 438.1)"><path d="M74.725,108.112,52.654,95.371c-1.761-1.017-3.31-1.055-4.292-.311l0-.021-7.479,4.395,6.394,4.492v15.791c0,2.969,2.408,6.773,5.381,8.491L71.173,138.9l-.213,7.143,7.887-4.633-.03-.021a2.974,2.974,0,0,0,1.293-2.714V116.6C80.111,113.63,77.7,109.831,74.725,108.112Z" transform="translate(-39.675 -94.549)" fill="#fff" opacity="0.7"/><path d="M73.429,139.738c0,2.969-2.408,3.99-5.381,2.276l-22.07-12.745C43,127.55,40.6,123.751,40.6,120.782V98.707c0-2.969,2.408-3.99,5.381-2.272l22.07,12.741c2.974,1.714,5.381,5.518,5.381,8.487Z" transform="translate(-40.596 -91.125)" fill="#7de5ff"/><g transform="translate(4.828 14.177)"><g transform="translate(0 3.127)"><path d="M41.731,113.552a.89.89,0,0,1,.055-.332l.961-13.966c.043-.63.579-.821,1.234-.447l17.68,10.21A2.615,2.615,0,0,1,62.9,110.88l.974,15.374a.7.7,0,0,1-.328.732.965.965,0,0,1-.9-.128L43,115.521l-.034-.021A2.569,2.569,0,0,1,41.731,113.552ZM60.5,110.816l-15.37-8.874-.817,11.873,17,9.814Z" transform="translate(-41.731 -98.616)" fill="#fff"/></g><g transform="translate(5.769)"><path d="M44.321,106.414c.681.4,1.234.162,1.234-.519v-3.616c0-1.48,1.2-1.987,2.684-1.136l.306.179a5.567,5.567,0,0,1,2.68,4.233v3.612a2.575,2.575,0,0,0,1.238,1.948c.681.391,1.234.157,1.234-.523V106.98c0-2.842-2.314-6.488-5.152-8.125l-.306-.179c-2.842-1.638-5.152-.664-5.152,2.178v3.616A2.562,2.562,0,0,0,44.321,106.414Z" transform="translate(-43.087 -97.881)" fill="#fff"/></g><g transform="translate(4.097 8.667)"><path d="M42.694,108.225a.942.942,0,0,1,.055-.328l.468-7.343c.043-.625.583-.821,1.234-.447l10.469,6.045a2.58,2.58,0,0,1,1.229,1.868l.493,8.181a.709.709,0,0,1-.336.727.98.98,0,0,1-.9-.128L43.962,110.19l-.034-.017A2.57,2.57,0,0,1,42.694,108.225Zm11.065-.272-8.147-4.705-.336,5.233,8.819,5.092Z" transform="translate(-42.694 -99.918)" fill="#fff"/></g></g></g><g transform="translate(393.755 514.529)"><path d="M241.658,201.13c2.123-2.106,3.395-5.3,3.395-9.546,0-11.873-9.619-27.043-21.488-33.9a21.531,21.531,0,0,0-10.657-3.216c-4.526-12.435-14.392-24.985-25.916-31.638-11.41-6.585-21.177-5.5-25.763,1.527a42.318,42.318,0,0,0-10.15-8.521c-7.462-4.309-14.026-4.292-17.876-.74l-.013-.008-13.958,11.091,18.2,14.234a47.492,47.492,0,0,0,14.213,15.1v.162l20.2,11.665,56.529,44.23,12.643-9.87c.166-.14.345-.259.5-.408l.17-.136Z" transform="translate(-115.749 -112.515)" fill="#fff" opacity="0.7"/><path d="M212.388,160.271a21.541,21.541,0,0,0-10.657-3.22c-4.526-12.431-14.392-24.98-25.916-31.629-11.405-6.59-21.177-5.5-25.759,1.519a42.519,42.519,0,0,0-10.155-8.521c-11.869-6.849-21.488-2.782-21.488,9.083,0,11.312,8.768,25.542,19.863,32.791v.166l74.111,42.788c11.869,6.849,21.488,2.786,21.488-9.083S224.257,167.12,212.388,160.271Z" transform="translate(-118.414 -104.127)" fill="#fff"/></g><g transform="translate(84.259 355.283)"><g opacity="0.7"><path d="M45.662,83.373l77.023,98.46,14.8-8.292V119.55L60.464,75.081Z" transform="translate(-45.662 -75.081)" fill="#fff"/></g><g transform="translate(0 8.292)"><path d="M45.662,131.017l77.023,44.473V121.5L45.662,77.03Z" transform="translate(-45.662 -77.03)" fill="#e6e7e8"/><path d="M93.227,88.582,54.715,93.343,93.227,137.9Z" transform="translate(-16.203 -39.44)" fill="#f1f2f2"/><path d="M45.662,78.129l38.511,49.23-38.511.083Z" transform="translate(-45.662 -73.455)" fill="#f1f2f2"/><path d="M122.685,121.5l-38.512,4.15L45.662,77.03Z" transform="translate(-45.662 -77.03)" fill="#fff"/></g></g><g transform="translate(372.02 651.776)"><g opacity="0.699"><path d="M113.3,149.8l46.621,59.595,8.957-5.018V171.693l-46.621-26.916Z" transform="translate(-113.305 -144.776)" fill="#fff"/></g><g transform="translate(0 5.019)"><path d="M113.3,178.635l46.621,26.916V172.872L113.3,145.956Z" transform="translate(-113.305 -145.956)" fill="#e6e7e8"/><path d="M142.095,152.948l-23.311,2.879,23.311,26.97Z" transform="translate(-95.474 -123.203)" fill="#f1f2f2"/><path d="M113.3,146.621l23.311,29.8-23.311.054Z" transform="translate(-113.305 -143.792)" fill="#f1f2f2"/><path d="M159.926,172.872l-23.311,2.509L113.3,145.956Z" transform="translate(-113.305 -145.956)" fill="#fff"/></g></g><g transform="translate(81.715 259.252)"><path d="M101.187,74.814,64.9,53.858c-2.9-1.672-5.445-1.731-7.062-.51l-.008-.03-12.3,7.224,10.516,7.385V93.89c0,4.892,3.965,11.146,8.853,13.966l30.447,17.578L95,137.184l12.967-7.623-.047-.03a4.87,4.87,0,0,0,2.123-4.463V88.776C110.04,83.888,106.079,77.634,101.187,74.814Z" transform="translate(-43.548 -52.508)" fill="#fff" opacity="0.7"/><path d="M99.062,126.817c0,4.888-3.965,6.564-8.849,3.744L53.917,109.6c-4.888-2.82-8.853-9.074-8.853-13.962V59.351c0-4.888,3.965-6.568,8.853-3.739l36.3,20.947c4.884,2.825,8.849,9.078,8.849,13.966Z" transform="translate(-45.064 -46.88)" fill="#7de5ff"/><path d="M79.12,71.519A30.283,30.283,0,0,0,68.549,60.459c-3.829-2.187-7.666-2.71-10.6-1.055C53.123,62.13,52.3,69.89,55.327,78.122h-.162l-7.321,4.224c-1.608.906-1.617,3.922-.021,6.662a8.387,8.387,0,0,0,2.927,3.046,2.973,2.973,0,0,0,2.927.306l7.4-4.092v-.183a27.608,27.608,0,0,0,7.462,6.53c3.824,2.191,7.619,2.7,10.508,1.013C84.923,92.313,84.957,81.534,79.12,71.519ZM75.453,89.455c-1.931,1.089-4.484.727-7.024-.727a20.1,20.1,0,0,1-7.011-7.3c-3.752-6.454-3.735-13.664.128-15.847,1.931-1.089,4.454-.744,6.985.7A19.928,19.928,0,0,1,75.5,73.561C79.333,80.147,79.312,87.272,75.453,89.455Z" transform="translate(-39.961 -33.234)" fill="#fff"/></g><g transform="translate(272.427 247.913)"><path d="M90.705,58.536l11.112-7.394.021.047c2.642-1.97,6.794-1.859,11.512.859l28.413,16.408c8,4.616,14.477,14.843,14.477,22.84v28.409c0,3.191-1.064,5.5-2.812,6.883l.03.03-12.494,8.325v-9.58l-27.614-15.94c-8-4.616-14.477-14.847-14.477-22.84V61.97Z" transform="translate(-87.255 -49.842)" fill="#fff" opacity="0.3"/><g transform="translate(0 7.716)"><path d="M89.894,88.429c0,8,6.479,18.225,14.477,22.84l28.413,16.4c7.994,4.62,14.477,1.88,14.477-6.117V93.138c0-8-6.483-18.22-14.477-22.836L104.371,53.9c-8-4.616-14.477-1.876-14.477,6.122Z" transform="translate(-89.894 -51.656)" fill="#7de5ff"/></g><g transform="translate(6.87 21.278)"><g transform="translate(28.72 24.039)"><path d="M98.26,80.648V63.571c0-2.94,2.387-3.952,5.33-2.25l4.241,2.45c2.94,1.693,5.33,5.467,5.33,8.4v17.08c0,2.935-2.391,3.952-5.33,2.25l-4.241-2.45C100.647,87.361,98.26,83.587,98.26,80.648Zm5.33-14.983c-.545-.315-.991-.128-.991.417V83.153a2.07,2.07,0,0,0,.991,1.561l4.241,2.45c.545.311.987.123.987-.421V69.663a2.05,2.05,0,0,0-.987-1.553Z" transform="translate(-98.26 -60.495)" fill="#fff"/></g><path d="M95.18,84.593A7.136,7.136,0,0,1,95.2,83.13a10.668,10.668,0,0,1-2.51-6.168,6.45,6.45,0,0,1,.285-2.063,9.529,9.529,0,0,1-1.463-4.692c0-1.77.855-2.85,2.17-3.08a7.217,7.217,0,0,1-.136-1.489c0-2.093,1.187-3.284,3.088-3.114a2.532,2.532,0,0,1,.294.055,6.233,6.233,0,0,1,1.965.749l.647.362c1.191.655,3.561,1.974,4.42,2.472.766.438.893.4.893.4.387-.3.132-3.131-.017-4.82-.391-4.314,1.349-5.9,2.421-6.458a4.673,4.673,0,0,1,4.475.289c3.965,2.293,3.969,6.343,3.969,12.477v.906c.162,1.651,5.364,9.41,7.083,11.163a4.459,4.459,0,0,1,1.791,3.174V102.72a1.117,1.117,0,0,1-.817,1.225c-3.318.723-12.243-4.041-17.272-6.938C103.246,95.135,95.648,90.749,95.18,84.593Zm25.053-2.476c-3.437-3.995-8.87-12.273-8.874-15.638v-.932a53.779,53.779,0,0,0-.174-5.7c-.923.072-2.3,1.008-2.029,3.982.332,3.71.6,6.636-1.085,7.513-.936.489-2.284.217-4.114-.838-.842-.485-3.161-1.774-4.318-2.416l-.732-.408a1.131,1.131,0,0,0-.4-.14l-.072-.013a.539.539,0,0,0-.549.617c0,.51.077.685.153.783a3.457,3.457,0,0,1,.91,2.969c-.272.766-1.119.91-2.085.353-.557-.319-1.017-.115-1.017.468a2.354,2.354,0,0,0,.749,1.629A4.624,4.624,0,0,1,98,76.821c.106.834-.153,1.408-.77,1.527a2.059,2.059,0,0,0-.2,1.123,2.763,2.763,0,0,0,.987,1.846,4.93,4.93,0,0,1,1.621,1.991,2.394,2.394,0,0,1,.136,2.008,2.261,2.261,0,0,0-.268,1.434c.149,1.974,4.935,4.731,6.973,5.909,6.981,4.033,11.712,5.981,13.749,6.3Z" transform="translate(-91.509 -54.844)" fill="#fff"/></g></g><g transform="translate(97.536 504.689)"><path d="M49.572,118.635l11.095-7.411.034.077c2.582-1.68,6.466-1.51,10.874,1.034l27.6,15.936c7.772,4.488,14.073,14.426,14.073,22.194v27.6c0,3.671-1.438,6.151-3.739,7.33l.055.03-10.98,7.355L96.555,182.5l-24.98-14.417c-7.768-4.488-14.068-14.426-14.068-22.194V120.375Z" transform="translate(-46.215 -110.201)" fill="#fff" opacity="0.7"/><g transform="translate(0 7.483)"><path d="M48.783,147.689c0,7.768,6.3,17.71,14.068,22.19l27.6,15.936c7.772,4.488,14.073,1.825,14.073-5.943V152.266c0-7.768-6.3-17.706-14.073-22.19l-27.6-15.936c-7.768-4.488-14.068-1.825-14.068,5.947Z" transform="translate(-48.783 -111.96)" fill="#f25f46"/></g><g transform="translate(5.848 19.662)"><path d="M72.119,160.486a6.2,6.2,0,0,1-2.106-2.233,76.423,76.423,0,0,0-8.746-12.188c-6.143-6.679-10.363-14.877-11.018-21.386-.817-8.057,3.952-11.9,10.848-8.764,4.216,1.906,8.057,5.611,11.082,10.3,3.029-1.187,6.879-.442,11.078,2.5,6.9,4.824,11.673,14.179,10.857,21.292-.642,5.624-4.739,8.866-10.95,8.666a20.266,20.266,0,0,0-8.891,2.131,2.227,2.227,0,0,1-2.093-.281Zm2.433-26.958c-1.038,1.021-3.714-.523-4.748-2.74-.7-1.493-3.488-6.828-8.019-8.891-3.348-1.523-6.483.089-5.943,5.411.459,4.526,3.514,10.359,7.981,15.221a83.022,83.022,0,0,1,8.41,11.146,21.914,21.914,0,0,1,8.232-1.5c4.594.145,7.606-2.1,8.053-6,.536-4.7-2.6-9.933-5.947-12.269-.323-.23-.638-.43-.944-.608C77.615,130.979,75.2,132.885,74.552,133.527Z" transform="translate(-50.158 -114.823)" fill="#fff"/></g></g><g transform="translate(532.461 520.524)"><path d="M151.468,118.732l6.322-4.229.021.043c1.472-.953,3.68-.855,6.194.6l15.728,9.083c4.429,2.552,8.019,8.215,8.019,12.639V152.6c0,2.089-.817,3.5-2.131,4.173l.034.017-6.258,4.19-1.157-5.862L164,146.9c-4.429-2.557-8.019-8.219-8.019-12.648V119.719Z" transform="translate(-149.558 -113.924)" fill="#fff" opacity="0.7"/><g transform="translate(0 4.265)"><path d="M151.019,135.286c0,4.429,3.586,10.091,8.011,12.648l15.732,9.078c4.429,2.557,8.015,1.042,8.015-3.391V137.894c0-4.429-3.586-10.091-8.015-12.643l-15.732-9.083c-4.424-2.557-8.011-1.038-8.011,3.391Z" transform="translate(-151.019 -114.926)" fill="#f25f46"/></g><g transform="translate(3.326 11.205)"><path d="M164.321,142.578a3.577,3.577,0,0,1-1.2-1.272,43.018,43.018,0,0,0-4.986-6.947c-3.5-3.807-5.9-8.479-6.279-12.188-.464-4.586,2.255-6.781,6.19-4.99a15.486,15.486,0,0,1,6.309,5.866c1.723-.681,3.922-.255,6.313,1.421,3.931,2.752,6.653,8.079,6.185,12.137-.366,3.2-2.7,5.05-6.237,4.939a11.567,11.567,0,0,0-5.071,1.212,1.27,1.27,0,0,1-1.191-.162Zm1.383-15.362c-.587.579-2.114-.3-2.7-1.566-.4-.847-1.991-3.888-4.573-5.062-1.906-.868-3.693.051-3.391,3.08.264,2.582,2.008,5.9,4.552,8.678a47.105,47.105,0,0,1,4.794,6.351,12.494,12.494,0,0,1,4.688-.859c2.621.085,4.335-1.2,4.59-3.416a8.3,8.3,0,0,0-3.386-7c-.183-.128-.366-.238-.54-.345C167.448,125.765,166.07,126.85,165.7,127.216Z" transform="translate(-151.801 -116.558)" fill="#fff"/></g></g><g transform="translate(339.222 293.574)"><path d="M106.6,72.353l20.075-10.92,0,.077c2.752-1.531,6.73-1.242,11.214,1.344L241.774,121.6c8.287,4.786,15,15.379,15,23.666v98.1c0,3.782-1.446,6.36-3.756,7.666l.055.043-20.267,10.988-.357-17.629-94.565-53.474c-8.283-4.786-15-15.383-15-23.666V85.017Z" transform="translate(-102.341 -60.576)" fill="#fffdfd" opacity="0.699"/><path d="M105.6,169.95c0,8.287,6.717,18.884,15,23.666l103.886,58.745c8.283,4.786,15,1.944,15-6.339v-98.1c0-8.283-6.717-18.88-15-23.661L120.6,65.511c-8.287-4.786-15-1.944-15,6.343Z" transform="translate(-105.595 -52.079)" fill="#fff"/><path d="M110.421,100.136c0,25.644,20.773,58.409,46.417,73.214s46.413,6.024,46.413-19.62c0-25.576-20.773-58.345-46.413-73.146S110.421,74.556,110.421,100.136Zm12.375,7.109c0-18.722,15.255-25.142,34.042-14.29s33.973,34.812,33.973,53.6-15.191,25.214-33.973,14.358S122.8,126.027,122.8,107.245Z" transform="translate(-89.891 -18.876)" fill="#f25f46"/><path d="M117.985,123.59h38.034L117.985,79.674Z" transform="translate(-65.275 1.572)" fill="#f25f46"/></g><g transform="translate(-464.144 -331.562)"><path d="M392.5,325.891s4.881-4.052,6.992-4.765c0,0,10.127-5.23,11.751-5.931,0,0,2.116,1.675-.283,3.949a34.947,34.947,0,0,1-6.037,4.286s4.933.3,7.952-.677,9.031-2.744,10.8-1.855.3,2.342.3,2.342-9.235,2.7-11.212,3.3c-1.735.522-1.061,1.123-1.061,1.123s11.2-.666,13.2-.78,2.826.952,2.32,2.709c0,0-5.972.394-9.619.957-1.267.2-5.7.079-5.4,1.5,0,0,9.657.427,11.291.3A1.6,1.6,0,0,1,425.025,335l-13.138.43s-.914.2-.579.751c.3.495,6.184,2.265,6.861,2.29s2.79.28,2.336,1.964c0,0-.234.552-2.219.34s-11.422-.9-11.422-.9a29.045,29.045,0,0,1-12.523-2.97c-6.315-3.179-6.306-6-4.716-2.3l1.27-3.631Z" transform="translate(347.539 549.233) rotate(-21)" fill="#ffcda9"/><g transform="translate(693.808 614.964)"><g transform="translate(19.287)"><path d="M363.244,280.844a11.552,11.552,0,1,0,12.3-10.756A11.552,11.552,0,0,0,363.244,280.844Z" transform="translate(-319.055 -256.713)" fill="#131637"/><path d="M364.827,275.161a7.88,7.88,0,1,0,8.387-7.337A7.878,7.878,0,0,0,364.827,275.161Z" transform="translate(-316.317 -260.591)" fill="#131637"/><path d="M373.185,271.382a2.867,2.867,0,1,1-3.13-2.578A2.869,2.869,0,0,1,373.185,271.382Z" transform="translate(-311.754 -258.9)" fill="#131637"/><path d="M373.311,272.687a2.867,2.867,0,1,1-3.13-2.578A2.866,2.866,0,0,1,373.311,272.687Z" transform="translate(-311.538 -256.656)" fill="#131637"/><path d="M405.278,275.057s-2.592-12.382-19.27-9.456c0,0-14.024-1.436-20.459,13.739a31.041,31.041,0,0,1,3.421,15.088c-.982,23.5-4.476,48.8-17.72,68.86-.218.329-.46.625-.683.946-1.115,3.068-2.309,6.105-3.59,9.083,3.924,3.454,10.116,6.032,19.977,4.919,10.671-24.108,15.879-50.128,15.879-50.128l9.91-17.783,11.2-9.986S413.994,276.857,405.278,275.057Z" transform="translate(-346.978 -265.153)" fill="#131637"/><path d="M371.885,271.825c.016.234,4.925,11.607,4.974,20.388l-8.224-.34Z" transform="translate(-309.739 -253.682)" fill="#ff907d"/><path d="M385.018,269.63s15.879,12.722,1.925,43.294l-12.042-2.38-.96,14.359-15.694-1.05,1.118-16.695a17.253,17.253,0,0,0,7.571-12.909s-8.042-1.033-6.842-8.305c.764-4.637,7.4-5.075,9.091-.267l-.313,4.713s3.554-1.474,4.343-7.954c0,0,8.463-4.642,5.069-13.255Z" transform="translate(-327.601 -258.228)" fill="#ffcda9"/><path d="M367.8,279.726l7.555,1.539a59.686,59.686,0,0,1-2.031,7.144C366.2,286.576,367.8,279.726,367.8,279.726Z" transform="translate(-311.432 -240.096)" fill="#fff"/><path d="M374.676,272.027a4.583,4.583,0,1,1-5-4.123A4.587,4.587,0,0,1,374.676,272.027Z" transform="translate(-315.078 -260.46)" fill="#131637"/><path d="M375.841,275.729a7.044,7.044,0,1,1-7.688-6.331A7.043,7.043,0,0,1,375.841,275.729Z" transform="translate(-321.514 -257.912)" fill="#131637"/><path d="M378.274,287.086h0c-8.077-.541-15.893,5.662-15.327,13.736,3.454,49.272-14.033,91.693-14.033,91.693h54.653s-4.762-44.045-3.546-47.292,13.728-7.753,13.728-20.236L392.265,295.4A17.991,17.991,0,0,0,378.274,287.086Z" transform="translate(-343.649 -227.498)" fill="#f25f46"/><path d="M388.193,334.5c.356-.954,1.7-2.026,3.4-3.367a109.364,109.364,0,0,1-4.5-18.376c-3.72-22.626-18.854-21.207-24.263-16.953-8.934,7.019-9.45,19.841-1.11,36.8,8.656,17.606,18.841,29.591,28.835,37.776C389.241,357.1,387.38,336.678,388.193,334.5Z" transform="translate(-331.821 -216.779)" fill="#f25f46"/><path d="M365.172,290.62l.5.321,4.076,1.191a3.777,3.777,0,0,1,2.692,4.057l-.422,3.688a19.24,19.24,0,0,1,12.153,16.741" transform="translate(-315.694 -221.364)" fill="#fff"/><path d="M357.719,288.766l.307-1.645c-1.944.865,10.263-3.794,19.142,4.574l.819,5.847A44.415,44.415,0,0,0,357.719,288.766Z" transform="translate(-328.509 -228.286)" fill="#fff"/><path d="M355.491,289.663a7.978,7.978,0,1,0,7.174-8.708A7.978,7.978,0,0,0,355.491,289.663Z" transform="translate(-332.405 -238.048)" fill="#131637"/><path d="M353.906,290.835a5.874,5.874,0,1,0,5.281-6.413A5.874,5.874,0,0,0,353.906,290.835Z" transform="translate(-335.114 -232.068)" fill="#131637"/></g><path d="M358.46,299.967c1.5-6.712,12.325-17.383,29.517-2.214,20.576,18.155,41.143,27.445,78.672,16.1l6.32,11.438s-33.213,30.825-92.093,3.886C363.69,321.312,355.98,311.057,358.46,299.967Z" transform="translate(-332.18 -217.4)" fill="#f25f46"/><path d="M397.818,334.072l.889-15.607-9.835-1.079-1.325,15.669Z" transform="matrix(0.883, -0.469, 0.469, 0.883, -362.114, -0.311)" fill="#fff"/><path d="M398.2,265.38s-17.484-2.872-24.443,22.528c0,0-2.464,43.833-23.249,62.7s-10.051,46.631,23.249,49.206a43.6,43.6,0,0,0,3.715-28.383s9.466-20.546,4.977-34.141c0,0,15.765-3.777,8.485-23.431-7.843-14.6,3.391-32.623,3.391-32.623l12.162-8.131Z" transform="translate(-339.886 -264.932)" fill="#131637"/></g><g transform="translate(690.808 779.982)"><path d="M436.945,404.154c0,10.378-21.547,18.792-48.127,18.792s-48.129-8.414-48.129-18.792,21.549-18.789,48.129-18.789S436.945,393.776,436.945,404.154Z" transform="translate(-335.505 -223.469)" fill="#f8a966" opacity="0.6"/><path d="M376,325.833h10.361L380.534,505.6H372.8s-13.948-56.008-10.214-92.952c3.2-42.538-3.66-60.976-3.66-60.976" transform="translate(-304.154 -325.833)" fill="#00216c"/><path d="M414.443,325.833l-14.938,84.592L347.313,490.59l-8-3.337s19.336-57.593,39.933-85.212L368.816,360.2a88.271,88.271,0,0,1-3.391-34.371Z" transform="translate(-337.873 -325.833)" fill="#002a88"/><path d="M340.222,385.19l-1.156,1.632a1.562,1.562,0,0,0,.3,2.113l23.306,18.153s1.2-8.806-9.807-18A37.678,37.678,0,0,0,340.222,385.19Z" transform="translate(-338.783 -223.769)" fill="#000f1f"/><path d="M363.585,393.989v2.037a1.474,1.474,0,0,0,1.439,1.507h29.031s-4.041-7.819-18.1-8.316A38.085,38.085,0,0,0,363.585,393.989Z" transform="translate(-296.136 -216.847)" fill="#000f1f"/></g><g transform="translate(726.155 707.324) rotate(-21)"><path d="M361.284,296.8c4.572-5.14,19.216-9.211,26.877,12.4,9.167,25.862,22.634,43.971,60.949,52.288l-.03,13.064s-44.007,10.815-82.387-41.334C355.489,317.994,353.73,305.286,361.284,296.8Z" transform="translate(-356.697 -292.711)" fill="#f25f46"/><path d="M392.5,325.891s4.881-4.052,6.992-4.765c0,0,10.127-5.23,11.751-5.931,0,0,2.116,1.675-.283,3.949a34.947,34.947,0,0,1-6.037,4.286s4.933.3,7.952-.677,9.031-2.744,10.8-1.855.3,2.342.3,2.342-9.235,2.7-11.212,3.3c-1.735.522-1.061,1.123-1.061,1.123s11.2-.666,13.2-.78,2.826.952,2.32,2.709c0,0-5.972.394-9.619.957-1.267.2-5.7.079-5.4,1.5,0,0,9.657.427,11.291.3A1.6,1.6,0,0,1,425.025,335l-13.138.43s-.914.2-.579.751c.3.495,6.184,2.265,6.861,2.29s2.79.28,2.336,1.964c0,0-.234.552-2.219.34s-11.422-.9-11.422-.9a29.045,29.045,0,0,1-12.523-2.97c-6.315-3.179-6.306-6-4.716-2.3l1.27-3.631Z" transform="translate(-301.604 -254.05)" fill="#ffcda9"/><path d="M397.818,334.072l.889-15.607-9.835-1.079-1.325,15.669Z" transform="translate(-303.651 -250.284)" fill="#fff"/></g></g><g transform="translate(503.023 391.579)"><path d="M199.494,103.02l-29.6-17.093c-5.382-3.105-10.078-2.974-12.745-.268l-.025-.043L145.075,92.58l9.729,6.037V121.9c0,8.334,6.756,18.986,15.089,23.8l26.644,15.383.4,11.542,13.192-8.079,0,0c2.752-1.144,4.458-3.944,4.458-8.125v-29.6C214.579,118.484,207.823,107.831,199.494,103.02Z" transform="translate(-140.923 -83.613)" fill="#fff" opacity="0.7"/><path d="M203.87,158.375c0,8.33-6.756,11.184-15.089,6.373l-29.6-17.089c-8.33-4.807-15.081-15.464-15.081-23.793v-29.6c0-8.334,6.751-11.188,15.081-6.377l29.6,17.085c8.334,4.811,15.089,15.468,15.089,23.8Z" transform="translate(-144.099 -77.309)" fill="#76db76"/><path d="M189.1,106.264c-2.123-3.348-5.56-5.33-7.683-4.437l-15.859,13.5L155.133,94.808c-2.123-3.348-5.564-5.335-7.687-4.437s-2.123,4.339,0,7.687l14.268,26.576a11.616,11.616,0,0,0,3.841,3.812,4.464,4.464,0,0,0,3.846.625l19.7-15.119C191.225,113.054,191.225,109.617,189.1,106.264Z" transform="translate(-138.389 -62.324)" fill="#fff"/></g><g transform="translate(217.889 191.973)" opacity="0.8"><path d="M110.74,48.487,92.753,38.1c-3.276-1.889-6.126-1.8-7.747-.166l-.013-.021-7.326,4.233,5.913,3.667V59.964c0,5.071,4.105,11.541,9.172,14.468l16.191,9.351.238,7.011,8.023-4.909,0,0c1.672-.693,2.71-2.4,2.71-4.939V62.951C119.912,57.888,115.806,51.409,110.74,48.487Z" transform="translate(-75.141 -36.693)" fill="#fff" opacity="0.7"/><path d="M113.4,82.13c0,5.067-4.105,6.8-9.168,3.876L86.242,75.621c-5.062-2.923-9.168-9.4-9.168-14.464V43.162c0-5.062,4.105-6.794,9.168-3.871l17.995,10.384c5.062,2.927,9.168,9.4,9.168,14.464Z" transform="translate(-77.074 -32.861)" fill="#76db76"/><path d="M104.423,50.462c-1.285-2.038-3.378-3.242-4.667-2.7l-9.64,8.2L83.782,43.5c-1.293-2.038-3.382-3.246-4.671-2.7s-1.293,2.633,0,4.671l8.67,16.153a7.166,7.166,0,0,0,2.336,2.318,2.716,2.716,0,0,0,2.336.379l11.971-9.193C105.716,54.585,105.716,52.5,104.423,50.462Z" transform="translate(-73.602 -23.753)" fill="#fff"/></g></g></g></g></svg>