<svg xmlns="http://www.w3.org/2000/svg" xmlns:xlink="http://www.w3.org/1999/xlink" width="816" height="852.704" viewBox="0 0 816 852.704"><defs><linearGradient id="a" x1="163.627" y1="1" x2="163.627" gradientUnits="objectBoundingBox"><stop offset="0" stop-color="#fff"/><stop offset="0.365" stop-color="#fff"/><stop offset="0.542" stop-color="#fff"/><stop offset="1" stop-color="#fff"/></linearGradient><clipPath id="c"><rect width="816" height="852.704"/></clipPath></defs><g id="b" clip-path="url(#c)"><rect width="816" height="852.704" fill="#fff"/><g transform="translate(-566)"><g transform="translate(-58 -68)"><g transform="translate(117.856 68.438)"><g transform="translate(24.863 -38.532)"><path d="M1086.449,902.621c-.431-13.164-1.234-64.184-1.076-117.562.052-17.576-.589-35.776,0-52.667,1.653-47.432,0-151.69,0-151.69l-.454-95.494V380.3s2.815-255.359-.417-258c-2.633-2.155-4.985-1.12-7.484-1.4-3.771-.437-8.518-.55-22.06,0-22.625.919-69.454-2.038-162.926.953-15.468.495-79.636-.737-152.333-.542-113.73.306-247.562.409-247.562.409H339.2s-6.723.448-21.783-1.418c-6.24-.773,7.631.379,0,0-6.38-.317,10.576-.1,0,1.418-3.4.487-40.982-1.272-41.849,0-13.225,19.412-1.994,92.173,0,108.619,9.3,76.717-18.622,221.058,53.893,266.047,56.5,35.055,167.231-61.467,239.362-20.943,29.376,16.5,34.488,53.4,18.333,121.49-56.782,63.766-54.044,169.139-30.465,189.538,7.28,6.3-8.059-65.942,0,0,4.682,38.289,260.175-11.7,242.947,21.193-28.641,54.689,37.749,135.978,59.8,147.744,42.786,22.829,163,22.6,225.73,2.4-.7-6.639.069-11.869,0-16.738-.285-19.99-1.154-21.368,0-25.138C1085.758,914.052,1085.333,912.691,1086.449,902.621Z" transform="translate(230.036 -83.817)" fill="#fdefda" opacity="0.996"/></g><g transform="translate(779.029 415.916)"><path d="M420.383,235.825a.6.6,0,0,1-.6-.6,1.621,1.621,0,1,0-3.242,0,.6.6,0,0,1-1.2,0,2.816,2.816,0,1,1,5.632,0A.6.6,0,0,1,420.383,235.825Z" transform="translate(-415.349 -232.409)" fill="#fff"/><g transform="translate(8.773)"><path d="M423.609,235.825a.6.6,0,0,1-.6-.6,1.621,1.621,0,1,0-3.242,0,.6.6,0,1,1-1.194,0,2.816,2.816,0,1,1,5.632,0A.6.6,0,0,1,423.609,235.825Z" transform="translate(-418.575 -232.409)" fill="#fff"/></g></g><path d="M424.034,244.74a9.479,9.479,0,0,0,9.477-9.48H414.554A9.481,9.481,0,0,0,424.034,244.74Z" transform="translate(362.313 188.41)" fill="#fff"/><g transform="translate(543.323 185.045)"><rect width="71.874" height="12.103" transform="translate(8.229)" fill="#ffdea9"/><rect width="4.217" height="105.538" fill="#e2ebf4"/><rect width="82.282" height="12.103" transform="translate(8.229 17.429)" fill="#ffdea9"/><rect width="54.204" height="12.103" transform="translate(8.229 34.857)" fill="#ffdea9"/><rect width="10.33" height="12.103" transform="translate(8.229 69.714)" fill="#ffdea9"/><rect width="24.737" height="12.103" transform="translate(25.002 69.714)" fill="#ffdea9"/></g><g transform="translate(1168.835 764.584) rotate(180)"><rect width="71.874" height="12.103" transform="translate(8.229)" fill="#ffdea9"/><rect width="4.217" height="105.538" fill="#e2ebf4"/><rect width="82.282" height="12.103" transform="translate(8.229 17.429)" fill="#ffdea9"/><rect width="54.204" height="12.103" transform="translate(8.229 34.857)" fill="#ffdea9"/><rect width="10.33" height="12.103" transform="translate(8.229 69.714)" fill="#ffdea9"/><rect width="24.737" height="12.103" transform="translate(25.002 69.714)" fill="#ffdea9"/></g></g></g><g transform="translate(493 37)"><path d="M662.278,338.946c0,4.368-131.772,7.908-294.322,7.908s-294.324-3.541-294.324-7.908,131.774-7.908,294.324-7.908S662.278,334.578,662.278,338.946Z" transform="translate(31.207 211.169)" fill="#fac594"/><g transform="translate(726.727 122.533)"><path d="M593.679,389.592H490.8l-83.288-69.1H479.54Z" transform="translate(-357.374 77.953)" fill="#ebb486"/><path d="M476.225,590.078,382.6,499.435V219.545l93.623-97.012Z" transform="translate(-382.603 -122.533)" fill="#ffab65"/><path d="M425.837,230.05c0-21-8.886-34.306-18.183-30.417-7.858,3.289-13.389,18.135-13.389,33.6,0,11.4,2.927,21.6,7.475,26.969l-3.766,62.15,21.637,8.846-5.267-68.611C420.83,258.126,425.837,245.53,425.837,230.05Z" transform="translate(-370.791 -45.13)" fill="#f7882d"/><g transform="translate(5.157 69.541)"><path d="M385.165,186.929l2.77-2.162c1.339-1.045,2.826-1.5,2.826,2.705a9.637,9.637,0,0,1-1.347,5.221v.052c1.025-.4,1.715.988,1.715,3.506,0,4.048-1.55,6.391-2.917,7.272l-3.047,1.966Zm1.622,6.24,1.2-.872a3.461,3.461,0,0,0,1.057-2.842c0-1.592-.606-1.54-1.131-1.141l-1.125.849Zm0,7.773,1.489-1a3.557,3.557,0,0,0,1.127-3c0-1.811-.815-1.538-1.365-1.153l-1.252.88Z" transform="translate(-385.165 -129.765)" fill="#fff"/><path d="M395.76,192.586c0,4.829-1.266,9.227-3.637,10.748-2.311,1.483-3.478-1.185-3.478-5.787V185.561l1.793-1.4v11.968c0,2.427.7,3.8,1.685,3.142s1.711-3.029,1.711-5.513V181.51l1.926-1.5Z" transform="translate(-381.641 -133.866)" fill="#fff"/><path d="M398.047,182.768a.925.925,0,0,0-1.522-.264,4.215,4.215,0,0,0-1.389,3.208c0,3.818,4.392-1.86,4.392,5.688,0,4.809-1.741,8.206-3.693,9.46a1.993,1.993,0,0,1-3.084-.614l1.423-4.527c.417.956,1.095,1.24,1.779.781a4.012,4.012,0,0,0,1.443-3.186c0-3.9-4.352,1.222-4.352-5.668,0-4.408,1.689-8.039,3.52-9.474,1.075-.843,2.121-1.031,2.949-.062Z" transform="translate(-377.482 -136.445)" fill="#fff"/><path d="M396.912,177.189l2.236-1.745V197.51l-2.236,1.443Z" transform="translate(-373.268 -138.487)" fill="#fff"/><path d="M399.061,178.815l3.22-2.516,4.794,12.542.032-.022V172.531l2.594-2.025v23.789l-3.377,2.18L401.45,183.48l-.032.024v16.136l-2.357,1.522Z" transform="translate(-371.091 -143.488)" fill="#fff"/><path d="M405.629,172.951l8.77-6.847v5.151l-6.016,4.533v4.569l5.672-4.13v5.143l-5.672,3.973v4.986l6.362-4.281v5.159l-9.116,5.883Z" transform="translate(-364.44 -147.946)" fill="#fff"/><path d="M419.05,168.865c-.529-.807-1.58-.576-2.369.022a5.824,5.824,0,0,0-2.152,4.315c0,4.746,6.837-3.325,6.837,6.125,0,6.022-2.721,10.627-5.759,12.578-1.846,1.186-3.44,1.228-4.756-.161l2.19-5.9a1.769,1.769,0,0,0,2.751.606,5.5,5.5,0,0,0,2.242-4.271c0-4.875-6.733,2.429-6.733-6.111,0-5.465,2.6-10.364,5.441-12.59,1.671-1.31,3.309-1.8,4.6-.789Z" transform="translate(-359.15 -151.951)" fill="#fff"/><path d="M426.051,164.285c-.6-.831-1.793-.529-2.689.149a6.431,6.431,0,0,0-2.44,4.706c0,5.052,7.763-3.9,7.763,6.185,0,6.425-3.094,11.459-6.54,13.673-2.091,1.341-3.9,1.455-5.382.038l2.476-6.372a2.035,2.035,0,0,0,3.116.517,6.062,6.062,0,0,0,2.544-4.656c0-5.193-7.626,2.9-7.626-6.175,0-5.811,2.941-11.157,6.159-13.679,1.9-1.487,3.758-2.1,5.229-1.095Z" transform="translate(-353.162 -157.083)" fill="#fff"/></g><rect width="44.628" height="467.545" transform="translate(93.623)" fill="#f7882d"/></g><g transform="translate(72.819 240.152)"><g transform="translate(535.082 82.196)"><rect width="23.81" height="55.403" transform="translate(52.94 55.403) rotate(180)" fill="#f9b938"/><rect width="23.81" height="55.403" transform="translate(23.81 55.403) rotate(180)" fill="#f9b938"/><rect width="23.81" height="20.562" transform="translate(52.94 20.562) rotate(180)" fill="#f99a38"/><rect width="23.81" height="20.562" transform="translate(23.81 20.562) rotate(180)" fill="#f99a38"/></g><rect width="452.069" height="35.032" transform="translate(142.792 60.163)" fill="#f9b938"/><rect width="452.069" height="9.519" transform="translate(142.792 85.675)" fill="#f99a38"/><rect width="29.32" height="35.032" transform="translate(219.709 60.163)" fill="#f99a38"/><path d="M113.762,245.891h22.746a85.5,85.5,0,0,0,0-35.032H113.762Z" transform="translate(29.03 -150.697)" fill="#f99a38"/><path d="M120.5,180.969a77.678,77.678,0,1,0,77.679,77.679A77.68,77.68,0,0,0,120.5,180.969Zm0,129.655a51.976,51.976,0,1,1,51.976-51.976A51.976,51.976,0,0,1,120.5,310.624Z" transform="translate(-42.819 -180.969)" fill="#f99a38"/><path d="M122.767,180.969a77.678,77.678,0,1,0,77.679,77.679A77.678,77.678,0,0,0,122.767,180.969Zm0,129.655a51.976,51.976,0,1,1,51.976-51.976A51.978,51.978,0,0,1,122.767,310.624Z" transform="translate(-40.519 -180.969)" fill="#f9b938"/><path d="M88.964,191.379a70.339,70.339,0,0,0-.62,126.825M119.059,184.63a70.379,70.379,0,0,0-18.9,2.57" transform="translate(-36.811 -177.261)" fill="none" stroke="#fff4e1" stroke-miterlimit="10" stroke-width="2.157"/><g transform="translate(186.2 47.407)"><path d="M147.324,265.064h0a12.03,12.03,0,0,1-12-11.994V216.516a12.03,12.03,0,0,1,12-11.994h0a12.029,12.029,0,0,1,11.994,11.994V253.07A12.029,12.029,0,0,1,147.324,265.064Z" transform="translate(-135.328 -204.522)" fill="#f9b938"/><path d="M144.409,205.432v56.879a11.983,11.983,0,0,0,5.712-10.163V215.594A11.983,11.983,0,0,0,144.409,205.432Z" transform="translate(-126.131 -203.6)" fill="#f99a38"/></g><g transform="translate(210.19 47.407)"><path d="M159.241,265.064h0a12.028,12.028,0,0,1-11.994-11.994V216.516a12.028,12.028,0,0,1,11.994-11.994h0a12.029,12.029,0,0,1,11.994,11.994V253.07A12.029,12.029,0,0,1,159.241,265.064Z" transform="translate(-147.247 -204.522)" fill="#f9b938"/><path d="M156.327,205.432v56.879a11.979,11.979,0,0,0,5.712-10.163V215.594A11.979,11.979,0,0,0,156.327,205.432Z" transform="translate(-138.051 -203.6)" fill="#f99a38"/></g><rect width="372.499" height="4.07" transform="translate(273.011 62.802)" fill="#fff4e1"/></g></g><g transform="translate(253.855 -252.562)"><path d="M2.417,6.872s3.136-2.6,4.492-3.061c0,0,6.507-3.36,7.55-3.811,0,0,1.359,1.076-.182,2.537A22.452,22.452,0,0,1,10.4,5.291a17.4,17.4,0,0,0,5.109-.435c1.939-.629,5.8-1.763,6.938-1.192s.2,1.5.2,1.5-5.934,1.737-7.2,2.119c-1.115.335-.681.722-.681.722s7.193-.428,8.481-.5,1.815.612,1.49,1.74c0,0-3.837.253-6.18.615-.814.126-3.66.051-3.466.963,0,0,6.2.274,7.254.2a1.025,1.025,0,0,1,.978,1.7L14.873,13s-.587.129-.372.482a19.858,19.858,0,0,0,4.408,1.471c.435.016,1.793.18,1.5,1.262,0,0-.15.355-1.426.218s-7.338-.577-7.338-.577A18.66,18.66,0,0,1,3.6,13.95C-.457,11.907-.452,10.092.57,12.473l.816-2.333Z" transform="translate(757.225 609.839) rotate(7)" fill="#ffcda9"/><g transform="translate(692.735 614.964)"><g transform="translate(12.392)"><path d="M363.234,276.989a7.422,7.422,0,1,0,7.9-6.91A7.422,7.422,0,0,0,363.234,276.989Z" transform="translate(-334.844 -261.486)" fill="#131637"/><path d="M364.821,272.532a5.062,5.062,0,1,0,5.388-4.714A5.061,5.061,0,0,0,364.821,272.532Z" transform="translate(-333.654 -263.171)" fill="#131637"/><path d="M371.139,270.455a1.842,1.842,0,1,1-2.011-1.656A1.843,1.843,0,0,1,371.139,270.455Z" transform="translate(-331.672 -262.436)" fill="#131637"/><path d="M371.265,271.76a1.842,1.842,0,1,1-2.011-1.656A1.841,1.841,0,0,1,371.265,271.76Z" transform="translate(-331.577 -261.461)" fill="#131637"/><path d="M384.434,271.516s-1.665-7.955-12.381-6.075c0,0-9.01-.922-13.144,8.827a19.943,19.943,0,0,1,2.2,9.693c-.631,15.1-2.876,31.354-11.385,44.241-.14.211-.3.4-.439.608-.716,1.971-1.483,3.922-2.306,5.836,2.521,2.219,6.5,3.875,12.835,3.161a176.559,176.559,0,0,0,10.2-32.206l6.367-11.425,7.2-6.416S390.034,272.673,384.434,271.516Z" transform="translate(-346.978 -265.153)" fill="#131637"/><path d="M370.723,271.825c.01.15,3.164,7.457,3.2,13.1l-5.284-.218Z" transform="translate(-330.796 -260.168)" fill="#ffcda9"/><path d="M375.446,269.469s10.2,8.173,1.237,27.815l-7.737-1.529-.617,9.225-10.083-.674.718-10.726a11.085,11.085,0,0,0,4.864-8.294s-5.167-.664-4.4-5.336c.491-2.979,4.756-3.26,5.841-.171l-.2,3.028s2.284-.947,2.79-5.111c0,0,5.437-2.982,3.257-8.516Z" transform="translate(-338.558 -262.144)" fill="#ffcda9"/><path d="M367.749,279.726l4.854.989a38.336,38.336,0,0,1-1.305,4.59A4.611,4.611,0,0,1,367.749,279.726Z" transform="translate(-331.532 -254.265)" fill="#fff"/><path d="M371.406,270.546a2.945,2.945,0,1,1-3.215-2.649A2.947,2.947,0,0,1,371.406,270.546Z" transform="translate(-333.116 -263.114)" fill="#131637"/><path d="M370.817,273.454a4.525,4.525,0,1,1-4.939-4.067A4.525,4.525,0,0,1,370.817,273.454Z" transform="translate(-335.913 -262.007)" fill="#131637"/><path d="M367.777,287.074h0c-5.189-.348-10.211,3.638-9.847,8.825,2.219,31.656-9.016,58.91-9.016,58.91h35.113s-3.059-28.3-2.278-30.384,8.82-4.981,8.82-13l-13.8-19.011A11.559,11.559,0,0,0,367.777,287.074Z" transform="translate(-345.531 -248.79)" fill="#f25f46"/><path d="M376.609,319.768a7.1,7.1,0,0,1,2.188-2.163,70.259,70.259,0,0,1-2.888-11.806c-2.39-14.537-12.113-13.625-15.589-10.892-5.74,4.51-6.072,12.748-.713,23.645,5.561,11.311,12.1,19.011,18.526,24.27C377.282,334.284,376.087,321.164,376.609,319.768Z" transform="translate(-340.392 -244.133)" fill="#f25f46"/><path d="M365.172,290.62l.32.206,2.619.765a2.427,2.427,0,0,1,1.73,2.607l-.271,2.369a12.361,12.361,0,0,1,7.808,10.756" transform="translate(-333.384 -246.125)" fill="#fff"/><path d="M357.719,287.99l.2-1.057c-1.249.556,6.594-2.437,12.3,2.939l.526,3.756A28.536,28.536,0,0,0,357.719,287.99Z" transform="translate(-338.952 -249.133)" fill="#fff"/><path d="M355.477,286.536a5.126,5.126,0,1,0,4.609-5.595A5.126,5.126,0,0,0,355.477,286.536Z" transform="translate(-340.645 -253.375)" fill="#131637"/><path d="M353.9,288.533a3.774,3.774,0,1,0,3.393-4.12A3.774,3.774,0,0,0,353.9,288.533Z" transform="translate(-341.822 -250.776)" fill="#131637"/></g><path d="M358.3,296.41c.964-4.312,7.918-11.168,18.964-1.422,13.219,11.664,26.433,17.633,50.545,10.343l4.06,7.349s-21.339,19.8-59.167,2.5C361.658,310.123,356.7,303.535,358.3,296.41Z" transform="matrix(0.53, -0.848, 0.848, 0.53, -422.02, 208.602)" fill="#f25f46"/><path d="M6.6,10.72,7.17.693.851,0,0,10.067Z" transform="translate(61.948 10.396) rotate(-70)" fill="#fff"/><path d="M377.353,265.345s-11.233-1.845-15.7,14.474c0,0-1.583,28.161-14.937,40.285s-6.458,29.959,14.937,31.614a28.009,28.009,0,0,0,2.387-18.236s6.082-13.2,3.2-21.934c0,0,10.129-2.427,5.451-15.054-5.039-9.379,2.179-20.959,2.179-20.959l7.814-5.224Z" transform="translate(-339.886 -265.057)" fill="#131637"/></g><g transform="translate(690.808 720.984)"><path d="M369.893,325.833h6.657l-3.742,115.5h-4.971s-8.961-35.984-6.562-59.719c2.058-27.33-2.352-39.176-2.352-39.176" transform="translate(-323.735 -325.833)" fill="#00216c"/><path d="M387.582,325.833l-9.6,54.348-33.532,51.5-5.14-2.144s12.423-37,25.656-54.747l-6.7-26.879a56.712,56.712,0,0,1-2.179-22.083Z" transform="translate(-338.387 -325.833)" fill="#002a88"/><path d="M339.707,385.19l-.743,1.048a1,1,0,0,0,.19,1.358l14.974,11.663s.77-5.657-6.3-11.565A24.207,24.207,0,0,0,339.707,385.19Z" transform="translate(-338.783 -281.481)" fill="#000f1f"/><path d="M363.585,392.282v1.309a.947.947,0,0,0,.924.968h18.651s-2.6-5.023-11.631-5.343A24.468,24.468,0,0,0,363.585,392.282Z" transform="translate(-320.251 -278.473)" fill="#000f1f"/></g><g transform="translate(713.518 674.303) rotate(-21)"><path d="M2.947,2.626c2.937-3.3,12.346-5.918,17.268,7.967,5.89,16.616,14.542,28.25,39.158,33.593l-.019,8.394S31.08,59.529,6.422,26.025C-.776,16.244-1.907,8.079,2.947,2.626Z" transform="matrix(0.53, -0.848, 0.848, 0.53, 10.595, 4.201)" fill="#f25f46"/><path d="M2.417,6.872s3.136-2.6,4.492-3.061c0,0,6.507-3.36,7.55-3.811,0,0,1.359,1.076-.182,2.537A22.452,22.452,0,0,1,10.4,5.291a17.4,17.4,0,0,0,5.109-.435c1.939-.629,5.8-1.763,6.938-1.192s.2,1.5.2,1.5-5.934,1.737-7.2,2.119c-1.115.335-.681.722-.681.722s7.193-.428,8.481-.5,1.815.612,1.49,1.74c0,0-3.837.253-6.18.615-.814.126-3.66.051-3.466.963,0,0,6.2.274,7.254.2a1.025,1.025,0,0,1,.978,1.7L14.873,13s-.587.129-.372.482a19.858,19.858,0,0,0,4.408,1.471c.435.016,1.793.18,1.5,1.262,0,0-.15.355-1.426.218s-7.338-.577-7.338-.577A18.66,18.66,0,0,1,3.6,13.95C-.457,11.907-.452,10.092.57,12.473l.816-2.333Z" transform="translate(73.764 -27.632) rotate(-31)" fill="#ffcda9"/><path d="M6.6,10.72,7.17.693.851,0,0,10.067Z" transform="matrix(0.53, -0.848, 0.848, 0.53, 75.719, -18.664)" fill="#fff"/></g></g><g transform="translate(738.959 326.031)"><path d="M582.162,220.567l.513,3.38-3.166.344-1.217-2.312Z" transform="translate(-533.791 -187.244)" fill="#fff"/><path d="M590.611,242.089v-5.074s3.067.563,7.859-1.409v-4.64a6.184,6.184,0,0,1-3.284-1.824l3.284-1.215-.609-2.431,2.65-1.529-4.229-7.221-.365-4.254-2.674,1.824-1.215,7.777-1.417-3.037s-2.517-1.374-3.444,1.093a3.3,3.3,0,0,0,3.444,4.5l-1.5,8.872H577.2v8.573Z" transform="translate(-549.587 -194.262)" fill="#ffcda9"/><path d="M599.276,227.53l1.411,3.863,1.22-8.6s8.266-.609,8.266-7.291l-2.859.148s2.594-5.706-1.992-9.679l-2.792,2.957s0-5.642-6.338-6.188l-1.265,4.072s-10.675-.28-15.312,8.711l-1.263-1.405.561,2.248-2.247.7,2.387.983s-5.481,14.452,6.812,23.943v1.9l2.6-1.9h9.309l1.5-8.872a3.637,3.637,0,0,1-3.581-3.076C595.3,227.28,598.063,226.855,599.276,227.53Z" transform="translate(-558.252 -202.737)" fill="#131637"/><path d="M580.654,229.17s6.883-4.076,18.17,0l2.629,5.022-21.586-1.12Z" transform="translate(-555.513 -181.343)" fill="#fff"/><path d="M601.179,231.915a28.7,28.7,0,0,0-20.534-2.291l-.464,2.3,13.611.707,7.386-.712Z" transform="translate(-555.828 -180.191)" opacity="0.4" fill="url(#a)"/><path d="M577.2,214.767l1.58,8.75,2.65-1.529Z" transform="translate(-530.505 -192.284)" fill="#ffcda9"/><path d="M601.372,232.864a336.265,336.265,0,0,0-8.65,46.816s2.1,18.158,5.606,26.4c3.9-23.1,6.5-47.371,6.5-47.371Z" transform="translate(-582.912 -176.559)" fill="#457bf4"/><path d="M580.088,235.812s11.954-12.477,36.7-2.424l8.672,71.15-4.573,5.847H574.533S572.306,266.322,580.088,235.812Z" transform="translate(-564.428 -179.507)" fill="#457bf4"/><path d="M547.754,254.267l7.307-6.98.146,3.564,7.773-6.646A17.464,17.464,0,0,1,551.972,259Z" transform="translate(-304.968 502.268) rotate(-76)" fill="#ffcda9"/><path d="M564.736,231.567s6.147,31.553,19.095,35.737c9.76,3.157,15.17-.546,15.17-.546l6,6.868a29.278,29.278,0,0,1-24.729,5.842c-19.091-4.1-25.1-24.283-25.1-24.283S552.282,234.66,564.736,231.567Z" transform="translate(-329.013 553.318) rotate(-76)" fill="#457bf4"/><rect width="5.118" height="9.121" transform="matrix(0.456, 0.89, -0.89, 0.456, 80.515, 27.928)" fill="#fff"/><path d="M566.175,347.795v1.852a1.374,1.374,0,0,0,1.374,1.376H595.28s-3.861-7.122-17.293-7.577A37.4,37.4,0,0,0,566.175,347.795Z" transform="translate(-523.751 -80.473)" fill="#000f1f"/><path d="M591.956,346.367v2.753a1.682,1.682,0,0,0,1.682,1.682h3.751a4.957,4.957,0,0,0,1.742-.318l15.293-5.766s-4.1-4.755-13.2-1.729Z" transform="translate(-591.078 -81.745)" fill="#000f1f"/><path d="M583.682,272.766l-2.228,73.4a113.282,113.282,0,0,0-3.506,11.309c-4.371,16.59-3.669,49.6-3.669,49.6s4.119,3.869,9.446-.529l14.206-63.964,8.95-43.08,5.913,41.585s-3.646,9.6-2.035,26.1c1,10.3,5.242,42.019,5.242,42.019s7.818-.561,11.126-4.211l2.91-76.3V272.766Z" transform="translate(-573.577 -141.888)"/><path d="M604.388,293.776l-3.646-6.636-14.115-7.784,8.48,8.813-1.8,58.293Z" transform="translate(-571.085 -136.161)"/><path d="M620.753,272.766l-46.515,5.291.161-5.291Z" transform="translate(-564.293 -141.888)" fill="#001f5f"/></g></g></g></svg>