<svg xmlns="http://www.w3.org/2000/svg" xmlns:xlink="http://www.w3.org/1999/xlink" width="816" height="852.704" viewBox="0 0 816 852.704"><defs><clipPath id="b"><rect width="816" height="852.704"/></clipPath></defs><g id="a" clip-path="url(#b)"><rect width="816" height="852.704" fill="#fff"/><g transform="translate(-584)"><g transform="translate(-58 -68)"><g transform="translate(117.856 68.438)"><g transform="translate(24.863 -38.532)"><path d="M1086.449,902.621c-.431-13.164-1.234-64.184-1.076-117.562.052-17.576-.589-35.776,0-52.667,1.653-47.432,0-151.69,0-151.69l-.454-95.494V380.3s2.815-255.359-.417-258c-2.633-2.155-4.985-1.12-7.484-1.4-3.771-.437-8.518-.55-22.06,0-22.625.919-69.454-2.038-162.926.953-15.468.495-79.636-.737-152.333-.542-113.73.306-247.562.409-247.562.409H339.2s-6.723.448-21.783-1.418c-6.24-.773,7.631.379,0,0-6.38-.317,10.576-.1,0,1.418-3.4.487-40.982-1.272-41.849,0-13.225,19.412-1.994,92.173,0,108.619,9.3,76.717-18.622,221.058,53.893,266.047,56.5,35.055,167.231-61.467,239.362-20.943,29.376,16.5,34.488,53.4,18.333,121.49-56.782,63.766-54.044,169.139-30.465,189.538,7.28,6.3-8.059-65.942,0,0,4.682,38.289,260.175-11.7,242.947,21.193-28.641,54.689,37.749,135.978,59.8,147.744,42.786,22.829,163,22.6,225.73,2.4-.7-6.639.069-11.869,0-16.738-.285-19.99-1.154-21.368,0-25.138C1085.758,914.052,1085.333,912.691,1086.449,902.621Z" transform="translate(230.036 -83.817)" fill="#fdefda" opacity="0.996"/></g><g transform="translate(779.029 415.916)"><path d="M420.383,235.825a.6.6,0,0,1-.6-.6,1.621,1.621,0,1,0-3.242,0,.6.6,0,0,1-1.2,0,2.816,2.816,0,1,1,5.632,0A.6.6,0,0,1,420.383,235.825Z" transform="translate(-415.349 -232.409)" fill="#fff"/><g transform="translate(8.773)"><path d="M423.609,235.825a.6.6,0,0,1-.6-.6,1.621,1.621,0,1,0-3.242,0,.6.6,0,1,1-1.194,0,2.816,2.816,0,1,1,5.632,0A.6.6,0,0,1,423.609,235.825Z" transform="translate(-418.575 -232.409)" fill="#fff"/></g></g><path d="M424.034,244.74a9.479,9.479,0,0,0,9.477-9.48H414.554A9.481,9.481,0,0,0,424.034,244.74Z" transform="translate(362.313 188.41)" fill="#fff"/><g transform="translate(543.323 185.045)"><rect width="71.874" height="12.103" transform="translate(8.229)" fill="#ffdea9"/><rect width="4.217" height="105.538" fill="#e2ebf4"/><rect width="82.282" height="12.103" transform="translate(8.229 17.429)" fill="#ffdea9"/><rect width="54.204" height="12.103" transform="translate(8.229 34.857)" fill="#ffdea9"/><rect width="10.33" height="12.103" transform="translate(8.229 69.714)" fill="#ffdea9"/><rect width="24.737" height="12.103" transform="translate(25.002 69.714)" fill="#ffdea9"/></g><g transform="translate(1168.835 764.584) rotate(180)"><rect width="71.874" height="12.103" transform="translate(8.229)" fill="#ffdea9"/><rect width="4.217" height="105.538" fill="#e2ebf4"/><rect width="82.282" height="12.103" transform="translate(8.229 17.429)" fill="#ffdea9"/><rect width="54.204" height="12.103" transform="translate(8.229 34.857)" fill="#ffdea9"/><rect width="10.33" height="12.103" transform="translate(8.229 69.714)" fill="#ffdea9"/><rect width="24.737" height="12.103" transform="translate(25.002 69.714)" fill="#ffdea9"/></g></g></g><g transform="translate(391 -21.257)"><ellipse cx="94.178" cy="35.055" rx="94.178" ry="35.055" transform="translate(829.624 520.552)" fill="#f8a966" opacity="0.6"/><g transform="translate(506.983 177.738)"><rect width="61.283" height="125.721" transform="translate(167.631 182.282)" fill="#86a4b6"/><path d="M695.819,381.786h-170.2a58.872,58.872,0,0,1,52.127-31.509h65.941a58.874,58.874,0,0,1,52.127,31.509Z" transform="translate(-412.448 -57.005)" fill="#a3bccf"/><path d="M7.776,0H388.769a7.776,7.776,0,0,1,7.776,7.776v242.4a7.776,7.776,0,0,1-7.776,7.776H7.777A7.777,7.777,0,0,1,0,250.18V7.776A7.776,7.776,0,0,1,7.776,0Z" fill="#a3bccf"/><rect width="367.327" height="214.938" rx="4" transform="translate(14.609 14.187)" fill="#fff"/></g><path d="M461.264,173.282v29.875H828.59V173.282a6.126,6.126,0,0,0-6.126-6.126H467.39A6.126,6.126,0,0,0,461.264,173.282Z" transform="translate(60.328 23.407)" fill="#ffc550"/><g transform="translate(533.901 205.807)"><path d="M495.207,181.4a4.287,4.287,0,1,1,4.287,4.287A4.287,4.287,0,0,1,495.207,181.4Z" transform="translate(-455.532 -177.11)" fill="#fff"/><path d="M482.254,181.4a4.287,4.287,0,1,1,4.287,4.287A4.287,4.287,0,0,1,482.254,181.4Z" transform="translate(-462.417 -177.11)" fill="#fff"/><path d="M469.3,181.4a4.287,4.287,0,1,1,4.288,4.287A4.288,4.288,0,0,1,469.3,181.4Z" transform="translate(-469.301 -177.11)" fill="#fff"/></g><g transform="translate(852.071 197.895)"><path d="M677.053,184.144a12.2,12.2,0,1,1,12.2,12.2A12.2,12.2,0,0,1,677.053,184.144Z" transform="translate(-677.053 -171.944)" fill="#fff"/><g transform="translate(5.916 6.033)"><path d="M681.838,188.332a.915.915,0,0,0,.649-.27L693.1,177.454a.919.919,0,1,0-1.3-1.3l-10.61,10.606a.921.921,0,0,0,.652,1.573Z" transform="translate(-680.916 -175.883)" fill="#291a6d"/><path d="M692.445,188.332a.921.921,0,0,0,.651-1.573l-10.609-10.606a.92.92,0,1,0-1.3,1.3l10.61,10.609A.915.915,0,0,0,692.445,188.332Z" transform="translate(-680.916 -175.883)" fill="#291a6d"/></g></g><g transform="translate(545.043 244.618)"><g transform="translate(1.711 7.733)"><path d="M565.25,265.3a5.191,5.191,0,0,0,.835-.374V207.5c-.3.247-.588.5-.882.757v57.079C565.221,265.327,565.232,265.31,565.25,265.3Z" transform="translate(-431.182 -207.501)" fill="#fff3e1"/><path d="M564.141,264.466V209.291c-.228.231-.46.461-.677.7-.07.078-.135.153-.205.23v54.245Z" transform="translate(-432.216 -206.55)" fill="#fff3e1"/><path d="M562.2,263.349V211.392c-.282.277-.583.522-.882.772v51.185Z" transform="translate(-433.249 -205.433)" fill="#fff3e1"/><path d="M560.251,261.926V214.07c-.28.3-.574.6-.882.91v46.946Z" transform="translate(-434.283 -204.01)" fill="#fff3e1"/><path d="M558.307,260.942V215.921c-.291.242-.587.476-.882.691v44.331Z" transform="translate(-435.316 -203.026)" fill="#fff3e1"/><path d="M556.364,260.283V217.161a5.118,5.118,0,0,1-.884.266v42.856Z" transform="translate(-436.35 -202.367)" fill="#fff3e1"/><path d="M554.417,260.344V217.379a9.227,9.227,0,0,1-.882-.332v43.3Z" transform="translate(-437.384 -202.427)" fill="#fff3e1"/><path d="M552.473,260.788V216.553l-.023-.009-.859-.332v44.577Z" transform="translate(-438.417 -202.872)" fill="#fff3e1"/><path d="M550.529,261.281v-45.5c-.3-.152-.593-.315-.882-.495v46Z" transform="translate(-439.45 -203.364)" fill="#fff3e1"/><path d="M548.583,261.721v-47.09c-.116-.057-.233-.113-.349-.176a3.451,3.451,0,0,1-.533.426v46.841Z" transform="translate(-440.485 -203.805)" fill="#fff3e1"/><path d="M546.639,261.038v-45.3q-.455.414-.882.867v44.432Z" transform="translate(-441.518 -203.122)" fill="#fff3e1"/><path d="M544.7,259.891V217.9q-.439.533-.882,1.064v40.929Z" transform="translate(-442.551 -201.975)" fill="#fff3e1"/><path d="M542.749,258.7V220.14c-.3.357-.594.724-.882,1.1V258.7Z" transform="translate(-443.585 -200.784)" fill="#fff3e1"/><path d="M540.805,257.3V222.78c-.291.429-.587.855-.882,1.28V257.3Z" transform="translate(-444.618 -199.38)" fill="#fff3e1"/><path d="M538.861,255.886V225.434c-.113.133-.219.271-.332.4a3.641,3.641,0,0,1-.55.516v29.535Z" transform="translate(-445.652 -197.97)" fill="#fff3e1"/><path d="M536.915,254.5V228.037a9.284,9.284,0,0,1-.882,1.262v25.2Z" transform="translate(-446.686 -196.586)" fill="#fff3e1"/><path d="M534.971,253.186V230.515c-.06.061-.115.133-.176.19-.246.338-.475.706-.706,1.066v21.415Z" transform="translate(-447.719 -195.269)" fill="#fff3e1"/><path d="M533.027,251.573V233.55c-.282.443-.581.865-.882,1.285v16.738Z" transform="translate(-448.752 -193.656)" fill="#fff3e1"/><path d="M531.081,250v-13.5a2.777,2.777,0,0,1-.882.772V250Z" transform="translate(-449.787 -192.086)" fill="#fff3e1"/><path d="M529.137,249.882V237.257a3.187,3.187,0,0,1-.882-.527v13.152Z" transform="translate(-450.82 -191.966)" fill="#fff3e1"/><path d="M527.193,251.472v-16.75c-.291-.334-.584-.663-.882-.983v17.733Z" transform="translate(-451.853 -193.556)" fill="#fff3e1"/><path d="M525.247,252.605V232.664q-.457-.505-.875-1.055l-.008,0v21Z" transform="translate(-452.887 -194.689)" fill="#fff3e1"/><path d="M523.3,253.5v-22.71c-.288-.3-.583-.59-.882-.861V253.5Z" transform="translate(-453.921 -195.582)" fill="#fff3e1"/><path d="M521.359,254.345V229.039c-.3-.231-.59-.469-.882-.7v26.011Z" transform="translate(-454.954 -196.429)" fill="#fff3e1"/><path d="M519.413,255.384V227.447a13.261,13.261,0,0,1-.882-1.069v29.006Z" transform="translate(-455.988 -197.468)" fill="#fff3e1"/><path d="M517.469,256.819V224.863c-.286-.4-.582-.792-.882-1.184v33.14Z" transform="translate(-457.021 -198.903)" fill="#fff3e1"/><path d="M515.525,257.916V222.387c-.291-.277-.583-.535-.882-.772v36.3Z" transform="translate(-458.054 -200)" fill="#fff3e1"/><path d="M513.579,258.38V220.918a4.249,4.249,0,0,0-.882-.176V258.38Z" transform="translate(-459.089 -200.464)" fill="#fff3e1"/><path d="M511.635,258.244V221a5.582,5.582,0,0,0-.882.508v36.737Z" transform="translate(-460.122 -200.328)" fill="#fff3e1"/><path d="M509.691,257.439V222.513c-.3.286-.593.582-.882.882v34.043Z" transform="translate(-461.155 -199.522)" fill="#fff3e1"/><path d="M507.747,256.335V224.59c-.294.343-.591.678-.884,1.029v30.716Z" transform="translate(-462.189 -198.418)" fill="#fff3e1"/><path d="M505.8,255.083V226.945c-.294.371-.588.738-.882,1.107v27.031Z" transform="translate(-463.223 -197.167)" fill="#fff3e1"/><path d="M503.857,253.8V229.36c-.294.354-.588.7-.882,1.046V253.8Z" transform="translate(-464.256 -195.883)" fill="#fff3e1"/><path d="M501.911,252.629V231.563c-.293.306-.582.62-.882.913v20.153Z" transform="translate(-465.29 -194.712)" fill="#fff3e1"/><path d="M499.967,251.538V233.615a3.239,3.239,0,0,1-.882.9v17.021Z" transform="translate(-466.323 -193.622)" fill="#fff3e1"/><path d="M498.023,251.094V234.569a4.557,4.557,0,0,1-.882-.118v16.643Z" transform="translate(-467.357 -193.177)" fill="#fff3e1"/><path d="M496.079,251.668V234.052c-.3-.208-.591-.436-.884-.682v18.3Z" transform="translate(-468.391 -193.752)" fill="#fff3e1"/><path d="M494.133,252.587V232.429c-.276-.242-.576-.512-.882-.787v20.945Z" transform="translate(-469.424 -194.67)" fill="#fff3e1"/><path d="M492.189,253.449V230.687c-.293-.233-.587-.459-.882-.668v23.43Z" transform="translate(-470.457 -195.533)" fill="#fff3e1"/><path d="M490.245,253.9V229.351a4.314,4.314,0,0,0-.456-.152c-.138-.032-.285-.018-.427-.037V253.9Z" transform="translate(-471.492 -195.988)" fill="#fff3e1"/><path d="M488.3,253.85V229.265a9.017,9.017,0,0,0-.882.308V253.85Z" transform="translate(-472.525 -195.934)" fill="#fff3e1"/><path d="M486.355,253.39V230.131c-.3.172-.593.342-.882.525V253.39Z" transform="translate(-473.558 -195.473)" fill="#fff3e1"/><path d="M484.411,252.722V231.387c-.306.208-.6.4-.884.594v20.741Z" transform="translate(-474.592 -194.806)" fill="#fff3e1"/><path d="M482.465,251.965V232.811c-.285.245-.58.5-.882.764v18.39Z" transform="translate(-475.626 -194.049)" fill="#fff3e1"/><path d="M480.521,251.08v-16.6c-.293.236-.587.461-.882.68V251.08Z" transform="translate(-476.659 -193.164)" fill="#fff3e1"/><path d="M477.788,249.646a1.732,1.732,0,0,0,.789.462V235.757a6.455,6.455,0,0,1-.884.345V249.57A.616.616,0,0,1,477.788,249.646Z" transform="translate(-477.693 -192.483)" fill="#fff3e1"/></g><g transform="translate(6.455)"><rect width="73.296" height="2.541" transform="translate(0 11.374)" fill="#a3bccf"/><rect width="73.296" height="2.543" transform="translate(0 5.686)" fill="#a3bccf"/><rect width="13.568" height="2.541" transform="translate(0 11.374)" fill="#291a6d"/><rect width="26.852" height="2.543" transform="translate(0 5.686)" fill="#291a6d"/><path d="M489.245,204.993h-7.451a1.161,1.161,0,0,1-1-1.271h0a1.16,1.16,0,0,1,1-1.27h7.451a1.16,1.16,0,0,1,1,1.27h0A1.161,1.161,0,0,1,489.245,204.993Z" transform="translate(-480.791 -202.452)" fill="#291a6d"/></g><path d="M617.721,204.586l-8.391,1.239,4.045,2.182L597.61,223.739l-14.044-5.146-25.479,35.921L531.44,226.488,509.986,250.86,495.32,239.611l-17.194,13.041a3.912,3.912,0,0,0-1.55,3.12h0l18.744-14.214,14.81,11.379L531.468,228.7l26.75,28.126L583.99,220.5l13.9,5.078,16.5-16.457,2.028,4.389Z" transform="translate(-476.576 -201.318)" fill="#f25f46"/><g transform="translate(16.781 16.661)"><path d="M515.1,220.31a1.964,1.964,0,1,0-1.962,2.042A2,2,0,0,0,515.1,220.31Z" transform="translate(-474.968 -210.708)" fill="#f3203f"/><path d="M532.531,238.616a1.963,1.963,0,1,0-1.962,1.963A1.964,1.964,0,0,0,532.531,238.616Z" transform="translate(-465.704 -200.937)" fill="#f3203f"/><path d="M549.139,215.256a1.963,1.963,0,1,0-1.962,1.925A1.944,1.944,0,0,0,549.139,215.256Z" transform="translate(-456.876 -213.331)" fill="#f3203f"/><path d="M558.227,218.542a1.964,1.964,0,1,0-1.962,2.042A2,2,0,0,0,558.227,218.542Z" transform="translate(-452.046 -211.646)" fill="#f3203f"/><path d="M491.46,229.077a1.967,1.967,0,1,0-1.963,2.086A2.028,2.028,0,0,0,491.46,229.077Z" transform="translate(-487.533 -206.071)" fill="#f3203f"/><path d="M501.082,236.081a1.964,1.964,0,1,0-1.965,1.966A1.967,1.967,0,0,0,501.082,236.081Z" transform="translate(-482.42 -202.287)" fill="#f3203f"/></g></g><g transform="translate(542.56 324.488)"><path d="M3.459,0H140.836a3.459,3.459,0,0,1,3.459,3.459v63.71a3.459,3.459,0,0,1-3.459,3.459H3.458A3.458,3.458,0,0,1,0,67.17V3.459A3.459,3.459,0,0,1,3.459,0Z" fill="#fff3e1"/><rect width="1.506" height="57.443" transform="translate(70.643 6.914)" fill="#a3bccf"/><g transform="translate(79.22 13.265)"><g transform="translate(0 12.956)"><path d="M531.5,274.133a2.408,2.408,0,1,0-2.408,2.406A2.407,2.407,0,0,0,531.5,274.133Z" transform="translate(-526.682 -271.725)" fill="#a3bccf"/><path d="M537.19,274.133a2.408,2.408,0,1,0-2.409,2.406A2.407,2.407,0,0,0,537.19,274.133Z" transform="translate(-523.658 -271.725)" fill="#a3bccf"/><path d="M542.878,274.133a2.407,2.407,0,1,0-2.407,2.406A2.407,2.407,0,0,0,542.878,274.133Z" transform="translate(-520.634 -271.725)" fill="#a3bccf"/><path d="M548.569,274.133a2.408,2.408,0,1,0-2.409,2.406A2.408,2.408,0,0,0,548.569,274.133Z" transform="translate(-517.61 -271.725)" fill="#a3bccf"/><path d="M554.258,274.133a2.408,2.408,0,1,0-2.408,2.406A2.406,2.406,0,0,0,554.258,274.133Z" transform="translate(-514.587 -271.725)" fill="#a3bccf"/><path d="M559.947,274.133a2.407,2.407,0,1,0-2.407,2.406A2.407,2.407,0,0,0,559.947,274.133Z" transform="translate(-511.562 -271.725)" fill="#a3bccf"/><path d="M565.638,274.133a2.408,2.408,0,1,0-2.407,2.406A2.407,2.407,0,0,0,565.638,274.133Z" transform="translate(-508.538 -271.725)" fill="#a3bccf"/><path d="M531.5,279.972a2.408,2.408,0,1,0-2.408,2.408A2.408,2.408,0,0,0,531.5,279.972Z" transform="translate(-526.682 -268.622)" fill="#a3bccf"/><path d="M537.19,279.972a2.408,2.408,0,1,0-2.409,2.408A2.408,2.408,0,0,0,537.19,279.972Z" transform="translate(-523.658 -268.622)" fill="#a3bccf"/><path d="M542.878,279.972a2.407,2.407,0,1,0-2.407,2.408A2.408,2.408,0,0,0,542.878,279.972Z" transform="translate(-520.634 -268.622)" fill="#a3bccf"/><path d="M548.569,279.972a2.408,2.408,0,1,0-2.409,2.408A2.409,2.409,0,0,0,548.569,279.972Z" transform="translate(-517.61 -268.622)" fill="#a3bccf"/><path d="M554.258,279.972a2.408,2.408,0,1,0-2.408,2.408A2.407,2.407,0,0,0,554.258,279.972Z" transform="translate(-514.587 -268.622)" fill="#a3bccf"/><path d="M559.947,279.972a2.407,2.407,0,1,0-2.407,2.408A2.408,2.408,0,0,0,559.947,279.972Z" transform="translate(-511.562 -268.622)" fill="#a3bccf"/><path d="M565.638,279.972a2.408,2.408,0,1,0-2.407,2.408A2.408,2.408,0,0,0,565.638,279.972Z" transform="translate(-508.538 -268.622)" fill="#a3bccf"/><circle cx="2.408" cy="2.408" r="2.408" transform="translate(0 17.885)" fill="#a3bccf"/><path d="M537.19,285.812a2.408,2.408,0,1,0-2.409,2.407A2.409,2.409,0,0,0,537.19,285.812Z" transform="translate(-523.658 -265.518)" fill="#a3bccf"/><path d="M542.878,285.812a2.407,2.407,0,1,0-2.407,2.407A2.408,2.408,0,0,0,542.878,285.812Z" transform="translate(-520.634 -265.518)" fill="#a3bccf"/><circle cx="3.44" cy="3.44" r="3.44" transform="translate(25.11 16.853)" fill="#00cf76"/><circle cx="2.408" cy="2.408" r="2.408" transform="translate(34.855 17.885)" fill="#a3bccf"/><path d="M559.947,285.812a2.407,2.407,0,1,0-2.407,2.407A2.408,2.408,0,0,0,559.947,285.812Z" transform="translate(-511.562 -265.518)" fill="#a3bccf"/><path d="M565.638,285.812a2.408,2.408,0,1,0-2.407,2.407A2.408,2.408,0,0,0,565.638,285.812Z" transform="translate(-508.538 -265.518)" fill="#a3bccf"/><path d="M531.5,291.651a2.408,2.408,0,1,0-2.408,2.408A2.407,2.407,0,0,0,531.5,291.651Z" transform="translate(-526.682 -262.414)" fill="#a3bccf"/><path d="M537.19,291.651a2.408,2.408,0,1,0-2.409,2.408A2.407,2.407,0,0,0,537.19,291.651Z" transform="translate(-523.658 -262.414)" fill="#a3bccf"/><path d="M542.878,291.651a2.407,2.407,0,1,0-2.407,2.408A2.407,2.407,0,0,0,542.878,291.651Z" transform="translate(-520.634 -262.414)" fill="#a3bccf"/><path d="M548.569,291.651a2.408,2.408,0,1,0-2.409,2.408A2.408,2.408,0,0,0,548.569,291.651Z" transform="translate(-517.61 -262.414)" fill="#a3bccf"/><path d="M554.258,291.651a2.408,2.408,0,1,0-2.408,2.408A2.406,2.406,0,0,0,554.258,291.651Z" transform="translate(-514.587 -262.414)" fill="#a3bccf"/></g><path d="M542.1,268.193H529.149a2.464,2.464,0,0,1-2.466-2.464h0a2.464,2.464,0,0,1,2.466-2.464H542.1a2.462,2.462,0,0,1,2.464,2.464h0A2.462,2.462,0,0,1,542.1,268.193Z" transform="translate(-526.682 -263.265)" fill="#00cf76"/><path d="M545.406,268.193H543a2.465,2.465,0,0,1-2.466-2.464h0A2.465,2.465,0,0,1,543,263.265h2.408a2.463,2.463,0,0,1,2.464,2.464h0A2.463,2.463,0,0,1,545.406,268.193Z" transform="translate(-519.321 -263.265)" fill="#00cf76"/></g><g transform="translate(5.956 9.424)"><rect width="56.182" height="2.408" transform="translate(0 10.777)" fill="#fff"/><rect width="56.182" height="2.406" transform="translate(0 5.388)" fill="#fff"/><rect width="45.69" height="2.408" transform="translate(0 10.777)" fill="#457bf4"/><rect width="19.263" height="2.406" transform="translate(0 5.388)" fill="#a3bccf"/><path d="M488.99,263.163h-8.942a1.2,1.2,0,0,1-1.2-1.2h0a1.2,1.2,0,0,1,1.2-1.2h8.942a1.2,1.2,0,0,1,1.2,1.2h0A1.2,1.2,0,0,1,488.99,263.163Z" transform="translate(-478.844 -260.757)" fill="#457bf4"/><g transform="translate(0 19.618)"><rect width="56.182" height="2.408" transform="translate(0 10.778)" fill="#fff"/><rect width="56.182" height="2.408" transform="translate(0 5.389)" fill="#fff"/><rect width="45.69" height="2.408" transform="translate(0 10.778)" fill="#457bf4"/><rect width="19.263" height="2.408" transform="translate(0 5.389)" fill="#a3bccf"/><path d="M488.99,275.976h-8.942a1.2,1.2,0,0,1-1.2-1.2h0a1.2,1.2,0,0,1,1.2-1.205h8.942a1.2,1.2,0,0,1,1.2,1.205h0A1.2,1.2,0,0,1,488.99,275.976Z" transform="translate(-478.844 -273.567)" fill="#fff"/></g><g transform="translate(0 39.24)"><rect width="56.182" height="2.408" transform="translate(0 10.777)" fill="#e7edff"/><rect width="56.182" height="2.408" transform="translate(0 5.389)" fill="#fff"/><rect width="45.69" height="2.408" transform="translate(0 10.777)" fill="#457bf4"/><rect width="19.263" height="2.408" transform="translate(0 5.389)" fill="#a3bccf"/><path d="M488.99,288.787h-8.942a1.2,1.2,0,0,1-1.2-1.2h0a1.2,1.2,0,0,1,1.2-1.2h8.942a1.2,1.2,0,0,1,1.2,1.2h0A1.2,1.2,0,0,1,488.99,288.787Z" transform="translate(-478.844 -286.379)" fill="#fff"/></g></g></g><g transform="translate(717.084 250.28)"><g transform="translate(0 28.231)"><path d="M605.946,228.887h25.315a2.152,2.152,0,0,0,2.152-2.153h0a2.151,2.151,0,0,0-2.152-2.15H605.946a2.151,2.151,0,0,0-2.15,2.15h0A2.152,2.152,0,0,0,605.946,228.887Z" transform="translate(-581.001 -224.583)" fill="#fff3e1"/><path d="M627.73,228.887h1.054a2.152,2.152,0,0,0,2.15-2.153h0a2.151,2.151,0,0,0-2.15-2.15H627.73a2.151,2.151,0,0,0-2.15,2.15h0A2.152,2.152,0,0,0,627.73,228.887Z" transform="translate(-569.423 -224.583)" fill="#fff3e1"/><path d="M591.064,233.48h25.315a2.151,2.151,0,0,0,2.152-2.15h0a2.152,2.152,0,0,0-2.152-2.152H591.064a2.152,2.152,0,0,0-2.152,2.152h0A2.151,2.151,0,0,0,591.064,233.48Z" transform="translate(-588.912 -222.141)" fill="#fff3e1"/><path d="M612.849,233.48H613.9a2.15,2.15,0,0,0,2.152-2.15h0a2.151,2.151,0,0,0-2.152-2.152h-1.051a2.152,2.152,0,0,0-2.153,2.152h0A2.152,2.152,0,0,0,612.849,233.48Z" transform="translate(-577.334 -222.141)" fill="#fff3e1"/><path d="M591.062,228.887h14.289a2.152,2.152,0,0,0,2.152-2.153h0a2.151,2.151,0,0,0-2.152-2.15H591.062a2.151,2.151,0,0,0-2.15,2.15h0A2.152,2.152,0,0,0,591.062,228.887Z" transform="translate(-588.912 -224.583)" fill="#fff3e1"/><path d="M619.09,233.48h14.287a2.151,2.151,0,0,0,2.15-2.15h0a2.151,2.151,0,0,0-2.15-2.152H619.09a2.151,2.151,0,0,0-2.152,2.152h0A2.15,2.15,0,0,0,619.09,233.48Z" transform="translate(-574.016 -222.141)" fill="#fff3e1"/><g transform="translate(0 14.754)"><path d="M605.946,238.519h25.315a2.151,2.151,0,0,0,2.152-2.152h0a2.151,2.151,0,0,0-2.152-2.15H605.946a2.151,2.151,0,0,0-2.15,2.15h0A2.15,2.15,0,0,0,605.946,238.519Z" transform="translate(-581.001 -234.217)" fill="#fff3e1"/><path d="M627.73,238.519h1.054a2.15,2.15,0,0,0,2.15-2.152h0a2.151,2.151,0,0,0-2.15-2.15H627.73a2.151,2.151,0,0,0-2.15,2.15h0A2.15,2.15,0,0,0,627.73,238.519Z" transform="translate(-569.423 -234.217)" fill="#fff3e1"/><path d="M591.062,243.114h25.319a2.151,2.151,0,0,0,2.15-2.15h0a2.15,2.15,0,0,0-2.15-2.152H591.062a2.15,2.15,0,0,0-2.15,2.152h0A2.151,2.151,0,0,0,591.062,243.114Z" transform="translate(-588.912 -231.775)" fill="#fff3e1"/><path d="M612.849,243.114H613.9a2.15,2.15,0,0,0,2.152-2.15h0a2.15,2.15,0,0,0-2.152-2.152h-1.051a2.151,2.151,0,0,0-2.153,2.152h0A2.152,2.152,0,0,0,612.849,243.114Z" transform="translate(-577.334 -231.775)" fill="#fff3e1"/><path d="M591.064,238.519h14.287a2.151,2.151,0,0,0,2.152-2.152h0a2.151,2.151,0,0,0-2.152-2.15H591.064a2.151,2.151,0,0,0-2.152,2.15h0A2.151,2.151,0,0,0,591.064,238.519Z" transform="translate(-588.912 -234.217)" fill="#fff3e1"/><path d="M619.09,243.114h14.287a2.151,2.151,0,0,0,2.15-2.15h0a2.15,2.15,0,0,0-2.15-2.152H619.09a2.15,2.15,0,0,0-2.152,2.152h0A2.15,2.15,0,0,0,619.09,243.114Z" transform="translate(-574.016 -231.775)" fill="#fff3e1"/></g></g><g transform="translate(72.052 28.231)"><path d="M652.994,228.887h25.316a2.152,2.152,0,0,0,2.152-2.153h0a2.151,2.151,0,0,0-2.152-2.15H652.994a2.152,2.152,0,0,0-2.152,2.15h0A2.153,2.153,0,0,0,652.994,228.887Z" transform="translate(-628.049 -224.583)" fill="#fff3e1"/><path d="M674.777,228.887h1.052a2.152,2.152,0,0,0,2.152-2.153h0a2.151,2.151,0,0,0-2.152-2.15h-1.052a2.151,2.151,0,0,0-2.15,2.15h0A2.152,2.152,0,0,0,674.777,228.887Z" transform="translate(-616.47 -224.583)" fill="#fff3e1"/><path d="M638.111,233.48h25.316a2.151,2.151,0,0,0,2.152-2.15h0a2.152,2.152,0,0,0-2.152-2.152H638.111a2.152,2.152,0,0,0-2.152,2.152h0A2.151,2.151,0,0,0,638.111,233.48Z" transform="translate(-635.959 -222.141)" fill="#fff3e1"/><path d="M659.895,233.48h1.052a2.151,2.151,0,0,0,2.152-2.15h0a2.152,2.152,0,0,0-2.152-2.152h-1.052a2.152,2.152,0,0,0-2.152,2.152h0A2.151,2.151,0,0,0,659.895,233.48Z" transform="translate(-624.381 -222.141)" fill="#fff3e1"/><path d="M638.109,228.887H652.4a2.152,2.152,0,0,0,2.153-2.153h0a2.152,2.152,0,0,0-2.153-2.15H638.109a2.151,2.151,0,0,0-2.15,2.15h0A2.152,2.152,0,0,0,638.109,228.887Z" transform="translate(-635.959 -224.583)" fill="#fff3e1"/><path d="M666.137,233.48h14.286a2.151,2.151,0,0,0,2.152-2.15h0a2.152,2.152,0,0,0-2.152-2.152H666.137a2.152,2.152,0,0,0-2.153,2.152h0A2.152,2.152,0,0,0,666.137,233.48Z" transform="translate(-621.064 -222.141)" fill="#fff3e1"/><g transform="translate(0 14.754)"><path d="M652.994,238.519h25.316a2.151,2.151,0,0,0,2.152-2.152h0a2.151,2.151,0,0,0-2.152-2.15H652.994a2.152,2.152,0,0,0-2.152,2.15h0A2.152,2.152,0,0,0,652.994,238.519Z" transform="translate(-628.049 -234.217)" fill="#fff3e1"/><path d="M674.777,238.519h1.052a2.151,2.151,0,0,0,2.152-2.152h0a2.151,2.151,0,0,0-2.152-2.15h-1.052a2.151,2.151,0,0,0-2.15,2.15h0A2.15,2.15,0,0,0,674.777,238.519Z" transform="translate(-616.47 -234.217)" fill="#fff3e1"/><path d="M638.109,243.114h25.317a2.151,2.151,0,0,0,2.152-2.15h0a2.151,2.151,0,0,0-2.152-2.152H638.109a2.15,2.15,0,0,0-2.15,2.152h0A2.151,2.151,0,0,0,638.109,243.114Z" transform="translate(-635.959 -231.775)" fill="#fff3e1"/><path d="M659.895,243.114h1.052a2.151,2.151,0,0,0,2.152-2.15h0a2.151,2.151,0,0,0-2.152-2.152h-1.052a2.151,2.151,0,0,0-2.152,2.152h0A2.151,2.151,0,0,0,659.895,243.114Z" transform="translate(-624.381 -231.775)" fill="#fff3e1"/><path d="M638.111,238.519H652.4a2.151,2.151,0,0,0,2.153-2.152h0a2.152,2.152,0,0,0-2.153-2.15H638.111a2.151,2.151,0,0,0-2.152,2.15h0A2.151,2.151,0,0,0,638.111,238.519Z" transform="translate(-635.959 -234.217)" fill="#fff3e1"/><path d="M666.137,243.114h14.286a2.151,2.151,0,0,0,2.152-2.15h0a2.151,2.151,0,0,0-2.152-2.152H666.137a2.151,2.151,0,0,0-2.153,2.152h0A2.152,2.152,0,0,0,666.137,243.114Z" transform="translate(-621.064 -231.775)" fill="#fff3e1"/></g></g><g transform="translate(0.291)"><path d="M623.235,214.986h80.353a4.418,4.418,0,0,0,4.418-4.418h0a4.417,4.417,0,0,0-4.418-4.418H623.235a4.418,4.418,0,0,0-4.42,4.418h0A4.419,4.419,0,0,0,623.235,214.986Z" transform="translate(-573.31 -206.149)" fill="#fff3e1"/><path d="M593.519,214.986h25.85a4.419,4.419,0,0,0,4.418-4.418h0a4.418,4.418,0,0,0-4.418-4.418h-25.85a4.417,4.417,0,0,0-4.417,4.418h0A4.418,4.418,0,0,0,593.519,214.986Z" transform="translate(-589.102 -206.149)" fill="#fff3e1"/></g></g><g transform="translate(713.14 324.461)"><path d="M2.14,0H136.8a2.14,2.14,0,0,1,2.14,2.14v66.4a2.14,2.14,0,0,1-2.14,2.14H2.139A2.139,2.139,0,0,1,0,68.543V2.14A2.14,2.14,0,0,1,2.14,0Z" fill="#fff3e1"/><g transform="translate(9.346 19.92)"><rect width="7.412" height="35.996" transform="translate(0 3.483)" fill="#f7882d"/><rect width="7.411" height="25.093" transform="translate(15.361 14.386)" fill="#f25f46"/><rect width="7.412" height="39.479" transform="translate(30.721)" fill="#f7882d"/><rect width="7.412" height="19.74" transform="translate(46.082 19.739)" fill="#f25f46"/><rect width="7.412" height="16.139" transform="translate(61.443 23.34)" fill="#f7882d"/></g><g transform="translate(91.199 14.712)"><path d="M660.495,270.1H648.839a2.956,2.956,0,0,1-2.953-2.956h0a2.955,2.955,0,0,1,2.953-2.954h11.656a2.955,2.955,0,0,1,2.954,2.954h0A2.956,2.956,0,0,1,660.495,270.1Z" transform="translate(-645.886 -264.192)" fill="#f7882d"/><path d="M660.495,276.835H648.839a2.955,2.955,0,0,1-2.953-2.954h0a2.955,2.955,0,0,1,2.953-2.954h11.656a2.955,2.955,0,0,1,2.954,2.954h0A2.955,2.955,0,0,1,660.495,276.835Z" transform="translate(-645.886 -260.613)" fill="#f25f46"/></g><g transform="translate(86.48 36.251)"><path d="M655.178,280.512H643.934a1.129,1.129,0,0,1-1.129-1.129h0a1.127,1.127,0,0,1,1.129-1.127h11.244a1.126,1.126,0,0,1,1.127,1.127h0A1.127,1.127,0,0,1,655.178,280.512Z" transform="translate(-642.805 -278.256)" fill="#f7882d"/><path d="M658.686,280.512h-4.833a1.129,1.129,0,0,1-1.127-1.129h0a1.127,1.127,0,0,1,1.127-1.127h4.833a1.127,1.127,0,0,1,1.129,1.127h0A1.129,1.129,0,0,1,658.686,280.512Z" transform="translate(-637.533 -278.256)" fill="#f7882d"/><path d="M652.535,283.351h-3.628a1.128,1.128,0,0,1-1.129-1.127h0a1.128,1.128,0,0,1,1.129-1.127h3.628a1.126,1.126,0,0,1,1.127,1.127h0A1.127,1.127,0,0,1,652.535,283.351Z" transform="translate(-640.162 -276.746)" fill="#f7882d"/><path d="M646.758,283.351h-2.824a1.128,1.128,0,0,1-1.129-1.127h0a1.127,1.127,0,0,1,1.129-1.127h2.824a1.127,1.127,0,0,1,1.127,1.127h0A1.128,1.128,0,0,1,646.758,283.351Z" transform="translate(-642.805 -276.746)" fill="#f7882d"/><path d="M658.686,283.351h-4.833a1.128,1.128,0,0,1-1.127-1.127h0a1.127,1.127,0,0,1,1.127-1.127h4.833a1.128,1.128,0,0,1,1.129,1.127h0A1.128,1.128,0,0,1,658.686,283.351Z" transform="translate(-637.533 -276.746)" fill="#f7882d"/><path d="M655.178,286.044H643.934a1.128,1.128,0,0,1-1.129-1.129h0a1.128,1.128,0,0,1,1.129-1.127h11.244a1.127,1.127,0,0,1,1.127,1.127h0A1.126,1.126,0,0,1,655.178,286.044Z" transform="translate(-642.805 -275.316)" fill="#f7882d"/><path d="M658.686,286.044h-4.833a1.127,1.127,0,0,1-1.127-1.129h0a1.128,1.128,0,0,1,1.127-1.127h4.833a1.129,1.129,0,0,1,1.129,1.127h0A1.128,1.128,0,0,1,658.686,286.044Z" transform="translate(-637.533 -275.316)" fill="#f7882d"/><path d="M652.535,288.885h-3.628a1.128,1.128,0,0,1-1.129-1.129h0a1.128,1.128,0,0,1,1.129-1.127h3.628a1.127,1.127,0,0,1,1.127,1.127h0A1.126,1.126,0,0,1,652.535,288.885Z" transform="translate(-640.162 -273.806)" fill="#f7882d"/><path d="M646.758,288.885h-2.824a1.128,1.128,0,0,1-1.129-1.129h0a1.128,1.128,0,0,1,1.129-1.127h2.824a1.128,1.128,0,0,1,1.127,1.127h0A1.127,1.127,0,0,1,646.758,288.885Z" transform="translate(-642.805 -273.806)" fill="#f7882d"/><path d="M658.686,288.885h-4.833a1.127,1.127,0,0,1-1.127-1.129h0a1.128,1.128,0,0,1,1.127-1.127h4.833a1.128,1.128,0,0,1,1.129,1.127h0A1.128,1.128,0,0,1,658.686,288.885Z" transform="translate(-637.533 -273.806)" fill="#f7882d"/></g></g><g transform="translate(801.289 123.116)"><rect width="66.375" height="59.561" rx="4.084" transform="translate(9.285 0) rotate(8.969)" fill="#e6edf1"/><path d="M698.088,185.385l-45.4-7.166a6.279,6.279,0,0,1-5.225-7.183l6.2-39.306a6.281,6.281,0,0,1,7.186-5.224l45.4,7.164a6.279,6.279,0,0,1,5.224,7.184l-6.2,39.306A6.282,6.282,0,0,1,698.088,185.385Z" transform="translate(-642.042 -121.356)" fill="#a3bccf"/><path d="M688.261,149.988a14.57,14.57,0,1,0-16.664,12.12A14.572,14.572,0,0,0,688.261,149.988Z" transform="translate(-635.708 -117.787)" fill="#fff"/><path d="M679.2,146.092l-10.538-8.524a.807.807,0,0,0-1.3.5l-2.113,13.391a.806.806,0,0,0,1.086.878l12.655-4.864A.807.807,0,0,0,679.2,146.092Z" transform="translate(-632.552 -115.531)" fill="#f25f46"/><g transform="translate(10.237 46.169)"><path d="M699.489,162.769a2.112,2.112,0,0,1-2.424,1.763l-44.7-7.053a2.121,2.121,0,0,1,.662-4.19l44.693,7.056A2.123,2.123,0,0,1,699.489,162.769Z" transform="translate(-650.579 -153.263)" fill="#fff"/><path d="M673.487,156.519l-.662,4.189-20.456-3.228a2.121,2.121,0,0,1,.662-4.19Z" transform="translate(-650.579 -153.263)" fill="#f25f46"/></g></g><g transform="translate(852.078 396.57)"><path d="M781.591,461.534h0a3.659,3.659,0,0,0,3.558-4.516L748.6,305.356h-7.527l36.958,153.377A3.661,3.661,0,0,0,781.591,461.534Z" transform="translate(-643.032 -299.711)" fill="#86a4b6"/><path d="M680.717,461.534h0a3.658,3.658,0,0,1-3.556-4.516l36.544-151.662h7.527L684.275,458.733A3.661,3.661,0,0,1,680.717,461.534Z" transform="translate(-677.057 -299.711)" fill="#86a4b6"/><path d="M700.238,312.96h80.912a5.645,5.645,0,0,0,5.645-5.645h0a5.645,5.645,0,0,0-5.645-5.645H700.238a5.644,5.644,0,0,0-5.644,5.645h0A5.644,5.644,0,0,0,700.238,312.96Z" transform="translate(-667.737 -301.67)" fill="#86a4b6"/><rect width="81.863" height="8.781" transform="translate(112.483 53.313) rotate(180)" fill="#86a4b6"/><rect width="102.723" height="8.782" transform="translate(124.319 95.338) rotate(180)" fill="#86a4b6"/><rect width="118.26" height="8.781" transform="translate(131.062 131.403) rotate(180)" fill="#86a4b6"/></g><g transform="translate(863.297 134.254)"><path d="M720.206,168.986c-3.772-2.634-20.612-18.171-20.612-18.171s1.083-4.882.444-6.319a6.9,6.9,0,0,0-1.7-2.662s-3.159-2.317-4-2.423-.527,1.528-.211,2.159a29.011,29.011,0,0,0,2.913,3.089,1,1,0,0,1,.161.636c-.031.149-.207.089-.473-.118-1.006-.741-3.359-3.434-4.957-4.971-2.026-1.939-3.988-3.27-4.49-3.3a.7.7,0,0,0-.753,1c-.193,0-2.277.029-2,1.242,0,0-.153.035.394,1.026a2.183,2.183,0,0,0-.12,2.679c0,.015,2.72,5.565,2.72,5.581,1.034,1.433,3.15,4.956,7.5,5.636,0,0,14.989,22.064,19.119,23.824s19.915,9.206,19.915,9.206l1.392-11.721S723.98,171.62,720.206,168.986Z" transform="translate(-684.383 -126.923)" fill="#ffcda9"/><g transform="translate(36.001)"><path d="M707.943,304.462c.89-2.046,12.714-3.264,16.825-3.38,4.633-.124.539-2.895,4.271-2.4l3.74.512a13,13,0,0,1,1.323,6.034c0,.233-.006.466-.025.721-.165,2.5-7.625,2.666-14.817,1.943-4.48-.453-9.129-.617-11.088-2.613A.711.711,0,0,1,707.943,304.462Z" transform="translate(-707.89 -40.973)"/><path d="M728.379,293l-.6,11.342s-10.066,1.492-8.265-.314l-.533-10.552Z" transform="translate(-701.998 -43.961)" fill="#eac6bb"/><path d="M732.483,301.83c.924-1.971,11.932-2.274,15.745-2.075,4.3.233.637-2.836,4.071-2.058l3.44.8a14,14,0,0,1,.937,6.106c-.015.231-.029.462-.057.717-.274,2.47-7.587,2.074-14.214.8-4.129-.795-8.03-1.32-9.75-3.455A.754.754,0,0,1,732.483,301.83Z" transform="translate(-694.853 -41.533)"/><path d="M752.336,292.1l-1.247,11.29s-9.6,1.1-8.552-.706l.384-10.644Z" transform="translate(-689.518 -44.474)" fill="#eac6bb"/><path d="M722.752,208.88s29.446,9.388,52.227,4.816c0,0,2.189,31.232-8.065,128.873l-11.964-.308s-3.406-20.02-5.274-100.734l-2.476-.213s-9.38,68.53-15.67,101.254l-13.578-.533S717.612,238.269,722.752,208.88Z" transform="translate(-702.546 -88.671)"/><path d="M764.942,173.45s8.965,21.625,10.022,27.689-19.516,14.241-19.516,14.241l-3.032-6.33,11.293-8.965L752.416,177.4Z" transform="translate(-684.225 -107.502)" fill="#ffcda9"/><path d="M710.715,178.12c.527-7.91,3.443-17.724,3.443-17.724,12.3,2.8,25.216-1.957,39.457-3.276,3.166-.294,15.293-.028,22.413,4.137,7.942,4.643,14.241,18.543,15.56,23.026a86.4,86.4,0,0,1-10.324,1.679c1.42,20.631,1.515,58.991,1.515,58.991-24.789,2.375-59.074-6.305-59.074-6.305.718-7.2,3.4-31.982,3.8-59.638A59.349,59.349,0,0,1,710.715,178.12Z" transform="translate(-706.389 -116.226)" fill="#457bf4"/><path d="M732.392,137.723s-1.45,4.616-1.845,6.726-2.548,2.512-2.771,3.163c-.188.561,1.057,2.11,1.057,2.11s-2.77,6.066-1.057,8.043,7.648,1.977,7.648,1.977v10.285a15.493,15.493,0,0,0,15.163-.922v-9.889s5.406-12.131.527-19.384S732.392,137.723,732.392,137.723Z" transform="translate(-697.619 -127.43)" fill="#ffcda9"/><path d="M727.446,136.485c-.842-3.306.5-5.281,3.846-4.593,6.6,1.357,10.5-4.264,20.13.352a17.432,17.432,0,0,1,4.881,3.51,19.113,19.113,0,0,0-.179-2.276,6.815,6.815,0,0,1,1.3,3.461c1.077.208,3.671.822,4.086,1.973a6.56,6.56,0,0,0-2.994-.412c4.216,6.354,4.582,15.421-2.875,22.616-4.431,4.276-10.958.571-13.133-3.45,0,0,4.068.369,4.377-2.5.24-2.233-1.541-3.79-3.117-2.748-2.4,1.584-2.1,1.919-3.022,1.787a20.033,20.033,0,0,0,.318-7.327s-10.417-1.648-12.725-6.922a11.589,11.589,0,0,0,2.242,1.12A7.178,7.178,0,0,1,727.446,136.485Z" transform="translate(-697.627 -130.389)"/></g></g><g transform="translate(347.756 295.419)"><g transform="translate(0 145.006)"><rect width="51.757" height="38.099" transform="translate(275.101 115.921) rotate(180)" fill="#00cf76"/><rect width="51.757" height="75.236" transform="translate(204.355 115.921) rotate(180)" fill="#f25f46"/><rect width="51.757" height="115.921" transform="translate(133.607 115.921) rotate(180)" fill="#f7882d"/><rect width="51.757" height="58.751" transform="translate(62.861 115.921) rotate(180)" fill="#457bf4"/><path d="M352.7,402.767h275.55a4.948,4.948,0,0,1,4.948,4.947h0a4.95,4.95,0,0,1-4.948,4.95H352.7a4.949,4.949,0,0,1-4.947-4.95h0A4.946,4.946,0,0,1,352.7,402.767Z" transform="translate(-347.756 -291.793)" fill="#f2f2f2"/></g><g transform="translate(94.172)"><path d="M464.126,390.5c-.309,1.195,26.078,5.146,26.248,4.374.492-2.195-.323-5.2-1.645-5.905a9.347,9.347,0,0,0-2.925-.789c-2.446-.38-5.567-.562-8.21-1.7a13.211,13.211,0,0,1-2.939-1.674h-.014a6.247,6.247,0,0,1-1.913-2.052l-5.313-1.378A88.052,88.052,0,0,0,464.126,390.5Z" transform="translate(-380.08 -158.157)"/><path d="M447.215,402.595c-.147,1.227,26.533,1.613,26.6.826.194-2.241-1.015-5.112-2.42-5.633a9.357,9.357,0,0,0-3-.389c-2.475-.049-5.591.185-8.363-.59a13.218,13.218,0,0,1-3.136-1.265l-.014,0a6.233,6.233,0,0,1-2.169-1.778l-5.451-.655A88.206,88.206,0,0,0,447.215,402.595Z" transform="translate(-389.067 -151.919)"/><path d="M455.5,388.216l-.682,8.74a3.1,3.1,0,0,1-2.916,2.852h0a3.1,3.1,0,0,1-3.268-3l-.262-8.507Z" transform="translate(-388.451 -154.521)" fill="#f7d0bd"/><path d="M453.469,398.624c.839.539,10.431,1.5,10.851.2a14.758,14.758,0,0,1,.914-2.265c-2.475-.049-5.591.185-8.363-.59a13.218,13.218,0,0,1-3.137-1.265l-.014,0S452.633,398.1,453.469,398.624Z" transform="translate(-385.911 -151.075)"/><path d="M474.133,377.423l-1.842,8.572a3.1,3.1,0,0,1-3.273,2.437h0a3.1,3.1,0,0,1-2.838-3.409l.879-8.466Z" transform="translate(-378.996 -160.719)" fill="#f7d0bd"/><path d="M410.893,320.31s-5.461,11.742,7.1,23.756,45.542,24.662,47.231,29.578.149,58.273.149,58.273,10.414.548,13.762,0,9.033-55.268,5.726-63.2c-5.169-12.406-32.726-35.217-32.726-35.217s25.132,17.62,36.615,34.376c6.925,10.1,2.481,35.108,3.574,45.484,4.023,2.965,14.719,1.577,14.719,1.577s4.921-50.795-2.973-62.151c-16.519-23.763-51.812-40.13-51.812-40.13Z" transform="translate(-408.999 -194.682)" fill="#ffc550"/><path d="M435.53,269.844c-7.192-2.48-14.872,3.166-8.389,14.009s18.363,32.72,25.582,38.82c4.435,3.748,32.128,20.413,36.325,18.268l-2.921-7.034-20.436-15.327a26.762,26.762,0,0,1-8.752-11.354C452.224,295.6,442.832,272.36,435.53,269.844Z" transform="translate(-401.034 -217.742)" fill="#f25f46"/><path d="M431.537,265.091S416.75,270.4,411.986,296.4s-1.865,53.595-1.865,53.595,27.869,1.76,48.418-11.142c0,0-3.331-46.853-11.4-64.433C443.124,265.681,431.537,265.091,431.537,265.091Z" transform="translate(-409.247 -219.961)" fill="#f25f46"/><path d="M453.278,320.388l-20.412-1.6,18.616,8.135Z" transform="translate(-396.693 -191.422)" fill="#a3bccf"/><path d="M432.9,318.788l-.1,1.252,18.653,8.673.06-1.79Z" transform="translate(-396.727 -191.422)" fill="#e6edf1"/><path d="M487.285,327.412,445.042,324.1l-.06,1.79,42.266,3.044Z" transform="translate(-390.253 -188.599)" fill="#a3bccf"/><path d="M445.061,244.816a18.3,18.3,0,0,1,1.985,11.976c-.8,3.947,3.009,5.284,1.636,6.155-2.7,1.712-2.228,4.32-2.256,5.593s.841,7.01-7.088,5.967c-2.884-.38-4.412,2.351-4.385,5.993,0,0-1.47,6.562-12.91-1.1,0,0,2.127-13.5-1.3-24.5C427.682,246.729,433.177,237.3,445.061,244.816Z" transform="translate(-403.139 -232.196)" fill="#ffcda9"/><path d="M433.824,276.474c-5.271-5.486-14.678-3.192-14.693,9.439-.014,12.652,3.089,29.224,7.664,36.355,3.132,4.889,34.647,22.559,39.243,21.513l-1.1-7.536-24.274-17.3a11.319,11.319,0,0,1-3.59-7.967C436.834,302.281,438.117,280.944,433.824,276.474Z" transform="translate(-403.993 -215.398)" fill="#f25f46"/><path d="M487.264,339.432l-42.242-3.313,9.18-33.4a1.674,1.674,0,0,1,1.744-1.225l38.846,3.046a1.674,1.674,0,0,1,1.483,2.112Z" transform="translate(-390.232 -200.618)" fill="#e6edf1"/><path d="M420.229,251.57a8.589,8.589,0,0,0-2.973,1.1c.5-3.238,4.239-4.135,4.239-4.135.942-3.744,3.235-4.477,3.235-4.477a3.559,3.559,0,0,0-1.2,3.195c5.4-5.291,13.067-6.613,17.906-6.872a11.529,11.529,0,0,0,7.362-3.3c.867-.838,1.591-1.467,1.591-1.467,1.241.5,7.455,5.91,5.624,13.324-1.221,4.948-6.895,6.565-10.535,7.1a17.852,17.852,0,0,1-4.5-.087c-3.976-.426-6.634,4.354-7.023,7.688-.432,3.7,2.914,9.6,5.982,7.307s8.745-2.487,8.745-2.487,2.728,5.568,1.328,8.2c-2.052,3.865-13.587,2.314-17.194-.064s-.7-11.808-3.251-14.309-4.708,2.741-1.528,4.673c1.475.9-.069,8.9-.069,8.9C420.438,275.33,414.345,262.132,420.229,251.57Z" transform="translate(-404.99 -235.623)"/><path d="M470.559,387.468c.76.646,10.137,2.882,10.727,1.645a14.886,14.886,0,0,1,1.21-2.124c-2.446-.38-5.567-.562-8.21-1.7a13.209,13.209,0,0,1-2.939-1.674h-.014S469.8,386.836,470.559,387.468Z" transform="translate(-376.772 -156.967)"/></g></g></g><g transform="translate(326.856 -101.576)"><g transform="translate(690.808 586.969)"><g transform="translate(2.32 21.658)"><g transform="translate(14.921)"><path d="M363.238,278.4a8.937,8.937,0,1,0,9.513-8.321A8.936,8.936,0,0,0,363.238,278.4Z" transform="translate(-329.053 -259.735)" fill="#131637"/><path d="M364.823,273.5a6.1,6.1,0,1,0,6.488-5.676A6.094,6.094,0,0,0,364.823,273.5Z" transform="translate(-327.296 -262.225)" fill="#131637"/><path d="M371.889,270.795a2.218,2.218,0,1,1-2.422-1.994A2.219,2.219,0,0,1,371.889,270.795Z" transform="translate(-324.367 -261.139)" fill="#131637"/><path d="M372.015,272.1a2.218,2.218,0,1,1-2.421-1.994A2.217,2.217,0,0,1,372.015,272.1Z" transform="translate(-324.228 -259.699)" fill="#131637"/><path d="M392.079,272.815s-2-9.579-14.907-7.315c0,0-10.849-1.111-15.827,10.628a24.013,24.013,0,0,1,2.647,11.672c-.759,18.183-3.463,37.753-13.708,53.27-.168.254-.356.484-.528.732-.863,2.373-1.786,4.723-2.777,7.027,3.036,2.672,7.826,4.666,15.454,3.806a212.593,212.593,0,0,0,12.284-38.779l7.666-13.757,8.668-7.725S398.822,274.207,392.079,272.815Z" transform="translate(-346.978 -265.153)" fill="#131637"/><path d="M371.149,271.825c.013.181,3.81,8.979,3.848,15.772l-6.362-.263Z" transform="translate(-323.073 -257.789)" fill="#ff907d"/><path d="M378.957,269.528s12.284,9.842,1.489,33.492l-9.316-1.841-.743,11.108-12.141-.812.865-12.915a13.347,13.347,0,0,0,5.857-9.987s-6.221-.8-5.293-6.425c.591-3.587,5.727-3.926,7.033-.206l-.242,3.646s2.75-1.14,3.36-6.154c0,0,6.547-3.591,3.921-10.254Z" transform="translate(-334.539 -260.708)" fill="#ffcda9"/><path d="M367.769,279.726l5.844,1.191a46.17,46.17,0,0,1-1.572,5.527C366.53,285.025,367.769,279.726,367.769,279.726Z" transform="translate(-324.16 -249.068)" fill="#fff"/><path d="M372.605,271.089a3.546,3.546,0,1,1-3.871-3.189A3.548,3.548,0,0,1,372.605,271.089Z" transform="translate(-326.5 -262.14)" fill="#131637"/><path d="M372.659,274.288a5.449,5.449,0,1,1-5.947-4.9A5.448,5.448,0,0,1,372.659,274.288Z" transform="translate(-330.632 -260.505)" fill="#131637"/><path d="M371.627,287.078h0c-6.248-.419-12.295,4.38-11.857,10.626,2.672,38.117-10.856,70.934-10.856,70.934h42.28s-3.684-34.073-2.743-36.585,10.62-6,10.62-15.654l-16.62-22.891A13.918,13.918,0,0,0,371.627,287.078Z" transform="translate(-344.841 -240.981)" fill="#f25f46"/><path d="M380.858,325.173c.276-.738,1.315-1.567,2.634-2.6a84.6,84.6,0,0,1-3.478-14.215c-2.878-17.5-14.586-16.405-18.77-13.115-6.911,5.43-7.311,15.349-.858,28.471,6.7,13.62,14.575,22.891,22.307,29.224C381.668,342.651,380.229,326.854,380.858,325.173Z" transform="translate(-337.248 -234.101)" fill="#f25f46"/><path d="M365.172,290.62l.385.248,3.154.921a2.922,2.922,0,0,1,2.083,3.139l-.326,2.853a14.884,14.884,0,0,1,9.4,12.951" transform="translate(-326.896 -237.044)" fill="#fff"/><path d="M357.719,288.275l.238-1.273c-1.5.669,7.94-2.935,14.809,3.539l.633,4.523A34.36,34.36,0,0,0,357.719,288.275Z" transform="translate(-335.122 -241.487)" fill="#fff"/><path d="M355.482,287.683a6.172,6.172,0,1,0,5.55-6.736A6.172,6.172,0,0,0,355.482,287.683Z" transform="translate(-337.623 -247.753)" fill="#131637"/><path d="M353.9,289.377a4.544,4.544,0,1,0,4.086-4.961A4.544,4.544,0,0,0,353.9,289.377Z" transform="translate(-339.362 -243.915)" fill="#131637"/></g><path d="M358.357,297.714c1.161-5.192,9.534-13.447,22.835-1.712,15.917,14.045,31.828,21.232,60.861,12.455l4.889,8.849s-25.694,23.847-71.243,3.006C362.4,314.227,356.439,306.293,358.357,297.714Z" transform="translate(-319.884 -233.84)" fill="#f25f46"/><path d="M385,265.358s-13.525-2.222-18.909,17.428c0,0-1.906,33.909-17.985,48.507s-7.776,36.074,17.985,38.066a33.726,33.726,0,0,0,2.874-21.957s7.323-15.894,3.85-26.411c0,0,12.2-2.922,6.564-18.126C373.311,291.571,382,277.627,382,277.627l9.408-6.29Z" transform="translate(-339.886 -265.011)" fill="#131637"/></g><g transform="translate(0 0)"><g transform="translate(87.474)"><path d="M227.381,324.63A66.227,66.227,0,0,1,274.8,235.374l7.056,32.224a33.277,33.277,0,0,0-26.156,32.493,32.913,32.913,0,0,0,2.359,12.314Z" transform="translate(-222.676 -235.374)" fill="#ffc550"/><path d="M324.5,345.978a66.149,66.149,0,0,1-46.855,19.415,66.893,66.893,0,0,1-8.988-.607,66.049,66.049,0,0,1-37.884-18.808c-.517-.517-1.013-1.056-1.508-1.6l24.089-22.539a33.25,33.25,0,1,0,38.988-52.538l14.606-29.595A66.223,66.223,0,0,1,324.5,345.978Z" transform="translate(-214.462 -229.964)" fill="#f25f46"/><path d="M287.952,243.516,273.346,273.11a32.89,32.89,0,0,0-14.7-3.438,33.412,33.412,0,0,0-7.1.764l-7.056-32.224c1.708-.382,3.438-.7,5.168-.921a64.269,64.269,0,0,1,9.033-.629,65.924,65.924,0,0,1,18.651,2.7A64.316,64.316,0,0,1,287.952,243.516Z" transform="translate(-195.469 -233.768)" fill="#f7882d"/><path d="M236.586,307.316A65.272,65.272,0,0,1,223.4,286.6l30.673-12.227a32.932,32.932,0,0,0,6.607,10.4Z" transform="translate(-221.78 -186.738)" fill="#d1d9fe"/></g><path d="M415.153,399.9c0,8.028-16.668,14.537-37.231,14.537s-37.233-6.509-37.233-14.537,16.671-14.535,37.233-14.535S415.153,391.872,415.153,399.9Z" transform="translate(-336.679 -110.807)" fill="#f8a966" opacity="0.6"/><g transform="translate(0 149.315)"><path d="M372.132,325.833h8.015L375.641,464.9h-5.985s-10.79-43.328-7.9-71.908c2.478-32.908-2.832-47.171-2.832-47.171" transform="translate(-316.553 -325.833)" fill="#00216c"/><path d="M397.434,325.833l-11.556,65.441L345.5,453.289l-6.189-2.581s14.958-44.554,30.892-65.92l-8.068-32.365a68.286,68.286,0,0,1-2.623-26.59Z" transform="translate(-338.199 -325.833)" fill="#002a88"/><path d="M339.9,385.19,339,386.452a1.209,1.209,0,0,0,.229,1.635l18.03,14.043s.928-6.812-7.586-13.925A29.148,29.148,0,0,0,339.9,385.19Z" transform="translate(-338.783 -260.315)" fill="#000f1f"/></g><path d="M363.585,392.908v1.576a1.14,1.14,0,0,0,1.113,1.165h22.458s-3.126-6.048-14-6.433A29.463,29.463,0,0,0,363.585,392.908Z" transform="translate(-311.406 -106.556)" fill="#000f1f"/></g><g transform="translate(27.344 93.107) rotate(-21)"><path d="M3.549,3.162C7.085-.814,18.414-3.963,24.34,12.755c7.092,20.007,17.51,34.016,47.15,40.45l-.023,10.107S37.424,71.679,7.733,31.336C-.935,19.559-2.3,9.728,3.549,3.162Z" transform="translate(0 0)" fill="#f25f46"/><path d="M2.911,8.274S6.687,5.14,8.319,4.588c0,0,7.835-4.046,9.091-4.588,0,0,1.637,1.3-.219,3.055a27.035,27.035,0,0,1-4.67,3.316,20.948,20.948,0,0,0,6.151-.524c2.335-.757,6.987-2.123,8.354-1.435s.236,1.811.236,1.811-7.145,2.091-8.674,2.552c-1.342.4-.82.869-.82.869s8.661-.515,10.212-.6,2.186.736,1.795,2.1c0,0-4.62.305-7.441.741-.98.151-4.407.061-4.174,1.159,0,0,7.471.33,8.735.236a1.234,1.234,0,0,1,1.178,2.051l-10.163.332s-.707.156-.448.581c.231.383,4.784,1.752,5.308,1.771s2.159.217,1.807,1.519c0,0-.181.427-1.717.263s-8.836-.694-8.836-.694a22.469,22.469,0,0,1-9.688-2.3C-.55,14.337-.544,12.152.687,15.019l.983-2.809Z" transform="translate(67.406 47.302)" fill="#ffcda9"/><path d="M7.945,12.908,8.633.835,1.025,0,0,12.121Z" transform="translate(64.902 51.91)" fill="#fff"/></g></g></g></g></g></svg>