<svg xmlns="http://www.w3.org/2000/svg" xmlns:xlink="http://www.w3.org/1999/xlink" width="816" height="852.704" viewBox="0 0 816 852.704"><defs><linearGradient id="a" x1="163.627" y1="1" x2="163.627" gradientUnits="objectBoundingBox"><stop offset="0" stop-color="#fff"/><stop offset="0.365" stop-color="#fff"/><stop offset="0.542" stop-color="#fff"/><stop offset="1" stop-color="#fff"/></linearGradient><clipPath id="c"><rect width="816" height="852.704"/></clipPath></defs><g id="b" clip-path="url(#c)"><rect width="816" height="852.704" fill="#fff"/><g transform="translate(-584)"><g transform="translate(-58 -68)"><g transform="translate(117.856 68.438)"><g transform="translate(24.863 -38.532)"><path d="M1086.449,902.621c-.431-13.164-1.234-64.184-1.076-117.562.052-17.576-.589-35.776,0-52.667,1.653-47.432,0-151.69,0-151.69l-.454-95.494V380.3s2.815-255.359-.417-258c-2.633-2.155-4.985-1.12-7.484-1.4-3.771-.437-8.518-.55-22.06,0-22.625.919-69.454-2.038-162.926.953-15.468.495-79.636-.737-152.333-.542-113.73.306-247.562.409-247.562.409H339.2s-6.723.448-21.783-1.418c-6.24-.773,7.631.379,0,0-6.38-.317,10.576-.1,0,1.418-3.4.487-40.982-1.272-41.849,0-13.225,19.412-1.994,92.173,0,108.619,9.3,76.717-18.622,221.058,53.893,266.047,56.5,35.055,167.231-61.467,239.362-20.943,29.376,16.5,34.488,53.4,18.333,121.49-56.782,63.766-54.044,169.139-30.465,189.538,7.28,6.3-8.059-65.942,0,0,4.682,38.289,260.175-11.7,242.947,21.193-28.641,54.689,37.749,135.978,59.8,147.744,42.786,22.829,163,22.6,225.73,2.4-.7-6.639.069-11.869,0-16.738-.285-19.99-1.154-21.368,0-25.138C1085.758,914.052,1085.333,912.691,1086.449,902.621Z" transform="translate(230.036 -83.817)" fill="#fdefda" opacity="0.996"/></g><g transform="translate(779.029 415.916)"><path d="M420.383,235.825a.6.6,0,0,1-.6-.6,1.621,1.621,0,1,0-3.242,0,.6.6,0,0,1-1.2,0,2.816,2.816,0,1,1,5.632,0A.6.6,0,0,1,420.383,235.825Z" transform="translate(-415.349 -232.409)" fill="#fff"/><g transform="translate(8.773)"><path d="M423.609,235.825a.6.6,0,0,1-.6-.6,1.621,1.621,0,1,0-3.242,0,.6.6,0,1,1-1.194,0,2.816,2.816,0,1,1,5.632,0A.6.6,0,0,1,423.609,235.825Z" transform="translate(-418.575 -232.409)" fill="#fff"/></g></g><path d="M424.034,244.74a9.479,9.479,0,0,0,9.477-9.48H414.554A9.481,9.481,0,0,0,424.034,244.74Z" transform="translate(362.313 188.41)" fill="#fff"/><g transform="translate(543.323 185.045)"><rect width="71.874" height="12.103" transform="translate(8.229)" fill="#ffdea9"/><rect width="4.217" height="105.538" fill="#e2ebf4"/><rect width="82.282" height="12.103" transform="translate(8.229 17.429)" fill="#ffdea9"/><rect width="54.204" height="12.103" transform="translate(8.229 34.857)" fill="#ffdea9"/><rect width="10.33" height="12.103" transform="translate(8.229 69.714)" fill="#ffdea9"/><rect width="24.737" height="12.103" transform="translate(25.002 69.714)" fill="#ffdea9"/></g><g transform="translate(1168.835 764.584) rotate(180)"><rect width="71.874" height="12.103" transform="translate(8.229)" fill="#ffdea9"/><rect width="4.217" height="105.538" fill="#e2ebf4"/><rect width="82.282" height="12.103" transform="translate(8.229 17.429)" fill="#ffdea9"/><rect width="54.204" height="12.103" transform="translate(8.229 34.857)" fill="#ffdea9"/><rect width="10.33" height="12.103" transform="translate(8.229 69.714)" fill="#ffdea9"/><rect width="24.737" height="12.103" transform="translate(25.002 69.714)" fill="#ffdea9"/></g></g></g><g transform="translate(-29.144 -46.562)"><g transform="translate(62.577 -443.31)"><g transform="translate(766.801 621.374)"><g transform="translate(22 -13)"><path d="M0,0H433.656V289.109a11.909,11.909,0,0,1-11.909,11.909H0Z" transform="translate(0 40.448)" fill="#ffdea9" opacity="0.67"/><rect width="203.453" height="3.439" transform="translate(208.45 293.735)" fill="#fffaff"/><rect width="203.453" height="3.438" transform="translate(208.45 306.295)" fill="#fffaff"/><rect width="203.453" height="3.439" transform="translate(208.45 318.854)" fill="#fffaff"/><path d="M5.348,0H277.706a5.348,5.348,0,0,1,5.348,5.348V157.431a5.348,5.348,0,0,1-5.348,5.348H5.348A5.348,5.348,0,0,1,0,157.431V5.348A5.348,5.348,0,0,1,5.348,0Z" transform="translate(126.81 121.748)" fill="#fff"/><path d="M0,0H433.656V33.968H0Z" transform="translate(0 40.448)" fill="#f7882d"/><g transform="translate(7.195 50.337)"><path d="M450.147,161.961a7.093,7.093,0,1,1-7.093-7.1A7.092,7.092,0,0,1,450.147,161.961Z" transform="translate(-435.96 -154.865)" fill="#ffca1c"/><path d="M446.27,160.424a4.753,4.753,0,1,1-4.753-4.756A4.754,4.754,0,0,1,446.27,160.424Z" transform="translate(-434.423 -153.328)" fill="#ffc550"/></g><g transform="translate(27.182 50.337)"><path d="M457.008,161.961a7.095,7.095,0,1,1-7.1-7.1A7.1,7.1,0,0,1,457.008,161.961Z" transform="translate(-442.818 -154.865)" fill="#ffca1c"/><circle cx="4.754" cy="4.754" r="4.754" transform="translate(2.34 2.341)" fill="#ffc550"/></g><g transform="translate(47.168 50.337)"><path d="M463.866,161.961a7.095,7.095,0,1,1-7.1-7.1A7.1,7.1,0,0,1,463.866,161.961Z" transform="translate(-449.676 -154.865)" fill="#ffca1c"/><path d="M459.989,160.424a4.755,4.755,0,1,1-4.756-4.756A4.757,4.757,0,0,1,459.989,160.424Z" transform="translate(-448.139 -153.328)" fill="#ffc550"/></g><path d="M0,0H30.978a2.9,2.9,0,0,1,2.9,2.9v13.19a0,0,0,0,1,0,0H0a0,0,0,0,1,0,0V0A0,0,0,0,1,0,0Z" transform="translate(174.576 24.362)" fill="#fff"/><path d="M516.76,154.186H499.69l-.807-4.133Z" transform="translate(-308.311 -113.738)" fill="#d6f0ff"/><path d="M0,0H61.652a6.1,6.1,0,0,1,6.1,6.1V28.583a0,0,0,0,1,0,0H0a0,0,0,0,1,0,0V0A0,0,0,0,1,0,0Z" transform="translate(124.636 11.865)" fill="#f25f46"/><path d="M518.04,155.247,489.822,149.5l3.461,5.747Z" transform="translate(-325.656 -114.799)" fill="#cb4c37"/><path d="M0,0H157.208a10.419,10.419,0,0,1,10.419,10.419v30.03H0Z" fill="#ffc550"/><path d="M601.118,160.5,433.491,146.755V160.5Z" transform="translate(-433.491 -120.053)" fill="#deab44"/><path d="M0,0H198.759V6.139H0Z" transform="translate(126.81 100.31)"/><rect width="79.305" height="6.139" transform="translate(126.81 83.607)"/><rect width="65.237" height="5.35" transform="translate(330.039 255.154)"/><path d="M0,0H65.237V5.35H0Z" transform="translate(330.039 266.706)"/><path d="M1.8,0H93.29c.992,0,1.8,2.394,1.8,5.348V157.431c0,2.953-.8,5.348-1.8,5.348H1.8c-.992,0-1.8-2.394-1.8-5.348V5.348C0,2.394.8,0,1.8,0Z" transform="translate(14.289 121.748)" fill="#fff"/></g></g></g></g><g transform="translate(377.855 -175.562)"><path d="M2.417,6.872s3.136-2.6,4.492-3.061c0,0,6.507-3.36,7.55-3.811,0,0,1.359,1.076-.182,2.537A22.452,22.452,0,0,1,10.4,5.291a17.4,17.4,0,0,0,5.109-.435c1.939-.629,5.8-1.763,6.938-1.192s.2,1.5.2,1.5-5.934,1.737-7.2,2.119c-1.115.335-.681.722-.681.722s7.193-.428,8.481-.5,1.815.612,1.49,1.74c0,0-3.837.253-6.18.615-.814.126-3.66.051-3.466.963,0,0,6.2.274,7.254.2a1.025,1.025,0,0,1,.978,1.7L14.873,13s-.587.129-.372.482a19.858,19.858,0,0,0,4.408,1.471c.435.016,1.793.18,1.5,1.262,0,0-.15.355-1.426.218s-7.338-.577-7.338-.577A18.66,18.66,0,0,1,3.6,13.95C-.457,11.907-.452,10.092.57,12.473l.816-2.333Z" transform="translate(746.112 717.698) rotate(87)" fill="#ffcda9"/><g transform="translate(692.735 614.964)"><g transform="translate(12.392)"><path d="M363.234,276.989a7.422,7.422,0,1,0,7.9-6.91A7.422,7.422,0,0,0,363.234,276.989Z" transform="translate(-334.844 -261.486)" fill="#131637"/><path d="M364.821,272.532a5.062,5.062,0,1,0,5.388-4.714A5.061,5.061,0,0,0,364.821,272.532Z" transform="translate(-333.654 -263.171)" fill="#131637"/><path d="M371.139,270.455a1.842,1.842,0,1,1-2.011-1.656A1.843,1.843,0,0,1,371.139,270.455Z" transform="translate(-331.672 -262.436)" fill="#131637"/><path d="M371.265,271.76a1.842,1.842,0,1,1-2.011-1.656A1.841,1.841,0,0,1,371.265,271.76Z" transform="translate(-331.577 -261.461)" fill="#131637"/><path d="M384.434,271.516s-1.665-7.955-12.381-6.075c0,0-9.01-.922-13.144,8.827a19.943,19.943,0,0,1,2.2,9.693c-.631,15.1-2.876,31.354-11.385,44.241-.14.211-.3.4-.439.608-.716,1.971-1.483,3.922-2.306,5.836,2.521,2.219,6.5,3.875,12.835,3.161a176.559,176.559,0,0,0,10.2-32.206l6.367-11.425,7.2-6.416S390.034,272.673,384.434,271.516Z" transform="translate(-346.978 -265.153)" fill="#131637"/><path d="M370.723,271.825c.01.15,3.164,7.457,3.2,13.1l-5.284-.218Z" transform="translate(-330.796 -260.168)" fill="#ffcda9"/><path d="M375.446,269.469s10.2,8.173,1.237,27.815l-7.737-1.529-.617,9.225-10.083-.674.718-10.726a11.085,11.085,0,0,0,4.864-8.294s-5.167-.664-4.4-5.336c.491-2.979,4.756-3.26,5.841-.171l-.2,3.028s2.284-.947,2.79-5.111c0,0,5.437-2.982,3.257-8.516Z" transform="translate(-338.558 -262.144)" fill="#ffcda9"/><path d="M367.749,279.726l4.854.989a38.336,38.336,0,0,1-1.305,4.59A4.611,4.611,0,0,1,367.749,279.726Z" transform="translate(-331.532 -254.265)" fill="#fff"/><path d="M371.406,270.546a2.945,2.945,0,1,1-3.215-2.649A2.947,2.947,0,0,1,371.406,270.546Z" transform="translate(-333.116 -263.114)" fill="#131637"/><path d="M370.817,273.454a4.525,4.525,0,1,1-4.939-4.067A4.525,4.525,0,0,1,370.817,273.454Z" transform="translate(-335.913 -262.007)" fill="#131637"/><path d="M367.777,287.074h0c-5.189-.348-10.211,3.638-9.847,8.825,2.219,31.656-9.016,58.91-9.016,58.91h35.113s-3.059-28.3-2.278-30.384,8.82-4.981,8.82-13l-13.8-19.011A11.559,11.559,0,0,0,367.777,287.074Z" transform="translate(-345.531 -248.79)" fill="#f25f46"/><path d="M376.609,319.768a7.1,7.1,0,0,1,2.188-2.163,70.259,70.259,0,0,1-2.888-11.806c-2.39-14.537-12.113-13.625-15.589-10.892-5.74,4.51-6.072,12.748-.713,23.645,5.561,11.311,12.1,19.011,18.526,24.27C377.282,334.284,376.087,321.164,376.609,319.768Z" transform="translate(-340.392 -244.133)" fill="#f25f46"/><path d="M365.172,290.62l.32.206,2.619.765a2.427,2.427,0,0,1,1.73,2.607l-.271,2.369a12.361,12.361,0,0,1,7.808,10.756" transform="translate(-333.384 -246.125)" fill="#fff"/><path d="M357.719,287.99l.2-1.057c-1.249.556,6.594-2.437,12.3,2.939l.526,3.756A28.536,28.536,0,0,0,357.719,287.99Z" transform="translate(-338.952 -249.133)" fill="#fff"/><path d="M355.477,286.536a5.126,5.126,0,1,0,4.609-5.595A5.126,5.126,0,0,0,355.477,286.536Z" transform="translate(-340.645 -253.375)" fill="#131637"/><path d="M353.9,288.533a3.774,3.774,0,1,0,3.393-4.12A3.774,3.774,0,0,0,353.9,288.533Z" transform="translate(-341.822 -250.776)" fill="#131637"/></g><path d="M358.3,296.41c.964-4.312,7.918-11.168,18.964-1.422,13.219,11.664,26.433,17.633,50.545,10.343l4.06,7.349s-21.339,19.8-59.167,2.5C361.658,310.123,356.7,303.535,358.3,296.41Z" transform="translate(217.188 -383.279) rotate(73)" fill="#f25f46"/><path d="M6.6,10.72,7.17.693.851,0,0,10.067Z" transform="translate(61.948 10.396) rotate(-70)" fill="#fff"/><path d="M377.353,265.345s-11.233-1.845-15.7,14.474c0,0-1.583,28.161-14.937,40.285s-6.458,29.959,14.937,31.614a28.009,28.009,0,0,0,2.387-18.236s6.082-13.2,3.2-21.934c0,0,10.129-2.427,5.451-15.054-5.039-9.379,2.179-20.959,2.179-20.959l7.814-5.224Z" transform="translate(-339.886 -265.057)" fill="#131637"/></g><g transform="translate(690.808 720.984)"><path d="M402.531,397.436c0,6.667-13.843,12.073-30.92,12.073s-30.922-5.406-30.922-12.073,13.845-12.071,30.922-12.071S402.531,390.769,402.531,397.436Z" transform="translate(-337.359 -281.351)" fill="#f8a966" opacity="0.6"/><path d="M369.893,325.833h6.657l-3.742,115.5h-4.971s-8.961-35.984-6.562-59.719c2.058-27.33-2.352-39.176-2.352-39.176" transform="translate(-323.735 -325.833)" fill="#00216c"/><path d="M387.582,325.833l-9.6,54.348-33.532,51.5-5.14-2.144s12.423-37,25.656-54.747l-6.7-26.879a56.712,56.712,0,0,1-2.179-22.083Z" transform="translate(-338.387 -325.833)" fill="#002a88"/><path d="M339.707,385.19l-.743,1.048a1,1,0,0,0,.19,1.358l14.974,11.663s.77-5.657-6.3-11.565A24.207,24.207,0,0,0,339.707,385.19Z" transform="translate(-338.783 -281.481)" fill="#000f1f"/><path d="M363.585,392.282v1.309a.947.947,0,0,0,.924.968h18.651s-2.6-5.023-11.631-5.343A24.468,24.468,0,0,0,363.585,392.282Z" transform="translate(-320.251 -278.473)" fill="#000f1f"/></g><g transform="translate(713.518 674.303) rotate(-21)"><path d="M2.947,2.626c2.937-3.3,12.346-5.918,17.268,7.967,5.89,16.616,14.542,28.25,39.158,33.593l-.019,8.394S31.08,59.529,6.422,26.025C-.776,16.244-1.907,8.079,2.947,2.626Z" transform="matrix(0.53, -0.848, 0.848, 0.53, 10.595, 4.201)" fill="#f25f46"/><path d="M2.417,6.872s3.136-2.6,4.492-3.061c0,0,6.507-3.36,7.55-3.811,0,0,1.359,1.076-.182,2.537A22.452,22.452,0,0,1,10.4,5.291a17.4,17.4,0,0,0,5.109-.435c1.939-.629,5.8-1.763,6.938-1.192s.2,1.5.2,1.5-5.934,1.737-7.2,2.119c-1.115.335-.681.722-.681.722s7.193-.428,8.481-.5,1.815.612,1.49,1.74c0,0-3.837.253-6.18.615-.814.126-3.66.051-3.466.963,0,0,6.2.274,7.254.2a1.025,1.025,0,0,1,.978,1.7L14.873,13s-.587.129-.372.482a19.858,19.858,0,0,0,4.408,1.471c.435.016,1.793.18,1.5,1.262,0,0-.15.355-1.426.218s-7.338-.577-7.338-.577A18.66,18.66,0,0,1,3.6,13.95C-.457,11.907-.452,10.092.57,12.473l.816-2.333Z" transform="translate(73.764 -27.632) rotate(-31)" fill="#ffcda9"/><path d="M6.6,10.72,7.17.693.851,0,0,10.067Z" transform="matrix(0.53, -0.848, 0.848, 0.53, 75.719, -18.664)" fill="#fff"/></g><g transform="translate(500.809 720.984)"><path d="M419.933,400.833c0,8.544-17.738,15.47-39.621,15.47s-39.623-6.927-39.623-15.47,17.741-15.468,39.623-15.468S419.933,392.29,419.933,400.833Z" transform="translate(-416.359 -275.351)" fill="#f8a966" opacity="0.6"/></g></g><g transform="translate(807.959 403.031)"><path d="M582.162,220.567l.513,3.38-3.166.344-1.217-2.312Z" transform="translate(-533.791 -187.244)" fill="#fff"/><path d="M590.611,242.089v-5.074s3.067.563,7.859-1.409v-4.64a6.184,6.184,0,0,1-3.284-1.824l3.284-1.215-.609-2.431,2.65-1.529-4.229-7.221-.365-4.254-2.674,1.824-1.215,7.777-1.417-3.037s-2.517-1.374-3.444,1.093a3.3,3.3,0,0,0,3.444,4.5l-1.5,8.872H577.2v8.573Z" transform="translate(-549.587 -194.262)" fill="#ffcda9"/><path d="M599.276,227.53l1.411,3.863,1.22-8.6s8.266-.609,8.266-7.291l-2.859.148s2.594-5.706-1.992-9.679l-2.792,2.957s0-5.642-6.338-6.188l-1.265,4.072s-10.675-.28-15.312,8.711l-1.263-1.405.561,2.248-2.247.7,2.387.983s-5.481,14.452,6.812,23.943v1.9l2.6-1.9h9.309l1.5-8.872a3.637,3.637,0,0,1-3.581-3.076C595.3,227.28,598.063,226.855,599.276,227.53Z" transform="translate(-558.252 -202.737)" fill="#131637"/><path d="M580.654,229.17s6.883-4.076,18.17,0l2.629,5.022-21.586-1.12Z" transform="translate(-555.513 -181.343)" fill="#fff"/><path d="M601.179,231.915a28.7,28.7,0,0,0-20.534-2.291l-.464,2.3,13.611.707,7.386-.712Z" transform="translate(-555.828 -180.191)" opacity="0.4" fill="url(#a)"/><path d="M577.2,214.767l1.58,8.75,2.65-1.529Z" transform="translate(-530.505 -192.284)" fill="#ffcda9"/><path d="M601.372,232.864a336.265,336.265,0,0,0-8.65,46.816s2.1,18.158,5.606,26.4c3.9-23.1,6.5-47.371,6.5-47.371Z" transform="translate(-582.912 -176.559)" fill="#457bf4"/><path d="M580.088,235.812s11.954-12.477,36.7-2.424l8.672,71.15-4.573,5.847H574.533S572.306,266.322,580.088,235.812Z" transform="translate(-564.428 -179.507)" fill="#457bf4"/><path d="M547.754,254.267l7.307-6.98.146,3.564,7.773-6.646A17.464,17.464,0,0,1,551.972,259Z" transform="translate(-304.968 502.268) rotate(-76)" fill="#ffcda9"/><path d="M564.736,231.567s6.147,31.553,19.095,35.737c9.76,3.157,15.17-.546,15.17-.546l6,6.868a29.278,29.278,0,0,1-24.729,5.842c-19.091-4.1-25.1-24.283-25.1-24.283S552.282,234.66,564.736,231.567Z" transform="translate(-329.013 553.318) rotate(-76)" fill="#457bf4"/><rect width="5.118" height="9.121" transform="matrix(0.456, 0.89, -0.89, 0.456, 80.515, 27.928)" fill="#fff"/><path d="M566.175,347.795v1.852a1.374,1.374,0,0,0,1.374,1.376H595.28s-3.861-7.122-17.293-7.577A37.4,37.4,0,0,0,566.175,347.795Z" transform="translate(-523.751 -80.473)" fill="#000f1f"/><path d="M591.956,346.367v2.753a1.682,1.682,0,0,0,1.682,1.682h3.751a4.957,4.957,0,0,0,1.742-.318l15.293-5.766s-4.1-4.755-13.2-1.729Z" transform="translate(-591.078 -81.745)" fill="#000f1f"/><path d="M583.682,272.766l-2.228,73.4a113.282,113.282,0,0,0-3.506,11.309c-4.371,16.59-3.669,49.6-3.669,49.6s4.119,3.869,9.446-.529l14.206-63.964,8.95-43.08,5.913,41.585s-3.646,9.6-2.035,26.1c1,10.3,5.242,42.019,5.242,42.019s7.818-.561,11.126-4.211l2.91-76.3V272.766Z" transform="translate(-573.577 -141.888)"/><path d="M604.388,293.776l-3.646-6.636-14.115-7.784,8.48,8.813-1.8,58.293Z" transform="translate(-571.085 -136.161)"/><path d="M620.753,272.766l-46.515,5.291.161-5.291Z" transform="translate(-564.293 -141.888)" fill="#001f5f"/></g><g transform="translate(850 86)"><rect width="40.09" height="29.401" transform="translate(256.402 291.722)" fill="#457bf4"/><path d="M283.825,318.592H269.07A1.065,1.065,0,0,0,268,319.659v4.084a1.066,1.066,0,0,0,1.066,1.068H272v32.313h8.9V324.811h2.929a1.068,1.068,0,0,0,1.068-1.068v-4.084A1.067,1.067,0,0,0,283.825,318.592Z" fill="#e3e3e3"/><path d="M260.633,298.114q.689-.107,1.594-.172c.6-.043,1.356-.064,2.261-.064a12.426,12.426,0,0,1,2.239.193,5.61,5.61,0,0,1,1.841.657,3.42,3.42,0,0,1,1.239,1.238,3.819,3.819,0,0,1,.449,1.939,3.886,3.886,0,0,1-.2,1.28,3.586,3.586,0,0,1-.549,1.034,3.325,3.325,0,0,1-.776.731,2.094,2.094,0,0,1-.881.356,4.717,4.717,0,0,1,1.1.3,3.727,3.727,0,0,1,1.119.7,3.666,3.666,0,0,1,.864,1.195,4.142,4.142,0,0,1,.343,1.766,4.479,4.479,0,0,1-.527,2.292,3.872,3.872,0,0,1-1.422,1.411,6.081,6.081,0,0,1-2.065.711,15.283,15.283,0,0,1-2.466.193c-.662,0-1.314-.018-1.961-.055s-1.377-.1-2.2-.2Zm4.07,6.287a4.915,4.915,0,0,0,1-.1,2.1,2.1,0,0,0,.807-.346,1.655,1.655,0,0,0,.541-.668,2.546,2.546,0,0,0,.193-1.064,2.065,2.065,0,0,0-.226-1.024,1.728,1.728,0,0,0-.583-.624,2.145,2.145,0,0,0-.8-.3,5.192,5.192,0,0,0-.871-.075,6.653,6.653,0,0,0-1.014.066V304.4Zm-.949,6.848c.2.029.436.051.7.065s.507.021.721.021a5.563,5.563,0,0,0,.947-.086,2.875,2.875,0,0,0,.928-.334,2.038,2.038,0,0,0,.709-.689,2.119,2.119,0,0,0,.281-1.153,2.5,2.5,0,0,0-.217-1.107,1.785,1.785,0,0,0-.613-.711,2.539,2.539,0,0,0-.946-.377,6.355,6.355,0,0,0-1.218-.107h-1.293Z" fill="#fff"/><path d="M273.617,298.136a9.812,9.812,0,0,1,1.572-.129,10.244,10.244,0,0,1,1.593.129v15.482a10.219,10.219,0,0,1-1.572.128,10.036,10.036,0,0,1-1.593-.128Z" fill="#fff"/><path d="M279.859,298.136c.6-.071,1.235-.133,1.9-.183s1.391-.075,2.193-.075q4.074,0,6.194,2.023t2.12,6.073q0,4.068-2.155,5.986t-6.393,1.916q-1.1,0-2.024-.076t-1.832-.182Zm3.165,12.984c.13.015.294.027.5.043s.446.022.733.022a7.194,7.194,0,0,0,1.842-.227,3.323,3.323,0,0,0,1.475-.828,4.233,4.233,0,0,0,.991-1.615,9.435,9.435,0,0,0,0-5.191,4.2,4.2,0,0,0-.991-1.634,3.544,3.544,0,0,0-1.431-.852,5.89,5.89,0,0,0-1.712-.246q-.3,0-.7.009a6.672,6.672,0,0,0-.7.054Z" fill="#fff"/></g><g transform="translate(606 75)"><rect width="40.09" height="29.401" transform="translate(256.402 291.722)" fill="#f25f46"/><path d="M283.825,318.592H269.07A1.065,1.065,0,0,0,268,319.659v4.084a1.066,1.066,0,0,0,1.066,1.068H272v32.313h8.9V324.811h2.929a1.068,1.068,0,0,0,1.068-1.068v-4.084A1.067,1.067,0,0,0,283.825,318.592Z" fill="#e3e3e3"/><path d="M260.633,298.114q.689-.107,1.594-.172c.6-.043,1.356-.064,2.261-.064a12.426,12.426,0,0,1,2.239.193,5.61,5.61,0,0,1,1.841.657,3.42,3.42,0,0,1,1.239,1.238,3.819,3.819,0,0,1,.449,1.939,3.886,3.886,0,0,1-.2,1.28,3.586,3.586,0,0,1-.549,1.034,3.325,3.325,0,0,1-.776.731,2.094,2.094,0,0,1-.881.356,4.717,4.717,0,0,1,1.1.3,3.727,3.727,0,0,1,1.119.7,3.666,3.666,0,0,1,.864,1.195,4.142,4.142,0,0,1,.343,1.766,4.479,4.479,0,0,1-.527,2.292,3.872,3.872,0,0,1-1.422,1.411,6.081,6.081,0,0,1-2.065.711,15.283,15.283,0,0,1-2.466.193c-.662,0-1.314-.018-1.961-.055s-1.377-.1-2.2-.2Zm4.07,6.287a4.915,4.915,0,0,0,1-.1,2.1,2.1,0,0,0,.807-.346,1.655,1.655,0,0,0,.541-.668,2.546,2.546,0,0,0,.193-1.064,2.065,2.065,0,0,0-.226-1.024,1.728,1.728,0,0,0-.583-.624,2.145,2.145,0,0,0-.8-.3,5.192,5.192,0,0,0-.871-.075,6.653,6.653,0,0,0-1.014.066V304.4Zm-.949,6.848c.2.029.436.051.7.065s.507.021.721.021a5.563,5.563,0,0,0,.947-.086,2.875,2.875,0,0,0,.928-.334,2.038,2.038,0,0,0,.709-.689,2.119,2.119,0,0,0,.281-1.153,2.5,2.5,0,0,0-.217-1.107,1.785,1.785,0,0,0-.613-.711,2.539,2.539,0,0,0-.946-.377,6.355,6.355,0,0,0-1.218-.107h-1.293Z" fill="#ffc550"/><path d="M273.617,298.136a9.812,9.812,0,0,1,1.572-.129,10.244,10.244,0,0,1,1.593.129v15.482a10.219,10.219,0,0,1-1.572.128,10.036,10.036,0,0,1-1.593-.128Z" fill="#ffc550"/><path d="M279.859,298.136c.6-.071,1.235-.133,1.9-.183s1.391-.075,2.193-.075q4.074,0,6.194,2.023t2.12,6.073q0,4.068-2.155,5.986t-6.393,1.916q-1.1,0-2.024-.076t-1.832-.182Zm3.165,12.984c.13.015.294.027.5.043s.446.022.733.022a7.194,7.194,0,0,0,1.842-.227,3.323,3.323,0,0,0,1.475-.828,4.233,4.233,0,0,0,.991-1.615,9.435,9.435,0,0,0,0-5.191,4.2,4.2,0,0,0-.991-1.634,3.544,3.544,0,0,0-1.431-.852,5.89,5.89,0,0,0-1.712-.246q-.3,0-.7.009a6.672,6.672,0,0,0-.7.054Z" fill="#ffc550"/></g><text transform="translate(1034 341)" fill="#f7882d" font-size="50" font-family="Roboto-Bold, Roboto" font-weight="700"><tspan x="0" y="0">AD</tspan></text><text transform="translate(854 341)" fill="#457bf4" font-size="50" font-family="Roboto-Bold, Roboto" font-weight="700"><tspan x="0" y="0">AD</tspan></text></g></g></svg>